# Blender 3.6.4
# www.blender.org
mtllib animeEyeSockets.mtl
o EyeSocket_EyeSocket_0
v -0.039421 1.792181 0.052445
v -0.039807 1.791586 0.061387
v -0.033742 1.796134 0.059403
v -0.037104 1.799553 0.048136
v -0.045239 1.792415 0.048559
v -0.045508 1.789624 0.059377
v -0.044433 1.800839 0.040846
v -0.052192 1.803258 0.005031
v -0.052239 1.799847 0.008901
v -0.058340 1.801777 0.003689
v -0.056135 1.805640 0.001339
v -0.048354 1.804278 0.006798
v -0.045876 1.799785 0.012725
v -0.052592 1.808078 0.002412
v -0.029409 1.840935 0.053306
v -0.022856 1.826827 0.051729
v -0.028241 1.822870 0.068919
v -0.029875 1.839846 0.068090
v -0.038180 1.853556 0.062252
v -0.038178 1.842424 0.044000
v -0.033733 1.828952 0.041548
v -0.081306 1.829887 0.051546
v -0.078919 1.821112 0.048451
v -0.073632 1.823312 0.044746
v -0.077432 1.834161 0.050183
v -0.082122 1.840511 0.055776
v -0.084130 1.832442 0.055071
v -0.044011 1.811286 0.005748
v -0.038789 1.808473 0.009520
v -0.043345 1.805983 0.008792
v -0.048076 1.810025 0.004348
v -0.052344 1.814203 0.001214
v -0.045383 1.815174 0.003771
v -0.035916 1.813317 0.007720
v -0.078814 1.820516 -0.005045
v -0.080499 1.821624 -0.001331
v -0.080373 1.830630 -0.001693
v -0.077489 1.825330 -0.005229
v -0.073320 1.819028 -0.005669
v -0.075641 1.815270 -0.005143
v -0.077397 1.813881 -0.000988
v -0.067297 1.791458 0.040989
v -0.067974 1.789905 0.047880
v -0.061131 1.788399 0.052017
v -0.061700 1.791407 0.041849
v -0.068303 1.799840 0.040032
v -0.071201 1.798932 0.046019
v -0.063605 1.799567 0.034715
v -0.029657 1.815588 0.007958
v -0.024011 1.814741 0.012981
v -0.027842 1.808470 0.014995
v -0.038971 1.820592 0.003466
v -0.030691 1.821034 0.004713
v -0.048416 1.820689 0.000967
v -0.032393 1.826390 0.002256
v -0.039839 1.827706 0.000634
v -0.028166 1.831558 0.004600
v -0.023943 1.823022 0.008748
v -0.032393 1.826390 0.002256
v -0.039839 1.827706 0.000634
v -0.037694 1.836808 0.001217
v -0.028166 1.831558 0.004600
v -0.050888 1.838315 -0.001248
v -0.050072 1.853313 0.002766
v -0.034080 1.850469 0.006645
v -0.022325 1.840669 0.011256
v -0.050743 1.827981 -0.000905
v -0.061134 1.826410 -0.002664
v -0.063714 1.836067 -0.003163
v -0.050743 1.827981 -0.000905
v -0.056985 1.819433 -0.001244
v -0.061134 1.826410 -0.002664
v -0.063371 1.816692 -0.003490
v -0.068789 1.823146 -0.004467
v -0.057683 1.811872 -0.001175
v -0.061542 1.808826 -0.002447
v -0.067574 1.813202 -0.004908
v -0.070319 1.809832 -0.003998
v -0.064350 1.805337 -0.000908
v -0.060020 1.797379 0.010351
v -0.066887 1.801219 0.004446
v -0.072582 1.807082 0.000837
v -0.068857 1.797597 0.015074
v -0.074589 1.804474 0.010393
v -0.078610 1.812853 0.008136
v -0.076271 1.801856 0.024481
v -0.079793 1.810549 0.021675
v -0.083123 1.821071 0.020754
v -0.081280 1.822585 0.007214
v -0.084065 1.833938 0.020983
v -0.081639 1.834846 0.006718
v -0.082880 1.850813 0.023835
v -0.078401 1.848969 0.007277
v -0.075850 1.840651 -0.001825
v -0.068460 1.862071 0.010730
v -0.065523 1.849162 -0.000343
v -0.072850 1.831146 -0.004492
v -0.068789 1.823146 -0.004467
v -0.051390 1.870140 0.016176
v -0.074394 1.867539 0.029545
v -0.056285 1.879035 0.034818
v -0.035619 1.875962 0.038415
v -0.032560 1.866777 0.020850
v -0.019834 1.858174 0.042645
v -0.017911 1.852422 0.024989
v -0.012703 1.834230 0.046965
v -0.011056 1.831754 0.029726
v -0.017119 1.826984 0.016571
v -0.017119 1.826984 0.016571
v -0.011056 1.831754 0.029726
v -0.013247 1.815422 0.034215
v -0.017643 1.814542 0.021373
v -0.023943 1.823022 0.008748
v -0.018796 1.803593 0.036923
v -0.021946 1.805132 0.024576
v -0.026130 1.795931 0.037348
v -0.028449 1.799100 0.025653
v -0.032950 1.803342 0.016504
v -0.036178 1.795755 0.024375
v -0.039215 1.800842 0.015524
v -0.044406 1.794498 0.021078
v -0.034676 1.791378 0.035714
v -0.043880 1.789422 0.032338
v -0.053092 1.789850 0.027459
v -0.052480 1.795012 0.016270
v -0.061583 1.792726 0.021337
v -0.053701 1.785368 0.041498
v -0.062787 1.788410 0.035699
v -0.070305 1.794046 0.029447
v -0.063480 1.786182 0.051436
v -0.071139 1.790912 0.045274
v -0.075871 1.800525 0.039971
v -0.070119 1.792553 0.058909
v -0.075956 1.799534 0.052847
v -0.081549 1.809405 0.049733
v -0.080381 1.810244 0.036983
v -0.085581 1.821902 0.048312
v -0.084448 1.820580 0.036444
v -0.088932 1.836137 0.050672
v -0.086869 1.834363 0.038690
v -0.087171 1.849509 0.054926
v -0.087938 1.850688 0.043791
v -0.080970 1.862485 0.060149
v -0.077285 1.862784 0.047280
v -0.063723 1.872411 0.062258
v -0.061094 1.873966 0.050056
v -0.044957 1.869142 0.067406
v -0.041117 1.872288 0.054459
v -0.031510 1.853923 0.073712
v -0.026356 1.856117 0.060153
v -0.025697 1.834423 0.076552
v -0.019395 1.835412 0.063857
v -0.019395 1.835412 0.063857
v -0.025697 1.834423 0.076552
v -0.025889 1.817121 0.075700
v -0.019089 1.817541 0.064362
v -0.012895 1.816260 0.049882
v -0.012703 1.834230 0.046965
v -0.022756 1.803322 0.063810
v -0.018163 1.802589 0.051245
v -0.028382 1.793905 0.062446
v -0.025648 1.793701 0.050511
v -0.035636 1.788558 0.060511
v -0.034280 1.788179 0.048614
v -0.044178 1.786064 0.058376
v -0.043834 1.785368 0.045721
v -0.053762 1.785259 0.055817
v -0.045443 1.789164 0.066780
v -0.053343 1.789507 0.064656
v -0.062185 1.790596 0.062386
v -0.053328 1.791802 0.070043
v -0.061085 1.793662 0.068227
v -0.067740 1.796161 0.065146
v -0.060578 1.794772 0.070077
v -0.066623 1.797237 0.066710
v -0.072506 1.800785 0.062073
v -0.073926 1.800402 0.060777
v -0.079347 1.809826 0.061085
v -0.080629 1.807858 0.058876
v -0.085904 1.822302 0.059425
v -0.086388 1.821796 0.056760
v -0.087391 1.836587 0.060261
v -0.088147 1.836781 0.057836
v -0.086973 1.848393 0.064930
v -0.087311 1.849713 0.062424
v -0.081110 1.860707 0.069685
v -0.083626 1.865629 0.068845
v -0.064864 1.870323 0.073927
v -0.064696 1.874050 0.071171
v -0.048374 1.867605 0.081291
v -0.046698 1.868586 0.077389
v -0.036731 1.852992 0.085668
v -0.034585 1.852778 0.083062
v -0.032400 1.834173 0.086696
v -0.030127 1.833371 0.084810
v -0.030127 1.833371 0.084810
v -0.033742 1.817437 0.084298
v -0.031147 1.816517 0.082756
v -0.036534 1.804285 0.081400
v -0.033861 1.803471 0.079806
v -0.028779 1.803472 0.073723
v -0.037362 1.795385 0.076838
v -0.033193 1.794854 0.071360
v -0.041571 1.791492 0.074261
v -0.038754 1.790465 0.069013
v -0.046782 1.790776 0.072041
v -0.043200 1.792231 0.076053
v -0.047627 1.791654 0.073934
v -0.053432 1.792807 0.071956
v -0.047608 1.792059 0.072339
v -0.053385 1.792859 0.070178
v -0.060504 1.794300 0.067909
v -0.053142 1.791631 0.064938
v -0.060693 1.791994 0.062119
v -0.067566 1.792757 0.057727
v -0.066672 1.796087 0.064090
v -0.073409 1.798234 0.052179
v -0.072735 1.799222 0.058769
v -0.079825 1.808935 0.050841
v -0.081526 1.809303 0.057556
v -0.083146 1.821139 0.053036
v -0.085925 1.821649 0.057941
v -0.086261 1.835046 0.059081
v -0.085665 1.846124 0.062562
v -0.076934 1.849160 0.055065
v -0.081074 1.858141 0.066036
v -0.065306 1.855406 0.051137
v -0.065776 1.865964 0.067503
v -0.048266 1.860404 0.056480
v -0.050355 1.865450 0.074211
v -0.038542 1.854226 0.078758
v -0.032162 1.837620 0.081123
v -0.032677 1.820744 0.079884
v -0.032168 1.808234 0.069778
v -0.035996 1.806482 0.078220
v -0.037259 1.797467 0.069785
v -0.039473 1.797028 0.076183
v -0.039644 1.796090 0.078505
v -0.043169 1.792841 0.074342
v -0.041808 1.792930 0.069308
v -0.046821 1.791662 0.067432
v -0.053002 1.788640 0.055624
v -0.053450 1.792145 0.044512
v -0.054094 1.800561 0.036255
v -0.043889 1.812568 0.035763
v -0.054925 1.812894 0.031785
v -0.064742 1.812531 0.031036
v -0.070983 1.810941 0.039240
v -0.055731 1.826780 0.036455
v -0.066079 1.825150 0.039662
v -0.058956 1.841715 0.043524
v -0.070339 1.838340 0.047258
v -0.042707 1.828728 0.035325
v -0.047844 1.843946 0.038928
v -0.034746 1.811872 0.044029
v -0.026144 1.808449 0.056193
v -0.075681 1.809500 0.045265
v 0.039420 1.792180 0.052446
v 0.037103 1.799551 0.048137
v 0.033742 1.796134 0.059404
v 0.039807 1.791586 0.061388
v 0.045508 1.789624 0.059377
v 0.045238 1.792414 0.048559
v 0.044432 1.800838 0.040847
v 0.052192 1.803258 0.005031
v 0.056135 1.805641 0.001339
v 0.058340 1.801776 0.003689
v 0.052239 1.799847 0.008901
v 0.045876 1.799784 0.012725
v 0.048354 1.804278 0.006798
v 0.052592 1.808078 0.002412
v 0.029412 1.840932 0.053306
v 0.029875 1.839845 0.068094
v 0.028242 1.822869 0.068921
v 0.022855 1.826824 0.051733
v 0.038140 1.842485 0.044019
v 0.038176 1.853553 0.062256
v 0.033730 1.828951 0.041551
v 0.081362 1.829911 0.051566
v 0.077586 1.834221 0.050226
v 0.073640 1.823319 0.044752
v 0.078933 1.821117 0.048462
v 0.084146 1.832451 0.055086
v 0.082183 1.840535 0.055795
v 0.044011 1.811286 0.005748
v 0.048076 1.810025 0.004348
v 0.043345 1.805983 0.008792
v 0.038789 1.808472 0.009520
v 0.045383 1.815174 0.003771
v 0.052344 1.814203 0.001214
v 0.035916 1.813317 0.007720
v 0.078814 1.820516 -0.005045
v 0.077489 1.825330 -0.005229
v 0.080374 1.830629 -0.001693
v 0.080500 1.821622 -0.001332
v 0.075641 1.815269 -0.005143
v 0.073320 1.819027 -0.005669
v 0.077397 1.813880 -0.000988
v 0.067297 1.791457 0.040989
v 0.061699 1.791406 0.041849
v 0.061131 1.788399 0.052017
v 0.067975 1.789904 0.047880
v 0.071201 1.798930 0.046017
v 0.068302 1.799837 0.040030
v 0.063604 1.799564 0.034715
v 0.027842 1.808469 0.014995
v 0.024011 1.814740 0.012981
v 0.029658 1.815589 0.007958
v 0.030691 1.821034 0.004713
v 0.038971 1.820592 0.003466
v 0.048416 1.820690 0.000967
v 0.032393 1.826390 0.002256
v 0.039839 1.827706 0.000634
v 0.023943 1.823022 0.008748
v 0.028167 1.831559 0.004600
v 0.032393 1.826390 0.002256
v 0.028167 1.831559 0.004600
v 0.037695 1.836808 0.001217
v 0.039839 1.827706 0.000634
v 0.034081 1.850469 0.006645
v 0.050072 1.853313 0.002766
v 0.050888 1.838315 -0.001248
v 0.022326 1.840670 0.011256
v 0.050743 1.827982 -0.000905
v 0.063714 1.836067 -0.003163
v 0.061134 1.826410 -0.002664
v 0.050743 1.827982 -0.000905
v 0.061134 1.826410 -0.002664
v 0.056985 1.819433 -0.001244
v 0.068789 1.823147 -0.004467
v 0.063371 1.816692 -0.003490
v 0.057683 1.811873 -0.001175
v 0.067574 1.813202 -0.004909
v 0.061542 1.808826 -0.002447
v 0.070319 1.809832 -0.003998
v 0.064351 1.805337 -0.000908
v 0.066888 1.801219 0.004446
v 0.060021 1.797378 0.010351
v 0.072583 1.807081 0.000836
v 0.074590 1.804471 0.010391
v 0.068858 1.797595 0.015074
v 0.078612 1.812849 0.008133
v 0.079797 1.810547 0.021671
v 0.076272 1.801852 0.024479
v 0.081281 1.822579 0.007212
v 0.083126 1.821068 0.020749
v 0.081642 1.834842 0.006717
v 0.084069 1.833938 0.020980
v 0.078402 1.848966 0.007278
v 0.082880 1.850809 0.023834
v 0.075850 1.840649 -0.001825
v 0.065523 1.849162 -0.000343
v 0.068461 1.862069 0.010730
v 0.072851 1.831145 -0.004491
v 0.068789 1.823147 -0.004467
v 0.051390 1.870140 0.016176
v 0.056285 1.879036 0.034816
v 0.074393 1.867537 0.029545
v 0.032561 1.866778 0.020850
v 0.035619 1.875962 0.038414
v 0.017911 1.852423 0.024989
v 0.019835 1.858173 0.042645
v 0.011057 1.831754 0.029726
v 0.012703 1.834229 0.046965
v 0.017119 1.826985 0.016571
v 0.017119 1.826985 0.016571
v 0.017642 1.814542 0.021373
v 0.013247 1.815422 0.034215
v 0.011057 1.831754 0.029726
v 0.023943 1.823022 0.008748
v 0.021945 1.805132 0.024576
v 0.018796 1.803593 0.036923
v 0.028449 1.799099 0.025653
v 0.026130 1.795931 0.037348
v 0.032950 1.803342 0.016504
v 0.039215 1.800842 0.015524
v 0.036178 1.795754 0.024375
v 0.044406 1.794497 0.021078
v 0.043880 1.789422 0.032338
v 0.034676 1.791378 0.035714
v 0.052480 1.795012 0.016270
v 0.053092 1.789849 0.027459
v 0.061584 1.792725 0.021337
v 0.062788 1.788409 0.035699
v 0.053701 1.785367 0.041498
v 0.070307 1.794044 0.029446
v 0.071141 1.790909 0.045274
v 0.063480 1.786181 0.051436
v 0.075873 1.800520 0.039970
v 0.075959 1.799528 0.052845
v 0.070121 1.792551 0.058909
v 0.080387 1.810239 0.036978
v 0.081543 1.809399 0.049717
v 0.084453 1.820573 0.036435
v 0.085577 1.821893 0.048303
v 0.086872 1.834354 0.038683
v 0.088926 1.836130 0.050667
v 0.087937 1.850681 0.043788
v 0.087171 1.849506 0.054926
v 0.077286 1.862788 0.047281
v 0.080971 1.862494 0.060151
v 0.061095 1.873967 0.050054
v 0.063724 1.872411 0.062259
v 0.041117 1.872288 0.054458
v 0.044957 1.869139 0.067405
v 0.026356 1.856115 0.060153
v 0.031510 1.853919 0.073712
v 0.019395 1.835410 0.063856
v 0.025698 1.834420 0.076552
v 0.019395 1.835410 0.063856
v 0.019089 1.817540 0.064362
v 0.025889 1.817120 0.075699
v 0.025698 1.834420 0.076552
v 0.012703 1.834229 0.046965
v 0.012895 1.816259 0.049882
v 0.018163 1.802590 0.051244
v 0.022756 1.803321 0.063810
v 0.025648 1.793701 0.050511
v 0.028382 1.793904 0.062446
v 0.034280 1.788179 0.048614
v 0.035636 1.788558 0.060511
v 0.043834 1.785367 0.045721
v 0.044178 1.786064 0.058376
v 0.053762 1.785258 0.055816
v 0.053343 1.789506 0.064656
v 0.045443 1.789164 0.066780
v 0.062185 1.790597 0.062385
v 0.061085 1.793661 0.068227
v 0.053328 1.791801 0.070043
v 0.067742 1.796159 0.065146
v 0.066625 1.797236 0.066710
v 0.060578 1.794771 0.070077
v 0.073924 1.800396 0.060776
v 0.072508 1.800781 0.062071
v 0.080643 1.807852 0.058870
v 0.079357 1.809825 0.061079
v 0.086386 1.821789 0.056756
v 0.085905 1.822299 0.059424
v 0.088101 1.836764 0.057823
v 0.087365 1.836579 0.060254
v 0.087311 1.849714 0.062424
v 0.086973 1.848392 0.064933
v 0.083631 1.865638 0.068848
v 0.081109 1.860705 0.069688
v 0.064694 1.874049 0.071173
v 0.064859 1.870317 0.073932
v 0.046697 1.868583 0.077391
v 0.048370 1.867598 0.081293
v 0.034585 1.852773 0.083063
v 0.036729 1.852987 0.085670
v 0.030128 1.833369 0.084810
v 0.032401 1.834171 0.086697
v 0.030128 1.833369 0.084810
v 0.031147 1.816516 0.082756
v 0.033743 1.817436 0.084298
v 0.033862 1.803470 0.079806
v 0.036535 1.804285 0.081400
v 0.028779 1.803472 0.073723
v 0.033193 1.794854 0.071360
v 0.037362 1.795384 0.076838
v 0.038754 1.790465 0.069013
v 0.041571 1.791492 0.074261
v 0.046782 1.790776 0.072041
v 0.047627 1.791653 0.073934
v 0.043200 1.792231 0.076053
v 0.053432 1.792807 0.071956
v 0.053385 1.792859 0.070178
v 0.047608 1.792059 0.072339
v 0.060505 1.794300 0.067908
v 0.060693 1.791994 0.062119
v 0.053142 1.791630 0.064938
v 0.066673 1.796087 0.064090
v 0.067567 1.792757 0.057727
v 0.072738 1.799220 0.058768
v 0.073409 1.798232 0.052177
v 0.081531 1.809301 0.057556
v 0.079827 1.808935 0.050839
v 0.085929 1.821651 0.057949
v 0.083155 1.821149 0.053052
v 0.086252 1.835047 0.059084
v 0.085688 1.846136 0.062573
v 0.081078 1.858148 0.066044
v 0.076940 1.849165 0.055073
v 0.065771 1.865960 0.067507
v 0.065306 1.855408 0.051144
v 0.050348 1.865443 0.074213
v 0.048258 1.860400 0.056481
v 0.038539 1.854221 0.078761
v 0.032162 1.837617 0.081125
v 0.032678 1.820743 0.079885
v 0.035997 1.806482 0.078221
v 0.032169 1.808233 0.069780
v 0.039473 1.797028 0.076184
v 0.037260 1.797466 0.069786
v 0.039644 1.796089 0.078505
v 0.043169 1.792841 0.074342
v 0.041808 1.792930 0.069308
v 0.046820 1.791662 0.067432
v 0.053002 1.788640 0.055624
v 0.053449 1.792145 0.044512
v 0.054093 1.800561 0.036256
v 0.054925 1.812895 0.031787
v 0.043886 1.812567 0.035765
v 0.064745 1.812533 0.031039
v 0.070988 1.810944 0.039243
v 0.066082 1.825152 0.039666
v 0.055732 1.826782 0.036459
v 0.070345 1.838345 0.047265
v 0.058958 1.841719 0.043530
v 0.047835 1.843949 0.038930
v 0.042703 1.828728 0.035327
v 0.034745 1.811872 0.044031
v 0.026145 1.808449 0.056195
v 0.075685 1.809502 0.045267
vn -0.6182 0.7230 0.3085
vn -0.4811 0.8701 -0.1067
vn -0.7672 0.6389 0.0560
vn -0.7446 0.4039 0.5314
vn -0.2768 0.8291 0.4857
vn -0.2261 0.9739 0.0199
vn -0.4786 0.4933 0.7264
vn 0.3632 -0.6398 -0.6773
vn 0.2837 -0.7766 -0.5625
vn 0.1632 -0.7613 -0.6276
vn 0.3525 -0.4839 -0.8010
vn 0.4648 -0.5172 -0.7186
vn 0.3567 -0.7218 -0.5930
vn 0.4708 -0.2947 -0.8316
vn -0.7456 -0.6391 0.1886
vn -0.9805 -0.0827 0.1783
vn -0.9464 0.0516 -0.3190
vn -0.9343 -0.3313 -0.1319
vn -0.7829 -0.5916 0.1927
vn -0.5533 -0.5926 0.5854
vn -0.6394 -0.0711 0.7655
vn 0.6091 -0.1722 0.7741
vn 0.6624 -0.0476 0.7477
vn 0.5956 -0.2011 0.7777
vn 0.5207 -0.2637 0.8120
vn 0.6519 -0.2803 0.7045
vn 0.7865 -0.1271 0.6043
vn 0.4209 -0.3155 -0.8505
vn 0.3873 -0.5050 -0.7713
vn 0.4323 -0.4979 -0.7518
vn 0.4407 -0.2982 -0.8467
vn 0.4038 -0.1536 -0.9018
vn 0.3379 -0.2959 -0.8934
vn 0.2822 -0.4945 -0.8221
vn -0.7164 -0.1375 -0.6840
vn -0.9699 -0.1793 -0.1648
vn -0.8654 0.1995 -0.4596
vn -0.2372 0.1828 -0.9541
vn 0.0663 0.0279 -0.9974
vn -0.4153 -0.4098 -0.8122
vn -0.8269 -0.4910 -0.2743
vn 0.5105 0.5434 0.6664
vn 0.7337 0.6782 -0.0409
vn 0.1015 0.9943 -0.0338
vn -0.1807 0.8144 0.5515
vn 0.8075 0.2025 0.5540
vn 0.8332 0.3811 0.4006
vn 0.2046 0.4692 0.8591
vn 0.3914 -0.5519 -0.7363
vn 0.6517 -0.4398 -0.6179
vn 0.4701 -0.5755 -0.6691
vn 0.1977 -0.3892 -0.8997
vn 0.3607 -0.3623 -0.8594
vn 0.2600 -0.2333 -0.9370
vn 0.3478 -0.0934 -0.9329
vn 0.1554 -0.1477 -0.9767
vn 0.5646 0.1169 -0.8170
vn 0.6906 -0.1786 -0.7008
vn 0.2937 0.1739 -0.9400
vn 0.5646 0.1168 -0.8170
vn 0.1606 0.1374 -0.9774
vn 0.1720 0.4751 -0.8629
vn 0.4396 0.4383 -0.7840
vn 0.7296 0.2596 -0.6326
vn 0.1583 -0.1012 -0.9822
vn 0.2017 -0.0314 -0.9790
vn 0.1062 0.1212 -0.9869
vn 0.3047 -0.0820 -0.9489
vn 0.3114 0.0294 -0.9498
vn 0.2018 0.0646 -0.9773
vn 0.4167 -0.0977 -0.9038
vn 0.2803 -0.3228 -0.9040
vn 0.1760 -0.1059 -0.9787
vn -0.2077 -0.5738 -0.7923
vn 0.0161 -0.6776 -0.7353
vn -0.0077 -0.8892 -0.4574
vn -0.2779 -0.8315 -0.4810
vn -0.5957 -0.6787 -0.4295
vn -0.4866 -0.8198 -0.3018
vn -0.7597 -0.5998 -0.2511
vn -0.9184 -0.3658 -0.1509
vn -0.8392 -0.5331 -0.1076
vn -0.9326 -0.3498 -0.0889
vn -0.9762 -0.1818 -0.1183
vn -0.9824 -0.1430 -0.1202
vn -0.9866 0.0247 -0.1610
vn -0.9787 0.1072 -0.1750
vn -0.9106 0.3266 -0.2532
vn -0.8020 0.4467 -0.3966
vn -0.4276 0.4016 -0.8099
vn -0.3865 0.7300 -0.5636
vn -0.0685 0.4604 -0.8851
vn 0.0243 0.1588 -0.9870
vn 0.0708 0.7846 -0.6159
vn -0.6806 0.7107 -0.1782
vn -0.1745 0.9716 -0.1597
vn 0.4991 0.8664 -0.0150
vn 0.5018 0.6863 -0.5264
vn 0.8528 0.4995 0.1523
vn 0.8430 0.4386 -0.3115
vn 0.9573 0.1953 0.2130
vn 0.9831 0.0834 -0.1627
vn 0.8592 -0.0434 -0.5098
vn 0.9832 0.0833 -0.1627
vn 0.9451 -0.2955 -0.1396
vn 0.8435 -0.3390 -0.4167
vn 0.8096 -0.5622 -0.1684
vn 0.6869 -0.5960 -0.4159
vn 0.6039 -0.7621 -0.2335
vn 0.5008 -0.7508 -0.4308
vn 0.4073 -0.6518 -0.6398
vn 0.3654 -0.8086 -0.4612
vn 0.3716 -0.6885 -0.6228
vn 0.2725 -0.8390 -0.4709
vn 0.4022 -0.8645 -0.3016
vn 0.2293 -0.9110 -0.3428
vn 0.0461 -0.9338 -0.3547
vn 0.1569 -0.8725 -0.4628
vn -0.1810 -0.9208 -0.3456
vn -0.0728 -0.9843 -0.1611
vn -0.3213 -0.9210 -0.2205
vn -0.5932 -0.7754 -0.2164
vn -0.3542 -0.9314 0.0843
vn -0.7448 -0.6667 -0.0291
vn -0.8975 -0.4403 -0.0261
vn -0.6557 -0.6947 0.2956
vn -0.8439 -0.5312 0.0757
vn -0.9132 -0.4040 -0.0543
vn -0.9122 -0.4031 -0.0736
vn -0.9618 -0.2629 -0.0761
vn -0.9641 -0.2538 -0.0784
vn -0.9972 -0.0428 -0.0612
vn -0.9848 -0.0761 -0.1558
vn -0.9607 0.2735 0.0467
vn -0.9305 0.3482 -0.1138
vn -0.6246 0.7291 -0.2799
vn -0.6530 0.7572 -0.0153
vn -0.1751 0.9840 -0.0338
vn -0.2795 0.9479 0.1531
vn 0.4165 0.8761 0.2428
vn 0.3572 0.8770 0.3214
vn 0.7749 0.5233 0.3546
vn 0.7609 0.5400 0.3598
vn 0.8725 0.1582 0.4623
vn 0.8954 0.2115 0.3919
vn 0.8954 0.2114 0.3919
vn 0.8323 -0.1321 0.5383
vn 0.8881 -0.0937 0.4501
vn 0.9701 -0.1406 0.1979
vn 0.8372 -0.3623 0.4096
vn 0.8654 -0.4858 0.1225
vn 0.6894 -0.6654 0.2863
vn 0.6665 -0.7455 -0.0004
vn 0.3974 -0.8982 0.1878
vn 0.4335 -0.8971 -0.0853
vn 0.1293 -0.9741 0.1855
vn 0.1864 -0.9747 -0.1236
vn -0.0695 -0.9818 0.1766
vn -0.0334 -0.9468 0.3202
vn -0.1852 -0.8906 0.4153
vn -0.3003 -0.8546 0.4236
vn -0.2814 -0.8757 0.3924
vn -0.4020 -0.7669 0.5003
vn -0.6161 -0.5222 0.5897
vn -0.1456 0.5447 0.8259
vn 0.3026 0.9220 0.2417
vn 0.7034 0.7108 -0.0004
vn -0.7172 -0.6027 0.3499
vn 0.8488 0.5287 0.0019
vn -0.8639 -0.4685 0.1850
vn -0.9089 -0.2632 0.3234
vn -0.9675 -0.2522 -0.0190
vn -0.6528 -0.1819 0.7353
vn -0.9847 -0.0653 0.1613
vn -0.5026 -0.1979 0.8416
vn -0.9893 0.1416 0.0354
vn -0.0243 -0.3584 0.9333
vn -0.7476 0.6548 0.1112
vn -0.2387 -0.3745 0.8960
vn -0.1164 0.9796 0.1639
vn -0.5015 -0.2536 0.8272
vn 0.5048 0.8356 0.2167
vn -0.7527 -0.2620 0.6040
vn 0.8010 0.4581 0.3854
vn -0.9129 -0.0921 0.3977
vn 0.8312 0.0742 0.5510
vn -0.8632 0.0301 0.5040
vn 0.7196 -0.2011 0.6646
vn -0.6289 -0.0369 0.7766
vn 0.6318 -0.3756 0.6781
vn 0.7662 -0.3556 0.5353
vn 0.5310 -0.6127 0.5853
vn 0.6206 -0.6400 0.4530
vn 0.2442 -0.8929 0.3782
vn 0.2979 -0.8992 0.3204
vn -0.1292 -0.9481 0.2905
vn -0.2850 -0.3896 0.8758
vn -0.3572 -0.4233 0.8326
vn -0.3129 -0.1375 0.9398
vn 0.0011 1.0000 0.0015
vn 0.2198 0.9636 -0.1524
vn 0.3571 0.8803 -0.3125
vn 0.1273 0.9535 -0.2730
vn 0.2437 0.9060 -0.3460
vn 0.6091 0.7235 -0.3249
vn 0.5872 0.6980 -0.4099
vn 0.7779 0.6233 0.0794
vn 0.7019 0.6716 -0.2372
vn 0.8457 0.3443 0.4077
vn 0.8603 0.5029 -0.0839
vn 0.8049 0.0409 0.5919
vn 0.9176 0.1469 0.3693
vn 0.7941 -0.1209 0.5956
vn 0.6707 -0.3479 0.6550
vn 0.5529 -0.3957 0.7333
vn 0.4670 -0.6242 0.6263
vn 0.2207 -0.6537 0.7238
vn 0.0536 -0.8360 0.5461
vn -0.2574 -0.8332 0.4895
vn -0.4673 -0.8496 0.2446
vn -0.8408 -0.5399 0.0390
vn -0.9670 -0.1756 -0.1848
vn -0.9468 0.1434 -0.2880
vn -0.8805 0.3001 -0.3670
vn -0.9216 0.3021 -0.2436
vn -0.8025 0.5148 -0.3015
vn -0.8554 0.4940 -0.1558
vn -0.4106 -0.1703 0.8958
vn -0.5151 0.8569 -0.0176
vn -0.4705 0.8582 -0.2052
vn -0.0390 0.9809 -0.1906
vn -0.0905 0.9955 0.0265
vn -0.2606 0.8156 0.5167
vn -0.2955 0.4841 0.8236
vn -0.5011 0.1978 0.8425
vn -0.2210 -0.0212 0.9751
vn 0.4306 -0.1311 0.8930
vn 0.7860 0.0547 0.6159
vn 0.2217 -0.3411 0.9135
vn 0.4477 -0.4042 0.7976
vn 0.3971 -0.3102 0.8638
vn 0.4381 -0.3367 0.8335
vn -0.2121 -0.1245 0.9693
vn -0.0001 -0.5554 0.8316
vn -0.7112 0.2304 0.6642
vn -0.9209 0.3625 0.1434
vn 0.7628 0.1979 0.6156
vn 0.6182 0.7230 0.3084
vn 0.7447 0.4039 0.5314
vn 0.7673 0.6389 0.0559
vn 0.4811 0.8701 -0.1069
vn 0.2261 0.9739 0.0199
vn 0.2767 0.8292 0.4857
vn 0.4786 0.4933 0.7264
vn -0.3631 -0.6398 -0.6773
vn -0.3525 -0.4838 -0.8010
vn -0.1632 -0.7613 -0.6276
vn -0.2837 -0.7766 -0.5625
vn -0.3567 -0.7218 -0.5930
vn -0.4648 -0.5172 -0.7186
vn -0.4707 -0.2947 -0.8316
vn 0.7475 -0.6375 0.1867
vn 0.9343 -0.3312 -0.1318
vn 0.9463 0.0517 -0.3190
vn 0.9805 -0.0828 0.1782
vn 0.5536 -0.5925 0.5851
vn 0.7828 -0.5922 0.1910
vn 0.6396 -0.0706 0.7655
vn -0.6156 -0.1669 0.7702
vn -0.5192 -0.2638 0.8129
vn -0.5953 -0.1986 0.7786
vn -0.6626 -0.0464 0.7475
vn -0.7908 -0.1245 0.5993
vn -0.6547 -0.2817 0.7014
vn -0.4209 -0.3155 -0.8505
vn -0.4406 -0.2982 -0.8467
vn -0.4323 -0.4979 -0.7518
vn -0.3873 -0.5051 -0.7713
vn -0.3379 -0.2959 -0.8935
vn -0.4038 -0.1536 -0.9019
vn -0.2822 -0.4944 -0.8221
vn 0.7163 -0.1374 -0.6842
vn 0.2372 0.1828 -0.9541
vn 0.8654 0.1996 -0.4597
vn 0.9699 -0.1793 -0.1650
vn 0.4152 -0.4097 -0.8123
vn -0.0663 0.0279 -0.9974
vn 0.8267 -0.4910 -0.2745
vn -0.5104 0.5435 0.6664
vn 0.1808 0.8144 0.5514
vn -0.1014 0.9943 -0.0339
vn -0.7337 0.6783 -0.0408
vn -0.8332 0.3812 0.4007
vn -0.8075 0.2026 0.5541
vn -0.2044 0.4690 0.8592
vn -0.4701 -0.5755 -0.6691
vn -0.6517 -0.4398 -0.6180
vn -0.3914 -0.5519 -0.7363
vn -0.3607 -0.3623 -0.8594
vn -0.1977 -0.3892 -0.8997
vn -0.2600 -0.2332 -0.9370
vn -0.3478 -0.0934 -0.9329
vn -0.1554 -0.1477 -0.9767
vn -0.6906 -0.1786 -0.7008
vn -0.5646 0.1168 -0.8171
vn -0.5646 0.1168 -0.8170
vn -0.2937 0.1739 -0.9400
vn -0.4396 0.4383 -0.7840
vn -0.1720 0.4751 -0.8629
vn -0.1606 0.1374 -0.9774
vn -0.7296 0.2596 -0.6326
vn -0.1583 -0.1012 -0.9822
vn -0.1062 0.1212 -0.9869
vn -0.2017 -0.0314 -0.9790
vn -0.3047 -0.0820 -0.9489
vn -0.2018 0.0646 -0.9773
vn -0.3114 0.0295 -0.9498
vn -0.4167 -0.0977 -0.9038
vn -0.1761 -0.1058 -0.9787
vn -0.2803 -0.3228 -0.9040
vn 0.2076 -0.5737 -0.7923
vn -0.0162 -0.6776 -0.7353
vn 0.2778 -0.8315 -0.4811
vn 0.0076 -0.8892 -0.4575
vn 0.5956 -0.6787 -0.4296
vn 0.7595 -0.6000 -0.2512
vn 0.4864 -0.8199 -0.3019
vn 0.9183 -0.3659 -0.1511
vn 0.9325 -0.3499 -0.0890
vn 0.8391 -0.5332 -0.1076
vn 0.9823 -0.1431 -0.1204
vn 0.9762 -0.1818 -0.1184
vn 0.9787 0.1072 -0.1751
vn 0.9866 0.0249 -0.1611
vn 0.8020 0.4467 -0.3965
vn 0.9106 0.3267 -0.2531
vn 0.4276 0.4016 -0.8099
vn 0.0685 0.4604 -0.8851
vn 0.3866 0.7300 -0.5636
vn -0.0243 0.1588 -0.9870
vn -0.0707 0.7846 -0.6160
vn 0.1746 0.9716 -0.1597
vn 0.6806 0.7106 -0.1783
vn -0.5018 0.6863 -0.5264
vn -0.4991 0.8664 -0.0150
vn -0.8430 0.4386 -0.3115
vn -0.8528 0.4995 0.1524
vn -0.9831 0.0834 -0.1627
vn -0.9573 0.1953 0.2130
vn -0.8592 -0.0434 -0.5098
vn -0.8435 -0.3390 -0.4167
vn -0.9451 -0.2954 -0.1396
vn -0.9831 0.0833 -0.1627
vn -0.6869 -0.5959 -0.4159
vn -0.8096 -0.5622 -0.1684
vn -0.5008 -0.7508 -0.4308
vn -0.6039 -0.7621 -0.2335
vn -0.4073 -0.6518 -0.6398
vn -0.3716 -0.6885 -0.6228
vn -0.3654 -0.8086 -0.4612
vn -0.2724 -0.8390 -0.4710
vn -0.2293 -0.9110 -0.3428
vn -0.4022 -0.8644 -0.3016
vn -0.1570 -0.8725 -0.4628
vn -0.0462 -0.9338 -0.3548
vn 0.1809 -0.9208 -0.3456
vn 0.3212 -0.9210 -0.2204
vn 0.0728 -0.9843 -0.1611
vn 0.5930 -0.7755 -0.2165
vn 0.7446 -0.6669 -0.0291
vn 0.3540 -0.9314 0.0844
vn 0.8974 -0.4405 -0.0262
vn 0.8441 -0.5308 0.0759
vn 0.6555 -0.6949 0.2957
vn 0.9122 -0.4032 -0.0733
vn 0.9132 -0.4038 -0.0547
vn 0.9641 -0.2538 -0.0782
vn 0.9618 -0.2629 -0.0758
vn 0.9849 -0.0760 -0.1555
vn 0.9973 -0.0435 -0.0586
vn 0.9305 0.3481 -0.1138
vn 0.9608 0.2732 0.0465
vn 0.6531 0.7571 -0.0156
vn 0.6246 0.7290 -0.2801
vn 0.2794 0.9479 0.1531
vn 0.1748 0.9840 -0.0336
vn -0.3572 0.8770 0.3214
vn -0.4165 0.8761 0.2429
vn -0.7609 0.5399 0.3599
vn -0.7749 0.5232 0.3546
vn -0.8954 0.2115 0.3919
vn -0.8725 0.1582 0.4623
vn -0.8881 -0.0937 0.4501
vn -0.8323 -0.1321 0.5383
vn -0.9701 -0.1406 0.1979
vn -0.8654 -0.4858 0.1225
vn -0.8372 -0.3624 0.4096
vn -0.6666 -0.7455 -0.0004
vn -0.6894 -0.6654 0.2863
vn -0.4335 -0.8971 -0.0852
vn -0.3974 -0.8982 0.1878
vn -0.1864 -0.9747 -0.1236
vn -0.1293 -0.9741 0.1855
vn 0.0695 -0.9818 0.1765
vn 0.1852 -0.8907 0.4152
vn 0.0334 -0.9468 0.3201
vn 0.3002 -0.8547 0.4236
vn 0.4018 -0.7670 0.5002
vn 0.2813 -0.8757 0.3925
vn 0.6161 -0.5221 0.5897
vn -0.3020 0.9221 0.2421
vn 0.1458 0.5443 0.8261
vn 0.7169 -0.6030 0.3500
vn -0.7033 0.7109 -0.0009
vn 0.8640 -0.4687 0.1839
vn -0.8483 0.5295 0.0106
vn 0.9679 -0.2504 -0.0194
vn 0.9109 -0.2628 0.3181
vn 0.9844 -0.0658 0.1633
vn 0.6629 -0.1805 0.7266
vn 0.9896 0.1398 0.0351
vn 0.5090 -0.1958 0.8382
vn 0.7476 0.6546 0.1119
vn 0.0250 -0.3580 0.9334
vn 0.1161 0.9795 0.1644
vn 0.2388 -0.3743 0.8960
vn -0.5048 0.8356 0.2168
vn 0.5015 -0.2539 0.8270
vn -0.8010 0.4581 0.3854
vn 0.7528 -0.2620 0.6039
vn -0.8312 0.0741 0.5510
vn 0.9129 -0.0921 0.3977
vn -0.7196 -0.2011 0.6646
vn 0.8631 0.0300 0.5042
vn -0.6318 -0.3757 0.6780
vn 0.6288 -0.0369 0.7767
vn -0.7662 -0.3557 0.5353
vn -0.6206 -0.6400 0.4530
vn -0.5310 -0.6127 0.5853
vn -0.2979 -0.8992 0.3204
vn -0.2442 -0.8929 0.3782
vn 0.1291 -0.9481 0.2905
vn 0.3572 -0.4233 0.8326
vn 0.2849 -0.3897 0.8757
vn 0.3130 -0.1375 0.9398
vn -0.2198 0.9636 -0.1524
vn -0.0012 1.0000 0.0015
vn -0.3569 0.8803 -0.3124
vn -0.2437 0.9060 -0.3460
vn -0.1274 0.9535 -0.2730
vn -0.5870 0.6983 -0.4097
vn -0.6090 0.7236 -0.3249
vn -0.7017 0.6719 -0.2370
vn -0.7779 0.6234 0.0796
vn -0.8603 0.5029 -0.0832
vn -0.8457 0.3441 0.4079
vn -0.9176 0.1464 0.3696
vn -0.8052 0.0411 0.5915
vn -0.7970 -0.1197 0.5920
vn -0.6739 -0.3474 0.6520
vn -0.4665 -0.6246 0.6263
vn -0.5518 -0.3967 0.7336
vn -0.0533 -0.8361 0.5460
vn -0.2206 -0.6539 0.7237
vn 0.4673 -0.8497 0.2444
vn 0.2574 -0.8333 0.4893
vn 0.8408 -0.5399 0.0389
vn 0.9670 -0.1755 -0.1848
vn 0.9468 0.1435 -0.2880
vn 0.9216 0.3021 -0.2436
vn 0.8805 0.3001 -0.3671
vn 0.8554 0.4940 -0.1558
vn 0.8025 0.5148 -0.3015
vn 0.4105 -0.1704 0.8958
vn 0.5152 0.8569 -0.0175
vn 0.4705 0.8582 -0.2052
vn 0.0390 0.9809 -0.1905
vn 0.0906 0.9955 0.0265
vn 0.2606 0.8156 0.5166
vn 0.2956 0.4840 0.8236
vn 0.2209 -0.0213 0.9751
vn 0.5011 0.1978 0.8425
vn -0.4292 -0.1320 0.8935
vn -0.7859 0.0548 0.6159
vn -0.4476 -0.4043 0.7976
vn -0.2217 -0.3411 0.9135
vn -0.4359 -0.3381 0.8341
vn -0.3971 -0.3103 0.8637
vn -0.0009 -0.5553 0.8316
vn 0.2120 -0.1245 0.9693
vn 0.7113 0.2304 0.6641
vn 0.9209 0.3625 0.1433
vn -0.7627 0.1980 0.6157
vt 0.288760 0.856931
vt 0.277546 0.851835
vt 0.272203 0.875342
vt 0.291439 0.872214
vt 0.299546 0.842205
vt 0.289242 0.832993
vt 0.310777 0.858582
vt 0.232823 0.586293
vt 0.237326 0.609289
vt 0.270112 0.590450
vt 0.256886 0.560106
vt 0.210153 0.584644
vt 0.205808 0.622196
vt 0.226145 0.553916
vt 0.329835 0.938847
vt 0.306159 0.923671
vt 0.285058 0.933878
vt 0.330270 0.950385
vt 0.374213 0.937680
vt 0.358703 0.922372
vt 0.332545 0.909393
vt 0.418409 0.788064
vt 0.404876 0.781034
vt 0.398308 0.805167
vt 0.417824 0.813189
vt 0.434429 0.805844
vt 0.426744 0.782727
vt 0.157379 0.569294
vt 0.137620 0.606154
vt 0.176824 0.595304
vt 0.190607 0.558777
vt 0.204695 0.525136
vt 0.154702 0.543345
vt 0.102099 0.596384
vt 0.452419 0.554089
vt 0.457527 0.585827
vt 0.496393 0.606024
vt 0.481007 0.553692
vt 0.408141 0.484442
vt 0.408508 0.528434
vt 0.411407 0.572008
vt 0.346475 0.787267
vt 0.344192 0.775960
vt 0.327210 0.788121
vt 0.332736 0.800622
vt 0.359084 0.788470
vt 0.363937 0.767897
vt 0.347822 0.810822
vt 0.060484 0.620390
vt 0.048991 0.687590
vt 0.089378 0.673738
vt 0.103665 0.537106
vt 0.054820 0.589997
vt 0.167467 0.495344
vt 0.037451 0.557512
vt 0.098547 0.491857
vt 0.001953 0.576587
vt 0.009818 0.655596
vt 0.711221 0.758787
vt 0.697089 0.693591
vt 0.662681 0.736501
vt 0.686424 0.799086
vt 0.623018 0.673793
vt 0.597006 0.722334
vt 0.623372 0.784820
vt 0.642017 0.851757
vt 0.652021 0.623383
vt 0.583838 0.557437
vt 0.574015 0.618581
vt 0.167021 0.434472
vt 0.226407 0.479612
vt 0.255019 0.421861
vt 0.278034 0.488927
vt 0.332646 0.441799
vt 0.248677 0.521134
vt 0.285896 0.533186
vt 0.334257 0.501864
vt 0.352756 0.537762
vt 0.305835 0.560240
vt 0.275859 0.624738
vt 0.315563 0.597745
vt 0.360767 0.575102
vt 0.321243 0.638549
vt 0.363022 0.617386
vt 0.410027 0.612752
vt 0.366830 0.660625
vt 0.406627 0.657501
vt 0.445582 0.670444
vt 0.454546 0.626989
vt 0.478932 0.694904
vt 0.493309 0.651448
vt 0.503439 0.731202
vt 0.523681 0.685640
vt 0.537253 0.631845
vt 0.545470 0.722805
vt 0.563411 0.667994
vt 0.529253 0.576816
vt 0.500527 0.511486
vt 0.569226 0.772220
vt 0.520127 0.773237
vt 0.527110 0.822910
vt 0.533357 0.875380
vt 0.581757 0.830849
vt 0.535748 0.931551
vt 0.593910 0.895950
vt 0.540805 0.989111
vt 0.616581 0.957298
vt 0.671649 0.912777
vt 0.004572 0.755679
vt 0.040993 0.846471
vt 0.084049 0.818633
vt 0.055876 0.753254
vt 0.705907 0.862903
vt 0.119938 0.787871
vt 0.101007 0.731583
vt 0.153680 0.755321
vt 0.140453 0.704176
vt 0.130160 0.655121
vt 0.176514 0.680293
vt 0.171641 0.635600
vt 0.208467 0.662112
vt 0.187299 0.727175
vt 0.219715 0.704707
vt 0.249829 0.685108
vt 0.240263 0.645541
vt 0.283081 0.662698
vt 0.262621 0.724814
vt 0.293118 0.702055
vt 0.328858 0.677292
vt 0.303263 0.735343
vt 0.333676 0.709824
vt 0.367613 0.691583
vt 0.336711 0.727286
vt 0.367447 0.709996
vt 0.400092 0.706944
vt 0.403097 0.689128
vt 0.430547 0.720628
vt 0.437297 0.703808
vt 0.454981 0.745882
vt 0.464965 0.731027
vt 0.469911 0.780041
vt 0.482982 0.766608
vt 0.476619 0.818250
vt 0.491931 0.806793
vt 0.475163 0.861614
vt 0.494537 0.852375
vt 0.462801 0.908659
vt 0.487113 0.902523
vt 0.436860 0.954827
vt 0.471773 0.951096
vt 0.400404 0.998047
vt 0.456450 0.996791
vt 0.192143 0.974619
vt 0.246634 0.982884
vt 0.218217 0.934267
vt 0.187436 0.921002
vt 0.131000 0.885967
vt 0.110521 0.927498
vt 0.186281 0.872801
vt 0.153028 0.841473
vt 0.201072 0.832966
vt 0.177385 0.800871
vt 0.223461 0.804979
vt 0.205567 0.768651
vt 0.247952 0.782308
vt 0.234439 0.745521
vt 0.274216 0.760199
vt 0.258500 0.798727
vt 0.282959 0.776522
vt 0.308833 0.750998
vt 0.288539 0.784677
vt 0.313311 0.759409
vt 0.339131 0.737105
vt 0.317530 0.766435
vt 0.341436 0.746074
vt 0.367627 0.732467
vt 0.367585 0.721749
vt 0.395442 0.729687
vt 0.397710 0.718639
vt 0.421669 0.740542
vt 0.426011 0.731016
vt 0.442243 0.762168
vt 0.448396 0.754577
vt 0.453312 0.792911
vt 0.461168 0.787352
vt 0.455106 0.829721
vt 0.465320 0.825007
vt 0.447452 0.870499
vt 0.460379 0.867070
vt 0.431220 0.911969
vt 0.445436 0.911437
vt 0.400229 0.952763
vt 0.414672 0.955902
vt 0.323463 0.982522
vt 0.359613 0.991235
vt 0.287350 0.985158
vt 0.254033 0.939485
vt 0.237546 0.937959
vt 0.233616 0.897733
vt 0.220133 0.892883
vt 0.206235 0.887043
vt 0.226691 0.857219
vt 0.216597 0.848511
vt 0.243880 0.831003
vt 0.236047 0.821339
vt 0.264468 0.808326
vt 0.251001 0.838338
vt 0.270182 0.815612
vt 0.293391 0.791190
vt 0.275369 0.821506
vt 0.297491 0.796588
vt 0.320383 0.771825
vt 0.302268 0.803176
vt 0.323668 0.779390
vt 0.343594 0.763653
vt 0.342539 0.753840
vt 0.365880 0.753228
vt 0.366829 0.741939
vt 0.390085 0.752441
vt 0.392927 0.740239
vt 0.412467 0.762904
vt 0.417316 0.751019
vt 0.435645 0.771098
vt 0.444672 0.799207
vt 0.433191 0.836466
vt 0.445053 0.833319
vt 0.422932 0.873101
vt 0.436084 0.872429
vt 0.403739 0.908837
vt 0.417838 0.911476
vt 0.386897 0.946825
vt 0.326422 0.968108
vt 0.269498 0.937784
vt 0.260570 0.901888
vt 0.246130 0.900367
vt 0.257337 0.872725
vt 0.245442 0.868179
vt 0.236217 0.864346
vt 0.257563 0.843901
vt 0.266667 0.848183
vt 0.281935 0.827714
vt 0.307381 0.810705
vt 0.315554 0.821374
vt 0.330722 0.835508
vt 0.331215 0.874245
vt 0.352105 0.850158
vt 0.367754 0.822984
vt 0.379019 0.793089
vt 0.381131 0.864052
vt 0.392827 0.835030
vt 0.407046 0.872032
vt 0.417934 0.838482
vt 0.360144 0.891209
vt 0.387024 0.903737
vt 0.304872 0.894736
vt 0.279567 0.901561
vt 0.385938 0.769145
vt 0.606631 0.409561
vt 0.596590 0.421390
vt 0.611602 0.433818
vt 0.618883 0.410837
vt 0.618323 0.388667
vt 0.604775 0.391403
vt 0.586803 0.399850
vt 0.791771 0.204385
vt 0.784258 0.169625
vt 0.757501 0.189111
vt 0.776255 0.221946
vt 0.796917 0.249022
vt 0.812162 0.214430
vt 0.813909 0.179833
vt 0.529764 0.459451
vt 0.523554 0.469184
vt 0.570905 0.477811
vt 0.557865 0.458335
vt 0.513195 0.430637
vt 0.492072 0.435998
vt 0.542324 0.432671
vt 0.529621 0.284578
vt 0.517417 0.306547
vt 0.538310 0.309498
vt 0.544851 0.285358
vt 0.525130 0.275758
vt 0.506808 0.291813
vt 0.865451 0.227880
vt 0.842106 0.202001
vt 0.835522 0.240483
vt 0.863853 0.269672
vt 0.880885 0.206849
vt 0.846969 0.165855
vt 0.899437 0.279209
vt 0.618624 0.065536
vt 0.594163 0.050733
vt 0.554422 0.088095
vt 0.598165 0.090331
vt 0.669480 0.065613
vt 0.692048 0.027850
vt 0.644939 0.101737
vt 0.592078 0.320274
vt 0.597175 0.338743
vt 0.608266 0.330754
vt 0.599766 0.311674
vt 0.586811 0.294732
vt 0.580593 0.314934
vt 0.579002 0.339912
vt 0.871286 0.352374
vt 0.899120 0.384751
vt 0.923195 0.320967
vt 0.943453 0.297613
vt 0.928069 0.227281
vt 0.894153 0.158984
vt 0.974867 0.278375
vt 0.955370 0.190835
vt 0.949095 0.376964
vt 0.995842 0.312784
vt 0.291832 0.111220
vt 0.292840 0.158526
vt 0.344978 0.116545
vt 0.336999 0.062126
vt 0.354449 0.178110
vt 0.408799 0.137542
vt 0.410910 0.082511
vt 0.304508 0.226423
vt 0.411388 0.024355
vt 0.481109 0.059668
vt 0.503561 0.001953
vt 0.925325 0.106699
vt 0.855792 0.051311
vt 0.851264 0.115602
vt 0.778742 0.029247
vt 0.802017 0.097525
vt 0.811052 0.140157
vt 0.746972 0.080248
vt 0.772848 0.131729
vt 0.712857 0.101859
vt 0.741964 0.144982
vt 0.714602 0.172415
vt 0.735201 0.215782
vt 0.687060 0.130019
vt 0.663728 0.165354
vt 0.689065 0.204742
vt 0.625523 0.137583
vt 0.605821 0.177906
vt 0.638573 0.200729
vt 0.579917 0.127348
vt 0.565670 0.169368
vt 0.534107 0.128841
vt 0.524529 0.173601
vt 0.490612 0.142975
vt 0.485029 0.192518
vt 0.506113 0.089703
vt 0.465264 0.107657
vt 0.453018 0.164015
vt 0.540848 0.046279
vt 0.598672 0.004451
vt 0.407531 0.194627
vt 0.418224 0.259657
vt 0.449373 0.220339
vt 0.367067 0.238866
vt 0.386296 0.301762
vt 0.323656 0.288879
vt 0.355823 0.349008
vt 0.273069 0.330334
vt 0.322347 0.396105
vt 0.248083 0.264075
vt 0.902999 0.465955
vt 0.859968 0.437914
vt 0.802596 0.480063
vt 0.825659 0.525856
vt 0.243755 0.203723
vt 0.831996 0.396392
vt 0.787196 0.435374
vt 0.811831 0.352797
vt 0.774552 0.390228
vt 0.845522 0.315686
vt 0.819611 0.277866
vt 0.792802 0.313955
vt 0.774433 0.282110
vt 0.743186 0.313166
vt 0.759786 0.348944
vt 0.755386 0.251733
vt 0.727121 0.281027
vt 0.709771 0.244876
vt 0.681206 0.273751
vt 0.696003 0.308810
vt 0.662900 0.234312
vt 0.642289 0.259940
vt 0.655618 0.297337
vt 0.622239 0.227039
vt 0.613069 0.243007
vt 0.630838 0.273468
vt 0.592870 0.206974
vt 0.586452 0.223864
vt 0.555942 0.202340
vt 0.553258 0.220264
vt 0.518308 0.211827
vt 0.519407 0.229691
vt 0.484769 0.233408
vt 0.489251 0.251607
vt 0.456723 0.263548
vt 0.464138 0.281176
vt 0.431420 0.301550
vt 0.443460 0.319320
vt 0.412460 0.348566
vt 0.430329 0.366156
vt 0.401126 0.398226
vt 0.429356 0.419104
vt 0.391231 0.445395
vt 0.438945 0.474826
vt 0.630452 0.559953
vt 0.661632 0.516081
vt 0.628369 0.511955
vt 0.579265 0.539521
vt 0.724698 0.560587
vt 0.728037 0.514402
vt 0.731540 0.464877
vt 0.687008 0.475084
vt 0.731064 0.417533
vt 0.694396 0.433239
vt 0.723049 0.375484
vt 0.689238 0.397772
vt 0.709841 0.340927
vt 0.679578 0.365827
vt 0.668104 0.333471
vt 0.652305 0.343130
vt 0.662174 0.374656
vt 0.642895 0.308024
vt 0.634777 0.313015
vt 0.643366 0.347342
vt 0.623785 0.280715
vt 0.617260 0.287287
vt 0.627584 0.316942
vt 0.607006 0.253077
vt 0.601548 0.262301
vt 0.582591 0.235158
vt 0.578960 0.245835
vt 0.551917 0.231519
vt 0.550845 0.241934
vt 0.520690 0.240522
vt 0.522159 0.250183
vt 0.493095 0.262337
vt 0.497060 0.271106
vt 0.470467 0.292719
vt 0.476894 0.301952
vt 0.453454 0.331503
vt 0.462871 0.341000
vt 0.443905 0.377335
vt 0.455899 0.384985
vt 0.447953 0.431253
vt 0.462000 0.435850
vt 0.477579 0.489582
vt 0.513171 0.500350
vt 0.542991 0.520890
vt 0.609827 0.505364
vt 0.594833 0.498341
vt 0.647648 0.475286
vt 0.633563 0.472650
vt 0.662592 0.477278
vt 0.673142 0.438796
vt 0.660029 0.441203
vt 0.670106 0.405518
vt 0.658461 0.409894
vt 0.652170 0.379918
vt 0.643556 0.383313
vt 0.648608 0.412620
vt 0.635887 0.350507
vt 0.629620 0.353090
vt 0.636101 0.385774
vt 0.622397 0.320149
vt 0.615737 0.325013
vt 0.622167 0.356357
vt 0.612380 0.293428
vt 0.606507 0.301360
vt 0.597446 0.270876
vt 0.592555 0.281095
vt 0.575792 0.256210
vt 0.572072 0.268174
vt 0.549300 0.253173
vt 0.547472 0.265878
vt 0.523333 0.261224
vt 0.501328 0.280907
vt 0.483747 0.310141
vt 0.492387 0.318856
vt 0.471702 0.348415
vt 0.482708 0.355647
vt 0.467693 0.391327
vt 0.481190 0.396183
vt 0.476504 0.437471
vt 0.517909 0.486419
vt 0.582352 0.489052
vt 0.621436 0.468593
vt 0.608210 0.462602
vt 0.638311 0.441174
vt 0.625750 0.439079
vt 0.648207 0.442534
vt 0.640133 0.414099
vt 0.630114 0.413188
vt 0.627296 0.387808
vt 0.613948 0.360265
vt 0.601501 0.365335
vt 0.581268 0.369856
vt 0.555411 0.371679
vt 0.561250 0.403024
vt 0.555656 0.340322
vt 0.561059 0.308835
vt 0.527935 0.338032
vt 0.523344 0.368984
vt 0.504529 0.328311
vt 0.496952 0.362760
vt 0.498188 0.400238
vt 0.527714 0.403026
vt 0.573610 0.434025
vt 0.591988 0.452712
vt 0.567201 0.284680
s 1
usemtl EyeSocket
f 1/1/1 2/2/2 3/3/3
f 1/1/1 3/3/3 4/4/4
f 1/1/1 5/5/5 6/6/6
f 1/1/1 6/6/6 2/2/2
f 1/1/1 4/4/4 7/7/7
f 1/1/1 7/7/7 5/5/5
f 8/8/8 9/9/9 10/10/10
f 8/8/8 10/10/10 11/11/11
f 8/8/8 12/12/12 13/13/13
f 8/8/8 13/13/13 9/9/9
f 8/8/8 11/11/11 14/14/14
f 8/8/8 14/14/14 12/12/12
f 15/15/15 16/16/16 17/17/17
f 15/15/15 17/17/17 18/18/18
f 15/15/15 18/18/18 19/19/19
f 15/15/15 19/19/19 20/20/20
f 15/15/15 20/20/20 21/21/21
f 15/15/15 21/21/21 16/16/16
f 22/22/22 23/23/23 24/24/24
f 22/22/22 24/24/24 25/25/25
f 22/22/22 25/25/25 26/26/26
f 22/22/22 26/26/26 27/27/27
f 28/28/28 29/29/29 30/30/30
f 28/28/28 30/30/30 31/31/31
f 28/28/28 31/31/31 32/32/32
f 28/28/28 32/32/32 33/33/33
f 28/28/28 33/33/33 34/34/34
f 28/28/28 34/34/34 29/29/29
f 35/35/35 36/36/36 37/37/37
f 35/35/35 37/37/37 38/38/38
f 35/35/35 38/38/38 39/39/39
f 35/35/35 39/39/39 40/40/40
f 35/35/35 40/40/40 41/41/41
f 35/35/35 41/41/41 36/36/36
f 42/42/42 43/43/43 44/44/44
f 42/42/42 44/44/44 45/45/45
f 42/42/42 46/46/46 47/47/47
f 42/42/42 47/47/47 43/43/43
f 42/42/42 45/45/45 48/48/48
f 42/42/42 48/48/48 46/46/46
f 34/34/34 49/49/49 50/50/50
f 34/34/34 50/50/50 51/51/51
f 34/34/34 52/52/52 53/53/53
f 34/34/34 53/53/53 49/49/49
f 34/34/34 33/33/33 54/54/54
f 34/34/34 54/54/54 52/52/52
f 55/55/55 53/53/53 52/52/52
f 55/55/55 52/52/52 56/56/56
f 55/55/55 57/57/57 58/58/58
f 55/55/55 58/58/58 53/53/53
f 59/59/55 60/60/56 61/61/59
f 59/59/55 61/61/59 62/62/60
f 49/49/49 53/53/53 58/58/58
f 49/49/49 58/58/58 50/50/50
f 61/61/59 63/63/61 64/64/62
f 61/61/59 64/64/62 65/65/63
f 61/61/59 65/65/63 66/66/64
f 61/61/59 66/66/64 62/62/60
f 61/61/59 60/60/56 67/67/65
f 61/61/59 67/67/65 63/63/61
f 67/67/65 68/68/66 69/69/67
f 67/67/65 69/69/67 63/63/61
f 70/70/65 56/56/56 52/52/52
f 70/70/65 52/52/52 54/54/54
f 70/70/65 54/54/54 71/71/68
f 70/70/65 71/71/68 72/72/66
f 71/71/68 73/73/69 74/74/70
f 71/71/68 74/74/70 72/72/66
f 71/71/68 54/54/54 33/33/33
f 71/71/68 33/33/33 32/32/32
f 71/71/68 32/32/32 75/75/71
f 71/71/68 75/75/71 73/73/69
f 75/75/71 76/76/72 77/77/73
f 75/75/71 77/77/73 73/73/69
f 75/75/71 32/32/32 31/31/31
f 75/75/71 31/31/31 14/14/14
f 75/75/71 14/14/14 11/11/11
f 75/75/71 11/11/11 76/76/72
f 77/77/73 78/78/74 40/40/40
f 77/77/73 40/40/40 39/39/39
f 77/77/73 39/39/39 74/74/70
f 77/77/73 74/74/70 73/73/69
f 77/77/73 76/76/72 79/79/75
f 77/77/73 79/79/75 78/78/74
f 79/79/75 10/10/10 80/80/76
f 79/79/75 80/80/76 81/81/77
f 79/79/75 81/81/77 82/82/78
f 79/79/75 82/82/78 78/78/74
f 79/79/75 76/76/72 11/11/11
f 79/79/75 11/11/11 10/10/10
f 82/82/78 81/81/77 83/83/79
f 82/82/78 83/83/79 84/84/80
f 82/82/78 84/84/80 85/85/81
f 82/82/78 85/85/81 41/41/41
f 82/82/78 41/41/41 40/40/40
f 82/82/78 40/40/40 78/78/74
f 85/85/81 84/84/80 86/86/82
f 85/85/81 86/86/82 87/87/83
f 85/85/81 87/87/83 88/88/84
f 85/85/81 88/88/84 89/89/85
f 85/85/81 89/89/85 36/36/36
f 85/85/81 36/36/36 41/41/41
f 89/89/85 88/88/84 90/90/86
f 89/89/85 90/90/86 91/91/87
f 89/89/85 91/91/87 37/37/37
f 89/89/85 37/37/37 36/36/36
f 91/91/87 90/90/86 92/92/88
f 91/91/87 92/92/88 93/93/89
f 91/91/87 93/93/89 94/94/90
f 91/91/87 94/94/90 37/37/37
f 94/94/90 93/93/89 95/95/91
f 94/94/90 95/95/91 96/96/92
f 94/94/90 96/96/92 69/69/67
f 94/94/90 69/69/67 97/97/93
f 94/94/90 97/97/93 38/38/38
f 94/94/90 38/38/38 37/37/37
f 97/97/93 69/69/67 68/68/66
f 97/97/93 68/68/66 98/98/70
f 97/97/93 98/98/70 39/39/39
f 97/97/93 39/39/39 38/38/38
f 96/96/92 95/95/91 99/99/94
f 96/96/92 99/99/94 64/64/62
f 96/96/92 64/64/62 63/63/61
f 96/96/92 63/63/61 69/69/67
f 99/99/94 95/95/91 100/100/95
f 99/99/94 100/100/95 101/101/96
f 99/99/94 101/101/96 102/102/97
f 99/99/94 102/102/97 103/103/98
f 99/99/94 103/103/98 65/65/63
f 99/99/94 65/65/63 64/64/62
f 103/103/98 102/102/97 104/104/99
f 103/103/98 104/104/99 105/105/100
f 103/103/98 105/105/100 66/66/64
f 103/103/98 66/66/64 65/65/63
f 105/105/100 104/104/99 106/106/101
f 105/105/100 106/106/101 107/107/102
f 105/105/100 107/107/102 108/108/103
f 105/105/100 108/108/103 66/66/64
f 109/109/103 110/110/104 111/111/105
f 109/109/103 111/111/105 112/112/106
f 109/109/103 112/112/106 50/50/50
f 109/109/103 50/50/50 58/58/58
f 108/108/103 113/113/58 62/62/60
f 108/108/103 62/62/60 66/66/64
f 112/112/106 111/111/105 114/114/107
f 112/112/106 114/114/107 115/115/108
f 112/112/106 115/115/108 51/51/51
f 112/112/106 51/51/51 50/50/50
f 115/115/108 114/114/107 116/116/109
f 115/115/108 116/116/109 117/117/110
f 115/115/108 117/117/110 118/118/111
f 115/115/108 118/118/111 51/51/51
f 118/118/111 117/117/110 119/119/112
f 118/118/111 119/119/112 120/120/113
f 118/118/111 120/120/113 30/30/30
f 118/118/111 30/30/30 29/29/29
f 118/118/111 29/29/29 34/34/34
f 118/118/111 34/34/34 51/51/51
f 120/120/113 119/119/112 121/121/114
f 120/120/113 121/121/114 13/13/13
f 120/120/113 13/13/13 12/12/12
f 120/120/113 12/12/12 30/30/30
f 121/121/114 119/119/112 122/122/115
f 121/121/114 122/122/115 123/123/116
f 121/121/114 123/123/116 124/124/117
f 121/121/114 124/124/117 125/125/118
f 121/121/114 125/125/118 9/9/9
f 121/121/114 9/9/9 13/13/13
f 125/125/118 124/124/117 126/126/119
f 125/125/118 126/126/119 80/80/76
f 125/125/118 80/80/76 10/10/10
f 125/125/118 10/10/10 9/9/9
f 126/126/119 124/124/117 127/127/120
f 126/126/119 127/127/120 128/128/121
f 126/126/119 128/128/121 129/129/122
f 126/126/119 129/129/122 83/83/79
f 126/126/119 83/83/79 81/81/77
f 126/126/119 81/81/77 80/80/76
f 129/129/122 128/128/121 130/130/123
f 129/129/122 130/130/123 131/131/124
f 129/129/122 131/131/124 132/132/125
f 129/129/122 132/132/125 86/86/82
f 129/129/122 86/86/82 84/84/80
f 129/129/122 84/84/80 83/83/79
f 132/132/125 131/131/124 133/133/126
f 132/132/125 133/133/126 134/134/127
f 132/132/125 134/134/127 135/135/128
f 132/132/125 135/135/128 136/136/129
f 132/132/125 136/136/129 87/87/83
f 132/132/125 87/87/83 86/86/82
f 136/136/129 135/135/128 137/137/130
f 136/136/129 137/137/130 138/138/131
f 136/136/129 138/138/131 88/88/84
f 136/136/129 88/88/84 87/87/83
f 138/138/131 137/137/130 139/139/132
f 138/138/131 139/139/132 140/140/133
f 138/138/131 140/140/133 90/90/86
f 138/138/131 90/90/86 88/88/84
f 140/140/133 139/139/132 141/141/134
f 140/140/133 141/141/134 142/142/135
f 140/140/133 142/142/135 92/92/88
f 140/140/133 92/92/88 90/90/86
f 142/142/135 141/141/134 143/143/136
f 142/142/135 143/143/136 144/144/137
f 142/142/135 144/144/137 100/100/95
f 142/142/135 100/100/95 92/92/88
f 144/144/137 143/143/136 145/145/138
f 144/144/137 145/145/138 146/146/139
f 144/144/137 146/146/139 101/101/96
f 144/144/137 101/101/96 100/100/95
f 146/146/139 145/145/138 147/147/140
f 146/146/139 147/147/140 148/148/141
f 146/146/139 148/148/141 102/102/97
f 146/146/139 102/102/97 101/101/96
f 148/148/141 147/147/140 149/149/142
f 148/148/141 149/149/142 150/150/143
f 148/148/141 150/150/143 104/104/99
f 148/148/141 104/104/99 102/102/97
f 150/150/143 149/149/142 151/151/144
f 150/150/143 151/151/144 152/152/145
f 150/150/143 152/152/145 106/106/101
f 150/150/143 106/106/101 104/104/99
f 153/153/146 154/154/144 155/155/147
f 153/153/146 155/155/147 156/156/148
f 153/153/146 156/156/148 157/157/149
f 153/153/146 157/157/149 158/158/101
f 157/157/149 156/156/148 159/159/150
f 157/157/149 159/159/150 160/160/151
f 157/157/149 160/160/151 114/114/107
f 157/157/149 114/114/107 111/111/105
f 157/157/149 111/111/105 110/110/104
f 157/157/149 110/110/104 158/158/101
f 160/160/151 159/159/150 161/161/152
f 160/160/151 161/161/152 162/162/153
f 160/160/151 162/162/153 116/116/109
f 160/160/151 116/116/109 114/114/107
f 162/162/153 161/161/152 163/163/154
f 162/162/153 163/163/154 164/164/155
f 162/162/153 164/164/155 122/122/115
f 162/162/153 122/122/115 116/116/109
f 164/164/155 163/163/154 165/165/156
f 164/164/155 165/165/156 166/166/157
f 164/164/155 166/166/157 123/123/116
f 164/164/155 123/123/116 122/122/115
f 166/166/157 165/165/156 167/167/158
f 166/166/157 167/167/158 127/127/120
f 166/166/157 127/127/120 124/124/117
f 166/166/157 124/124/117 123/123/116
f 167/167/158 165/165/156 168/168/159
f 167/167/158 168/168/159 169/169/160
f 167/167/158 169/169/160 170/170/161
f 167/167/158 170/170/161 130/130/123
f 167/167/158 130/130/123 128/128/121
f 167/167/158 128/128/121 127/127/120
f 170/170/161 169/169/160 171/171/162
f 170/170/161 171/171/162 172/172/163
f 170/170/161 172/172/163 173/173/164
f 170/170/161 173/173/164 133/133/126
f 170/170/161 133/133/126 131/131/124
f 170/170/161 131/131/124 130/130/123
f 173/173/164 172/172/163 174/174/165
f 173/173/164 174/174/165 175/175/166
f 173/173/164 175/175/166 176/176/167
f 173/173/164 176/176/167 177/177/168
f 173/173/164 177/177/168 134/134/127
f 173/173/164 134/134/127 133/133/126
f 177/177/168 176/176/167 178/178/169
f 177/177/168 178/178/169 179/179/170
f 177/177/168 179/179/170 135/135/128
f 177/177/168 135/135/128 134/134/127
f 179/179/170 178/178/169 180/180/171
f 179/179/170 180/180/171 181/181/172
f 179/179/170 181/181/172 137/137/130
f 179/179/170 137/137/130 135/135/128
f 181/181/172 180/180/171 182/182/173
f 181/181/172 182/182/173 183/183/174
f 181/181/172 183/183/174 139/139/132
f 181/181/172 139/139/132 137/137/130
f 183/183/174 182/182/173 184/184/175
f 183/183/174 184/184/175 185/185/176
f 183/183/174 185/185/176 141/141/134
f 183/183/174 141/141/134 139/139/132
f 185/185/176 184/184/175 186/186/177
f 185/185/176 186/186/177 187/187/178
f 185/185/176 187/187/178 143/143/136
f 185/185/176 143/143/136 141/141/134
f 187/187/178 186/186/177 188/188/179
f 187/187/178 188/188/179 189/189/180
f 187/187/178 189/189/180 145/145/138
f 187/187/178 145/145/138 143/143/136
f 189/189/180 188/188/179 190/190/181
f 189/189/180 190/190/181 191/191/182
f 189/189/180 191/191/182 147/147/140
f 189/189/180 147/147/140 145/145/138
f 191/191/182 190/190/181 192/192/183
f 191/191/182 192/192/183 193/193/184
f 191/191/182 193/193/184 149/149/142
f 191/191/182 149/149/142 147/147/140
f 193/193/184 192/192/183 194/194/185
f 193/193/184 194/194/185 195/195/186
f 193/193/184 195/195/186 151/151/144
f 193/193/184 151/151/144 149/149/142
f 196/196/186 194/194/185 197/197/187
f 196/196/186 197/197/187 198/198/188
f 196/196/186 198/198/188 155/155/147
f 196/196/186 155/155/147 154/154/144
f 198/198/188 197/197/187 199/199/189
f 198/198/188 199/199/189 200/200/190
f 198/198/188 200/200/190 201/201/191
f 198/198/188 201/201/191 155/155/147
f 201/201/191 200/200/190 202/202/192
f 201/201/191 202/202/192 203/203/193
f 201/201/191 203/203/193 161/161/152
f 201/201/191 161/161/152 159/159/150
f 201/201/191 159/159/150 156/156/148
f 201/201/191 156/156/148 155/155/147
f 203/203/193 202/202/192 204/204/194
f 203/203/193 204/204/194 205/205/195
f 203/203/193 205/205/195 163/163/154
f 203/203/193 163/163/154 161/161/152
f 205/205/195 204/204/194 206/206/196
f 205/205/195 206/206/196 168/168/159
f 205/205/195 168/168/159 165/165/156
f 205/205/195 165/165/156 163/163/154
f 206/206/196 204/204/194 207/207/197
f 206/206/196 207/207/197 208/208/198
f 206/206/196 208/208/198 209/209/199
f 206/206/196 209/209/199 171/171/162
f 206/206/196 171/171/162 169/169/160
f 206/206/196 169/169/160 168/168/159
f 209/209/199 208/208/198 210/210/200
f 209/209/199 210/210/200 211/211/201
f 209/209/199 211/211/201 212/212/202
f 209/209/199 212/212/202 174/174/165
f 209/209/199 174/174/165 172/172/163
f 209/209/199 172/172/163 171/171/162
f 212/212/202 211/211/201 213/213/203
f 212/212/202 213/213/203 214/214/204
f 212/212/202 214/214/204 215/215/205
f 212/212/202 215/215/205 216/216/206
f 212/212/202 216/216/206 175/175/166
f 212/212/202 175/175/166 174/174/165
f 216/216/206 215/215/205 217/217/207
f 216/216/206 217/217/207 218/218/208
f 216/216/206 218/218/208 176/176/167
f 216/216/206 176/176/167 175/175/166
f 218/218/208 217/217/207 219/219/209
f 218/218/208 219/219/209 220/220/210
f 218/218/208 220/220/210 178/178/169
f 218/218/208 178/178/169 176/176/167
f 220/220/210 219/219/209 221/221/211
f 220/220/210 221/221/211 222/222/212
f 220/220/210 222/222/212 180/180/171
f 220/220/210 180/180/171 178/178/169
f 222/222/212 221/221/211 27/27/27
f 222/222/212 27/27/27 223/223/213
f 222/222/212 223/223/213 182/182/173
f 222/222/212 182/182/173 180/180/171
f 223/223/213 27/27/27 26/26/26
f 223/223/213 26/26/26 224/224/214
f 223/223/213 224/224/214 184/184/175
f 223/223/213 184/184/175 182/182/173
f 224/224/214 26/26/26 225/225/215
f 224/224/214 225/225/215 226/226/216
f 224/224/214 226/226/216 186/186/177
f 224/224/214 186/186/177 184/184/175
f 226/226/216 225/225/215 227/227/217
f 226/226/216 227/227/217 228/228/218
f 226/226/216 228/228/218 188/188/179
f 226/226/216 188/188/179 186/186/177
f 228/228/218 227/227/217 229/229/219
f 228/228/218 229/229/219 230/230/220
f 228/228/218 230/230/220 190/190/181
f 228/228/218 190/190/181 188/188/179
f 230/230/220 229/229/219 19/19/19
f 230/230/220 19/19/19 231/231/221
f 230/230/220 231/231/221 192/192/183
f 230/230/220 192/192/183 190/190/181
f 231/231/221 19/19/19 18/18/18
f 231/231/221 18/18/18 232/232/222
f 231/231/221 232/232/222 194/194/185
f 231/231/221 194/194/185 192/192/183
f 232/232/222 18/18/18 17/17/17
f 232/232/222 17/17/17 233/233/223
f 232/232/222 233/233/223 197/197/187
f 232/232/222 197/197/187 194/194/185
f 233/233/223 17/17/17 234/234/224
f 233/233/223 234/234/224 235/235/225
f 233/233/223 235/235/225 199/199/189
f 233/233/223 199/199/189 197/197/187
f 235/235/225 234/234/224 236/236/226
f 235/235/225 236/236/226 237/237/227
f 235/235/225 237/237/227 238/238/228
f 235/235/225 238/238/228 199/199/189
f 238/238/228 237/237/227 239/239/229
f 238/238/228 239/239/229 207/207/197
f 238/238/228 207/207/197 204/204/194
f 238/238/228 204/204/194 202/202/192
f 238/238/228 202/202/192 200/200/190
f 238/238/228 200/200/190 199/199/189
f 239/239/229 237/237/227 236/236/226
f 239/239/229 236/236/226 240/240/230
f 239/239/229 240/240/230 241/241/231
f 239/239/229 241/241/231 210/210/200
f 239/239/229 210/210/200 208/208/198
f 239/239/229 208/208/198 207/207/197
f 241/241/231 240/240/230 2/2/2
f 241/241/231 2/2/2 6/6/6
f 241/241/231 6/6/6 242/242/232
f 241/241/231 242/242/232 213/213/203
f 241/241/231 213/213/203 211/211/201
f 241/241/231 211/211/201 210/210/200
f 242/242/232 6/6/6 5/5/5
f 242/242/232 5/5/5 243/243/233
f 242/242/232 243/243/233 45/45/45
f 242/242/232 45/45/45 44/44/44
f 242/242/232 44/44/44 214/214/204
f 242/242/232 214/214/204 213/213/203
f 243/243/233 5/5/5 7/7/7
f 243/243/233 7/7/7 244/244/234
f 243/243/233 244/244/234 48/48/48
f 243/243/233 48/48/48 45/45/45
f 244/244/234 7/7/7 245/245/235
f 244/244/234 245/245/235 246/246/236
f 244/244/234 246/246/236 247/247/237
f 244/244/234 247/247/237 48/48/48
f 247/247/237 248/248/238 46/46/46
f 247/247/237 46/46/46 48/48/48
f 247/247/237 246/246/236 249/249/239
f 247/247/237 249/249/239 250/250/240
f 247/247/237 250/250/240 24/24/24
f 247/247/237 24/24/24 248/248/238
f 250/250/240 249/249/239 251/251/241
f 250/250/240 251/251/241 252/252/242
f 250/250/240 252/252/242 25/25/25
f 250/250/240 25/25/25 24/24/24
f 252/252/242 251/251/241 227/227/217
f 252/252/242 227/227/217 225/225/215
f 252/252/242 225/225/215 26/26/26
f 252/252/242 26/26/26 25/25/25
f 251/251/241 249/249/239 253/253/243
f 251/251/241 253/253/243 254/254/244
f 251/251/241 254/254/244 229/229/219
f 251/251/241 229/229/219 227/227/217
f 254/254/244 253/253/243 21/21/21
f 254/254/244 21/21/21 20/20/20
f 254/254/244 20/20/20 19/19/19
f 254/254/244 19/19/19 229/229/219
f 253/253/243 249/249/239 246/246/236
f 253/253/243 246/246/236 245/245/235
f 253/253/243 245/245/235 255/255/245
f 253/253/243 255/255/245 21/21/21
f 255/255/245 245/245/235 7/7/7
f 255/255/245 7/7/7 4/4/4
f 255/255/245 4/4/4 3/3/3
f 255/255/245 3/3/3 256/256/246
f 255/255/245 256/256/246 16/16/16
f 255/255/245 16/16/16 21/21/21
f 256/256/246 3/3/3 236/236/226
f 256/256/246 236/236/226 234/234/224
f 256/256/246 234/234/224 17/17/17
f 256/256/246 17/17/17 16/16/16
f 248/248/238 24/24/24 23/23/23
f 248/248/238 23/23/23 257/257/247
f 248/248/238 257/257/247 47/47/47
f 248/248/238 47/47/47 46/46/46
f 257/257/247 23/23/23 221/221/211
f 257/257/247 221/221/211 219/219/209
f 257/257/247 219/219/209 217/217/207
f 257/257/247 217/217/207 47/47/47
f 240/240/230 236/236/226 3/3/3
f 240/240/230 3/3/3 2/2/2
f 221/221/211 23/23/23 22/22/22
f 221/221/211 22/22/22 27/27/27
f 217/217/207 215/215/205 43/43/43
f 217/217/207 43/43/43 47/47/47
f 215/215/205 214/214/204 44/44/44
f 215/215/205 44/44/44 43/43/43
f 122/122/115 119/119/112 117/117/110
f 122/122/115 117/117/110 116/116/109
f 100/100/95 95/95/91 93/93/89
f 100/100/95 93/93/89 92/92/88
f 31/31/31 30/30/30 12/12/12
f 31/31/31 12/12/12 14/14/14
f 258/258/248 259/259/249 260/260/250
f 258/258/248 260/260/250 261/261/251
f 258/258/248 261/261/251 262/262/252
f 258/258/248 262/262/252 263/263/253
f 258/258/248 263/263/253 264/264/254
f 258/258/248 264/264/254 259/259/249
f 265/265/255 266/266/256 267/267/257
f 265/265/255 267/267/257 268/268/258
f 265/265/255 268/268/258 269/269/259
f 265/265/255 269/269/259 270/270/260
f 265/265/255 270/270/260 271/271/261
f 265/265/255 271/271/261 266/266/256
f 272/272/262 273/273/263 274/274/264
f 272/272/262 274/274/264 275/275/265
f 272/272/262 276/276/266 277/277/267
f 272/272/262 277/277/267 273/273/263
f 272/272/262 275/275/265 278/278/268
f 272/272/262 278/278/268 276/276/266
f 279/279/269 280/280/270 281/281/271
f 279/279/269 281/281/271 282/282/272
f 279/279/269 283/283/273 284/284/274
f 279/279/269 284/284/274 280/280/270
f 285/285/275 286/286/276 287/287/277
f 285/285/275 287/287/277 288/288/278
f 285/285/275 289/289/279 290/290/280
f 285/285/275 290/290/280 286/286/276
f 285/285/275 288/288/278 291/291/281
f 285/285/275 291/291/281 289/289/279
f 292/292/282 293/293/283 294/294/284
f 292/292/282 294/294/284 295/295/285
f 292/292/282 296/296/286 297/297/287
f 292/292/282 297/297/287 293/293/283
f 292/292/282 295/295/285 298/298/288
f 292/292/282 298/298/288 296/296/286
f 299/299/289 300/300/290 301/301/291
f 299/299/289 301/301/291 302/302/292
f 299/299/289 302/302/292 303/303/293
f 299/299/289 303/303/293 304/304/294
f 299/299/289 304/304/294 305/305/295
f 299/299/289 305/305/295 300/300/290
f 291/291/281 306/306/296 307/307/297
f 291/291/281 307/307/297 308/308/298
f 291/291/281 308/308/298 309/309/299
f 291/291/281 309/309/299 310/310/300
f 291/291/281 310/310/300 311/311/301
f 291/291/281 311/311/301 289/289/279
f 312/312/302 313/313/303 310/310/300
f 312/312/302 310/310/300 309/309/299
f 312/312/302 309/309/299 314/314/304
f 312/312/302 314/314/304 315/315/305
f 316/316/302 317/317/306 318/318/307
f 316/316/302 318/318/307 319/319/303
f 308/308/298 307/307/297 314/314/304
f 308/308/298 314/314/304 309/309/299
f 318/318/307 320/320/308 321/321/309
f 318/318/307 321/321/309 322/322/310
f 318/318/307 317/317/306 323/323/311
f 318/318/307 323/323/311 320/320/308
f 318/318/307 322/322/310 324/324/312
f 318/318/307 324/324/312 319/319/303
f 324/324/312 322/322/310 325/325/313
f 324/324/312 325/325/313 326/326/314
f 327/327/312 311/311/301 310/310/300
f 327/327/312 310/310/300 313/313/303
f 327/327/312 328/328/314 329/329/315
f 327/327/312 329/329/315 311/311/301
f 329/329/315 328/328/314 330/330/316
f 329/329/315 330/330/316 331/331/317
f 329/329/315 290/290/280 289/289/279
f 329/329/315 289/289/279 311/311/301
f 329/329/315 331/331/317 332/332/318
f 329/329/315 332/332/318 290/290/280
f 332/332/318 331/331/317 333/333/319
f 332/332/318 333/333/319 334/334/320
f 332/332/318 271/271/261 286/286/276
f 332/332/318 286/286/276 290/290/280
f 332/332/318 334/334/320 266/266/256
f 332/332/318 266/266/256 271/271/261
f 333/333/319 297/297/287 296/296/286
f 333/333/319 296/296/286 335/335/321
f 333/333/319 331/331/317 330/330/316
f 333/333/319 330/330/316 297/297/287
f 333/333/319 335/335/321 336/336/322
f 333/333/319 336/336/322 334/334/320
f 336/336/322 337/337/323 338/338/324
f 336/336/322 338/338/324 267/267/257
f 336/336/322 335/335/321 339/339/325
f 336/336/322 339/339/325 337/337/323
f 336/336/322 267/267/257 266/266/256
f 336/336/322 266/266/256 334/334/320
f 339/339/325 340/340/326 341/341/327
f 339/339/325 341/341/327 337/337/323
f 339/339/325 298/298/288 342/342/328
f 339/339/325 342/342/328 340/340/326
f 339/339/325 335/335/321 296/296/286
f 339/339/325 296/296/286 298/298/288
f 342/342/328 343/343/329 344/344/330
f 342/342/328 344/344/330 340/340/326
f 342/342/328 345/345/331 346/346/332
f 342/342/328 346/346/332 343/343/329
f 342/342/328 298/298/288 295/295/285
f 342/342/328 295/295/285 345/345/331
f 345/345/331 347/347/333 348/348/334
f 345/345/331 348/348/334 346/346/332
f 345/345/331 295/295/285 294/294/284
f 345/345/331 294/294/284 347/347/333
f 347/347/333 349/349/335 350/350/336
f 347/347/333 350/350/336 348/348/334
f 347/347/333 294/294/284 351/351/337
f 347/347/333 351/351/337 349/349/335
f 351/351/337 352/352/338 353/353/339
f 351/351/337 353/353/339 349/349/335
f 351/351/337 354/354/340 325/325/313
f 351/351/337 325/325/313 352/352/338
f 351/351/337 294/294/284 293/293/283
f 351/351/337 293/293/283 354/354/340
f 354/354/340 355/355/316 326/326/314
f 354/354/340 326/326/314 325/325/313
f 354/354/340 293/293/283 297/297/287
f 354/354/340 297/297/287 355/355/316
f 352/352/338 321/321/309 356/356/341
f 352/352/338 356/356/341 353/353/339
f 352/352/338 325/325/313 322/322/310
f 352/352/338 322/322/310 321/321/309
f 356/356/341 357/357/342 358/358/343
f 356/356/341 358/358/343 353/353/339
f 356/356/341 359/359/344 360/360/345
f 356/356/341 360/360/345 357/357/342
f 356/356/341 321/321/309 320/320/308
f 356/356/341 320/320/308 359/359/344
f 359/359/344 361/361/346 362/362/347
f 359/359/344 362/362/347 360/360/345
f 359/359/344 320/320/308 323/323/311
f 359/359/344 323/323/311 361/361/346
f 361/361/346 363/363/348 364/364/349
f 361/361/346 364/364/349 362/362/347
f 361/361/346 323/323/311 365/365/350
f 361/361/346 365/365/350 363/363/348
f 366/366/350 367/367/351 368/368/352
f 366/366/350 368/368/352 369/369/353
f 366/366/350 314/314/304 307/307/297
f 366/366/350 307/307/297 367/367/351
f 365/365/350 323/323/311 317/317/306
f 365/365/350 317/317/306 370/370/304
f 367/367/351 371/371/354 372/372/355
f 367/367/351 372/372/355 368/368/352
f 367/367/351 307/307/297 306/306/296
f 367/367/351 306/306/296 371/371/354
f 371/371/354 373/373/356 374/374/357
f 371/371/354 374/374/357 372/372/355
f 371/371/354 306/306/296 375/375/358
f 371/371/354 375/375/358 373/373/356
f 375/375/358 376/376/359 377/377/360
f 375/375/358 377/377/360 373/373/356
f 375/375/358 288/288/278 287/287/277
f 375/375/358 287/287/277 376/376/359
f 375/375/358 306/306/296 291/291/281
f 375/375/358 291/291/281 288/288/278
f 376/376/359 269/269/259 378/378/361
f 376/376/359 378/378/361 377/377/360
f 376/376/359 287/287/277 270/270/260
f 376/376/359 270/270/260 269/269/259
f 378/378/361 379/379/362 380/380/363
f 378/378/361 380/380/363 377/377/360
f 378/378/361 381/381/364 382/382/365
f 378/378/361 382/382/365 379/379/362
f 378/378/361 269/269/259 268/268/258
f 378/378/361 268/268/258 381/381/364
f 381/381/364 338/338/324 383/383/366
f 381/381/364 383/383/366 382/382/365
f 381/381/364 268/268/258 267/267/257
f 381/381/364 267/267/257 338/338/324
f 383/383/366 384/384/367 385/385/368
f 383/383/366 385/385/368 382/382/365
f 383/383/366 341/341/327 386/386/369
f 383/383/366 386/386/369 384/384/367
f 383/383/366 338/338/324 337/337/323
f 383/383/366 337/337/323 341/341/327
f 386/386/369 387/387/370 388/388/371
f 386/386/369 388/388/371 384/384/367
f 386/386/369 344/344/330 389/389/372
f 386/386/369 389/389/372 387/387/370
f 386/386/369 341/341/327 340/340/326
f 386/386/369 340/340/326 344/344/330
f 389/389/372 390/390/373 391/391/374
f 389/389/372 391/391/374 387/387/370
f 389/389/372 392/392/375 393/393/376
f 389/389/372 393/393/376 390/390/373
f 389/389/372 344/344/330 343/343/329
f 389/389/372 343/343/329 392/392/375
f 392/392/375 394/394/377 395/395/378
f 392/392/375 395/395/378 393/393/376
f 392/392/375 343/343/329 346/346/332
f 392/392/375 346/346/332 394/394/377
f 394/394/377 396/396/379 397/397/380
f 394/394/377 397/397/380 395/395/378
f 394/394/377 346/346/332 348/348/334
f 394/394/377 348/348/334 396/396/379
f 396/396/379 398/398/381 399/399/382
f 396/396/379 399/399/382 397/397/380
f 396/396/379 348/348/334 350/350/336
f 396/396/379 350/350/336 398/398/381
f 398/398/381 400/400/383 401/401/384
f 398/398/381 401/401/384 399/399/382
f 398/398/381 350/350/336 358/358/343
f 398/398/381 358/358/343 400/400/383
f 400/400/383 402/402/385 403/403/386
f 400/400/383 403/403/386 401/401/384
f 400/400/383 358/358/343 357/357/342
f 400/400/383 357/357/342 402/402/385
f 402/402/385 404/404/387 405/405/388
f 402/402/385 405/405/388 403/403/386
f 402/402/385 357/357/342 360/360/345
f 402/402/385 360/360/345 404/404/387
f 404/404/387 406/406/389 407/407/390
f 404/404/387 407/407/390 405/405/388
f 404/404/387 360/360/345 362/362/347
f 404/404/387 362/362/347 406/406/389
f 406/406/389 408/408/391 409/409/392
f 406/406/389 409/409/392 407/407/390
f 406/406/389 362/362/347 364/364/349
f 406/406/389 364/364/349 408/408/391
f 410/410/391 411/411/393 412/412/394
f 410/410/391 412/412/394 413/413/392
f 410/410/391 414/414/349 415/415/395
f 410/410/391 415/415/395 411/411/393
f 415/415/395 416/416/396 417/417/397
f 415/415/395 417/417/397 411/411/393
f 415/415/395 368/368/352 372/372/355
f 415/415/395 372/372/355 416/416/396
f 415/415/395 414/414/349 369/369/353
f 415/415/395 369/369/353 368/368/352
f 416/416/396 418/418/398 419/419/399
f 416/416/396 419/419/399 417/417/397
f 416/416/396 372/372/355 374/374/357
f 416/416/396 374/374/357 418/418/398
f 418/418/398 420/420/400 421/421/401
f 418/418/398 421/421/401 419/419/399
f 418/418/398 374/374/357 380/380/363
f 418/418/398 380/380/363 420/420/400
f 420/420/400 422/422/402 423/423/403
f 420/420/400 423/423/403 421/421/401
f 420/420/400 380/380/363 379/379/362
f 420/420/400 379/379/362 422/422/402
f 422/422/402 385/385/368 424/424/404
f 422/422/402 424/424/404 423/423/403
f 422/422/402 379/379/362 382/382/365
f 422/422/402 382/382/365 385/385/368
f 424/424/404 425/425/405 426/426/406
f 424/424/404 426/426/406 423/423/403
f 424/424/404 388/388/371 427/427/407
f 424/424/404 427/427/407 425/425/405
f 424/424/404 385/385/368 384/384/367
f 424/424/404 384/384/367 388/388/371
f 427/427/407 428/428/408 429/429/409
f 427/427/407 429/429/409 425/425/405
f 427/427/407 391/391/374 430/430/410
f 427/427/407 430/430/410 428/428/408
f 427/427/407 388/388/371 387/387/370
f 427/427/407 387/387/370 391/391/374
f 430/430/410 431/431/411 432/432/412
f 430/430/410 432/432/412 428/428/408
f 430/430/410 433/433/413 434/434/414
f 430/430/410 434/434/414 431/431/411
f 430/430/410 391/391/374 390/390/373
f 430/430/410 390/390/373 433/433/413
f 433/433/413 435/435/415 436/436/416
f 433/433/413 436/436/416 434/434/414
f 433/433/413 390/390/373 393/393/376
f 433/433/413 393/393/376 435/435/415
f 435/435/415 437/437/417 438/438/418
f 435/435/415 438/438/418 436/436/416
f 435/435/415 393/393/376 395/395/378
f 435/435/415 395/395/378 437/437/417
f 437/437/417 439/439/419 440/440/420
f 437/437/417 440/440/420 438/438/418
f 437/437/417 395/395/378 397/397/380
f 437/437/417 397/397/380 439/439/419
f 439/439/419 441/441/421 442/442/422
f 439/439/419 442/442/422 440/440/420
f 439/439/419 397/397/380 399/399/382
f 439/439/419 399/399/382 441/441/421
f 441/441/421 443/443/423 444/444/424
f 441/441/421 444/444/424 442/442/422
f 441/441/421 399/399/382 401/401/384
f 441/441/421 401/401/384 443/443/423
f 443/443/423 445/445/425 446/446/426
f 443/443/423 446/446/426 444/444/424
f 443/443/423 401/401/384 403/403/386
f 443/443/423 403/403/386 445/445/425
f 445/445/425 447/447/427 448/448/428
f 445/445/425 448/448/428 446/446/426
f 445/445/425 403/403/386 405/405/388
f 445/445/425 405/405/388 447/447/427
f 447/447/427 449/449/429 450/450/430
f 447/447/427 450/450/430 448/448/428
f 447/447/427 405/405/388 407/407/390
f 447/447/427 407/407/390 449/449/429
f 449/449/429 451/451/431 452/452/432
f 449/449/429 452/452/432 450/450/430
f 449/449/429 407/407/390 409/409/392
f 449/449/429 409/409/392 451/451/431
f 453/453/431 454/454/433 455/455/434
f 453/453/431 455/455/434 452/452/432
f 453/453/431 413/413/392 412/412/394
f 453/453/431 412/412/394 454/454/433
f 454/454/433 456/456/435 457/457/436
f 454/454/433 457/457/436 455/455/434
f 454/454/433 412/412/394 458/458/437
f 454/454/433 458/458/437 456/456/435
f 458/458/437 459/459/438 460/460/439
f 458/458/437 460/460/439 456/456/435
f 458/458/437 417/417/397 419/419/399
f 458/458/437 419/419/399 459/459/438
f 458/458/437 412/412/394 411/411/393
f 458/458/437 411/411/393 417/417/397
f 459/459/438 461/461/440 462/462/441
f 459/459/438 462/462/441 460/460/439
f 459/459/438 419/419/399 421/421/401
f 459/459/438 421/421/401 461/461/440
f 461/461/440 426/426/406 463/463/442
f 461/461/440 463/463/442 462/462/441
f 461/461/440 421/421/401 423/423/403
f 461/461/440 423/423/403 426/426/406
f 463/463/442 464/464/443 465/465/444
f 463/463/442 465/465/444 462/462/441
f 463/463/442 429/429/409 466/466/445
f 463/463/442 466/466/445 464/464/443
f 463/463/442 426/426/406 425/425/405
f 463/463/442 425/425/405 429/429/409
f 466/466/445 467/467/446 468/468/447
f 466/466/445 468/468/447 464/464/443
f 466/466/445 432/432/412 469/469/448
f 466/466/445 469/469/448 467/467/446
f 466/466/445 429/429/409 428/428/408
f 466/466/445 428/428/408 432/432/412
f 469/469/448 470/470/449 471/471/450
f 469/469/448 471/471/450 467/467/446
f 469/469/448 472/472/451 473/473/452
f 469/469/448 473/473/452 470/470/449
f 469/469/448 432/432/412 431/431/411
f 469/469/448 431/431/411 472/472/451
f 472/472/451 474/474/453 475/475/454
f 472/472/451 475/475/454 473/473/452
f 472/472/451 431/431/411 434/434/414
f 472/472/451 434/434/414 474/474/453
f 474/474/453 476/476/455 477/477/456
f 474/474/453 477/477/456 475/475/454
f 474/474/453 434/434/414 436/436/416
f 474/474/453 436/436/416 476/476/455
f 476/476/455 478/478/457 479/479/458
f 476/476/455 479/479/458 477/477/456
f 476/476/455 436/436/416 438/438/418
f 476/476/455 438/438/418 478/478/457
f 478/478/457 480/480/459 283/283/273
f 478/478/457 283/283/273 479/479/458
f 478/478/457 438/438/418 440/440/420
f 478/478/457 440/440/420 480/480/459
f 480/480/459 481/481/460 284/284/274
f 480/480/459 284/284/274 283/283/273
f 480/480/459 440/440/420 442/442/422
f 480/480/459 442/442/422 481/481/460
f 481/481/460 482/482/461 483/483/462
f 481/481/460 483/483/462 284/284/274
f 481/481/460 442/442/422 444/444/424
f 481/481/460 444/444/424 482/482/461
f 482/482/461 484/484/463 485/485/464
f 482/482/461 485/485/464 483/483/462
f 482/482/461 444/444/424 446/446/426
f 482/482/461 446/446/426 484/484/463
f 484/484/463 486/486/465 487/487/466
f 484/484/463 487/487/466 485/485/464
f 484/484/463 446/446/426 448/448/428
f 484/484/463 448/448/428 486/486/465
f 486/486/465 488/488/467 277/277/267
f 486/486/465 277/277/267 487/487/466
f 486/486/465 448/448/428 450/450/430
f 486/486/465 450/450/430 488/488/467
f 488/488/467 489/489/468 273/273/263
f 488/488/467 273/273/263 277/277/267
f 488/488/467 450/450/430 452/452/432
f 488/488/467 452/452/432 489/489/468
f 489/489/468 490/490/469 274/274/264
f 489/489/468 274/274/264 273/273/263
f 489/489/468 452/452/432 455/455/434
f 489/489/468 455/455/434 490/490/469
f 490/490/469 491/491/470 492/492/471
f 490/490/469 492/492/471 274/274/264
f 490/490/469 455/455/434 457/457/436
f 490/490/469 457/457/436 491/491/470
f 491/491/470 493/493/472 494/494/473
f 491/491/470 494/494/473 492/492/471
f 491/491/470 457/457/436 495/495/474
f 491/491/470 495/495/474 493/493/472
f 495/495/474 465/465/444 496/496/475
f 495/495/474 496/496/475 493/493/472
f 495/495/474 460/460/439 462/462/441
f 495/495/474 462/462/441 465/465/444
f 495/495/474 457/457/436 456/456/435
f 495/495/474 456/456/435 460/460/439
f 496/496/475 497/497/476 494/494/473
f 496/496/475 494/494/473 493/493/472
f 496/496/475 468/468/447 498/498/477
f 496/496/475 498/498/477 497/497/476
f 496/496/475 465/465/444 464/464/443
f 496/496/475 464/464/443 468/468/447
f 498/498/477 262/262/252 261/261/251
f 498/498/477 261/261/251 497/497/476
f 498/498/477 471/471/450 499/499/478
f 498/498/477 499/499/478 262/262/252
f 498/498/477 468/468/447 467/467/446
f 498/498/477 467/467/446 471/471/450
f 499/499/478 500/500/479 263/263/253
f 499/499/478 263/263/253 262/262/252
f 499/499/478 301/301/291 300/300/290
f 499/499/478 300/300/290 500/500/479
f 499/499/478 471/471/450 470/470/449
f 499/499/478 470/470/449 301/301/291
f 500/500/479 501/501/480 264/264/254
f 500/500/479 264/264/254 263/263/253
f 500/500/479 300/300/290 305/305/295
f 500/500/479 305/305/295 501/501/480
f 501/501/480 502/502/481 503/503/482
f 501/501/480 503/503/482 264/264/254
f 501/501/480 305/305/295 504/504/483
f 501/501/480 504/504/483 502/502/481
f 504/504/483 305/305/295 304/304/294
f 504/504/483 304/304/294 505/505/484
f 504/504/483 506/506/485 507/507/486
f 504/504/483 507/507/486 502/502/481
f 504/504/483 505/505/484 281/281/271
f 504/504/483 281/281/271 506/506/485
f 506/506/485 508/508/487 509/509/488
f 506/506/485 509/509/488 507/507/486
f 506/506/485 281/281/271 280/280/270
f 506/506/485 280/280/270 508/508/487
f 508/508/487 483/483/462 485/485/464
f 508/508/487 485/485/464 509/509/488
f 508/508/487 280/280/270 284/284/274
f 508/508/487 284/284/274 483/483/462
f 509/509/488 510/510/489 511/511/490
f 509/509/488 511/511/490 507/507/486
f 509/509/488 485/485/464 487/487/466
f 509/509/488 487/487/466 510/510/489
f 510/510/489 276/276/266 278/278/268
f 510/510/489 278/278/268 511/511/490
f 510/510/489 487/487/466 277/277/267
f 510/510/489 277/277/267 276/276/266
f 511/511/490 503/503/482 502/502/481
f 511/511/490 502/502/481 507/507/486
f 511/511/490 278/278/268 512/512/491
f 511/511/490 512/512/491 503/503/482
f 512/512/491 259/259/249 264/264/254
f 512/512/491 264/264/254 503/503/482
f 512/512/491 513/513/492 260/260/250
f 512/512/491 260/260/250 259/259/249
f 512/512/491 278/278/268 275/275/265
f 512/512/491 275/275/265 513/513/492
f 513/513/492 492/492/471 494/494/473
f 513/513/492 494/494/473 260/260/250
f 513/513/492 275/275/265 274/274/264
f 513/513/492 274/274/264 492/492/471
f 505/505/484 514/514/493 282/282/272
f 505/505/484 282/282/272 281/281/271
f 505/505/484 304/304/294 303/303/293
f 505/505/484 303/303/293 514/514/493
f 514/514/493 477/477/456 479/479/458
f 514/514/493 479/479/458 282/282/272
f 514/514/493 303/303/293 475/475/454
f 514/514/493 475/475/454 477/477/456
f 497/497/476 261/261/251 260/260/250
f 497/497/476 260/260/250 494/494/473
f 479/479/458 283/283/273 279/279/269
f 479/479/458 279/279/269 282/282/272
f 475/475/454 303/303/293 302/302/292
f 475/475/454 302/302/292 473/473/452
f 473/473/452 302/302/292 301/301/291
f 473/473/452 301/301/291 470/470/449
f 380/380/363 374/374/357 373/373/356
f 380/380/363 373/373/356 377/377/360
f 358/358/343 350/350/336 349/349/335
f 358/358/343 349/349/335 353/353/339
f 286/286/276 271/271/261 270/270/260
f 286/286/276 270/270/260 287/287/277
