# Blender 3.6.4
# www.blender.org
mtllib animeEyeBrows.mtl
o Eyebrow_Eyebrow_0
v -0.092576 1.892489 0.074671
v -0.091937 1.892581 0.074979
v -0.092017 1.892284 0.074989
v -0.092665 1.892204 0.074677
v -0.092665 1.892204 0.074677
v -0.091964 1.892734 0.075066
v -0.091905 1.892996 0.075043
v -0.091605 1.892689 0.075288
v -0.089644 1.893511 0.076338
v -0.089789 1.893800 0.076228
v -0.091897 1.892353 0.075122
v -0.089679 1.893165 0.076311
v -0.017901 1.890202 0.105356
v -0.017896 1.890192 0.105307
v -0.018374 1.890824 0.105236
v -0.018382 1.890841 0.105325
v -0.018715 1.890234 0.105254
v -0.018707 1.890217 0.105165
v -0.019170 1.890865 0.105278
v -0.092017 1.892284 0.074989
v -0.091654 1.892307 0.075222
v -0.018707 1.890217 0.105165
v -0.019151 1.890824 0.105045
v -0.021078 1.891870 0.105103
v -0.020757 1.891139 0.105082
v -0.020278 1.892009 0.105187
v -0.023092 1.892941 0.104820
v -0.023360 1.892046 0.104701
v -0.022495 1.893653 0.104894
v -0.091473 1.893338 0.075224
v -0.091718 1.893090 0.075075
v -0.089623 1.893027 0.076294
v -0.091654 1.892307 0.075222
v -0.089747 1.893086 0.076166
v -0.089623 1.893027 0.076294
v -0.021052 1.891792 0.104672
v -0.020733 1.891079 0.104750
v -0.023337 1.891957 0.104278
v -0.023069 1.892830 0.104301
v -0.020259 1.891948 0.104854
v -0.022481 1.893560 0.104470
v -0.025863 1.895705 0.103826
v -0.025397 1.896481 0.104089
v -0.022038 1.894043 0.104688
v -0.019723 1.892141 0.105046
v -0.026501 1.894568 0.103623
v -0.031169 1.896770 0.102549
v -0.030610 1.898031 0.102747
v -0.027020 1.893381 0.103555
v -0.031696 1.895554 0.102474
v -0.036629 1.897588 0.101102
v -0.036217 1.898800 0.101157
v -0.027346 1.892584 0.103651
v -0.032047 1.894805 0.102558
v -0.036914 1.896882 0.101184
v -0.041857 1.898432 0.099553
v -0.041646 1.899137 0.099464
v -0.036914 1.896882 0.101184
v -0.032047 1.894805 0.102558
v -0.032056 1.894907 0.102770
v -0.036926 1.897024 0.101375
v -0.041879 1.898622 0.099728
v -0.041857 1.898432 0.099553
v -0.046885 1.899713 0.097780
v -0.046853 1.899496 0.097639
v -0.036662 1.897932 0.101556
v -0.041704 1.899592 0.099874
v -0.046796 1.900678 0.097892
v -0.052046 1.901274 0.095697
v -0.052040 1.900350 0.095620
v -0.041430 1.900937 0.099962
v -0.046640 1.901998 0.097940
v -0.052018 1.902498 0.095717
v -0.057260 1.902631 0.093389
v -0.057220 1.901394 0.093387
v -0.046481 1.903218 0.097926
v -0.051971 1.903583 0.095684
v -0.057269 1.903699 0.093344
v -0.062523 1.903226 0.090915
v -0.062466 1.902137 0.090974
v -0.051920 1.904135 0.095607
v -0.057245 1.904211 0.093266
v -0.062516 1.903741 0.090829
v -0.067734 1.902699 0.088238
v -0.067722 1.902227 0.088335
v -0.057193 1.903943 0.093178
v -0.062444 1.903403 0.090742
v -0.067637 1.902328 0.088160
v -0.072696 1.900945 0.085439
v -0.072808 1.901287 0.085491
v -0.062340 1.902408 0.090697
v -0.067481 1.901342 0.088141
v -0.072508 1.900081 0.085459
v -0.077373 1.898485 0.082759
v -0.077546 1.899124 0.082714
v -0.067321 1.900146 0.088183
v -0.072314 1.899028 0.085538
v -0.077203 1.897696 0.082851
v -0.081922 1.896243 0.080269
v -0.082038 1.896854 0.080188
v -0.072173 1.898125 0.085648
v -0.077089 1.897034 0.082960
v -0.081847 1.895733 0.080368
v -0.086136 1.894375 0.078073
v -0.086170 1.894767 0.077995
v -0.077073 1.896766 0.083052
v -0.081839 1.895537 0.080454
v -0.086100 1.894250 0.078164
v -0.086100 1.894250 0.078164
v -0.081839 1.895537 0.080454
v -0.081918 1.895750 0.080481
v -0.086155 1.894420 0.078191
v -0.082045 1.896264 0.080440
v -0.086224 1.894821 0.078170
v -0.082186 1.896860 0.080343
v -0.086339 1.895257 0.078078
v -0.082276 1.897335 0.080233
v -0.086385 1.895617 0.077990
v -0.089783 1.894093 0.076171
v -0.086327 1.895778 0.077949
v -0.089613 1.894288 0.076198
v -0.086271 1.895629 0.077927
v -0.089623 1.894142 0.076152
v -0.086188 1.895261 0.077956
v -0.089568 1.893869 0.076170
v -0.091484 1.893022 0.075181
v -0.089729 1.893416 0.076118
v -0.082177 1.897335 0.080141
v -0.082267 1.897523 0.080157
v -0.077649 1.899376 0.082741
v -0.077635 1.899118 0.082834
v -0.072786 1.900910 0.085596
v -0.077511 1.898477 0.082954
v -0.072649 1.900031 0.085710
v -0.067615 1.901193 0.088418
v -0.072454 1.898984 0.085793
v -0.067457 1.900001 0.088467
v -0.062368 1.900886 0.090995
v -0.067295 1.899020 0.088456
v -0.062258 1.899878 0.090960
v -0.057162 1.900434 0.093333
v -0.062178 1.899529 0.090868
v -0.057105 1.900147 0.093237
v -0.051996 1.900108 0.095507
v -0.051996 1.900108 0.095507
v -0.057105 1.900147 0.093237
v -0.057079 1.900687 0.093151
v -0.051935 1.900676 0.095421
v -0.046716 1.900143 0.097549
v -0.046853 1.899496 0.097639
v -0.051886 1.901784 0.095395
v -0.046541 1.901358 0.097545
v -0.041357 1.900394 0.099489
v -0.046395 1.902689 0.097611
v -0.041094 1.901760 0.099602
v -0.035813 1.900097 0.101317
v -0.040942 1.902771 0.099767
v -0.035551 1.901043 0.101532
v -0.030220 1.898938 0.103005
v -0.035562 1.901192 0.101713
v -0.030226 1.899044 0.103214
v -0.025400 1.896548 0.104304
v -0.030630 1.898282 0.103242
v -0.025879 1.895864 0.104340
v -0.022042 1.894080 0.104856
v -0.019730 1.892165 0.105174
v -0.031199 1.897066 0.103141
v -0.026529 1.894757 0.104242
v -0.031721 1.895802 0.102978
v -0.027047 1.893539 0.104082
v -0.027358 1.892650 0.103873
v -0.023482 1.891407 0.104537
v -0.027346 1.892584 0.103651
v -0.023472 1.891372 0.104370
v -0.020583 1.890571 0.104859
v -0.020593 1.890594 0.104986
v -0.020583 1.890571 0.104859
v -0.023472 1.891372 0.104370
v -0.036258 1.899213 0.101689
v -0.035845 1.900448 0.101756
v -0.041155 1.902218 0.099986
v -0.040968 1.902965 0.099924
v -0.046367 1.903888 0.097851
v -0.046331 1.903672 0.097726
v -0.051878 1.903904 0.095507
v -0.051865 1.903003 0.095428
v -0.057135 1.903019 0.093119
v -0.057092 1.901787 0.093108
v -0.062239 1.901156 0.090707
v -0.062175 1.900056 0.090770
v -0.067207 1.899116 0.088269
v -0.062178 1.899529 0.090868
v -0.067191 1.898643 0.088375
v -0.072147 1.897734 0.085755
v -0.072147 1.897734 0.085755
v -0.067191 1.898643 0.088375
v -0.072262 1.898098 0.085813
v -0.077170 1.897033 0.083088
v -0.077073 1.896766 0.083052
v -0.077335 1.897694 0.083051
v 0.092582 1.892478 0.074668
v 0.092675 1.892188 0.074672
v 0.092024 1.892270 0.074985
v 0.091941 1.892572 0.074977
v 0.091910 1.892985 0.075041
v 0.091973 1.892717 0.075062
v 0.092675 1.892188 0.074672
v 0.091615 1.892668 0.075284
v 0.089795 1.893784 0.076226
v 0.089652 1.893491 0.076335
v 0.091908 1.892332 0.075117
v 0.089686 1.893145 0.076307
v 0.017901 1.890202 0.105356
v 0.018382 1.890841 0.105325
v 0.018374 1.890824 0.105236
v 0.017896 1.890192 0.105307
v 0.018707 1.890217 0.105165
v 0.018715 1.890234 0.105254
v 0.019170 1.890865 0.105278
v 0.091663 1.892288 0.075218
v 0.092024 1.892270 0.074985
v 0.019151 1.890824 0.105045
v 0.018707 1.890217 0.105165
v 0.021078 1.891870 0.105103
v 0.020278 1.892009 0.105187
v 0.020757 1.891139 0.105082
v 0.023359 1.892045 0.104701
v 0.023092 1.892941 0.104820
v 0.022495 1.893652 0.104894
v 0.091477 1.893330 0.075223
v 0.091721 1.893083 0.075073
v 0.089629 1.893009 0.076291
v 0.091663 1.892288 0.075218
v 0.089629 1.893009 0.076291
v 0.089751 1.893074 0.076164
v 0.021052 1.891792 0.104672
v 0.023069 1.892830 0.104301
v 0.023337 1.891956 0.104278
v 0.020733 1.891079 0.104750
v 0.020259 1.891948 0.104854
v 0.022481 1.893560 0.104470
v 0.022038 1.894043 0.104688
v 0.025397 1.896481 0.104089
v 0.025863 1.895705 0.103826
v 0.019723 1.892141 0.105046
v 0.026501 1.894567 0.103623
v 0.030610 1.898031 0.102747
v 0.031169 1.896770 0.102549
v 0.027020 1.893380 0.103555
v 0.031696 1.895553 0.102474
v 0.036217 1.898800 0.101157
v 0.036629 1.897588 0.101102
v 0.032047 1.894804 0.102558
v 0.027346 1.892583 0.103651
v 0.036914 1.896881 0.101184
v 0.041645 1.899137 0.099464
v 0.041857 1.898431 0.099553
v 0.036914 1.896881 0.101184
v 0.036926 1.897022 0.101375
v 0.032056 1.894906 0.102770
v 0.032047 1.894804 0.102558
v 0.041857 1.898431 0.099553
v 0.041879 1.898620 0.099728
v 0.046853 1.899496 0.097639
v 0.046885 1.899713 0.097780
v 0.041705 1.899590 0.099874
v 0.036663 1.897930 0.101556
v 0.046797 1.900678 0.097892
v 0.052040 1.900352 0.095620
v 0.052046 1.901276 0.095697
v 0.046640 1.901998 0.097940
v 0.041431 1.900934 0.099962
v 0.052018 1.902499 0.095717
v 0.057220 1.901396 0.093387
v 0.057259 1.902632 0.093389
v 0.051971 1.903584 0.095684
v 0.046481 1.903218 0.097926
v 0.057269 1.903699 0.093344
v 0.062465 1.902139 0.090974
v 0.062522 1.903227 0.090915
v 0.057245 1.904210 0.093266
v 0.051919 1.904135 0.095607
v 0.062516 1.903741 0.090829
v 0.067722 1.902227 0.088335
v 0.067733 1.902699 0.088238
v 0.062444 1.903403 0.090742
v 0.057192 1.903941 0.093178
v 0.067636 1.902329 0.088160
v 0.072808 1.901287 0.085491
v 0.072696 1.900945 0.085439
v 0.067480 1.901344 0.088141
v 0.062340 1.902408 0.090697
v 0.072508 1.900082 0.085459
v 0.077546 1.899124 0.082714
v 0.077373 1.898486 0.082759
v 0.072314 1.899032 0.085538
v 0.067321 1.900149 0.088183
v 0.077203 1.897698 0.082851
v 0.082038 1.896853 0.080188
v 0.081922 1.896242 0.080269
v 0.077089 1.897035 0.082959
v 0.072173 1.898129 0.085648
v 0.081848 1.895730 0.080367
v 0.086171 1.894763 0.077994
v 0.086137 1.894367 0.078073
v 0.081840 1.895530 0.080453
v 0.077074 1.896766 0.083052
v 0.086103 1.894238 0.078163
v 0.086103 1.894238 0.078163
v 0.086159 1.894404 0.078190
v 0.081921 1.895740 0.080480
v 0.081840 1.895530 0.080453
v 0.086229 1.894804 0.078168
v 0.082047 1.896254 0.080440
v 0.086344 1.895243 0.078076
v 0.082189 1.896849 0.080343
v 0.086388 1.895607 0.077989
v 0.082278 1.897328 0.080232
v 0.089788 1.894081 0.076169
v 0.089616 1.894281 0.076196
v 0.086329 1.895772 0.077948
v 0.089625 1.894137 0.076151
v 0.086272 1.895625 0.077927
v 0.089570 1.893865 0.076169
v 0.086188 1.895258 0.077956
v 0.091487 1.893016 0.075180
v 0.089731 1.893410 0.076117
v 0.082177 1.897333 0.080141
v 0.082268 1.897519 0.080157
v 0.077649 1.899374 0.082741
v 0.077635 1.899115 0.082834
v 0.072785 1.900909 0.085596
v 0.072649 1.900031 0.085710
v 0.077512 1.898474 0.082954
v 0.067615 1.901194 0.088418
v 0.067457 1.900003 0.088467
v 0.072454 1.898985 0.085793
v 0.062368 1.900889 0.090994
v 0.062258 1.899881 0.090960
v 0.067294 1.899024 0.088456
v 0.057162 1.900436 0.093333
v 0.057105 1.900149 0.093237
v 0.062178 1.899533 0.090868
v 0.051996 1.900109 0.095507
v 0.051996 1.900109 0.095507
v 0.051935 1.900676 0.095421
v 0.057078 1.900688 0.093151
v 0.057105 1.900149 0.093237
v 0.046853 1.899496 0.097639
v 0.046716 1.900143 0.097549
v 0.046540 1.901358 0.097545
v 0.051886 1.901782 0.095395
v 0.041357 1.900395 0.099489
v 0.041093 1.901759 0.099602
v 0.046395 1.902687 0.097611
v 0.035813 1.900097 0.101317
v 0.035551 1.901042 0.101532
v 0.040942 1.902770 0.099767
v 0.030220 1.898938 0.103005
v 0.030226 1.899044 0.103214
v 0.035562 1.901191 0.101713
v 0.025400 1.896548 0.104304
v 0.025879 1.895864 0.104340
v 0.030630 1.898281 0.103242
v 0.022042 1.894080 0.104856
v 0.019729 1.892165 0.105174
v 0.026529 1.894756 0.104242
v 0.031199 1.897065 0.103141
v 0.027047 1.893538 0.104082
v 0.031721 1.895800 0.102978
v 0.027358 1.892650 0.103873
v 0.023482 1.891407 0.104537
v 0.023472 1.891371 0.104370
v 0.027346 1.892583 0.103651
v 0.020593 1.890594 0.104986
v 0.020583 1.890571 0.104859
v 0.020583 1.890571 0.104859
v 0.023472 1.891371 0.104370
v 0.036259 1.899211 0.101689
v 0.035845 1.900447 0.101756
v 0.041157 1.902216 0.099986
v 0.040968 1.902963 0.099924
v 0.046367 1.903887 0.097851
v 0.046330 1.903670 0.097726
v 0.051878 1.903903 0.095507
v 0.051865 1.903001 0.095428
v 0.057135 1.903018 0.093119
v 0.057091 1.901788 0.093108
v 0.062239 1.901158 0.090707
v 0.062174 1.900060 0.090770
v 0.067207 1.899120 0.088269
v 0.067190 1.898648 0.088375
v 0.062178 1.899533 0.090868
v 0.072147 1.897738 0.085755
v 0.072147 1.897738 0.085755
v 0.072262 1.898101 0.085813
v 0.067190 1.898648 0.088375
v 0.077074 1.896766 0.083052
v 0.077170 1.897032 0.083088
v 0.077335 1.897690 0.083051
vn 0.2821 0.1254 -0.9512
vn 0.4809 -0.1209 -0.8684
vn 0.4965 -0.2298 -0.8371
vn -0.5631 -0.0744 0.8230
vn -0.5631 -0.0745 0.8230
vn -0.5316 0.1473 0.8341
vn -0.5674 0.2560 0.7826
vn -0.4914 0.0428 0.8699
vn -0.4811 0.0304 0.8761
vn -0.5107 0.1229 0.8509
vn -0.4538 -0.0956 0.8859
vn -0.4403 -0.1012 0.8921
vn -0.0687 -0.0787 0.9945
vn 0.2303 -0.0128 -0.9730
vn 0.3321 0.1873 -0.9245
vn 0.0601 0.1477 0.9872
vn -0.1714 -0.2868 0.9425
vn 0.1253 -0.2477 -0.9607
vn -0.1090 -0.0582 0.9923
vn 0.4965 -0.2298 -0.8370
vn 0.0561 -0.9085 0.4141
vn 0.1253 -0.2476 -0.9607
vn 0.2024 0.0052 -0.9793
vn -0.1422 -0.0409 0.9890
vn -0.1779 -0.1566 0.9715
vn -0.0652 0.0596 0.9961
vn -0.1696 -0.0267 0.9851
vn -0.2031 -0.1278 0.9708
vn -0.1047 0.0657 0.9923
vn -0.4218 0.8922 -0.1613
vn 0.3957 0.1103 -0.9117
vn 0.0683 -0.8869 0.4568
vn 0.5152 -0.2323 -0.8250
vn 0.1960 0.0102 -0.9805
vn 0.1557 -0.0911 -0.9836
vn 0.1543 -0.0893 -0.9840
vn 0.1954 0.0134 -0.9806
vn 0.2459 0.0966 -0.9645
vn 0.2442 0.1003 -0.9645
vn 0.2530 0.0887 -0.9634
vn 0.3619 0.3017 -0.8821
vn 0.3870 0.3149 -0.8667
vn 0.3977 0.3053 -0.8653
vn 0.2145 0.0069 -0.9767
vn 0.2457 -0.0009 -0.9694
vn 0.2769 0.0803 -0.9575
vn 0.1739 -0.0878 -0.9808
vn 0.2063 -0.0966 -0.9737
vn 0.2528 -0.1057 -0.9617
vn 0.2843 -0.0102 -0.9587
vn 0.0284 -0.4102 -0.9115
vn 0.0376 -0.4332 -0.9005
vn 0.0932 -0.4735 -0.8759
vn 0.1676 -0.5082 -0.8447
vn 0.3056 -0.1088 -0.9459
vn 0.0932 -0.4734 -0.8759
vn -0.3541 -0.2621 0.8977
vn -0.3664 -0.2308 0.9014
vn -0.3800 -0.1998 0.9032
vn 0.1676 -0.5083 -0.8447
vn -0.3944 -0.1743 0.9023
vn 0.2372 -0.5301 -0.8141
vn -0.3108 -0.0413 0.9496
vn -0.3465 -0.0277 0.9376
vn -0.3778 -0.0244 0.9255
vn -0.3986 -0.0371 0.9164
vn -0.4014 -0.1636 0.9012
vn -0.3325 0.0293 0.9426
vn -0.3678 0.0330 0.9293
vn -0.3930 0.0180 0.9194
vn -0.4136 0.0084 0.9104
vn -0.4129 -0.0413 0.9098
vn -0.3575 0.0956 0.9290
vn -0.3862 0.0850 0.9185
vn -0.4128 0.0747 0.9077
vn -0.4388 0.0670 0.8961
vn -0.4330 0.0022 0.9014
vn -0.3170 0.5264 0.7889
vn -0.3472 0.5999 0.7208
vn -0.3793 0.7265 0.5730
vn -0.3737 0.8705 0.3204
vn -0.4711 0.0683 0.8794
vn 0.4007 0.1485 -0.9041
vn 0.4104 0.1439 -0.9005
vn 0.4273 0.1437 -0.8926
vn 0.4437 0.1337 -0.8861
vn -0.3300 0.9437 0.0247
vn 0.4260 0.0528 -0.9032
vn 0.4472 0.0552 -0.8927
vn 0.4667 0.0473 -0.8831
vn 0.4759 0.0305 -0.8790
vn 0.4487 0.1211 -0.8854
vn 0.4558 0.0044 -0.8901
vn 0.4755 -0.0034 -0.8797
vn 0.4863 -0.0251 -0.8734
vn 0.4896 -0.0563 -0.8701
vn 0.4762 0.0080 -0.8793
vn 0.4852 -0.0831 -0.8704
vn 0.4979 -0.1166 -0.8594
vn 0.5054 -0.1622 -0.8475
vn 0.5122 -0.2043 -0.8342
vn 0.4917 -0.0856 -0.8665
vn 0.1666 -0.9808 0.1017
vn 0.1421 -0.9621 0.2328
vn 0.1021 -0.9247 0.3668
vn 0.1022 -0.9247 0.3668
vn 0.1420 -0.9621 0.2328
vn -0.4503 -0.1117 0.8859
vn -0.4434 -0.1047 0.8902
vn -0.4795 -0.0072 0.8775
vn -0.4788 0.0134 0.8778
vn -0.4993 0.0600 0.8644
vn -0.5024 0.0919 0.8598
vn -0.5282 0.1689 0.8321
vn -0.5348 0.2143 0.8174
vn -0.5451 0.2471 0.8012
vn -0.2553 0.9248 -0.2821
vn -0.3100 0.9203 -0.2388
vn 0.4344 0.1046 -0.8946
vn 0.4227 0.1046 -0.9002
vn 0.4748 -0.0131 -0.8800
vn 0.4729 -0.0273 -0.8807
vn 0.4633 -0.0335 -0.8856
vn 0.4926 -0.1085 -0.8635
vn 0.4435 0.1109 -0.8894
vn -0.2430 0.9342 -0.2612
vn -0.2849 0.9449 -0.1616
vn -0.5222 0.1196 0.8444
vn -0.5038 0.0856 0.8596
vn -0.4971 0.0272 0.8673
vn -0.4847 0.0062 0.8747
vn -0.4589 -0.0020 0.8885
vn -0.4717 -0.0473 0.8805
vn -0.4501 -0.0510 0.8915
vn -0.4278 -0.0448 0.9028
vn -0.4321 -0.1453 0.8901
vn -0.4132 -0.1420 0.8995
vn -0.4049 -0.1458 0.9027
vn 0.3736 -0.7528 -0.5420
vn 0.3535 -0.6225 -0.6982
vn 0.2952 -0.5642 -0.7711
vn 0.2952 -0.5641 -0.7711
vn 0.3536 -0.6225 -0.6982
vn 0.4162 -0.0752 -0.9062
vn 0.3854 -0.0868 -0.9187
vn 0.3499 -0.1058 -0.9308
vn 0.2372 -0.5300 -0.8141
vn 0.3874 -0.0092 -0.9219
vn 0.3597 -0.0229 -0.9328
vn 0.3261 -0.0190 -0.9451
vn 0.3650 0.0396 -0.9302
vn 0.3411 0.0501 -0.9387
vn 0.3085 0.0671 -0.9489
vn 0.3698 0.2038 -0.9065
vn 0.3592 0.2437 -0.9009
vn 0.3505 0.2789 -0.8941
vn -0.1291 0.4056 0.9049
vn -0.0649 0.3739 0.9252
vn 0.0291 0.3568 0.9337
vn -0.2190 0.0723 0.9730
vn -0.1612 0.0679 0.9846
vn 0.1238 0.3450 0.9304
vn 0.1611 0.3175 0.9345
vn -0.2507 0.0072 0.9680
vn -0.2055 -0.0056 0.9786
vn -0.2771 -0.0550 0.9593
vn -0.2346 -0.0776 0.9690
vn -0.3110 -0.3080 0.8991
vn -0.2636 -0.3895 0.8825
vn 0.0319 -0.4335 -0.9006
vn 0.0475 -0.4262 -0.9034
vn -0.2345 -0.4156 0.8788
vn -0.2904 0.0182 0.9567
vn -0.2664 0.0819 0.9604
vn -0.3166 0.0899 0.9443
vn -0.2072 0.4291 0.8792
vn -0.2813 0.4649 0.8395
vn 0.3730 0.1737 -0.9114
vn 0.3845 0.1619 -0.9088
vn 0.3867 0.0471 -0.9210
vn 0.4088 0.0488 -0.9113
vn 0.4126 -0.0025 -0.9109
vn 0.4335 0.0022 -0.9011
vn 0.4420 -0.0714 -0.8942
vn 0.4658 -0.0722 -0.8820
vn 0.3202 -0.8952 -0.3100
vn 0.2108 -0.9764 -0.0471
vn 0.2109 -0.9764 -0.0470
vn 0.3202 -0.8952 -0.3101
vn -0.4515 -0.1379 0.8816
vn -0.4556 -0.1274 0.8810
vn 0.1666 -0.9808 0.1016
vn -0.4802 -0.0321 0.8766
vn -0.2812 0.1260 -0.9513
vn 0.5649 -0.0758 0.8217
vn -0.4960 -0.2246 -0.8388
vn -0.4806 -0.1194 -0.8688
vn 0.5663 0.2523 0.7846
vn 0.5311 0.1460 0.8346
vn 0.5649 -0.0757 0.8217
vn 0.4913 0.0425 0.8700
vn 0.5105 0.1219 0.8512
vn 0.4810 0.0301 0.8762
vn 0.4535 -0.0972 0.8859
vn 0.4399 -0.1024 0.8922
vn 0.0687 -0.0785 0.9945
vn -0.0601 0.1478 0.9872
vn -0.3321 0.1873 -0.9245
vn -0.2302 -0.0128 -0.9730
vn -0.1253 -0.2477 -0.9607
vn 0.1714 -0.2868 0.9425
vn 0.1090 -0.0582 0.9923
vn -0.0946 -0.9306 0.3535
vn -0.2024 0.0052 -0.9793
vn 0.1422 -0.0409 0.9890
vn 0.0653 0.0596 0.9961
vn 0.1779 -0.1566 0.9715
vn 0.2031 -0.1279 0.9708
vn 0.1697 -0.0267 0.9851
vn 0.1047 0.0658 0.9923
vn 0.4429 0.8889 -0.1172
vn -0.3951 0.1113 -0.9119
vn -0.1034 -0.9080 0.4059
vn -0.5147 -0.2279 -0.8265
vn -0.1960 0.0102 -0.9805
vn -0.1954 0.0133 -0.9806
vn -0.1543 -0.0893 -0.9840
vn -0.1557 -0.0911 -0.9836
vn -0.2459 0.0966 -0.9645
vn -0.2442 0.1003 -0.9645
vn -0.3869 0.3149 -0.8667
vn -0.3619 0.3017 -0.8821
vn -0.2531 0.0887 -0.9634
vn -0.3976 0.3052 -0.8653
vn -0.2145 0.0069 -0.9767
vn -0.2769 0.0804 -0.9575
vn -0.2457 -0.0009 -0.9694
vn -0.1739 -0.0878 -0.9808
vn -0.2063 -0.0966 -0.9737
vn -0.2843 -0.0103 -0.9587
vn -0.2528 -0.1057 -0.9617
vn -0.0378 -0.4328 -0.9007
vn -0.0285 -0.4101 -0.9116
vn -0.0935 -0.4729 -0.8761
vn -0.3055 -0.1089 -0.9459
vn -0.1680 -0.5073 -0.8452
vn -0.0935 -0.4730 -0.8761
vn 0.3665 -0.2311 0.9013
vn 0.3542 -0.2622 0.8977
vn -0.1681 -0.5073 -0.8452
vn 0.3801 -0.2003 0.9030
vn -0.2370 -0.5305 -0.8139
vn 0.3945 -0.1744 0.9022
vn 0.3466 -0.0279 0.9376
vn 0.3108 -0.0413 0.9496
vn 0.3779 -0.0245 0.9255
vn 0.4014 -0.1635 0.9012
vn 0.3986 -0.0372 0.9164
vn 0.3678 0.0331 0.9293
vn 0.3325 0.0293 0.9427
vn 0.3930 0.0180 0.9194
vn 0.4129 -0.0413 0.9098
vn 0.4136 0.0084 0.9104
vn 0.3863 0.0852 0.9184
vn 0.3575 0.0958 0.9290
vn 0.4128 0.0748 0.9077
vn 0.4330 0.0021 0.9014
vn 0.4388 0.0670 0.8961
vn 0.3464 0.6029 0.7187
vn 0.3162 0.5289 0.7875
vn 0.3785 0.7288 0.5706
vn 0.4712 0.0684 0.8794
vn 0.3740 0.8700 0.3212
vn -0.4104 0.1441 -0.9005
vn -0.4007 0.1485 -0.9041
vn -0.4273 0.1439 -0.8926
vn 0.3316 0.9430 0.0277
vn -0.4436 0.1339 -0.8862
vn -0.4471 0.0554 -0.8928
vn -0.4260 0.0528 -0.9032
vn -0.4667 0.0473 -0.8831
vn -0.4486 0.1214 -0.8855
vn -0.4759 0.0306 -0.8790
vn -0.4755 -0.0033 -0.8797
vn -0.4558 0.0044 -0.8901
vn -0.4863 -0.0251 -0.8734
vn -0.4762 0.0080 -0.8793
vn -0.4896 -0.0563 -0.8701
vn -0.4979 -0.1165 -0.8594
vn -0.4853 -0.0831 -0.8704
vn -0.5054 -0.1614 -0.8477
vn -0.4917 -0.0853 -0.8666
vn -0.5120 -0.2020 -0.8349
vn -0.1645 -0.9667 0.1961
vn -0.1768 -0.9806 0.0850
vn -0.1327 -0.9381 0.3199
vn 0.4430 -0.1059 0.8903
vn 0.4499 -0.1124 0.8860
vn 0.4787 0.0133 0.8779
vn 0.4794 -0.0072 0.8775
vn 0.5023 0.0916 0.8598
vn 0.4993 0.0600 0.8644
vn 0.5345 0.2126 0.8180
vn 0.5281 0.1682 0.8323
vn 0.5444 0.2441 0.8025
vn 0.3368 0.9222 -0.1898
vn 0.2785 0.9292 -0.2430
vn -0.4221 0.1060 -0.9003
vn -0.4340 0.1054 -0.8947
vn -0.4729 -0.0272 -0.8807
vn -0.4747 -0.0129 -0.8800
vn -0.4632 -0.0330 -0.8857
vn -0.4925 -0.1076 -0.8637
vn -0.4432 0.1115 -0.8894
vn 0.2612 0.9371 -0.2314
vn 0.2921 0.9447 -0.1493
vn 0.5222 0.1194 0.8444
vn 0.5038 0.0856 0.8595
vn 0.4847 0.0061 0.8747
vn 0.4971 0.0272 0.8673
vn 0.4589 -0.0020 0.8885
vn 0.4501 -0.0511 0.8915
vn 0.4717 -0.0474 0.8805
vn 0.4278 -0.0449 0.9028
vn 0.4132 -0.1421 0.8995
vn 0.4320 -0.1456 0.8900
vn 0.4049 -0.1459 0.9026
vn -0.3533 -0.6229 -0.6980
vn -0.3734 -0.7529 -0.5420
vn -0.2943 -0.5667 -0.7695
vn -0.2943 -0.5667 -0.7696
vn -0.3854 -0.0869 -0.9187
vn -0.4162 -0.0752 -0.9062
vn -0.3533 -0.6228 -0.6980
vn -0.2370 -0.5306 -0.8139
vn -0.3499 -0.1059 -0.9308
vn -0.3596 -0.0229 -0.9328
vn -0.3873 -0.0091 -0.9219
vn -0.3261 -0.0190 -0.9452
vn -0.3411 0.0503 -0.9387
vn -0.3650 0.0397 -0.9302
vn -0.3085 0.0671 -0.9488
vn -0.3593 0.2438 -0.9008
vn -0.3698 0.2041 -0.9064
vn -0.3505 0.2790 -0.8940
vn 0.0650 0.3738 0.9252
vn 0.1292 0.4054 0.9050
vn -0.0290 0.3569 0.9337
vn 0.1613 0.0679 0.9846
vn 0.2191 0.0722 0.9730
vn -0.1238 0.3448 0.9305
vn -0.1612 0.3175 0.9345
vn 0.2055 -0.0056 0.9786
vn 0.2508 0.0072 0.9680
vn 0.2346 -0.0776 0.9690
vn 0.2771 -0.0550 0.9593
vn 0.3110 -0.3082 0.8991
vn 0.2636 -0.3896 0.8825
vn -0.0319 -0.4335 -0.9006
vn 0.2345 -0.4157 0.8787
vn -0.0475 -0.4263 -0.9034
vn -0.0475 -0.4262 -0.9034
vn 0.2904 0.0181 0.9567
vn 0.2664 0.0819 0.9604
vn 0.3166 0.0900 0.9443
vn 0.2075 0.4285 0.8794
vn 0.2809 0.4661 0.8389
vn -0.3730 0.1736 -0.9114
vn -0.3846 0.1618 -0.9088
vn -0.3867 0.0471 -0.9210
vn -0.4089 0.0488 -0.9113
vn -0.4127 -0.0028 -0.9109
vn -0.4335 0.0023 -0.9012
vn -0.4420 -0.0714 -0.8942
vn -0.4658 -0.0723 -0.8820
vn -0.3216 -0.8936 -0.3132
vn -0.3734 -0.7528 -0.5420
vn -0.2136 -0.9756 -0.0516
vn 0.4513 -0.1383 0.8816
vn -0.3216 -0.8936 -0.3133
vn 0.4553 -0.1280 0.8811
vn 0.4801 -0.0321 0.8767
vt 0.014394 0.992028
vt 0.018097 0.973661
vt 0.010360 0.973334
vt 0.010120 0.984465
vt 0.024657 0.994519
vt 0.036537 0.982788
vt 0.032762 0.978426
vt 0.053486 0.982648
vt 0.077072 0.971393
vt 0.069266 0.961565
vt 0.038117 0.993348
vt 0.081340 0.984190
vt 0.669781 0.252366
vt 0.674217 0.249405
vt 0.661058 0.255223
vt 0.664887 0.260725
vt 0.684873 0.265071
vt 0.689662 0.259614
vt 0.675771 0.271678
vt 0.035673 0.996366
vt 0.059815 0.998047
vt 0.658198 0.235085
vt 0.652576 0.246061
vt 0.665515 0.305137
vt 0.682193 0.292977
vt 0.661712 0.286873
vt 0.652451 0.331361
vt 0.670082 0.339010
vt 0.637994 0.319890
vt 0.040443 0.963891
vt 0.028495 0.974334
vt 0.085923 0.994178
vt 0.007411 0.950765
vt 0.013220 0.927368
vt 0.005260 0.924858
vt 0.617345 0.262759
vt 0.630367 0.243565
vt 0.582711 0.262001
vt 0.593472 0.278777
vt 0.639404 0.263905
vt 0.606065 0.292188
vt 0.565718 0.334028
vt 0.581153 0.347157
vt 0.619137 0.304473
vt 0.649977 0.270976
vt 0.549926 0.319832
vt 0.510320 0.366856
vt 0.525673 0.380184
vt 0.535356 0.304991
vt 0.494293 0.353323
vt 0.456692 0.402346
vt 0.471450 0.414507
vt 0.521013 0.290164
vt 0.478770 0.340278
vt 0.441093 0.390402
vt 0.404941 0.439466
vt 0.418840 0.450554
vt 0.567320 0.501379
vt 0.612993 0.456950
vt 0.606658 0.451296
vt 0.560829 0.494923
vt 0.515667 0.537065
vt 0.522507 0.543881
vt 0.472040 0.580419
vt 0.479721 0.587433
vt 0.547186 0.481348
vt 0.502891 0.524863
vt 0.459707 0.569538
vt 0.418302 0.615941
vt 0.431216 0.626503
vt 0.489821 0.513166
vt 0.447158 0.558708
vt 0.405646 0.605247
vt 0.365198 0.652378
vt 0.378469 0.663633
vt 0.434508 0.547983
vt 0.393074 0.594235
vt 0.352224 0.640764
vt 0.311479 0.687379
vt 0.325116 0.699531
vt 0.380459 0.583116
vt 0.339090 0.629102
vt 0.297851 0.675143
vt 0.256448 0.721258
vt 0.270340 0.733712
vt 0.329746 0.620617
vt 0.286705 0.665133
vt 0.243883 0.710025
vt 0.201850 0.755593
vt 0.214993 0.767264
vt 0.273075 0.652920
vt 0.229761 0.697380
vt 0.186892 0.742444
vt 0.144753 0.787751
vt 0.160171 0.801016
vt 0.215845 0.684469
vt 0.172293 0.729374
vt 0.129263 0.774778
vt 0.089367 0.822986
vt 0.104908 0.834317
vt 0.157646 0.715840
vt 0.113664 0.762142
vt 0.073056 0.812505
vt 0.038032 0.867339
vt 0.053476 0.873935
vt 0.099918 0.751134
vt 0.059489 0.804072
vt 0.025724 0.862115
vt 0.144385 0.965472
vt 0.197044 0.925391
vt 0.185521 0.911194
vt 0.135949 0.951587
vt 0.173059 0.896473
vt 0.126951 0.937285
vt 0.159872 0.882671
vt 0.116104 0.924088
vt 0.145788 0.869601
vt 0.104039 0.912374
vt 0.061253 0.951939
vt 0.093943 0.902964
vt 0.056607 0.945861
vt 0.081376 0.892686
vt 0.047900 0.939334
vt 0.068080 0.882433
vt 0.037019 0.932544
vt 0.028036 0.958145
vt 0.025858 0.928625
vt 0.119649 0.846482
vt 0.133434 0.858572
vt 0.173852 0.813034
vt 0.187015 0.824933
vt 0.228660 0.779588
vt 0.202115 0.838753
vt 0.243291 0.792849
vt 0.284625 0.746483
vt 0.258024 0.805952
vt 0.298909 0.758814
vt 0.339087 0.711460
vt 0.313600 0.771037
vt 0.353238 0.722959
vt 0.392158 0.674480
vt 0.364422 0.731858
vt 0.402565 0.682613
vt 0.440137 0.633838
vt 0.324448 0.529863
vt 0.279648 0.572097
vt 0.291759 0.584637
vt 0.336346 0.541692
vt 0.378978 0.497200
vt 0.366489 0.486041
vt 0.348271 0.553298
vt 0.391159 0.508407
vt 0.431999 0.461884
vt 0.403220 0.519658
vt 0.445040 0.473708
vt 0.485427 0.426905
vt 0.457596 0.485552
vt 0.499398 0.439579
vt 0.540659 0.393169
vt 0.504748 0.444464
vt 0.546042 0.397945
vt 0.586869 0.352144
vt 0.560619 0.410603
vt 0.601630 0.365278
vt 0.624164 0.308926
vt 0.653432 0.274738
vt 0.575927 0.423905
vt 0.617356 0.378448
vt 0.591430 0.437646
vt 0.633955 0.390828
vt 0.650761 0.402490
vt 0.687391 0.345267
vt 0.657195 0.407016
vt 0.693990 0.347453
vt 0.702246 0.286525
vt 0.697090 0.287918
vt 0.631344 0.227087
vt 0.573827 0.245611
vt 0.533235 0.468774
vt 0.518820 0.456384
vt 0.476569 0.502064
vt 0.463317 0.490932
vt 0.421824 0.537220
vt 0.415286 0.531075
vt 0.372691 0.575976
vt 0.360330 0.564711
vt 0.316717 0.608926
vt 0.304042 0.596969
vt 0.259663 0.640331
vt 0.246665 0.627542
vt 0.201940 0.671095
vt 0.234335 0.615037
vt 0.189407 0.658811
vt 0.144406 0.703555
vt 0.286514 0.830376
vt 0.325720 0.780899
vt 0.273125 0.818959
vt 0.231483 0.866728
vt 0.244679 0.879781
vt 0.216836 0.852592
vt 0.998047 0.124958
vt 0.995269 0.116726
vt 0.986821 0.109474
vt 0.981899 0.115454
vt 0.975657 0.129553
vt 0.976385 0.135276
vt 0.993051 0.134262
vt 0.964965 0.147802
vt 0.938734 0.145477
vt 0.940840 0.157849
vt 0.983193 0.143502
vt 0.947519 0.169569
vt 0.009829 0.119159
vt 0.019320 0.121095
vt 0.017780 0.114571
vt 0.004663 0.120485
vt 0.001953 0.138800
vt 0.009213 0.138877
vt 0.020209 0.136511
vt 0.972206 0.162794
vt 0.987071 0.143697
vt 0.016621 0.102140
vt 0.004695 0.098999
vt 0.051967 0.151211
vt 0.040908 0.136187
vt 0.031779 0.155511
vt 0.074139 0.177224
vt 0.080214 0.158991
vt 0.081324 0.140569
vt 0.959708 0.125569
vt 0.975460 0.123645
vt 0.951896 0.179650
vt 0.971985 0.092211
vt 0.954132 0.073316
vt 0.950687 0.080918
vt 0.052572 0.087056
vt 0.080434 0.079974
vt 0.075127 0.060763
vt 0.029588 0.083939
vt 0.038699 0.104245
vt 0.082014 0.098303
vt 0.082434 0.116237
vt 0.139571 0.116450
vt 0.140099 0.096193
vt 0.036905 0.116837
vt 0.140071 0.074959
vt 0.201197 0.097190
vt 0.201522 0.076861
vt 0.138747 0.054204
vt 0.202146 0.055895
vt 0.262950 0.079730
vt 0.263747 0.060625
vt 0.202796 0.035629
vt 0.137284 0.033627
vt 0.265268 0.041037
vt 0.324910 0.064625
vt 0.325933 0.046874
vt 0.263631 0.209104
vt 0.263157 0.199961
vt 0.200082 0.204959
vt 0.200062 0.213450
vt 0.325190 0.204111
vt 0.324682 0.194468
vt 0.386179 0.201330
vt 0.386085 0.190929
vt 0.324126 0.176810
vt 0.262157 0.180740
vt 0.386216 0.174483
vt 0.447647 0.191293
vt 0.448409 0.174628
vt 0.386530 0.157910
vt 0.324142 0.159271
vt 0.448895 0.158066
vt 0.510507 0.176807
vt 0.510987 0.159413
vt 0.449088 0.141355
vt 0.386990 0.141330
vt 0.511001 0.142000
vt 0.572852 0.161047
vt 0.572908 0.142781
vt 0.511086 0.124436
vt 0.449231 0.124540
vt 0.572896 0.124466
vt 0.634868 0.143081
vt 0.634869 0.124423
vt 0.572883 0.109485
vt 0.511006 0.111814
vt 0.634893 0.107569
vt 0.696796 0.124269
vt 0.696880 0.106692
vt 0.634905 0.088613
vt 0.572888 0.091183
vt 0.697074 0.086778
vt 0.758521 0.105981
vt 0.758935 0.085647
vt 0.697088 0.067183
vt 0.634582 0.069634
vt 0.759616 0.065454
vt 0.820201 0.087068
vt 0.822139 0.067932
vt 0.760621 0.045404
vt 0.696789 0.047242
vt 0.825224 0.048791
vt 0.884031 0.075222
vt 0.889429 0.059319
vt 0.828001 0.033060
vt 0.761601 0.027821
vt 0.893756 0.046668
vt 0.891496 0.204017
vt 0.886789 0.188467
vt 0.823621 0.198414
vt 0.826501 0.216472
vt 0.882148 0.172220
vt 0.820976 0.179308
vt 0.879563 0.155333
vt 0.819506 0.160273
vt 0.878896 0.138530
vt 0.819180 0.141061
vt 0.936916 0.133084
vt 0.935493 0.125567
vt 0.878629 0.124731
vt 0.936444 0.114727
vt 0.879366 0.108512
vt 0.938653 0.102093
vt 0.880608 0.091768
vt 0.963712 0.112495
vt 0.943186 0.091167
vt 0.819418 0.106164
vt 0.819216 0.124500
vt 0.758337 0.124189
vt 0.758410 0.141932
vt 0.696850 0.142672
vt 0.696957 0.162418
vt 0.758621 0.162398
vt 0.634841 0.162242
vt 0.634487 0.181109
vt 0.696878 0.182135
vt 0.572408 0.179412
vt 0.571523 0.197625
vt 0.633781 0.200207
vt 0.509446 0.194241
vt 0.508554 0.207418
vt 0.570683 0.211893
vt 0.447153 0.202832
vt 0.446969 0.047287
vt 0.447837 0.064042
vt 0.509574 0.059511
vt 0.508323 0.042123
vt 0.386280 0.049337
vt 0.386253 0.066084
vt 0.386463 0.082635
vt 0.448516 0.080670
vt 0.324562 0.081985
vt 0.324659 0.099588
vt 0.386788 0.099126
vt 0.262850 0.098414
vt 0.262960 0.117276
vt 0.325095 0.116843
vt 0.200861 0.117016
vt 0.200824 0.124212
vt 0.263026 0.124521
vt 0.139468 0.124036
vt 0.139394 0.143793
vt 0.200517 0.143515
vt 0.082393 0.122952
vt 0.037400 0.121921
vt 0.138701 0.164294
vt 0.200202 0.163793
vt 0.136838 0.184918
vt 0.200083 0.184509
vt 0.134302 0.205216
vt 0.067242 0.194288
vt 0.064464 0.200661
vt 0.133376 0.213027
vt 0.018068 0.163225
vt 0.013588 0.166134
vt 0.016666 0.073665
vt 0.068855 0.043207
vt 0.262109 0.161960
vt 0.262507 0.142956
vt 0.324723 0.141992
vt 0.325282 0.124694
vt 0.387443 0.124702
vt 0.387233 0.115731
vt 0.449100 0.113991
vt 0.448963 0.097267
vt 0.510998 0.094308
vt 0.510557 0.076889
vt 0.572468 0.072793
vt 0.571623 0.054578
vt 0.633906 0.050352
vt 0.633127 0.032821
vt 0.570543 0.037050
vt 0.696480 0.029184
vt 0.696046 0.219655
vt 0.696483 0.202063
vt 0.633033 0.215815
vt 0.760765 0.221500
vt 0.759857 0.202962
vt 0.759102 0.182592
s 1
usemtl Eyebrow
f 1/1/1 2/2/2 3/3/3
f 1/1/1 3/3/3 4/4/4
f 1/1/1 5/5/5 6/6/6
f 1/1/1 6/6/6 7/7/7
f 8/8/8 9/9/9 10/10/10
f 8/8/8 10/10/10 6/6/6
f 8/8/8 6/6/6 5/5/5
f 8/8/8 5/5/5 11/11/11
f 8/8/8 11/11/11 12/12/12
f 8/8/8 12/12/12 9/9/9
f 13/13/13 14/14/14 15/15/15
f 13/13/13 15/15/15 16/16/16
f 13/13/13 17/17/17 18/18/18
f 13/13/13 18/18/18 14/14/14
f 13/13/13 16/16/16 19/19/19
f 13/13/13 19/19/19 17/17/17
f 5/5/5 20/20/20 21/21/21
f 5/5/5 21/21/21 11/11/11
f 14/14/14 22/22/22 23/23/23
f 14/14/14 23/23/23 15/15/15
f 24/24/24 25/25/25 19/19/19
f 24/24/24 19/19/19 26/26/26
f 24/24/24 27/27/27 28/28/28
f 24/24/24 28/28/28 25/25/25
f 24/24/24 26/26/26 29/29/29
f 24/24/24 29/29/29 27/27/27
f 30/30/30 31/31/31 1/1/1
f 30/30/30 1/1/1 7/7/7
f 21/21/21 32/32/32 12/12/12
f 21/21/21 12/12/12 11/11/11
f 33/33/21 3/3/3 34/34/33
f 33/33/21 34/34/33 35/35/32
f 36/36/34 37/37/35 38/38/36
f 36/36/34 38/38/36 39/39/37
f 36/36/34 40/40/38 23/23/23
f 36/36/34 23/23/23 37/37/35
f 36/36/34 39/39/37 41/41/39
f 36/36/34 41/41/39 40/40/38
f 41/41/39 42/42/40 43/43/41
f 41/41/39 43/43/41 44/44/42
f 41/41/39 44/44/42 45/45/43
f 41/41/39 45/45/43 40/40/38
f 41/41/39 39/39/37 46/46/44
f 41/41/39 46/46/44 42/42/40
f 46/46/44 47/47/45 48/48/46
f 46/46/44 48/48/46 42/42/40
f 46/46/44 39/39/37 38/38/36
f 46/46/44 38/38/36 49/49/47
f 46/46/44 49/49/47 50/50/48
f 46/46/44 50/50/48 47/47/45
f 50/50/48 51/51/49 52/52/50
f 50/50/48 52/52/50 47/47/45
f 50/50/48 49/49/47 53/53/51
f 50/50/48 53/53/51 54/54/52
f 50/50/48 54/54/52 55/55/53
f 50/50/48 55/55/53 51/51/49
f 55/55/53 56/56/54 57/57/55
f 55/55/53 57/57/55 51/51/49
f 58/58/56 59/59/52 60/60/57
f 58/58/56 60/60/57 61/61/58
f 58/58/56 61/61/58 62/62/59
f 58/58/56 62/62/59 63/63/60
f 62/62/59 64/64/61 65/65/62
f 62/62/59 65/65/62 63/63/60
f 62/62/59 61/61/58 66/66/63
f 62/62/59 66/66/63 67/67/64
f 62/62/59 67/67/64 68/68/65
f 62/62/59 68/68/65 64/64/61
f 68/68/65 69/69/66 70/70/67
f 68/68/65 70/70/67 64/64/61
f 68/68/65 67/67/64 71/71/68
f 68/68/65 71/71/68 72/72/69
f 68/68/65 72/72/69 73/73/70
f 68/68/65 73/73/70 69/69/66
f 73/73/70 74/74/71 75/75/72
f 73/73/70 75/75/72 69/69/66
f 73/73/70 72/72/69 76/76/73
f 73/73/70 76/76/73 77/77/74
f 73/73/70 77/77/74 78/78/75
f 73/73/70 78/78/75 74/74/71
f 78/78/75 79/79/76 80/80/77
f 78/78/75 80/80/77 74/74/71
f 78/78/75 77/77/74 81/81/78
f 78/78/75 81/81/78 82/82/79
f 78/78/75 82/82/79 83/83/80
f 78/78/75 83/83/80 79/79/76
f 83/83/80 84/84/81 85/85/82
f 83/83/80 85/85/82 79/79/76
f 83/83/80 82/82/79 86/86/83
f 83/83/80 86/86/83 87/87/84
f 83/83/80 87/87/84 88/88/85
f 83/83/80 88/88/85 84/84/81
f 88/88/85 89/89/86 90/90/87
f 88/88/85 90/90/87 84/84/81
f 88/88/85 87/87/84 91/91/88
f 88/88/85 91/91/88 92/92/89
f 88/88/85 92/92/89 93/93/90
f 88/88/85 93/93/90 89/89/86
f 93/93/90 94/94/91 95/95/92
f 93/93/90 95/95/92 89/89/86
f 93/93/90 92/92/89 96/96/93
f 93/93/90 96/96/93 97/97/94
f 93/93/90 97/97/94 98/98/95
f 93/93/90 98/98/95 94/94/91
f 98/98/95 99/99/96 100/100/97
f 98/98/95 100/100/97 94/94/91
f 98/98/95 97/97/94 101/101/98
f 98/98/95 101/101/98 102/102/99
f 98/98/95 102/102/99 103/103/100
f 98/98/95 103/103/100 99/99/96
f 103/103/100 104/104/101 105/105/102
f 103/103/100 105/105/102 99/99/96
f 103/103/100 102/102/99 106/106/103
f 103/103/100 106/106/103 107/107/104
f 103/103/100 107/107/104 108/108/105
f 103/103/100 108/108/105 104/104/101
f 108/108/105 35/35/32 34/34/33
f 108/108/105 34/34/33 104/104/101
f 109/109/106 110/110/107 111/111/108
f 109/109/106 111/111/108 112/112/109
f 109/109/106 112/112/109 12/12/12
f 109/109/106 12/12/12 32/32/32
f 112/112/109 111/111/108 113/113/110
f 112/112/109 113/113/110 114/114/111
f 112/112/109 114/114/111 9/9/9
f 112/112/109 9/9/9 12/12/12
f 114/114/111 113/113/110 115/115/112
f 114/114/111 115/115/112 116/116/113
f 114/114/111 116/116/113 10/10/10
f 114/114/111 10/10/10 9/9/9
f 116/116/113 115/115/112 117/117/114
f 116/116/113 117/117/114 118/118/115
f 116/116/113 118/118/115 119/119/116
f 116/116/113 119/119/116 10/10/10
f 119/119/116 7/7/7 6/6/6
f 119/119/116 6/6/6 10/10/10
f 119/119/116 118/118/115 120/120/117
f 119/119/116 120/120/117 121/121/118
f 119/119/116 121/121/118 30/30/30
f 119/119/116 30/30/30 7/7/7
f 121/121/118 120/120/117 122/122/119
f 121/121/118 122/122/119 123/123/120
f 121/121/118 123/123/120 31/31/31
f 121/121/118 31/31/31 30/30/30
f 123/123/120 122/122/119 124/124/121
f 123/123/120 124/124/121 125/125/122
f 123/123/120 125/125/122 126/126/123
f 123/123/120 126/126/123 31/31/31
f 125/125/122 124/124/121 105/105/102
f 125/125/122 105/105/102 127/127/124
f 125/125/122 127/127/124 2/2/2
f 125/125/122 2/2/2 126/126/123
f 127/127/124 105/105/102 104/104/101
f 127/127/124 104/104/101 34/34/33
f 127/127/124 34/34/33 3/3/3
f 127/127/124 3/3/3 2/2/2
f 124/124/121 122/122/119 128/128/125
f 124/124/121 128/128/125 100/100/97
f 124/124/121 100/100/97 99/99/96
f 124/124/121 99/99/96 105/105/102
f 128/128/125 122/122/119 120/120/117
f 128/128/125 120/120/117 129/129/126
f 128/128/125 129/129/126 130/130/127
f 128/128/125 130/130/127 95/95/92
f 128/128/125 95/95/92 94/94/91
f 128/128/125 94/94/91 100/100/97
f 130/130/127 129/129/126 117/117/114
f 130/130/127 117/117/114 131/131/128
f 130/130/127 131/131/128 132/132/129
f 130/130/127 132/132/129 90/90/87
f 130/130/127 90/90/87 89/89/86
f 130/130/127 89/89/86 95/95/92
f 132/132/129 131/131/128 133/133/130
f 132/132/129 133/133/130 134/134/131
f 132/132/129 134/134/131 135/135/132
f 132/132/129 135/135/132 85/85/82
f 132/132/129 85/85/82 84/84/81
f 132/132/129 84/84/81 90/90/87
f 135/135/132 134/134/131 136/136/133
f 135/135/132 136/136/133 137/137/134
f 135/135/132 137/137/134 138/138/135
f 135/135/132 138/138/135 80/80/77
f 135/135/132 80/80/77 79/79/76
f 135/135/132 79/79/76 85/85/82
f 138/138/135 137/137/134 139/139/136
f 138/138/135 139/139/136 140/140/137
f 138/138/135 140/140/137 141/141/138
f 138/138/135 141/141/138 75/75/72
f 138/138/135 75/75/72 74/74/71
f 138/138/135 74/74/71 80/80/77
f 141/141/138 140/140/137 142/142/139
f 141/141/138 142/142/139 143/143/140
f 141/141/138 143/143/140 144/144/141
f 141/141/138 144/144/141 70/70/67
f 141/141/138 70/70/67 69/69/66
f 141/141/138 69/69/66 75/75/72
f 145/145/142 146/146/143 147/147/144
f 145/145/142 147/147/144 148/148/145
f 145/145/142 148/148/145 149/149/146
f 145/145/142 149/149/146 150/150/147
f 144/144/141 65/65/62 64/64/61
f 144/144/141 64/64/61 70/70/67
f 149/149/146 148/148/145 151/151/148
f 149/149/146 151/151/148 152/152/149
f 149/149/146 152/152/149 153/153/150
f 149/149/146 153/153/150 57/57/55
f 149/149/146 57/57/55 56/56/54
f 149/149/146 56/56/54 150/150/147
f 153/153/150 152/152/149 154/154/151
f 153/153/150 154/154/151 155/155/152
f 153/153/150 155/155/152 156/156/153
f 153/153/150 156/156/153 52/52/50
f 153/153/150 52/52/50 51/51/49
f 153/153/150 51/51/49 57/57/55
f 156/156/153 155/155/152 157/157/154
f 156/156/153 157/157/154 158/158/155
f 156/156/153 158/158/155 159/159/156
f 156/156/153 159/159/156 48/48/46
f 156/156/153 48/48/46 47/47/45
f 156/156/153 47/47/45 52/52/50
f 159/159/156 158/158/155 160/160/157
f 159/159/156 160/160/157 161/161/158
f 159/159/156 161/161/158 162/162/159
f 159/159/156 162/162/159 43/43/41
f 159/159/156 43/43/41 42/42/40
f 159/159/156 42/42/40 48/48/46
f 162/162/159 161/161/158 163/163/160
f 162/162/159 163/163/160 164/164/161
f 162/162/159 164/164/161 29/29/29
f 162/162/159 29/29/29 165/165/162
f 162/162/159 165/165/162 44/44/42
f 162/162/159 44/44/42 43/43/41
f 165/165/162 29/29/29 26/26/26
f 165/165/162 26/26/26 166/166/163
f 165/165/162 166/166/163 45/45/43
f 165/165/162 45/45/43 44/44/42
f 166/166/163 26/26/26 19/19/19
f 166/166/163 19/19/19 16/16/16
f 166/166/163 16/16/16 15/15/15
f 166/166/163 15/15/15 45/45/43
f 164/164/161 163/163/160 167/167/164
f 164/164/161 167/167/164 168/168/165
f 164/164/161 168/168/165 27/27/27
f 164/164/161 27/27/27 29/29/29
f 168/168/165 167/167/164 169/169/166
f 168/168/165 169/169/166 170/170/167
f 168/168/165 170/170/167 28/28/28
f 168/168/165 28/28/28 27/27/27
f 170/170/167 169/169/166 60/60/57
f 170/170/167 60/60/57 171/171/168
f 170/170/167 171/171/168 172/172/169
f 170/170/167 172/172/169 28/28/28
f 172/172/169 171/171/168 173/173/51
f 172/172/169 173/173/51 174/174/170
f 172/172/169 174/174/170 175/175/171
f 172/172/169 175/175/171 176/176/172
f 172/172/169 176/176/172 25/25/25
f 172/172/169 25/25/25 28/28/28
f 176/176/172 175/175/171 18/18/18
f 176/176/172 18/18/18 17/17/17
f 176/176/172 17/17/17 19/19/19
f 176/176/172 19/19/19 25/25/25
f 177/177/171 178/178/170 38/38/36
f 177/177/171 38/38/36 37/37/35
f 177/177/171 37/37/35 23/23/23
f 177/177/171 23/23/23 22/22/22
f 178/178/170 53/53/51 49/49/47
f 178/178/170 49/49/47 38/38/36
f 171/171/168 60/60/57 59/59/52
f 171/171/168 59/59/52 173/173/51
f 169/169/166 66/66/63 61/61/58
f 169/169/166 61/61/58 60/60/57
f 169/169/166 167/167/164 179/179/173
f 169/169/166 179/179/173 66/66/63
f 179/179/173 71/71/68 67/67/64
f 179/179/173 67/67/64 66/66/63
f 179/179/173 167/167/164 163/163/160
f 179/179/173 163/163/160 180/180/174
f 179/179/173 180/180/174 181/181/175
f 179/179/173 181/181/175 71/71/68
f 181/181/175 76/76/73 72/72/69
f 181/181/175 72/72/69 71/71/68
f 181/181/175 180/180/174 160/160/157
f 181/181/175 160/160/157 182/182/176
f 181/181/175 182/182/176 183/183/177
f 181/181/175 183/183/177 76/76/73
f 183/183/177 81/81/78 77/77/74
f 183/183/177 77/77/74 76/76/73
f 183/183/177 182/182/176 157/157/154
f 183/183/177 157/157/154 184/184/178
f 183/183/177 184/184/178 185/185/179
f 183/183/177 185/185/179 81/81/78
f 185/185/179 86/86/83 82/82/79
f 185/185/179 82/82/79 81/81/78
f 185/185/179 184/184/178 154/154/151
f 185/185/179 154/154/151 186/186/180
f 185/185/179 186/186/180 187/187/181
f 185/185/179 187/187/181 86/86/83
f 187/187/181 91/91/88 87/87/84
f 187/187/181 87/87/84 86/86/83
f 187/187/181 186/186/180 151/151/148
f 187/187/181 151/151/148 188/188/182
f 187/187/181 188/188/182 189/189/183
f 187/187/181 189/189/183 91/91/88
f 189/189/183 96/96/93 92/92/89
f 189/189/183 92/92/89 91/91/88
f 189/189/183 188/188/182 147/147/144
f 189/189/183 147/147/144 190/190/184
f 189/189/183 190/190/184 191/191/185
f 189/189/183 191/191/185 96/96/93
f 191/191/185 101/101/98 97/97/94
f 191/191/185 97/97/94 96/96/93
f 191/191/185 190/190/184 192/192/139
f 191/191/185 192/192/139 193/193/186
f 191/191/185 193/193/186 194/194/187
f 191/191/185 194/194/187 101/101/98
f 194/194/187 106/106/103 102/102/99
f 194/194/187 102/102/99 101/101/98
f 195/195/188 196/196/189 139/139/136
f 195/195/188 139/139/136 197/197/190
f 195/195/188 197/197/190 198/198/191
f 195/195/188 198/198/191 199/199/192
f 198/198/191 111/111/108 110/110/107
f 198/198/191 110/110/107 199/199/192
f 198/198/191 197/197/190 136/136/133
f 198/198/191 136/136/133 200/200/193
f 198/198/191 200/200/193 113/113/110
f 198/198/191 113/113/110 111/111/108
f 200/200/193 136/136/133 134/134/131
f 200/200/193 134/134/131 133/133/130
f 200/200/193 133/133/130 115/115/112
f 200/200/193 115/115/112 113/113/110
f 197/197/190 139/139/136 137/137/134
f 197/197/190 137/137/134 136/136/133
f 196/196/189 142/142/139 140/140/137
f 196/196/189 140/140/137 139/139/136
f 190/190/184 147/147/144 146/146/143
f 190/190/184 146/146/143 192/192/139
f 188/188/182 151/151/148 148/148/145
f 188/188/182 148/148/145 147/147/144
f 186/186/180 154/154/151 152/152/149
f 186/186/180 152/152/149 151/151/148
f 184/184/178 157/157/154 155/155/152
f 184/184/178 155/155/152 154/154/151
f 182/182/176 160/160/157 158/158/155
f 182/182/176 158/158/155 157/157/154
f 180/180/174 163/163/160 161/161/158
f 180/180/174 161/161/158 160/160/157
f 133/133/130 131/131/128 117/117/114
f 133/133/130 117/117/114 115/115/112
f 129/129/126 120/120/117 118/118/115
f 129/129/126 118/118/115 117/117/114
f 45/45/43 15/15/15 23/23/23
f 45/45/43 23/23/23 40/40/38
f 1/1/1 31/31/31 126/126/123
f 1/1/1 126/126/123 2/2/2
f 201/201/194 202/202/195 203/203/196
f 201/201/194 203/203/196 204/204/197
f 201/201/194 205/205/198 206/206/199
f 201/201/194 206/206/199 207/207/200
f 208/208/201 206/206/199 209/209/202
f 208/208/201 209/209/202 210/210/203
f 208/208/201 211/211/204 207/207/200
f 208/208/201 207/207/200 206/206/199
f 208/208/201 210/210/203 212/212/205
f 208/208/201 212/212/205 211/211/204
f 213/213/206 214/214/207 215/215/208
f 213/213/206 215/215/208 216/216/209
f 213/213/206 216/216/209 217/217/210
f 213/213/206 217/217/210 218/218/211
f 213/213/206 218/218/211 219/219/212
f 213/213/206 219/219/212 214/214/207
f 207/207/200 211/211/204 220/220/213
f 207/207/200 220/220/213 221/221/196
f 216/216/209 215/215/208 222/222/214
f 216/216/209 222/222/214 223/223/210
f 224/224/215 225/225/216 219/219/212
f 224/224/215 219/219/212 226/226/217
f 224/224/215 226/226/217 227/227/218
f 224/224/215 227/227/218 228/228/219
f 224/224/215 228/228/219 229/229/220
f 224/224/215 229/229/220 225/225/216
f 230/230/221 205/205/198 201/201/194
f 230/230/221 201/201/194 231/231/222
f 220/220/213 211/211/204 212/212/205
f 220/220/213 212/212/205 232/232/223
f 233/233/213 234/234/223 235/235/224
f 233/233/213 235/235/224 203/203/196
f 236/236/225 237/237/226 238/238/227
f 236/236/225 238/238/227 239/239/228
f 236/236/225 239/239/228 222/222/214
f 236/236/225 222/222/214 240/240/229
f 236/236/225 240/240/229 241/241/230
f 236/236/225 241/241/230 237/237/226
f 241/241/230 242/242/231 243/243/232
f 241/241/230 243/243/232 244/244/233
f 241/241/230 240/240/229 245/245/234
f 241/241/230 245/245/234 242/242/231
f 241/241/230 244/244/233 246/246/235
f 241/241/230 246/246/235 237/237/226
f 246/246/235 244/244/233 247/247/236
f 246/246/235 247/247/236 248/248/237
f 246/246/235 249/249/238 238/238/227
f 246/246/235 238/238/227 237/237/226
f 246/246/235 248/248/237 250/250/239
f 246/246/235 250/250/239 249/249/238
f 250/250/239 248/248/237 251/251/240
f 250/250/239 251/251/240 252/252/241
f 250/250/239 253/253/242 254/254/243
f 250/250/239 254/254/243 249/249/238
f 250/250/239 252/252/241 255/255/244
f 250/250/239 255/255/244 253/253/242
f 255/255/244 252/252/241 256/256/245
f 255/255/244 256/256/245 257/257/246
f 258/258/247 259/259/248 260/260/249
f 258/258/247 260/260/249 261/261/242
f 258/258/247 262/262/250 263/263/251
f 258/258/247 263/263/251 259/259/248
f 263/263/251 262/262/250 264/264/252
f 263/263/251 264/264/252 265/265/253
f 263/263/251 266/266/254 267/267/255
f 263/263/251 267/267/255 259/259/248
f 263/263/251 265/265/253 268/268/256
f 263/263/251 268/268/256 266/266/254
f 268/268/256 265/265/253 269/269/257
f 268/268/256 269/269/257 270/270/258
f 268/268/256 271/271/259 272/272/260
f 268/268/256 272/272/260 266/266/254
f 268/268/256 270/270/258 273/273/261
f 268/268/256 273/273/261 271/271/259
f 273/273/261 270/270/258 274/274/262
f 273/273/261 274/274/262 275/275/263
f 273/273/261 276/276/264 277/277/265
f 273/273/261 277/277/265 271/271/259
f 273/273/261 275/275/263 278/278/266
f 273/273/261 278/278/266 276/276/264
f 278/278/266 275/275/263 279/279/267
f 278/278/266 279/279/267 280/280/268
f 278/278/266 281/281/269 282/282/270
f 278/278/266 282/282/270 276/276/264
f 278/278/266 280/280/268 283/283/271
f 278/278/266 283/283/271 281/281/269
f 283/283/271 280/280/268 284/284/272
f 283/283/271 284/284/272 285/285/273
f 283/283/271 286/286/274 287/287/275
f 283/283/271 287/287/275 281/281/269
f 283/283/271 285/285/273 288/288/276
f 283/283/271 288/288/276 286/286/274
f 288/288/276 285/285/273 289/289/277
f 288/288/276 289/289/277 290/290/278
f 288/288/276 291/291/279 292/292/280
f 288/288/276 292/292/280 286/286/274
f 288/288/276 290/290/278 293/293/281
f 288/288/276 293/293/281 291/291/279
f 293/293/281 290/290/278 294/294/282
f 293/293/281 294/294/282 295/295/283
f 293/293/281 296/296/284 297/297/285
f 293/293/281 297/297/285 291/291/279
f 293/293/281 295/295/283 298/298/286
f 293/293/281 298/298/286 296/296/284
f 298/298/286 295/295/283 299/299/287
f 298/298/286 299/299/287 300/300/288
f 298/298/286 301/301/289 302/302/290
f 298/298/286 302/302/290 296/296/284
f 298/298/286 300/300/288 303/303/291
f 298/298/286 303/303/291 301/301/289
f 303/303/291 300/300/288 304/304/292
f 303/303/291 304/304/292 305/305/293
f 303/303/291 306/306/294 307/307/295
f 303/303/291 307/307/295 301/301/289
f 303/303/291 305/305/293 308/308/296
f 303/303/291 308/308/296 306/306/294
f 308/308/296 305/305/293 235/235/224
f 308/308/296 235/235/224 234/234/223
f 309/309/296 310/310/297 311/311/298
f 309/309/296 311/311/298 312/312/294
f 309/309/296 232/232/223 212/212/205
f 309/309/296 212/212/205 310/310/297
f 310/310/297 313/313/299 314/314/300
f 310/310/297 314/314/300 311/311/298
f 310/310/297 212/212/205 210/210/203
f 310/310/297 210/210/203 313/313/299
f 313/313/299 315/315/301 316/316/302
f 313/313/299 316/316/302 314/314/300
f 313/313/299 210/210/203 209/209/202
f 313/313/299 209/209/202 315/315/301
f 315/315/301 317/317/303 318/318/304
f 315/315/301 318/318/304 316/316/302
f 315/315/301 209/209/202 319/319/305
f 315/315/301 319/319/305 317/317/303
f 319/319/305 209/209/202 206/206/199
f 319/319/305 206/206/199 205/205/198
f 319/319/305 320/320/306 321/321/307
f 319/319/305 321/321/307 317/317/303
f 319/319/305 205/205/198 230/230/221
f 319/319/305 230/230/221 320/320/306
f 320/320/306 322/322/308 323/323/309
f 320/320/306 323/323/309 321/321/307
f 320/320/306 230/230/221 231/231/222
f 320/320/306 231/231/222 322/322/308
f 322/322/308 324/324/310 325/325/311
f 322/322/308 325/325/311 323/323/309
f 322/322/308 231/231/222 326/326/312
f 322/322/308 326/326/312 324/324/310
f 324/324/310 327/327/313 304/304/292
f 324/324/310 304/304/292 325/325/311
f 324/324/310 326/326/312 204/204/197
f 324/324/310 204/204/197 327/327/313
f 327/327/313 235/235/224 305/305/293
f 327/327/313 305/305/293 304/304/292
f 327/327/313 204/204/197 203/203/196
f 327/327/313 203/203/196 235/235/224
f 325/325/311 299/299/287 328/328/314
f 325/325/311 328/328/314 323/323/309
f 325/325/311 304/304/292 300/300/288
f 325/325/311 300/300/288 299/299/287
f 328/328/314 329/329/315 321/321/307
f 328/328/314 321/321/307 323/323/309
f 328/328/314 294/294/282 330/330/316
f 328/328/314 330/330/316 329/329/315
f 328/328/314 299/299/287 295/295/283
f 328/328/314 295/295/283 294/294/282
f 330/330/316 331/331/317 318/318/304
f 330/330/316 318/318/304 329/329/315
f 330/330/316 289/289/277 332/332/318
f 330/330/316 332/332/318 331/331/317
f 330/330/316 294/294/282 290/290/278
f 330/330/316 290/290/278 289/289/277
f 332/332/318 333/333/319 334/334/320
f 332/332/318 334/334/320 331/331/317
f 332/332/318 284/284/272 335/335/321
f 332/332/318 335/335/321 333/333/319
f 332/332/318 289/289/277 285/285/273
f 332/332/318 285/285/273 284/284/272
f 335/335/321 336/336/322 337/337/323
f 335/335/321 337/337/323 333/333/319
f 335/335/321 279/279/267 338/338/324
f 335/335/321 338/338/324 336/336/322
f 335/335/321 284/284/272 280/280/268
f 335/335/321 280/280/268 279/279/267
f 338/338/324 339/339/325 340/340/326
f 338/338/324 340/340/326 336/336/322
f 338/338/324 274/274/262 341/341/327
f 338/338/324 341/341/327 339/339/325
f 338/338/324 279/279/267 275/275/263
f 338/338/324 275/275/263 274/274/262
f 341/341/327 342/342/328 343/343/329
f 341/341/327 343/343/329 339/339/325
f 341/341/327 269/269/257 344/344/330
f 341/341/327 344/344/330 342/342/328
f 341/341/327 274/274/262 270/270/258
f 341/341/327 270/270/258 269/269/257
f 345/345/331 346/346/332 347/347/333
f 345/345/331 347/347/333 348/348/334
f 345/345/331 349/349/335 350/350/336
f 345/345/331 350/350/336 346/346/332
f 344/344/330 269/269/257 265/265/253
f 344/344/330 265/265/253 264/264/252
f 350/350/336 351/351/337 352/352/338
f 350/350/336 352/352/338 346/346/332
f 350/350/336 256/256/245 353/353/339
f 350/350/336 353/353/339 351/351/337
f 350/350/336 349/349/335 257/257/246
f 350/350/336 257/257/246 256/256/245
f 353/353/339 354/354/340 355/355/341
f 353/353/339 355/355/341 351/351/337
f 353/353/339 251/251/240 356/356/342
f 353/353/339 356/356/342 354/354/340
f 353/353/339 256/256/245 252/252/241
f 353/353/339 252/252/241 251/251/240
f 356/356/342 357/357/343 358/358/344
f 356/356/342 358/358/344 354/354/340
f 356/356/342 247/247/236 359/359/345
f 356/356/342 359/359/345 357/357/343
f 356/356/342 251/251/240 248/248/237
f 356/356/342 248/248/237 247/247/236
f 359/359/345 360/360/346 361/361/347
f 359/359/345 361/361/347 357/357/343
f 359/359/345 243/243/232 362/362/348
f 359/359/345 362/362/348 360/360/346
f 359/359/345 247/247/236 244/244/233
f 359/359/345 244/244/233 243/243/232
f 362/362/348 363/363/349 364/364/350
f 362/362/348 364/364/350 360/360/346
f 362/362/348 365/365/351 229/229/220
f 362/362/348 229/229/220 363/363/349
f 362/362/348 243/243/232 242/242/231
f 362/362/348 242/242/231 365/365/351
f 365/365/351 366/366/352 225/225/216
f 365/365/351 225/225/216 229/229/220
f 365/365/351 242/242/231 245/245/234
f 365/365/351 245/245/234 366/366/352
f 366/366/352 214/214/207 219/219/212
f 366/366/352 219/219/212 225/225/216
f 366/366/352 245/245/234 215/215/208
f 366/366/352 215/215/208 214/214/207
f 363/363/349 367/367/353 368/368/354
f 363/363/349 368/368/354 364/364/350
f 363/363/349 229/229/220 228/228/219
f 363/363/349 228/228/219 367/367/353
f 367/367/353 369/369/355 370/370/356
f 367/367/353 370/370/356 368/368/354
f 367/367/353 228/228/219 227/227/218
f 367/367/353 227/227/218 369/369/355
f 369/369/355 371/371/357 260/260/249
f 369/369/355 260/260/249 370/370/356
f 369/369/355 227/227/218 372/372/358
f 369/369/355 372/372/358 371/371/357
f 372/372/358 373/373/359 374/374/243
f 372/372/358 374/374/243 371/371/357
f 372/372/358 375/375/360 376/376/361
f 372/372/358 376/376/361 373/373/359
f 372/372/358 227/227/218 226/226/217
f 372/372/358 226/226/217 375/375/360
f 375/375/360 218/218/211 217/217/210
f 375/375/360 217/217/210 376/376/361
f 375/375/360 226/226/217 219/219/212
f 375/375/360 219/219/212 218/218/211
f 377/377/362 239/239/228 238/238/227
f 377/377/362 238/238/227 378/378/359
f 377/377/362 223/223/210 222/222/214
f 377/377/362 222/222/214 239/239/228
f 378/378/359 238/238/227 249/249/238
f 378/378/359 249/249/238 254/254/243
f 371/371/357 374/374/243 261/261/242
f 371/371/357 261/261/242 260/260/249
f 370/370/356 260/260/249 259/259/248
f 370/370/356 259/259/248 267/267/255
f 370/370/356 267/267/255 379/379/363
f 370/370/356 379/379/363 368/368/354
f 379/379/363 267/267/255 266/266/254
f 379/379/363 266/266/254 272/272/260
f 379/379/363 380/380/364 364/364/350
f 379/379/363 364/364/350 368/368/354
f 379/379/363 272/272/260 381/381/365
f 379/379/363 381/381/365 380/380/364
f 381/381/365 272/272/260 271/271/259
f 381/381/365 271/271/259 277/277/265
f 381/381/365 382/382/366 361/361/347
f 381/381/365 361/361/347 380/380/364
f 381/381/365 277/277/265 383/383/367
f 381/381/365 383/383/367 382/382/366
f 383/383/367 277/277/265 276/276/264
f 383/383/367 276/276/264 282/282/270
f 383/383/367 384/384/368 358/358/344
f 383/383/367 358/358/344 382/382/366
f 383/383/367 282/282/270 385/385/369
f 383/383/367 385/385/369 384/384/368
f 385/385/369 282/282/270 281/281/269
f 385/385/369 281/281/269 287/287/275
f 385/385/369 386/386/370 355/355/341
f 385/385/369 355/355/341 384/384/368
f 385/385/369 287/287/275 387/387/371
f 385/385/369 387/387/371 386/386/370
f 387/387/371 287/287/275 286/286/274
f 387/387/371 286/286/274 292/292/280
f 387/387/371 388/388/372 352/352/338
f 387/387/371 352/352/338 386/386/370
f 387/387/371 292/292/280 389/389/373
f 387/387/371 389/389/373 388/388/372
f 389/389/373 292/292/280 291/291/279
f 389/389/373 291/291/279 297/297/285
f 389/389/373 390/390/374 347/347/333
f 389/389/373 347/347/333 388/388/372
f 389/389/373 297/297/285 391/391/375
f 389/389/373 391/391/375 390/390/374
f 391/391/375 297/297/285 296/296/284
f 391/391/375 296/296/284 302/302/290
f 391/391/375 392/392/376 393/393/377
f 391/391/375 393/393/377 390/390/374
f 391/391/375 302/302/290 394/394/378
f 391/391/375 394/394/378 392/392/376
f 394/394/378 302/302/290 301/301/289
f 394/394/378 301/301/289 307/307/295
f 395/395/378 396/396/379 340/340/326
f 395/395/378 340/340/326 397/397/380
f 395/395/378 398/398/295 399/399/381
f 395/395/378 399/399/381 396/396/379
f 399/399/381 398/398/295 312/312/294
f 399/399/381 312/312/294 311/311/298
f 399/399/381 400/400/382 337/337/323
f 399/399/381 337/337/323 396/396/379
f 399/399/381 311/311/298 314/314/300
f 399/399/381 314/314/300 400/400/382
f 400/400/382 334/334/320 333/333/319
f 400/400/382 333/333/319 337/337/323
f 400/400/382 314/314/300 316/316/302
f 400/400/382 316/316/302 334/334/320
f 396/396/379 337/337/323 336/336/322
f 396/396/379 336/336/322 340/340/326
f 397/397/380 340/340/326 339/339/325
f 397/397/380 339/339/325 343/343/329
f 390/390/374 393/393/377 348/348/334
f 390/390/374 348/348/334 347/347/333
f 388/388/372 347/347/333 346/346/332
f 388/388/372 346/346/332 352/352/338
f 386/386/370 352/352/338 351/351/337
f 386/386/370 351/351/337 355/355/341
f 384/384/368 355/355/341 354/354/340
f 384/384/368 354/354/340 358/358/344
f 382/382/366 358/358/344 357/357/343
f 382/382/366 357/357/343 361/361/347
f 380/380/364 361/361/347 360/360/346
f 380/380/364 360/360/346 364/364/350
f 334/334/320 316/316/302 318/318/304
f 334/334/320 318/318/304 331/331/317
f 329/329/315 318/318/304 317/317/303
f 329/329/315 317/317/303 321/321/307
f 245/245/234 240/240/229 222/222/214
f 245/245/234 222/222/214 215/215/208
f 201/201/194 204/204/197 326/326/312
f 201/201/194 326/326/312 231/231/222
