# Blender 3.6.4
# www.blender.org
mtllib animeEyeLashes.mtl
o EyeLashes2_EyeLashes2_0
v -0.082046 1.833777 0.067285
v -0.083423 1.835993 0.066822
v -0.083243 1.837981 0.067606
v -0.080729 1.825069 0.068292
v -0.080183 1.823882 0.066930
v -0.079950 1.825894 0.067188
v -0.086325 1.837651 0.068164
v -0.086148 1.837989 0.067077
v -0.084670 1.832652 0.067661
v -0.085069 1.853660 0.076241
v -0.086265 1.853703 0.076466
v -0.085438 1.853273 0.076987
v -0.100253 1.857447 0.075264
v -0.101759 1.858799 0.074909
v -0.098002 1.855542 0.074243
v -0.100197 1.857916 0.074157
v -0.082025 1.862388 0.089900
v -0.082665 1.863544 0.090410
v -0.081595 1.862833 0.089407
v -0.066698 1.859272 0.088751
v -0.068078 1.858708 0.088724
v -0.067001 1.858856 0.089527
v -0.026472 1.825581 0.092490
v -0.029576 1.833234 0.092574
v -0.028382 1.819819 0.090228
v -0.027124 1.820504 0.088854
v -0.028381 1.834497 0.091648
v -0.026054 1.831389 0.092477
v -0.020623 1.838572 0.095304
v -0.025989 1.843805 0.095086
v -0.026781 1.846176 0.097095
v -0.027329 1.843397 0.098363
v -0.020640 1.837080 0.097080
v -0.027308 1.845919 0.098232
v -0.017408 1.830464 0.094036
v -0.019988 1.832891 0.095804
v -0.019718 1.834489 0.093195
v -0.020623 1.838572 0.095304
v -0.018225 1.831657 0.092709
v -0.024837 1.834277 0.095429
v -0.026472 1.825581 0.092490
v -0.017408 1.830464 0.094036
v -0.024837 1.834277 0.095429
v -0.025485 1.836393 0.094313
v -0.069409 1.858274 0.088286
v -0.069758 1.857209 0.088794
v -0.069389 1.858303 0.088235
v -0.068808 1.858391 0.086465
v -0.086187 1.838004 0.067062
v -0.085239 1.838627 0.066440
v -0.084435 1.836086 0.066208
v -0.083277 1.833126 0.066021
v -0.083816 1.832113 0.066722
v 0.083243 1.837981 0.067606
v 0.083423 1.835993 0.066822
v 0.082046 1.833777 0.067285
v 0.079950 1.825894 0.067188
v 0.080183 1.823882 0.066930
v 0.080729 1.825069 0.068292
v 0.084670 1.832652 0.067661
v 0.086148 1.837989 0.067077
v 0.086325 1.837651 0.068164
v 0.085439 1.853273 0.076987
v 0.086265 1.853703 0.076466
v 0.085069 1.853660 0.076241
v 0.098002 1.855542 0.074243
v 0.101759 1.858799 0.074909
v 0.100253 1.857447 0.075264
v 0.100197 1.857916 0.074157
v 0.081595 1.862833 0.089407
v 0.082665 1.863544 0.090410
v 0.082025 1.862388 0.089900
v 0.067001 1.858856 0.089527
v 0.068078 1.858708 0.088724
v 0.066698 1.859272 0.088751
v 0.028382 1.819819 0.090228
v 0.029576 1.833234 0.092574
v 0.026472 1.825581 0.092490
v 0.026054 1.831389 0.092477
v 0.028381 1.834497 0.091648
v 0.027124 1.820504 0.088854
v 0.026781 1.846176 0.097095
v 0.025989 1.843805 0.095086
v 0.020623 1.838572 0.095304
v 0.027308 1.845919 0.098232
v 0.020640 1.837080 0.097080
v 0.027328 1.843397 0.098363
v 0.019988 1.832891 0.095804
v 0.017408 1.830464 0.094036
v 0.018226 1.831657 0.092709
v 0.019718 1.834489 0.093195
v 0.024837 1.834277 0.095429
v 0.024837 1.834277 0.095429
v 0.025485 1.836393 0.094313
v 0.026054 1.831389 0.092477
v 0.069389 1.858303 0.088235
v 0.069758 1.857209 0.088794
v 0.069409 1.858274 0.088286
v 0.069409 1.858274 0.088286
v 0.068808 1.858391 0.086465
v 0.069389 1.858303 0.088235
v 0.085239 1.838627 0.066440
v 0.086188 1.838004 0.067062
v 0.084435 1.836086 0.066208
v 0.083277 1.833126 0.066021
v 0.083816 1.832113 0.066722
v -0.079422 1.838048 0.069899
v -0.080186 1.837097 0.071478
v -0.080283 1.834071 0.070868
v -0.079639 1.834933 0.069604
v -0.078859 1.840820 0.070420
v -0.079271 1.839836 0.071914
v -0.077277 1.845112 0.072112
v -0.077603 1.843629 0.073490
v -0.080090 1.830211 0.070096
v -0.079577 1.830899 0.069272
v -0.054663 1.849140 0.083540
v -0.048088 1.847908 0.086100
v -0.047788 1.857039 0.093812
v -0.055347 1.858659 0.092102
v -0.041892 1.845786 0.088894
v -0.040777 1.853936 0.095643
v -0.053836 1.851211 0.081353
v -0.047325 1.850048 0.083764
v -0.041077 1.847817 0.086374
v -0.054490 1.860585 0.089549
v -0.047062 1.859092 0.091221
v -0.040053 1.855924 0.092846
v -0.062469 1.858131 0.090489
v -0.060744 1.848790 0.081763
v -0.066474 1.847556 0.079810
v -0.059831 1.850696 0.079596
v -0.065549 1.849325 0.077808
v -0.061467 1.859864 0.087826
v -0.068808 1.858391 0.086465
v -0.075329 1.853869 0.083874
v -0.071875 1.845912 0.076891
v -0.081517 1.851138 0.078145
v -0.071291 1.847687 0.075498
v -0.073927 1.855545 0.081023
v -0.080282 1.852685 0.075650
v -0.035066 1.843702 0.088715
v -0.036108 1.841995 0.091413
v -0.034359 1.849654 0.097091
v -0.033399 1.851314 0.093952
v -0.025989 1.843805 0.095086
v -0.075157 1.859287 0.089682
v -0.077296 1.857605 0.086949
v -0.078983 1.861586 0.090405
v -0.079821 1.860372 0.088674
v -0.082543 1.863728 0.091101
v -0.079341 1.861269 0.087484
v -0.076412 1.859002 0.084816
v -0.076412 1.859002 0.084816
v -0.074349 1.860371 0.087334
v -0.079341 1.861269 0.087484
v -0.078612 1.862265 0.088798
v -0.081595 1.862833 0.089407
v -0.082232 1.864041 0.090469
v -0.081129 1.838065 0.068887
v -0.080597 1.834268 0.068535
v -0.087192 1.852804 0.077013
v -0.082084 1.845211 0.073510
v -0.092514 1.855113 0.076224
v -0.086312 1.847151 0.073526
v -0.100253 1.857447 0.075264
v -0.090488 1.849024 0.073004
v -0.081797 1.840412 0.071497
v -0.082184 1.837034 0.070811
v -0.084695 1.841381 0.070539
v -0.084403 1.837263 0.069530
v -0.087302 1.842366 0.069419
v -0.086325 1.837651 0.068164
v -0.081371 1.847062 0.071342
v -0.086271 1.853876 0.074999
v -0.085583 1.848912 0.071215
v -0.092348 1.855768 0.074812
v -0.090107 1.850069 0.071480
v -0.081650 1.833304 0.070232
v -0.083188 1.832694 0.069049
v -0.084670 1.832652 0.067661
v -0.083788 1.842545 0.068501
v -0.086327 1.843517 0.067408
v -0.081135 1.841602 0.069559
v -0.080398 1.827810 0.069546
v -0.081381 1.824858 0.067074
v -0.079665 1.828664 0.068497
v -0.080509 1.825627 0.065816
v -0.047531 1.859051 0.094391
v -0.055210 1.860653 0.092820
v -0.047282 1.859785 0.093487
v -0.054908 1.861338 0.091914
v -0.047062 1.859092 0.091221
v -0.054490 1.860585 0.089549
v -0.040442 1.855847 0.095942
v -0.040178 1.856548 0.094963
v -0.040053 1.855924 0.092846
v -0.061467 1.859864 0.087826
v -0.061815 1.860707 0.090211
v -0.062175 1.860090 0.091170
v -0.033806 1.851384 0.097015
v -0.033423 1.851935 0.095886
v -0.033399 1.851314 0.093952
v -0.080980 1.853213 0.077120
v -0.075364 1.855562 0.081968
v -0.080980 1.853213 0.077120
v -0.081481 1.852650 0.078103
v -0.075937 1.854987 0.083069
v -0.075364 1.855562 0.081968
v -0.076336 1.856949 0.084896
v -0.076064 1.857177 0.084294
v -0.076064 1.857177 0.084294
v -0.085069 1.853660 0.076241
v -0.090437 1.849314 0.072031
v -0.090488 1.849024 0.073004
v -0.087426 1.843029 0.068272
v -0.087302 1.842366 0.069419
v -0.080640 1.824046 0.066103
v -0.081381 1.824858 0.067074
v -0.093431 1.856431 0.075847
v -0.087843 1.854187 0.076246
v -0.093431 1.856431 0.075847
v -0.087843 1.854187 0.076246
v -0.101759 1.858799 0.074909
v -0.086265 1.853703 0.076466
v -0.083055 1.864470 0.091168
v -0.082232 1.864041 0.090469
v -0.074349 1.860371 0.087334
v -0.074376 1.860190 0.088960
v -0.078612 1.862265 0.088798
v -0.078623 1.862179 0.089856
v -0.018225 1.831657 0.092709
v 0.079422 1.838048 0.069899
v 0.079639 1.834933 0.069604
v 0.080283 1.834071 0.070868
v 0.080186 1.837097 0.071478
v 0.078859 1.840820 0.070420
v 0.079271 1.839836 0.071914
v 0.077278 1.845112 0.072112
v 0.077603 1.843629 0.073490
v 0.079577 1.830899 0.069272
v 0.080090 1.830211 0.070096
v 0.054664 1.849140 0.083540
v 0.055347 1.858659 0.092102
v 0.047788 1.857039 0.093812
v 0.048088 1.847908 0.086100
v 0.040777 1.853936 0.095643
v 0.041892 1.845786 0.088894
v 0.053836 1.851211 0.081353
v 0.047325 1.850048 0.083764
v 0.041076 1.847817 0.086374
v 0.054490 1.860585 0.089549
v 0.047062 1.859092 0.091221
v 0.040053 1.855924 0.092846
v 0.060744 1.848790 0.081763
v 0.062469 1.858131 0.090489
v 0.066474 1.847556 0.079810
v 0.059831 1.850696 0.079596
v 0.065549 1.849325 0.077808
v 0.061467 1.859864 0.087826
v 0.071875 1.845912 0.076891
v 0.075329 1.853869 0.083874
v 0.081517 1.851138 0.078145
v 0.071291 1.847687 0.075498
v 0.073927 1.855545 0.081023
v 0.080282 1.852685 0.075650
v 0.036108 1.841995 0.091413
v 0.035066 1.843702 0.088715
v 0.029576 1.833234 0.092574
v 0.028381 1.834497 0.091648
v 0.034359 1.849654 0.097091
v 0.036108 1.841995 0.091413
v 0.034359 1.849654 0.097091
v 0.033399 1.851314 0.093952
v 0.077296 1.857605 0.086949
v 0.075157 1.859287 0.089682
v 0.079821 1.860372 0.088674
v 0.078983 1.861586 0.090405
v 0.082025 1.862388 0.089900
v 0.082543 1.863728 0.091101
v 0.077296 1.857605 0.086949
v 0.076412 1.859002 0.084816
v 0.079341 1.861269 0.087484
v 0.079821 1.860372 0.088674
v 0.074349 1.860371 0.087334
v 0.078612 1.862265 0.088798
v 0.082233 1.864041 0.090469
v 0.080597 1.834268 0.068535
v 0.081129 1.838065 0.068887
v 0.082084 1.845211 0.073510
v 0.087192 1.852804 0.077013
v 0.086312 1.847151 0.073526
v 0.092515 1.855113 0.076224
v 0.090488 1.849024 0.073004
v 0.100253 1.857447 0.075264
v 0.082184 1.837034 0.070811
v 0.081797 1.840412 0.071497
v 0.084404 1.837263 0.069530
v 0.084695 1.841381 0.070539
v 0.086325 1.837651 0.068164
v 0.087302 1.842366 0.069419
v 0.086271 1.853876 0.074999
v 0.081371 1.847062 0.071342
v 0.092348 1.855768 0.074812
v 0.085583 1.848912 0.071215
v 0.090107 1.850069 0.071480
v 0.081650 1.833304 0.070232
v 0.083188 1.832694 0.069049
v 0.084670 1.832652 0.067661
v 0.086327 1.843517 0.067408
v 0.083788 1.842545 0.068501
v 0.081135 1.841602 0.069559
v 0.080398 1.827810 0.069546
v 0.081381 1.824858 0.067074
v 0.079665 1.828664 0.068497
v 0.080509 1.825627 0.065816
v 0.055210 1.860653 0.092820
v 0.047531 1.859051 0.094391
v 0.047531 1.859051 0.094391
v 0.055210 1.860653 0.092820
v 0.054908 1.861338 0.091914
v 0.047282 1.859785 0.093487
v 0.040442 1.855847 0.095942
v 0.040442 1.855847 0.095942
v 0.040178 1.856548 0.094963
v 0.061816 1.860707 0.090211
v 0.062175 1.860090 0.091170
v 0.062175 1.860090 0.091170
v 0.067001 1.858856 0.089527
v 0.033806 1.851384 0.097015
v 0.033806 1.851384 0.097015
v 0.033423 1.851935 0.095886
v 0.075364 1.855562 0.081968
v 0.080980 1.853213 0.077120
v 0.075937 1.854987 0.083069
v 0.081481 1.852650 0.078103
v 0.081481 1.852650 0.078103
v 0.075937 1.854987 0.083069
v 0.076064 1.857177 0.084294
v 0.076336 1.856949 0.084896
v 0.076336 1.856949 0.084896
v 0.085439 1.853273 0.076987
v 0.090437 1.849314 0.072031
v 0.090488 1.849024 0.073004
v 0.087302 1.842366 0.069419
v 0.087426 1.843029 0.068272
v 0.081381 1.824858 0.067074
v 0.080640 1.824046 0.066103
v 0.087843 1.854187 0.076246
v 0.093431 1.856431 0.075847
v 0.093431 1.856431 0.075847
v 0.087843 1.854187 0.076246
v 0.101759 1.858799 0.074909
v 0.086265 1.853703 0.076466
v 0.082665 1.863544 0.090410
v 0.083055 1.864470 0.091168
v 0.083055 1.864470 0.091168
v 0.074376 1.860190 0.088960
v 0.074376 1.860190 0.088960
v 0.078623 1.862179 0.089856
v 0.078623 1.862179 0.089856
v 0.068078 1.858708 0.088724
v 0.029576 1.833234 0.092574
vn 0.6247 0.1974 -0.7555
vn 0.5717 0.2232 -0.7895
vn 0.5306 0.2257 -0.8170
vn -0.4654 -0.4199 0.7792
vn 0.8489 -0.4648 0.2517
vn 0.9351 0.1160 -0.3349
vn -0.8139 -0.3112 0.4907
vn -0.7518 -0.2507 -0.6099
vn -0.9294 -0.3686 0.0150
vn 0.0559 0.9617 0.2685
vn 0.1607 0.8410 0.5167
vn -0.0614 0.7478 0.6611
vn -0.3246 -0.5274 0.7852
vn -0.2983 0.8841 0.3598
vn -0.6547 -0.6835 -0.3229
vn 0.0719 0.4463 -0.8920
vn -0.7660 -0.6361 -0.0926
vn -0.7614 0.0176 -0.6480
vn -0.5642 0.2044 -0.7999
vn -0.3124 0.9491 0.0402
vn -0.3747 0.8702 0.3199
vn -0.4181 0.6335 0.6510
vn 0.1231 -0.3284 0.9365
vn -0.7022 -0.3214 0.6353
vn -0.7571 -0.3134 0.5733
vn 0.5704 0.0446 -0.8201
vn 0.3883 0.1120 -0.9147
vn 0.8182 0.0956 -0.5669
vn 0.8065 0.5483 -0.2214
vn 0.4512 0.2903 -0.8439
vn 0.7088 0.6861 -0.1639
vn -0.3263 -0.3102 0.8929
vn 0.5142 0.1112 0.8504
vn 0.3538 0.3297 0.8753
vn 0.3321 -0.7957 0.5065
vn -0.0581 -0.4406 0.8958
vn 0.0288 0.3599 -0.9325
vn -0.0351 -0.2788 -0.9597
vn -0.0107 -0.7098 0.7043
vn 0.1231 -0.3283 0.9365
vn -0.0107 -0.7099 0.7043
vn 0.0187 -0.0278 -0.9994
vn 0.3658 0.7611 0.5356
vn -0.1378 -0.6575 0.7407
vn -0.3819 0.8776 0.2897
vn 0.1295 0.7738 -0.6200
vn -0.8236 -0.0756 -0.5621
vn 0.1783 0.1991 -0.9636
vn -0.4227 -0.1213 -0.8981
vn 0.0437 0.0668 -0.9968
vn -0.7134 -0.2132 -0.6676
vn -0.5306 0.2257 -0.8170
vn -0.5717 0.2232 -0.7895
vn -0.6247 0.1974 -0.7555
vn -0.9351 0.1159 -0.3350
vn -0.8488 -0.4649 0.2519
vn 0.4654 -0.4199 0.7792
vn 0.9294 -0.3686 0.0150
vn 0.7517 -0.2507 -0.6099
vn 0.8139 -0.3111 0.4907
vn 0.0614 0.7478 0.6611
vn -0.1607 0.8410 0.5167
vn -0.0559 0.9617 0.2685
vn 0.6547 -0.6835 -0.3229
vn 0.2983 0.8841 0.3598
vn 0.3246 -0.5274 0.7852
vn -0.0719 0.4462 -0.8920
vn 0.5642 0.2044 -0.7999
vn 0.7615 0.0176 -0.6479
vn 0.7660 -0.6362 -0.0926
vn 0.4181 0.6335 0.6510
vn 0.3746 0.8702 0.3199
vn 0.3124 0.9491 0.0401
vn 0.7571 -0.3133 0.5732
vn 0.7022 -0.3213 0.6353
vn -0.1230 -0.3283 0.9365
vn -0.8182 0.0956 -0.5669
vn -0.3884 0.1120 -0.9147
vn -0.5704 0.0446 -0.8201
vn -0.7088 0.6861 -0.1639
vn -0.4512 0.2903 -0.8439
vn -0.8065 0.5483 -0.2214
vn -0.3538 0.3297 0.8753
vn -0.5142 0.1112 0.8504
vn 0.3263 -0.3102 0.8929
vn 0.0581 -0.4406 0.8958
vn -0.3321 -0.7957 0.5066
vn 0.0350 -0.2787 -0.9597
vn -0.0288 0.3599 -0.9325
vn 0.0107 -0.7098 0.7043
vn 0.0107 -0.7099 0.7043
vn -0.0187 -0.0278 -0.9994
vn 0.3819 0.8776 0.2898
vn 0.1377 -0.6575 0.7407
vn -0.3658 0.7612 0.5355
vn -0.3658 0.7612 0.5356
vn -0.1295 0.7738 -0.6200
vn -0.1783 0.1991 -0.9636
vn 0.8236 -0.0756 -0.5621
vn 0.4227 -0.1213 -0.8981
vn -0.0437 0.0669 -0.9968
vn 0.7134 -0.2132 -0.6676
vn 0.9283 -0.0724 -0.3648
vn 0.3801 -0.2293 0.8961
vn 0.4189 -0.1731 0.8914
vn 0.9909 -0.0096 -0.1341
vn 0.7708 -0.0348 -0.6361
vn 0.3637 -0.4025 0.8400
vn 0.4157 0.3285 -0.8481
vn -0.0728 -0.6608 0.7470
vn 0.7628 -0.1470 0.6297
vn 0.9494 -0.0585 0.3087
vn -0.2384 -0.8137 0.5302
vn -0.4116 -0.7569 0.5077
vn -0.3606 -0.5451 0.7569
vn -0.2169 -0.6188 0.7550
vn -0.5471 -0.6902 0.4737
vn -0.4446 -0.4701 0.7624
vn 0.3045 0.4392 -0.8452
vn 0.4218 0.3451 -0.8385
vn 0.4695 0.2454 -0.8481
vn 0.1959 0.7176 -0.6683
vn 0.3630 0.6575 -0.6602
vn 0.4690 0.5944 -0.6533
vn -0.1090 -0.6441 0.7571
vn -0.0629 -0.8313 0.5522
vn -0.0390 -0.8189 0.5727
vn 0.1820 0.4813 -0.8574
vn 0.1537 0.5410 -0.8269
vn 0.0350 0.7303 -0.6822
vn 0.1295 0.7738 -0.6201
vn -0.2966 -0.6687 0.6818
vn -0.0423 -0.8136 0.5800
vn -0.3824 -0.5456 0.7457
vn 0.2662 0.4273 -0.8640
vn 0.2699 0.6870 -0.6746
vn 0.2861 0.5950 -0.7511
vn 0.4709 0.1020 -0.8763
vn -0.6993 -0.5535 0.4524
vn -0.4548 -0.3715 0.8094
vn 0.5338 0.4923 -0.6875
vn -0.1064 -0.5331 0.8393
vn -0.6823 -0.6772 0.2755
vn -0.1246 -0.4839 0.8662
vn -0.6507 -0.7423 0.1603
vn -0.2823 -0.5971 0.7509
vn -0.4634 0.3491 -0.8145
vn -0.3158 0.5647 -0.7625
vn 0.2597 0.8870 -0.3818
vn 0.2453 0.8780 -0.4110
vn 0.0004 0.7325 -0.6807
vn 0.5063 0.1556 -0.8482
vn 0.6538 0.1327 -0.7449
vn -0.3105 -0.4473 0.8387
vn -0.1847 -0.4657 0.8655
vn -0.2657 -0.4208 0.8674
vn -0.2752 -0.4973 0.8227
vn -0.3247 -0.5273 0.7852
vn -0.5367 -0.6631 0.5217
vn -0.3128 -0.2942 0.9031
vn -0.4190 -0.1674 0.8924
vn -0.4456 -0.4081 0.7968
vn -0.5481 -0.2329 0.8033
vn -0.7135 -0.4788 0.5115
vn -0.8139 -0.3111 0.4907
vn 0.3125 0.4911 -0.8131
vn 0.2227 0.6893 -0.6893
vn 0.1616 0.5083 -0.8459
vn 0.2386 0.6776 -0.6956
vn -0.1322 0.3134 -0.9404
vn -0.4472 -0.2060 0.8704
vn -0.5940 -0.2564 0.7626
vn -0.9294 -0.3687 0.0150
vn 0.4682 0.3657 -0.8044
vn 0.1148 0.4410 -0.8902
vn 0.4257 0.2489 -0.8700
vn 0.0395 -0.3352 0.9413
vn -0.8800 -0.4431 0.1714
vn 0.9835 0.0019 -0.1808
vn 0.6568 0.1841 -0.7313
vn -0.1593 0.1451 0.9765
vn -0.2068 0.1023 0.9730
vn 0.2982 0.9528 0.0564
vn 0.0647 0.9979 -0.0065
vn -0.0392 0.2601 0.9648
vn 0.4804 0.8732 0.0823
vn -0.1463 0.9844 -0.0975
vn -0.2895 0.1752 0.9410
vn 0.1542 0.4112 0.8984
vn 0.6048 0.7939 0.0622
vn -0.1563 0.9857 -0.0624
vn -0.4357 0.8803 -0.1878
vn -0.5325 0.4816 0.6961
vn -0.8338 0.4052 0.3749
vn -0.8776 0.1940 -0.4383
vn -0.9544 -0.0467 -0.2948
vn -0.7693 -0.4207 -0.4809
vn -0.8672 -0.1127 -0.4851
vn -0.6783 -0.3161 -0.6632
vn -0.8800 -0.4430 0.1714
vn 0.2461 0.8678 0.4317
vn 0.2573 0.7992 0.5433
vn 0.3344 0.7691 0.5447
vn 0.4093 0.7668 0.4945
vn 0.4849 0.7599 0.4330
vn -0.0351 -0.2787 -0.9597
vn -0.9283 -0.0724 -0.3648
vn -0.9909 -0.0096 -0.1340
vn -0.4190 -0.1731 0.8914
vn -0.3801 -0.2293 0.8961
vn -0.7708 -0.0349 -0.6361
vn -0.3637 -0.4025 0.8401
vn -0.4157 0.3285 -0.8481
vn 0.0728 -0.6608 0.7470
vn -0.9494 -0.0585 0.3087
vn -0.7628 -0.1470 0.6297
vn 0.2384 -0.8137 0.5302
vn 0.2169 -0.6188 0.7550
vn 0.3606 -0.5451 0.7569
vn 0.4116 -0.7569 0.5077
vn 0.4446 -0.4701 0.7624
vn 0.5496 -0.6889 0.4726
vn -0.3045 0.4392 -0.8452
vn -0.4218 0.3451 -0.8385
vn -0.4695 0.2454 -0.8481
vn -0.1959 0.7176 -0.6683
vn -0.3630 0.6575 -0.6602
vn -0.4690 0.5944 -0.6533
vn 0.0629 -0.8313 0.5522
vn 0.1090 -0.6441 0.7571
vn 0.0390 -0.8189 0.5727
vn -0.1820 0.4813 -0.8574
vn -0.1537 0.5410 -0.8269
vn -0.0350 0.7303 -0.6822
vn 0.0423 -0.8135 0.5800
vn 0.2966 -0.6687 0.6818
vn 0.3823 -0.5456 0.7457
vn -0.2662 0.4273 -0.8640
vn -0.2699 0.6870 -0.6746
vn -0.2861 0.5950 -0.7511
vn 0.6993 -0.5535 0.4524
vn -0.4709 0.1019 -0.8763
vn 0.7022 -0.3212 0.6354
vn 0.4548 -0.3715 0.8094
vn -0.5338 0.4923 -0.6875
vn 0.6823 -0.6772 0.2755
vn 0.1064 -0.5332 0.8393
vn 0.6507 -0.7423 0.1603
vn 0.1246 -0.4839 0.8662
vn 0.2822 -0.5970 0.7510
vn 0.3158 0.5647 -0.7625
vn 0.4634 0.3491 -0.8145
vn 0.6507 -0.7422 0.1603
vn -0.2597 0.8870 -0.3818
vn -0.2453 0.8780 -0.4110
vn -0.0004 0.7325 -0.6807
vn -0.6538 0.1327 -0.7450
vn -0.5063 0.1556 -0.8482
vn 0.1847 -0.4657 0.8655
vn 0.3105 -0.4473 0.8387
vn 0.2752 -0.4973 0.8227
vn 0.2657 -0.4208 0.8674
vn 0.5367 -0.6631 0.5217
vn 0.3247 -0.5273 0.7852
vn 0.4190 -0.1674 0.8924
vn 0.3128 -0.2942 0.9031
vn 0.5481 -0.2329 0.8033
vn 0.4456 -0.4081 0.7968
vn 0.7135 -0.4788 0.5115
vn -0.2227 0.6893 -0.6893
vn -0.3126 0.4911 -0.8131
vn -0.2387 0.6776 -0.6956
vn -0.1616 0.5083 -0.8459
vn 0.1322 0.3134 -0.9404
vn 0.4472 -0.2060 0.8704
vn 0.5940 -0.2563 0.7625
vn 0.9294 -0.3687 0.0150
vn -0.1147 0.4410 -0.8902
vn -0.4682 0.3657 -0.8044
vn -0.4257 0.2489 -0.8700
vn -0.0395 -0.3352 0.9413
vn 0.8800 -0.4430 0.1713
vn -0.9835 0.0019 -0.1808
vn -0.6568 0.1841 -0.7313
vn 0.2068 0.1023 0.9730
vn 0.1593 0.1451 0.9765
vn 0.1593 0.1450 0.9765
vn -0.0647 0.9979 -0.0065
vn -0.2982 0.9528 0.0564
vn 0.0392 0.2601 0.9648
vn -0.4804 0.8732 0.0823
vn 0.1463 0.9844 -0.0975
vn 0.2895 0.1751 0.9410
vn -0.1542 0.4112 0.8984
vn -0.6048 0.7939 0.0622
vn 0.4357 0.8803 -0.1878
vn 0.1563 0.9857 -0.0623
vn 0.8338 0.4052 0.3749
vn 0.5325 0.4816 0.6961
vn 0.9544 -0.0467 -0.2948
vn 0.8776 0.1940 -0.4383
vn 0.0615 0.7478 0.6611
vn 0.7693 -0.4207 -0.4809
vn 0.8672 -0.1127 -0.4851
vn 0.6784 -0.3162 -0.6632
vn -0.2573 0.7992 0.5433
vn -0.2461 0.8678 0.4317
vn -0.3344 0.7691 0.5447
vn -0.4092 0.7668 0.4945
vn -0.4093 0.7668 0.4945
vn -0.4849 0.7599 0.4329
vn 0.7022 -0.3214 0.6354
vt 0.936256 0.701231
vt 0.930762 0.717001
vt 0.914753 0.723428
vt 0.971614 0.642624
vt 0.984255 0.645367
vt 0.972553 0.653663
vt 0.945270 0.741391
vt 0.937002 0.737960
vt 0.964420 0.715179
vt 0.779008 0.611372
vt 0.785659 0.605264
vt 0.784712 0.614244
vt 0.976279 0.892550
vt 0.979004 0.909597
vt 0.961615 0.874354
vt 0.968937 0.897959
vt 0.683537 0.577191
vt 0.680607 0.571915
vt 0.686756 0.572977
vt 0.628351 0.666724
vt 0.639258 0.665518
vt 0.632835 0.671966
vt 0.280230 0.884237
vt 0.343717 0.898381
vt 0.260606 0.904301
vt 0.248586 0.910084
vt 0.351223 0.911311
vt 0.323341 0.926846
vt 0.295307 0.805328
vt 0.338493 0.777354
vt 0.360124 0.787005
vt 0.360473 0.811570
vt 0.297946 0.822795
vt 0.365406 0.795190
vt 0.248637 0.855836
vt 0.279078 0.847608
vt 0.325559 0.990331
vt 0.359085 0.992452
vt 0.302163 0.998047
vt 0.317792 0.861297
vt 0.282169 0.930475
vt 0.287136 0.995074
vt 0.334647 0.949454
vt 0.353542 0.950080
vt 0.649166 0.660879
vt 0.657052 0.667710
vt 0.648716 0.660789
vt 0.638689 0.652040
vt 0.936943 0.738168
vt 0.927676 0.735038
vt 0.937362 0.722347
vt 0.949931 0.706299
vt 0.960404 0.705992
vt 0.563746 0.535282
vt 0.576946 0.546339
vt 0.577193 0.562980
vt 0.596710 0.619433
vt 0.605225 0.630975
vt 0.592361 0.629618
vt 0.608367 0.558519
vt 0.589485 0.528411
vt 0.598414 0.527691
vt 0.552162 0.400097
vt 0.559513 0.402077
vt 0.551274 0.407138
vt 0.656182 0.407792
vt 0.683922 0.379997
vt 0.675893 0.395264
vt 0.670646 0.387816
vt 0.539897 0.297127
vt 0.548530 0.287830
vt 0.545818 0.298586
vt 0.439024 0.301238
vt 0.442260 0.309776
vt 0.433790 0.306046
vt 0.059872 0.001953
vt 0.089305 0.077217
vt 0.053362 0.043135
vt 0.035057 0.078798
vt 0.007257 0.081770
vt 0.056761 0.011657
vt 0.137911 0.169294
vt 0.118678 0.183609
vt 0.069147 0.169340
vt 0.140126 0.160234
vt 0.063786 0.153141
vt 0.127946 0.146118
vt 0.033228 0.139399
vt 0.002857 0.149635
vt 0.016196 0.158622
vt 0.038201 0.168472
vt 0.057965 0.110587
vt 0.045023 0.212626
vt 0.065866 0.211502
vt 0.037409 0.241198
vt 0.294279 0.511178
vt 0.304045 0.508509
vt 0.294687 0.511119
vt 0.447777 0.314647
vt 0.442121 0.328764
vt 0.447539 0.314970
vt 0.579701 0.528313
vt 0.589494 0.528196
vt 0.584911 0.543324
vt 0.591798 0.562435
vt 0.601656 0.565990
vt 0.886969 0.704808
vt 0.885996 0.690413
vt 0.909238 0.677336
vt 0.910001 0.689741
vt 0.864237 0.718476
vt 0.862378 0.704641
vt 0.826857 0.741270
vt 0.823001 0.722769
vt 0.936174 0.665130
vt 0.936032 0.672728
vt 0.610909 0.800698
vt 0.551758 0.822680
vt 0.514731 0.740297
vt 0.564137 0.715471
vt 0.492391 0.843024
vt 0.466167 0.765488
vt 0.619633 0.822693
vt 0.564767 0.843325
vt 0.508118 0.863777
vt 0.641974 0.915016
vt 0.589759 0.928288
vt 0.536521 0.937574
vt 0.611489 0.695672
vt 0.662733 0.779613
vt 0.712640 0.759677
vt 0.667825 0.802215
vt 0.715640 0.781983
vt 0.687733 0.895720
vt 0.736967 0.879327
vt 0.717434 0.666710
vt 0.764533 0.743077
vt 0.777970 0.651730
vt 0.767177 0.762123
vt 0.778647 0.839967
vt 0.832515 0.813190
vt 0.445986 0.885074
vt 0.430548 0.863713
vt 0.418411 0.788549
vt 0.480855 0.946887
vt 0.404423 0.966914
vt 0.671456 0.627359
vt 0.699514 0.629255
vt 0.673993 0.595685
vt 0.690758 0.597982
vt 0.677760 0.572698
vt 0.701762 0.595200
vt 0.718821 0.623572
vt 0.792278 0.883232
vt 0.773036 0.901058
vt 0.808103 0.915952
vt 0.798743 0.925816
vt 0.816728 0.941223
vt 0.816023 0.954317
vt 0.898841 0.713538
vt 0.922252 0.694238
vt 0.795214 0.606144
vt 0.824314 0.679343
vt 0.816760 0.564614
vt 0.827209 0.641602
vt 0.855060 0.517092
vt 0.841397 0.611441
vt 0.860119 0.686135
vt 0.885443 0.675462
vt 0.858688 0.664007
vt 0.884017 0.657733
vt 0.862840 0.643691
vt 0.881536 0.641603
vt 0.856953 0.768795
vt 0.874041 0.840282
vt 0.884400 0.794530
vt 0.914928 0.869401
vt 0.914310 0.814467
vt 0.912007 0.664494
vt 0.914193 0.649230
vt 0.912282 0.634409
vt 0.895247 0.748064
vt 0.912952 0.760231
vt 0.878025 0.732809
vt 0.951983 0.655135
vt 0.975639 0.633164
vt 0.951939 0.664565
vt 0.981426 0.656956
vt 0.508992 0.725151
vt 0.556598 0.701283
vt 0.505784 0.716544
vt 0.552547 0.693283
vt 0.497472 0.700176
vt 0.544985 0.675564
vt 0.463118 0.750766
vt 0.460362 0.741671
vt 0.451960 0.726781
vt 0.591978 0.657168
vt 0.596611 0.676083
vt 0.601076 0.684039
vt 0.416616 0.774557
vt 0.413172 0.764632
vt 0.405324 0.750437
vt 0.833259 0.826663
vt 0.789222 0.848301
vt 0.766584 0.634304
vt 0.770926 0.642207
vt 0.721541 0.655369
vt 0.722842 0.645993
vt 0.713343 0.638299
vt 0.717757 0.636930
vt 0.795799 0.869319
vt 0.861542 0.842001
vt 0.921267 0.811297
vt 0.928498 0.809324
vt 0.923268 0.764219
vt 0.933435 0.765129
vt 0.991157 0.648651
vt 0.994047 0.659050
vt 0.919038 0.882262
vt 0.879291 0.856243
vt 0.816725 0.551591
vt 0.791929 0.592775
vt 0.858840 0.501746
vt 0.867878 0.849706
vt 0.676881 0.568436
vt 0.673820 0.563439
vt 0.649943 0.625081
vt 0.661534 0.627615
vt 0.659385 0.592942
vt 0.667577 0.594553
vt 0.246093 0.840287
vt 0.531391 0.544189
vt 0.548570 0.565662
vt 0.543917 0.577168
vt 0.525886 0.557489
vt 0.514070 0.524113
vt 0.507882 0.536606
vt 0.485812 0.490614
vt 0.476246 0.506957
vt 0.567976 0.589930
vt 0.565714 0.597177
vt 0.297206 0.372048
vt 0.227899 0.441633
vt 0.187589 0.405237
vt 0.246589 0.336667
vt 0.146839 0.369024
vt 0.195793 0.304911
vt 0.311360 0.352718
vt 0.263905 0.319060
vt 0.214752 0.286761
vt 0.355521 0.268270
vt 0.307113 0.240499
vt 0.255449 0.216127
vt 0.341116 0.405442
vt 0.267602 0.472397
vt 0.383310 0.437719
vt 0.352487 0.384952
vt 0.392824 0.417301
vt 0.396455 0.299533
vt 0.427484 0.469130
vt 0.359637 0.527394
vt 0.410862 0.560211
vt 0.435899 0.451699
vt 0.470963 0.379927
vt 0.514241 0.424162
vt 0.144458 0.277514
vt 0.160360 0.257988
vt 0.062645 0.258765
vt 0.068848 0.245377
vt 0.105929 0.332104
vt 0.174377 0.077045
vt 0.199448 0.153469
vt 0.198974 0.195454
vt 0.330665 0.557974
vt 0.302875 0.550412
vt 0.311769 0.586300
vt 0.294399 0.582707
vt 0.296548 0.607114
vt 0.283465 0.612747
vt 0.517068 0.347117
vt 0.496700 0.341586
vt 0.521613 0.315500
vt 0.532887 0.319887
vt 0.484169 0.319126
vt 0.516790 0.302668
vt 0.544927 0.284820
vt 0.561658 0.565237
vt 0.545472 0.539667
vt 0.463451 0.548690
vt 0.411592 0.609317
vt 0.453820 0.585423
vt 0.419915 0.655295
vt 0.457999 0.618271
vt 0.442014 0.711971
vt 0.520606 0.571460
vt 0.499773 0.553406
vt 0.513660 0.587806
vt 0.491323 0.573908
vt 0.506290 0.602337
vt 0.488968 0.594414
vt 0.562335 0.412594
vt 0.523203 0.474398
vt 0.610357 0.397706
vt 0.557458 0.458744
vt 0.592207 0.449352
vt 0.542506 0.590205
vt 0.539803 0.605366
vt 0.533359 0.618830
vt 0.573646 0.499978
vt 0.552964 0.505945
vt 0.531756 0.514947
vt 0.577614 0.611606
vt 0.593225 0.639852
vt 0.580538 0.602644
vt 0.606180 0.619095
vt 0.216551 0.453232
vt 0.177896 0.418067
vt 0.318220 0.215601
vt 0.370249 0.244356
vt 0.365204 0.251733
vt 0.315208 0.224177
vt 0.139809 0.382226
vt 0.264349 0.191257
vt 0.262493 0.200504
vt 0.405436 0.282094
vt 0.411927 0.275716
vt 0.254311 0.481247
vt 0.282284 0.500232
vt 0.099127 0.344110
vt 0.204639 0.168345
vt 0.203622 0.179263
vt 0.483865 0.375187
vt 0.519458 0.411696
vt 0.493095 0.370605
vt 0.524308 0.403344
vt 0.401148 0.566715
vt 0.359786 0.539333
vt 0.495741 0.355998
vt 0.500822 0.355328
vt 0.346593 0.554109
vt 0.403820 0.598247
vt 0.597816 0.454521
vt 0.604075 0.458655
vt 0.594669 0.501651
vt 0.584715 0.499400
vt 0.618827 0.621088
vt 0.612809 0.630029
vt 0.572301 0.399061
vt 0.618369 0.386799
vt 0.415973 0.667716
vt 0.404484 0.621225
vt 0.440968 0.727700
vt 0.402057 0.607500
vt 0.288503 0.614831
vt 0.278624 0.617668
vt 0.551341 0.278462
vt 0.482544 0.306613
vt 0.293342 0.546052
vt 0.515150 0.294604
vt 0.288195 0.579899
vt 0.286825 0.506752
vt 0.001953 0.067985
s 1
usemtl EyeLashes2
f 1/1/1 2/2/2 3/3/3
f 4/4/4 5/5/5 6/6/6
f 7/7/7 8/8/8 9/9/9
f 10/10/10 11/11/11 12/12/12
f 13/13/13 14/14/14 15/15/15
f 14/14/14 16/16/16 15/15/15
f 17/17/17 18/18/18 19/19/19
f 20/20/20 21/21/21 22/22/22
f 23/23/23 24/24/24 25/25/25
f 26/26/26 27/27/27 28/28/28
f 29/29/29 30/30/30 31/31/31
f 32/32/32 33/33/33 34/34/34
f 35/35/35 33/33/33 36/36/36
f 37/37/37 38/38/29 39/39/38
f 23/23/23 25/25/25 26/26/26
f 35/35/35 36/36/36 40/40/39
f 41/41/40 26/26/26 28/28/28
f 39/39/38 42/42/35 43/43/41
f 44/44/42 37/37/37 39/39/38
f 43/43/41 41/41/40 28/28/28
f 43/43/41 28/28/28 44/44/42
f 43/43/41 44/44/42 39/39/38
f 45/45/43 46/46/44 47/47/45
f 47/47/45 48/48/46 45/45/43
f 49/49/47 50/50/48 8/8/8
f 8/8/8 7/7/7 49/49/47
f 50/50/48 51/51/49 8/8/8
f 9/9/9 8/8/8 51/51/49
f 9/9/9 51/51/49 52/52/50
f 9/9/9 52/52/50 53/53/51
f 54/54/52 55/55/53 56/56/54
f 57/57/55 58/58/56 59/59/57
f 60/60/58 61/61/59 62/62/60
f 63/63/61 64/64/62 65/65/63
f 66/66/64 67/67/65 68/68/66
f 66/66/64 69/69/67 67/67/65
f 70/70/68 71/71/69 72/72/70
f 73/73/71 74/74/72 75/75/73
f 76/76/74 77/77/75 78/78/76
f 79/79/77 80/80/78 81/81/79
f 82/82/80 83/83/81 84/84/82
f 85/85/83 86/86/84 87/87/85
f 88/88/86 86/86/84 89/89/87
f 90/90/88 84/84/82 91/91/89
f 81/81/79 76/76/74 78/78/76
f 92/92/90 88/88/86 89/89/87
f 79/79/77 81/81/79 78/78/76
f 93/93/91 89/89/87 90/90/88
f 90/90/88 91/91/89 94/94/92
f 79/79/77 78/78/76 92/92/90
f 94/94/92 95/95/77 93/93/91
f 90/90/88 94/94/92 93/93/91
f 96/96/93 97/97/94 98/98/95
f 99/99/96 100/100/97 101/101/93
f 61/61/59 102/102/98 103/103/99
f 103/103/99 62/62/60 61/61/59
f 61/61/59 104/104/100 102/102/98
f 104/104/100 61/61/59 60/60/58
f 105/105/101 104/104/100 60/60/58
f 106/106/102 105/105/101 60/60/58
f 107/107/103 108/108/104 109/109/105
f 107/107/103 109/109/105 110/110/106
f 111/111/107 112/112/108 108/108/104
f 111/111/107 108/108/104 107/107/103
f 113/113/109 114/114/110 112/112/108
f 113/113/109 112/112/108 111/111/107
f 110/110/106 109/109/105 115/115/111
f 110/110/106 115/115/111 116/116/112
f 117/117/113 118/118/114 119/119/115
f 117/117/113 119/119/115 120/120/116
f 118/118/114 121/121/117 122/122/118
f 118/118/114 122/122/118 119/119/115
f 123/123/119 124/124/120 118/118/114
f 123/123/119 118/118/114 117/117/113
f 124/124/120 125/125/121 121/121/117
f 124/124/120 121/121/117 118/118/114
f 126/126/122 127/127/123 124/124/120
f 126/126/122 124/124/120 123/123/119
f 127/127/123 128/128/124 125/125/121
f 127/127/123 125/125/121 124/124/120
f 120/120/116 129/129/125 130/130/126
f 120/120/116 130/130/126 117/117/113
f 129/129/125 46/46/44 131/131/127
f 129/129/125 131/131/127 130/130/126
f 117/117/113 130/130/126 132/132/128
f 117/117/113 132/132/128 123/123/119
f 130/130/126 131/131/127 133/133/129
f 130/130/126 133/133/129 132/132/128
f 123/123/119 132/132/128 134/134/130
f 123/123/119 134/134/130 126/126/122
f 132/132/128 133/133/129 135/135/131
f 132/132/128 135/135/131 134/134/130
f 46/46/44 136/136/132 137/137/133
f 46/46/44 137/137/133 131/131/127
f 136/136/132 138/138/134 114/114/110
f 136/136/132 114/114/110 137/137/133
f 131/131/127 137/137/133 139/139/135
f 131/131/127 139/139/135 133/133/129
f 137/137/133 114/114/110 113/113/109
f 137/137/133 113/113/109 139/139/135
f 133/133/129 139/139/135 140/140/136
f 133/133/129 140/140/136 135/135/131
f 139/139/135 113/113/109 141/141/137
f 139/139/135 141/141/137 140/140/136
f 125/125/121 142/142/138 143/143/139
f 125/125/121 143/143/139 121/121/117
f 142/142/138 27/27/27 24/24/24
f 142/142/138 24/24/24 143/143/139
f 121/121/117 143/143/139 144/144/140
f 121/121/117 144/144/140 122/122/118
f 143/143/139 24/24/24 32/32/32
f 143/143/139 32/32/32 144/144/140
f 128/128/124 145/145/141 142/142/138
f 128/128/124 142/142/138 125/125/121
f 145/145/141 146/146/30 27/27/27
f 145/145/141 27/27/27 142/142/138
f 46/46/44 147/147/142 148/148/143
f 46/46/44 148/148/143 136/136/132
f 147/147/142 149/149/144 150/150/145
f 147/147/142 150/150/145 148/148/143
f 149/149/144 151/151/146 17/17/17
f 149/149/144 17/17/17 150/150/145
f 148/148/143 150/150/145 152/152/147
f 148/148/143 152/152/147 153/153/148
f 150/150/145 17/17/17 19/19/19
f 150/150/145 19/19/19 152/152/147
f 140/140/136 154/154/148 155/155/149
f 140/140/136 155/155/149 135/135/131
f 154/154/148 156/156/147 157/157/150
f 154/154/148 157/157/150 155/155/149
f 156/156/147 158/158/19 159/159/151
f 156/156/147 159/159/151 157/157/150
f 3/3/3 160/160/152 161/161/153
f 3/3/3 161/161/153 1/1/1
f 160/160/152 107/107/103 110/110/106
f 160/160/152 110/110/106 161/161/153
f 138/138/134 162/162/154 163/163/155
f 138/138/134 163/163/155 114/114/110
f 162/162/154 164/164/156 165/165/157
f 162/162/154 165/165/157 163/163/155
f 164/164/156 166/166/158 167/167/159
f 164/164/156 167/167/159 165/165/157
f 112/112/108 168/168/160 169/169/161
f 112/112/108 169/169/161 108/108/104
f 168/168/160 170/170/162 171/171/163
f 168/168/160 171/171/163 169/169/161
f 170/170/162 172/172/164 173/173/165
f 170/170/162 173/173/165 171/171/163
f 113/113/109 174/174/166 175/175/167
f 113/113/109 175/175/167 141/141/137
f 174/174/166 176/176/168 177/177/169
f 174/174/166 177/177/169 175/175/167
f 176/176/168 178/178/170 16/16/16
f 176/176/168 16/16/16 177/177/169
f 108/108/104 169/169/161 179/179/171
f 108/108/104 179/179/171 109/109/105
f 169/169/161 171/171/163 180/180/172
f 169/169/161 180/180/172 179/179/171
f 171/171/163 173/173/165 181/181/173
f 171/171/163 181/181/173 180/180/172
f 178/178/170 176/176/168 182/182/174
f 178/178/170 182/182/174 183/183/175
f 176/176/168 174/174/166 184/184/176
f 176/176/168 184/184/176 182/182/174
f 174/174/166 113/113/109 111/111/107
f 174/174/166 111/111/107 184/184/176
f 109/109/105 179/179/171 185/185/177
f 109/109/105 185/185/177 115/115/111
f 179/179/171 180/180/172 4/4/4
f 179/179/171 4/4/4 185/185/177
f 180/180/172 181/181/173 186/186/178
f 180/180/172 186/186/178 4/4/4
f 183/183/175 182/182/174 3/3/3
f 183/183/175 3/3/3 50/50/48
f 182/182/174 184/184/176 160/160/152
f 182/182/174 160/160/152 3/3/3
f 184/184/176 111/111/107 107/107/103
f 184/184/176 107/107/103 160/160/152
f 115/115/111 185/185/177 187/187/179
f 115/115/111 187/187/179 116/116/112
f 185/185/177 4/4/4 6/6/6
f 185/185/177 6/6/6 187/187/179
f 114/114/110 163/163/155 168/168/160
f 114/114/110 168/168/160 112/112/108
f 163/163/155 165/165/157 170/170/162
f 163/163/155 170/170/162 168/168/160
f 165/165/157 167/167/159 172/172/164
f 165/165/157 172/172/164 170/170/162
f 52/52/50 1/1/1 6/6/6
f 52/52/50 6/6/6 188/188/180
f 1/1/1 161/161/153 187/187/179
f 1/1/1 187/187/179 6/6/6
f 161/161/153 110/110/106 116/116/112
f 161/161/153 116/116/112 187/187/179
f 31/31/31 34/34/34 33/33/33
f 31/31/31 33/33/33 29/29/29
f 38/38/29 37/37/37 44/44/42
f 38/38/29 44/44/42 146/146/30
f 32/32/32 40/40/39 36/36/36
f 32/32/32 36/36/36 33/33/33
f 119/119/115 189/189/181 190/190/182
f 119/119/115 190/190/182 120/120/116
f 189/189/181 191/191/183 192/192/184
f 189/189/181 192/192/184 190/190/182
f 191/191/183 193/193/123 194/194/122
f 191/191/183 194/194/122 192/192/184
f 122/122/118 195/195/185 189/189/181
f 122/122/118 189/189/181 119/119/115
f 195/195/185 196/196/186 191/191/183
f 195/195/185 191/191/183 189/189/181
f 196/196/186 197/197/124 193/193/123
f 196/196/186 193/193/123 191/191/183
f 198/198/130 199/199/187 192/192/184
f 198/198/130 192/192/184 194/194/122
f 199/199/187 200/200/188 190/190/182
f 199/199/187 190/190/182 192/192/184
f 200/200/188 129/129/125 120/120/116
f 200/200/188 120/120/116 190/190/182
f 200/200/188 199/199/187 20/20/20
f 200/200/188 20/20/20 22/22/22
f 129/129/125 200/200/188 22/22/22
f 129/129/125 22/22/22 46/46/44
f 199/199/187 198/198/130 48/48/46
f 199/199/187 48/48/46 20/20/20
f 144/144/140 201/201/189 195/195/185
f 144/144/140 195/195/185 122/122/118
f 201/201/189 202/202/190 196/196/186
f 201/201/189 196/196/186 195/195/185
f 202/202/190 203/203/141 197/197/124
f 202/202/190 197/197/124 196/196/186
f 32/32/32 34/34/34 201/201/189
f 32/32/32 201/201/189 144/144/140
f 34/34/34 31/31/31 202/202/190
f 34/34/34 202/202/190 201/201/189
f 31/31/31 30/30/30 203/203/141
f 31/31/31 203/203/141 202/202/190
f 141/141/137 204/204/191 205/205/192
f 141/141/137 205/205/192 140/140/136
f 206/206/191 207/207/193 208/208/194
f 206/206/191 208/208/194 209/209/192
f 207/207/193 138/138/134 136/136/132
f 207/207/193 136/136/132 208/208/194
f 209/209/192 208/208/194 210/210/195
f 209/209/192 210/210/195 211/211/196
f 140/140/136 205/205/192 212/212/196
f 140/140/136 212/212/196 154/154/148
f 208/208/194 136/136/132 148/148/143
f 208/208/194 148/148/143 210/210/195
f 153/153/148 211/211/196 210/210/195
f 153/153/148 210/210/195 148/148/143
f 207/207/193 206/206/191 10/10/10
f 207/207/193 10/10/10 12/12/12
f 138/138/134 207/207/193 12/12/12
f 138/138/134 12/12/12 162/162/154
f 204/204/191 141/141/137 175/175/167
f 204/204/191 175/175/167 213/213/10
f 178/178/170 214/214/197 15/15/15
f 178/178/170 15/15/15 16/16/16
f 214/214/197 215/215/159 13/13/13
f 214/214/197 13/13/13 15/15/15
f 215/215/159 214/214/197 216/216/198
f 215/215/159 216/216/198 217/217/164
f 214/214/197 178/178/170 183/183/175
f 214/214/197 183/183/175 216/216/198
f 217/217/164 216/216/198 49/49/47
f 217/217/164 49/49/47 7/7/7
f 216/216/198 183/183/175 50/50/48
f 216/216/198 50/50/48 49/49/47
f 9/9/9 53/53/51 218/218/199
f 9/9/9 218/218/199 219/219/200
f 53/53/51 52/52/50 188/188/180
f 53/53/51 188/188/180 218/218/199
f 52/52/50 51/51/49 2/2/2
f 52/52/50 2/2/2 1/1/1
f 51/51/49 50/50/48 3/3/3
f 51/51/49 3/3/3 2/2/2
f 186/186/178 218/218/199 5/5/5
f 186/186/178 5/5/5 4/4/4
f 218/218/199 188/188/180 6/6/6
f 218/218/199 6/6/6 5/5/5
f 177/177/169 220/220/201 221/221/202
f 177/177/169 221/221/202 175/175/167
f 222/222/201 164/164/156 162/162/154
f 222/222/201 162/162/154 223/223/202
f 16/16/16 14/14/14 220/220/201
f 16/16/16 220/220/201 177/177/169
f 224/224/14 166/166/158 164/164/156
f 224/224/14 164/164/156 222/222/201
f 175/175/167 221/221/202 225/225/11
f 175/175/167 225/225/11 213/213/10
f 223/223/202 162/162/154 12/12/12
f 223/223/202 12/12/12 11/11/11
f 151/151/146 226/226/203 18/18/18
f 151/151/146 18/18/18 17/17/17
f 226/226/203 227/227/151 19/19/19
f 226/226/203 19/19/19 18/18/18
f 228/228/149 229/229/204 45/45/43
f 228/228/149 45/45/43 48/48/46
f 229/229/204 147/147/142 46/46/44
f 229/229/204 46/46/44 45/45/43
f 230/230/150 231/231/205 229/229/204
f 230/230/150 229/229/204 228/228/149
f 231/231/205 149/149/144 147/147/142
f 231/231/205 147/147/142 229/229/204
f 227/227/151 226/226/203 231/231/205
f 227/227/151 231/231/205 230/230/150
f 226/226/203 151/151/146 149/149/144
f 226/226/203 149/149/144 231/231/205
f 48/48/46 47/47/45 21/21/21
f 48/48/46 21/21/21 20/20/20
f 47/47/45 46/46/44 22/22/22
f 47/47/45 22/22/22 21/21/21
f 33/33/33 35/35/35 232/232/206
f 33/33/33 232/232/206 29/29/29
f 40/40/39 32/32/32 24/24/24
f 40/40/39 24/24/24 23/23/23
f 28/28/28 27/27/27 146/146/30
f 28/28/28 146/146/30 44/44/42
f 25/25/25 24/24/24 27/27/27
f 25/25/25 27/27/27 26/26/26
f 233/233/207 234/234/208 235/235/209
f 233/233/207 235/235/209 236/236/210
f 237/237/211 233/233/207 236/236/210
f 237/237/211 236/236/210 238/238/212
f 239/239/213 237/237/211 238/238/212
f 239/239/213 238/238/212 240/240/214
f 234/234/208 241/241/215 242/242/216
f 234/234/208 242/242/216 235/235/209
f 243/243/217 244/244/218 245/245/219
f 243/243/217 245/245/219 246/246/220
f 246/246/220 245/245/219 247/247/221
f 246/246/220 247/247/221 248/248/222
f 249/249/223 243/243/217 246/246/220
f 249/249/223 246/246/220 250/250/224
f 250/250/224 246/246/220 248/248/222
f 250/250/224 248/248/222 251/251/225
f 252/252/226 249/249/223 250/250/224
f 252/252/226 250/250/224 253/253/227
f 253/253/227 250/250/224 251/251/225
f 253/253/227 251/251/225 254/254/228
f 244/244/218 243/243/217 255/255/229
f 244/244/218 255/255/229 256/256/230
f 256/256/230 255/255/229 257/257/231
f 256/256/230 257/257/231 97/97/94
f 243/243/217 249/249/223 258/258/232
f 243/243/217 258/258/232 255/255/229
f 255/255/229 258/258/232 259/259/233
f 255/255/229 259/259/233 257/257/231
f 249/249/223 252/252/226 260/260/234
f 249/249/223 260/260/234 258/258/232
f 258/258/232 260/260/234 100/100/97
f 258/258/232 100/100/97 259/259/233
f 97/97/94 257/257/231 261/261/235
f 97/97/94 261/261/235 262/262/236
f 262/262/236 261/261/235 240/240/214
f 262/262/236 240/240/214 263/263/237
f 257/257/231 259/259/233 264/264/238
f 257/257/231 264/264/238 261/261/235
f 261/261/235 264/264/238 239/239/213
f 261/261/235 239/239/213 240/240/214
f 259/259/233 100/100/97 265/265/239
f 259/259/233 265/265/239 264/264/238
f 264/264/238 265/265/239 266/266/240
f 264/264/238 266/266/240 239/239/213
f 251/251/225 248/248/222 267/267/241
f 251/251/225 267/267/241 268/268/242
f 268/268/242 267/267/241 269/269/243
f 268/268/242 269/269/243 270/270/78
f 248/248/222 247/247/221 271/271/244
f 248/248/222 271/271/244 267/267/241
f 272/272/241 273/273/244 87/87/85
f 272/272/241 87/87/85 77/77/75
f 254/254/228 251/251/225 268/268/242
f 254/254/228 268/268/242 274/274/245
f 274/274/245 268/268/242 270/270/78
f 274/274/245 270/270/78 83/83/81
f 97/97/94 262/262/236 275/275/246
f 97/97/94 275/275/246 276/276/247
f 276/276/247 275/275/246 277/277/248
f 276/276/247 277/277/248 278/278/249
f 278/278/249 277/277/248 279/279/70
f 278/278/249 279/279/70 280/280/250
f 281/281/246 282/282/251 283/283/252
f 281/281/246 283/283/252 284/284/253
f 284/284/253 283/283/252 70/70/68
f 284/284/253 70/70/68 72/72/70
f 265/265/239 100/100/97 285/285/254
f 265/265/239 285/285/254 282/282/251
f 282/282/251 285/285/254 286/286/255
f 282/282/251 286/286/255 283/283/252
f 283/283/252 286/286/255 287/287/256
f 283/283/252 287/287/256 70/70/68
f 54/54/52 56/56/54 288/288/257
f 54/54/52 288/288/257 289/289/258
f 289/289/258 288/288/257 234/234/208
f 289/289/258 234/234/208 233/233/207
f 263/263/237 240/240/214 290/290/259
f 263/263/237 290/290/259 291/291/260
f 291/291/260 290/290/259 292/292/261
f 291/291/260 292/292/261 293/293/262
f 293/293/262 292/292/261 294/294/263
f 293/293/262 294/294/263 295/295/264
f 238/238/212 236/236/210 296/296/265
f 238/238/212 296/296/265 297/297/266
f 297/297/266 296/296/265 298/298/267
f 297/297/266 298/298/267 299/299/268
f 299/299/268 298/298/267 300/300/60
f 299/299/268 300/300/60 301/301/269
f 239/239/213 266/266/240 302/302/270
f 239/239/213 302/302/270 303/303/271
f 303/303/271 302/302/270 304/304/272
f 303/303/271 304/304/272 305/305/273
f 305/305/273 304/304/272 69/69/67
f 305/305/273 69/69/67 306/306/274
f 236/236/210 235/235/209 307/307/275
f 236/236/210 307/307/275 296/296/265
f 296/296/265 307/307/275 308/308/276
f 296/296/265 308/308/276 298/298/267
f 298/298/267 308/308/276 309/309/277
f 298/298/267 309/309/277 300/300/60
f 306/306/274 310/310/278 311/311/279
f 306/306/274 311/311/279 305/305/273
f 305/305/273 311/311/279 312/312/280
f 305/305/273 312/312/280 303/303/271
f 303/303/271 312/312/280 237/237/211
f 303/303/271 237/237/211 239/239/213
f 235/235/209 242/242/216 313/313/281
f 235/235/209 313/313/281 307/307/275
f 307/307/275 313/313/281 59/59/57
f 307/307/275 59/59/57 308/308/276
f 308/308/276 59/59/57 314/314/282
f 308/308/276 314/314/282 309/309/277
f 310/310/278 102/102/98 54/54/52
f 310/310/278 54/54/52 311/311/279
f 311/311/279 54/54/52 289/289/258
f 311/311/279 289/289/258 312/312/280
f 312/312/280 289/289/258 233/233/207
f 312/312/280 233/233/207 237/237/211
f 242/242/216 241/241/215 315/315/283
f 242/242/216 315/315/283 313/313/281
f 313/313/281 315/315/283 57/57/55
f 313/313/281 57/57/55 59/59/57
f 240/240/214 238/238/212 297/297/266
f 240/240/214 297/297/266 290/290/259
f 290/290/259 297/297/266 299/299/268
f 290/290/259 299/299/268 292/292/261
f 292/292/261 299/299/268 301/301/269
f 292/292/261 301/301/269 294/294/263
f 105/105/101 316/316/284 57/57/55
f 105/105/101 57/57/55 56/56/54
f 56/56/54 57/57/55 315/315/283
f 56/56/54 315/315/283 288/288/257
f 288/288/257 315/315/283 241/241/215
f 288/288/257 241/241/215 234/234/208
f 82/82/80 84/84/82 86/86/84
f 82/82/80 86/86/84 85/85/83
f 84/84/82 83/83/81 94/94/92
f 84/84/82 94/94/92 91/91/89
f 87/87/85 86/86/84 88/88/86
f 87/87/85 88/88/86 92/92/90
f 245/245/219 244/244/218 317/317/285
f 245/245/219 317/317/285 318/318/286
f 319/319/287 320/320/285 321/321/288
f 319/319/287 321/321/288 322/322/289
f 322/322/289 321/321/288 252/252/226
f 322/322/289 252/252/226 253/253/227
f 247/247/221 245/245/219 318/318/286
f 247/247/221 318/318/286 323/323/290
f 324/324/290 319/319/287 322/322/289
f 324/324/290 322/322/289 325/325/291
f 325/325/291 322/322/289 253/253/227
f 325/325/291 253/253/227 254/254/228
f 260/260/234 252/252/226 321/321/288
f 260/260/234 321/321/288 326/326/292
f 326/326/292 321/321/288 320/320/285
f 326/326/292 320/320/285 327/327/293
f 328/328/293 317/317/285 244/244/218
f 328/328/293 244/244/218 256/256/230
f 327/327/293 73/73/71 75/75/73
f 327/327/293 75/75/73 326/326/292
f 256/256/230 97/97/94 329/329/71
f 256/256/230 329/329/71 328/328/293
f 326/326/292 75/75/73 100/100/97
f 326/326/292 100/100/97 260/260/234
f 271/271/244 247/247/221 323/323/290
f 271/271/244 323/323/290 330/330/294
f 331/331/294 324/324/290 325/325/291
f 331/331/294 325/325/291 332/332/295
f 332/332/295 325/325/291 254/254/228
f 332/332/295 254/254/228 274/274/245
f 87/87/85 273/273/244 331/331/294
f 87/87/85 331/331/294 85/85/83
f 85/85/83 331/331/294 332/332/295
f 85/85/83 332/332/295 82/82/80
f 82/82/80 332/332/295 274/274/245
f 82/82/80 274/274/245 83/83/81
f 266/266/240 265/265/239 333/333/296
f 266/266/240 333/333/296 334/334/297
f 334/334/297 333/333/296 335/335/298
f 334/334/297 335/335/298 336/336/299
f 337/337/299 338/338/298 262/262/236
f 337/337/299 262/262/236 263/263/237
f 333/333/296 339/339/300 340/340/301
f 333/333/296 340/340/301 335/335/298
f 265/265/239 282/282/251 339/339/300
f 265/265/239 339/339/300 333/333/296
f 338/338/298 341/341/301 275/275/246
f 338/338/298 275/275/246 262/262/236
f 282/282/251 281/281/246 340/340/301
f 282/282/251 340/340/301 339/339/300
f 336/336/299 63/63/61 65/65/63
f 336/336/299 65/65/63 334/334/297
f 263/263/237 291/291/260 342/342/302
f 263/263/237 342/342/302 337/337/299
f 334/334/297 65/65/63 302/302/270
f 334/334/297 302/302/270 266/266/240
f 306/306/274 69/69/67 66/66/64
f 306/306/274 66/66/64 343/343/303
f 343/343/303 66/66/64 68/68/66
f 343/343/303 68/68/66 344/344/263
f 344/344/263 345/345/269 346/346/304
f 344/344/263 346/346/304 343/343/303
f 343/343/303 346/346/304 310/310/278
f 343/343/303 310/310/278 306/306/274
f 345/345/269 62/62/60 103/103/99
f 345/345/269 103/103/99 346/346/304
f 346/346/304 103/103/99 102/102/98
f 346/346/304 102/102/98 310/310/278
f 60/60/58 347/347/282 348/348/305
f 60/60/58 348/348/305 106/106/102
f 106/106/102 348/348/305 316/316/284
f 106/106/102 316/316/284 105/105/101
f 105/105/101 56/56/54 55/55/53
f 105/105/101 55/55/53 104/104/100
f 104/104/100 55/55/53 54/54/52
f 104/104/100 54/54/52 102/102/98
f 314/314/282 59/59/57 58/58/56
f 314/314/282 58/58/56 348/348/305
f 348/348/305 58/58/56 57/57/55
f 348/348/305 57/57/55 316/316/284
f 304/304/272 302/302/270 349/349/306
f 304/304/272 349/349/306 350/350/307
f 351/351/307 352/352/306 291/291/260
f 351/351/307 291/291/260 293/293/262
f 69/69/67 304/304/272 350/350/307
f 69/69/67 350/350/307 67/67/65
f 353/353/65 351/351/307 293/293/262
f 353/353/65 293/293/262 295/295/264
f 302/302/270 65/65/63 64/64/62
f 302/302/270 64/64/62 349/349/306
f 352/352/306 354/354/62 342/342/302
f 352/352/306 342/342/302 291/291/260
f 280/280/250 279/279/70 355/355/69
f 280/280/250 355/355/69 356/356/308
f 357/357/308 71/71/69 70/70/68
f 357/357/308 70/70/68 287/287/256
f 285/285/254 100/100/97 99/99/96
f 285/285/254 99/99/96 358/358/309
f 359/359/310 98/98/95 97/97/94
f 359/359/310 97/97/94 276/276/247
f 286/286/255 285/285/254 358/358/309
f 286/286/255 358/358/309 360/360/311
f 361/361/311 359/359/310 276/276/247
f 361/361/311 276/276/247 278/278/249
f 287/287/256 286/286/255 360/360/311
f 287/287/256 360/360/311 357/357/308
f 356/356/308 361/361/311 278/278/249
f 356/356/308 278/278/249 280/280/250
f 100/100/97 75/75/73 74/74/72
f 100/100/97 74/74/72 101/101/93
f 96/96/93 362/362/72 329/329/71
f 96/96/93 329/329/71 97/97/94
f 86/86/84 84/84/82 90/90/88
f 86/86/84 90/90/88 89/89/87
f 92/92/90 78/78/76 77/77/75
f 92/92/90 77/77/75 87/87/85
f 95/95/77 94/94/92 83/83/81
f 95/95/77 83/83/81 270/270/78
f 76/76/74 81/81/79 80/80/78
f 76/76/74 80/80/78 363/363/312
