# Blender 3.6.4
# www.blender.org
mtllib eye1.mtl
o new_animetest_new_animetest_0
v -0.057393 1.813424 0.067313
v -0.058514 1.811901 0.067285
v -0.054276 1.810845 0.067338
v -0.054371 1.813300 0.067347
v -0.055413 1.816486 0.067351
v -0.059141 1.815893 0.067305
v -0.061494 1.814628 0.067248
v -0.047785 1.817937 0.067356
v -0.046772 1.821699 0.067356
v -0.051819 1.821277 0.067357
v -0.050791 1.817493 0.067357
v -0.049494 1.813744 0.067355
v -0.045228 1.816510 0.067352
v -0.042796 1.820259 0.067352
v -0.052412 1.838017 0.067357
v -0.049811 1.835954 0.067357
v -0.047338 1.838684 0.067357
v -0.052038 1.840640 0.067357
v -0.055171 1.836453 0.067357
v -0.052465 1.835095 0.067357
v -0.057198 1.839513 0.067357
v -0.057319 1.832944 0.067357
v -0.052686 1.831575 0.067357
v -0.047822 1.832845 0.067357
v -0.069117 1.831510 0.066423
v -0.069550 1.824660 0.066429
v -0.070410 1.824609 0.066735
v -0.070231 1.831656 0.066664
v -0.067774 1.839729 0.066605
v -0.066769 1.839182 0.066425
v -0.069244 1.831452 0.067350
v -0.066987 1.839192 0.067343
v -0.060859 1.846124 0.067237
v -0.061302 1.846810 0.066493
v -0.060647 1.845955 0.066386
v -0.051676 1.848675 0.067231
v -0.051602 1.849501 0.066566
v -0.051617 1.848502 0.066376
v -0.042860 1.844722 0.067271
v -0.042306 1.845409 0.066793
v -0.042705 1.844750 0.066436
v -0.037452 1.837894 0.067303
v -0.036561 1.838251 0.066925
v -0.037074 1.837863 0.066395
v -0.035087 1.830650 0.067280
v -0.034066 1.830724 0.066942
v -0.034646 1.830493 0.066337
v -0.034727 1.823757 0.067299
v -0.033630 1.823573 0.066945
v -0.034293 1.823449 0.066326
v -0.035659 1.816382 0.067221
v -0.034666 1.815847 0.066850
v -0.035375 1.815988 0.066318
v -0.039596 1.808935 0.066867
v -0.040209 1.809491 0.066321
v -0.040209 1.809851 0.067235
v -0.047360 1.806429 0.067260
v -0.047135 1.805392 0.066878
v -0.047440 1.806268 0.066326
v -0.054299 1.805428 0.067200
v -0.054312 1.804386 0.066725
v -0.054366 1.805393 0.066317
v -0.061645 1.806306 0.067045
v -0.062419 1.804876 0.066395
v -0.061711 1.806308 0.066278
v -0.066361 1.811789 0.067150
v -0.067203 1.811333 0.066474
v -0.066397 1.811848 0.066204
v -0.069001 1.817928 0.067270
v -0.070011 1.817728 0.066633
v -0.068989 1.818006 0.066334
v -0.069594 1.824594 0.067349
v -0.067784 1.818206 0.067272
v -0.068442 1.824577 0.067348
v -0.068077 1.831187 0.067354
v -0.067225 1.824563 0.067349
v -0.066850 1.830901 0.067356
v -0.064877 1.837761 0.067355
v -0.065949 1.838500 0.067350
v -0.059699 1.844090 0.067351
v -0.060257 1.845179 0.067340
v -0.051758 1.846326 0.067350
v -0.051697 1.847567 0.067339
v -0.044215 1.842913 0.067353
v -0.043488 1.843854 0.067342
v -0.039501 1.836929 0.067353
v -0.038423 1.837454 0.067344
v -0.037419 1.830426 0.067354
v -0.036217 1.830560 0.067345
v -0.037018 1.824124 0.067349
v -0.035858 1.823939 0.067341
v -0.037948 1.817709 0.067330
v -0.036805 1.817015 0.067316
v -0.041651 1.811884 0.067337
v -0.040880 1.810816 0.067327
v -0.047953 1.808764 0.067350
v -0.047640 1.807568 0.067342
v -0.054275 1.807786 0.067328
v -0.054291 1.806590 0.067322
v -0.060249 1.808778 0.067249
v -0.060953 1.807527 0.067240
v -0.064221 1.813036 0.067184
v -0.065304 1.812402 0.067165
v -0.066543 1.818497 0.067278
v -0.063026 1.813743 0.067211
v -0.065056 1.818846 0.067291
v -0.065826 1.824556 0.067351
v -0.063299 1.819242 0.067308
v -0.064067 1.824554 0.067353
v -0.063785 1.830136 0.067357
v -0.065476 1.830560 0.067357
v -0.062269 1.835979 0.067357
v -0.063689 1.836937 0.067356
v -0.058223 1.841329 0.067357
v -0.059013 1.842824 0.067356
v -0.051926 1.843044 0.067357
v -0.051834 1.844766 0.067356
v -0.046111 1.840343 0.067357
v -0.045083 1.841723 0.067356
v -0.042339 1.835483 0.067357
v -0.040810 1.836282 0.067356
v -0.040581 1.830003 0.067357
v -0.038831 1.830251 0.067356
v -0.040147 1.824546 0.067355
v -0.038420 1.824326 0.067353
v -0.040726 1.819211 0.067345
v -0.039198 1.818422 0.067338
v -0.043613 1.814508 0.067346
v -0.042571 1.813100 0.067341
v -0.048806 1.811634 0.067355
v -0.048324 1.810071 0.067353
v -0.054259 1.809120 0.067332
v -0.059500 1.810109 0.067262
v -0.042371 1.824806 0.067356
v -0.042815 1.829667 0.067357
v -0.046734 1.829045 0.067357
v -0.046458 1.825154 0.067357
v -0.052380 1.828352 0.067357
v -0.052135 1.824918 0.067357
v -0.057798 1.828837 0.067357
v -0.057589 1.824697 0.067357
v -0.056801 1.820534 0.067355
v -0.061789 1.824565 0.067354
v -0.060923 1.819780 0.067333
v -0.061669 1.829620 0.067357
v -0.060478 1.834762 0.067357
v -0.044338 1.834476 0.067357
vn -0.0126 -0.0071 0.9999
vn -0.0154 -0.0052 0.9999
vn -0.0076 -0.0039 1.0000
vn -0.0051 -0.0034 1.0000
vn -0.0063 -0.0032 1.0000
vn -0.0136 -0.0098 0.9999
vn -0.0166 -0.0139 0.9998
vn 0.0007 -0.0003 1.0000
vn 0.0006 -0.0004 1.0000
vn -0.0002 -0.0001 1.0000
vn -0.0003 -0.0004 1.0000
vn -0.0004 -0.0006 1.0000
vn 0.0017 -0.0010 1.0000
vn 0.0019 -0.0011 1.0000
vn -0.0000 -0.0000 1.0000
vn -0.2063 0.0392 -0.9777
vn -0.3353 0.0030 -0.9421
vn -0.9987 -0.0156 -0.0493
vn -0.9778 0.1693 -0.1236
vn -0.8442 0.4951 -0.2052
vn -0.1350 0.0766 -0.9879
vn -0.2942 0.0530 0.9543
vn -0.2756 0.1648 0.9471
vn -0.2063 0.3439 0.9161
vn -0.4960 0.8197 -0.2864
vn -0.0541 0.0827 -0.9951
vn 0.0270 0.3698 0.9287
vn 0.0752 0.9782 -0.1934
vn 0.0153 0.1865 -0.9823
vn 0.1601 0.2177 0.9628
vn 0.5913 0.7949 0.1361
vn 0.2498 0.3399 -0.9067
vn 0.1782 0.0990 0.9790
vn 0.8230 0.4651 0.3262
vn 0.5538 0.3184 -0.7694
vn 0.1812 0.0347 0.9828
vn 0.9023 0.1807 0.3914
vn 0.6888 0.1363 -0.7121
vn 0.1731 -0.0111 0.9848
vn 0.9082 -0.0392 0.4166
vn 0.6854 -0.0336 -0.7274
vn 0.1736 -0.0730 0.9821
vn 0.8417 -0.3452 0.4152
vn 0.5537 -0.2343 -0.7990
vn 0.6155 -0.7333 0.2889
vn 0.3484 -0.4331 -0.8313
vn 0.1311 -0.1502 0.9799
vn 0.0589 -0.1953 0.9790
vn 0.2913 -0.9466 0.1381
vn 0.1426 -0.4920 -0.8589
vn -0.0123 -0.2610 0.9653
vn 0.0325 -0.9988 0.0371
vn 0.0020 -0.3759 -0.9267
vn -0.1285 -0.2361 0.9632
vn -0.4746 -0.8794 0.0373
vn -0.0270 -0.0678 -0.9973
vn -0.2478 -0.1753 0.9528
vn -0.8610 -0.5087 0.0014
vn -0.2330 -0.1404 -0.9623
vn -0.2587 -0.0803 0.9626
vn -0.9717 -0.2341 -0.0311
vn -0.2686 -0.0493 -0.9620
vn -0.2976 -0.0110 0.9546
vn 0.0002 -0.0150 0.9999
vn -0.0002 -0.0064 1.0000
vn -0.0024 0.0004 1.0000
vn -0.0015 -0.0064 1.0000
vn -0.0013 -0.0002 1.0000
vn -0.0021 0.0015 1.0000
vn -0.0037 0.0030 1.0000
vn -0.0033 0.0058 1.0000
vn -0.0256 0.0415 0.9988
vn 0.0004 0.0062 1.0000
vn 0.0039 0.0506 0.9987
vn 0.0034 0.0047 1.0000
vn 0.0216 0.0289 0.9993
vn 0.0045 0.0026 1.0000
vn 0.0194 0.0108 0.9998
vn 0.0049 0.0006 1.0000
vn 0.0310 0.0056 0.9995
vn 0.0043 -0.0022 1.0000
vn 0.0213 -0.0031 0.9998
vn 0.0074 -0.0039 1.0000
vn 0.0385 -0.0158 0.9991
vn 0.0050 -0.0031 1.0000
vn 0.0283 -0.0296 0.9992
vn 0.0006 -0.0044 1.0000
vn 0.0109 -0.0359 0.9993
vn -0.0082 -0.0037 1.0000
vn -0.0075 -0.0539 0.9985
vn -0.0144 -0.0003 0.9999
vn -0.0445 -0.0574 0.9974
vn -0.0128 -0.0111 0.9999
vn -0.0099 -0.0094 0.9999
vn -0.0033 -0.0152 0.9999
vn -0.0153 -0.0126 0.9998
vn -0.0057 -0.0145 0.9999
vn -0.0016 -0.0057 1.0000
vn -0.0074 -0.0122 0.9999
vn -0.0010 -0.0044 1.0000
vn -0.0002 -0.0004 1.0000
vn -0.0006 -0.0005 1.0000
vn -0.0001 -0.0000 1.0000
vn -0.0001 -0.0003 1.0000
vn -0.0002 0.0001 1.0000
vn -0.0011 0.0007 1.0000
vn -0.0002 0.0002 1.0000
vn -0.0002 0.0004 1.0000
vn -0.0012 0.0018 1.0000
vn 0.0001 0.0005 1.0000
vn 0.0001 0.0023 1.0000
vn 0.0002 0.0003 1.0000
vn 0.0009 0.0012 1.0000
vn 0.0002 0.0001 1.0000
vn 0.0011 0.0006 1.0000
vn 0.0003 -0.0001 1.0000
vn 0.0010 -0.0001 1.0000
vn 0.0006 -0.0012 1.0000
vn 0.0014 -0.0016 1.0000
vn 0.0027 -0.0020 1.0000
vn 0.0041 -0.0026 1.0000
vn 0.0027 -0.0014 1.0000
vn 0.0028 -0.0013 1.0000
vn -0.0003 -0.0011 1.0000
vn -0.0002 -0.0018 1.0000
vn -0.0083 -0.0033 1.0000
vn -0.0155 -0.0027 0.9999
vn 0.0003 -0.0006 1.0000
vn -0.0000 -0.0001 1.0000
vn 0.0002 -0.0003 1.0000
vn 0.0001 -0.0000 1.0000
vn 0.0001 -0.0002 1.0000
vn 0.0001 -0.0001 1.0000
vn 0.0002 -0.0002 1.0000
vn -0.0002 -0.0002 1.0000
vn -0.0004 -0.0003 1.0000
vn -0.0025 -0.0014 1.0000
vn -0.0006 -0.0025 1.0000
vn -0.0058 -0.0078 1.0000
vn 0.0001 0.0001 1.0000
vn -0.0001 -0.0005 1.0000
vn -0.0002 0.0003 1.0000
vn -0.0000 0.0004 1.0000
vt 0.805380 0.565418
vt 0.815756 0.542247
vt 0.858463 0.584417
vt 0.828177 0.600173
vt 0.782546 0.609234
vt 0.764021 0.560119
vt 0.763408 0.523050
vt 0.817809 0.710814
vt 0.779790 0.748981
vt 0.750069 0.684850
vt 0.802476 0.671582
vt 0.856509 0.661361
vt 0.852511 0.731582
vt 0.824496 0.787034
vt 0.546383 0.790469
vt 0.588426 0.808455
vt 0.571851 0.856693
vt 0.517486 0.812366
vt 0.546297 0.746628
vt 0.580877 0.770337
vt 0.496109 0.742962
vt 0.573207 0.696792
vt 0.621298 0.743933
vt 0.639146 0.811982
vt 0.483832 0.519299
vt 0.574047 0.465317
vt 0.580461 0.476329
vt 0.494955 0.530592
vt 0.415912 0.618187
vt 0.402802 0.612108
vt 0.506651 0.542878
vt 0.431140 0.625181
vt 0.392487 0.745085
vt 0.377226 0.744774
vt 0.364125 0.746396
vt 0.423315 0.868727
vt 0.410992 0.876614
vt 0.401522 0.883598
vt 0.526198 0.950438
vt 0.520238 0.963049
vt 0.516270 0.973167
vt 0.645849 0.972643
vt 0.647074 0.986928
vt 0.647915 0.998047
vt 0.751710 0.953070
vt 0.757909 0.966764
vt 0.763009 0.977489
vt 0.839377 0.909364
vt 0.849948 0.921881
vt 0.858664 0.931002
vt 0.921068 0.844451
vt 0.935319 0.852602
vt 0.945937 0.858017
vt 0.982684 0.745820
vt 0.995099 0.746012
vt 0.966709 0.744748
vt 0.959472 0.635643
vt 0.974475 0.630924
vt 0.988554 0.627239
vt 0.923467 0.544848
vt 0.936880 0.535733
vt 0.949241 0.527655
vt 0.859842 0.470176
vt 0.871817 0.450945
vt 0.880022 0.436378
vt 0.767713 0.444357
vt 0.769288 0.427820
vt 0.770631 0.414233
vt 0.674985 0.452859
vt 0.670687 0.436765
vt 0.666994 0.422636
vt 0.587537 0.488864
vt 0.679221 0.469548
vt 0.595683 0.503044
vt 0.518320 0.554771
vt 0.604275 0.517987
vt 0.530540 0.567414
vt 0.463201 0.639680
vt 0.446783 0.632349
vt 0.424670 0.744573
vt 0.407914 0.745545
vt 0.451157 0.852738
vt 0.436602 0.861408
vt 0.540230 0.922356
vt 0.533116 0.937240
vt 0.644561 0.941149
vt 0.645058 0.957833
vt 0.738719 0.923024
vt 0.745196 0.938635
vt 0.818635 0.884273
vt 0.829077 0.897009
vt 0.888879 0.826993
vt 0.905280 0.835495
vt 0.932477 0.741847
vt 0.950532 0.743517
vt 0.927165 0.644901
vt 0.943764 0.640251
vt 0.895351 0.562775
vt 0.909597 0.553829
vt 0.840572 0.501989
vt 0.850287 0.485931
vt 0.765206 0.479043
vt 0.766398 0.461475
vt 0.683587 0.486633
vt 0.764194 0.498411
vt 0.689031 0.507164
vt 0.614002 0.535195
vt 0.695830 0.531300
vt 0.626189 0.556905
vt 0.561409 0.598979
vt 0.544397 0.581528
vt 0.502772 0.658076
vt 0.481413 0.647912
vt 0.467525 0.743103
vt 0.444394 0.743955
vt 0.489451 0.829479
vt 0.469391 0.841771
vt 0.559693 0.882581
vt 0.549380 0.904103
vt 0.643732 0.896778
vt 0.644000 0.920833
vt 0.722454 0.881485
vt 0.731296 0.904570
vt 0.791615 0.849251
vt 0.806322 0.868700
vt 0.851413 0.804560
vt 0.871563 0.817203
vt 0.887601 0.736916
vt 0.911611 0.739437
vt 0.886658 0.654864
vt 0.908843 0.649670
vt 0.879413 0.572574
vt 0.830050 0.519134
vt 0.773023 0.824044
vt 0.711309 0.851825
vt 0.692149 0.799686
vt 0.740653 0.776556
vt 0.661802 0.725936
vt 0.704401 0.705666
vt 0.618640 0.662975
vt 0.669327 0.637501
vt 0.724437 0.619368
vt 0.641834 0.585015
vt 0.705299 0.563958
vt 0.582388 0.621111
vt 0.529740 0.671127
vt 0.642798 0.865600
s 1
usemtl new_animetest
f 1/1/1 2/2/2 3/3/3
f 1/1/1 3/3/3 4/4/4
f 1/1/1 4/4/4 5/5/5
f 1/1/1 5/5/5 6/6/6
f 1/1/1 6/6/6 7/7/7
f 1/1/1 7/7/7 2/2/2
f 8/8/8 9/9/9 10/10/10
f 8/8/8 10/10/10 11/11/11
f 8/8/8 11/11/11 12/12/12
f 8/8/8 12/12/12 13/13/13
f 8/8/8 13/13/13 14/14/14
f 8/8/8 14/14/14 9/9/9
s 0
f 15/15/15 16/16/15 17/17/15
f 15/15/15 17/17/15 18/18/15
f 15/15/15 19/19/15 20/20/15
f 15/15/15 20/20/15 16/16/15
f 15/15/15 18/18/15 21/21/15
f 15/15/15 21/21/15 19/19/15
f 20/20/15 19/19/15 22/22/15
f 20/20/15 22/22/15 23/23/15
f 20/20/15 23/23/15 24/24/15
f 20/20/15 24/24/15 16/16/15
s 1
f 25/25/16 26/26/17 27/27/18
f 25/25/16 27/27/18 28/28/19
f 25/25/16 28/28/19 29/29/20
f 25/25/16 29/29/20 30/30/21
f 29/29/20 28/28/19 31/31/22
f 29/29/20 31/31/22 32/32/23
f 29/29/20 32/32/23 33/33/24
f 29/29/20 33/33/24 34/34/25
f 29/29/20 34/34/25 35/35/26
f 29/29/20 35/35/26 30/30/21
f 34/34/25 33/33/24 36/36/27
f 34/34/25 36/36/27 37/37/28
f 34/34/25 37/37/28 38/38/29
f 34/34/25 38/38/29 35/35/26
f 37/37/28 36/36/27 39/39/30
f 37/37/28 39/39/30 40/40/31
f 37/37/28 40/40/31 41/41/32
f 37/37/28 41/41/32 38/38/29
f 40/40/31 39/39/30 42/42/33
f 40/40/31 42/42/33 43/43/34
f 40/40/31 43/43/34 44/44/35
f 40/40/31 44/44/35 41/41/32
f 43/43/34 42/42/33 45/45/36
f 43/43/34 45/45/36 46/46/37
f 43/43/34 46/46/37 47/47/38
f 43/43/34 47/47/38 44/44/35
f 46/46/37 45/45/36 48/48/39
f 46/46/37 48/48/39 49/49/40
f 46/46/37 49/49/40 50/50/41
f 46/46/37 50/50/41 47/47/38
f 49/49/40 48/48/39 51/51/42
f 49/49/40 51/51/42 52/52/43
f 49/49/40 52/52/43 53/53/44
f 49/49/40 53/53/44 50/50/41
f 53/53/44 52/52/43 54/54/45
f 53/53/44 54/54/45 55/55/46
f 54/54/45 52/52/43 51/51/42
f 54/54/45 51/51/42 56/56/47
f 54/54/45 56/56/47 57/57/48
f 54/54/45 57/57/48 58/58/49
f 54/54/45 58/58/49 59/59/50
f 54/54/45 59/59/50 55/55/46
f 58/58/49 57/57/48 60/60/51
f 58/58/49 60/60/51 61/61/52
f 58/58/49 61/61/52 62/62/53
f 58/58/49 62/62/53 59/59/50
f 61/61/52 60/60/51 63/63/54
f 61/61/52 63/63/54 64/64/55
f 61/61/52 64/64/55 65/65/56
f 61/61/52 65/65/56 62/62/53
f 64/64/55 63/63/54 66/66/57
f 64/64/55 66/66/57 67/67/58
f 64/64/55 67/67/58 68/68/59
f 64/64/55 68/68/59 65/65/56
f 67/67/58 66/66/57 69/69/60
f 67/67/58 69/69/60 70/70/61
f 67/67/58 70/70/61 71/71/62
f 67/67/58 71/71/62 68/68/59
f 70/70/61 69/69/60 72/72/63
f 70/70/61 72/72/63 27/27/18
f 70/70/61 27/27/18 26/26/17
f 70/70/61 26/26/17 71/71/62
f 72/72/63 69/69/60 73/73/64
f 72/72/63 73/73/64 74/74/65
f 72/72/63 74/74/65 75/75/66
f 72/72/63 75/75/66 31/31/22
f 72/72/63 31/31/22 28/28/19
f 72/72/63 28/28/19 27/27/18
f 75/75/66 74/74/65 76/76/67
f 75/75/66 76/76/67 77/77/68
f 75/75/66 77/77/68 78/78/69
f 75/75/66 78/78/69 79/79/70
f 75/75/66 79/79/70 32/32/23
f 75/75/66 32/32/23 31/31/22
f 79/79/70 78/78/69 80/80/71
f 79/79/70 80/80/71 81/81/72
f 79/79/70 81/81/72 33/33/24
f 79/79/70 33/33/24 32/32/23
f 81/81/72 80/80/71 82/82/73
f 81/81/72 82/82/73 83/83/74
f 81/81/72 83/83/74 36/36/27
f 81/81/72 36/36/27 33/33/24
f 83/83/74 82/82/73 84/84/75
f 83/83/74 84/84/75 85/85/76
f 83/83/74 85/85/76 39/39/30
f 83/83/74 39/39/30 36/36/27
f 85/85/76 84/84/75 86/86/77
f 85/85/76 86/86/77 87/87/78
f 85/85/76 87/87/78 42/42/33
f 85/85/76 42/42/33 39/39/30
f 87/87/78 86/86/77 88/88/79
f 87/87/78 88/88/79 89/89/80
f 87/87/78 89/89/80 45/45/36
f 87/87/78 45/45/36 42/42/33
f 89/89/80 88/88/79 90/90/81
f 89/89/80 90/90/81 91/91/82
f 89/89/80 91/91/82 48/48/39
f 89/89/80 48/48/39 45/45/36
f 91/91/82 90/90/81 92/92/83
f 91/91/82 92/92/83 93/93/84
f 91/91/82 93/93/84 51/51/42
f 91/91/82 51/51/42 48/48/39
f 93/93/84 92/92/83 94/94/85
f 93/93/84 94/94/85 95/95/86
f 93/93/84 95/95/86 56/56/47
f 93/93/84 56/56/47 51/51/42
f 95/95/86 94/94/85 96/96/87
f 95/95/86 96/96/87 97/97/88
f 95/95/86 97/97/88 57/57/48
f 95/95/86 57/57/48 56/56/47
f 97/97/88 96/96/87 98/98/89
f 97/97/88 98/98/89 99/99/90
f 97/97/88 99/99/90 60/60/51
f 97/97/88 60/60/51 57/57/48
f 99/99/90 98/98/89 100/100/91
f 99/99/90 100/100/91 101/101/92
f 99/99/90 101/101/92 63/63/54
f 99/99/90 63/63/54 60/60/51
f 101/101/92 100/100/91 102/102/93
f 101/101/92 102/102/93 103/103/94
f 101/101/92 103/103/94 66/66/57
f 101/101/92 66/66/57 63/63/54
f 103/103/94 102/102/93 104/104/95
f 103/103/94 104/104/95 73/73/64
f 103/103/94 73/73/64 69/69/60
f 103/103/94 69/69/60 66/66/57
f 104/104/95 102/102/93 105/105/96
f 104/104/95 105/105/96 106/106/97
f 104/104/95 106/106/97 107/107/98
f 104/104/95 107/107/98 76/76/67
f 104/104/95 76/76/67 74/74/65
f 104/104/95 74/74/65 73/73/64
f 107/107/98 106/106/97 108/108/99
f 107/107/98 108/108/99 109/109/100
f 107/107/98 109/109/100 110/110/101
f 107/107/98 110/110/101 111/111/102
f 107/107/98 111/111/102 77/77/68
f 107/107/98 77/77/68 76/76/67
s 0
f 111/111/103 110/110/104 112/112/103
f 111/111/105 112/112/105 113/113/105
s 1
f 111/111/102 113/113/106 78/78/69
f 111/111/102 78/78/69 77/77/68
s 0
f 113/113/107 112/112/107 114/114/107
s 1
f 113/113/106 114/114/108 115/115/109
f 113/113/106 115/115/109 80/80/71
f 113/113/106 80/80/71 78/78/69
f 115/115/109 114/114/108 116/116/110
f 115/115/109 116/116/110 117/117/111
f 115/115/109 117/117/111 82/82/73
f 115/115/109 82/82/73 80/80/71
f 117/117/111 116/116/110 118/118/112
f 117/117/111 118/118/112 119/119/113
f 117/117/111 119/119/113 84/84/75
f 117/117/111 84/84/75 82/82/73
f 119/119/113 118/118/112 120/120/114
f 119/119/113 120/120/114 121/121/115
f 119/119/113 121/121/115 86/86/77
f 119/119/113 86/86/77 84/84/75
f 121/121/115 120/120/114 122/122/116
f 121/121/115 122/122/116 123/123/117
f 121/121/115 123/123/117 88/88/79
f 121/121/115 88/88/79 86/86/77
f 123/123/117 122/122/116 124/124/118
f 123/123/117 124/124/118 125/125/119
f 123/123/117 125/125/119 90/90/81
f 123/123/117 90/90/81 88/88/79
f 125/125/119 124/124/118 126/126/120
f 125/125/119 126/126/120 127/127/121
f 125/125/119 127/127/121 92/92/83
f 125/125/119 92/92/83 90/90/81
f 127/127/121 126/126/120 128/128/122
f 127/127/121 128/128/122 129/129/123
f 127/127/121 129/129/123 94/94/85
f 127/127/121 94/94/85 92/92/83
f 129/129/123 128/128/122 130/130/124
f 129/129/123 130/130/124 131/131/125
f 129/129/123 131/131/125 96/96/87
f 129/129/123 96/96/87 94/94/85
f 131/131/125 130/130/124 3/3/3
f 131/131/125 3/3/3 132/132/126
f 131/131/125 132/132/126 98/98/89
f 131/131/125 98/98/89 96/96/87
f 132/132/126 3/3/3 2/2/2
f 132/132/126 2/2/2 133/133/127
f 132/132/126 133/133/127 100/100/91
f 132/132/126 100/100/91 98/98/89
f 133/133/127 2/2/2 7/7/7
f 133/133/127 7/7/7 105/105/96
f 133/133/127 105/105/96 102/102/93
f 133/133/127 102/102/93 100/100/91
f 130/130/124 128/128/122 13/13/13
f 130/130/124 13/13/13 12/12/12
f 130/130/124 12/12/12 4/4/4
f 130/130/124 4/4/4 3/3/3
f 128/128/122 126/126/120 14/14/14
f 128/128/122 14/14/14 13/13/13
f 126/126/120 124/124/118 134/134/128
f 126/126/120 134/134/128 14/14/14
s 0
f 134/134/129 135/135/129 136/136/129
f 134/134/130 136/136/131 137/137/131
f 134/134/132 137/137/132 9/9/132
s 1
f 134/134/128 9/9/9 14/14/14
f 134/134/128 124/124/118 122/122/116
s 0
f 134/134/133 122/122/133 135/135/133
f 137/137/15 136/136/15 138/138/15
f 137/137/15 138/138/15 139/139/15
f 137/137/15 139/139/15 10/10/15
f 137/137/134 10/10/134 9/9/134
f 139/139/15 138/138/15 140/140/15
f 139/139/15 140/140/15 141/141/135
s 1
f 139/139/135 141/141/136 142/142/137
f 139/139/135 142/142/137 10/10/10
f 142/142/137 5/5/5 11/11/11
f 142/142/137 11/11/11 10/10/10
f 142/142/137 141/141/136 143/143/138
f 142/142/137 143/143/138 144/144/139
f 142/142/137 144/144/139 6/6/6
f 142/142/137 6/6/6 5/5/5
f 144/144/139 143/143/138 109/109/100
f 144/144/139 109/109/100 108/108/99
f 144/144/139 108/108/99 7/7/7
f 144/144/139 7/7/7 6/6/6
f 143/143/138 141/141/136 140/140/140
f 143/143/138 140/140/140 145/145/141
f 143/143/138 145/145/141 110/110/101
f 143/143/138 110/110/101 109/109/100
s 0
f 145/145/15 140/140/15 22/22/15
f 145/145/15 22/22/15 146/146/15
f 145/145/15 146/146/15 112/112/15
f 145/145/15 112/112/15 110/110/104
f 146/146/15 22/22/15 19/19/15
f 146/146/15 19/19/15 21/21/15
f 146/146/15 21/21/15 114/114/15
f 146/146/15 114/114/142 112/112/15
f 140/140/15 138/138/15 23/23/15
f 140/140/15 23/23/15 22/22/15
f 138/138/15 136/136/15 24/24/15
f 138/138/15 24/24/15 23/23/15
f 136/136/15 135/135/15 147/147/15
f 136/136/15 147/147/15 24/24/15
f 147/147/15 17/17/15 16/16/15
f 147/147/15 16/16/15 24/24/15
f 147/147/131 135/135/131 122/122/131
f 147/147/15 122/122/15 120/120/15
f 147/147/15 120/120/15 118/118/15
f 147/147/15 118/118/15 17/17/15
f 118/118/15 116/116/15 18/18/15
f 118/118/112 18/18/15 17/17/15
f 116/116/15 114/114/15 21/21/15
f 116/116/143 21/21/15 18/18/15
s 1
f 108/108/99 106/106/97 105/105/96
f 108/108/99 105/105/96 7/7/7
f 12/12/12 11/11/11 5/5/5
f 12/12/12 5/5/5 4/4/4
