# Blender 3.6.4
# www.blender.org
mtllib eye2.mtl
o new_animetest_new_animetest_0
v 0.057393 1.813424 0.067313
v 0.054371 1.813300 0.067347
v 0.054276 1.810845 0.067338
v 0.058514 1.811901 0.067285
v 0.059141 1.815893 0.067305
v 0.055413 1.816486 0.067351
v 0.061494 1.814628 0.067248
v 0.047785 1.817937 0.067356
v 0.050791 1.817493 0.067357
v 0.051819 1.821277 0.067357
v 0.046772 1.821699 0.067356
v 0.045288 1.816520 0.067352
v 0.049494 1.813744 0.067355
v 0.042998 1.820320 0.067352
v 0.052412 1.838017 0.067357
v 0.052038 1.840640 0.067357
v 0.047338 1.838684 0.067357
v 0.049811 1.835954 0.067357
v 0.052465 1.835095 0.067357
v 0.055171 1.836453 0.067357
v 0.057198 1.839513 0.067357
v 0.052686 1.831575 0.067357
v 0.057319 1.832944 0.067357
v 0.047822 1.832845 0.067357
v 0.069117 1.831510 0.066423
v 0.070230 1.831656 0.066664
v 0.070409 1.824609 0.066735
v 0.069550 1.824660 0.066429
v 0.066769 1.839182 0.066425
v 0.067774 1.839729 0.066605
v 0.066986 1.839192 0.067343
v 0.069244 1.831452 0.067350
v 0.061302 1.846810 0.066493
v 0.060859 1.846124 0.067237
v 0.060647 1.845955 0.066386
v 0.051602 1.849501 0.066566
v 0.051676 1.848675 0.067231
v 0.051617 1.848502 0.066376
v 0.042306 1.845409 0.066793
v 0.042860 1.844722 0.067271
v 0.042705 1.844750 0.066436
v 0.036803 1.838195 0.066911
v 0.037621 1.837868 0.067283
v 0.037074 1.837863 0.066395
v 0.034376 1.830726 0.066918
v 0.035277 1.830674 0.067259
v 0.034646 1.830493 0.066337
v 0.033941 1.823533 0.066912
v 0.034877 1.823718 0.067262
v 0.034293 1.823449 0.066326
v 0.035150 1.815979 0.066844
v 0.036003 1.816472 0.067204
v 0.035375 1.815988 0.066318
v 0.040209 1.809491 0.066321
v 0.039819 1.809204 0.066857
v 0.040376 1.810040 0.067220
v 0.047135 1.805392 0.066878
v 0.047359 1.806429 0.067260
v 0.047440 1.806268 0.066326
v 0.054312 1.804386 0.066725
v 0.054299 1.805428 0.067200
v 0.054366 1.805393 0.066317
v 0.062418 1.804876 0.066395
v 0.061645 1.806306 0.067045
v 0.061710 1.806308 0.066278
v 0.067203 1.811333 0.066474
v 0.066361 1.811789 0.067150
v 0.066397 1.811848 0.066204
v 0.070011 1.817728 0.066633
v 0.069000 1.817928 0.067270
v 0.068989 1.818006 0.066334
v 0.069594 1.824594 0.067349
v 0.068442 1.824577 0.067348
v 0.067784 1.818206 0.067272
v 0.068076 1.831187 0.067354
v 0.066850 1.830901 0.067356
v 0.067225 1.824563 0.067349
v 0.065949 1.838500 0.067350
v 0.064877 1.837761 0.067355
v 0.060257 1.845179 0.067340
v 0.059699 1.844090 0.067351
v 0.051697 1.847567 0.067339
v 0.051758 1.846326 0.067350
v 0.043488 1.843854 0.067342
v 0.044215 1.842913 0.067353
v 0.038569 1.837427 0.067342
v 0.039623 1.836903 0.067353
v 0.036378 1.830576 0.067339
v 0.037567 1.830436 0.067353
v 0.035993 1.823917 0.067335
v 0.037162 1.824118 0.067348
v 0.037080 1.817087 0.067311
v 0.038188 1.817763 0.067331
v 0.041046 1.810992 0.067323
v 0.041804 1.812038 0.067337
v 0.047640 1.807568 0.067342
v 0.047953 1.808764 0.067350
v 0.054290 1.806590 0.067322
v 0.054275 1.807786 0.067328
v 0.060953 1.807527 0.067240
v 0.060248 1.808778 0.067249
v 0.065304 1.812402 0.067165
v 0.064221 1.813036 0.067184
v 0.066543 1.818497 0.067278
v 0.065056 1.818846 0.067291
v 0.063025 1.813743 0.067211
v 0.065826 1.824556 0.067351
v 0.064067 1.824554 0.067353
v 0.063299 1.819242 0.067308
v 0.065476 1.830560 0.067357
v 0.063785 1.830136 0.067357
v 0.063689 1.836937 0.067356
v 0.062269 1.835979 0.067357
v 0.059013 1.842824 0.067356
v 0.058223 1.841329 0.067357
v 0.051834 1.844766 0.067356
v 0.051926 1.843044 0.067357
v 0.045083 1.841723 0.067356
v 0.046111 1.840343 0.067357
v 0.040891 1.836259 0.067356
v 0.042360 1.835477 0.067357
v 0.038965 1.830252 0.067356
v 0.040688 1.829999 0.067356
v 0.038549 1.824330 0.067352
v 0.040260 1.824559 0.067355
v 0.039419 1.818475 0.067339
v 0.040922 1.819273 0.067345
v 0.042698 1.813222 0.067341
v 0.043733 1.814607 0.067346
v 0.048324 1.810071 0.067353
v 0.048806 1.811634 0.067355
v 0.054259 1.809120 0.067332
v 0.059500 1.810109 0.067262
v 0.042518 1.824828 0.067356
v 0.046458 1.825154 0.067357
v 0.046734 1.829045 0.067357
v 0.042923 1.829655 0.067357
v 0.052135 1.824918 0.067357
v 0.052380 1.828352 0.067357
v 0.057588 1.824697 0.067357
v 0.057797 1.828837 0.067357
v 0.056801 1.820534 0.067355
v 0.060923 1.819780 0.067333
v 0.061789 1.824565 0.067354
v 0.061669 1.829620 0.067357
v 0.060478 1.834762 0.067357
v 0.044338 1.834476 0.067357
vn 0.0125 -0.0071 0.9999
vn 0.0052 -0.0034 1.0000
vn 0.0076 -0.0039 1.0000
vn 0.0154 -0.0052 0.9999
vn 0.0136 -0.0102 0.9999
vn 0.0063 -0.0032 1.0000
vn 0.0166 -0.0136 0.9998
vn -0.0006 -0.0003 1.0000
vn 0.0003 -0.0004 1.0000
vn 0.0002 -0.0001 1.0000
vn -0.0006 -0.0004 1.0000
vn -0.0016 -0.0011 1.0000
vn 0.0004 -0.0006 1.0000
vn -0.0019 -0.0011 1.0000
vn -0.0012 -0.0006 1.0000
vn -0.0000 -0.0000 1.0000
vn 0.2063 0.0392 -0.9777
vn 0.9778 0.1693 -0.1236
vn 0.9987 -0.0156 -0.0493
vn 0.3354 0.0030 -0.9421
vn 0.1350 0.0766 -0.9879
vn 0.8443 0.4951 -0.2052
vn 0.2756 0.1648 0.9470
vn 0.2942 0.0530 0.9543
vn 0.4960 0.8197 -0.2865
vn 0.2063 0.3439 0.9161
vn 0.0541 0.0827 -0.9951
vn -0.0752 0.9782 -0.1934
vn -0.0270 0.3698 0.9287
vn -0.0153 0.1865 -0.9823
vn -0.5993 0.7886 0.1374
vn -0.1625 0.2159 0.9628
vn -0.2498 0.3399 -0.9067
vn -0.7733 0.4216 0.4736
vn -0.1934 0.1036 0.9756
vn -0.6858 0.3919 -0.6133
vn -0.8291 0.1619 0.5352
vn -0.2029 0.0379 0.9785
vn -0.8656 0.1692 -0.4714
vn -0.8417 -0.0469 0.5379
vn -0.1992 -0.0140 0.9799
vn -0.8588 -0.0424 -0.5106
vn -0.6995 -0.2895 0.6534
vn -0.1911 -0.0799 0.9783
vn -0.8551 -0.3623 -0.3709
vn -0.4722 -0.5867 -0.6579
vn -0.5732 -0.6473 0.5024
vn -0.1431 -0.1563 0.9773
vn -0.3114 -0.9406 0.1353
vn -0.0630 -0.1943 0.9789
vn -0.1426 -0.4919 -0.8589
vn -0.0325 -0.9988 0.0371
vn 0.0123 -0.2609 0.9653
vn -0.0020 -0.3759 -0.9267
vn 0.4746 -0.8794 0.0373
vn 0.1285 -0.2361 0.9632
vn 0.0270 -0.0678 -0.9973
vn 0.8610 -0.5087 0.0014
vn 0.2478 -0.1753 0.9528
vn 0.2330 -0.1404 -0.9623
vn 0.9717 -0.2341 -0.0311
vn 0.2587 -0.0803 0.9626
vn 0.2689 -0.0492 -0.9619
vn 0.2976 -0.0110 0.9546
vn 0.0002 -0.0064 1.0000
vn -0.0002 -0.0150 0.9999
vn 0.0024 0.0004 1.0000
vn 0.0013 -0.0002 1.0000
vn 0.0015 -0.0064 1.0000
vn 0.0037 0.0030 1.0000
vn 0.0021 0.0015 1.0000
vn 0.0256 0.0415 0.9988
vn 0.0031 0.0053 1.0000
vn -0.0039 0.0506 0.9987
vn -0.0004 0.0061 1.0000
vn -0.0219 0.0286 0.9994
vn -0.0035 0.0047 1.0000
vn -0.0279 0.0148 0.9995
vn -0.0047 0.0025 1.0000
vn -0.0401 0.0071 0.9992
vn -0.0063 0.0008 1.0000
vn -0.0367 -0.0040 0.9993
vn -0.0072 -0.0019 1.0000
vn -0.0469 -0.0193 0.9987
vn -0.0093 -0.0045 0.9999
vn -0.0338 -0.0343 0.9988
vn -0.0057 -0.0041 1.0000
vn -0.0118 -0.0356 0.9993
vn -0.0007 -0.0041 1.0000
vn 0.0075 -0.0539 0.9985
vn 0.0082 -0.0037 1.0000
vn 0.0445 -0.0574 0.9974
vn 0.0144 -0.0003 0.9999
vn 0.0101 -0.0094 0.9999
vn 0.0128 -0.0111 0.9999
vn 0.0033 -0.0152 0.9999
vn 0.0057 -0.0145 0.9999
vn 0.0153 -0.0126 0.9998
vn 0.0016 -0.0057 1.0000
vn 0.0010 -0.0044 1.0000
vn 0.0074 -0.0122 0.9999
vn 0.0006 -0.0005 1.0000
vn 0.0002 -0.0004 1.0000
vn 0.0002 0.0001 1.0000
vn 0.0001 -0.0000 1.0000
vn 0.0001 -0.0003 1.0000
vn 0.0011 0.0007 1.0000
vn 0.0012 0.0018 1.0000
vn -0.0001 -0.0002 1.0000
vn 0.0002 0.0002 1.0000
vn -0.0001 0.0023 1.0000
vn -0.0001 0.0005 1.0000
vn -0.0009 0.0012 1.0000
vn -0.0002 0.0003 1.0000
vn -0.0013 0.0007 1.0000
vn -0.0003 0.0001 1.0000
vn -0.0014 -0.0001 1.0000
vn -0.0002 -0.0001 1.0000
vn -0.0023 -0.0015 1.0000
vn -0.0009 -0.0011 1.0000
vn -0.0041 -0.0024 1.0000
vn -0.0026 -0.0018 1.0000
vn -0.0029 -0.0015 1.0000
vn -0.0026 -0.0014 1.0000
vn 0.0002 -0.0018 1.0000
vn 0.0003 -0.0011 1.0000
vn 0.0083 -0.0033 1.0000
vn 0.0155 -0.0027 0.9999
vn -0.0008 -0.0010 1.0000
vn -0.0002 -0.0004 1.0000
vn -0.0002 -0.0000 1.0000
vn -0.0001 -0.0001 1.0000
vn -0.0000 -0.0001 1.0000
vn -0.0002 -0.0002 1.0000
vn 0.0002 -0.0002 1.0000
vn 0.0024 -0.0013 1.0000
vn 0.0004 -0.0003 1.0000
vn 0.0058 -0.0077 1.0000
vn 0.0010 -0.0022 1.0000
vn 0.0001 -0.0005 1.0000
vn -0.0001 0.0001 1.0000
vn 0.0003 0.0002 1.0000
vn 0.0002 0.0003 1.0000
vn -0.0005 -0.0002 1.0000
vn -0.0001 -0.0000 1.0000
vn -0.0000 0.0004 1.0000
vt 0.148161 0.191277
vt 0.142395 0.232440
vt 0.108280 0.231131
vt 0.128882 0.174758
vt 0.183294 0.168821
vt 0.187520 0.221139
vt 0.168017 0.135041
vt 0.199009 0.328075
vt 0.196129 0.286016
vt 0.249178 0.275642
vt 0.249700 0.346331
vt 0.176522 0.361665
vt 0.142922 0.299870
vt 0.225539 0.399836
vt 0.478469 0.284144
vt 0.513951 0.291600
vt 0.483724 0.354904
vt 0.448135 0.318363
vt 0.438680 0.280674
vt 0.459821 0.244466
vt 0.503637 0.219714
vt 0.390852 0.274064
vt 0.414200 0.210900
vt 0.403782 0.343216
vt 0.419200 0.012232
vt 0.413967 0.027194
vt 0.313474 0.014649
vt 0.314571 0.001953
vt 0.532104 0.061540
vt 0.522846 0.072636
vt 0.512065 0.085464
vt 0.408638 0.043299
vt 0.611905 0.170571
vt 0.598239 0.177370
vt 0.624443 0.166442
vt 0.637687 0.304204
vt 0.623176 0.302336
vt 0.649232 0.306475
vt 0.575821 0.429019
vt 0.565046 0.420162
vt 0.583730 0.436473
vt 0.471344 0.504786
vt 0.466350 0.491347
vt 0.475333 0.515199
vt 0.362514 0.533898
vt 0.362270 0.518869
vt 0.362483 0.545775
vt 0.260122 0.532631
vt 0.264334 0.516798
vt 0.256137 0.544601
vt 0.153345 0.506455
vt 0.162748 0.492999
vt 0.146057 0.515887
vt 0.053768 0.435614
vt 0.064911 0.430137
vt 0.078897 0.422344
vt 0.023249 0.322742
vt 0.038830 0.320600
vt 0.008945 0.325424
vt 0.016580 0.220608
vt 0.032601 0.223120
vt 0.001953 0.218583
vt 0.039194 0.116148
vt 0.058236 0.128422
vt 0.025553 0.106481
vt 0.122025 0.051442
vt 0.130512 0.065722
vt 0.115007 0.039731
vt 0.215006 0.017403
vt 0.217996 0.033791
vt 0.212309 0.003051
vt 0.312429 0.029006
vt 0.311119 0.045307
vt 0.221295 0.050689
vt 0.403168 0.059037
vt 0.397519 0.075688
vt 0.309730 0.062489
vt 0.500982 0.098627
vt 0.489268 0.112268
vt 0.584486 0.184375
vt 0.568920 0.190653
vt 0.608035 0.301394
vt 0.591172 0.299770
vt 0.553155 0.411183
vt 0.540367 0.400764
vt 0.460739 0.477617
vt 0.454063 0.462319
vt 0.361994 0.503034
vt 0.361183 0.486152
vt 0.268370 0.501227
vt 0.272371 0.485251
vt 0.173198 0.478157
vt 0.184395 0.463464
vt 0.092997 0.414321
vt 0.108608 0.405098
vt 0.055002 0.318057
vt 0.071998 0.315170
vt 0.048979 0.225316
vt 0.065681 0.227320
vt 0.073604 0.138586
vt 0.089247 0.148957
vt 0.139014 0.080639
vt 0.147595 0.096015
vt 0.224648 0.068000
vt 0.228493 0.088926
vt 0.156783 0.113096
vt 0.308279 0.082204
vt 0.306539 0.107041
vt 0.232649 0.113648
vt 0.391020 0.094369
vt 0.383089 0.117414
vt 0.476320 0.127497
vt 0.461349 0.145810
vt 0.550822 0.198520
vt 0.529543 0.207631
vt 0.570001 0.297643
vt 0.546612 0.295097
vt 0.524298 0.388168
vt 0.505783 0.373114
vt 0.445892 0.443710
vt 0.435858 0.421845
vt 0.360013 0.466296
vt 0.358147 0.441646
vt 0.276853 0.465911
vt 0.281843 0.442044
vt 0.195870 0.447216
vt 0.208687 0.427178
vt 0.126445 0.394006
vt 0.147076 0.381472
vt 0.090601 0.311655
vt 0.112882 0.306874
vt 0.084277 0.229372
vt 0.106086 0.159964
vt 0.287887 0.411311
vt 0.296867 0.354544
vt 0.350605 0.354739
vt 0.355553 0.410067
vt 0.299365 0.274959
vt 0.346542 0.275092
vt 0.301964 0.198344
vt 0.358675 0.199726
vt 0.244390 0.205488
vt 0.238031 0.147217
vt 0.304404 0.139142
vt 0.373572 0.146388
vt 0.442540 0.169129
vt 0.423383 0.393254
s 1
usemtl new_animetest
f 1/1/1 2/2/2 3/3/3
f 1/1/1 3/3/3 4/4/4
f 1/1/1 5/5/5 6/6/6
f 1/1/1 6/6/6 2/2/2
f 1/1/1 4/4/4 7/7/7
f 1/1/1 7/7/7 5/5/5
f 8/8/8 9/9/9 10/10/10
f 8/8/8 10/10/10 11/11/11
f 8/8/8 12/12/12 13/13/13
f 8/8/8 13/13/13 9/9/9
f 8/8/8 11/11/11 14/14/14
s 0
f 8/8/15 14/14/15 12/12/15
f 15/15/16 16/16/16 17/17/16
f 15/15/16 17/17/16 18/18/16
f 15/15/16 18/18/16 19/19/16
f 15/15/16 19/19/16 20/20/16
f 15/15/16 20/20/16 21/21/16
f 15/15/16 21/21/16 16/16/16
f 19/19/16 22/22/16 23/23/16
f 19/19/16 23/23/16 20/20/16
f 19/19/16 18/18/16 24/24/16
f 19/19/16 24/24/16 22/22/16
s 1
f 25/25/17 26/26/18 27/27/19
f 25/25/17 27/27/19 28/28/20
f 25/25/17 29/29/21 30/30/22
f 25/25/17 30/30/22 26/26/18
f 30/30/22 31/31/23 32/32/24
f 30/30/22 32/32/24 26/26/18
f 30/30/22 33/33/25 34/34/26
f 30/30/22 34/34/26 31/31/23
f 30/30/22 29/29/21 35/35/27
f 30/30/22 35/35/27 33/33/25
f 33/33/25 36/36/28 37/37/29
f 33/33/25 37/37/29 34/34/26
f 33/33/25 35/35/27 38/38/30
f 33/33/25 38/38/30 36/36/28
f 36/36/28 39/39/31 40/40/32
f 36/36/28 40/40/32 37/37/29
f 36/36/28 38/38/30 41/41/33
f 36/36/28 41/41/33 39/39/31
f 39/39/31 42/42/34 43/43/35
f 39/39/31 43/43/35 40/40/32
f 39/39/31 41/41/33 44/44/36
f 39/39/31 44/44/36 42/42/34
f 42/42/34 45/45/37 46/46/38
f 42/42/34 46/46/38 43/43/35
f 42/42/34 44/44/36 47/47/39
f 42/42/34 47/47/39 45/45/37
f 45/45/37 48/48/40 49/49/41
f 45/45/37 49/49/41 46/46/38
f 45/45/37 47/47/39 50/50/42
f 45/45/37 50/50/42 48/48/40
f 48/48/40 51/51/43 52/52/44
f 48/48/40 52/52/44 49/49/41
f 48/48/40 50/50/42 53/53/45
f 48/48/40 53/53/45 51/51/43
f 53/53/45 54/54/46 55/55/47
f 53/53/45 55/55/47 51/51/43
f 55/55/47 56/56/48 52/52/44
f 55/55/47 52/52/44 51/51/43
f 55/55/47 57/57/49 58/58/50
f 55/55/47 58/58/50 56/56/48
f 55/55/47 54/54/46 59/59/51
f 55/55/47 59/59/51 57/57/49
f 57/57/49 60/60/52 61/61/53
f 57/57/49 61/61/53 58/58/50
f 57/57/49 59/59/51 62/62/54
f 57/57/49 62/62/54 60/60/52
f 60/60/52 63/63/55 64/64/56
f 60/60/52 64/64/56 61/61/53
f 60/60/52 62/62/54 65/65/57
f 60/60/52 65/65/57 63/63/55
f 63/63/55 66/66/58 67/67/59
f 63/63/55 67/67/59 64/64/56
f 63/63/55 65/65/57 68/68/60
f 63/63/55 68/68/60 66/66/58
f 66/66/58 69/69/61 70/70/62
f 66/66/58 70/70/62 67/67/59
f 66/66/58 68/68/60 71/71/63
f 66/66/58 71/71/63 69/69/61
f 69/69/61 27/27/19 72/72/64
f 69/69/61 72/72/64 70/70/62
f 69/69/61 71/71/63 28/28/20
f 69/69/61 28/28/20 27/27/19
f 72/72/64 73/73/65 74/74/66
f 72/72/64 74/74/66 70/70/62
f 72/72/64 32/32/24 75/75/67
f 72/72/64 75/75/67 73/73/65
f 72/72/64 27/27/19 26/26/18
f 72/72/64 26/26/18 32/32/24
f 75/75/67 76/76/68 77/77/69
f 75/75/67 77/77/69 73/73/65
f 75/75/67 78/78/70 79/79/71
f 75/75/67 79/79/71 76/76/68
f 75/75/67 32/32/24 31/31/23
f 75/75/67 31/31/23 78/78/70
f 78/78/70 80/80/72 81/81/73
f 78/78/70 81/81/73 79/79/71
f 78/78/70 31/31/23 34/34/26
f 78/78/70 34/34/26 80/80/72
f 80/80/72 82/82/74 83/83/75
f 80/80/72 83/83/75 81/81/73
f 80/80/72 34/34/26 37/37/29
f 80/80/72 37/37/29 82/82/74
f 82/82/74 84/84/76 85/85/77
f 82/82/74 85/85/77 83/83/75
f 82/82/74 37/37/29 40/40/32
f 82/82/74 40/40/32 84/84/76
f 84/84/76 86/86/78 87/87/79
f 84/84/76 87/87/79 85/85/77
f 84/84/76 40/40/32 43/43/35
f 84/84/76 43/43/35 86/86/78
f 86/86/78 88/88/80 89/89/81
f 86/86/78 89/89/81 87/87/79
f 86/86/78 43/43/35 46/46/38
f 86/86/78 46/46/38 88/88/80
f 88/88/80 90/90/82 91/91/83
f 88/88/80 91/91/83 89/89/81
f 88/88/80 46/46/38 49/49/41
f 88/88/80 49/49/41 90/90/82
f 90/90/82 92/92/84 93/93/85
f 90/90/82 93/93/85 91/91/83
f 90/90/82 49/49/41 52/52/44
f 90/90/82 52/52/44 92/92/84
f 92/92/84 94/94/86 95/95/87
f 92/92/84 95/95/87 93/93/85
f 92/92/84 52/52/44 56/56/48
f 92/92/84 56/56/48 94/94/86
f 94/94/86 96/96/88 97/97/89
f 94/94/86 97/97/89 95/95/87
f 94/94/86 56/56/48 58/58/50
f 94/94/86 58/58/50 96/96/88
f 96/96/88 98/98/90 99/99/91
f 96/96/88 99/99/91 97/97/89
f 96/96/88 58/58/50 61/61/53
f 96/96/88 61/61/53 98/98/90
f 98/98/90 100/100/92 101/101/93
f 98/98/90 101/101/93 99/99/91
f 98/98/90 61/61/53 64/64/56
f 98/98/90 64/64/56 100/100/92
f 100/100/92 102/102/94 103/103/95
f 100/100/92 103/103/95 101/101/93
f 100/100/92 64/64/56 67/67/59
f 100/100/92 67/67/59 102/102/94
f 102/102/94 74/74/66 104/104/96
f 102/102/94 104/104/96 103/103/95
f 102/102/94 67/67/59 70/70/62
f 102/102/94 70/70/62 74/74/66
f 104/104/96 105/105/97 106/106/98
f 104/104/96 106/106/98 103/103/95
f 104/104/96 77/77/69 107/107/99
f 104/104/96 107/107/99 105/105/97
f 104/104/96 74/74/66 73/73/65
f 104/104/96 73/73/65 77/77/69
f 107/107/99 108/108/100 109/109/101
f 107/107/99 109/109/101 105/105/97
f 107/107/99 110/110/102 111/111/103
f 107/107/99 111/111/103 108/108/100
f 107/107/99 77/77/69 76/76/68
f 107/107/99 76/76/68 110/110/102
s 0
f 110/110/104 112/112/104 113/113/104
f 110/110/105 113/113/105 111/111/106
s 1
f 110/110/102 76/76/68 79/79/71
f 110/110/102 79/79/71 112/112/107
f 112/112/107 114/114/108 115/115/109
s 0
f 112/112/110 115/115/110 113/113/110
s 1
f 112/112/107 79/79/71 81/81/73
f 112/112/107 81/81/73 114/114/108
f 114/114/108 116/116/111 117/117/112
f 114/114/108 117/117/112 115/115/109
f 114/114/108 81/81/73 83/83/75
f 114/114/108 83/83/75 116/116/111
f 116/116/111 118/118/113 119/119/114
f 116/116/111 119/119/114 117/117/112
f 116/116/111 83/83/75 85/85/77
f 116/116/111 85/85/77 118/118/113
f 118/118/113 120/120/115 121/121/116
f 118/118/113 121/121/116 119/119/114
f 118/118/113 85/85/77 87/87/79
f 118/118/113 87/87/79 120/120/115
f 120/120/115 122/122/117 123/123/118
f 120/120/115 123/123/118 121/121/116
f 120/120/115 87/87/79 89/89/81
f 120/120/115 89/89/81 122/122/117
f 122/122/117 124/124/119 125/125/120
f 122/122/117 125/125/120 123/123/118
f 122/122/117 89/89/81 91/91/83
f 122/122/117 91/91/83 124/124/119
f 124/124/119 126/126/121 127/127/122
f 124/124/119 127/127/122 125/125/120
f 124/124/119 91/91/83 93/93/85
f 124/124/119 93/93/85 126/126/121
f 126/126/121 128/128/123 129/129/124
f 126/126/121 129/129/124 127/127/122
f 126/126/121 93/93/85 95/95/87
f 126/126/121 95/95/87 128/128/123
f 128/128/123 130/130/125 131/131/126
f 128/128/123 131/131/126 129/129/124
f 128/128/123 95/95/87 97/97/89
f 128/128/123 97/97/89 130/130/125
f 130/130/125 132/132/127 3/3/3
f 130/130/125 3/3/3 131/131/126
f 130/130/125 97/97/89 99/99/91
f 130/130/125 99/99/91 132/132/127
f 132/132/127 133/133/128 4/4/4
f 132/132/127 4/4/4 3/3/3
f 132/132/127 99/99/91 101/101/93
f 132/132/127 101/101/93 133/133/128
f 133/133/128 106/106/98 7/7/7
f 133/133/128 7/7/7 4/4/4
f 133/133/128 101/101/93 103/103/95
f 133/133/128 103/103/95 106/106/98
f 131/131/126 13/13/13 12/12/12
f 131/131/126 12/12/12 129/129/124
f 131/131/126 3/3/3 2/2/2
f 131/131/126 2/2/2 13/13/13
f 129/129/124 12/12/12 14/14/14
f 129/129/124 14/14/14 127/127/122
f 127/127/122 14/14/14 134/134/129
f 127/127/122 134/134/129 125/125/120
f 134/134/130 135/135/131 136/136/132
f 134/134/130 136/136/132 137/137/133
f 134/134/129 14/14/14 11/11/11
s 0
f 134/134/134 11/11/134 135/135/134
f 134/134/132 137/137/132 123/123/132
s 1
f 134/134/129 123/123/118 125/125/120
s 0
f 135/135/16 138/138/16 139/139/16
f 135/135/16 139/139/16 136/136/16
f 135/135/134 11/11/134 10/10/134
f 135/135/16 10/10/16 138/138/16
f 138/138/16 140/140/135 141/141/16
f 138/138/16 141/141/16 139/139/16
s 1
f 138/138/135 10/10/10 142/142/136
f 138/138/135 142/142/136 140/140/137
f 142/142/136 10/10/10 9/9/9
f 142/142/136 9/9/9 6/6/6
f 142/142/136 143/143/138 144/144/139
f 142/142/136 144/144/139 140/140/137
f 142/142/136 6/6/6 5/5/5
f 142/142/136 5/5/5 143/143/138
f 143/143/138 109/109/101 108/108/100
f 143/143/138 108/108/100 144/144/139
f 143/143/138 5/5/5 7/7/7
f 143/143/138 7/7/7 109/109/101
f 144/144/139 145/145/140 141/141/141
f 144/144/139 141/141/141 140/140/137
f 144/144/139 108/108/100 111/111/103
f 144/144/139 111/111/103 145/145/140
s 0
f 145/145/16 146/146/16 23/23/16
f 145/145/16 23/23/16 141/141/16
f 145/145/106 111/111/103 113/113/142
f 145/145/106 113/113/16 146/146/16
f 146/146/16 21/21/16 20/20/16
f 146/146/16 20/20/16 23/23/16
f 146/146/16 113/113/16 115/115/143
f 146/146/16 115/115/16 21/21/16
f 141/141/16 23/23/16 22/22/16
f 141/141/16 22/22/16 139/139/16
f 139/139/16 22/22/16 24/24/16
f 139/139/16 24/24/16 136/136/16
f 136/136/16 24/24/16 147/147/16
f 136/136/16 147/147/16 137/137/16
f 147/147/16 24/24/16 18/18/16
f 147/147/16 18/18/16 17/17/16
f 147/147/16 121/121/16 123/123/144
f 147/147/145 123/123/145 137/137/145
f 147/147/16 17/17/16 119/119/114
f 147/147/16 119/119/16 121/121/16
f 119/119/16 17/17/16 16/16/16
f 119/119/114 16/16/16 117/117/146
f 117/117/16 16/16/16 21/21/16
f 117/117/16 21/21/16 115/115/16
s 1
f 109/109/101 7/7/7 106/106/98
f 109/109/101 106/106/98 105/105/97
f 13/13/13 2/2/2 6/6/6
f 13/13/13 6/6/6 9/9/9
