# Blender v3.1.2 OBJ File: 'hand.blend'
# www.blender.org
o Cube
v -0.740501 -0.469109 -0.293206
v -0.178112 -1.039082 -0.149527
v -0.351349 0.207510 -0.367802
v -0.373479 0.346451 0.439165
v 0.412108 -0.941399 -0.343162
v -0.543325 0.531001 -0.762324
v -0.308209 -0.297366 -0.809361
v -0.545162 0.761265 0.770186
v -0.211143 0.125392 0.846342
v -0.641178 -0.432043 -0.785203
v -0.697120 -0.445441 -0.690151
v -1.154874 0.406869 0.784191
v -0.795937 -0.104959 0.850694
v -0.590334 0.737770 0.087814
v -0.572015 0.721793 -0.003777
v -0.749309 0.761536 0.447144
v -0.716891 0.855799 0.473825
v -0.567213 0.738971 0.478729
v -1.027503 0.729960 -0.006878
v -1.144470 0.537384 0.017407
v -1.155692 0.519231 -0.433582
v -1.006971 0.597839 -0.423418
v 0.163984 -0.687545 -0.521804
v -0.092941 -0.546687 -0.717437
v -0.142357 -0.729819 0.938441
v -0.411486 -0.838174 0.437313
v -0.636581 0.371309 -0.857665
v -1.106424 0.189218 0.798679
v -1.074019 0.177348 0.853990
v -0.997202 0.232370 0.884160
v -0.440127 0.381445 0.773257
v -1.060489 0.197641 -0.748382
v -1.017572 -0.108256 0.471186
v 0.105118 -0.485868 1.029769
v -0.280921 -0.781994 0.858765
v -0.441151 0.416700 1.086898
v -0.726769 0.110051 0.905076
v -0.553364 -0.073159 1.438355
v -0.693660 -0.040806 1.327601
v -0.709025 0.983112 1.480005
v -0.432573 1.067677 1.591811
v -0.410567 0.917635 1.670551
v -0.381841 0.993944 1.589140
v -0.586283 0.928515 1.686733
v -1.128310 0.914432 0.320575
v -0.770177 1.124079 -0.451694
v -1.066981 1.367830 -0.146173
v -1.126556 1.006354 -0.157392
v -1.009146 1.039438 -0.442177
v -0.974007 0.930823 -0.851708
v -1.083982 0.900734 -0.748283
v -0.668112 1.025694 -0.619067
v -1.034702 1.142864 -0.566772
v -0.678987 2.358313 0.733701
v -0.706073 2.190164 0.829093
v -1.006735 2.281803 0.689208
v -0.915438 2.281554 0.604539
v -0.746626 2.300766 0.600853
v -0.886372 2.287452 0.833521
v 0.170254 -0.769609 -0.544123
v 0.303221 -0.866851 -0.492190
v 0.396406 -0.902330 0.574487
v -0.132834 -0.973674 -0.486517
v 0.083566 -1.038073 0.639677
v -0.047524 -1.086454 0.570481
v -0.142639 -1.052268 -0.249959
v -0.040352 -1.272665 0.161034
v 0.011676 -1.298932 0.389093
v 0.538198 -1.883014 -0.539606
v 0.634606 -1.947562 0.458140
v 1.110421 -1.725537 0.021627
v 0.974743 -1.738677 -0.544681
v -0.643960 2.161236 0.068265
v -0.876226 2.372157 0.219132
v -0.972417 2.373244 0.086389
v -0.688762 2.020173 -0.515805
v -0.801826 1.846295 -1.017469
v -0.938453 1.653152 -0.981194
v -0.903680 1.946600 -0.830242
v -0.747577 2.350651 0.802326
v -0.721531 2.391217 0.733123
v -0.968156 2.326252 0.633638
v -0.802299 2.376968 0.628371
v -0.808659 2.410625 0.709752
v -0.890255 2.369860 0.794430
v -0.899373 2.400867 0.702845
v -0.775479 2.441123 0.038723
v -0.746182 2.391923 0.217434
v -0.959182 2.412998 0.152395
v -0.868909 2.448898 0.183850
v -0.933249 2.453612 0.077896
v -0.808171 2.251783 -0.577190
v -0.819429 2.306278 -0.502613
v -0.955034 2.262515 -0.426158
v -0.887175 2.305745 -0.510617
v -0.818110 1.974983 -0.948245
v -0.866115 1.964184 -0.976173
v -0.755519 1.931353 -0.843090
v -0.972827 1.932165 -0.879302
v -0.699371 0.999163 1.396335
v -0.638117 1.065397 1.482336
v -0.669837 0.955050 1.621717
v -0.345807 0.580571 1.580580
v -0.559543 0.633646 1.632459
v -0.350232 0.568289 1.287925
v -0.691093 0.456803 1.184646
v -0.697227 0.244850 1.419731
v -0.293314 0.392012 1.501937
v -0.306842 0.509786 1.460365
v -0.749132 0.372859 1.230615
v -0.745468 0.785612 -0.467760
v -1.022659 1.069025 -0.867970
v -0.671204 0.971005 -0.794134
v -1.037506 1.362874 -0.486028
v -0.673824 1.212500 -0.387032
v -0.750314 1.124373 -0.097488
v -1.010301 1.399317 0.013376
v -0.589911 1.249938 0.104297
v -0.693951 1.065538 0.389072
v -0.695441 1.396553 0.876506
v -1.067649 1.259203 0.532959
v -1.094744 0.373167 -0.754173
v -0.439062 0.549014 0.215249
v -0.154720 -0.177824 -0.396331
v -0.932930 -0.168729 -0.324867
v 0.257455 -0.725497 0.474274
v -0.140356 -0.180581 0.226909
v -0.514393 -0.727793 -0.252538
v 0.207049 -0.720537 -0.384621
v -0.345793 0.237706 0.851013
v -0.283293 0.233377 0.890320
v -0.808364 0.035876 0.890854
v -0.790948 0.083141 0.878820
v -0.867657 0.041542 0.864490
v -0.884273 -0.385750 0.462281
v -0.631483 0.739035 -0.455158
v -0.593965 0.705237 -0.425931
v -0.621173 0.851176 0.043519
v -0.627121 0.816039 -0.031249
v -0.588736 0.743498 0.380665
v -0.618139 0.765472 0.435544
v -0.619496 0.832470 0.480427
v -1.057147 0.658589 0.447768
v -1.151178 0.565241 0.444493
v -1.115268 0.558574 -0.431097
v -0.245706 -1.002855 0.381536
v -1.148940 0.135231 0.426051
v -0.425470 1.011907 1.406871
v -0.453732 1.027086 1.368346
v -0.383042 0.985144 1.651223
v -1.088182 1.000952 -0.754687
v -1.062239 0.961255 -0.811884
v -1.071891 1.047924 -0.565149
v -0.646612 2.262116 0.791623
v -0.678240 2.266619 0.613753
v 0.210421 -0.831465 -0.535570
v 0.258575 -0.775842 0.651642
v 0.298765 -0.868676 0.628442
v -0.077305 -0.969664 -0.531644
v 0.050374 -1.173405 -0.535689
v -0.017621 -1.063022 0.622352
v 0.931637 -1.713774 -0.590742
v 1.037708 -1.667678 -0.580189
v 1.248141 -1.705998 0.461311
v 1.220718 -1.701155 0.512865
v 0.396605 -1.895201 -0.527810
v 0.433826 -1.865334 -0.586086
v 0.495563 -1.956272 0.469207
v 0.525475 -1.940108 0.517310
v -0.720238 2.380183 0.772237
v -0.962002 2.362073 0.656033
v -0.734186 2.378955 0.637597
v -0.957047 2.328703 0.802516
v -0.946728 2.374974 0.762154
v -0.722181 2.440474 0.055859
v -0.695951 2.413098 0.184304
v -0.733390 2.453469 0.163567
v -0.924319 2.449538 0.165381
v -0.922864 2.441736 0.048584
v -0.752716 2.253973 -0.559387
v -0.725017 2.250031 -0.431419
v -0.755065 2.286408 -0.465856
v -0.788973 2.284950 -0.432620
v -0.931682 2.293178 -0.449187
v -0.936056 2.280392 -0.538346
v -0.941491 2.254029 -0.565945
v -0.758517 1.898105 -1.001950
v -0.764358 1.944158 -0.969704
v -0.940226 1.934509 -0.983459
v -0.788687 1.974673 -0.878095
v -0.941813 1.972493 -0.874778
v -0.559703 1.099042 1.453116
v -0.508455 1.098806 1.427160
v -0.692918 1.029879 1.433135
v -0.495256 1.053078 1.657967
v -0.448212 1.055879 1.651500
v -0.483981 1.081852 1.604832
v -0.629654 0.979731 1.669463
v -0.644247 1.008532 1.635278
v -0.293070 0.592383 1.552508
v -0.296205 0.633312 1.489993
v -0.377747 0.648333 1.232437
v -0.402189 0.566831 1.200577
v -0.304813 0.487564 1.513431
v -0.460266 0.545168 1.178060
v -0.377237 0.467819 1.136407
v -0.737981 0.412245 1.198540
v -1.093132 1.147695 -0.587978
v -1.086796 1.077383 -0.841136
v -1.148950 1.303635 -0.438794
v -1.143611 1.361350 -0.161847
v -1.160144 1.327216 -0.214914
v -0.532087 0.340381 -0.831169
v -0.244647 -0.208208 -0.797116
v -0.462058 -0.054935 -0.843993
v -0.502199 0.385844 0.861208
v -0.429788 0.226596 0.871210
v -0.346447 0.254693 0.779333
v -1.018124 0.189945 -0.829471
v -0.836898 -0.145973 -0.822575
v -0.886314 -0.157093 -0.727315
v -0.413347 0.232201 0.900686
v -0.594873 0.171189 0.880585
v -0.581767 0.729918 0.243234
v -0.591641 -0.682660 0.315772
v -0.639438 0.779583 -0.420992
v 0.039635 -0.564290 -0.657102
v -0.401608 -0.692984 -0.696068
v -0.486286 -0.677582 -0.621143
v -0.297283 -0.682560 -0.707059
v -0.471928 0.292755 -0.760610
v -0.954764 0.009946 0.783991
v -0.565404 0.655816 0.859290
v -0.508331 0.584300 0.766477
v -1.053447 0.366087 -0.832029
v -1.137368 0.210627 0.699245
v -0.299861 -0.696188 0.987269
v -0.458752 -0.260528 1.352267
v -0.579847 -0.264844 1.332269
v 0.001723 -0.285885 1.217347
v 0.193213 -0.659666 0.783880
v 0.106410 -0.425308 1.005190
v 0.128338 -0.712617 0.810825
v -0.153547 -0.919567 0.766262
v -0.795734 0.007270 0.984142
v -0.633187 -0.086609 1.417485
v -0.621796 -0.252588 1.266314
v -0.107977 -0.085198 1.354159
v -0.170852 0.105758 1.330548
v -0.500261 0.980653 1.332160
v -0.743870 0.605249 1.262145
v -0.625382 0.391637 0.885187
v -1.037256 1.410718 0.898196
v -1.157398 1.011831 0.608344
v -1.134338 1.062095 0.536316
v -1.046602 0.748801 0.467831
v -0.588865 0.965949 0.558197
v -1.030107 1.211886 0.360423
v -1.101396 1.049293 0.358610
v -1.104665 0.742658 0.031841
v -1.126747 0.589721 0.020773
v -0.729726 0.832292 0.021299
v -0.614199 1.179710 0.354027
v -0.589452 1.197119 0.295109
v -1.133347 0.999172 -0.356056
v -1.102025 1.123283 -0.426294
v -0.625526 0.936946 -0.356343
v -1.100628 1.165470 -0.127080
v -0.681545 1.224991 -0.146325
v -0.744873 0.751385 0.008480
v -0.614064 0.923089 -0.131028
v -0.753903 0.918756 -0.857223
v -0.692136 0.946482 -0.841053
v -0.689982 1.033314 -0.566015
v -0.712882 0.678634 -0.425904
v -0.625608 0.822769 -0.544474
v -1.118631 0.716793 -0.540904
v -0.973058 0.300267 -0.856417
v -0.659746 1.456353 0.537913
v -1.112129 1.355751 0.882956
v -1.017396 2.016925 0.843365
v -1.124623 1.533748 0.824248
v -0.612429 1.406633 0.849483
v -1.132995 1.454120 0.573908
v -0.654459 2.257922 0.654403
v -0.100306 -1.082784 0.469927
v 0.025902 -0.961335 -0.549101
v 0.018930 -0.967811 0.676682
v -0.092794 -1.070982 -0.393816
v -0.127013 -1.102871 -0.107886
v -0.147655 -1.076258 0.177599
v 0.443431 -1.704926 -0.594268
v -0.067221 -1.049322 -0.475219
v 1.169228 -1.736805 0.522377
v -0.125511 -1.028621 0.592037
v 0.219419 -0.667836 0.666540
v 0.203119 -0.823281 0.671672
v -0.025030 -0.893457 -0.569395
v 0.398753 -1.972682 0.302755
v 0.286716 -1.846230 0.299324
v 0.806848 -1.580770 -0.596937
v 1.140805 -1.782152 0.463571
v 0.574062 -1.742445 0.557633
v 1.129233 -1.650282 -0.376266
v 1.010010 -1.501969 -0.364593
v 0.314111 -1.946446 -0.271280
v 0.291690 -1.768407 -0.504952
v 0.486133 -1.948027 -0.057888
v 0.328094 -1.975788 0.055964
v 0.216558 -1.816560 -0.251566
v 0.224888 -1.845780 0.046397
v 1.132282 -1.569387 0.468100
v 1.231457 -1.644889 0.057280
v 1.116981 -1.514465 0.180911
v 1.079248 -1.501784 -0.105266
v 0.955090 -1.521637 -0.519166
v 0.366505 -1.813324 0.471614
v -1.072447 1.548679 0.298725
v -0.950354 2.355060 0.197875
v -1.108070 1.471976 0.258081
v -1.088926 1.388622 0.037321
v -0.626176 1.375572 0.026182
v -0.736105 1.450780 0.000561
v -0.977492 2.236911 -0.528305
v -1.010209 1.965083 -0.543170
v -0.702441 1.192517 -0.441341
v -1.139496 1.220577 -0.202944
v -0.694526 1.746657 -0.844148
v -0.715456 1.698591 -0.770319
v -1.087600 1.022627 -0.609852
v -1.004847 1.645927 -0.944306
v -0.984467 2.331617 0.765867
v -0.685319 2.414407 0.078142
v -0.863154 2.482596 0.109055
v -0.714145 2.231750 -0.529391
v -0.895821 1.907446 -1.006575
v -0.890995 1.987835 -0.916032
v -0.700403 2.000902 -0.347563
v -0.697168 2.205913 -0.462669
v -0.770906 2.201817 -0.382788
v -0.984769 2.220729 -0.457305
v -0.893833 2.269264 -0.409907
v -0.731095 1.928041 -0.894786
v -0.964467 1.893107 -0.828066
v -0.686592 2.347402 0.035389
v -0.661756 2.149149 0.234707
v -0.664800 2.370923 0.150737
v -0.727501 2.160756 -0.576465
v -0.893148 2.345435 0.016620
v -0.997714 2.071951 0.032482
v -0.972678 1.922859 -0.936836
v -0.916176 2.151457 -0.588627
v -0.708982 1.844008 -0.955065
v -0.722043 1.653200 -0.974735
v -0.677326 2.334646 0.661453
v -0.610807 1.055866 1.585044
v -0.552502 1.071371 1.389439
v -0.453091 1.078726 1.468616
v -0.643600 0.779388 1.647778
v -0.652835 0.455880 1.561506
v -0.752275 0.551445 1.303249
v -0.215766 -0.089787 1.398826
v -0.264101 0.282321 1.068882
v -0.349546 0.511362 1.244840
v -0.668101 0.379466 1.121765
v -1.104644 1.138765 -0.617386
v -1.109435 1.110984 -0.711238
v -1.136285 1.174907 -0.367148
v -0.679183 2.061137 -0.422955
v -1.117148 1.606524 -0.294743
v -0.915448 2.071652 -0.335208
v -0.756545 2.343285 0.011250
v -0.638270 2.186943 0.172861
v -0.624228 1.449105 0.593511
v -1.140593 1.251737 0.825161
v -1.164845 1.266598 0.635752
v -0.818252 0.342181 -0.863948
v -0.378803 0.180916 -0.624224
v -0.663067 0.985430 -0.709138
v -0.141658 -0.268503 -0.689138
v -0.774441 0.325474 0.890669
v -0.508643 0.637689 0.536073
v -0.299523 0.165424 0.614341
v 0.107462 -0.468584 0.639514
v -0.208346 0.180089 1.152775
v -1.138854 0.398353 -0.574425
v -1.042076 0.088136 -0.555808
v -0.169335 -0.996560 -0.366477
v -0.624794 -0.482860 0.662107
v -0.714474 -0.154387 1.071286
v -0.459557 -0.596587 0.775481
v -0.799084 -0.446752 0.234854
v -1.063382 -0.013324 0.225567
v -0.566067 0.717784 -0.223517
v -1.119359 1.310433 0.108325
v -1.157222 0.519153 -0.217043
v -0.005502 -0.768898 0.843486
v 0.443147 -0.927437 0.408197
v -0.137034 -1.074991 0.344164
v -0.084196 -0.306075 1.254653
v -0.560459 0.370188 1.553334
v -0.655892 0.975411 1.352552
v -0.585291 0.499668 1.172720
v -0.702427 0.562770 1.517175
v -0.473706 0.982260 1.687806
v -0.872657 1.460881 0.893717
v -0.593036 1.438997 0.774269
v -1.146646 1.518567 0.648980
v -0.925615 1.299921 0.517583
v -0.859329 1.331275 0.358469
v -1.096854 1.598413 0.096419
v -0.660761 1.253875 -0.221236
v -0.918449 1.378111 -0.143986
v -0.793862 1.326445 -0.942329
v -0.896241 1.141173 -0.561636
v -0.787673 2.149750 -0.593553
v -0.796381 1.878089 -0.801313
v -0.553756 0.614974 -0.577060
v -0.445309 0.543380 0.476408
v -1.143674 0.303484 -0.417898
v -1.164795 0.329995 0.559339
v -1.151754 0.303570 0.039833
v -1.125148 0.438844 0.861069
v -0.472234 0.491737 -0.508726
v -0.448565 0.519161 -0.218634
v -1.131954 0.209170 -0.049429
v -0.960487 -0.120034 0.617766
v -0.619975 0.754764 0.022915
v -0.749878 2.466831 0.094993
vt 0.488049 0.207204
vt 0.438473 0.236568
vt 0.439749 0.175400
vt 0.520296 0.878764
vt 0.625000 0.977807
vt 0.510001 0.980065
vt 0.625069 0.531990
vt 0.625000 0.553560
vt 0.628604 0.553306
vt 0.829233 0.562509
vt 0.663939 0.563119
vt 0.642273 0.563568
vt 0.375000 0.750000
vt 0.374634 0.750764
vt 0.375000 0.750000
vt 0.627882 0.577060
vt 0.627149 0.610403
vt 0.628320 0.611466
vt 0.375000 0.000000
vt 0.375000 0.000000
vt 0.375000 0.000000
vt 0.375000 0.000000
vt 0.375000 0.000000
vt 0.625000 0.033248
vt 0.625000 0.042840
vt 0.625000 0.060508
vt 0.625000 0.156515
vt 0.625000 0.179708
vt 0.625000 0.188547
vt 0.625000 0.138317
vt 0.625000 0.176303
vt 0.376723 0.433970
vt 0.375000 0.303706
vt 0.376649 0.303214
vt 0.614050 0.654588
vt 0.624952 0.679331
vt 0.620965 0.677420
vt 0.374694 0.705320
vt 0.375000 0.547889
vt 0.375046 0.538025
vt 0.375000 0.156036
vt 0.375000 0.213676
vt 0.375000 0.185877
vt 0.374925 0.703095
vt 0.375028 0.719491
vt 0.372690 0.737012
vt 0.390892 0.648315
vt 0.395833 0.566349
vt 0.377604 0.172167
vt 0.375000 0.063397
vt 0.375836 0.080816
vt 0.375000 0.000000
vt 0.377604 0.234617
vt 0.375000 0.240281
vt 0.375000 0.750465
vt 0.375000 0.753907
vt 0.433753 0.735579
vt 0.360103 0.744169
vt 0.409405 0.698754
vt 0.439521 0.062067
vt 0.469015 0.097521
vt 0.381863 0.064571
vt 0.375000 0.030405
vt 0.375000 0.006646
vt 0.375000 0.003587
vt 0.625000 0.211859
vt 0.625000 0.235988
vt 0.572882 0.239020
vt 0.375000 0.804557
vt 0.375000 0.877956
vt 0.375000 0.790067
vt 0.375000 0.753181
vt 0.375000 0.777382
vt 0.375000 0.750000
vt 0.375000 0.831497
vt 0.375000 0.812481
vt 0.375000 0.961361
vt 0.375000 0.957342
vt 0.625000 0.123244
vt 0.625000 0.065455
vt 0.625000 0.119718
vt 0.625000 0.074000
vt 0.625000 0.109929
vt 0.550130 0.689226
vt 0.584567 0.698007
vt 0.584019 0.732457
vt 0.624996 0.738266
vt 0.417999 0.039115
vt 0.503313 0.034616
vt 0.692570 0.625000
vt 0.850538 0.625000
vt 0.852572 0.625000
vt 0.840379 0.687500
vt 0.852946 0.687500
vt 0.750160 0.687519
vt 0.666376 0.687500
vt 0.849298 0.687500
vt 0.863581 0.687500
vt 0.664696 0.686774
vt 0.750574 0.687445
vt 0.492060 0.115980
vt 0.475981 0.179808
vt 0.496660 0.137576
vt 0.722644 0.562491
vt 0.847293 0.562500
vt 0.865129 0.562500
vt 0.609988 0.691837
vt 0.522606 0.595022
vt 0.610976 0.618281
vt 0.548576 0.643927
vt 0.442341 0.174412
vt 0.525071 0.209830
vt 0.768120 0.687708
vt 0.834816 0.687500
vt 0.693617 0.672105
vt 0.680887 0.689779
vt 0.625000 0.783021
vt 0.625000 0.941641
vt 0.625000 0.878694
vt 0.375000 0.006854
vt 0.375000 0.048859
vt 0.375000 0.008563
vt 0.375000 0.213609
vt 0.375000 0.176729
vt 0.375000 0.240088
vt 0.375000 0.232430
vt 0.375000 0.790015
vt 0.375000 0.789567
vt 0.375000 0.950058
vt 0.375000 0.978030
vt 0.167134 0.750000
vt 0.168038 0.749992
vt 0.249483 0.750000
vt 0.375000 0.052965
vt 0.375000 0.017267
vt 0.375000 0.009521
vt 0.375000 0.009998
vt 0.375000 0.036263
vt 0.327501 0.639970
vt 0.321165 0.732367
vt 0.169383 0.620096
vt 0.373000 0.609190
vt 0.625123 0.635936
vt 0.625000 0.670176
vt 0.354278 0.747346
vt 0.172789 0.750000
vt 0.327275 0.743164
vt 0.733965 0.562471
vt 0.750186 0.562487
vt 0.809423 0.562500
vt 0.799094 0.687439
vt 0.674119 0.686691
vt 0.806811 0.687492
vt 0.625000 0.104400
vt 0.625000 0.078970
vt 0.625000 0.105319
vt 0.733443 0.562649
vt 0.698528 0.554816
vt 0.656142 0.568623
vt 0.625000 0.146769
vt 0.625000 0.135040
vt 0.625000 0.167380
vt 0.750431 0.624978
vt 0.794508 0.624871
vt 0.625603 0.514368
vt 0.632951 0.495045
vt 0.634447 0.538107
vt 0.655575 0.555184
vt 0.652346 0.599693
vt 0.713350 0.442821
vt 0.636503 0.614124
vt 0.654078 0.483462
vt 0.660847 0.414966
vt 0.727339 0.468812
vt 0.375000 0.823947
vt 0.375000 0.920613
vt 0.375000 0.783771
vt 0.838555 0.562501
vt 0.818396 0.562500
vt 0.625000 0.218760
vt 0.625000 0.259489
vt 0.625000 0.252627
vt 0.625000 0.146900
vt 0.625000 0.178856
vt 0.629266 0.540134
vt 0.699673 0.623238
vt 0.683805 0.625000
vt 0.809679 0.624987
vt 0.625000 0.448730
vt 0.625000 0.308785
vt 0.625468 0.420151
vt 0.375000 0.750256
vt 0.375000 0.750295
vt 0.375000 0.750011
vt 0.375000 0.000000
vt 0.375000 0.000000
vt 0.375000 0.000000
vt 0.375000 0.788887
vt 0.375000 0.944296
vt 0.375000 0.909199
vt 0.375000 0.814561
vt 0.375000 0.954311
vt 0.375000 0.000000
vt 0.375000 0.000000
vt 0.625000 0.196768
vt 0.625000 0.236597
vt 0.625000 0.788667
vt 0.625000 0.930221
vt 0.624981 0.302726
vt 0.625000 0.289131
vt 0.624911 0.467308
vt 0.625000 0.141681
vt 0.625000 0.071578
vt 0.625000 0.111175
vt 0.627379 0.574433
vt 0.624996 0.014421
vt 0.625000 0.045571
vt 0.409309 0.760775
vt 0.367552 0.756788
vt 0.375000 0.000000
vt 0.375000 0.000000
vt 0.375000 0.000000
vt 0.375000 0.000000
vt 0.625000 0.618593
vt 0.639198 0.625222
vt 0.625000 0.625189
vt 0.637004 0.622150
vt 0.684169 0.625122
vt 0.631925 0.685845
vt 0.867596 0.687500
vt 0.875000 0.687500
vt 0.375000 0.765487
vt 0.375000 0.764200
vt 0.627753 0.707039
vt 0.638139 0.696406
vt 0.629669 0.706885
vt 0.375000 0.510922
vt 0.375000 0.477328
vt 0.375000 0.484707
vt 0.360308 0.744374
vt 0.344011 0.749809
vt 0.375000 0.316245
vt 0.375000 0.261295
vt 0.375000 0.260633
vt 0.367766 0.506110
vt 0.361497 0.503605
vt 0.341885 0.500000
vt 0.374883 0.737857
vt 0.359208 0.742020
vt 0.362830 0.732294
vt 0.129318 0.505056
vt 0.124103 0.507819
vt 0.125000 0.518272
vt 0.123958 0.742919
vt 0.128308 0.745393
vt 0.122917 0.740859
vt 0.125000 0.744980
vt 0.625000 0.742224
vt 0.625000 0.735520
vt 0.625000 0.731031
vt 0.661663 0.585378
vt 0.644239 0.688785
vt 0.625000 0.970971
vt 0.625000 0.979901
vt 0.625000 0.954233
vt 0.649442 0.625056
vt 0.695172 0.613087
vt 0.801260 0.687500
vt 0.864807 0.687500
vt 0.863526 0.687500
vt 0.657880 0.512400
vt 0.650782 0.565410
vt 0.625000 0.619369
vt 0.625000 0.611404
vt 0.625000 0.605444
vt 0.832290 0.625000
vt 0.841884 0.625000
vt 0.861502 0.625000
vt 0.879396 0.562500
vt 0.845295 0.562500
vt 0.834902 0.551542
vt 0.667840 0.535325
vt 0.375000 0.760646
vt 0.375000 0.750367
vt 0.375000 0.758802
vt 0.375000 0.768158
vt 0.375000 0.763803
vt 0.375000 0.775217
vt 0.375000 0.752865
vt 0.375000 0.763805
vt 0.375000 0.000000
vt 0.375000 0.000000
vt 0.375000 0.000000
vt 0.625000 0.128617
vt 0.625000 0.127499
vt 0.503048 0.512267
vt 0.405033 0.489850
vt 0.523234 0.489767
vt 0.395833 0.437111
vt 0.438802 0.439710
vt 0.549293 0.302139
vt 0.438767 0.265704
vt 0.516415 0.261022
vt 0.375000 0.785721
vt 0.402770 0.799003
vt 0.395118 0.877699
vt 0.616625 0.624560
vt 0.608429 0.617401
vt 0.852986 0.625000
vt 0.854407 0.687500
vt 0.375945 0.488606
vt 0.394998 0.519349
vt 0.375000 0.512161
vt 0.377162 0.261631
vt 0.395833 0.267848
vt 0.582283 0.511862
vt 0.483784 0.000000
vt 0.456807 0.003359
vt 0.393028 0.000000
vt 0.511321 0.006724
vt 0.375000 0.987322
vt 0.375000 0.949274
vt 0.375000 0.986823
vt 0.375000 1.000000
vt 0.375000 0.763349
vt 0.375000 0.762331
vt 0.361652 0.750000
vt 0.362425 0.750000
vt 0.349846 0.750000
vt 0.375000 0.760301
vt 0.375000 0.785891
vt 0.375000 0.777530
vt 0.375000 0.000000
vt 0.375000 0.000000
vt 0.375000 0.000000
vt 0.375000 0.000000
vt 0.375000 0.000000
vt 0.375000 0.000000
vt 0.581250 0.004238
vt 0.625000 0.004907
vt 0.510685 0.000000
vt 0.625000 0.000000
vt 0.625000 0.058268
vt 0.625000 0.062500
vt 0.854369 0.625000
vt 0.859322 0.625000
vt 0.821393 0.625000
vt 0.637404 0.629248
vt 0.639960 0.628210
vt 0.627171 0.562686
vt 0.639974 0.567247
vt 0.625000 0.125000
vt 0.625000 0.129545
vt 0.625000 0.125423
vt 0.625000 0.005882
vt 0.625000 0.018854
vt 0.625000 0.014789
vt 0.625000 0.059535
vt 0.625000 0.062500
vt 0.625000 0.057470
vt 0.375000 0.269250
vt 0.375000 0.254819
vt 0.375000 0.004812
vt 0.375000 0.000000
vt 0.375000 0.000000
vt 0.375000 0.738747
vt 0.362482 0.745841
vt 0.140786 0.738226
vt 0.131890 0.740233
vt 0.135458 0.698227
vt 0.351131 0.512393
vt 0.367465 0.510673
vt 0.364061 0.554186
vt 0.135572 0.576086
vt 0.141561 0.511564
vt 0.133498 0.645537
vt 0.688160 0.625737
vt 0.672665 0.625006
vt 0.624959 0.489218
vt 0.625000 0.829298
vt 0.625000 0.794952
vt 0.625000 0.050719
vt 0.625000 0.018868
vt 0.732700 0.460189
vt 0.802966 0.613358
vt 0.625000 0.094423
vt 0.625000 0.080864
vt 0.674736 0.687500
vt 0.635432 0.569960
vt 0.625000 0.158091
vt 0.625000 0.167174
vt 0.625000 0.142739
vt 0.718194 0.425916
vt 0.625000 0.238610
vt 0.625000 0.228416
vt 0.625000 0.210923
vt 0.625000 0.204389
vt 0.626391 0.324155
vt 0.652600 0.343435
vt 0.791720 0.523905
vt 0.642509 0.615215
vt 0.645853 0.618438
vt 0.625000 0.125000
vt 0.625000 0.125000
vt 0.625104 0.729242
vt 0.625000 0.761662
vt 0.625000 0.749211
vt 0.625000 0.007321
vt 0.625000 0.000000
vt 0.625000 0.000000
vt 0.645702 0.555921
vt 0.647547 0.632597
vt 0.626407 0.644563
vt 0.625000 0.637508
vt 0.625927 0.579976
vt 0.853098 0.687500
vt 0.875000 0.687500
vt 0.853245 0.687500
vt 0.855528 0.625000
vt 0.875000 0.625000
vt 0.835985 0.610224
vt 0.625000 0.268159
vt 0.627043 0.473079
vt 0.375000 0.922590
vt 0.375000 0.950166
vt 0.375000 0.949974
vt 0.375000 0.000000
vt 0.375000 0.000000
vt 0.375000 0.000000
vt 0.375000 0.000000
vt 0.375000 0.000000
vt 0.375000 0.753246
vt 0.375000 0.000000
vt 0.375000 0.763844
vt 0.375000 0.750000
vt 0.625000 0.256487
vt 0.625000 0.483036
vt 0.875000 0.562500
vt 0.861798 0.562500
vt 0.875000 0.562500
vt 0.866298 0.562500
vt 0.625063 0.575376
vt 0.625000 0.137697
vt 0.861923 0.687500
vt 0.863682 0.687500
vt 0.875000 0.687500
vt 0.875000 0.687500
vt 0.875000 0.625000
vt 0.700545 0.626690
vt 0.625000 0.801745
vt 0.625000 0.760810
vt 0.625000 0.044319
vt 0.625000 0.062500
vt 0.554160 0.375519
vt 0.524277 0.800192
vt 0.515430 0.758952
vt 0.601444 0.759817
vt 0.506928 0.554161
vt 0.469283 0.570077
vt 0.470181 0.536149
vt 0.573666 0.013719
vt 0.539175 0.047864
vt 0.399389 0.980124
vt 0.625006 0.731231
vt 0.627940 0.700384
vt 0.625000 0.695338
vt 0.625000 0.694093
vt 0.395833 0.236086
vt 0.514592 0.235714
vt 0.625000 0.536951
vt 0.624990 0.510135
vt 0.851714 0.562500
vt 0.375000 0.750000
vt 0.625000 0.590650
vt 0.625000 0.124465
vt 0.528021 0.062942
vt 0.546250 0.448765
vt 0.375000 0.099284
vt 0.375000 0.156038
vt 0.392884 0.094947
vt 0.488051 0.675249
vt 0.395833 0.173792
vt 0.375000 0.712883
vt 0.375000 0.744702
vt 0.501914 0.734335
vt 0.375000 0.954211
vt 0.375000 0.978884
vt 0.501956 0.065076
vt 0.375000 0.009704
vt 0.625000 0.195746
vt 0.625000 0.180420
vt 0.364603 0.004171
vt 0.424197 0.013477
vt 0.375000 0.970276
vt 0.611035 0.692207
vt 0.623631 0.738081
vt 0.470292 0.144261
vt 0.457521 0.173897
vt 0.369802 0.030370
vt 0.650275 0.687688
vt 0.483063 0.114626
vt 0.477851 0.574297
vt 0.544600 0.596279
vt 0.483388 0.571348
vt 0.531613 0.550394
vt 0.625129 0.604492
vt 0.815261 0.625000
vt 0.375000 0.510562
vt 0.372868 0.548543
vt 0.375000 0.054184
vt 0.375000 0.095329
vt 0.375000 0.062641
vt 0.375000 0.109198
vt 0.373031 0.670281
vt 0.154986 0.749830
vt 0.832965 0.551542
vt 0.625000 0.041753
vt 0.625000 0.197308
vt 0.629061 0.665842
vt 0.641914 0.677722
vt 0.375000 0.954100
vt 0.375000 0.474301
vt 0.375000 0.000000
vt 0.675747 0.563076
vt 0.627171 0.566620
vt 0.637024 0.564123
vt 0.627638 0.689669
vt 0.375000 0.000000
vt 0.375000 0.003359
vt 0.375000 0.506655
vt 0.125000 0.505740
vt 0.625000 1.000000
vt 0.625000 0.687500
vt 0.625000 0.676905
vt 0.625000 0.674319
vt 0.625000 0.117786
vt 0.625000 0.614331
vt 0.820398 0.562500
vt 0.827099 0.562500
vt 0.375000 0.776638
vt 0.375000 1.000000
vt 0.375000 0.968665
vt 0.376682 0.002085
vt 0.578360 0.261175
vt 0.375000 0.989413
vt 0.375000 1.000000
vt 0.125000 0.750000
vt 0.137096 0.750000
vt 0.137353 0.750000
vt 0.375000 1.000000
vt 0.375000 0.000000
vt 0.636692 0.691532
vt 0.635573 0.690924
vt 0.625000 0.066705
vt 0.625000 0.062500
vt 0.625000 0.062500
vt 0.875000 0.625000
vt 0.863876 0.625000
vt 0.637469 0.683292
vt 0.863527 0.562500
vt 0.625000 0.125000
vt 0.637790 0.620453
vt 0.639285 0.558017
vt 0.625000 0.192484
vt 0.625000 0.184014
vt 0.625000 0.187500
vt 0.125000 0.740368
vt 0.348351 0.505419
vt 0.139715 0.505313
vt 0.139034 0.500000
vt 0.140171 0.745049
vt 0.125000 0.573187
vt 0.133225 0.514960
vt 0.125000 0.640876
vt 0.125000 0.695646
vt 0.364379 0.647103
vt 0.375000 0.495716
vt 0.375000 0.004258
vt 0.375000 0.000000
vt 0.856344 0.562500
vt 0.875000 0.562500
vt 0.625000 0.193500
vt 0.625000 0.187500
vt 0.625000 0.035306
vt 0.631181 0.700090
vt 0.707473 0.625000
vt 0.625000 0.213809
vt 0.625000 0.232525
vt 0.625086 0.606173
vt 0.625000 0.195163
vt 0.625000 0.195772
vt 0.625000 0.187500
vt 0.645163 0.681022
vt 0.875000 0.625000
vt 0.375000 0.000000
vt 0.375000 0.000000
vt 0.375000 0.000000
vt 0.506273 0.006663
vt 0.508020 0.004291
vt 0.467398 0.180100
vt 0.486426 0.114591
vt 0.875000 0.562500
vt 0.820104 0.625000
vn -0.9003 -0.4194 -0.1165
vn -0.8163 -0.5008 -0.2879
vn -0.8585 -0.5046 -0.0908
vn 0.0103 -0.0200 0.9997
vn -0.1194 0.0453 0.9918
vn -0.1578 -0.1181 0.9804
vn 0.9883 0.1427 -0.0540
vn 0.9693 0.1712 0.1763
vn 0.9211 0.3275 0.2105
vn -0.0826 -0.0654 -0.9944
vn 0.0914 -0.0881 -0.9919
vn 0.2455 0.1342 -0.9601
vn 0.8538 0.5141 -0.0818
vn 0.9402 0.3022 0.1572
vn 0.8995 0.4222 0.1124
vn 0.9496 0.1590 -0.2702
vn 0.9868 0.1106 0.1180
vn 0.9584 0.2286 0.1709
vn -0.7400 -0.6086 0.2862
vn -0.8725 -0.4484 0.1942
vn -0.7701 -0.4738 0.4271
vn -0.6208 -0.7015 0.3500
vn -0.8023 -0.5281 0.2783
vn -0.9984 -0.0507 0.0251
vn -0.9951 0.0257 -0.0950
vn -0.9947 0.0840 -0.0585
vn -0.9999 0.0098 0.0125
vn -0.9456 -0.0041 -0.3253
vn -0.9908 0.0948 -0.0970
vn -0.9823 0.0650 0.1757
vn -0.9780 -0.1269 -0.1654
vn 0.2872 -0.1971 -0.9374
vn 0.1303 -0.3405 -0.9312
vn 0.0478 -0.3954 -0.9173
vn 0.9387 0.3446 -0.0004
vn 0.9762 0.0591 0.2089
vn 0.8015 0.5924 0.0815
vn 0.7960 0.6048 -0.0243
vn 0.7021 0.7027 -0.1155
vn 0.7912 0.6051 -0.0888
vn -0.6988 -0.7081 -0.1010
vn -0.6613 -0.7152 -0.2263
vn -0.7961 -0.5833 -0.1615
vn 0.7000 0.7137 0.0252
vn 0.8558 0.5139 -0.0598
vn 0.8600 0.5050 -0.0726
vn -0.6969 -0.7101 -0.0999
vn -0.6135 -0.7808 0.1186
vn -0.7030 -0.7111 0.0113
vn -0.9718 -0.1306 0.1964
vn -0.6192 -0.7221 -0.3083
vn -0.5358 -0.7080 -0.4600
vn 0.8995 0.4337 -0.0527
vn 0.9259 0.3714 0.0695
vn 0.7643 0.6449 0.0025
vn 0.8101 0.5605 -0.1719
vn 0.8541 0.5149 -0.0730
vn -0.8785 -0.4578 0.1364
vn -0.8892 -0.4525 -0.0679
vn -0.7843 -0.5847 0.2073
vn -0.6584 -0.5933 0.4630
vn -0.9828 -0.0778 -0.1674
vn -0.9767 0.0112 -0.2143
vn -0.9347 -0.0860 -0.3448
vn 0.0188 0.4572 -0.8892
vn -0.1966 0.4287 -0.8818
vn 0.0690 0.4235 -0.9033
vn 0.6148 0.7762 -0.1400
vn 0.1858 0.9251 -0.3312
vn 0.5970 0.7951 0.1062
vn 0.1191 0.1541 0.9809
vn -0.0983 0.6781 0.7284
vn -0.4945 0.2907 0.8191
vn -0.1690 -0.0236 0.9853
vn -0.9910 0.1222 0.0551
vn -0.9389 0.2664 0.2180
vn -0.9674 0.1303 0.2172
vn -0.9841 0.0424 -0.1724
vn 0.8953 0.4400 0.0703
vn 0.8813 0.4726 -0.0001
vn 0.9286 0.2591 0.2656
vn 0.9803 0.1417 0.1373
vn -0.7528 -0.5162 0.4084
vn -0.9248 -0.3301 0.1893
vn 0.1252 0.2566 0.9584
vn -0.1348 0.2237 0.9653
vn -0.0756 0.2456 0.9664
vn -0.0986 0.1835 -0.9781
vn -0.2335 0.1016 -0.9670
vn -0.0750 0.0940 -0.9927
vn -0.1539 0.9868 0.0499
vn -0.2056 0.1391 0.9687
vn -0.6318 0.7751 0.0096
vn 0.1235 0.1703 0.9776
vn -0.0284 0.1340 0.9906
vn -0.9974 -0.0678 -0.0228
vn -0.9730 -0.2193 -0.0720
vn -0.9569 -0.2850 -0.0549
vn 0.0159 0.3225 0.9464
vn -0.1943 0.2640 0.9448
vn -0.2471 0.9471 -0.2049
vn 0.8568 0.4691 -0.2139
vn 0.9009 0.4282 -0.0706
vn 0.8121 0.5750 0.0994
vn 0.8865 0.4626 -0.0050
vn -0.1915 0.2146 -0.9577
vn -0.5867 0.3726 -0.7190
vn -0.0343 0.6804 -0.7321
vn 0.1381 0.2476 -0.9590
vn 0.2648 0.1168 0.9572
vn -0.0787 0.2442 0.9665
vn 0.0596 0.0417 0.9974
vn -0.6177 -0.6374 0.4606
vn -0.8305 -0.5008 0.2439
vn -0.6550 -0.4982 0.5681
vn -0.7984 -0.5202 -0.3032
vn -0.8498 -0.4988 -0.1703
vn -0.7236 -0.4975 -0.4785
vn -0.7388 -0.4139 -0.5319
vn 0.3032 -0.4873 0.8189
vn 0.2486 -0.2979 0.9217
vn 0.0110 -0.5331 0.8460
vn -0.0576 -0.3355 0.9403
vn 0.2019 -0.6318 0.7484
vn 0.2461 -0.4980 0.8315
vn 0.3790 -0.5858 0.7164
vn -0.6776 -0.7017 0.2201
vn -0.5242 -0.7805 0.3406
vn -0.7343 -0.6339 0.2429
vn 0.4741 -0.8720 -0.1222
vn 0.4257 -0.8892 0.1677
vn 0.2152 -0.9729 -0.0844
vn 0.7109 0.6913 -0.1294
vn 0.9772 0.0203 -0.2113
vn 0.9744 0.1295 0.1839
vn 0.3465 -0.0300 0.9376
vn 0.0442 -0.2380 0.9703
vn 0.3510 -0.4885 0.7989
vn 0.1825 0.3886 0.9032
vn 0.0247 0.2838 0.9586
vn -0.1351 0.6187 0.7739
vn -0.1689 0.2818 0.9445
vn 0.1895 0.3714 0.9089
vn -0.1029 0.7040 0.7027
vn -0.9273 0.2431 -0.2847
vn -0.8601 0.4222 0.2862
vn -0.6207 0.7432 -0.2496
vn 0.1251 0.0168 -0.9920
vn 0.0917 0.5094 -0.8556
vn 0.6200 0.0877 -0.7797
vn -0.9223 0.3550 0.1530
vn -0.6302 0.5634 0.5343
vn -0.8679 0.3868 -0.3117
vn 0.0313 0.2291 0.9729
vn -0.1522 0.3164 0.9364
vn 0.9176 0.1689 -0.3598
vn 0.5386 0.6826 -0.4939
vn 0.8473 0.5266 0.0689
vn 0.5549 0.5571 0.6179
vn 0.3190 0.9363 -0.1469
vn -0.0906 0.9945 -0.0515
vn 0.3769 0.8351 0.4007
vn 0.2198 0.9149 -0.3385
vn -0.0423 0.7447 -0.6661
vn -0.1629 0.9828 -0.0871
vn -0.2262 0.9688 -0.1015
vn -0.4263 0.8433 0.3271
vn 0.0363 0.9616 0.2720
vn -0.1838 -0.1176 -0.9759
vn -0.2509 0.0376 -0.9673
vn -0.9988 -0.0155 -0.0473
vn -0.8049 0.0290 -0.5927
vn -0.7933 -0.1353 -0.5936
vn -0.9662 0.2291 0.1181
vn -0.8176 -0.0707 -0.5715
vn 0.9729 0.1580 0.1689
vn 0.2506 0.3848 0.8884
vn 0.1834 0.8004 0.5707
vn -0.0951 0.6122 0.7850
vn 0.1000 -0.1710 -0.9802
vn -0.2891 -0.0948 -0.9526
vn 0.1066 0.0125 -0.9942
vn 0.9840 0.1269 -0.1248
vn 0.8547 0.4203 -0.3048
vn 0.9139 0.4044 -0.0335
vn -0.9119 -0.0842 0.4018
vn -0.9514 0.2649 0.1571
vn -0.9990 0.0023 0.0441
vn 0.3781 -0.0784 0.9224
vn -0.0315 -0.2447 0.9691
vn -0.3503 0.4407 -0.8265
vn -0.1462 0.7299 -0.6677
vn -0.7622 0.4578 -0.4577
vn -0.9170 -0.1232 0.3794
vn -0.9983 0.0346 0.0467
vn -0.9887 -0.0107 0.1495
vn -0.9813 -0.1384 -0.1341
vn 0.1938 0.4532 0.8701
vn -0.1088 0.7223 0.6830
vn -0.2275 -0.0932 -0.9693
vn -0.2999 -0.1908 -0.9347
vn 0.1204 -0.0636 -0.9907
vn -0.9715 -0.1113 0.2092
vn -0.9575 0.1107 0.2663
vn -0.9646 0.1275 -0.2308
vn 0.9555 0.0516 -0.2905
vn -0.9619 0.0157 0.2731
vn -0.9941 0.0258 -0.1056
vn 0.4545 0.8702 0.1900
vn 0.4916 0.7306 -0.4739
vn -0.2711 0.1907 0.9435
vn -0.8160 0.1334 0.5624
vn -0.4575 0.8336 -0.3095
vn -0.3739 -0.2475 0.8938
vn 0.7034 0.7087 -0.0535
vn 0.8676 0.4818 -0.1229
vn 0.4076 0.4830 0.7750
vn -0.0153 0.9976 -0.0678
vn 0.7640 0.6451 -0.0081
vn 0.5061 0.5639 -0.6526
vn 0.7671 0.3189 0.5566
vn 0.9463 0.1718 -0.2740
vn 0.6104 0.2119 -0.7632
vn 0.8048 0.4838 -0.3439
vn 0.6607 0.5977 -0.4541
vn 0.2775 0.1412 -0.9503
vn 0.4386 0.0354 -0.8980
vn 0.5967 -0.0506 0.8008
vn 0.4334 -0.3635 0.8246
vn -0.0301 -0.0999 -0.9945
vn -0.3072 -0.4992 -0.8102
vn -0.4825 -0.2144 -0.8492
vn 0.6838 -0.0989 -0.7229
vn 0.1829 -0.3939 -0.9008
vn 0.0640 0.0796 -0.9948
vn 0.6879 0.6564 0.3099
vn 0.7045 -0.0494 0.7080
vn 0.9694 -0.1639 0.1828
vn -0.1956 -0.5312 -0.8243
vn -0.3748 -0.8158 -0.4405
vn -0.3066 -0.8814 0.3593
vn -0.1420 -0.6668 0.7316
vn 0.2334 -0.9443 0.2319
vn 0.3836 0.7489 0.5403
vn 0.4078 0.9116 0.0513
vn 0.0189 0.9997 0.0144
vn 0.3562 0.7330 -0.5795
vn -0.4812 0.8133 0.3272
vn -0.4919 0.4128 0.7666
vn -0.2329 0.9688 -0.0850
vn 0.4722 0.6689 -0.5742
vn 0.1007 0.6122 -0.7843
vn -0.4811 0.7187 0.5020
vn 0.1461 0.9746 -0.1697
vn 0.4637 0.6043 -0.6480
vn 0.5065 0.8583 0.0822
vn -0.4154 0.8675 0.2736
vn -0.4204 0.8002 -0.4277
vn -0.4259 0.4556 -0.7817
vn 0.3397 0.8954 0.2877
vn 0.8788 -0.1127 0.4636
vn 0.9904 0.0990 -0.0970
vn 0.6716 0.2468 -0.6986
vn 0.5388 0.3574 -0.7629
vn 0.9676 0.0059 0.2522
vn 0.6884 -0.0245 0.7249
vn 0.8695 0.3905 -0.3025
vn 0.4531 0.6375 -0.6232
vn -0.3490 0.5879 -0.7298
vn -0.8327 0.2844 -0.4752
vn -0.4197 0.3791 -0.8247
vn -0.9895 -0.0129 0.1438
vn -0.7087 0.1611 0.6868
vn 0.8576 0.3645 -0.3630
vn 0.5373 0.1809 -0.8238
vn 0.5685 0.1823 -0.8022
vn 0.1437 -0.1378 -0.9800
vn 0.1124 -0.0287 -0.9933
vn -0.1870 -0.0588 -0.9806
vn -0.4556 -0.3430 -0.8214
vn -0.6251 -0.2553 -0.7377
vn -0.1825 0.8904 -0.4170
vn -0.0654 0.7506 0.6575
vn -0.1816 0.5212 0.8339
vn 0.6819 0.1347 -0.7189
vn 0.8207 0.4681 -0.3276
vn 0.8224 0.4391 -0.3618
vn -0.3035 -0.6235 -0.7205
vn -0.3645 -0.4570 -0.8114
vn 0.9077 0.2754 -0.3165
vn -0.6142 -0.4046 0.6775
vn -0.6318 -0.7644 0.1287
vn -0.2802 -0.7260 0.6280
vn -0.4751 -0.6003 0.6434
vn 0.7461 -0.2858 0.6013
vn 0.7885 -0.0728 0.6108
vn 0.8795 -0.1399 0.4548
vn 0.5185 -0.5400 0.6630
vn -0.0977 0.6512 -0.7526
vn 0.3573 -0.2483 0.9004
vn -0.5713 -0.3656 0.7348
vn -0.5548 -0.2339 0.7984
vn -0.9058 -0.2447 0.3459
vn -0.8170 0.2235 -0.5316
vn -0.6562 -0.0550 0.7526
vn -0.6348 0.0375 0.7718
vn -0.7234 0.0814 -0.6856
vn -0.2137 0.0802 -0.9736
vn -0.6887 0.0446 -0.7237
vn -0.1666 0.0051 -0.9860
vn 0.6444 0.0094 -0.7647
vn 0.5900 0.0571 -0.8054
vn 0.8229 0.5500 -0.1426
vn 0.6103 -0.0369 -0.7913
vn -0.6955 0.0974 0.7118
vn -0.5937 0.1651 0.7876
vn -0.8436 0.4443 0.3016
vn -0.9229 0.1333 0.3613
vn -0.7162 0.1213 -0.6873
vn -0.0859 -0.0196 -0.9961
vn -0.1929 -0.7696 0.6087
vn 0.6922 0.5889 0.4172
vn -0.3572 -0.9128 0.1979
vn 0.4311 -0.8218 -0.3725
vn 0.9503 -0.1090 -0.2917
vn -0.4253 -0.8858 -0.1854
vn 0.2062 -0.8901 -0.4066
vn -0.3935 -0.9187 0.0330
vn 0.0673 0.0681 -0.9954
vn 0.0933 -0.0037 -0.9956
vn 0.6335 0.0196 -0.7735
vn -0.5784 0.6908 -0.4339
vn -0.1137 0.9594 -0.2580
vn -0.5483 0.4786 -0.6858
vn -0.8737 0.3896 -0.2914
vn -0.4879 0.8331 0.2608
vn -0.8852 0.4349 0.1653
vn -0.1964 0.2171 -0.9562
vn 0.6783 0.5628 0.4723
vn 0.6648 0.2177 0.7145
vn 0.8011 0.5921 0.0876
vn 0.8166 0.2515 0.5195
vn 0.6746 0.2578 0.6917
vn 0.6730 0.1971 -0.7129
vn 0.8211 0.5082 -0.2600
vn 0.9212 0.0798 -0.3809
vn 0.8379 0.4322 -0.3333
vn -0.6286 0.2557 0.7344
vn -0.6477 0.1019 -0.7550
vn -0.4222 0.5481 -0.7221
vn 0.4938 0.3245 -0.8068
vn -0.5112 0.8550 0.0872
vn -0.7248 0.6687 -0.1659
vn -0.6412 0.5767 0.5063
vn -0.5707 -0.1382 0.8095
vn 0.9357 0.1344 -0.3261
vn 0.0026 -0.2630 0.9648
vn 0.7374 0.0089 0.6754
vn 0.8525 0.4939 -0.1711
vn -0.7518 -0.1492 -0.6423
vn 0.6393 -0.0860 -0.7641
vn -0.6311 -0.1136 -0.7674
vn 0.9213 -0.0099 -0.3888
vn -0.6187 0.1750 0.7659
vn -0.7079 0.1343 0.6935
vn 0.1451 0.1529 -0.9775
vn 0.2024 0.0361 0.9786
vn 0.7121 0.0622 0.6994
vn -0.9846 0.1423 -0.1014
vn -0.0110 -0.0254 -0.9996
vn 0.1032 0.0276 0.9943
vn 0.4806 0.2676 0.8351
vn 0.6462 0.1047 0.7559
vn 0.9001 0.4065 -0.1566
vn 0.9167 0.3902 -0.0858
vn 0.8839 0.4302 -0.1834
vn -0.9682 -0.0806 0.2368
vn 0.9961 0.0649 0.0590
vn 0.9383 0.1108 -0.3275
vn 0.9317 0.0782 -0.3548
vn -0.7265 -0.6190 -0.2983
vn -0.9032 -0.3133 -0.2933
vn 0.9108 0.4054 -0.0781
vn 0.9561 0.1052 -0.2736
vn 0.9291 0.3647 -0.0608
vn 0.1428 0.0259 -0.9894
vn -0.8802 -0.4697 0.0682
vn -0.8473 -0.5300 -0.0337
vn -0.7894 -0.6074 -0.0889
vn 0.9348 0.3530 0.0400
vn -0.7865 -0.6100 -0.0962
vn 0.8358 0.4694 0.2848
vn -0.9549 -0.2956 0.0269
vn -0.9894 0.1265 0.0715
vn -0.6363 -0.5514 0.5395
vn 0.0129 0.2073 -0.9782
vn 0.9543 0.2827 0.0974
vn -0.2308 0.1475 -0.9618
vn 0.6335 0.6175 -0.4663
vn 0.7002 0.6659 -0.2574
vn -0.7798 -0.5412 0.3147
vn -0.7631 -0.6463 0.0040
vn -0.7055 -0.6975 0.1256
vn -0.8470 -0.5253 0.0817
vn 0.7100 0.7038 0.0216
vn 0.0025 -0.1528 0.9883
vn -0.9522 0.2677 -0.1471
vn -0.9774 0.0448 0.2067
vn 0.9422 0.2907 0.1665
vn 0.6495 0.5325 0.5427
vn -0.8836 0.1224 0.4519
vn -0.1417 0.9754 -0.1690
vn 0.1019 0.5728 0.8134
vn 0.4293 0.3513 -0.8321
vn -0.2720 -0.5687 0.7763
vn 0.3583 0.6907 0.6281
vn -0.6564 -0.0584 -0.7522
vn 0.5470 0.0964 -0.8316
vn 0.6401 0.1252 0.7580
vn -0.7142 0.6357 -0.2929
vn 0.6658 0.2462 0.7044
vn 0.6481 0.2961 0.7016
vn -0.7315 0.1131 0.6724
vn 0.9880 -0.0733 -0.1357
vn -0.6742 0.0354 -0.7377
vn -0.7108 0.1785 0.6804
vn 0.9796 0.1302 0.1528
vn -0.6335 0.3776 0.6754
vn 0.6187 0.1463 0.7719
s 1
f 387/1/1 221/2/2 125/3/3
f 381/4/4 253/5/5 30/6/6
f 379/7/7 52/8/8 276/9/9
f 49/10/10 46/11/11 226/12/12
f 384/13/13 242/14/14 296/15/15
f 267/16/16 412/17/17 271/18/18
f 391/19/19 390/20/20 13/21/21
f 391/19/19 35/22/22 247/23/23
f 391/19/19 247/23/23 390/20/20
f 421/24/24 254/25/25 144/26/26
f 396/27/27 265/28/28 21/29/29
f 48/30/30 368/31/31 396/27/27
f 24/32/32 298/33/33 230/34/34
f 224/35/35 264/36/36 140/37/37
f 126/38/38 5/39/39 129/40/40
f 2/41/41 388/42/42 66/43/43
f 126/38/38 398/44/44 5/39/39
f 384/45/13 296/46/15 126/38/38
f 127/47/45 384/45/13 126/38/38
f 124/48/46 127/47/45 129/40/40
f 128/49/47 2/41/41 146/50/48
f 128/49/47 146/50/48 225/51/49
f 13/21/21 390/20/20 245/52/50
f 229/53/51 63/54/52 388/42/42
f 385/55/53 249/56/54 242/14/14
f 218/57/55 9/58/56 383/59/57
f 33/60/58 393/61/59 135/62/60
f 389/63/61 391/64/19 13/65/21
f 386/66/62 51/67/63 122/68/64
f 205/69/65 403/70/66 250/71/67
f 358/72/68 193/73/69 41/74/70
f 405/75/71 195/76/72 198/77/73
f 405/75/71 198/77/73 44/78/74
f 20/79/75 144/80/26 261/81/76
f 144/80/26 45/82/77 395/83/78
f 419/84/79 382/85/80 234/86/81
f 382/85/80 8/87/82 234/86/81
f 33/60/58 427/88/83 236/89/84
f 116/90/85 47/91/86 19/92/87
f 256/93/88 121/94/89 409/95/90
f 16/96/91 258/97/92 143/98/93
f 119/99/94 410/100/95 16/96/91
f 422/101/96 420/102/97 426/103/98
f 111/104/99 53/105/100 22/106/101
f 224/35/35 18/107/102 382/85/80
f 425/108/103 15/109/104 123/110/105
f 21/111/29 386/112/62 420/102/97
f 57/113/106 82/114/107 83/115/108
f 57/113/106 83/115/108 58/116/109
f 55/117/110 59/118/111 406/119/112
f 406/119/112 59/118/111 253/5/5
f 65/120/113 68/121/114 317/122/115
f 66/43/43 289/123/116 310/124/117
f 293/125/118 307/126/119 289/123/116
f 400/127/120 362/128/121 238/129/122
f 238/129/122 362/128/121 38/130/123
f 25/131/124 288/132/125 397/133/126
f 26/134/127 295/135/128 35/136/22
f 65/137/113 295/135/128 286/138/129
f 71/139/130 302/140/131 308/141/132
f 398/44/44 315/142/133 5/39/39
f 118/143/134 373/144/135 264/36/36
f 158/145/136 64/146/137 294/147/138
f 111/104/99 417/148/139 415/149/140
f 417/148/139 79/150/141 53/105/100
f 74/151/142 88/152/143 90/153/144
f 75/154/145 89/155/146 91/156/147
f 416/157/148 92/158/149 348/159/150
f 341/160/151 94/161/152 324/162/153
f 413/163/154 371/164/155 47/91/86
f 353/165/156 188/166/157 343/167/158
f 417/148/139 98/168/159 79/150/141
f 429/169/160 334/170/161 177/171/162
f 96/172/163 97/173/164 337/174/165
f 192/175/166 356/176/167 197/177/168
f 46/11/11 114/178/169 416/157/148
f 114/178/169 352/179/170 416/157/148
f 367/180/171 331/181/172 209/182/173
f 370/183/174 324/162/153 210/184/175
f 379/7/7 328/185/176 52/8/8
f 340/186/177 183/187/178 342/188/179
f 410/100/95 88/152/143 74/151/142
f 410/100/95 74/151/142 258/97/92
f 414/189/180 78/190/181 77/191/182
f 201/192/183 148/193/184 43/194/185
f 404/195/186 40/196/187 361/197/188
f 42/198/189 405/75/71 104/199/190
f 250/71/67 402/200/191 357/201/192
f 402/200/191 100/202/193 357/201/192
f 107/203/194 110/204/195 245/52/50
f 330/205/196 367/180/171 151/206/197
f 59/118/111 80/207/198 85/208/199
f 50/209/200 112/210/201 414/189/180
f 50/209/200 414/189/180 272/211/202
f 48/30/30 327/212/203 368/31/31
f 395/83/78 320/213/204 411/214/205
f 267/16/16 115/215/206 412/17/17
f 375/216/207 376/217/208 254/25/25
f 9/58/56 130/218/209 131/219/210
f 133/220/211 132/221/212 37/222/213
f 13/21/21 132/221/212 134/223/214
f 15/224/104 428/225/215 14/226/216
f 139/227/217 270/228/218 428/225/215
f 141/229/219 18/107/102 140/37/37
f 143/98/93 144/230/26 256/231/88
f 148/193/184 149/232/220 358/72/68
f 150/233/221 43/194/185 41/74/70
f 285/234/222 155/235/223 355/236/224
f 61/237/225 156/238/226 60/239/227
f 158/145/136 157/240/228 297/241/229
f 287/242/230 159/243/231 298/33/33
f 160/244/232 293/125/118 159/243/231
f 163/245/233 162/246/234 301/247/235
f 312/248/236 165/249/237 164/250/238
f 167/251/239 166/252/240 307/253/119
f 168/254/241 169/255/242 317/256/115
f 70/257/243 169/255/242 168/254/241
f 170/258/244 81/259/245 84/260/246
f 84/261/246 172/262/247 83/115/108
f 85/208/199 174/263/248 173/264/249
f 86/265/250 174/263/248 85/208/199
f 175/266/251 87/267/252 429/169/160
f 334/268/161 178/269/253 90/270/144
f 93/271/254 180/272/255 92/158/149
f 183/273/178 182/274/256 93/275/254
f 342/276/179 184/277/257 94/278/152
f 324/279/153 185/280/258 186/281/259
f 188/166/157 97/173/164 96/172/163
f 343/167/158 190/282/260 98/168/159
f 201/192/183 200/283/261 109/284/262
f 205/69/65 202/285/263 203/286/264
f 109/284/262 204/287/265 108/288/266
f 203/286/264 364/289/267 206/290/268
f 365/291/269 207/292/270 106/293/271
f 212/294/272 211/295/273 370/183/174
f 231/296/274 214/297/275 213/298/276
f 214/297/275 7/299/277 215/300/278
f 278/301/279 220/302/280 219/303/281
f 222/304/282 217/305/283 223/306/284
f 14/307/216 224/35/35 15/308/104
f 225/51/49 146/50/48 26/134/127
f 270/228/218 19/92/87 261/309/76
f 256/93/88 16/96/91 143/310/93
f 227/311/285 380/312/286 23/313/287
f 229/53/51 228/314/288 63/54/52
f 228/314/288 10/315/289 230/34/34
f 231/296/274 213/298/276 6/316/290
f 30/317/6 29/318/291 133/319/211
f 236/89/84 29/318/291 28/320/292
f 238/129/122 237/321/293 25/322/124
f 239/323/294 247/324/23 237/321/293
f 400/127/120 34/325/295 240/326/296
f 242/14/14 34/327/295 241/328/297
f 241/328/297 34/327/295 243/329/298
f 245/52/50 132/221/212 13/21/21
f 131/330/210 222/304/282 36/331/299
f 358/72/68 43/194/185 148/193/184
f 41/74/70 43/194/185 358/72/68
f 150/233/221 42/198/189 200/283/261
f 200/283/261 42/198/189 103/332/300
f 107/203/194 246/333/301 360/334/302
f 39/335/303 246/333/301 107/203/194
f 100/336/193 402/337/191 251/338/304
f 375/216/207 423/339/305 280/340/306
f 423/339/305 30/341/6 253/342/5
f 255/343/307 256/344/88 144/26/26
f 260/345/308 321/346/309 117/347/310
f 322/348/311 118/143/134 138/349/312
f 267/16/16 137/350/313 226/12/12
f 326/351/314 226/12/12 46/11/11
f 19/352/87 268/353/315 261/354/76
f 253/342/5 281/355/316 280/340/306
f 281/355/316 332/356/317 282/357/318
f 82/358/107 57/359/106 284/360/319
f 65/120/113 286/138/129 68/121/114
f 289/123/116 66/43/43 388/42/42
f 292/361/320 167/362/239 160/244/232
f 295/135/128 244/363/321 35/136/22
f 244/363/321 288/364/125 25/365/124
f 296/46/15 157/240/228 62/366/322
f 296/46/15 241/367/297 157/240/228
f 159/243/231 63/54/52 228/314/288
f 70/368/243 168/369/241 299/370/323
f 72/371/324 163/372/233 304/373/325
f 308/141/132 306/374/326 69/375/327
f 308/141/132 309/376/328 306/374/326
f 322/348/311 262/377/329 323/378/330
f 273/379/331 272/211/202 414/189/180
f 84/380/246 85/208/199 170/381/244
f 170/381/244 85/208/199 80/207/198
f 171/382/332 332/356/317 174/383/248
f 86/384/250 83/115/108 171/385/332
f 84/261/246 83/115/108 86/384/250
f 171/385/332 83/115/108 82/114/107
f 334/386/161 91/156/147 178/387/253
f 178/387/253 91/156/147 89/155/146
f 429/169/160 87/267/252 334/170/161
f 90/153/144 177/388/162 334/268/161
f 93/271/254 182/389/256 180/272/255
f 95/390/333 185/391/258 184/392/257
f 93/271/254 92/158/149 95/393/333
f 342/188/179 183/187/178 184/277/257
f 189/394/334 351/395/335 191/396/336
f 191/396/336 351/395/335 99/397/337
f 97/173/164 336/398/338 189/399/334
f 190/282/260 188/166/157 96/172/163
f 190/282/260 343/167/158 188/166/157
f 79/150/141 190/282/260 191/400/336
f 190/282/260 337/174/165 191/400/336
f 181/401/339 340/186/177 338/402/340
f 94/161/152 371/403/155 342/404/179
f 54/405/341 170/406/244 154/407/342
f 332/356/317 281/355/316 173/408/249
f 173/408/249 59/409/111 85/410/199
f 98/168/159 417/148/139 329/411/343
f 345/412/344 333/413/345 73/414/346
f 180/272/255 335/415/347 348/159/150
f 178/416/253 89/417/146 319/418/348
f 350/419/349 75/420/145 179/421/350
f 189/422/334 331/181/172 351/395/335
f 353/165/156 187/423/351 188/166/157
f 155/235/223 58/116/109 172/262/247
f 172/262/247 58/116/109 83/115/108
f 101/424/352 192/175/166 194/425/353
f 198/77/73 195/76/72 199/426/354
f 195/76/72 197/177/168 356/176/167
f 193/73/69 358/72/68 149/232/220
f 40/196/187 194/427/353 100/336/193
f 44/428/74 198/429/73 359/430/355
f 109/284/262 200/283/261 204/287/265
f 404/195/186 360/334/302 359/430/355
f 359/430/355 104/431/190 44/428/74
f 361/197/188 207/292/270 110/204/195
f 251/338/304 106/293/271 207/292/270
f 201/192/183 109/284/262 105/432/356
f 360/334/302 401/433/357 104/431/190
f 249/56/54 108/288/266 248/434/358
f 108/288/266 362/128/121 248/434/358
f 36/331/299 206/290/268 131/330/210
f 206/290/268 363/435/359 131/330/210
f 245/52/50 207/292/270 132/221/212
f 105/432/356 109/284/262 364/289/267
f 151/206/197 209/182/173 152/436/360
f 354/437/361 414/189/180 77/191/182
f 368/438/31 266/439/362 265/440/28
f 210/441/175 114/178/169 266/439/362
f 115/215/206 326/351/314 76/442/363
f 326/351/314 46/11/11 416/157/148
f 211/295/273 371/403/155 94/161/152
f 210/184/175 212/443/272 370/183/174
f 258/97/92 318/444/364 259/445/365
f 318/444/364 320/446/204 259/445/365
f 259/445/365 320/446/204 45/447/77
f 321/346/309 411/448/205 350/419/349
f 73/414/346 322/348/311 345/412/344
f 322/348/311 323/378/330 372/449/366
f 280/340/306 282/357/318 375/216/207
f 120/450/367 283/451/368 55/117/110
f 408/452/369 284/360/319 376/217/208
f 284/360/319 121/453/89 255/343/307
f 377/454/370 278/301/279 50/209/200
f 252/455/371 216/456/372 233/457/373
f 233/457/373 234/86/81 8/87/82
f 6/316/290 424/458/374 231/296/274
f 424/458/374 3/459/375 378/460/376
f 12/461/377 421/462/24 236/89/84
f 133/463/211 381/4/4 30/6/6
f 407/464/378 257/465/379 374/466/380
f 8/87/82 18/467/102 257/465/379
f 11/468/381 125/3/3 221/2/2
f 230/34/34 7/299/277 24/32/32
f 387/1/1 32/469/382 221/2/2
f 381/4/4 120/450/367 406/119/112
f 276/9/9 418/470/383 379/7/7
f 381/4/4 406/119/112 253/5/5
f 113/471/384 418/470/383 6/316/290
f 117/347/310 262/377/329 260/345/308
f 226/12/12 22/472/101 49/10/10
f 242/14/14 9/473/56 385/55/53
f 271/18/18 394/474/385 267/16/16
f 254/25/25 12/461/377 375/216/207
f 394/474/385 137/350/313 267/16/16
f 215/300/278 10/315/289 220/302/280
f 396/27/27 20/475/75 48/30/30
f 265/28/28 396/27/27 368/31/31
f 24/32/32 60/239/227 298/33/33
f 377/454/370 220/302/280 278/301/279
f 144/476/26 422/101/96 421/462/24
f 215/300/278 377/454/370 27/477/386
f 14/307/216 118/143/134 224/35/35
f 224/35/35 118/143/134 264/36/36
f 310/124/117 67/478/387 290/479/388
f 62/366/322 126/38/38 296/46/15
f 290/479/388 66/43/43 310/124/117
f 392/480/389 128/49/47 225/51/49
f 127/47/45 383/59/57 384/45/13
f 129/40/40 127/47/45 126/38/38
f 125/3/3 393/61/59 387/1/1
f 135/62/60 392/480/389 225/51/49
f 127/47/45 3/459/375 383/59/57
f 390/20/20 247/23/23 39/335/303
f 245/52/50 390/20/20 39/335/303
f 3/459/375 4/481/390 383/59/57
f 124/48/46 378/460/376 3/459/375
f 124/48/46 129/40/40 380/312/286
f 380/312/286 129/40/40 23/313/287
f 380/312/286 231/296/274 378/460/376
f 229/53/51 1/482/391 11/468/381
f 383/483/57 9/484/56 384/45/13
f 388/42/42 128/49/47 229/53/51
f 383/59/57 31/485/392 218/57/55
f 36/331/299 222/304/282 365/486/269
f 222/304/282 37/487/213 365/486/269
f 9/473/56 363/435/359 385/55/53
f 125/3/3 392/480/389 393/61/59
f 135/62/60 393/61/59 392/480/389
f 147/488/393 393/61/59 33/60/58
f 391/64/19 26/134/127 35/489/22
f 135/62/60 26/134/127 389/63/61
f 51/67/63 277/490/394 330/205/196
f 386/66/62 21/491/29 277/490/394
f 427/88/83 13/492/21 232/493/395
f 400/127/120 238/129/122 25/322/124
f 400/127/120 25/322/124 34/325/295
f 403/70/66 106/494/271 402/200/191
f 250/71/67 403/70/66 402/200/191
f 261/81/76 144/80/26 395/83/78
f 382/85/80 18/495/102 8/496/82
f 232/493/395 236/89/84 427/88/83
f 420/102/97 396/497/27 21/498/29
f 33/60/58 135/62/60 427/88/83
f 389/499/61 427/88/83 135/62/60
f 270/228/218 116/90/85 19/92/87
f 17/500/396 256/93/88 409/95/90
f 16/96/91 410/100/95 258/97/92
f 422/101/96 20/501/75 396/497/27
f 419/84/79 224/35/35 382/85/80
f 123/110/105 15/109/104 224/35/35
f 425/108/103 137/502/313 394/503/385
f 424/458/374 418/504/383 425/108/103
f 58/116/109 409/95/90 57/113/106
f 425/108/103 394/503/385 15/308/104
f 6/316/290 418/505/383 424/458/374
f 409/95/90 121/94/89 57/113/106
f 339/506/397 76/442/363 335/415/347
f 355/236/224 172/262/247 54/405/341
f 76/442/363 412/17/17 115/215/206
f 339/506/397 335/415/347 181/401/339
f 349/507/398 323/378/330 117/347/310
f 316/508/399 5/39/39 305/509/400
f 120/450/367 55/117/110 406/119/112
f 5/39/39 315/142/133 305/509/400
f 397/133/126 34/327/295 25/131/124
f 317/122/115 68/121/114 300/510/401
f 289/123/116 307/126/119 310/124/117
f 297/241/229 397/133/126 288/132/125
f 146/50/48 291/511/402 399/512/403
f 2/41/41 291/511/402 146/50/48
f 61/237/225 129/40/40 5/39/39
f 26/134/127 146/50/48 295/135/128
f 399/512/403 295/135/128 146/50/48
f 286/138/129 295/135/128 399/512/403
f 300/510/401 67/478/387 311/513/404
f 69/375/327 72/371/324 308/141/132
f 72/371/324 71/139/130 308/141/132
f 308/141/132 302/140/131 70/368/243
f 398/44/44 314/514/405 315/142/133
f 87/267/252 349/507/398 179/421/350
f 398/44/44 62/366/322 312/248/236
f 398/44/44 312/248/236 314/514/405
f 118/143/134 73/414/346 373/144/135
f 294/147/138 64/146/137 303/515/406
f 415/149/140 417/148/139 53/105/100
f 92/158/149 352/179/170 186/516/259
f 407/464/378 374/466/380 285/234/222
f 154/407/342 407/464/378 285/234/222
f 413/163/154 340/186/177 371/164/155
f 77/191/182 78/190/181 336/398/338
f 77/191/182 336/398/338 187/423/351
f 56/517/407 282/357/318 332/356/317
f 328/185/176 353/165/156 343/167/158
f 337/174/165 190/282/260 96/172/163
f 192/175/166 101/424/352 356/176/167
f 89/155/146 411/214/205 320/213/204
f 99/397/337 367/180/171 366/518/408
f 347/519/409 73/414/346 333/413/345
f 367/180/171 351/395/335 331/181/172
f 370/183/174 341/160/151 324/162/153
f 328/185/176 113/471/384 353/165/156
f 347/519/409 333/413/345 176/520/410
f 401/521/357 103/332/300 104/199/190
f 156/238/226 301/522/235 287/242/230
f 287/242/230 301/522/235 292/361/320
f 371/164/155 340/186/177 342/188/179
f 410/100/95 119/99/94 88/152/143
f 414/189/180 112/210/201 78/190/181
f 56/517/407 332/356/317 171/382/332
f 361/197/188 107/203/194 404/195/186
f 201/192/183 202/285/263 148/193/184
f 404/195/186 102/523/411 40/196/187
f 103/332/300 42/198/189 104/199/190
f 104/199/190 405/75/71 44/78/74
f 249/56/54 364/289/267 109/284/262
f 39/335/303 107/203/194 245/52/50
f 385/55/53 363/435/359 364/289/267
f 408/452/369 375/216/207 282/357/318
f 362/128/121 401/521/357 38/130/123
f 362/128/121 108/288/266 401/521/357
f 53/105/100 111/104/99 415/149/140
f 330/205/196 366/518/408 367/180/171
f 55/117/110 80/207/198 59/118/111
f 327/212/203 212/443/272 368/31/31
f 49/10/10 114/178/169 46/11/11
f 47/91/86 116/90/85 413/163/154
f 395/83/78 45/82/77 320/213/204
f 130/218/209 222/304/282 131/219/210
f 262/377/329 428/225/215 270/228/218
f 133/220/211 134/223/214 132/221/212
f 226/12/12 137/350/313 275/524/412
f 137/525/313 136/526/413 275/524/412
f 14/226/216 428/225/215 138/349/312
f 15/224/104 139/227/217 428/225/215
f 141/229/219 17/500/396 142/527/414
f 294/147/138 164/250/238 165/249/237
f 141/229/219 142/527/414 18/107/102
f 51/67/63 151/206/197 152/436/360
f 62/366/322 157/240/228 158/145/136
f 287/242/230 160/244/232 159/243/231
f 159/243/231 293/125/118 63/54/52
f 64/528/137 288/364/125 161/529/415
f 72/530/324 162/246/234 163/245/233
f 206/290/268 205/69/65 203/286/264
f 69/531/327 166/252/240 167/251/239
f 332/532/317 173/264/249 174/263/248
f 88/533/143 176/534/410 177/535/162
f 334/386/161 179/536/350 91/156/147
f 183/273/178 181/537/339 182/274/256
f 95/538/333 186/539/259 185/280/258
f 187/423/351 97/173/164 188/166/157
f 357/201/192 192/175/166 193/73/69
f 41/74/70 197/177/168 196/540/416
f 195/76/72 196/540/416 197/177/168
f 102/541/411 198/77/73 199/542/354
f 105/432/356 203/286/264 202/285/263
f 203/286/264 105/432/356 364/289/267
f 215/300/278 213/298/276 214/297/275
f 231/296/274 380/312/286 214/297/275
f 216/456/372 217/305/283 130/218/209
f 31/485/392 130/218/209 218/57/55
f 130/218/209 9/58/56 218/57/55
f 11/468/381 220/302/280 10/315/289
f 221/2/2 219/303/281 220/302/280
f 223/306/284 37/487/213 222/304/282
f 270/228/218 260/345/308 262/377/329
f 140/37/37 18/107/102 224/35/35
f 135/62/60 225/51/49 26/134/127
f 22/472/101 226/12/12 275/524/412
f 275/524/412 111/104/99 22/106/101
f 214/297/275 24/32/32 7/299/277
f 256/93/88 17/500/396 16/96/91
f 229/53/51 10/315/289 228/314/288
f 227/311/285 214/297/275 380/312/286
f 232/493/395 134/543/214 29/318/291
f 133/319/211 29/318/291 134/543/214
f 235/544/417 32/469/382 122/68/64
f 278/301/279 219/303/281 235/544/417
f 239/323/294 38/130/123 246/545/301
f 147/488/393 33/60/58 236/89/84
f 238/129/122 239/323/294 237/321/293
f 237/321/293 247/324/23 35/546/22
f 240/326/296 34/325/295 242/14/14
f 296/15/15 242/14/14 241/328/297
f 35/547/22 244/548/321 237/549/293
f 237/549/293 244/548/321 25/131/124
f 363/435/359 9/473/56 131/330/210
f 247/324/23 246/545/301 39/550/303
f 248/434/358 400/127/120 240/326/296
f 249/56/54 240/326/296 242/14/14
f 201/192/183 150/233/221 200/283/261
f 401/433/357 246/333/301 38/551/123
f 202/285/263 250/71/67 149/232/220
f 251/338/304 40/196/187 100/336/193
f 149/232/220 148/193/184 202/285/263
f 283/451/368 8/87/82 407/464/378
f 251/338/304 402/337/191 106/293/271
f 120/450/367 233/457/373 283/451/368
f 279/552/418 257/465/379 142/553/414
f 375/216/207 12/461/377 423/339/305
f 280/340/306 423/339/305 253/342/5
f 254/25/25 255/343/307 144/26/26
f 255/343/307 121/453/89 256/344/88
f 259/554/365 143/555/93 258/556/92
f 257/465/379 18/467/102 142/553/414
f 279/552/418 142/553/414 17/500/396
f 395/557/78 260/345/308 261/558/76
f 144/80/26 259/554/365 45/82/77
f 141/229/219 119/99/94 16/96/91
f 262/377/329 322/348/311 138/349/312
f 138/349/312 118/143/134 14/307/216
f 140/37/37 263/559/419 141/229/219
f 145/560/420 265/440/28 266/439/362
f 145/560/420 49/10/10 22/472/101
f 326/351/314 267/16/16 226/12/12
f 48/30/30 261/354/76 268/353/315
f 19/352/87 47/561/86 268/353/315
f 116/90/85 139/227/217 269/562/421
f 269/562/421 271/18/18 412/17/17
f 139/227/217 15/224/104 271/18/18
f 273/379/331 27/477/386 272/211/202
f 151/206/197 51/67/63 330/205/196
f 6/316/290 273/379/331 113/471/384
f 111/104/99 136/526/413 274/563/422
f 274/563/422 276/9/9 52/8/8
f 136/526/413 137/525/313 276/9/9
f 153/564/423 277/490/394 145/565/420
f 22/566/101 153/564/423 145/565/420
f 277/490/394 21/491/29 145/565/420
f 50/209/200 235/544/417 152/436/360
f 51/67/63 235/544/417 122/68/64
f 408/452/369 82/358/107 284/360/319
f 253/342/5 59/409/111 281/355/316
f 280/340/306 281/355/316 282/357/318
f 285/234/222 54/405/341 154/407/342
f 284/360/319 57/359/106 121/453/89
f 60/239/227 287/242/230 298/33/33
f 68/121/114 286/138/129 399/512/403
f 297/241/229 64/146/137 158/145/136
f 63/54/52 289/123/116 388/42/42
f 67/478/387 399/512/403 291/511/402
f 290/479/388 67/478/387 291/511/402
f 290/479/388 291/511/402 2/41/41
f 66/43/43 290/479/388 2/41/41
f 307/126/119 160/244/232 167/362/239
f 287/242/230 292/361/320 160/244/232
f 312/248/236 158/145/136 165/249/237
f 294/147/138 165/249/237 158/145/136
f 161/529/415 295/135/128 65/137/113
f 297/241/229 241/367/297 243/329/298
f 244/363/321 161/529/415 288/364/125
f 23/313/287 60/239/227 227/311/285
f 60/239/227 24/32/32 227/311/285
f 159/243/231 230/34/34 298/33/33
f 317/567/115 299/370/323 168/369/241
f 162/568/234 69/375/327 167/569/239
f 301/247/235 167/569/239 292/570/320
f 70/368/243 294/147/138 169/571/242
f 304/373/325 316/508/399 305/509/400
f 169/571/242 294/147/138 303/515/406
f 307/253/119 306/374/326 310/572/117
f 69/375/327 306/374/326 166/573/240
f 311/574/404 306/374/326 309/376/328
f 299/370/323 308/141/132 70/368/243
f 300/575/401 309/376/328 299/370/323
f 302/140/131 313/576/424 164/250/238
f 164/250/238 314/514/405 312/248/236
f 304/373/325 71/139/130 72/371/324
f 313/576/424 315/142/133 314/514/405
f 315/142/133 304/373/325 305/509/400
f 156/238/226 316/508/399 163/577/233
f 161/529/415 317/122/115 169/578/242
f 156/238/226 163/577/233 301/522/235
f 161/529/415 303/579/406 64/528/137
f 318/444/364 74/151/142 319/418/348
f 320/446/204 319/418/348 89/417/146
f 114/178/169 325/580/425 352/179/170
f 321/346/309 395/557/78 411/448/205
f 210/441/175 324/581/153 325/580/425
f 211/295/273 327/212/203 268/353/315
f 329/411/343 52/8/8 328/185/176
f 327/212/203 48/30/30 268/353/315
f 211/295/273 268/353/315 47/561/86
f 274/563/422 417/148/139 111/104/99
f 153/564/423 366/518/408 330/205/196
f 112/210/201 331/181/172 78/190/181
f 208/582/426 153/564/423 53/583/100
f 333/413/345 177/171/162 176/520/410
f 84/380/246 86/265/250 85/208/199
f 86/584/250 171/382/332 174/383/248
f 84/261/246 81/585/245 172/262/247
f 81/585/245 54/405/341 172/262/247
f 324/162/153 184/392/257 185/391/258
f 175/266/251 429/169/160 333/413/345
f 334/170/161 87/267/252 179/421/350
f 90/153/144 88/152/143 177/388/162
f 182/389/256 181/401/339 335/415/347
f 180/272/255 182/389/256 335/415/347
f 93/586/254 184/277/257 183/187/178
f 95/393/333 92/158/149 186/516/259
f 189/394/334 337/587/165 97/588/164
f 181/401/339 369/589/427 339/506/397
f 97/173/164 187/423/351 336/398/338
f 79/150/141 98/168/159 190/282/260
f 80/207/198 154/407/342 170/406/244
f 181/401/339 183/187/178 340/186/177
f 54/405/341 81/585/245 170/406/244
f 98/168/159 328/185/176 343/167/158
f 173/408/249 281/355/316 59/409/111
f 175/266/251 372/449/366 87/267/252
f 99/397/337 344/590/428 191/591/336
f 191/591/336 344/590/428 79/592/141
f 347/519/409 346/593/429 373/144/135
f 345/412/344 175/266/251 333/413/345
f 88/152/143 346/593/429 176/520/410
f 178/416/253 74/151/142 90/153/144
f 82/358/107 56/517/407 171/382/332
f 348/159/150 92/158/149 180/272/255
f 348/159/150 335/415/347 76/442/363
f 189/422/334 78/190/181 331/181/172
f 349/507/398 350/419/349 179/421/350
f 179/421/350 75/420/145 91/594/147
f 357/201/192 194/425/353 192/175/166
f 352/179/170 325/580/425 186/516/259
f 186/516/259 325/580/425 324/581/153
f 353/165/156 354/437/361 187/423/351
f 187/423/351 354/437/361 77/191/182
f 355/236/224 155/235/223 172/262/247
f 101/595/352 199/596/354 356/597/167
f 199/426/354 195/76/72 356/176/167
f 192/175/166 197/177/168 193/73/69
f 197/177/168 41/74/70 193/73/69
f 40/196/187 199/596/354 194/427/353
f 40/196/187 102/523/411 199/596/354
f 149/232/220 357/201/192 193/73/69
f 150/233/221 405/75/71 42/198/189
f 195/76/72 405/75/71 196/540/416
f 103/332/300 204/287/265 200/283/261
f 196/540/416 150/233/221 41/74/70
f 359/430/355 198/429/73 102/523/411
f 37/222/213 207/292/270 365/291/269
f 102/523/411 404/195/186 359/430/355
f 359/430/355 360/334/302 104/431/190
f 361/197/188 251/338/304 207/292/270
f 202/285/263 201/192/183 105/432/356
f 404/195/186 107/203/194 360/334/302
f 249/56/54 109/284/262 108/288/266
f 206/290/268 364/289/267 363/435/359
f 245/52/50 110/204/195 207/292/270
f 36/331/299 403/70/66 205/69/65
f 344/590/428 366/518/408 208/582/426
f 106/494/271 403/70/66 365/486/269
f 344/590/428 53/583/100 79/592/141
f 112/210/201 152/436/360 209/182/173
f 354/437/361 113/471/384 273/379/331
f 338/402/340 116/90/85 269/562/421
f 354/437/361 273/379/331 414/189/180
f 209/182/173 151/206/197 367/180/171
f 368/438/31 210/441/175 266/439/362
f 266/439/362 114/178/169 49/10/10
f 76/442/363 326/351/314 348/159/150
f 348/159/150 326/351/314 416/157/148
f 412/17/17 338/402/340 269/562/421
f 94/161/152 370/183/174 211/295/273
f 350/419/349 117/347/310 321/346/309
f 211/295/273 47/561/86 371/403/155
f 210/184/175 368/31/31 212/443/272
f 346/593/429 119/99/94 263/559/419
f 350/419/349 411/448/205 75/420/145
f 73/414/346 118/143/134 322/348/311
f 345/412/344 322/348/311 372/449/366
f 264/36/36 346/593/429 263/559/419
f 279/552/418 285/234/222 374/466/380
f 58/116/109 279/552/418 17/500/396
f 255/343/307 376/217/208 284/360/319
f 55/117/110 283/451/368 154/407/342
f 283/451/368 407/464/378 154/407/342
f 272/211/202 377/454/370 50/209/200
f 234/86/81 216/456/372 31/485/392
f 223/306/284 252/455/371 381/4/4
f 28/598/292 423/339/305 12/461/377
f 30/341/6 423/339/305 29/599/291
f 3/459/375 123/110/105 4/481/390
f 231/296/274 424/458/374 378/460/376
f 420/600/97 32/469/382 387/1/1
f 420/600/97 386/112/62 32/469/382
f 386/112/62 122/68/64 32/469/382
f 424/458/374 425/108/103 3/459/375
f 387/1/1 426/103/98 420/102/97
f 4/481/390 123/110/105 419/84/79
f 31/485/392 419/84/79 234/86/81
f 28/598/292 12/461/377 236/89/84
f 236/89/84 421/462/24 147/488/393
f 421/462/24 422/101/96 147/488/393
f 426/103/98 147/488/393 422/101/96
f 393/61/59 147/488/393 426/103/98
f 133/463/211 223/306/284 381/4/4
f 407/464/378 8/87/82 257/465/379
f 11/468/381 1/482/391 125/3/3
f 230/34/34 10/315/289 7/299/277
f 381/4/4 252/455/371 120/450/367
f 276/9/9 137/525/313 418/470/383
f 113/471/384 379/7/7 418/470/383
f 117/347/310 323/378/330 262/377/329
f 242/14/14 384/13/13 9/473/56
f 271/18/18 15/224/104 394/474/385
f 254/25/25 421/24/24 12/461/377
f 215/300/278 7/299/277 10/315/289
f 377/454/370 215/300/278 220/302/280
f 144/476/26 20/601/75 422/101/96
f 310/124/117 311/513/404 67/478/387
f 62/366/322 398/44/44 126/38/38
f 392/480/389 1/482/391 128/49/47
f 127/47/45 124/48/46 3/459/375
f 124/48/46 380/312/286 378/460/376
f 229/53/51 128/49/47 1/482/391
f 388/42/42 2/41/41 128/49/47
f 383/59/57 4/481/390 31/485/392
f 125/3/3 1/482/391 392/480/389
f 391/64/19 389/63/61 26/134/127
f 51/67/63 386/66/62 277/490/394
f 427/88/83 389/499/61 13/492/21
f 232/493/395 29/318/291 236/89/84
f 420/102/97 422/101/96 396/497/27
f 419/84/79 123/110/105 224/35/35
f 425/108/103 418/504/383 137/502/313
f 58/116/109 17/500/396 409/95/90
f 339/506/397 369/589/427 76/442/363
f 76/442/363 369/589/427 412/17/17
f 349/507/398 372/449/366 323/378/330
f 316/508/399 61/237/225 5/39/39
f 397/133/126 243/329/298 34/327/295
f 297/241/229 243/329/298 397/133/126
f 61/237/225 23/313/287 129/40/40
f 300/510/401 68/121/114 67/478/387
f 87/267/252 372/449/366 349/507/398
f 92/158/149 416/157/148 352/179/170
f 413/163/154 116/90/85 340/186/177
f 56/517/407 408/452/369 282/357/318
f 89/155/146 75/154/145 411/214/205
f 99/397/337 351/395/335 367/180/171
f 347/519/409 373/144/135 73/414/346
f 328/185/176 379/7/7 113/471/384
f 401/521/357 108/288/266 103/332/300
f 361/197/188 110/204/195 107/203/194
f 249/56/54 385/55/53 364/289/267
f 408/452/369 376/217/208 375/216/207
f 130/218/209 217/305/283 222/304/282
f 262/377/329 138/349/312 428/225/215
f 141/229/219 16/96/91 17/500/396
f 294/147/138 302/140/131 164/250/238
f 206/290/268 36/331/299 205/69/65
f 215/300/278 27/477/386 213/298/276
f 216/456/372 252/455/371 217/305/283
f 31/485/392 216/456/372 130/218/209
f 11/468/381 221/2/2 220/302/280
f 221/2/2 32/469/382 219/303/281
f 223/306/284 133/463/211 37/487/213
f 270/228/218 261/309/76 260/345/308
f 214/297/275 227/311/285 24/32/32
f 229/53/51 11/468/381 10/315/289
f 232/493/395 13/492/21 134/543/214
f 235/544/417 219/303/281 32/469/382
f 239/323/294 238/129/122 38/130/123
f 247/324/23 239/323/294 246/545/301
f 248/434/358 362/128/121 400/127/120
f 249/56/54 248/434/358 240/326/296
f 201/192/183 43/194/185 150/233/221
f 401/433/357 360/334/302 246/333/301
f 202/285/263 205/69/65 250/71/67
f 251/338/304 361/197/188 40/196/187
f 283/451/368 233/457/373 8/87/82
f 120/450/367 252/455/371 233/457/373
f 279/552/418 374/466/380 257/465/379
f 259/554/365 144/80/26 143/555/93
f 395/557/78 321/346/309 260/345/308
f 141/229/219 263/559/419 119/99/94
f 140/37/37 264/36/36 263/559/419
f 145/560/420 21/602/29 265/440/28
f 145/560/420 266/439/362 49/10/10
f 326/351/314 115/215/206 267/16/16
f 48/30/30 20/475/75 261/354/76
f 116/90/85 270/228/218 139/227/217
f 269/562/421 139/227/217 271/18/18
f 273/379/331 213/298/276 27/477/386
f 6/316/290 213/298/276 273/379/331
f 111/104/99 275/524/412 136/526/413
f 274/563/422 136/526/413 276/9/9
f 153/564/423 330/205/196 277/490/394
f 22/566/101 53/583/100 153/564/423
f 50/209/200 278/301/279 235/544/417
f 51/67/63 152/436/360 235/544/417
f 408/452/369 56/517/407 82/358/107
f 285/234/222 355/236/224 54/405/341
f 60/239/227 156/238/226 287/242/230
f 297/241/229 288/132/125 64/146/137
f 63/54/52 293/125/118 289/123/116
f 67/478/387 68/121/114 399/512/403
f 307/126/119 293/125/118 160/244/232
f 312/248/236 62/366/322 158/145/136
f 161/529/415 244/363/321 295/135/128
f 297/241/229 157/240/228 241/367/297
f 23/313/287 61/237/225 60/239/227
f 159/243/231 228/314/288 230/34/34
f 317/567/115 300/575/401 299/370/323
f 162/568/234 72/371/324 69/375/327
f 301/247/235 162/568/234 167/569/239
f 70/368/243 302/140/131 294/147/138
f 304/373/325 163/372/233 316/508/399
f 307/253/119 166/573/240 306/374/326
f 311/574/404 310/572/117 306/374/326
f 299/370/323 309/376/328 308/141/132
f 300/575/401 311/574/404 309/376/328
f 302/140/131 71/139/130 313/576/424
f 164/250/238 313/576/424 314/514/405
f 304/373/325 313/576/424 71/139/130
f 315/142/133 313/576/424 304/373/325
f 156/238/226 61/237/225 316/508/399
f 161/529/415 65/120/113 317/122/115
f 161/529/415 169/578/242 303/579/406
f 318/444/364 258/97/92 74/151/142
f 320/446/204 318/444/364 319/418/348
f 114/178/169 210/441/175 325/580/425
f 211/295/273 212/443/272 327/212/203
f 329/411/343 274/563/422 52/8/8
f 274/563/422 329/411/343 417/148/139
f 153/564/423 208/582/426 366/518/408
f 112/210/201 209/182/173 331/181/172
f 333/413/345 429/169/160 177/171/162
f 324/162/153 94/161/152 184/392/257
f 93/586/254 95/603/333 184/277/257
f 189/394/334 191/396/336 337/587/165
f 181/401/339 338/402/340 369/589/427
f 80/207/198 55/117/110 154/407/342
f 98/168/159 329/411/343 328/185/176
f 175/266/251 345/412/344 372/449/366
f 347/519/409 176/520/410 346/593/429
f 178/416/253 319/418/348 74/151/142
f 189/422/334 336/398/338 78/190/181
f 357/201/192 100/202/193 194/425/353
f 101/595/352 194/427/353 199/596/354
f 149/232/220 250/71/67 357/201/192
f 150/233/221 196/540/416 405/75/71
f 103/332/300 108/288/266 204/287/265
f 37/222/213 132/221/212 207/292/270
f 36/331/299 365/486/269 403/70/66
f 344/590/428 99/397/337 366/518/408
f 344/590/428 208/582/426 53/583/100
f 112/210/201 50/209/200 152/436/360
f 354/437/361 353/165/156 113/471/384
f 338/402/340 340/186/177 116/90/85
f 412/17/17 369/589/427 338/402/340
f 94/161/152 341/160/151 370/183/174
f 350/419/349 349/507/398 117/347/310
f 346/593/429 88/152/143 119/99/94
f 264/36/36 373/144/135 346/593/429
f 279/552/418 155/235/223 285/234/222
f 58/116/109 155/235/223 279/552/418
f 255/343/307 254/25/25 376/217/208
f 272/211/202 27/477/386 377/454/370
f 234/86/81 233/457/373 216/456/372
f 223/306/284 217/305/283 252/455/371
f 28/598/292 29/599/291 423/339/305
f 3/459/375 425/108/103 123/110/105
f 387/1/1 393/61/59 426/103/98
f 31/485/392 4/481/390 419/84/79
