# Blender v3.1.2 OBJ File: ''
# www.blender.org
o Sphere
v 0.150132 -0.326214 -1.286541
v 0.110011 -0.520773 -1.159531
v 0.033750 -0.672464 -0.991786
v 0.164859 -0.784969 -0.753052
v 0.099680 -0.874219 -0.486039
v 0.090507 -0.919505 -0.199524
v 0.064423 -0.195185 -0.392315
v -0.106233 -0.926572 0.109056
v -0.166399 -0.500434 1.003368
v -0.077732 -0.403046 -0.221181
v 0.192190 -0.908385 0.105093
v 0.169510 0.076358 -0.448364
v 0.280973 -0.847843 0.466342
v 0.162628 -0.755549 0.717949
v 0.219351 -0.622016 0.876252
v 0.176036 -0.353595 -0.237752
v 0.181150 -0.442819 -0.118037
v 0.256869 -0.456143 1.003177
v 0.187137 -0.302447 1.102529
v 0.072332 -0.143937 1.169264
v 0.101029 -0.545500 0.142488
v 0.294350 -0.602811 -0.991693
v 0.401859 -0.776145 -0.516242
v 0.447072 -0.813410 -0.216264
v 0.473971 -0.808400 0.107572
v 0.335437 0.086370 -0.379570
v 0.281712 -0.192033 -0.318503
v 0.421997 -0.672753 0.701740
v 0.169070 -0.504798 0.025074
v 0.358294 -0.347759 -1.189237
v 0.466623 -0.629377 -0.783076
v 0.453622 -0.066296 -0.253713
v 0.536736 -0.724440 0.453161
v 0.383609 -0.315580 -0.131952
v 0.495350 -0.421356 -1.017667
v 0.604775 -0.627357 -0.521783
v 0.728019 -0.602661 -0.124498
v 0.688792 -0.602124 0.438409
v 0.567681 0.121209 -0.167227
v 0.513871 -0.192128 -0.090576
v 0.570433 -0.479650 0.799228
v 0.293663 -0.481108 0.121148
v 0.469114 -0.039869 1.072403
v 0.282629 0.009357 1.150219
v 0.135726 0.135313 1.183006
v 0.649338 -0.419683 -0.801313
v 0.757807 -0.426070 -0.545467
v 0.866498 -0.411681 0.044095
v 0.674565 0.169824 0.137610
v 0.648016 -0.041808 0.099705
v 0.813916 -0.452950 0.418640
v 0.503887 -0.316525 0.112522
v 0.799048 -0.277097 0.670701
v 0.569801 -0.286946 0.932791
v 0.889931 -0.282506 -0.286505
v 0.911560 -0.274352 0.394179
v 0.596263 -0.192033 0.226316
v 0.348953 -0.447244 0.319060
v 0.645329 -0.021265 0.946892
v 0.222767 -0.061741 -1.322751
v 0.581711 -0.165816 -1.053873
v 0.773887 -0.169140 -0.761668
v 0.648590 0.209665 0.397282
v 0.979900 -0.053466 0.003914
v 0.628446 -0.059185 0.384247
v 0.968333 -0.086469 0.358941
v 0.480583 -0.321152 0.393619
v 0.831662 -0.059629 0.734174
v 0.220127 -0.503656 0.344170
v 0.358655 0.317693 1.099743
v 0.409792 -0.046139 -1.225055
v 0.836959 0.047242 -0.637345
v 0.940652 0.103493 -0.287587
v 0.584713 0.074500 0.558121
v 0.980783 0.199290 0.331863
v 0.514720 -0.187765 0.527573
v 0.858418 0.253808 0.672000
v 0.675444 0.288081 0.897509
v 0.518080 0.308015 1.015185
v 0.145600 0.328610 1.151849
v 0.473514 0.067251 0.705667
v 0.036692 -0.163111 -1.344898
v -0.155757 -0.065040 -1.332824
v 0.411253 -0.197964 0.649500
v -0.385315 -0.045613 -1.219494
v -0.406593 0.316269 1.080243
v 0.175503 -0.442819 0.554162
v -0.234966 0.190956 1.163503
v -0.347778 -0.219093 -1.221807
v -0.528056 -0.175458 -1.080557
v -0.685027 -0.154390 -0.882377
v -0.771171 0.023890 -0.765474
v -0.911572 0.081600 -0.392657
v -0.975328 0.125133 -0.114695
v 0.315772 0.272947 0.812450
v -1.008108 0.182513 0.254158
v -0.941644 0.226070 0.531057
v 0.321111 -0.059185 0.790589
v -0.846504 0.255239 0.714340
v 0.291390 -0.311838 0.654432
v -0.587689 0.150211 1.008680
v -0.415376 0.154755 1.106536
v 0.080007 -0.531619 0.386689
v -0.776485 -0.309602 -0.616424
v -0.941173 -0.159268 -0.211091
v -0.990737 -0.100896 0.309604
v 0.160728 0.284074 0.867398
v 0.058837 0.135414 0.908654
v 0.164999 -0.066237 0.855577
v -0.900860 -0.148568 0.593718
v -0.788489 0.081251 0.830004
v 0.121294 -0.305353 0.735039
v -0.091460 -0.313087 -1.294724
v -0.460272 -0.385423 -1.048113
v -0.606707 -0.412902 -0.843893
v -0.814852 -0.439547 -0.301586
v -0.874330 -0.413920 0.005811
v -0.098127 0.287194 0.890723
v -0.933800 -0.285632 0.340330
v -0.006581 -0.066237 0.880572
v -0.759762 -0.225339 0.785656
v -0.658884 -0.134566 0.926273
v -0.104268 -0.253752 0.784966
v -0.069083 -0.403046 0.655184
v -0.488465 -0.112642 1.054782
v -0.125325 -0.547435 0.293453
v -0.177932 -0.460524 -1.188621
v -0.623109 -0.585631 -0.561073
v -0.841438 -0.455675 0.369789
v -0.297263 0.135414 0.853192
v -0.726643 -0.450437 0.652996
v -0.178785 -0.066237 0.860307
v -0.255618 -0.089993 1.154398
v -0.276965 -0.583660 -1.014906
v -0.430751 -0.633000 -0.799601
v -0.582813 -0.712884 -0.273063
v -0.628882 -0.713082 0.034354
v -0.354942 0.272738 0.802504
v -0.713201 -0.607381 0.402511
v -0.339876 -0.066237 0.796164
v -0.553718 -0.472816 0.830641
v -0.285547 -0.305353 0.680026
v -0.486797 -0.347493 0.964825
v -0.153320 -0.488657 0.500661
v -0.056658 0.031772 1.195714
v -0.056988 -0.555066 0.144954
v -0.379944 -0.774395 -0.539556
v -0.556591 -0.732082 0.422145
v -0.456268 -0.670943 0.689653
v -0.478876 -0.066236 0.692512
v -0.186763 -0.316284 1.102498
v -0.414506 -0.321778 0.556931
v -0.257687 -0.506733 0.327601
v -0.179018 -0.756475 -0.787014
v -0.265235 -0.883421 -0.237094
v -0.374380 -0.857211 0.080350
v -0.382995 -0.820415 0.441151
v -0.200212 -0.647392 0.865949
v -0.616192 0.062262 0.558026
v -0.544540 -0.197964 0.516770
v -0.391434 -0.442819 0.313729
v -0.144486 -0.857388 -0.507693
v -0.195141 -0.873501 0.455034
v -0.110264 -0.772926 0.715886
v -0.684090 0.204136 0.382283
v -0.654865 -0.066237 0.397151
v -0.532833 -0.309374 0.348196
v -0.000251 -0.889300 0.463261
v -0.037762 0.234156 1.181588
v 0.623551 -0.012103 -1.024717
v -0.705213 0.177408 0.208532
v -0.679860 -0.066236 0.225571
v -0.540646 -0.318310 0.170785
v -0.668988 0.143369 -0.014376
v -0.648917 -0.001705 -0.039183
v -0.604292 -0.192033 0.048492
v 0.036047 -0.064343 -1.346516
v -0.156891 0.328643 1.154009
v -0.302808 -0.483286 0.076314
v -0.540771 -0.192034 -0.098119
v -0.410443 -0.356713 -0.071906
v -0.510548 0.101017 -0.270385
v -0.441469 -0.192034 -0.223294
v -0.634152 0.295344 0.950158
v -0.366799 0.084683 -0.379296
v -0.313152 -0.192034 -0.318503
v -0.255800 -0.412798 -0.137042
v -0.057292 -0.508209 -0.043547
v -0.200952 0.075004 -0.448132
v -0.164566 -0.192033 -0.377256
v -0.015821 0.072330 -0.474057
v -0.536482 0.249592 0.665487
v 0.526229 0.248253 0.632392
vt 0.782857 0.500000
vt 0.756133 0.500000
vt 0.779243 0.500000
vt 0.717143 0.500000
vt 0.752309 0.500000
vt 0.736431 0.500000
vt 0.760415 0.500000
vt 0.733256 0.500000
vt 0.734887 0.500000
vt 0.717143 0.500000
vt 0.701400 0.500000
vt 0.718661 0.500000
vt 0.687776 0.500000
vt 0.672851 0.500000
vt 0.701740 0.500000
vt 0.662255 0.500000
vt 0.691164 0.500000
vt 0.666483 0.500000
vt 0.690320 0.500000
vt 0.676681 0.500000
vt 0.701476 0.500000
vt 0.697636 0.500000
vt 0.721466 0.500000
vt 0.734902 0.500000
vt 0.749997 0.500000
vt 0.765098 0.500000
vt 0.786609 0.500000
vt 0.816143 0.500000
vt 0.768064 0.500000
vt 0.831563 0.500000
vt 0.795162 0.500000
vt 0.836640 0.500000
vt 0.808731 0.500000
vt 0.837745 0.500000
vt 0.811740 0.500000
vt 0.831563 0.500000
vt 0.808952 0.500000
vt 0.823319 0.500000
vt 0.803150 0.500000
vt 0.797139 0.500000
vt 0.782669 0.500000
vt 0.736118 0.625000
vt 0.718750 0.562500
vt 0.767318 0.562500
vt 0.718594 0.875000
vt 0.671207 0.812500
vt 0.749078 0.812500
vt 0.718588 0.750000
vt 0.673360 0.687500
vt 0.734375 0.687500
vt 0.703317 0.478352
vt 0.671875 0.375000
vt 0.718750 0.375000
vt 0.670181 0.562500
vt 0.656250 0.478086
vt 0.655865 0.937500
vt 0.590558 0.875000
vt 0.703125 0.312500
vt 0.633268 0.338699
vt 0.642040 0.750000
vt 0.684825 0.250000
vt 0.604442 0.272998
vt 0.625000 0.687500
vt 0.671875 0.625000
vt 0.615112 0.602051
vt 0.640625 0.000000
vt 0.765595 0.062500
vt 0.582377 0.062500
vt 0.592740 0.812500
vt 0.579090 0.750000
vt 0.576330 0.687500
vt 0.549679 0.625000
vt 0.578125 0.562500
vt 0.562500 0.477787
vt 0.593750 0.478086
vt 0.781344 0.250000
vt 0.783826 0.312500
vt 0.576648 0.375000
vt 0.540430 0.339392
vt 0.546875 1.000000
vt 0.421972 0.937102
vt 0.514138 0.812500
vt 0.520586 0.728993
vt 0.574838 0.187500
vt 0.461382 0.125000
vt 0.595766 0.125000
vt 0.516750 0.562500
vt 0.420352 0.062950
vt 0.531250 0.481325
vt 0.484754 0.477708
vt 0.515625 0.000000
vt 0.460047 0.875000
vt 0.473409 0.795532
vt 0.481525 0.687500
vt 0.488771 0.608716
vt 0.390625 1.000000
vt 0.379542 0.955667
vt 0.390625 0.000000
vt 0.379542 0.044333
vt 0.120458 0.955667
vt 0.109375 1.000000
vt 0.077456 0.937108
vt 0.046875 0.000000
vt 0.094233 0.057176
vt 0.011443 0.062500
vt 0.000000 0.875000
vt 0.037921 0.860204
vt 0.018401 0.312500
vt 0.000000 0.250000
vt 0.026237 0.208091
vt 0.000000 0.187500
vt 1.000000 0.687500
vt 0.986236 0.750000
vt 0.950323 0.687500
vt 0.969602 0.875000
vt 0.921207 0.812500
vt 0.985233 0.812500
vt 0.950320 0.375000
vt 0.922364 0.312500
vt 0.979449 0.274496
vt 0.922955 0.625000
vt 0.968750 0.595451
vt 0.923569 0.562500
vt 0.981787 0.937500
vt 0.953125 1.000000
vt 0.859267 0.937500
vt 0.902283 0.187500
vt 0.847281 0.125000
vt 0.972691 0.125000
vt 0.937500 0.478344
vt 0.906250 0.478344
vt 0.843785 0.875000
vt 0.924676 0.750000
vt 0.888830 0.687500
vt 0.889148 0.375000
vt 0.859864 0.312500
vt 0.860916 0.625000
vt 0.957791 0.062500
vt 0.890625 0.000000
vt 0.842740 0.812500
vt 0.875000 0.475855
vt 0.860583 0.562500
vt 0.843750 0.478085
vt 0.860340 0.750000
vt 0.829610 0.687500
vt 0.862176 0.250000
vt 0.795138 0.187500
vt 0.796875 0.750000
vt 0.798126 0.625000
vt 0.828447 0.375000
vt 0.781250 0.687500
vt 0.812500 0.562500
vt 0.705406 0.125000
vt 0.781250 0.478085
vt 0.750000 0.478085
vt 0.765625 1.000000
vt 0.589739 0.062500
vt 0.775298 0.125000
vt 0.790491 0.036933
vt 0.686405 0.250000
vt 0.729160 0.343657
vt 0.771273 0.221510
vt 0.627660 0.125000
vt 0.665421 0.187500
vt 0.666667 0.343614
vt 0.625000 0.406166
vt 0.666667 0.477514
vt 0.613124 0.276871
vt 0.583333 0.343610
vt 0.527314 0.419134
vt 0.596177 0.490451
vt 0.531562 0.275491
vt 0.540795 0.156363
vt 0.500000 0.343614
vt 0.446649 0.273600
vt 0.456250 0.187500
vt 0.420923 0.125000
vt 0.458333 0.409484
vt 0.337596 0.089874
vt 0.458333 0.534208
vt 0.416667 0.472023
vt 0.395780 0.551900
vt 0.437500 0.000000
vt 0.416667 0.345995
vt 0.333333 0.409484
vt 0.375000 0.468742
vt 0.375000 0.340364
vt 0.331816 0.187500
vt 0.291667 0.281051
vt 0.346766 0.276867
vt 0.267037 0.500000
vt 0.230269 0.569696
vt 0.291667 0.569054
vt 0.270833 0.000000
vt 0.103875 0.062500
vt 0.250000 0.406168
vt 0.291667 0.406168
vt 0.229275 0.219664
vt 0.225393 0.312500
vt 0.208333 0.406168
vt 0.166667 0.406168
vt 0.183704 0.500000
vt 0.166667 0.281051
vt 0.166397 0.563598
vt 0.183868 0.151863
vt 0.113766 0.271355
vt 0.068603 0.125000
vt 0.083333 0.340364
vt 0.125000 0.406168
vt 0.040421 0.187500
vt 0.083333 0.466403
vt 0.107387 0.542937
vt 0.041667 0.531667
vt 0.041667 0.406168
vt 0.041667 0.278797
vt 0.926894 0.151407
vt 1.000000 0.187500
vt 1.000000 0.125000
vt 0.975626 0.062500
vt 0.988126 0.271511
vt 0.958333 0.343614
vt 1.000000 0.406168
vt 0.899603 0.250000
vt 0.938950 0.437500
vt 0.875000 0.484348
vt 0.946321 0.503822
vt 0.844182 0.210256
vt 0.686526 0.187500
vt 0.765947 0.375000
vt 0.625000 0.478086
vt 0.549676 0.250000
vt 0.478502 0.250000
vt 0.482494 0.341539
vt 0.472052 0.187079
vt 0.014208 0.714855
vt 0.000000 0.812500
vt 0.000000 0.750000
vt 0.040996 0.125000
vt 0.000000 0.125000
vt 1.000000 0.625000
vt 0.968750 0.478344
vt 1.000000 0.562500
vt 1.000000 0.375000
vt 1.000000 0.481324
vt 0.924676 0.250000
vt 0.984375 0.187500
vt 0.812500 0.478085
vt 0.708333 0.472842
vt 0.750000 0.471011
vt 0.518215 0.515996
vt 0.333778 0.563364
vt 0.000000 0.406168
vt 0.000000 0.271511
vt 0.000000 0.519350
vt 1.000000 0.519350
vt 0.916667 0.343613
vt 0.875000 0.343613
vt 0.833333 0.343613
vt 0.833333 0.476727
vt 0.791667 0.472210
vt 0.791667 0.343614
vt 1.000000 0.312500
vn -0.0023 0.9879 -0.1553
vn 0.0001 0.9878 -0.1558
vn -0.0028 0.9877 -0.1561
vn -0.0020 0.9879 -0.1548
vn -0.0010 0.9878 -0.1557
vn 0.0130 0.9880 -0.1540
vn -0.0201 0.9883 -0.1509
vn -0.0015 0.9856 -0.1690
vn 0.0013 0.9888 -0.1493
vn -0.0004 0.9874 -0.1584
vn 0.0026 0.9870 -0.1606
vn 0.0019 0.9882 -0.1530
vn -0.0040 0.9875 -0.1576
vn -0.0035 0.9877 -0.1563
vn -0.0006 0.9885 -0.1511
vn -0.0087 0.9873 -0.1584
vn 0.0025 0.9887 -0.1498
vn -0.0008 0.9877 -0.1563
vn 0.0059 0.9880 -0.1544
vn -0.0147 0.9877 -0.1556
vn 0.0052 0.9873 -0.1588
vn -0.0030 0.9881 -0.1538
vn -0.0011 0.9882 -0.1534
vn -0.0076 0.9877 -0.1564
vn -0.0066 0.9880 -0.1543
vn -0.0089 0.9883 -0.1524
vn -0.0049 0.9880 -0.1542
vn -0.0051 0.9880 -0.1546
vn -0.0074 0.9869 -0.1612
vn -0.0021 0.9879 -0.1552
vn -0.0049 0.9871 -0.1603
vn -0.0065 0.9879 -0.1552
vn -0.0031 0.9883 -0.1523
vn 0.0017 0.9868 -0.1622
vn -0.0071 0.9882 -0.1528
vn -0.0075 0.9895 -0.1444
vn 0.0155 0.9876 -0.1561
vn -0.0061 0.9885 -0.1513
vn 0.0010 0.9884 -0.1516
vn -0.0048 0.9886 -0.1506
vn -0.0040 0.9875 -0.1577
vn 0.0998 -0.9906 -0.0933
vn 0.2031 -0.9784 0.0377
vn -0.0995 -0.9944 0.0362
vn 0.1291 -0.6642 -0.7363
vn 0.3711 -0.7362 -0.5659
vn 0.0105 -0.8255 -0.5644
vn 0.1812 -0.9070 -0.3802
vn 0.4317 -0.8691 -0.2415
vn 0.1084 -0.9694 -0.2203
vn 0.2839 -0.9217 0.2644
vn 0.4369 -0.7448 0.5044
vn 0.1551 -0.8390 0.5216
vn 0.4945 -0.8684 0.0367
vn 0.5452 -0.7995 0.2522
vn 0.2019 -0.4028 -0.8927
vn 0.4859 -0.4085 -0.7727
vn 0.2082 -0.6976 0.6856
vn 0.5818 -0.5651 0.5850
vn 0.5443 -0.7332 -0.4076
vn 0.2641 -0.5324 0.8043
vn 0.5671 -0.3606 0.7405
vn 0.6697 -0.6992 -0.2504
vn 0.4594 -0.8821 -0.1040
vn 0.7441 -0.6637 -0.0761
vn -0.0186 0.1634 0.9864
vn -0.0475 -0.0518 0.9975
vn 0.1548 0.0518 0.9866
vn 0.6360 -0.4993 -0.5884
vn 0.7618 -0.4770 -0.4383
vn 0.8355 -0.4745 -0.2770
vn 0.9311 -0.3149 -0.1838
vn 0.8828 -0.4694 -0.0153
vn 0.9201 -0.3407 0.1932
vn 0.8077 -0.5450 0.2249
vn -0.1434 -0.5783 0.8031
vn -0.1906 -0.7204 0.6668
vn 0.7977 -0.3752 0.4722
vn 0.8421 -0.1212 0.5255
vn 0.0297 -0.1598 -0.9867
vn 0.2542 0.5388 -0.8032
vn 0.7366 -0.1991 -0.6464
vn 0.8881 -0.1804 -0.4229
vn 0.4680 -0.1195 0.8756
vn 0.2791 0.7564 0.5916
vn 0.2917 -0.0732 0.9537
vn 0.9913 -0.1120 -0.0685
vn 0.1139 0.7912 0.6009
vn 0.9732 -0.1473 0.1766
vn 0.7468 0.6644 0.0283
vn 0.4233 0.5588 -0.7131
vn 0.5767 0.6081 -0.5456
vn 0.6982 0.6242 -0.3506
vn 0.7279 0.6334 -0.2627
vn 0.0164 0.6230 -0.7821
vn -0.1088 0.7947 0.5972
vn -0.2120 0.5371 -0.8165
vn -0.2328 0.1003 0.9673
vn -0.5040 -0.2601 -0.8236
vn -0.4276 0.5906 -0.6844
vn -0.6294 0.7243 0.2815
vn -0.7848 -0.0053 0.6198
vn -0.4653 0.7606 0.4528
vn -0.5765 0.0485 0.8157
vn -0.6733 0.5992 -0.4332
vn -0.8243 -0.1553 -0.5444
vn -0.8751 -0.3289 -0.3549
vn -0.6170 -0.4629 -0.6364
vn -0.7307 -0.1280 -0.6705
vn -0.8931 -0.2143 0.3956
vn -0.7491 -0.3112 0.5849
vn -0.8426 -0.5028 -0.1928
vn -0.9612 -0.2045 -0.1853
vn -0.8722 -0.4851 -0.0626
vn -0.1699 -0.3846 -0.9073
vn -0.4727 -0.1922 0.8600
vn -0.2501 -0.1702 0.9531
vn -0.4079 0.0607 0.9110
vn -0.9209 -0.3634 0.1407
vn -0.8279 -0.5336 0.1727
vn -0.2725 -0.5837 -0.7648
vn -0.7364 -0.4717 -0.4851
vn -0.6981 -0.6486 -0.3033
vn -0.7196 -0.5305 0.4481
vn -0.5339 -0.5547 0.6381
vn -0.6123 -0.7768 -0.1472
vn -0.3761 -0.7151 -0.5893
vn -0.7002 -0.6837 0.2055
vn -0.6384 -0.7692 -0.0291
vn -0.5492 -0.8049 0.2248
vn -0.5311 -0.7272 -0.4348
vn -0.4343 -0.8600 -0.2680
vn -0.4649 -0.4331 0.7722
vn -0.1725 -0.3905 0.9043
vn -0.2143 -0.8870 -0.4091
vn -0.2804 -0.9532 -0.1136
vn -0.4444 -0.7479 0.4932
vn -0.1540 -0.9569 -0.2462
vn -0.3816 -0.9242 0.0127
vn 0.0773 -0.2274 0.9707
vn -0.1981 -0.9452 0.2594
vn 0.0272 -0.9643 0.2635
vn -0.1658 0.9822 0.0881
vn 0.0623 0.9252 0.3744
vn 0.0721 0.9920 0.1037
vn -0.2627 0.6935 0.6708
vn -0.1108 0.4610 0.8805
vn 0.0862 0.7559 0.6490
vn -0.2594 0.9204 0.2926
vn -0.2851 0.8336 0.4731
vn -0.4321 0.4499 0.7816
vn -0.6763 0.2869 0.6785
vn -0.3192 0.8502 0.4187
vn -0.5717 0.6561 0.4926
vn -0.7820 0.4474 0.4340
vn -0.9519 0.2479 0.1804
vn -0.5196 0.8314 0.1968
vn -0.7388 0.6556 0.1562
vn -0.4688 0.8711 0.1465
vn -0.8830 0.4690 -0.0204
vn -0.7032 0.6607 -0.2627
vn -0.5391 0.8259 -0.1650
vn -0.3431 0.9212 -0.1836
vn -0.9363 0.2641 -0.2315
vn -0.1184 0.9602 -0.2529
vn -0.6131 0.7391 -0.2789
vn -0.8712 0.0996 -0.4807
vn -0.5095 0.6875 -0.5175
vn -0.7683 0.4535 -0.4516
vn -0.4783 0.2654 -0.8371
vn -0.6894 0.1054 -0.7166
vn -0.6239 0.4677 -0.6261
vn -0.2786 0.8336 -0.4770
vn -0.1953 0.6121 -0.7663
vn -0.4539 0.6399 -0.6201
vn -0.1117 0.0062 -0.9937
vn 0.0793 0.6774 -0.7313
vn -0.1653 0.6530 -0.7391
vn 0.1443 0.9846 -0.0985
vn -0.0087 0.2939 -0.9558
vn -0.2803 0.2879 -0.9157
vn 0.0651 0.7797 -0.6228
vn 0.1272 0.5481 -0.8267
vn 0.2310 0.2757 -0.9331
vn 0.4771 0.3021 -0.8253
vn 0.4040 0.0045 -0.9148
vn 0.3963 0.6223 -0.6751
vn 0.3321 0.6589 -0.6749
vn 0.2000 0.8865 -0.4172
vn 0.5627 0.6648 -0.4913
vn 0.3643 0.9173 -0.1608
vn 0.7675 0.4653 -0.4410
vn 0.6685 0.2795 -0.6892
vn 0.5427 0.8272 -0.1456
vn 0.8635 0.0967 -0.4949
vn 0.4493 0.7166 -0.5335
vn 0.6113 0.7407 -0.2786
vn 0.9239 0.2861 -0.2541
vn 0.7593 0.6217 -0.1924
vn 0.4171 0.8877 0.1950
vn 0.7526 0.6536 0.0795
vn 0.8488 0.4779 0.2262
vn 0.9594 0.2820 -0.0073
vn 0.5822 0.7043 0.4063
vn 0.9066 0.1930 0.3752
vn 0.4436 0.8449 0.2989
vn 0.6106 0.7884 0.0751
vn 0.3473 0.7763 0.5261
vn 0.1992 -0.3820 0.9025
vn -0.0964 -0.8503 0.5174
vn 0.6982 -0.6737 0.2423
vn 0.6670 -0.0798 0.7408
vn 0.5216 0.7348 0.4335
vn 0.6650 0.7008 0.2582
vn 0.3955 0.7628 0.5116
vn -0.2902 0.7898 0.5404
vn -0.7062 0.6274 -0.3281
vn -0.9822 -0.1587 0.1009
vn -0.7344 0.6472 -0.2046
vn -0.7122 0.6831 0.1614
vn -0.7587 0.6496 -0.0487
vn -0.6461 -0.2136 0.7327
vn -0.3640 -0.8983 0.2459
vn -0.1713 0.8621 0.4770
vn 0.0021 0.8673 0.4978
vn -0.6189 0.7828 -0.0650
vn -0.2933 0.6963 -0.6551
vn 0.6316 0.7674 -0.1103
vn 0.7575 0.4577 0.4655
vn 0.6161 0.4495 0.6468
vn 0.4287 0.4651 0.7745
vn 0.3117 0.8558 0.4129
vn 0.1632 0.8627 0.4787
vn 0.2070 0.4634 0.8617
s off
f 86/1/1 118/2/1 138/3/1
f 71/4/2 191/5/2 12/6/2
f 86/1/3 178/7/3 118/2/3
f 107/8/4 118/2/4 80/9/4
f 118/2/5 178/7/5 80/9/5
f 80/9/6 70/10/6 107/8/6
f 70/10/7 79/11/7 95/12/7
f 79/11/8 78/13/8 95/12/8
f 78/13/9 77/14/9 193/15/9
f 77/14/10 75/16/10 63/17/10
f 193/15/11 77/14/11 63/17/11
f 75/16/12 73/18/12 49/19/12
f 73/18/13 72/20/13 39/21/13
f 49/19/14 73/18/14 39/21/14
f 72/20/15 170/22/15 26/23/15
f 170/22/16 71/4/16 12/6/16
f 26/23/17 170/22/17 12/6/17
f 71/4/18 60/24/18 191/5/18
f 60/24/19 177/25/19 191/5/19
f 177/25/20 83/26/20 191/5/20
f 83/26/21 85/27/21 191/5/21
f 85/27/22 92/28/22 189/29/22
f 92/28/23 93/30/23 182/31/23
f 93/30/24 94/32/24 174/33/24
f 94/32/25 96/34/25 171/35/25
f 174/33/26 94/32/26 171/35/26
f 96/34/27 97/36/27 165/37/27
f 97/36/28 99/38/28 165/37/28
f 99/38/29 184/39/29 192/40/29
f 184/39/30 86/1/30 138/3/30
f 192/40/31 184/39/31 138/3/31
f 192/40/32 165/37/32 99/38/32
f 92/28/33 182/31/33 185/41/33
f 182/31/34 93/30/34 174/33/34
f 191/5/35 85/27/35 189/29/35
f 95/12/36 78/13/36 193/15/36
f 95/12/37 107/8/37 70/10/37
f 96/34/38 165/37/38 171/35/38
f 49/19/39 63/17/39 75/16/39
f 92/28/40 185/41/40 189/29/40
f 39/21/41 72/20/41 26/23/41
s 1
f 6/42/42 11/43/43 8/44/44
f 2/45/45 22/46/46 3/47/47
f 4/48/48 23/49/49 5/50/50
f 13/51/51 28/52/52 14/53/53
f 25/54/54 33/55/55 13/51/51
f 1/56/56 30/57/57 2/45/45
f 15/58/58 28/52/52 41/59/59
f 22/46/46 31/60/60 4/48/48
f 18/61/61 41/59/59 54/62/62
f 31/60/60 36/63/63 23/49/49
f 24/64/64 37/65/65 25/54/54
f 169/66/66 145/67/67 45/68/68
f 30/57/57 35/69/69 22/46/46
f 35/69/69 46/70/70 31/60/60
f 47/71/71 55/72/72 37/65/65
f 48/73/73 56/74/74 51/75/75
f 15/58/58 9/76/76 158/77/77
f 53/78/78 68/79/79 54/62/62
f 1/56/56 82/80/80 60/81/81
f 30/57/57 61/82/82 35/69/69
f 46/70/70 62/83/83 47/71/71
f 43/84/84 70/85/85 44/86/86
f 55/72/72 64/87/87 48/73/73
f 70/85/85 80/88/88 45/68/68
f 66/89/89 64/87/87 75/90/90
f 169/91/66 45/68/68 80/88/88
f 30/57/57 60/81/81 71/92/91
f 71/92/91 170/93/92 61/82/82
f 72/94/93 62/83/83 170/93/92
f 75/90/90 64/87/87 73/95/94
f 82/96/80 177/97/95 60/81/81
f 169/98/66 80/88/88 178/99/96
f 177/100/95 82/101/80 83/102/97
f 169/103/66 178/104/96 88/105/98
f 83/102/97 89/106/99 85/107/100
f 99/108/101 111/109/102 184/110/103
f 101/111/104 184/110/103 111/109/102
f 92/112/105 91/113/106 104/114/107
f 89/115/99 114/116/108 90/117/109
f 110/118/110 121/119/111 111/120/102
f 104/114/107 116/121/112 105/122/113
f 105/122/113 116/121/112 117/123/114
f 83/124/97 82/125/80 113/126/115
f 125/127/116 133/128/117 102/129/118
f 119/130/119 117/123/114 129/131/120
f 113/126/115 127/132/121 89/115/99
f 104/114/107 115/133/122 128/134/123
f 131/135/124 141/136/125 121/119/111
f 128/134/123 136/137/126 116/121/112
f 88/138/98 133/128/117 145/67/67
f 169/139/66 88/138/98 145/67/67
f 127/132/121 134/140/127 114/116/108
f 139/141/128 137/142/129 148/143/130
f 135/144/131 147/145/132 128/134/123
f 125/127/116 143/146/133 151/147/134
f 134/140/127 154/148/135 135/144/131
f 147/145/132 155/149/136 136/137/126
f 149/150/137 158/77/77 141/136/125
f 127/132/121 3/47/47 134/140/127
f 154/148/135 162/151/138 147/145/132
f 156/152/139 155/149/136 8/44/44
f 151/147/134 20/153/140 133/128/117
f 163/154/141 8/44/44 168/155/142
f 113/126/115 82/156/80 1/56/56
f 154/148/135 3/47/47 4/48/48
f 21/157/143 188/158/144 146/159/145
f 16/160/146 7/161/147 10/162/148
f 29/163/149 17/164/150 188/158/144
f 16/160/146 27/165/151 7/161/147
f 32/166/152 26/167/153 27/165/151
f 16/160/146 34/168/154 27/165/151
f 40/169/155 32/166/152 34/168/154
f 50/170/156 39/171/157 40/169/155
f 52/172/158 40/169/155 34/168/154
f 42/173/159 52/172/158 34/168/154
f 52/172/158 57/174/160 50/170/156
f 67/175/161 57/174/160 52/172/158
f 58/176/162 67/175/161 52/172/158
f 69/177/163 58/176/162 42/173/159
f 57/174/160 65/178/164 50/170/156
f 103/179/165 69/177/163 21/157/143
f 63/180/166 74/181/167 193/182/168
f 146/183/145 103/179/165 21/157/143
f 74/181/167 63/180/166 65/178/164
f 67/175/161 76/184/169 65/178/164
f 98/185/170 81/186/171 84/187/172
f 103/179/165 87/188/173 69/177/163
f 87/188/173 112/189/174 100/190/175
f 108/191/176 118/192/177 107/193/178
f 146/194/145 126/195/179 103/179/165
f 120/196/180 108/191/176 109/197/181
f 87/188/173 124/198/182 112/189/174
f 123/199/183 132/200/184 120/196/180
f 140/201/185 130/202/186 132/200/184
f 142/203/187 123/199/183 124/198/182
f 130/202/186 138/204/188 118/192/177
f 144/205/189 152/206/190 142/203/187
f 126/195/179 153/207/191 144/205/189
f 152/206/190 160/208/192 150/209/193
f 161/210/194 152/206/190 144/205/189
f 159/211/195 192/212/196 150/209/193
f 159/211/195 165/213/197 192/212/196
f 166/214/198 159/211/195 160/208/192
f 167/215/199 160/208/192 152/206/190
f 161/210/194 167/215/199 152/206/190
f 179/216/200 161/217/194 153/218/191
f 126/219/179 179/216/200 153/218/191
f 173/220/201 176/221/202 172/222/203
f 179/216/200 181/223/204 173/220/201
f 175/224/205 182/225/206 174/226/207
f 188/158/144 187/227/208 179/216/200
f 146/159/145 188/158/144 179/216/200
f 19/228/209 9/76/76 18/61/61
f 11/43/43 168/155/142 8/44/44
f 151/147/134 19/228/209 20/153/140
f 14/53/53 168/155/142 13/51/51
f 15/58/58 164/229/210 14/53/53
f 24/64/64 5/50/50 23/49/49
f 14/53/53 28/52/52 15/58/58
f 3/47/47 22/46/46 4/48/48
f 24/64/64 11/43/43 6/42/42
f 54/62/62 19/228/209 18/61/61
f 11/43/43 25/54/54 13/51/51
f 28/52/52 13/51/51 33/55/55
f 2/45/45 30/57/57 22/46/46
f 15/58/58 41/59/59 18/61/61
f 4/48/48 31/60/60 23/49/49
f 22/46/46 35/69/69 31/60/60
f 36/63/63 24/64/64 23/49/49
f 44/86/86 19/228/209 43/84/84
f 45/68/68 20/153/140 44/86/86
f 38/230/211 25/54/54 37/65/65
f 38/230/211 28/52/52 33/55/55
f 38/230/211 48/73/73 51/75/75
f 53/78/78 38/230/211 51/75/75
f 46/70/70 36/63/63 31/60/60
f 41/59/59 53/78/78 54/62/62
f 64/87/87 56/74/74 48/73/73
f 36/63/63 47/71/71 37/65/65
f 54/62/62 68/79/79 59/231/212
f 43/84/84 54/62/62 59/231/212
f 48/73/73 37/65/65 55/72/72
f 53/78/78 51/75/75 56/74/74
f 68/79/79 56/74/74 66/89/89
f 1/56/56 60/81/81 30/57/57
f 46/70/70 61/82/82 62/83/83
f 78/232/213 68/79/79 77/233/214
f 47/71/71 62/83/83 55/72/72
f 44/86/86 70/85/85 45/68/68
f 79/234/215 59/231/212 78/232/213
f 55/72/72 72/94/93 73/95/94
f 77/233/214 66/89/89 75/90/90
f 70/85/85 43/84/84 79/234/215
f 64/87/87 55/72/72 73/95/94
f 92/235/105 90/236/109 91/237/106
f 30/57/57 71/92/91 61/82/82
f 170/93/92 62/83/83 61/82/82
f 86/238/216 88/105/98 178/104/96
f 89/106/99 90/236/109 85/107/100
f 86/238/216 101/111/104 102/239/118
f 93/240/217 104/114/107 105/122/113
f 88/105/98 86/238/216 102/239/118
f 106/241/218 94/242/219 105/122/113
f 94/242/219 93/240/217 105/122/113
f 106/241/218 97/243/220 96/244/221
f 111/120/102 97/243/220 110/118/110
f 115/133/122 90/117/109 114/116/108
f 110/118/110 106/241/218 119/130/119
f 122/245/222 101/246/104 111/120/102
f 111/120/102 121/119/111 122/245/222
f 104/114/107 91/113/106 115/133/122
f 117/123/114 106/241/218 105/122/113
f 101/246/104 125/127/116 102/129/118
f 129/131/120 110/118/110 119/130/119
f 83/124/97 113/126/115 89/115/99
f 88/138/98 102/129/118 133/128/117
f 135/144/131 114/116/108 134/140/127
f 89/115/99 127/132/121 114/116/108
f 110/118/110 131/135/124 121/119/111
f 104/114/107 128/134/123 116/121/112
f 143/146/133 121/119/111 141/136/125
f 137/142/129 116/121/112 136/137/126
f 128/134/123 115/133/122 135/144/131
f 125/127/116 122/245/222 143/146/133
f 137/142/129 129/131/120 117/123/114
f 149/150/137 139/141/128 148/143/130
f 131/135/124 129/131/120 139/141/128
f 9/76/76 141/136/125 158/77/77
f 131/135/124 149/150/137 141/136/125
f 128/134/123 147/145/132 136/137/126
f 125/127/116 151/147/134 133/128/117
f 156/152/139 136/137/126 155/149/136
f 135/144/131 154/148/135 147/145/132
f 151/147/134 143/146/133 9/76/76
f 156/152/139 148/143/130 137/142/129
f 163/154/141 156/152/139 8/44/44
f 148/143/130 157/247/223 149/150/137
f 164/229/210 157/247/223 163/154/141
f 4/48/48 162/151/138 154/148/135
f 149/150/137 164/229/210 158/77/77
f 134/140/127 3/47/47 154/148/135
f 155/149/136 147/145/132 162/151/138
f 6/42/42 162/151/138 5/50/50
f 2/45/45 113/126/115 1/56/56
f 8/44/44 155/149/136 6/42/42
f 133/128/117 20/153/140 145/67/67
f 163/154/141 168/155/142 164/229/210
f 3/47/47 127/132/121 2/45/45
f 12/248/224 27/165/151 26/167/153
f 188/158/144 17/164/150 10/162/148
f 7/161/147 12/248/224 191/249/225
f 17/164/150 16/160/146 10/162/148
f 21/157/143 29/163/149 188/158/144
f 49/250/226 65/178/164 63/180/166
f 32/166/152 39/171/157 26/167/153
f 34/168/154 32/166/152 27/165/151
f 17/164/150 34/168/154 16/160/146
f 17/164/150 42/173/159 34/168/154
f 29/163/149 42/173/159 17/164/150
f 40/169/155 39/171/157 32/166/152
f 52/172/158 50/170/156 40/169/155
f 21/157/143 42/173/159 29/163/149
f 49/250/226 39/171/157 50/170/156
f 42/173/159 58/176/162 52/172/158
f 67/175/161 65/178/164 57/174/160
f 21/157/143 69/177/163 42/173/159
f 67/175/161 84/187/172 76/184/169
f 76/184/169 74/181/167 65/178/164
f 67/175/161 87/188/173 100/190/175
f 81/186/171 76/184/169 84/187/172
f 69/177/163 87/188/173 58/176/162
f 193/182/168 74/181/167 81/186/171
f 95/251/227 109/197/181 108/191/176
f 95/251/227 193/182/168 81/186/171
f 98/185/170 95/251/227 81/186/171
f 100/190/175 98/185/170 84/187/172
f 95/251/227 108/191/176 107/193/178
f 98/185/170 112/189/174 109/197/181
f 120/196/180 112/189/174 123/199/183
f 103/179/165 124/198/182 87/188/173
f 124/198/182 123/199/183 112/189/174
f 108/191/176 132/200/184 130/202/186
f 103/179/165 126/195/179 144/205/189
f 108/191/176 130/202/186 118/192/177
f 140/201/185 123/199/183 142/203/187
f 130/202/186 150/209/193 192/212/196
f 124/198/182 144/205/189 142/203/187
f 130/202/186 192/212/196 138/204/188
f 150/209/193 142/203/187 152/206/190
f 172/252/203 167/215/199 173/253/201
f 150/209/193 160/208/192 159/211/195
f 153/207/191 161/210/194 144/205/189
f 166/214/198 165/213/197 159/211/195
f 160/208/192 167/215/199 166/214/198
f 165/213/197 172/252/203 171/254/228
f 161/210/194 173/253/201 167/215/199
f 172/222/203 174/226/207 171/255/228
f 176/221/202 181/223/204 180/256/229
f 172/222/203 176/221/202 175/224/205
f 161/217/194 179/216/200 173/220/201
f 182/225/206 180/256/229 183/257/230
f 126/219/179 146/159/145 179/216/200
f 176/221/202 180/256/229 175/224/205
f 183/257/230 187/227/208 186/258/231
f 181/223/204 183/257/230 180/256/229
f 179/216/200 187/227/208 181/223/204
f 185/259/232 183/257/230 186/258/231
f 189/260/233 186/258/231 190/261/234
f 186/258/231 10/162/148 190/261/234
f 191/249/225 190/261/234 7/161/147
f 188/158/144 10/162/148 187/227/208
f 10/162/148 7/161/147 190/261/234
f 15/58/58 18/61/61 9/76/76
f 19/228/209 151/147/134 9/76/76
f 11/43/43 13/51/51 168/155/142
f 14/53/53 164/229/210 168/155/142
f 15/58/58 158/77/77 164/229/210
f 24/64/64 6/42/42 5/50/50
f 24/64/64 25/54/54 11/43/43
f 54/62/62 43/84/84 19/228/209
f 36/63/63 37/65/65 24/64/64
f 44/86/86 20/153/140 19/228/209
f 45/68/68 145/67/67 20/153/140
f 38/230/211 33/55/55 25/54/54
f 38/230/211 41/59/59 28/52/52
f 38/230/211 37/65/65 48/73/73
f 53/78/78 41/59/59 38/230/211
f 46/70/70 47/71/71 36/63/63
f 64/87/87 66/89/89 56/74/74
f 68/79/79 53/78/78 56/74/74
f 46/70/70 35/69/69 61/82/82
f 78/232/213 59/231/212 68/79/79
f 79/234/215 43/84/84 59/231/212
f 55/72/72 62/83/83 72/94/93
f 77/233/214 68/79/79 66/89/89
f 92/235/105 85/107/100 90/236/109
f 86/238/216 184/110/103 101/111/104
f 93/240/217 92/112/105 104/114/107
f 106/241/218 96/244/221 94/242/219
f 106/241/218 110/118/110 97/243/220
f 111/120/102 99/262/101 97/243/220
f 115/133/122 91/113/106 90/117/109
f 122/245/222 125/127/116 101/246/104
f 117/123/114 119/130/119 106/241/218
f 129/131/120 131/135/124 110/118/110
f 135/144/131 115/133/122 114/116/108
f 143/146/133 122/245/222 121/119/111
f 137/142/129 117/123/114 116/121/112
f 137/142/129 139/141/128 129/131/120
f 149/150/137 131/135/124 139/141/128
f 9/76/76 143/146/133 141/136/125
f 156/152/139 137/142/129 136/137/126
f 156/152/139 157/247/223 148/143/130
f 163/154/141 157/247/223 156/152/139
f 164/229/210 149/150/137 157/247/223
f 4/48/48 5/50/50 162/151/138
f 6/42/42 155/149/136 162/151/138
f 2/45/45 127/132/121 113/126/115
f 12/248/224 7/161/147 27/165/151
f 49/250/226 50/170/156 65/178/164
f 67/175/161 100/190/175 84/187/172
f 67/175/161 58/176/162 87/188/173
f 81/186/171 74/181/167 76/184/169
f 95/251/227 98/185/170 109/197/181
f 98/185/170 100/190/175 112/189/174
f 120/196/180 109/197/181 112/189/174
f 103/179/165 144/205/189 124/198/182
f 108/191/176 120/196/180 132/200/184
f 140/201/185 132/200/184 123/199/183
f 130/202/186 140/201/185 150/209/193
f 150/209/193 140/201/185 142/203/187
f 172/252/203 166/214/198 167/215/199
f 165/213/197 166/214/198 172/252/203
f 172/222/203 175/224/205 174/226/207
f 176/221/202 173/220/201 181/223/204
f 182/225/206 175/224/205 180/256/229
f 183/257/230 181/223/204 187/227/208
f 185/259/232 182/225/206 183/257/230
f 189/260/233 185/259/232 186/258/231
f 186/258/231 187/227/208 10/162/148
f 191/249/225 189/260/233 190/261/234
