# Blender v3.1.2 OBJ File: ''
# www.blender.org
o Mball
v 0.429537 0.496905 0.110293
v 0.429537 0.457032 0.073552
v 0.471914 0.457032 0.110293
v 0.429537 0.364718 0.031452
v 0.515053 0.364718 0.110293
v 0.521852 0.450138 0.202607
v 0.518057 0.457032 0.202607
v 0.521852 0.364717 0.121346
v 0.521852 0.304009 0.110293
v 0.521943 0.272403 0.110293
v 0.561709 0.272403 0.202607
v 0.553865 0.364718 0.202607
v 0.566798 0.180088 0.202607
v 0.525928 0.180088 0.110293
v 0.521852 0.180088 0.102621
v 0.521852 0.272403 0.110163
v 0.521852 0.087773 0.055189
v 0.552697 0.087773 0.110293
v 0.521852 -0.004542 0.050287
v 0.564680 -0.004542 0.110293
v 0.521852 -0.096856 0.064090
v 0.554756 -0.096856 0.110293
v 0.521852 -0.186843 0.110293
v 0.521852 -0.189171 0.112031
v 0.567979 -0.189171 0.202607
v 0.598294 -0.096856 0.202607
v 0.521852 -0.267174 0.202607
v 0.521852 -0.281486 0.232312
v 0.536569 -0.281486 0.294922
v 0.590178 -0.189171 0.294922
v 0.521852 -0.299965 0.294922
v 0.521852 -0.301570 0.387237
v 0.537847 -0.281486 0.387237
v 0.521852 -0.281486 0.460087
v 0.521852 -0.272528 0.479552
v 0.571553 -0.189171 0.479552
v 0.591285 -0.189171 0.387237
v 0.614166 -0.122071 0.387237
v 0.601588 -0.096856 0.479552
v 0.614166 -0.096856 0.427971
v 0.610426 -0.004542 0.479552
v 0.614166 -0.004542 0.465950
v 0.599606 0.087773 0.479552
v 0.614166 0.087773 0.416856
v 0.570593 -0.004542 0.571866
v 0.558635 0.087773 0.571866
v 0.522556 0.180088 0.571866
v 0.567255 0.180088 0.479552
v 0.521852 0.181327 0.571866
v 0.521852 0.254368 0.479552
v 0.521852 0.272403 0.449051
v 0.546577 0.272403 0.387237
v 0.587277 0.180088 0.387237
v 0.521852 0.360298 0.387237
v 0.521852 0.364717 0.384802
v 0.554769 0.364718 0.294922
v 0.567102 0.272403 0.294922
v 0.508152 0.272403 0.479552
v 0.440177 0.364718 0.479552
v 0.520513 0.364718 0.387237
v 0.429537 0.376678 0.479552
v 0.429537 0.457032 0.421829
v 0.467344 0.457032 0.387237
v 0.429537 0.490294 0.387237
v 0.337222 0.524866 0.387237
v 0.337222 0.457032 0.462265
v 0.244907 0.482776 0.479552
v 0.244907 0.520335 0.387237
v 0.289258 0.457032 0.479552
v 0.337222 0.436439 0.479552
v 0.244907 0.549347 0.337438
v 0.337222 0.549347 0.343299
v 0.244907 0.567397 0.294922
v 0.337222 0.565872 0.294922
v 0.244907 0.581099 0.202607
v 0.337222 0.569064 0.202607
v 0.412992 0.549347 0.202607
v 0.406287 0.549347 0.294922
v 0.429537 0.538683 0.294922
v 0.429537 0.541714 0.202607
v 0.337222 0.533564 0.110293
v 0.337222 0.549347 0.139206
v 0.275487 0.549347 0.110293
v 0.244907 0.511493 0.017978
v 0.315322 0.457032 0.017978
v 0.337222 0.457032 0.031482
v 0.244907 0.549347 0.091311
v 0.244907 0.558609 0.110293
v 0.152593 0.586511 0.110293
v 0.152593 0.562655 0.017978
v 0.182773 0.549347 0.017978
v 0.152593 0.549347 -0.033873
v 0.152593 0.541650 -0.074337
v 0.244907 0.480062 -0.074337
v 0.125532 0.549347 -0.074337
v 0.060278 0.538635 -0.166652
v 0.152593 0.522006 -0.166652
v 0.060278 0.549347 -0.121391
v -0.032037 0.528947 -0.074337
v -0.032037 0.513310 -0.166652
v 0.023388 0.549347 -0.074337
v 0.060278 0.555391 -0.074337
v 0.060278 0.572733 0.017978
v -0.016852 0.549347 0.017978
v -0.032037 0.541150 0.017978
v -0.032037 0.549347 0.061851
v -0.124352 0.460188 -0.074337
v -0.122883 0.457032 0.017978
v -0.124352 0.457032 -0.052471
v -0.127678 0.457032 -0.074337
v -0.216666 0.372167 0.017978
v -0.216666 0.367593 -0.074337
v -0.124352 0.455284 0.017978
v -0.216666 0.366281 -0.166652
v -0.124352 0.449523 -0.166652
v -0.124352 0.457032 -0.136685
v -0.216666 0.364718 -0.172476
v -0.164038 0.364718 -0.258967
v -0.124352 0.393593 -0.258967
v -0.216666 0.327885 -0.258967
v -0.216666 0.272403 -0.329577
v -0.154860 0.272403 -0.351281
v -0.124352 0.281380 -0.351281
v -0.124352 0.364718 -0.288214
v -0.216666 0.247870 -0.351281
v -0.216666 0.180088 -0.388992
v -0.124352 0.180088 -0.404826
v -0.124352 0.272403 -0.357394
v -0.216666 0.087773 -0.404178
v -0.124352 0.087773 -0.419303
v -0.216666 -0.004542 -0.384631
v -0.124352 -0.004542 -0.407714
v -0.216666 -0.067633 -0.351281
v -0.180917 -0.096856 -0.351281
v -0.124352 -0.096856 -0.373871
v -0.124352 -0.137484 -0.351281
v -0.216666 -0.164525 -0.258967
v -0.189579 -0.189171 -0.258967
v -0.124352 -0.189171 -0.313330
v -0.216666 -0.096856 -0.330023
v -0.124352 -0.243189 -0.258967
v -0.216666 -0.251125 -0.166652
v -0.185825 -0.281486 -0.166652
v -0.124352 -0.281486 -0.216649
v -0.216666 -0.189171 -0.229399
v -0.124352 -0.328932 -0.166652
v -0.216666 -0.373801 -0.077532
v -0.124352 -0.373801 -0.119578
v -0.216666 -0.281486 -0.142016
v -0.216666 -0.377815 -0.074337
v -0.124352 -0.411642 -0.074337
v -0.216666 -0.463317 0.017978
v -0.203810 -0.466115 0.017978
v -0.124352 -0.466115 0.006121
v -0.124352 -0.473245 0.017978
v -0.216666 -0.500235 0.110293
v -0.124352 -0.509260 0.110293
v -0.216666 -0.466115 0.022852
v -0.216666 -0.504719 0.202607
v -0.124352 -0.516315 0.202607
v -0.216666 -0.480846 0.294922
v -0.124352 -0.497884 0.294922
v -0.216666 -0.466115 0.327046
v -0.124352 -0.466115 0.365850
v -0.216666 -0.440484 0.387237
v -0.124352 -0.455373 0.387237
v -0.216666 -0.418214 0.479552
v -0.124352 -0.417252 0.479552
v -0.216666 -0.412612 0.571866
v -0.124352 -0.398602 0.571866
v -0.216666 -0.392361 0.664181
v -0.139431 -0.373801 0.664181
v -0.124352 -0.373801 0.653627
v -0.124352 -0.369076 0.664181
v -0.032037 -0.335822 0.664181
v -0.032037 -0.373801 0.593517
v -0.124352 -0.297273 0.756496
v -0.097824 -0.281486 0.756496
v -0.032037 -0.281486 0.723860
v -0.032037 -0.234006 0.756496
v -0.124352 -0.281486 0.769130
v -0.124352 -0.189171 0.813643
v -0.032037 -0.189171 0.776596
v -0.124352 -0.096856 0.822845
v -0.032037 -0.096856 0.793561
v 0.060278 -0.096856 0.782262
v 0.060278 -0.187108 0.756496
v 0.048961 -0.189171 0.756496
v 0.060278 -0.189171 0.755696
v 0.076307 -0.189171 0.756496
v 0.060278 -0.281486 0.700229
v 0.152593 -0.207443 0.756496
v 0.152593 -0.281486 0.711662
v 0.060278 -0.320547 0.664181
v 0.152593 -0.335668 0.664181
v 0.152593 -0.373801 0.619600
v 0.060278 -0.373801 0.596827
v 0.060278 -0.389405 0.571866
v 0.152593 -0.405215 0.571866
v 0.152593 -0.445034 0.479552
v 0.060278 -0.430898 0.479552
v 0.152593 -0.463172 0.387237
v 0.060278 -0.459357 0.387237
v 0.244907 -0.439767 0.479552
v 0.244907 -0.458153 0.387237
v 0.337222 -0.413900 0.479552
v 0.337222 -0.433379 0.387237
v 0.337222 -0.432283 0.294922
v 0.244907 -0.457122 0.294922
v 0.337222 -0.410453 0.202607
v 0.244907 -0.436555 0.202607
v 0.337222 -0.373801 0.118047
v 0.331517 -0.373801 0.110293
v 0.244907 -0.409048 0.110293
v 0.337222 -0.370791 0.110293
v 0.337222 -0.344213 0.017978
v 0.293391 -0.373801 0.017978
v 0.337222 -0.318583 -0.074337
v 0.264702 -0.373801 -0.074337
v 0.244907 -0.397318 0.017978
v 0.244907 -0.384413 -0.074337
v 0.244907 -0.373801 -0.114918
v 0.152593 -0.413067 -0.074337
v 0.204639 -0.373801 -0.166652
v 0.152593 -0.389111 -0.166652
v 0.244907 -0.354515 -0.166652
v 0.152593 -0.337301 -0.258967
v 0.152593 -0.373801 -0.201092
v 0.244907 -0.289452 -0.258967
v 0.244907 -0.281486 -0.266373
v 0.152593 -0.281486 -0.312871
v 0.152593 -0.207082 -0.351281
v 0.244907 -0.189171 -0.318299
v 0.173129 -0.189171 -0.351281
v 0.244907 -0.096856 -0.327755
v 0.199063 -0.096856 -0.351281
v 0.244907 -0.004542 -0.304831
v 0.167782 -0.004542 -0.351281
v 0.152593 0.023191 -0.351281
v 0.244907 0.081171 -0.258967
v 0.241193 0.087773 -0.258967
v 0.152593 0.087773 -0.327452
v 0.214912 0.180088 -0.258967
v 0.152593 0.180088 -0.307423
v 0.220507 0.272403 -0.258967
v 0.152593 0.272403 -0.307908
v 0.215857 0.364718 -0.258967
v 0.152593 0.364718 -0.298702
v 0.152593 0.451614 -0.258967
v 0.244907 0.272403 -0.235653
v 0.244907 0.364717 -0.230465
v 0.060278 0.272403 -0.346065
v 0.060278 0.364718 -0.324043
v -0.032037 0.298896 -0.351281
v 0.037953 0.272403 -0.351281
v -0.032037 0.364718 -0.321503
v -0.032037 0.451118 -0.258967
v 0.060278 0.457032 -0.275725
v -0.018274 0.457032 -0.258967
v 0.060278 0.477126 -0.258967
v 0.143440 0.457032 -0.258967
v -0.032037 0.457032 -0.252817
v -0.032037 0.272403 -0.361436
v -0.032037 0.180088 -0.388907
v 0.060278 0.180088 -0.356687
v 0.060278 0.222095 -0.351281
v -0.032037 0.087773 -0.408600
v 0.060278 0.087773 -0.377359
v -0.032037 -0.004542 -0.409029
v 0.060278 -0.004542 -0.392609
v -0.032037 -0.096856 -0.390895
v 0.060278 -0.096856 -0.388593
v -0.032037 -0.189171 -0.352411
v 0.060278 -0.189171 -0.365729
v -0.032037 -0.191168 -0.351281
v 0.060278 -0.223589 -0.351281
v -0.032037 -0.281486 -0.284991
v 0.060278 -0.281486 -0.317666
v -0.032037 -0.305915 -0.258967
v 0.060278 -0.341446 -0.258967
v -0.070559 -0.281486 -0.258967
v 0.152593 -0.189171 -0.357050
v -0.035741 -0.189171 -0.351281
v 0.071638 0.180088 -0.351281
v 0.112812 0.087773 -0.351281
v 0.300806 -0.004542 -0.258967
v 0.337222 -0.004542 -0.220539
v 0.337222 0.087773 -0.189235
v 0.244907 0.087773 -0.256117
v 0.337222 -0.096856 -0.246897
v 0.326948 -0.096856 -0.258967
v 0.337222 -0.189171 -0.230561
v 0.314017 -0.189171 -0.258967
v 0.337222 -0.269311 -0.166652
v 0.253759 -0.281486 -0.258967
v 0.328425 -0.281486 -0.166652
v 0.337222 -0.281486 -0.149869
v 0.369347 -0.281486 -0.074337
v 0.418153 -0.189171 -0.074337
v 0.377272 -0.189171 -0.166652
v 0.429537 -0.145488 -0.074337
v 0.429537 -0.096856 -0.088160
v 0.391301 -0.096856 -0.166652
v 0.429537 -0.189171 -0.043592
v 0.436348 -0.096856 -0.074337
v 0.429537 -0.240221 0.017978
v 0.400722 -0.281486 0.017978
v 0.429537 -0.281486 0.077188
v 0.454212 -0.281486 0.110293
v 0.520707 -0.189171 0.110293
v 0.456789 -0.189171 0.017978
v 0.381052 -0.004542 -0.166652
v 0.365978 0.087773 -0.166652
v 0.337607 0.180088 -0.166652
v 0.337222 0.180088 -0.166948
v 0.337222 0.181279 -0.166652
v 0.244907 0.180088 -0.234782
v 0.312366 0.272403 -0.166652
v 0.337222 0.272403 -0.138727
v 0.337222 0.346737 -0.074337
v 0.325588 0.364718 -0.074337
v 0.286922 0.364718 -0.166652
v 0.337222 0.364718 -0.049168
v 0.387071 0.272403 -0.074337
v 0.429537 0.272403 -0.014842
v 0.429537 0.327319 0.017978
v 0.406979 0.364718 0.017978
v 0.429537 0.197780 -0.074337
v 0.436949 0.180088 -0.074337
v 0.489246 0.180088 0.017978
v 0.454365 0.272403 0.017978
v 0.429537 0.180088 -0.082968
v 0.429537 0.087773 -0.101657
v 0.450489 0.087773 -0.074337
v 0.429537 -0.004542 -0.096703
v 0.443955 -0.004542 -0.074337
v 0.498181 -0.004542 0.017978
v 0.504934 0.087773 0.017978
v 0.485811 -0.096856 0.017978
v 0.152593 -0.096856 -0.368777
v 0.152593 -0.004542 -0.358908
v 0.060278 -0.373801 -0.206902
v 0.060278 -0.391972 -0.166652
v -0.028149 -0.373801 -0.166652
v -0.032037 -0.423574 -0.074337
v 0.060278 -0.423126 -0.074337
v -0.032037 -0.373801 -0.164848
v -0.032037 -0.372673 -0.166652
v -0.032037 -0.464383 0.017978
v 0.060278 -0.447248 0.017978
v -0.032037 -0.466115 0.022753
v 0.060278 -0.466115 0.104260
v -0.032037 -0.496005 0.110293
v 0.060278 -0.467540 0.110293
v -0.032037 -0.507100 0.202607
v 0.060278 -0.482608 0.202607
v -0.032037 -0.494448 0.294922
v 0.060278 -0.479078 0.294922
v -0.032037 -0.466115 0.373974
v 0.060278 -0.466115 0.360303
v -0.032037 -0.460057 0.387237
v 0.140131 -0.466115 0.294922
v 0.110541 -0.466115 0.202607
v 0.152593 -0.464809 0.294922
v 0.152593 -0.453690 0.202607
v 0.064237 -0.466115 0.110293
v -0.045537 -0.466115 0.017978
v 0.152593 -0.425312 0.017978
v 0.429537 -0.305326 0.110293
v 0.407743 -0.373801 0.202607
v 0.429537 -0.358923 0.202607
v 0.429537 -0.373801 0.246604
v 0.510845 -0.281486 0.202607
v 0.152593 -0.436141 0.110293
v 0.429537 -0.385006 0.387237
v 0.429537 -0.383765 0.294922
v 0.445134 -0.373801 0.387237
v 0.443406 -0.373801 0.294922
v 0.429537 -0.373801 0.445230
v 0.244907 -0.399351 0.571866
v 0.329546 -0.373801 0.571866
v 0.337222 -0.373801 0.566467
v 0.337222 -0.370575 0.571866
v 0.244907 -0.328582 0.664181
v 0.337222 -0.292681 0.664181
v 0.244907 -0.373801 0.611045
v 0.244907 -0.281486 0.705361
v 0.337222 -0.281486 0.673873
v 0.244907 -0.195521 0.756496
v 0.259486 -0.189171 0.756496
v 0.337222 -0.189171 0.732377
v 0.337222 -0.123732 0.756496
v 0.244907 -0.189171 0.759454
v 0.244907 -0.096856 0.788431
v 0.337222 -0.096856 0.763235
v 0.244907 -0.004542 0.797005
v 0.337222 -0.004542 0.772348
v 0.244907 0.087773 0.786508
v 0.337222 0.087773 0.761191
v 0.244907 0.177400 0.756496
v 0.337222 0.105430 0.756496
v 0.244907 0.180088 0.755327
v 0.337222 0.180088 0.728025
v 0.244907 0.272403 0.715668
v 0.337222 0.272403 0.666069
v 0.244907 0.364717 0.682651
v 0.263364 0.364717 0.664181
v 0.337222 0.274522 0.664181
v 0.244907 0.395962 0.664181
v 0.244907 0.457032 0.596503
v 0.255341 0.457032 0.571866
v 0.330720 0.364718 0.571866
v 0.244907 0.467835 0.571866
v 0.152593 0.492244 0.664181
v 0.152593 0.536543 0.571866
v 0.197618 0.457032 0.664181
v 0.060278 0.521145 0.664181
v 0.060278 0.549347 0.608788
v 0.117397 0.549347 0.571866
v 0.060278 0.559587 0.571866
v -0.014761 0.549347 0.571866
v -0.004234 0.549347 0.479552
v 0.060278 0.557315 0.479552
v -0.032037 0.543683 0.571866
v -0.032037 0.540708 0.479552
v -0.032037 0.522119 0.387237
v 0.060278 0.536101 0.387237
v 0.060278 0.549347 0.451389
v -0.032037 0.549347 0.299277
v 0.060278 0.549347 0.330740
v -0.032037 0.551379 0.294922
v 0.060278 0.568557 0.294922
v 0.152593 0.569805 0.294922
v 0.152593 0.549347 0.332589
v 0.060278 0.598801 0.202607
v 0.152593 0.594823 0.202607
v 0.113521 0.549347 0.479552
v 0.337222 0.357506 0.571866
v 0.337222 0.364718 0.560460
v 0.429537 0.364718 0.489029
v 0.429537 0.294183 0.571866
v 0.429537 0.272403 0.598466
v 0.340721 0.272403 0.664181
v 0.453350 0.272403 0.571866
v 0.429537 0.195130 0.664181
v 0.521852 0.180088 0.572919
v 0.440923 0.180088 0.664181
v 0.521852 0.087773 0.625099
v 0.486550 0.087773 0.664181
v 0.521852 -0.004542 0.641450
v 0.501205 -0.004542 0.664181
v 0.521852 -0.096856 0.628094
v 0.489233 -0.096856 0.664181
v 0.521852 -0.189171 0.580128
v 0.447182 -0.189171 0.664181
v 0.429537 -0.213480 0.664181
v 0.521852 -0.199351 0.571866
v 0.462211 -0.281486 0.571866
v 0.429537 -0.281486 0.608245
v 0.429537 -0.312375 0.571866
v 0.514962 -0.281486 0.479552
v 0.429537 -0.362895 0.479552
v 0.429537 -0.189171 0.678577
v 0.527379 -0.189171 0.571866
v 0.429537 -0.096856 0.713911
v 0.560812 -0.096856 0.571866
v 0.429537 -0.004542 0.724235
v 0.353056 -0.096856 0.756496
v 0.373347 -0.004542 0.756496
v 0.348254 0.087773 0.756496
v 0.429537 0.087773 0.711596
v 0.429537 0.180088 0.673471
v 0.236763 0.180088 0.756496
v 0.152593 0.087773 0.791694
v 0.152593 0.180088 0.763826
v 0.152593 0.231989 0.756496
v 0.060278 0.180088 0.764421
v 0.060278 0.272403 0.768476
v 0.146502 0.272403 0.756496
v 0.060278 0.364718 0.761888
v 0.106788 0.364718 0.756496
v 0.152593 0.272403 0.755016
v 0.152593 0.364718 0.743188
v 0.060278 0.385706 0.756496
v 0.060278 0.457032 0.725359
v 0.152593 0.457032 0.698467
v -0.032037 0.364718 0.753169
v -0.032037 0.457032 0.706426
v -0.004004 0.364718 0.756496
v -0.032037 0.501824 0.664181
v -0.032037 0.354457 0.756496
v -0.032037 0.272403 0.778017
v -0.124352 0.341484 0.756496
v -0.124352 0.272403 0.796064
v -0.124352 0.180088 0.816950
v -0.032037 0.180088 0.790213
v -0.216666 0.330698 0.756496
v -0.216666 0.272403 0.795859
v -0.299919 0.272403 0.756496
v -0.308981 0.258340 0.756496
v -0.216666 0.180088 0.817069
v -0.308981 0.180088 0.781564
v -0.308981 0.272403 0.748901
v -0.341395 0.180088 0.756496
v -0.308981 0.087773 0.795720
v -0.373784 0.087773 0.756496
v -0.401296 0.049870 0.756496
v -0.308981 -0.004542 0.822218
v -0.401296 -0.004542 0.796012
v -0.401296 -0.096856 0.830922
v -0.308981 -0.086144 0.848811
v -0.328486 -0.096856 0.848811
v -0.401296 -0.189171 0.829201
v -0.308981 -0.184727 0.848811
v -0.308981 -0.189171 0.848139
v -0.401296 -0.281486 0.789371
v -0.308981 -0.281486 0.811563
v -0.401296 -0.319515 0.756496
v -0.308981 -0.344725 0.756496
v -0.308981 -0.373801 0.714759
v -0.401296 -0.373801 0.667634
v -0.216666 -0.335248 0.756496
v -0.216666 -0.373801 0.703077
v -0.308981 -0.396500 0.664181
v -0.493611 -0.311550 0.664181
v -0.493611 -0.281486 0.710769
v -0.452620 -0.281486 0.756496
v -0.404251 -0.373801 0.664181
v -0.401296 -0.375146 0.664181
v -0.401296 -0.388702 0.571866
v -0.431961 -0.373801 0.571866
v -0.401296 -0.373801 0.491313
v -0.493611 -0.328119 0.571866
v -0.401296 -0.370427 0.479552
v -0.493611 -0.297076 0.479552
v -0.401296 -0.345906 0.387237
v -0.456995 -0.281486 0.387237
v -0.493611 -0.281486 0.458236
v -0.401296 -0.342329 0.294922
v -0.441433 -0.281486 0.294922
v -0.493611 -0.224037 0.387237
v -0.493611 -0.196121 0.294922
v -0.445827 -0.281486 0.202607
v -0.493611 -0.196576 0.202607
v -0.498311 -0.189171 0.202607
v -0.497995 -0.189171 0.294922
v -0.493611 -0.189171 0.147126
v -0.493611 -0.172381 0.110293
v -0.540167 -0.096856 0.110293
v -0.561024 -0.096856 0.202607
v -0.493611 -0.096856 0.038386
v -0.484592 -0.189171 0.110293
v -0.512806 -0.189171 0.387237
v -0.554057 -0.096856 0.294922
v -0.551774 -0.096856 0.387237
v -0.547392 -0.189171 0.479552
v -0.559126 -0.096856 0.479552
v -0.569940 -0.004542 0.387237
v -0.549836 -0.004542 0.479552
v -0.566565 0.087773 0.387237
v -0.514696 0.087773 0.479552
v -0.493611 0.120194 0.479552
v -0.534887 0.180088 0.387237
v -0.493611 0.180088 0.427639
v -0.493611 0.232944 0.387237
v -0.452800 0.272403 0.387237
v -0.401296 0.272403 0.429360
v -0.401296 0.228727 0.479552
v -0.441924 0.180088 0.479552
v -0.407005 0.364718 0.387237
v -0.401296 0.364718 0.393397
v -0.401296 0.380269 0.387237
v -0.493611 0.305359 0.294922
v -0.457337 0.364718 0.294922
v -0.493611 0.272403 0.345210
v -0.493611 0.320352 0.202607
v -0.459856 0.364717 0.202607
v -0.493611 0.292340 0.110293
v -0.405929 0.364718 0.110293
v -0.493611 0.272403 0.076130
v -0.422830 0.272403 0.017978
v -0.401296 0.284161 0.017978
v -0.401296 0.364718 0.106168
v -0.493611 0.216676 0.017978
v -0.493611 0.180088 -0.006689
v -0.433513 0.180088 -0.074337
v -0.401296 0.226841 -0.074337
v -0.401296 0.272403 -0.002469
v -0.493611 0.087773 -0.032995
v -0.457307 0.087773 -0.074337
v -0.493611 -0.004542 -0.011606
v -0.436021 -0.004542 -0.074337
v -0.493611 -0.062971 0.017978
v -0.475284 -0.096856 0.017978
v -0.401296 -0.096856 -0.062594
v -0.401296 -0.077125 -0.074337
v -0.401296 -0.189171 -0.016713
v -0.431951 -0.189171 0.017978
v -0.401296 -0.271312 0.017978
v -0.439266 -0.281486 0.110293
v -0.401296 -0.281486 0.023652
v -0.401296 -0.362089 0.110293
v -0.401296 -0.366711 0.202607
v -0.394658 -0.373801 0.110293
v -0.352146 -0.373801 0.017978
v -0.397714 -0.281486 0.017978
v -0.308981 -0.373801 -0.026119
v -0.308981 -0.281486 -0.071823
v -0.308981 -0.417655 0.017978
v -0.308981 -0.274336 -0.074337
v -0.345593 -0.189171 -0.074337
v -0.308981 -0.189171 -0.114575
v -0.305717 -0.281486 -0.074337
v -0.267737 -0.189171 -0.166652
v -0.308981 -0.129009 -0.166652
v -0.285434 -0.096856 -0.258967
v -0.308981 -0.096856 -0.214145
v -0.308981 -0.070709 -0.258967
v -0.351697 -0.004542 -0.258967
v -0.384437 -0.004542 -0.166652
v -0.330357 -0.096856 -0.166652
v -0.401296 0.051382 -0.166652
v -0.372554 0.087773 -0.258967
v -0.401296 0.087773 -0.177144
v -0.308981 -0.004542 -0.321715
v -0.308981 0.087773 -0.348480
v -0.308981 0.180088 -0.328593
v -0.356873 0.180088 -0.258967
v -0.308981 0.258061 -0.258967
v -0.308981 0.272403 -0.232067
v -0.327009 0.272403 -0.166652
v -0.387950 0.180088 -0.166652
v -0.401296 0.180088 -0.132108
v -0.352827 0.272403 -0.074337
v -0.401296 0.133482 -0.166652
v -0.294795 0.272403 -0.258967
v -0.275860 -0.004542 -0.351281
v -0.305870 0.087773 -0.351281
v -0.405277 0.087773 -0.166652
v -0.401296 -0.004542 -0.128839
v -0.391531 -0.096856 -0.074337
v -0.526603 -0.004542 0.017978
v -0.521154 0.180088 0.017978
v -0.548011 0.087773 0.017978
v -0.308981 0.328529 0.017978
v -0.308981 0.364718 0.051303
v -0.401296 0.370233 0.110293
v -0.308981 0.457032 0.098088
v -0.331649 0.457032 0.110293
v -0.308981 0.477874 0.110293
v -0.216666 0.457032 0.078539
v -0.216666 0.511043 0.110293
v -0.216666 0.549347 0.147873
v -0.308981 0.549347 0.180936
v -0.308981 0.560243 0.202607
v -0.216666 0.579935 0.202607
v -0.308981 0.570835 0.294922
v -0.216666 0.589691 0.294922
v -0.216666 0.552368 0.387237
v -0.248995 0.549347 0.387237
v -0.308981 0.549347 0.355237
v -0.308981 0.526346 0.387237
v -0.216666 0.549347 0.391145
v -0.216666 0.457032 0.467422
v -0.308981 0.457032 0.435954
v -0.308981 0.364718 0.478773
v -0.216666 0.440484 0.479552
v -0.308190 0.364718 0.479552
v -0.308981 0.363787 0.479552
v -0.188196 0.457032 0.479552
v -0.187541 0.549347 0.387237
v -0.124352 0.567947 0.294922
v -0.124352 0.549347 0.352398
v -0.124352 0.532519 0.387237
v -0.343813 0.549347 0.294922
v -0.327194 0.549347 0.202607
v -0.124352 0.457032 0.022130
v -0.124352 0.516497 0.110293
v -0.401296 0.457032 0.188203
v -0.229527 0.364718 0.017978
v -0.308981 0.301685 -0.074337
v -0.219826 0.364718 -0.074337
v -0.308981 0.289653 -0.166652
v -0.218513 0.364718 -0.166652
v -0.520918 0.272403 0.110293
v -0.548750 0.272403 0.202607
v -0.527824 0.272403 0.294922
v -0.585925 0.197502 0.294922
v -0.585925 0.226757 0.202607
v -0.369729 0.272403 0.479552
v -0.401296 0.212262 0.571866
v -0.371087 0.272403 0.571866
v -0.363320 0.272403 0.664181
v -0.400521 0.180088 0.664181
v -0.401296 0.180088 0.661152
v -0.308981 0.342276 0.664181
v -0.308981 0.349408 0.571866
v -0.288147 0.364718 0.571866
v -0.276086 0.364718 0.664181
v -0.216666 0.390463 0.664181
v -0.216666 0.406022 0.571866
v -0.216666 0.364718 0.714963
v -0.124352 0.436620 0.664181
v -0.124352 0.364718 0.739469
v -0.146589 0.457032 0.571866
v -0.124352 0.457032 0.629537
v -0.124352 0.477761 0.571866
v -0.124352 0.494449 0.479552
v -0.095301 0.457032 0.664181
v -0.401296 0.177783 0.664181
v -0.444077 0.087773 0.664181
v -0.473138 0.087773 0.571866
v -0.416695 0.180088 0.571866
v -0.493611 0.034356 0.664181
v -0.493611 0.064485 0.571866
v -0.522951 -0.004542 0.664181
v -0.539317 -0.004542 0.571866
v -0.557936 -0.096856 0.664181
v -0.569690 -0.096856 0.571866
v -0.556501 -0.189171 0.664181
v -0.568235 -0.189171 0.571866
v -0.517595 -0.281486 0.664181
v -0.531436 -0.281486 0.571866
v -0.505782 -0.281486 0.479552
v -0.493611 -0.220709 0.756496
v -0.504755 -0.189171 0.756496
v -0.493611 -0.189171 0.768504
v -0.506593 -0.096856 0.756496
v -0.493611 -0.096856 0.770484
v -0.493611 -0.057391 0.756496
v -0.493611 -0.004542 0.719234
v -0.460426 -0.004542 0.756496
v -0.401296 0.087773 0.730188
v -0.493611 0.087773 0.522338
v -0.376785 -0.373801 0.294922
v -0.397145 -0.373801 0.202607
v -0.308981 -0.434932 0.294922
v -0.308981 -0.464000 0.202607
v -0.308981 -0.460782 0.110293
v -0.305546 -0.466115 0.202607
v -0.300065 -0.466115 0.110293
v -0.367224 -0.373801 0.387237
v -0.394537 -0.373801 0.479552
v -0.308981 -0.405217 0.479552
v -0.308981 -0.408479 0.387237
v -0.308981 -0.411881 0.571866
v -0.216666 -0.189171 0.840795
v -0.216666 -0.281486 0.801971
v -0.308981 -0.096856 0.850825
v -0.240541 -0.096856 0.848811
v -0.216666 -0.096856 0.845639
v -0.216666 -0.004542 0.824413
v 0.152593 -0.096856 0.793575
v 0.152593 -0.004542 0.801968
v 0.060278 -0.004542 0.788581
v 0.060278 0.087773 0.777682
v -0.032037 -0.004542 0.785541
v -0.032037 0.087773 0.786826
v -0.124352 -0.004542 0.809160
v -0.124352 0.087773 0.812320
v -0.216666 0.087773 0.818091
v 0.152593 -0.189171 0.765005
v 0.355193 -0.281486 0.664181
v 0.413562 -0.373801 0.479552
v -0.032037 -0.414269 0.479552
v -0.032037 -0.382230 0.571866
v -0.253484 -0.466115 0.294922
v -0.223529 -0.373801 -0.074337
v -0.283673 0.180088 -0.351281
v -0.115000 0.457032 -0.166652
v 0.060278 0.593193 0.110293
v 0.337222 0.437972 0.017978
v 0.516251 0.457032 0.294922
v 0.586495 0.180088 0.294922
v 0.614166 0.103584 0.387237
v 0.614166 0.099301 0.294922
v 0.596286 0.087773 0.202607
v 0.614166 0.087773 0.275100
v 0.614166 -0.004542 0.225842
v 0.607250 -0.004542 0.202607
v 0.614166 -0.096856 0.264379
v 0.618967 -0.096856 0.294922
v 0.627560 -0.004542 0.294922
v 0.614166 -0.117870 0.294922
v 0.620025 -0.096856 0.387237
v 0.628580 -0.004542 0.387237
v 0.617040 0.087773 0.294922
v 0.618107 0.087773 0.387237
v 0.521852 0.447284 0.294922
v 0.265008 0.457032 -0.074337
v 0.152593 0.525513 0.387237
v -0.124352 0.549347 0.162407
v -0.124352 0.564586 0.202607
v -0.050849 0.549347 0.110293
v -0.032037 0.559913 0.110293
v -0.032037 0.571847 0.202607
v 0.244907 0.449692 -0.166652
v 0.244907 0.457032 -0.153963
v -0.401296 0.481242 0.294922
v -0.369541 0.457032 0.387237
v -0.401296 0.457032 0.336834
v -0.414791 0.457032 0.294922
v -0.407691 0.457032 0.202607
v -0.401296 0.467329 0.202607
v -0.585926 -0.004542 0.333712
v -0.585925 0.087773 0.353665
v -0.598869 -0.004542 0.294922
v -0.613823 0.087773 0.294922
v -0.585925 -0.036465 0.294922
v -0.585926 -0.060641 0.202607
v -0.613512 -0.004542 0.202607
v -0.585925 -0.022056 0.110293
v -0.593655 -0.004542 0.110293
v -0.609559 0.087773 0.110293
v -0.628320 0.087773 0.202607
v -0.585926 -0.004542 0.094378
v -0.585925 0.087773 0.064416
v -0.585925 0.180088 0.102384
v -0.589769 0.180088 0.110293
v -0.585925 0.188054 0.110293
v -0.609879 0.180088 0.202607
v -0.594323 0.180088 0.294922
v 0.152593 0.457032 -0.254928
v 0.239230 0.457032 -0.166652
v -0.585926 0.180088 0.314112
v 0.152593 0.536765 0.479552
vn 0.6864 0.5008 -0.5274
vn 0.4683 0.5029 -0.7265
vn 0.4565 0.7148 -0.5298
vn 0.5673 0.3085 -0.7635
vn 0.8884 0.4169 -0.1923
vn 0.7688 0.2382 -0.5934
vn 0.8611 0.2487 -0.4434
vn 0.8505 0.0660 -0.5218
vn 0.9729 0.0692 -0.2206
vn 0.9593 0.2147 -0.1834
vn 0.8895 0.1480 -0.4324
vn 0.9378 0.1897 -0.2906
vn 0.8293 0.0511 -0.5564
vn 0.8986 0.1287 -0.4195
vn 0.8720 0.1722 -0.4582
vn 0.8928 0.1101 -0.4369
vn 0.8217 -0.0390 -0.5686
vn 0.8654 0.0095 -0.5010
vn 0.7924 -0.1808 -0.5826
vn 0.8475 -0.1973 -0.4928
vn 0.8072 -0.3242 -0.4933
vn 0.8636 -0.3909 -0.3183
vn 0.9213 -0.1992 -0.3341
vn 0.7843 -0.4236 -0.4533
vn 0.7833 -0.5219 -0.3377
vn 0.9060 -0.4078 -0.1137
vn 0.7658 -0.6017 -0.2269
vn 0.8230 -0.5589 -0.1013
vn 0.7289 -0.6765 -0.1053
vn 0.8245 -0.5595 0.0846
vn 0.7303 -0.6776 0.0866
vn 0.7868 -0.5799 0.2112
vn 0.8704 -0.3955 0.2934
vn 0.7889 -0.5277 0.3148
vn 0.9554 -0.2823 0.0866
vn 0.9300 -0.1976 0.3099
vn 0.9568 -0.2123 0.1985
vn 0.9736 0.0110 0.2278
vn 0.9267 0.2157 0.3078
vn 0.9594 0.2162 0.1810
vn 0.8742 0.0098 0.4855
vn 0.9439 0.0100 0.3300
vn 0.8629 0.4123 0.2923
vn 0.8515 0.2130 0.4791
vn 0.7309 0.4851 0.4801
vn 0.8023 0.3819 0.4588
vn 0.9252 0.3543 0.1360
vn 0.8197 0.4364 0.3711
vn 0.7846 0.5171 0.3420
vn 0.9031 0.3255 0.2801
vn 0.8521 0.2569 0.4560
vn 0.9578 0.2415 0.1561
vn 0.9797 0.1947 0.0473
vn 0.6267 0.4923 0.6041
vn 0.7714 0.3369 0.5399
vn 0.6664 0.5524 0.5007
vn 0.5014 0.5335 0.6812
vn 0.4426 0.5910 0.6744
vn 0.4390 0.7309 0.5225
vn 0.1327 0.8106 0.5703
vn 0.2605 0.6910 0.6743
vn 0.1175 0.8981 0.4238
vn 0.4699 0.8426 0.2633
vn 0.3905 0.7655 0.5114
vn 0.4257 0.6639 0.6148
vn 0.1311 0.8981 0.4197
vn -0.0057 0.9015 0.4327
vn 0.1158 0.9762 0.1833
vn 0.0266 0.9642 0.2639
vn 0.1722 0.9780 -0.1181
vn 0.3367 0.9103 0.2409
vn 0.3456 0.9205 -0.1823
vn 0.5282 0.8190 0.2240
vn 0.5433 0.8211 -0.1749
vn 0.3096 0.7918 -0.5266
vn 0.2490 0.8906 -0.3805
vn 0.2246 0.9037 -0.3644
vn 0.5342 0.6774 -0.5058
vn 0.4911 0.7761 -0.3957
vn 0.3045 0.8641 -0.4007
vn 0.2737 0.9046 -0.3269
vn 0.4283 0.8620 -0.2711
vn 0.1746 0.9660 -0.1910
vn 0.2488 0.9514 -0.1813
vn 0.2517 0.9372 -0.2414
vn 0.6414 0.7329 -0.2267
vn 0.4025 0.8922 -0.2049
vn 0.1877 0.9659 -0.1785
vn 0.3656 0.8487 -0.3821
vn -0.0365 0.9176 -0.3958
vn -0.0590 0.9785 -0.1975
vn -0.3976 0.8553 -0.3323
vn -0.4817 0.8667 -0.1293
vn -0.2728 0.9434 -0.1889
vn -0.0347 0.9871 -0.1564
vn -0.0949 0.9775 -0.1884
vn -0.3708 0.9201 -0.1260
vn -0.5382 0.8242 -0.1758
vn -0.3770 0.9106 -0.1692
vn -0.7068 0.6962 -0.1257
vn -0.6430 0.7659 0.0036
vn -0.8823 0.4693 0.0368
vn -0.6987 0.7146 0.0343
vn -0.6852 0.7281 -0.0212
vn -0.5297 0.7361 -0.4213
vn -0.7083 0.6930 -0.1341
vn -0.6186 0.7798 -0.0963
vn -0.6345 0.7588 -0.1468
vn -0.4594 0.6906 -0.5586
vn -0.5612 0.7871 -0.2560
vn -0.6012 0.7304 -0.3243
vn -0.5085 0.7133 -0.4822
vn -0.4982 0.7304 -0.4672
vn -0.2050 0.6158 -0.7608
vn -0.1871 0.5783 -0.7941
vn -0.3558 0.6222 -0.6974
vn -0.3864 0.6679 -0.6361
vn -0.3666 0.5381 -0.7590
vn -0.0093 0.3157 -0.9488
vn -0.0816 0.4872 -0.8695
vn -0.3416 -0.0112 -0.9398
vn -0.3145 0.3087 -0.8976
vn -0.1317 -0.2204 -0.9665
vn -0.3484 -0.3171 -0.8821
vn -0.3804 -0.5028 -0.7762
vn -0.4459 -0.4705 -0.7615
vn -0.2537 -0.4013 -0.8801
vn -0.3415 -0.5119 -0.7882
vn -0.4159 -0.5947 -0.6880
vn -0.5779 -0.5998 -0.5535
vn -0.5135 -0.5649 -0.6459
vn -0.5398 -0.6217 -0.5676
vn -0.4688 -0.6251 -0.6241
vn -0.4917 -0.6342 -0.5967
vn -0.5748 -0.5335 -0.6205
vn -0.5927 -0.6046 -0.5321
vn -0.4996 -0.5607 -0.6603
vn -0.4316 -0.6685 -0.6057
vn -0.2877 -0.7186 -0.6331
vn -0.3262 -0.5892 -0.7392
vn -0.5336 -0.5048 -0.6786
vn -0.1466 -0.7885 -0.5974
vn -0.3071 -0.6487 -0.6963
vn -0.1302 -0.8650 -0.4846
vn -0.2997 -0.7841 -0.5434
vn 0.0003 -0.8417 -0.5400
vn 0.0003 -0.8985 -0.4391
vn 0.0085 -0.9764 -0.2157
vn -0.2336 -0.9517 -0.1991
vn -0.2972 -0.8582 -0.4186
vn -0.2591 -0.9619 0.0871
vn -0.0542 -0.9519 0.3014
vn -0.2622 -0.9098 0.3219
vn -0.2433 -0.8891 0.3876
vn -0.0870 -0.9059 0.4144
vn -0.2158 -0.9191 0.3298
vn 0.0184 -0.9665 0.2558
vn -0.0736 -0.9915 0.1070
vn 0.0589 -0.9872 0.1480
vn 0.1533 -0.9555 0.2518
vn 0.2477 -0.8648 0.4368
vn 0.1206 -0.9362 0.3302
vn 0.2458 -0.9055 0.3461
vn 0.2770 -0.8237 0.4948
vn 0.2028 -0.7874 0.5822
vn 0.3691 -0.5826 0.7241
vn 0.3129 -0.6665 0.6767
vn 0.2701 -0.6367 0.7222
vn 0.2943 -0.4614 0.8369
vn 0.3103 -0.2574 0.9151
vn 0.3153 -0.5139 0.7978
vn 0.2171 -0.0292 0.9757
vn 0.2777 -0.3016 0.9121
vn -0.0038 -0.1453 0.9894
vn 0.0363 -0.3475 0.9370
vn 0.1580 -0.6368 0.7546
vn 0.0093 -0.4412 0.8974
vn -0.0839 -0.5725 0.8156
vn 0.0421 -0.6146 0.7877
vn -0.0247 -0.4724 0.8810
vn -0.0246 -0.5896 0.8073
vn 0.0008 -0.7256 0.6882
vn -0.0308 -0.7137 0.6998
vn -0.0403 -0.7985 0.6006
vn -0.0711 -0.8313 0.5512
vn -0.0444 -0.8800 0.4728
vn -0.1209 -0.8805 0.4584
vn -0.1334 -0.9201 0.3682
vn 0.0038 -0.9724 0.2333
vn -0.0314 -0.9511 0.3073
vn 0.1562 -0.9836 0.0905
vn 0.0132 -0.9942 0.1063
vn 0.3613 -0.9281 0.0895
vn 0.1554 -0.9428 0.2950
vn 0.1789 -0.9791 -0.0963
vn 0.2440 -0.9382 -0.2455
vn 0.3599 -0.9264 -0.1106
vn 0.3973 -0.8581 -0.3253
vn 0.4141 -0.8760 -0.2473
vn 0.3298 -0.9225 -0.2004
vn 0.4998 -0.8070 -0.3145
vn 0.6221 -0.7521 -0.2173
vn 0.4883 -0.8553 -0.1734
vn 0.6652 -0.7031 -0.2514
vn 0.5282 -0.8236 -0.2065
vn 0.3637 -0.9232 -0.1243
vn 0.3788 -0.9076 -0.1811
vn 0.4432 -0.8556 -0.2672
vn 0.1885 -0.9622 -0.1968
vn 0.3353 -0.8640 -0.3757
vn 0.1488 -0.9342 -0.3242
vn 0.4943 -0.7669 -0.4093
vn 0.1968 -0.7614 -0.6177
vn 0.4673 -0.6682 -0.5789
vn 0.2111 -0.5705 -0.7937
vn 0.5215 -0.2576 -0.8135
vn 0.2141 -0.3912 -0.8950
vn 0.3503 -0.2590 -0.9001
vn 0.4174 0.0322 -0.9081
vn 0.5542 0.2873 -0.7812
vn 0.5469 0.0571 -0.8352
vn 0.4443 0.2748 -0.8527
vn 0.5594 0.3465 -0.7530
vn 0.5487 0.2353 -0.8022
vn 0.6147 0.0727 -0.7854
vn 0.5408 0.0990 -0.8353
vn 0.4816 0.0610 -0.8743
vn 0.3945 0.2312 -0.8893
vn 0.6314 0.0106 -0.7754
vn 0.6140 0.2346 -0.7536
vn 0.4412 0.4601 -0.7705
vn 0.7174 0.0362 -0.6958
vn 0.1470 0.3447 -0.9271
vn 0.3009 0.1598 -0.9402
vn 0.1944 0.2132 -0.9575
vn 0.0017 0.3660 -0.9306
vn -0.1541 0.5089 -0.8469
vn 0.0148 0.5653 -0.8248
vn -0.3084 0.6175 -0.7236
vn -0.2170 0.6516 -0.7268
vn -0.0073 0.7548 -0.6559
vn 0.2359 0.6384 -0.7327
vn -0.3625 0.7435 -0.5619
vn 0.0413 0.3249 -0.9449
vn 0.3683 0.1044 -0.9238
vn 0.1998 0.2490 -0.9477
vn 0.3780 0.1749 -0.9091
vn 0.1885 0.0997 -0.9770
vn 0.2523 0.0464 -0.9665
vn 0.0800 -0.0937 -0.9924
vn -0.0625 -0.2786 -0.9584
vn 0.0082 -0.3163 -0.9486
vn -0.1965 -0.4298 -0.8813
vn -0.2470 -0.5362 -0.8071
vn -0.0684 -0.4621 -0.8842
vn -0.3330 -0.6226 -0.7081
vn -0.1185 -0.5959 -0.7943
vn -0.3380 -0.7141 -0.6130
vn -0.4417 -0.6474 -0.6211
vn -0.2933 -0.5163 -0.8046
vn 0.4471 0.2098 -0.8695
vn 0.6411 0.2595 -0.7222
vn 0.6193 0.2040 -0.7581
vn 0.5776 0.2553 -0.7754
vn 0.7901 0.0411 -0.6116
vn 0.7090 0.0496 -0.7034
vn 0.6932 -0.2653 -0.6702
vn 0.7747 -0.2741 -0.5698
vn 0.6069 -0.5293 -0.5929
vn 0.7620 -0.4651 -0.4506
vn 0.6650 -0.6048 -0.4382
vn 0.7333 -0.5860 -0.3448
vn 0.8732 -0.3374 -0.3518
vn 0.8466 -0.2756 -0.4553
vn 0.8546 -0.0245 -0.5186
vn 0.8896 -0.1910 -0.4150
vn 0.8651 -0.3511 -0.3583
vn 0.8921 -0.0900 -0.4427
vn 0.8850 -0.0984 -0.4551
vn 0.7787 -0.5534 -0.2955
vn 0.7806 -0.4905 -0.3875
vn 0.7211 -0.6331 -0.2815
vn 0.6155 -0.6681 -0.4182
vn 0.6720 -0.6030 -0.4299
vn 0.7481 -0.4416 -0.4953
vn 0.8136 -0.3491 -0.4649
vn 0.7464 0.1865 -0.6389
vn 0.7748 0.0986 -0.6245
vn 0.6298 0.1992 -0.7508
vn 0.5900 0.1921 -0.7842
vn 0.6291 0.1996 -0.7512
vn 0.6254 0.1026 -0.7735
vn 0.7247 0.2145 -0.6548
vn 0.6937 0.3722 -0.6166
vn 0.8264 0.3175 -0.4650
vn 0.7419 0.4886 -0.4593
vn 0.7883 0.4910 -0.3708
vn 0.7225 0.5070 -0.4700
vn 0.6803 0.3323 -0.6533
vn 0.7153 0.4268 -0.5534
vn 0.7449 0.3810 -0.5478
vn 0.7413 0.3434 -0.5767
vn 0.8664 0.1981 -0.4584
vn 0.7594 0.3182 -0.5675
vn 0.7998 0.2227 -0.5575
vn 0.7025 0.2328 -0.6725
vn 0.8325 0.0394 -0.5526
vn 0.7647 0.0703 -0.6406
vn 0.8389 -0.0257 -0.5436
vn 0.8320 -0.0859 -0.5481
vn 0.8540 -0.0665 -0.5159
vn 0.8288 -0.1679 -0.5337
vn 0.5413 0.3992 -0.7400
vn 0.4671 0.1957 -0.8623
vn 0.2838 -0.0352 -0.9582
vn 0.3896 0.1714 -0.9049
vn 0.1778 -0.2128 -0.9608
vn -0.0922 -0.8741 -0.4770
vn -0.1152 -0.7737 -0.6230
vn 0.1705 -0.8644 -0.4730
vn -0.0456 -0.9245 -0.3784
vn -0.2159 -0.8450 -0.4893
vn -0.0754 -0.9058 -0.4169
vn -0.2685 -0.8208 -0.5042
vn -0.3106 -0.7942 -0.5223
vn 0.1940 -0.9514 -0.2393
vn 0.1161 -0.9107 -0.3964
vn 0.1606 -0.9360 -0.3132
vn 0.2872 -0.9312 -0.2244
vn 0.2058 -0.9532 -0.2214
vn 0.2771 -0.9599 -0.0421
vn 0.1751 -0.9843 0.0215
vn 0.0863 -0.9718 0.2193
vn 0.1307 -0.9621 0.2393
vn 0.1742 -0.9796 0.1002
vn -0.0042 -0.9279 0.3729
vn -0.0399 -0.9109 0.4108
vn 0.2817 -0.9541 -0.1015
vn 0.1182 -0.9930 -0.0066
vn 0.2148 -0.9640 -0.1568
vn 0.0935 -0.9943 -0.0509
vn 0.3219 -0.9290 -0.1824
vn 0.3110 -0.9321 -0.1858
vn 0.1055 -0.8854 -0.4527
vn 0.0703 -0.9601 -0.2706
vn 0.2422 -0.9605 -0.1370
vn 0.5946 -0.7333 -0.3296
vn 0.5713 -0.6887 -0.4464
vn 0.5673 -0.7947 -0.2159
vn 0.4863 -0.8130 -0.3202
vn 0.2708 -0.9480 -0.1674
vn 0.3509 -0.8890 -0.2941
vn 0.5200 -0.8506 0.0779
vn 0.6360 -0.7656 -0.0967
vn 0.5216 -0.8482 -0.0923
vn 0.6373 -0.7666 0.0792
vn 0.5700 -0.7968 0.2004
vn 0.3529 -0.8893 0.2908
vn 0.2889 -0.8080 0.5135
vn 0.1540 -0.8695 0.4694
vn 0.3945 -0.8120 0.4301
vn 0.3959 -0.7506 0.5291
vn 0.3389 -0.6713 0.6591
vn 0.1631 -0.7056 0.6896
vn 0.1640 -0.7871 0.5946
vn 0.1623 -0.5768 0.8006
vn 0.3336 -0.5563 0.7611
vn 0.2246 -0.3857 0.8948
vn 0.1420 -0.4731 0.8695
vn 0.3650 -0.4100 0.8359
vn 0.3570 -0.2839 0.8899
vn 0.1531 -0.1913 0.9695
vn 0.1288 -0.3515 0.9273
vn 0.3302 0.0103 0.9439
vn 0.3230 -0.1617 0.9325
vn 0.1534 0.2116 0.9652
vn 0.1562 0.0101 0.9877
vn 0.3522 0.2952 0.8882
vn 0.1779 0.3453 0.9215
vn 0.3816 0.4021 0.8323
vn 0.3978 0.3328 0.8550
vn 0.2145 0.3741 0.9022
vn 0.6625 0.4092 0.6274
vn 0.4591 0.5954 0.6594
vn 0.3914 0.5641 0.7271
vn 0.5913 0.3429 0.7299
vn 0.6390 0.4601 0.6164
vn 0.6891 0.5791 0.4357
vn 0.6571 0.6466 0.3874
vn 0.6832 0.6763 0.2755
vn 0.6418 0.7352 0.2181
vn 0.4362 0.8731 0.2177
vn 0.3853 0.7491 0.5389
vn 0.5836 0.5826 0.5657
vn 0.2733 0.9397 0.2057
vn 0.0432 0.8121 0.5819
vn 0.0373 0.9222 0.3850
vn 0.0192 0.9920 0.1250
vn -0.2335 0.9550 0.1831
vn -0.2260 0.9324 -0.2822
vn 0.0126 0.9889 -0.1480
vn -0.2794 0.9579 -0.0668
vn -0.4159 0.8884 0.1944
vn -0.0117 0.9717 -0.2359
vn -0.0008 0.9986 0.0523
vn -0.0742 0.9334 0.3510
vn -0.0384 0.9988 0.0298
vn 0.0135 0.9295 0.3685
vn -0.0968 0.9232 0.3720
vn -0.0031 0.9456 0.3254
vn 0.0213 0.9337 0.3573
vn 0.0912 0.9911 0.0970
vn 0.2096 0.9727 -0.0993
vn 0.5835 0.6513 0.4851
vn 0.5850 0.6439 0.4931
vn 0.5532 0.6561 0.5134
vn 0.5484 0.5918 0.5908
vn 0.4301 0.6036 0.6713
vn 0.6502 0.5909 0.4776
vn 0.5458 0.4972 0.6745
vn 0.6368 0.3974 0.6608
vn 0.7619 0.2222 0.6084
vn 0.7243 0.3981 0.5629
vn 0.6789 0.2194 0.7007
vn 0.7783 0.0100 0.6278
vn 0.6823 -0.1977 0.7039
vn 0.7652 -0.2000 0.6120
vn 0.6423 -0.3784 0.6665
vn 0.7302 -0.3786 0.5687
vn 0.7384 -0.4726 0.4811
vn 0.5496 -0.4820 0.6824
vn 0.6600 -0.5795 0.4781
vn 0.5480 -0.5872 0.5956
vn 0.5392 -0.6935 0.4778
vn 0.5970 -0.7383 0.3140
vn 0.5276 -0.3687 0.7653
vn 0.8098 -0.3636 0.4605
vn 0.5547 -0.1959 0.8087
vn 0.8557 -0.1923 0.4804
vn 0.5685 0.0101 0.8226
vn 0.4534 0.0111 0.8912
vn 0.5526 0.2149 0.8052
vn 0.5267 0.3868 0.7569
vn 0.4337 0.1955 0.8796
vn 0.1117 0.2528 0.9611
vn 0.3227 0.1785 0.9295
vn -0.0419 0.2040 0.9781
vn 0.0268 0.1969 0.9801
vn 0.1697 0.1121 0.9791
vn 0.0902 0.0390 0.9952
vn 0.1339 0.0846 0.9874
vn 0.2062 0.2915 0.9341
vn 0.1939 0.0632 0.9790
vn 0.3699 0.2913 0.8822
vn 0.3135 0.0777 0.9464
vn 0.3698 0.5309 0.7625
vn 0.0339 0.3596 0.9325
vn -0.3010 0.5455 0.7822
vn -0.1678 0.4088 0.8971
vn -0.0846 0.2249 0.9707
vn 0.0354 0.5415 0.8399
vn -0.3423 0.7667 0.5431
vn -0.0590 0.2683 0.9615
vn 0.0156 0.1597 0.9870
vn 0.1342 0.2004 0.9705
vn -0.0311 0.5162 0.8559
vn 0.0928 0.3556 0.9300
vn 0.2395 0.0770 0.9678
vn 0.1466 0.0920 0.9849
vn -0.2631 0.6435 0.7188
vn -0.1985 0.3840 0.9017
vn -0.4750 0.4804 0.7373
vn -0.6143 0.2999 0.7298
vn -0.1701 0.1388 0.9756
vn -0.4781 0.2006 0.8551
vn -0.6545 0.4869 0.5784
vn -0.7035 0.2516 0.6646
vn -0.3886 0.1983 0.8998
vn -0.5381 0.4844 0.6898
vn -0.1937 0.2970 0.9350
vn -0.3723 0.4399 0.8172
vn -0.3892 0.1505 0.9088
vn -0.0762 0.2577 0.9632
vn -0.1893 0.1704 0.9670
vn -0.3740 -0.1930 0.9071
vn -0.0631 -0.0954 0.9934
vn -0.0589 -0.2576 0.9644
vn -0.0563 -0.5157 0.8549
vn -0.3398 -0.4955 0.7994
vn -0.3504 -0.7137 0.6065
vn -0.0624 -0.7490 0.6597
vn -0.0799 -0.8637 0.4976
vn -0.3562 -0.8334 0.4226
vn 0.1794 -0.7256 0.6644
vn 0.1578 -0.8466 0.5083
vn -0.0934 -0.9523 0.2904
vn -0.6942 -0.5364 0.4800
vn -0.6536 -0.7025 0.2816
vn -0.4833 -0.8297 0.2792
vn -0.3102 -0.9193 0.2421
vn -0.3370 -0.9414 -0.0138
vn -0.5281 -0.8487 -0.0265
vn -0.4475 -0.8708 -0.2036
vn -0.6847 -0.7272 -0.0491
vn -0.5191 -0.8226 -0.2319
vn -0.7021 -0.6496 -0.2915
vn -0.6916 -0.7101 -0.1322
vn -0.7725 -0.5768 -0.2656
vn -0.7470 -0.5270 -0.4053
vn -0.8335 -0.5514 -0.0342
vn -0.8390 -0.4808 -0.2546
vn -0.8518 -0.5196 -0.0667
vn -0.8775 -0.4796 -0.0069
vn -0.8529 -0.5198 -0.0487
vn -0.8450 -0.5329 -0.0447
vn -0.8483 -0.5254 -0.0663
vn -0.8045 -0.5820 -0.1185
vn -0.8269 -0.5594 -0.0567
vn -0.8240 -0.4614 -0.3289
vn -0.7983 -0.4847 -0.3576
vn -0.7181 -0.4249 -0.5512
vn -0.8362 -0.4552 -0.3058
vn -0.8690 -0.4467 -0.2128
vn -0.8713 -0.4899 0.0272
vn -0.9664 -0.2567 0.0084
vn -0.9234 -0.2924 -0.2488
vn -0.9962 0.0293 -0.0824
vn -0.9659 0.1737 0.1920
vn -0.8618 0.2070 0.4630
vn -0.8097 0.4359 0.3929
vn -0.7300 0.5068 0.4586
vn -0.7226 0.4182 0.5505
vn -0.6046 0.5053 0.6158
vn -0.6279 0.5374 0.5630
vn -0.7426 0.5875 0.3216
vn -0.6221 0.5206 0.5848
vn -0.7616 0.3096 0.5694
vn -0.6207 0.4859 0.6154
vn -0.6813 0.2680 0.6812
vn -0.7529 0.3065 0.5824
vn -0.8531 0.4543 0.2566
vn -0.7342 0.6108 0.2965
vn -0.6056 0.6266 0.4906
vn -0.7434 0.6668 -0.0522
vn -0.8044 0.5663 -0.1796
vn -0.5578 0.7372 -0.3813
vn -0.4647 0.7346 -0.4944
vn -0.4499 0.7464 -0.4904
vn -0.6045 0.6180 -0.5026
vn -0.5240 0.6811 -0.5114
vn -0.6185 0.5421 -0.5689
vn -0.7583 0.3475 -0.5515
vn -0.6818 0.5916 -0.4303
vn -0.7179 0.0156 -0.6960
vn -0.6750 0.3149 -0.6673
vn -0.7689 -0.2812 -0.5742
vn -0.6821 -0.2512 -0.6867
vn -0.7397 -0.3732 -0.5600
vn -0.7042 -0.3862 -0.5958
vn -0.7087 -0.3676 -0.6022
vn -0.6985 -0.3014 -0.6491
vn -0.7699 -0.3388 -0.5408
vn -0.7882 -0.2776 -0.5493
vn -0.8816 -0.4087 -0.2359
vn -0.8230 -0.3583 -0.4409
vn -0.8662 -0.4542 -0.2081
vn -0.8679 -0.4923 0.0664
vn -0.7103 -0.5047 -0.4906
vn -0.7490 -0.3339 -0.5723
vn -0.5271 -0.4986 -0.6882
vn -0.5146 -0.7065 -0.4860
vn -0.6448 -0.2947 -0.7053
vn -0.6998 -0.3400 -0.6282
vn -0.6637 -0.4308 -0.6114
vn -0.6748 -0.5164 -0.5273
vn -0.7181 -0.5027 -0.4813
vn -0.7126 -0.5997 -0.3640
vn -0.6384 -0.6041 -0.4770
vn -0.6979 -0.5482 -0.4609
vn -0.7688 -0.4909 -0.4099
vn -0.8326 -0.3474 -0.4313
vn -0.8943 -0.1917 -0.4044
vn -0.8857 -0.0226 -0.4637
vn -0.9399 -0.0099 -0.3413
vn -0.6908 -0.3711 -0.6205
vn -0.6998 0.3354 -0.6307
vn -0.7380 -0.0244 -0.6743
vn -0.8442 0.3242 -0.4268
vn -0.7009 0.5549 -0.4482
vn -0.8651 0.3953 -0.3088
vn -0.6925 0.6730 -0.2597
vn -0.7299 0.6525 -0.2039
vn -0.8354 0.3884 -0.3890
vn -0.5928 0.7557 -0.2783
vn -0.9068 0.1865 -0.3780
vn -0.5772 0.6757 -0.4585
vn -0.6029 -0.0247 -0.7975
vn -0.9047 -0.0100 -0.4259
vn -0.5570 -0.3402 -0.7576
vn -0.6306 -0.3017 -0.7150
vn -0.8357 -0.3186 -0.4473
vn -0.7406 -0.3732 -0.5587
vn -0.6991 -0.3508 -0.6231
vn -0.7071 -0.2856 -0.6469
vn -0.8185 0.0117 -0.5744
vn -0.6888 0.3555 -0.6318
vn -0.7356 0.0209 -0.6771
vn -0.5079 0.7405 -0.4401
vn -0.3431 0.5689 -0.7474
vn -0.4780 0.5926 -0.6484
vn -0.6084 0.5030 -0.6139
vn -0.3161 0.4472 -0.8367
vn -0.5320 0.5001 -0.6833
vn -0.3817 0.5783 -0.7210
vn -0.2574 0.5599 -0.7876
vn -0.1276 0.6100 -0.7821
vn -0.4008 0.7348 -0.5472
vn -0.0204 0.9604 -0.2779
vn -0.3482 0.8991 -0.2654
vn -0.3576 0.9276 0.1081
vn 0.0125 0.9924 0.1224
vn -0.1712 0.7918 0.5863
vn -0.4500 0.7889 0.4185
vn -0.4648 0.6347 0.6173
vn -0.2188 0.6360 0.7400
vn -0.4501 0.4422 0.7758
vn -0.4410 0.6835 0.5817
vn -0.5595 0.4874 0.6704
vn -0.6255 0.6850 0.3735
vn -0.7411 0.5544 0.3787
vn -0.4178 0.8140 0.4035
vn 0.0046 0.7141 0.7000
vn 0.0199 0.8747 0.4842
vn 0.1368 0.8470 0.5137
vn 0.1755 0.9186 0.3542
vn 0.0122 0.9062 0.4226
vn -0.6618 0.7384 0.1299
vn -0.6156 0.7274 -0.3033
vn -0.2843 0.7952 -0.5355
vn -0.6957 0.5487 -0.4635
vn -0.4213 0.7961 -0.4345
vn -0.4001 0.7871 -0.4695
vn -0.6059 0.7941 -0.0488
vn -0.6299 0.7681 -0.1151
vn -0.5570 0.8089 -0.1883
vn -0.6595 0.6599 -0.3600
vn -0.7056 0.6364 0.3115
vn -0.8304 0.5565 -0.0267
vn -0.8028 0.5094 0.3097
vn -0.7913 0.5616 0.2419
vn -0.8347 0.5490 0.0428
vn -0.8837 0.4482 0.1350
vn -0.8287 0.4774 0.2922
vn -0.8705 0.3369 0.3587
vn -0.8967 0.3986 0.1926
vn -0.6431 0.7056 0.2975
vn -0.7012 0.7095 0.0697
vn -0.5418 0.8356 0.0911
vn -0.4845 0.8168 0.3131
vn -0.5360 0.8239 0.1839
vn -0.3793 0.8566 0.3498
vn -0.2922 0.7961 0.5300
vn -0.1365 0.6795 0.7209
vn -0.4710 0.8220 0.3200
vn -0.3970 0.7033 0.5897
vn -0.6019 0.7678 0.2194
vn -0.6075 0.7628 0.2214
vn -0.4931 0.8365 0.2391
vn -0.4811 0.7068 0.5186
vn -0.8679 0.3373 0.3646
vn -0.8670 0.4528 0.2081
vn -0.7650 0.5202 0.3797
vn -0.7845 0.5766 0.2281
vn -0.7191 0.6145 0.3247
vn -0.9027 0.4179 0.1027
vn -0.9399 0.1536 0.3050
vn -0.8404 0.4581 0.2894
vn -0.9781 -0.2057 -0.0318
vn -0.9352 -0.1876 0.3003
vn -0.8627 -0.5033 -0.0490
vn -0.8311 -0.4876 0.2676
vn -0.6892 -0.3406 0.6395
vn -0.8034 -0.1466 0.5772
vn -0.6327 -0.1495 0.7598
vn -0.8071 0.1221 0.5776
vn -0.6339 0.1244 0.7634
vn -0.6973 0.3188 0.6420
vn -0.7173 0.4949 0.4904
vn -0.5748 0.4838 0.6600
vn -0.7028 0.4133 0.5790
vn -0.7469 0.5730 0.3374
vn -0.8061 -0.5034 -0.3111
vn -0.8217 -0.5680 0.0468
vn -0.7032 -0.7019 0.1132
vn -0.7912 -0.6061 0.0817
vn -0.5778 -0.7842 0.2263
vn -0.5909 -0.7812 -0.2014
vn -0.6147 -0.7814 0.1069
vn -0.4658 -0.8780 0.1104
vn -0.3859 -0.9061 -0.1733
vn -0.5462 -0.8374 -0.0198
vn -0.2622 -0.9642 -0.0387
vn -0.1548 -0.9867 0.0497
vn -0.5471 -0.5341 0.6445
vn 0.1753 -0.2236 0.9588
vn 0.1808 -0.5149 0.8380
vn -0.0365 0.0810 0.9960
vn 0.0992 0.3051 0.9471
vn 0.0906 0.1474 0.9849
vn 0.1682 0.0964 0.9810
vn -0.5902 0.3462 0.7293
vn 0.4372 -0.1779 0.8816
vn -0.0354 -0.1905 0.9811
vn -0.0703 0.0046 0.9975
vn -0.0448 0.0100 0.9989
vn 0.1644 -0.0108 0.9863
vn 0.1273 0.0163 0.9917
vn 0.0165 0.1272 0.9917
vn 0.2030 0.0629 0.9772
vn -0.0556 0.0463 0.9974
vn -0.0241 -0.3580 0.9334
vn 0.4365 -0.5815 0.6865
vn 0.4868 -0.8136 0.3179
vn -0.0462 -0.9271 0.3719
vn 0.0585 -0.9334 0.3540
vn 0.2663 0.0390 0.9631
vn 0.1008 -0.9120 0.3976
vn -0.0853 -0.9025 0.4221
vn -0.4362 -0.8866 0.1536
vn -0.3901 -0.8745 0.2883
vn -0.0126 -0.9981 0.0598
vn -0.4500 -0.8643 -0.2248
vn -0.4062 -0.5702 -0.7140
vn -0.5582 -0.3561 -0.7494
vn -0.0232 0.0151 -0.9996
vn -0.5601 0.3342 -0.7581
vn -0.6459 0.7463 -0.1610
vn -0.5602 0.7526 -0.3462
vn -0.5785 0.6969 -0.4240
vn 0.1511 0.9883 -0.0214
vn -0.1293 0.9805 -0.1480
vn 0.3757 0.6048 -0.7021
vn 0.5432 0.5413 -0.6418
vn 0.7868 0.5907 -0.1788
vn 0.7756 0.5977 0.2029
vn 0.0120 0.9083 0.4181
vn 0.5347 0.5760 0.6183
vn 0.7301 0.5599 0.3918
vn 0.9586 0.2630 -0.1094
vn 0.9520 0.2958 0.0788
vn 0.9508 0.2922 -0.1029
vn 0.9236 0.2079 -0.3221
vn 0.9511 0.2368 -0.1984
vn 0.9703 0.0112 -0.2417
vn 0.9362 0.0100 -0.3513
vn 0.9593 -0.1939 -0.2053
vn 0.9952 0.0104 -0.0972
vn 0.9842 -0.1570 -0.0823
vn 0.9545 -0.2787 -0.1057
vn 0.9852 -0.1587 0.0649
vn 0.9813 0.1769 -0.0763
vn 0.9824 0.1769 0.0593
vn 0.9968 0.0102 0.0795
vn 0.9078 -0.4097 0.0902
vn 0.7046 -0.6314 0.3237
vn 0.6999 -0.6273 -0.3415
vn 0.8801 0.0596 -0.4711
vn 0.8716 0.0201 -0.4897
vn 0.8772 0.4357 0.2017
vn 0.8615 0.3198 0.3944
vn 0.7484 0.5952 -0.2926
vn 0.0847 0.9867 0.1388
vn -0.0902 0.8944 -0.4380
vn 0.0146 0.9844 -0.1751
vn -0.4207 0.8488 -0.3202
vn -0.3559 0.9100 -0.2126
vn -0.1461 0.9887 0.0350
vn 0.1626 0.9737 0.1599
vn -0.1171 0.9853 0.1245
vn 0.6551 0.1445 -0.7416
vn 0.7412 0.2419 -0.6262
vn 0.7662 0.4749 -0.4328
vn 0.4692 -0.5201 -0.7137
vn 0.7526 0.6121 -0.2427
vn 0.5919 0.2511 -0.7659
vn 0.4476 0.1621 -0.8794
vn 0.3758 0.1608 -0.9127
vn 0.1161 -0.1409 -0.9832
vn 0.6960 0.0100 0.7180
vn -0.8594 -0.3524 -0.3704
vn -0.8014 0.5835 0.1312
vn -0.8245 0.4226 0.3764
vn -0.6786 0.4236 0.6001
vn -0.8881 0.4364 0.1443
vn -0.7540 0.5940 -0.2804
vn -0.8409 0.4972 -0.2136
vn -0.9600 -0.0951 0.2634
vn -0.8828 0.0969 0.4596
vn -0.9414 -0.1765 0.2875
vn -0.9585 0.0289 0.2835
vn -0.9379 -0.2612 0.2281
vn -0.9099 -0.3857 0.1528
vn -0.9552 -0.2948 -0.0275
vn -0.8221 -0.4465 -0.3533
vn -0.8657 -0.4984 -0.0467
vn -0.9443 0.0191 -0.3286
vn -0.9996 0.0187 -0.0219
vn -0.8013 -0.3128 -0.5100
vn -0.9102 -0.2729 -0.3115
vn -0.7929 0.3489 -0.4996
vn -0.8301 0.0220 -0.5572
vn -0.9000 0.3066 -0.3097
vn -0.7926 0.4979 -0.3520
vn -0.9450 0.3262 -0.0224
vn -0.9120 0.3088 0.2701
vn 0.6332 0.6377 -0.4386
vn 0.4313 0.6475 -0.6282
vn -0.8102 0.3557 0.4658
vn -0.7893 -0.5851 -0.1859
vn -0.7248 0.6885 -0.0261
vn -0.7133 0.5560 0.4267
vn -0.0902 0.7949 -0.6000
vn -0.7680 0.5799 0.2719
vn 0.3563 0.9344 -0.0020
vn 0.1667 -0.0400 0.9852
vn -0.9889 0.1486 0.0062
s 1
f 3//1 2//2 1//3
f 3//1 4//4 2//2
f 3//1 6//5 5//6
f 8//7 5//6 6//5
f 5//6 8//7 9//8
f 11//9 9//8 12//10
f 8//7 12//10 9//8
f 14//11 11//9 13//12
f 16//13 14//11 15//14
f 15//14 18//15 17//16
f 18//15 19//17 17//16
f 20//18 21//19 19//17
f 21//19 22//20 23//21
f 25//22 23//21 26//23
f 22//20 26//23 23//21
f 24//24 25//22 27//25
f 30//26 28//27 27//25
f 25//22 30//26 27//25
f 28//27 29//28 31//29
f 31//29 33//30 32//31
f 33//30 34//32 32//31
f 33//30 36//33 35//34
f 34//32 33//30 35//34
f 36//33 38//35 39//36
f 40//37 39//36 38//35
f 42//38 39//36 40//37
f 43//39 42//38 44//40
f 43//39 45//41 41//42
f 48//43 46//44 43//39
f 48//43 49//45 47//46
f 53//47 51//48 50//49
f 48//43 53//47 50//49
f 51//48 52//50 54//51
f 56//52 54//51 57//53
f 52//50 57//53 54//51
f 59//54 51//48 54//51
f 60//55 59//54 54//51
f 63//56 61//57 60//55
f 59//54 60//55 61//57
f 62//58 63//56 64//59
f 62//58 65//60 66//61
f 66//61 68//62 67//63
f 69//64 66//61 67//63
f 66//61 69//64 70//65
f 72//66 68//62 65//60
f 71//67 74//68 73//69
f 76//70 73//69 74//68
f 78//71 76//70 74//68
f 77//72 79//73 80//74
f 77//72 1//3 81//75
f 82//76 77//72 81//75
f 83//77 82//76 81//75
f 81//75 85//78 84//79
f 83//77 84//79 87//80
f 83//77 87//80 88//81
f 91//82 89//83 87//80
f 88//81 87//80 89//83
f 91//82 92//84 90//85
f 91//82 94//86 93//87
f 92//84 91//82 93//87
f 95//88 92//84 93//87
f 95//88 97//89 96//90
f 98//91 95//88 96//90
f 98//91 100//92 99//93
f 101//94 98//91 99//93
f 98//91 101//94 102//95
f 101//94 103//96 102//95
f 104//97 99//93 105//98
f 106//99 104//97 105//98
f 108//100 99//93 107//101
f 109//102 108//100 107//101
f 110//103 109//102 107//101
f 109//102 112//104 111//105
f 113//106 109//102 111//105
f 116//107 114//108 112//104
f 110//103 116//107 112//104
f 119//109 117//110 114//108
f 115//111 119//109 114//108
f 117//110 118//112 120//113
f 122//114 120//113 123//115
f 124//116 120//113 118//112
f 121//117 122//114 125//118
f 127//119 125//118 128//120
f 122//114 128//120 125//118
f 127//119 129//121 126//122
f 129//121 132//123 131//124
f 132//123 134//125 133//126
f 131//124 132//123 133//126
f 134//125 135//127 136//128
f 139//129 137//130 136//128
f 134//125 137//130 140//131
f 138//132 139//129 141//133
f 144//134 142//135 141//133
f 145//136 141//133 142//135
f 143//137 144//134 146//138
f 143//137 148//139 147//140
f 149//141 143//137 147//140
f 147//140 151//142 150//143
f 151//142 153//144 152//145
f 150//143 151//142 152//145
f 153//144 154//146 155//147
f 153//144 157//148 156//149
f 158//150 153//144 156//149
f 157//148 159//151 156//149
f 159//151 162//152 161//153
f 162//152 163//154 161//153
f 164//155 165//156 163//154
f 165//156 168//157 167//158
f 168//157 169//159 167//158
f 170//160 172//161 171//162
f 169//159 170//160 171//162
f 172//161 173//163 174//164
f 173//163 175//165 174//164
f 175//165 178//166 177//167
f 174//164 175//165 177//167
f 178//166 179//168 180//169
f 180//169 182//170 181//171
f 178//166 180//169 181//171
f 185//172 182//170 183//173
f 186//174 183//173 187//175
f 188//176 187//175 183//173
f 188//176 189//177 187//175
f 189//177 190//178 187//175
f 190//178 191//179 192//180
f 193//181 192//180 191//179
f 193//181 194//182 195//183
f 196//184 194//182 197//185
f 199//186 197//185 198//187
f 201//188 199//186 198//187
f 203//189 200//190 201//188
f 205//191 200//190 202//192
f 207//193 204//194 205//191
f 209//195 207//193 205//191
f 211//196 208//197 209//195
f 212//198 211//196 213//199
f 214//200 213//199 211//196
f 212//198 213//199 215//201
f 213//199 216//202 215//201
f 217//203 218//204 216//202
f 219//205 220//206 221//207
f 222//208 219//205 221//207
f 222//208 223//209 224//210
f 225//211 224//210 223//209
f 222//208 224//210 226//212
f 224//210 227//213 226//212
f 229//214 226//212 227//213
f 231//215 229//214 227//213
f 233//216 231//215 232//217
f 234//218 233//216 232//217
f 236//219 233//216 234//218
f 236//219 237//220 235//221
f 237//220 239//222 240//223
f 242//224 240//223 239//222
f 243//225 242//224 244//226
f 246//227 243//225 244//226
f 248//228 245//229 246//227
f 247//230 248//228 249//231
f 247//230 250//232 245//229
f 253//233 246//227 252//234
f 253//233 255//235 254//236
f 256//237 253//233 254//236
f 258//238 256//237 257//239
f 259//240 258//238 257//239
f 258//238 259//240 260//241
f 261//242 258//238 260//241
f 262//243 259//240 257//239
f 255//235 263//244 254//236
f 266//245 264//246 255//235
f 263//244 255//235 264//246
f 264//246 268//247 267//248
f 267//248 270//249 269//250
f 270//249 271//251 269//250
f 271//251 274//252 273//253
f 274//252 275//254 273//253
f 276//255 277//256 275//254
f 278//257 279//258 277//256
f 281//259 277//256 279//258
f 274//252 232//217 276//255
f 283//260 273//253 275//254
f 244//226 266//245 246//227
f 252//234 246//227 266//245
f 285//261 244//226 242//224
f 286//262 237//220 240//223
f 288//263 286//262 240//223
f 289//264 288//263 240//223
f 286//262 290//265 291//266
f 293//267 290//265 292//268
f 295//269 292//268 294//270
f 296//271 295//269 294//270
f 297//272 296//271 294//270
f 299//273 297//272 294//270
f 300//274 299//273 294//270
f 303//275 301//276 300//274
f 299//273 300//274 301//276
f 304//277 299//273 301//276
f 302//278 305//279 301//276
f 297//272 298//280 218//204
f 298//280 304//277 306//281
f 307//282 298//280 306//281
f 308//283 307//282 306//281
f 309//284 306//281 310//285
f 311//286 310//285 306//281
f 304//277 311//286 306//281
f 292//268 300//274 294//270
f 303//275 292//268 290//265
f 287//287 303//275 290//265
f 288//263 312//288 287//287
f 314//289 288//263 315//290
f 314//289 315//290 316//291
f 316//291 317//292 318//293
f 250//232 318//293 317//292
f 318//293 319//294 316//291
f 322//295 320//296 318//293
f 319//294 318//293 320//296
f 321//297 323//298 320//296
f 326//299 324//300 320//296
f 323//298 326//299 320//296
f 324//300 325//301 328//302
f 330//303 328//302 331//304
f 325//301 331//304 328//302
f 329//305 332//306 328//302
f 332//306 334//307 333//308
f 334//307 335//309 333//308
f 334//307 337//310 336//311
f 336//311 339//312 305//279
f 327//313 4//4 326//299
f 324//300 319//294 320//296
f 285//261 242//224 239//222
f 238//314 340//315 341//316
f 340//315 234//218 282//317
f 282//317 234//218 232//217
f 231//215 276//255 232//217
f 227//213 342//318 280//319
f 228//320 343//321 342//318
f 344//322 342//318 343//321
f 343//321 345//323 344//322
f 347//324 344//322 345//323
f 344//322 347//324 348//325
f 345//323 350//326 349//327
f 350//326 351//328 349//327
f 352//329 353//330 351//328
f 353//330 356//331 355//332
f 356//331 357//333 355//332
f 360//334 357//333 358//335
f 359//336 203//189 361//337
f 363//338 358//335 356//331
f 362//339 365//340 364//341
f 352//329 366//342 354//343
f 351//328 367//344 349//327
f 346//345 368//346 350//326
f 228//320 224//210 225//211
f 298//280 216//202 218//204
f 308//283 215//201 307//282
f 216//202 307//282 215//201
f 371//347 212//198 215//201
f 369//348 371//347 215//201
f 372//349 370//350 371//347
f 309//284 371//347 369//348
f 217//203 214//200 220//206
f 368//346 214//200 374//351
f 212//198 370//350 210//352
f 374//351 211//196 365//340
f 365//340 209//195 364//341
f 208//197 375//353 207//193
f 378//354 375//353 376//355
f 372//349 378//354 376//355
f 377//356 379//357 375//353
f 206//358 381//359 380//360
f 204//194 206//358 380//360
f 381//359 382//361 383//362
f 381//359 385//363 384//364
f 386//365 381//359 384//364
f 385//363 387//366 384//364
f 388//367 390//368 389//369
f 387//366 388//367 389//369
f 390//368 391//370 392//371
f 392//371 394//372 393//373
f 390//368 392//371 393//373
f 397//374 394//372 395//375
f 397//374 398//376 396//377
f 398//376 401//378 400//379
f 403//380 400//379 401//378
f 403//380 404//381 402//382
f 407//383 404//381 408//384
f 405//385 408//384 404//381
f 406//386 407//383 409//387
f 412//388 410//389 409//387
f 407//383 412//388 409//387
f 410//389 411//390 413//391
f 410//389 415//392 414//393
f 416//394 410//389 414//393
f 419//395 417//396 415//392
f 414//393 415//392 417//396
f 418//397 419//395 420//398
f 421//399 418//397 420//398
f 422//400 420//398 423//401
f 421//399 425//402 424//403
f 428//404 426//405 425//402
f 422//400 428//404 425//402
f 430//406 426//405 427//407
f 429//408 432//409 431//410
f 430//406 433//411 432//409
f 436//412 432//409 433//411
f 428//404 422//400 423//401
f 437//413 428//404 423//401
f 410//389 416//394 409//387
f 438//414 407//383 408//384
f 439//415 412//388 438//414
f 441//416 439//415 438//414
f 442//417 438//414 408//384
f 443//418 442//417 408//384
f 442//417 444//419 441//416
f 444//419 445//420 49//45
f 447//421 49//45 445//420
f 447//421 448//422 446//423
f 449//424 450//425 448//422
f 450//425 453//426 452//427
f 452//427 455//428 454//429
f 457//430 455//428 456//431
f 458//432 456//431 459//433
f 458//432 459//433 460//434
f 462//435 458//432 460//434
f 458//432 35//34 457//430
f 455//428 463//436 456//431
f 464//437 454//429 457//430
f 455//428 465//438 463//436
f 466//439 454//429 464//437
f 453//426 467//440 465//438
f 469//441 465//438 467//440
f 471//442 469//441 467//440
f 45//41 452//427 466//439
f 447//421 471//442 449//424
f 472//443 447//421 445//420
f 405//385 443//418 408//384
f 443//418 403//380 445//420
f 472//443 445//420 403//380
f 471//442 403//380 401//378
f 470//444 471//442 401//378
f 402//382 473//445 400//379
f 399//446 470//444 401//378
f 473//445 474//447 400//379
f 398//376 400//379 474//447
f 475//448 473//445 476//449
f 476//449 478//450 477//451
f 475//448 476//449 477//451
f 481//452 478//450 479//453
f 483//454 479//453 482//455
f 486//456 484//457 483//454
f 481//452 483//454 484//457
f 484//457 488//458 487//459
f 489//460 484//457 487//459
f 485//461 490//462 488//458
f 489//460 487//459 491//463
f 489//460 480//464 484//457
f 478//450 489//460 491//463
f 492//465 478//450 491//463
f 492//465 493//466 494//467
f 496//468 494//467 495//469
f 494//467 497//470 498//471
f 499//472 498//471 497//470
f 498//471 500//473 501//474
f 502//475 501//474 500//473
f 499//472 503//476 500//473
f 504//477 502//475 500//473
f 504//477 505//478 502//475
f 505//478 507//479 508//480
f 509//481 508//480 507//479
f 508//480 510//482 511//483
f 512//484 511//483 510//482
f 512//484 513//485 514//486
f 515//487 514//486 513//485
f 517//488 513//485 516//489
f 517//488 518//490 519//491
f 520//492 518//490 521//493
f 520//492 522//494 519//491
f 523//495 524//496 171//162
f 518//490 526//497 525//498
f 521//493 525//498 528//499
f 521//493 528//499 529//500
f 528//499 530//501 529//500
f 531//502 532//503 530//501
f 532//503 533//504 534//505
f 535//506 534//505 533//504
f 536//507 535//506 537//508
f 538//509 537//508 535//506
f 540//510 536//507 537//508
f 540//510 541//511 542//512
f 543//513 542//512 544//514
f 545//515 542//512 546//516
f 545//515 547//517 544//514
f 550//518 548//519 545//515
f 547//517 545//515 548//519
f 549//520 551//521 548//519
f 552//522 547//517 548//519
f 553//523 542//512 541//511
f 554//524 553//523 555//525
f 555//525 556//526 557//527
f 559//528 555//525 557//527
f 560//529 559//528 561//530
f 560//529 562//531 563//532
f 564//533 563//532 562//531
f 563//532 564//533 565//534
f 568//535 566//536 565//534
f 564//533 568//535 565//534
f 570//537 567//538 571//539
f 570//537 571//539 572//540
f 566//536 574//541 573//542
f 575//543 566//536 573//542
f 574//541 576//544 573//542
f 577//545 578//546 576//544
f 581//547 578//546 582//548
f 579//549 582//548 578//546
f 580//550 581//547 584//551
f 586//552 584//551 587//553
f 581//547 587//553 584//551
f 586//552 589//554 585//555
f 589//554 592//556 591//557
f 596//558 594//559 593//560
f 592//556 593//560 591//557
f 594//559 597//561 598//562
f 598//562 597//561 599//563
f 600//564 598//562 599//563
f 601//565 600//564 599//563
f 600//564 601//565 602//566
f 543//513 602//566 603//567
f 605//568 602//566 606//569
f 601//565 606//569 602//566
f 606//569 607//570 605//568
f 605//568 607//570 609//571
f 606//569 601//565 599//563
f 610//572 606//569 599//563
f 611//573 599//563 597//561
f 611//573 612//574 610//572
f 149//141 610//572 142//135
f 612//574 142//135 610//572
f 614//575 612//574 615//576
f 137//130 614//575 615//576
f 617//577 137//130 615//576
f 616//578 617//577 618//579
f 621//580 619//581 618//579
f 617//577 621//580 618//579
f 619//581 622//582 623//583
f 624//584 623//583 622//582
f 623//583 625//585 619//581
f 623//583 627//586 626//587
f 627//586 628//588 629//589
f 632//590 630//591 629//589
f 628//588 632//590 629//589
f 631//592 633//593 587//553
f 634//594 631//592 587//553
f 633//593 632//590 635//595
f 630//591 636//596 629//589
f 638//597 625//585 626//587
f 639//598 624//584 622//582
f 619//581 625//585 618//579
f 613//599 608//600 610//572
f 592//556 640//601 596//558
f 594//559 551//521 593//560
f 641//602 595//603 596//558
f 642//604 591//557 593//560
f 590//605 622//582 592//556
f 640//601 592//556 622//582
f 590//605 633//593 635//595
f 639//598 590//605 635//595
f 643//606 589//554 644//607
f 633//593 586//552 587//553
f 588//608 634//594 587//553
f 585//555 643//606 584//551
f 588//608 581//547 582//548
f 646//609 582//548 583//610
f 646//609 647//611 648//612
f 649//613 648//612 647//611
f 648//612 649//613 650//614
f 651//615 650//614 652//616
f 654//617 652//616 650//614
f 656//618 654//617 655//619
f 656//618 657//620 658//621
f 660//622 658//621 657//620
f 661//623 660//622 657//620
f 660//622 661//623 662//624
f 664//625 660//622 662//624
f 665//626 664//625 662//624
f 667//627 665//626 666//628
f 668//629 667//627 666//628
f 668//629 666//628 669//630
f 670//631 664//625 667//627
f 660//622 663//632 659//633
f 663//632 671//634 659//633
f 673//635 658//621 659//633
f 671//634 673//635 659//633
f 673//635 671//634 674//636
f 675//637 661//623 657//620
f 676//638 657//620 655//619
f 654//617 676//638 655//619
f 678//639 651//615 652//616
f 679//640 649//613 647//611
f 651//615 680//641 646//609
f 648//612 651//615 646//609
f 646//609 680//641 645//642
f 682//643 645//642 680//641
f 684//644 681//645 682//643
f 580//550 685//646 578//546
f 685//646 576//544 578//546
f 576//544 687//647 573//542
f 687//647 689//648 688//649
f 687//647 575//543 573//542
f 566//536 575//543 565//534
f 690//650 567//538 568//535
f 692//651 568//535 691//652
f 693//653 691//652 694//654
f 695//655 694//654 691//652
f 692//651 696//656 697//657
f 698//658 696//656 699//659
f 701//660 699//659 700//661
f 699//659 702//662 700//661
f 704//663 700//661 702//662
f 706//664 701//660 700//661
f 703//665 706//664 700//661
f 705//666 706//664 707//667
f 708//668 705//666 707//667
f 490//462 707//667 709//669
f 706//664 709//669 707//667
f 709//669 706//664 703//665
f 694//654 695//655 710//670
f 713//671 711//672 710//670
f 695//655 713//671 710//670
f 711//672 715//673 714//674
f 717//675 714//674 715//673
f 717//675 718//676 716//677
f 718//676 721//678 720//679
f 720//679 723//680 722//681
f 723//680 525//498 722//681
f 556//526 723//680 721//678
f 720//679 526//497 725//682
f 726//683 720//679 725//682
f 727//684 726//683 725//682
f 728//685 727//684 729//686
f 728//685 720//679 726//683
f 718//676 730//687 716//677
f 731//688 716//677 730//687
f 732//689 731//688 730//687
f 716//677 731//688 714//674
f 711//672 733//690 710//670
f 713//671 695//655 691//652
f 561//530 734//691 562//531
f 559//528 715//673 561//530
f 734//691 561//530 715//673
f 556//526 541//511 724//692
f 538//509 724//692 541//511
f 543//513 539//693 540//510
f 603//567 735//694 539//693
f 736//695 737//696 735//694
f 736//695 739//697 738//698
f 739//697 740//699 738//698
f 158//150 739//697 152//145
f 609//571 152//145 739//697
f 735//694 536//507 539//693
f 536//507 743//700 534//505
f 742//701 744//702 743//700
f 724//692 538//509 535//506
f 743//700 532//503 534//505
f 743//700 746//703 530//501
f 532//503 743//700 530//501
f 530//501 524//496 529//500
f 531//502 525//498 533//504
f 526//497 722//681 525//498
f 516//489 527//704 518//490
f 747//705 517//488 748//706
f 513//485 725//682 516//489
f 527//704 516//489 725//682
f 749//707 512//484 514//486
f 750//708 749//707 514//486
f 747//705 750//708 514//486
f 515//487 747//705 514//486
f 513//485 729//686 727//684
f 512//484 749//707 511//483
f 752//709 511//483 751//710
f 750//708 751//710 511//483
f 506//711 733//690 507//479
f 732//689 509//481 507//479
f 497//470 699//659 696//656
f 499//472 696//656 503//476
f 482//455 479//453 476//449
f 470//444 397//374 469//441
f 468//712 397//374 395//375
f 396//377 753//713 394//372
f 753//713 755//714 186//174
f 474//447 755//714 754//715
f 755//714 758//716 757//717
f 756//718 496//468 758//716
f 758//716 759//719 757//717
f 759//719 761//720 752//709
f 468//712 395//375 392//371
f 394//372 762//721 393//373
f 389//369 762//721 192//180
f 465//438 392//371 463//436
f 391//370 463//436 392//371
f 390//368 393//373 389//369
f 456//431 391//370 388//367
f 763//722 456//431 388//367
f 763//722 388//367 385//363
f 460//434 763//722 385//363
f 383//362 460//434 385//363
f 764//723 460//434 383//362
f 382//361 764//723 383//362
f 764//723 379//357 462//435
f 381//359 386//365 380//360
f 764//723 382//361 206//358
f 379//357 206//358 375//353
f 207//193 375//353 206//358
f 361//337 201//188 765//724
f 204//194 199//186 200//190
f 386//365 199//186 380//360
f 197//185 766//725 198//187
f 196//184 384//364 195//183
f 762//721 190//178 192//180
f 387//366 192//180 193//181
f 762//721 186//174 187//175
f 190//178 762//721 187//175
f 184//726 747//705 182//170
f 188//176 183//173 180//169
f 182//170 748//706 181//171
f 177//167 748//706 522//494
f 191//179 188//176 180//169
f 179//168 191//179 180//169
f 191//179 175//165 194//182
f 172//161 523//495 171//162
f 176//727 170//160 766//725
f 169//159 524//496 746//703
f 765//724 170//160 168//157
f 166//728 765//724 168//157
f 745//729 167//158 744//702
f 357//333 164//155 162//152
f 163//154 767//730 161//153
f 355//332 162//152 160//731
f 767//730 159//151 161//153
f 157//148 355//332 160//731
f 741//732 159//151 740//699
f 741//732 158//150 156//149
f 154//146 367//344 155//147
f 153//144 158//150 152//145
f 367//344 151//142 349//327
f 345//323 349//327 151//142
f 347//324 146//138 348//325
f 768//733 149//141 147//140
f 143//137 149//141 142//135
f 614//575 145//136 142//135
f 138//132 145//136 137//130
f 616//578 140//131 137//130
f 132//123 271//251 135//127
f 637//734 131//124 133//126
f 267//248 132//123 130//735
f 769//736 129//121 638//597
f 128//120 264//246 127//119
f 128//120 122//114 123//115
f 256//237 123//115 124//116
f 121//117 636//596 120//113
f 120//113 630//591 683//737
f 117//110 683//737 684//644
f 117//110 684//644 114//108
f 116//107 770//738 115//111
f 677//739 111//105 651//615
f 677//739 108//100 113//106
f 116//107 110//103 107//101
f 75//740 89//83 436//412
f 89//83 103//96 771//741
f 85//78 86//742 772//743
f 7//744 79//73 773//745
f 75//740 433//411 73//69
f 72//66 78//71 74//68
f 434//746 73//69 433//411
f 411//390 67//63 413//391
f 440//747 59//54 61//57
f 62//58 70//65 61//57
f 58//748 440//747 441//416
f 444//419 58//748 441//416
f 57//53 53//47 774//749
f 774//749 775//750 776//751
f 777//752 774//749 776//751
f 778//753 777//752 776//751
f 777//752 779//754 780//755
f 26//23 779//754 781//756
f 783//757 781//756 779//754
f 781//756 782//758 784//759
f 784//759 785//760 38//35
f 783//757 785//760 782//758
f 778//753 783//757 779//754
f 787//761 778//753 776//751
f 788//762 776//751 775//750
f 44//40 788//762 775//750
f 51//48 58//748 50//49
f 446//423 47//46 49//45
f 50//49 444//419 49//45
f 46//44 446//423 448//422
f 45//41 448//422 450//425
f 786//763 44//40 42//38
f 39//36 45//41 466//439
f 786//763 40//37 785//760
f 30//26 38//35 37//764
f 36//33 466//439 464//437
f 785//760 40//37 38//35
f 36//33 457//430 35//34
f 461//765 34//32 35//34
f 34//32 462//435 32//31
f 379//357 32//31 462//435
f 31//29 372//349 371//347
f 28//27 371//347 373//766
f 28//27 373//766 27//25
f 309//284 24//24 27//25
f 373//766 309//284 27//25
f 25//22 781//756 784//759
f 30//26 25//22 784//759
f 24//24 310//285 23//21
f 311//286 21//19 23//21
f 310//285 311//286 23//21
f 20//18 26//23 22//20
f 339//312 19//17 21//19
f 20//18 777//752 780//755
f 330//303 17//16 338//767
f 13//12 57//53 774//749
f 10//768 16//13 9//8
f 11//9 56//52 57//53
f 12//10 789//769 56//52
f 6//5 773//745 789//769
f 2//2 327//313 772//743
f 86//742 2//2 772//743
f 330//303 16//13 15//14
f 3//1 80//74 7//744
f 12//10 8//7 6//5
f 18//15 13//12 777//752
f 63//56 79//73 64//59
f 63//56 55//770 789//769
f 773//745 63//56 789//769
f 48//43 44//40 775//750
f 53//47 48//43 775//750
f 2//2 81//75 1//3
f 327//313 323//298 772//743
f 77//72 82//76 76//70
f 78//71 65//60 79//73
f 64//59 79//73 65//60
f 91//82 87//80 84//79
f 790//771 772//743 321//297
f 323//298 321//297 772//743
f 312//288 333//308 335//309
f 440//747 70//65 439//415
f 95//88 103//96 92//84
f 90//85 92//84 103//96
f 434//746 427//407 791//772
f 792//773 656//618 793//774
f 794//775 793//774 795//776
f 796//777 795//776 793//774
f 792//773 794//775 678//639
f 106//99 794//775 795//776
f 796//777 672//778 431//410
f 771//741 796//777 435//779
f 426//405 673//635 674//636
f 313//780 332//306 333//308
f 303//275 335//309 302//278
f 331//304 325//301 326//299
f 334//307 330//303 338//767
f 311//286 301//276 339//312
f 305//279 339//312 301//276
f 55//770 56//52 789//769
f 30//26 33//30 29//28
f 322//295 250//232 251//781
f 322//295 251//781 797//782
f 317//292 288//263 289//264
f 233//216 295//269 230//783
f 790//771 84//79 85//78
f 790//771 798//784 94//86
f 256//237 119//109 257//239
f 277//256 141//133 275//254
f 283//260 141//133 139//129
f 108//100 109//102 113//106
f 241//785 289//264 240//223
f 286//262 235//221 237//220
f 230//783 295//269 229//214
f 332//306 316//291 328//302
f 319//294 328//302 316//291
f 218//204 222//208 226//212
f 297//272 226//212 296//271
f 372//349 208//197 370//350
f 210//352 370//350 208//197
f 284//786 265//787 266//245
f 270//249 340//315 272//788
f 231//215 280//319 278//257
f 362//339 360//334 358//335
f 126//122 769//736 125//118
f 134//125 140//131 133//126
f 281//259 144//134 141//133
f 631//592 681//645 683//737
f 768//733 147//140 150//143
f 9//8 331//304 326//299
f 5//6 326//299 4//4
f 338//767 19//17 337//310
f 308//283 309//284 369//348
f 55//770 60//55 54//51
f 783//757 788//762 786//763
f 377//356 31//29 32//31
f 442//417 443//418 445//420
f 449//424 467//440 451//789
f 763//722 459//433 456//431
f 238//314 341//316 239//222
f 223//209 220//206 368//346
f 71//67 791//772 68//62
f 209//195 202//192 364//341
f 404//381 483//454 482//455
f 396//377 474//447 754//715
f 384//364 193//181 195//183
f 682//643 111//105 112//104
f 620//790 640//601 622//582
f 768//733 152//145 609//571
f 607//570 768//733 609//571
f 661//623 799//791 662//624
f 801//792 662//624 799//791
f 800//793 801//792 572//540
f 802//794 801//792 799//791
f 804//795 802//794 799//791
f 679//640 803//796 804//795
f 558//797 806//798 805//799
f 808//800 805//799 806//798
f 805//799 807//801 809//802
f 811//803 809//802 807//801
f 811//803 812//804 810//805
f 814//806 811//803 815//807
f 814//806 816//808 813//809
f 814//806 818//810 817//811
f 818//810 819//812 820//813
f 820//813 821//814 689//648
f 817//811 642//604 816//808
f 813//809 816//808 812//804
f 810//805 554//524 809//802
f 808//800 811//803 807//801
f 821//814 808//800 822//815
f 163//154 745//729 767//730
f 737//696 767//730 745//729
f 761//720 508//480 752//709
f 172//161 177//167 522//494
f 523//495 172//161 522//494
f 824//816 823//817 97//89
f 245//229 317//292 243//225
f 798//784 97//89 93//87
f 94//86 798//784 93//87
f 824//816 798//784 797//782
f 790//771 322//295 797//782
f 798//784 790//771 797//782
f 336//311 302//278 335//309
f 83//77 75//740 82//76
f 76//70 82//76 75//740
f 261//242 96//90 823//817
f 97//89 823//817 96//90
f 261//242 823//817 249//231
f 261//242 248//228 253//233
f 258//238 261//242 253//233
f 239//222 270//249 285//261
f 268//247 285//261 270//249
f 95//88 98//91 102//95
f 436//412 771//741 435//779
f 262//243 770//738 100//92
f 124//116 118//112 119//109
f 637//734 129//121 131//124
f 100//92 116//107 107//101
f 99//93 100//92 107//101
f 684//644 112//104 114//108
f 621//580 596//558 620//790
f 640//601 620//790 596//558
f 105//98 677//739 678//639
f 106//99 678//639 794//775
f 255//235 252//234 266//245
f 284//786 268//247 265//787
f 340//315 274//252 272//788
f 797//782 247//230 249//231
f 824//816 249//231 823//817
f 295//269 226//212 229//214
f 263//244 123//115 254//236
f 127//119 267//248 130//735
f 271//251 283//260 136//128
f 135//127 271//251 136//128
f 262//243 119//109 115//111
f 770//738 262//243 115//111
f 279//258 146//138 281//259
f 144//134 281//259 146//138
f 429//408 672//778 673//635
f 125//118 627//586 629//589
f 121//117 629//589 636//596
f 627//586 638//597 626//587
f 133//126 616//578 618//579
f 637//734 618//579 625//585
f 630//591 631//592 683//737
f 621//580 617//577 615//576
f 577//545 679//640 647//611
f 579//549 577//545 647//611
f 825//818 808//800 806//798
f 822//815 825//818 688//649
f 552//522 543//513 544//514
f 547//517 552//522 544//514
f 259//240 100//92 260//241
f 96//90 260//241 100//92
f 280//319 344//322 348//325
f 279//258 280//319 348//325
f 363//338 374//351 365//340
f 421//399 490//462 418//397
f 417//396 418//397 490//462
f 197//185 175//165 176//727
f 681//645 588//608 582//548
f 645//642 681//645 582//548
f 623//583 635//595 628//588
f 632//590 628//588 635//595
f 595//603 611//573 597//561
f 604//819 603//567 602//566
f 669//630 571//539 567//538
f 690//650 669//630 567//538
f 504//477 710//670 506//711
f 733//690 506//711 710//670
f 524//496 521//493 529//500
f 643//606 817//811 818//810
f 593//560 549//520 812//804
f 642//604 812//804 816//808
f 685//646 689//648 686//820
f 821//814 814//806 815//807
f 549//520 810//805 812//804
f 565//534 687//647 688//649
f 563//532 688//649 825//818
f 563//532 806//798 560//529
f 241//785 317//292 289//264
f 235//221 293//267 233//216
f 343//321 223//209 346//345
f 374//351 352//329 350//326
f 368//346 374//351 350//326
f 362//339 202//192 203//189
f 360//334 362//339 203//189
f 283//260 139//129 136//128
f 148//139 345//323 151//142
f 367//344 353//330 157//148
f 155//147 367//344 157//148
f 359//336 166//728 164//155
f 624//584 639//598 635//595
f 641//602 615//576 611//573
f 612//574 611//573 615//576
f 613//599 607//570 608//600
f 643//606 820//813 584//551
f 685//646 584//551 820//813
f 598//562 548//519 594//559
f 551//521 594//559 548//519
f 604//819 609//571 739//697
f 569//821 564//533 562//531
f 735//694 745//729 742//701
f 103//96 106//99 795//776
f 771//741 103//96 795//776
f 432//409 796//777 431//410
f 653//822 678//639 652//616
f 672//778 656//618 658//621
f 671//634 664//625 674//636
f 670//631 674//636 664//625
f 650//614 679//640 804//795
f 654//617 804//795 676//638
f 583//610 579//549 647//611
f 642//604 589//554 591//557
f 675//637 804//795 799//791
f 802//794 577//545 574//541
f 800//793 665//626 662//624
f 665//626 572//540 666//628
f 571//539 666//628 572//540
f 712//823 569//821 562//531
f 734//691 712//823 562//531
f 68//62 826//824 67//63
f 67//63 415//392 413//391
f 411//390 439//415 70//65
f 69//64 411//390 70//65
f 486//456 416//394 414//393
f 409//387 486//456 483//454
f 406//386 409//387 483//454
f 404//381 476//449 402//382
f 473//445 402//382 476//449
f 437//413 791//772 427//407
f 428//404 437//413 427//407
f 437//413 420//398 419//395
f 485//461 414//393 417//396
f 480//464 481//452 484//457
f 475//448 756//718 474//447
f 425//402 674//636 708//668
f 424//403 708//668 707//667
f 668//629 701//660 667//627
f 709//669 488//458 490//462
f 488//458 703//665 487//459
f 704//663 487//459 703//665
f 495//469 761//720 760//825
f 826//824 419//395 415//392
f 491//463 704//663 493//466
f 477//451 492//465 496//468
f 186//174 757//717 185//172
f 670//631 701//660 705//666
f 704//663 497//470 493//466
f 494//467 501//474 495//469
f 184//726 752//709 751//710
f 574//541 572//540 802//794
f 801//792 802//794 572//540
f 554//524 545//515 546//516
f 690//650 697//657 669//630
f 569//821 691//652 568//535
f 557//527 721//678 719//826
f 693//653 503//476 696//656
f 693//653 504//477 500//473
f 503//476 693//653 500//473
f 509//481 730//687 510//482
f 729//686 510//482 730//687
f 366//342 356//331 354//343
f 765//724 198//187 766//725
f 496//468 760//825 758//716
f 185//172 759//719 184//726
f 178//166 181//171 177//167
f 740//699 737//696 738//698
f 668//629 697//657 698//658
f 167//158 746//703 744//702
f 501//474 505//478 761//720
f 749//707 750//708 511//483
f 522//494 517//488 519//491
f 821//814 688//649 689//648
f 555//525 805//799 809//802
f 554//524 555//525 809//802
f 537//508 538//509 541//511
f 712//823 734//691 715//673
f 717//675 557//527 719//826
f 723//680 535//506 533//504
f 507//479 711//672 714//674
f 731//688 507//479 714//674
f 728//685 729//686 730//687
f 526//497 527//704 725//682
f 3//1 5//6 4//4
f 3//1 7//744 6//5
f 11//9 10//768 9//8
f 14//11 10//768 11//9
f 16//13 10//768 14//11
f 15//14 14//11 18//15
f 18//15 20//18 19//17
f 20//18 22//20 21//19
f 25//22 24//24 23//21
f 30//26 29//28 28//27
f 31//29 29//28 33//30
f 33//30 37//764 36//33
f 36//33 37//764 38//35
f 42//38 41//42 39//36
f 43//39 41//42 42//38
f 43//39 46//44 45//41
f 48//43 47//46 46//44
f 48//43 50//49 49//45
f 53//47 52//50 51//48
f 56//52 55//770 54//51
f 59//54 58//748 51//48
f 63//56 62//58 61//57
f 62//58 64//59 65//60
f 66//61 65//60 68//62
f 72//66 71//67 68//62
f 71//67 72//66 74//68
f 76//70 75//740 73//69
f 78//71 77//72 76//70
f 77//72 78//71 79//73
f 77//72 80//74 1//3
f 81//75 86//742 85//78
f 83//77 81//75 84//79
f 91//82 90//85 89//83
f 91//82 84//79 94//86
f 95//88 93//87 97//89
f 98//91 96//90 100//92
f 101//94 104//97 103//96
f 104//97 101//94 99//93
f 108//100 105//98 99//93
f 109//102 110//103 112//104
f 116//107 115//111 114//108
f 119//109 118//112 117//110
f 122//114 121//117 120//113
f 124//116 123//115 120//113
f 127//119 126//122 125//118
f 127//119 130//735 129//121
f 129//121 130//735 132//123
f 132//123 135//127 134//125
f 139//129 138//132 137//130
f 134//125 136//128 137//130
f 144//134 143//137 142//135
f 145//136 138//132 141//133
f 143//137 146//138 148//139
f 147//140 148//139 151//142
f 151//142 154//146 153//144
f 153//144 155//147 157//148
f 157//148 160//731 159//151
f 159//151 160//731 162//152
f 162//152 164//155 163//154
f 164//155 166//728 165//156
f 165//156 166//728 168//157
f 168//157 170//160 169//159
f 170//160 173//163 172//161
f 173//163 176//727 175//165
f 175//165 179//168 178//166
f 180//169 183//173 182//170
f 185//172 184//726 182//170
f 186//174 185//172 183//173
f 190//178 189//177 191//179
f 193//181 191//179 194//182
f 196//184 195//183 194//182
f 199//186 196//184 197//185
f 201//188 200//190 199//186
f 203//189 202//192 200//190
f 205//191 204//194 200//190
f 207//193 206//358 204//194
f 209//195 208//197 207//193
f 211//196 210//352 208//197
f 212//198 210//352 211//196
f 213//199 217//203 216//202
f 217//203 219//205 218//204
f 219//205 217//203 220//206
f 222//208 221//207 223//209
f 224//210 228//320 227//213
f 231//215 230//783 229//214
f 233//216 230//783 231//215
f 236//219 235//221 233//216
f 236//219 238//314 237//220
f 237//220 238//314 239//222
f 242//224 241//785 240//223
f 243//225 241//785 242//224
f 246//227 245//229 243//225
f 248//228 247//230 245//229
f 247//230 251//781 250//232
f 253//233 248//228 246//227
f 253//233 252//234 255//235
f 258//238 253//233 256//237
f 266//245 265//787 264//246
f 264//246 265//787 268//247
f 267//248 268//247 270//249
f 270//249 272//788 271//251
f 271//251 272//788 274//252
f 274//252 276//255 275//254
f 276//255 278//257 277//256
f 278//257 280//319 279//258
f 274//252 282//317 232//217
f 244//226 284//786 266//245
f 285//261 284//786 244//226
f 288//263 287//287 286//262
f 286//262 287//287 290//265
f 293//267 291//266 290//265
f 295//269 293//267 292//268
f 299//273 298//280 297//272
f 303//275 302//278 301//276
f 298//280 299//273 304//277
f 309//284 308//283 306//281
f 303//275 300//274 292//268
f 287//287 312//288 303//275
f 288//263 313//780 312//288
f 314//289 313//780 288//263
f 316//291 315//290 317//292
f 322//295 321//297 320//296
f 326//299 325//301 324//300
f 323//298 327//313 326//299
f 330//303 329//305 328//302
f 332//306 329//305 334//307
f 334//307 336//311 335//309
f 334//307 338//767 337//310
f 336//311 337//310 339//312
f 238//314 236//219 340//315
f 340//315 236//219 234//218
f 231//215 278//257 276//255
f 227//213 228//320 342//318
f 228//320 225//211 343//321
f 343//321 346//345 345//323
f 345//323 346//345 350//326
f 350//326 352//329 351//328
f 352//329 354//343 353//330
f 353//330 354//343 356//331
f 356//331 358//335 357//333
f 360//334 359//336 357//333
f 359//336 360//334 203//189
f 363//338 362//339 358//335
f 362//339 363//338 365//340
f 346//345 223//209 368//346
f 298//280 307//282 216//202
f 308//283 369//348 215//201
f 371//347 370//350 212//198
f 309//284 373//766 371//347
f 217//203 213//199 214//200
f 368//346 220//206 214//200
f 374//351 214//200 211//196
f 365//340 211//196 209//195
f 208//197 376//355 375//353
f 378//354 377//356 375//353
f 206//358 382//361 381//359
f 381//359 383//362 385//363
f 385//363 388//367 387//366
f 388//367 391//370 390//368
f 392//371 395//375 394//372
f 397//374 396//377 394//372
f 397//374 399//446 398//376
f 398//376 399//446 401//378
f 403//380 402//382 400//379
f 403//380 405//385 404//381
f 407//383 406//386 404//381
f 412//388 411//390 410//389
f 410//389 413//391 415//392
f 419//395 418//397 417//396
f 422//400 421//399 420//398
f 421//399 422//400 425//402
f 428//404 427//407 426//405
f 430//406 429//408 426//405
f 429//408 430//406 432//409
f 430//406 434//746 433//411
f 436//412 435//779 432//409
f 438//414 412//388 407//383
f 441//416 440//747 439//415
f 442//417 441//416 438//414
f 444//419 442//417 445//420
f 447//421 446//423 49//45
f 447//421 449//424 448//422
f 449//424 451//789 450//425
f 450//425 451//789 453//426
f 452//427 453//426 455//428
f 457//430 454//429 455//428
f 458//432 457//430 456//431
f 462//435 461//765 458//432
f 458//432 461//765 35//34
f 455//428 453//426 465//438
f 466//439 452//427 454//429
f 453//426 451//789 467//440
f 469//441 468//712 465//438
f 471//442 470//444 469//441
f 45//41 450//425 452//427
f 447//421 472//443 471//442
f 443//418 405//385 403//380
f 471//442 472//443 403//380
f 473//445 475//448 474//447
f 476//449 479//453 478//450
f 481//452 480//464 478//450
f 483//454 481//452 479//453
f 486//456 485//461 484//457
f 484//457 485//461 488//458
f 485//461 417//396 490//462
f 478//450 480//464 489//460
f 492//465 491//463 493//466
f 496//468 492//465 494//467
f 494//467 493//466 497//470
f 498//471 499//472 500//473
f 504//477 506//711 505//478
f 505//478 506//711 507//479
f 508//480 509//481 510//482
f 512//484 510//482 513//485
f 517//488 515//487 513//485
f 517//488 516//489 518//490
f 520//492 519//491 518//490
f 520//492 523//495 522//494
f 523//495 520//492 524//496
f 518//490 527//704 526//497
f 521//493 518//490 525//498
f 528//499 531//502 530//501
f 532//503 531//502 533//504
f 536//507 534//505 535//506
f 540//510 539//693 536//507
f 540//510 537//508 541//511
f 543//513 540//510 542//512
f 545//515 544//514 542//512
f 550//518 549//520 548//519
f 553//523 546//516 542//512
f 554//524 546//516 553//523
f 555//525 553//523 556//526
f 559//528 558//797 555//525
f 560//529 558//797 559//528
f 560//529 561//530 562//531
f 568//535 567//538 566//536
f 564//533 569//821 568//535
f 570//537 566//536 567//538
f 566//536 570//537 574//541
f 574//541 577//545 576//544
f 577//545 579//549 578//546
f 581//547 580//550 578//546
f 579//549 583//610 582//548
f 586//552 585//555 584//551
f 581//547 588//608 587//553
f 586//552 590//605 589//554
f 589//554 590//605 592//556
f 596//558 595//603 594//559
f 592//556 596//558 593//560
f 594//559 595//603 597//561
f 600//564 552//522 598//562
f 543//513 600//564 602//566
f 605//568 604//819 602//566
f 606//569 608//600 607//570
f 610//572 608//600 606//569
f 611//573 610//572 599//563
f 149//141 613//599 610//572
f 612//574 614//575 142//135
f 137//130 145//136 614//575
f 617//577 616//578 137//130
f 621//580 620//790 619//581
f 619//581 620//790 622//582
f 623//583 626//587 625//585
f 623//583 628//588 627//586
f 632//590 631//592 630//591
f 631//592 632//590 633//593
f 638//597 637//734 625//585
f 590//605 639//598 622//582
f 590//605 586//552 633//593
f 643//606 585//555 589//554
f 646//609 645//642 582//548
f 646//609 583//610 647//611
f 651//615 648//612 650//614
f 654//617 653//822 652//616
f 656//618 653//822 654//617
f 656//618 655//619 657//620
f 660//622 659//633 658//621
f 664//625 663//632 660//622
f 667//627 664//625 665//626
f 673//635 672//778 658//621
f 676//638 675//637 657//620
f 678//639 677//739 651//615
f 651//615 111//105 680//641
f 682//643 681//645 645//642
f 684//644 683//737 681//645
f 685//646 686//820 576//544
f 576//544 686//820 687//647
f 687//647 686//820 689//648
f 692//651 690//650 568//535
f 693//653 692//651 691//652
f 692//651 693//653 696//656
f 698//658 697//657 696//656
f 701//660 698//658 699//659
f 704//663 703//665 700//661
f 706//664 705//666 701//660
f 708//668 670//631 705//666
f 490//462 424//403 707//667
f 713//671 712//823 711//672
f 711//672 712//823 715//673
f 717//675 716//677 714//674
f 717//675 719//826 718//676
f 718//676 719//826 721//678
f 720//679 721//678 723//680
f 723//680 533//504 525//498
f 556//526 724//692 723//680
f 720//679 722//681 526//497
f 728//685 726//683 727//684
f 728//685 718//676 720//679
f 718//676 728//685 730//687
f 559//528 717//675 715//673
f 556//526 553//523 541//511
f 543//513 603//567 539//693
f 603//567 736//695 735//694
f 736//695 738//698 737//696
f 736//695 604//819 739//697
f 739//697 741//732 740//699
f 158//150 741//732 739//697
f 735//694 742//701 536//507
f 536//507 742//701 743//700
f 742//701 745//729 744//702
f 743//700 744//702 746//703
f 530//501 746//703 524//496
f 531//502 528//499 525//498
f 747//705 515//487 517//488
f 513//485 727//684 725//682
f 747//705 751//710 750//708
f 513//485 510//482 729//686
f 752//709 508//480 511//483
f 497//470 702//662 699//659
f 499//472 497//470 696//656
f 470//444 399//446 397//374
f 468//712 469//441 397//374
f 396//377 754//715 753//713
f 753//713 754//715 755//714
f 474//447 756//718 755//714
f 755//714 756//718 758//716
f 756//718 477//451 496//468
f 758//716 760//825 759//719
f 759//719 760//825 761//720
f 394//372 753//713 762//721
f 389//369 393//373 762//721
f 465//438 468//712 392//371
f 456//431 463//436 391//370
f 460//434 459//433 763//722
f 764//723 462//435 460//434
f 379//357 764//723 206//358
f 361//337 203//189 201//188
f 204//194 380//360 199//186
f 386//365 196//184 199//186
f 197//185 176//727 766//725
f 196//184 386//365 384//364
f 387//366 389//369 192//180
f 762//721 753//713 186//174
f 184//726 751//710 747//705
f 182//170 747//705 748//706
f 177//167 181//171 748//706
f 191//179 189//177 188//176
f 191//179 179//168 175//165
f 176//727 173//163 170//160
f 169//159 171//162 524//496
f 765//724 766//725 170//160
f 166//728 361//337 765//724
f 745//729 165//156 167//158
f 357//333 359//336 164//155
f 355//332 357//333 162//152
f 767//730 740//699 159//151
f 157//148 353//330 355//332
f 741//732 156//149 159//151
f 367//344 154//146 151//142
f 347//324 148//139 146//138
f 768//733 613//599 149//141
f 132//123 269//250 271//251
f 267//248 269//250 132//123
f 769//736 126//122 129//121
f 128//120 263//244 264//246
f 256//237 254//236 123//115
f 120//113 636//596 630//591
f 117//110 120//113 683//737
f 677//739 113//106 111//105
f 75//740 88//81 89//83
f 89//83 90//85 103//96
f 7//744 80//74 79//73
f 75//740 436//412 433//411
f 434//746 71//67 73//69
f 411//390 69//64 67//63
f 62//58 66//61 70//65
f 58//748 59//54 440//747
f 57//53 52//50 53//47
f 774//749 53//47 775//750
f 777//752 13//12 774//749
f 777//752 778//753 779//754
f 26//23 780//755 779//754
f 783//757 782//758 781//756
f 784//759 782//758 785//760
f 783//757 786//763 785//760
f 778//753 787//761 783//757
f 788//762 787//761 776//751
f 50//49 58//748 444//419
f 46//44 47//46 446//423
f 45//41 46//44 448//422
f 786//763 788//762 44//40
f 39//36 41//42 45//41
f 786//763 42//38 40//37
f 30//26 784//759 38//35
f 36//33 39//36 466//439
f 36//33 464//437 457//430
f 34//32 461//765 462//435
f 379//357 377//356 32//31
f 31//29 378//354 372//349
f 28//27 31//29 371//347
f 309//284 310//285 24//24
f 25//22 26//23 781//756
f 311//286 339//312 21//19
f 20//18 780//755 26//23
f 339//312 337//310 19//17
f 20//18 18//15 777//752
f 330//303 15//14 17//16
f 13//12 11//9 57//53
f 11//9 12//10 56//52
f 12//10 6//5 789//769
f 6//5 7//744 773//745
f 2//2 4//4 327//313
f 330//303 331//304 16//13
f 3//1 1//3 80//74
f 18//15 14//11 13//12
f 63//56 773//745 79//73
f 63//56 60//55 55//770
f 48//43 43//39 44//40
f 2//2 86//742 81//75
f 78//71 72//66 65//60
f 790//771 85//78 772//743
f 312//288 313//780 333//308
f 440//747 61//57 70//65
f 95//88 102//95 103//96
f 434//746 430//406 427//407
f 792//773 653//822 656//618
f 794//775 792//773 793//774
f 796//777 793//774 672//778
f 771//741 795//776 796//777
f 426//405 429//408 673//635
f 313//780 314//289 332//306
f 303//275 312//288 335//309
f 334//307 329//305 330//303
f 311//286 304//277 301//276
f 30//26 37//764 33//30
f 322//295 318//293 250//232
f 317//292 315//290 288//263
f 233//216 293//267 295//269
f 790//771 94//86 84//79
f 256//237 124//116 119//109
f 277//256 281//259 141//133
f 283//260 275//254 141//133
f 286//262 291//266 235//221
f 332//306 314//289 316//291
f 319//294 324//300 328//302
f 218//204 219//205 222//208
f 297//272 218//204 226//212
f 372//349 376//355 208//197
f 270//249 341//316 340//315
f 231//215 227//213 280//319
f 631//592 634//594 681//645
f 9//8 16//13 331//304
f 5//6 9//8 326//299
f 338//767 17//16 19//17
f 783//757 787//761 788//762
f 377//356 378//354 31//29
f 449//424 471//442 467//440
f 223//209 221//207 220//206
f 71//67 434//746 791//772
f 209//195 205//191 202//192
f 404//381 406//386 483//454
f 396//377 398//376 474//447
f 384//364 387//366 193//181
f 682//643 680//641 111//105
f 768//733 150//143 152//145
f 661//623 675//637 799//791
f 801//792 800//793 662//624
f 804//795 803//796 802//794
f 558//797 560//529 806//798
f 808//800 807//801 805//799
f 811//803 810//805 809//802
f 811//803 813//809 812//804
f 814//806 813//809 811//803
f 814//806 817//811 816//808
f 814//806 819//812 818//810
f 820//813 819//812 821//814
f 817//811 644//607 642//604
f 810//805 550//518 554//524
f 808//800 815//807 811//803
f 821//814 815//807 808//800
f 163//154 165//156 745//729
f 761//720 505//478 508//480
f 172//161 174//164 177//167
f 245//229 250//232 317//292
f 798//784 824//816 97//89
f 790//771 321//297 322//295
f 336//311 305//279 302//278
f 83//77 88//81 75//740
f 261//242 260//241 96//90
f 261//242 249//231 248//228
f 239//222 341//316 270//249
f 436//412 89//83 771//741
f 637//734 638//597 129//121
f 100//92 770//738 116//107
f 684//644 682//643 112//104
f 621//580 641//602 596//558
f 105//98 108//100 677//739
f 106//99 105//98 678//639
f 284//786 285//261 268//247
f 340//315 282//317 274//252
f 797//782 251//781 247//230
f 824//816 797//782 249//231
f 295//269 296//271 226//212
f 263//244 128//120 123//115
f 127//119 264//246 267//248
f 271//251 273//253 283//260
f 262//243 257//239 119//109
f 279//258 348//325 146//138
f 429//408 431//410 672//778
f 125//118 769//736 627//586
f 121//117 125//118 629//589
f 627//586 769//736 638//597
f 133//126 140//131 616//578
f 637//734 133//126 618//579
f 577//545 803//796 679//640
f 825//818 822//815 808//800
f 552//522 600//564 543//513
f 259//240 262//243 100//92
f 280//319 342//318 344//322
f 363//338 366//342 374//351
f 421//399 424//403 490//462
f 197//185 194//182 175//165
f 681//645 634//594 588//608
f 623//583 624//584 635//595
f 595//603 641//602 611//573
f 604//819 736//695 603//567
f 669//630 666//628 571//539
f 504//477 694//654 710//670
f 524//496 520//492 521//493
f 643//606 644//607 817//811
f 593//560 551//521 549//520
f 642//604 593//560 812//804
f 685//646 820//813 689//648
f 821//814 819//812 814//806
f 549//520 550//518 810//805
f 565//534 575//543 687//647
f 563//532 565//534 688//649
f 563//532 825//818 806//798
f 241//785 243//225 317//292
f 235//221 291//266 293//267
f 343//321 225//211 223//209
f 374//351 366//342 352//329
f 362//339 364//341 202//192
f 148//139 347//324 345//323
f 367//344 351//328 353//330
f 359//336 361//337 166//728
f 641//602 621//580 615//576
f 613//599 768//733 607//570
f 643//606 818//810 820//813
f 685//646 580//550 584//551
f 598//562 552//522 548//519
f 604//819 605//568 609//571
f 735//694 737//696 745//729
f 103//96 104//97 106//99
f 432//409 435//779 796//777
f 653//822 792//773 678//639
f 672//778 793//774 656//618
f 671//634 663//632 664//625
f 670//631 708//668 674//636
f 650//614 649//613 679//640
f 654//617 650//614 804//795
f 642//604 644//607 589//554
f 675//637 676//638 804//795
f 802//794 803//796 577//545
f 665//626 800//793 572//540
f 712//823 713//671 569//821
f 68//62 791//772 826//824
f 67//63 826//824 415//392
f 411//390 412//388 439//415
f 409//387 416//394 486//456
f 404//381 482//455 476//449
f 437//413 826//824 791//772
f 437//413 423//401 420//398
f 485//461 486//456 414//393
f 475//448 477//451 756//718
f 425//402 426//405 674//636
f 424//403 425//402 708//668
f 668//629 698//658 701//660
f 488//458 709//669 703//665
f 495//469 501//474 761//720
f 826//824 437//413 419//395
f 491//463 487//459 704//663
f 477//451 478//450 492//465
f 186//174 755//714 757//717
f 670//631 667//627 701//660
f 704//663 702//662 497//470
f 494//467 498//471 501//474
f 184//726 759//719 752//709
f 574//541 570//537 572//540
f 554//524 550//518 545//515
f 690//650 692//651 697//657
f 569//821 713//671 691//652
f 557//527 556//526 721//678
f 693//653 694//654 504//477
f 509//481 732//689 730//687
f 366//342 363//338 356//331
f 765//724 201//188 198//187
f 496//468 495//469 760//825
f 185//172 757//717 759//719
f 740//699 767//730 737//696
f 668//629 669//630 697//657
f 167//158 169//159 746//703
f 501//474 502//475 505//478
f 522//494 748//706 517//488
f 821//814 822//815 688//649
f 555//525 558//797 805//799
f 717//675 559//528 557//527
f 723//680 724//692 535//506
f 507//479 733//690 711//672
f 731//688 732//689 507//479
