# Blender v3.1.2 OBJ File: 'egg.blend'
# www.blender.org
o Sphere
v 0.000000 -305.460724 -39.018066
v 0.000000 -286.915955 -76.536690
v 0.000000 -256.800842 -111.114052
v 0.000000 -216.272705 -141.421356
v 0.000000 -166.889069 -166.293915
v 0.000000 -110.547661 -184.775894
v 0.000000 -49.413689 -196.157043
v 0.000000 111.114037 -166.293930
v 0.000000 141.421356 -141.421356
v 0.000000 166.293930 -111.114037
v -7.612051 -305.460724 -38.268341
v -14.931572 -286.915955 -75.066063
v -21.677280 -256.800842 -108.979019
v -27.589941 -216.272705 -138.703979
v -32.442337 -166.889069 -163.098618
v -36.047993 -110.547661 -181.225479
v -38.268345 -49.413689 -192.387939
v -39.018066 14.163571 -196.157043
v -38.268345 39.018066 -192.387939
v -36.047997 76.536682 -181.225494
v -32.442341 111.114037 -163.098633
v -27.589941 141.421356 -138.703979
v -21.677277 166.293930 -108.979012
v -14.931572 184.775894 -75.066063
v -7.612051 196.157059 -38.268341
v -14.931573 -305.460724 -36.047989
v -29.289330 -286.915955 -70.710686
v -42.521511 -256.800842 -102.655983
v -54.119617 -216.272705 -130.656296
v -63.637932 -166.889069 -153.635529
v -70.710686 -110.547661 -170.710678
v -75.066063 -49.413689 -181.225479
v -76.536697 14.163571 -184.775894
v -75.066063 39.018066 -181.225479
v -70.710686 76.536682 -170.710678
v -63.637943 111.114037 -153.635544
v -54.119617 141.421356 -130.656296
v -42.521507 166.293930 -102.655983
v -29.289331 184.775894 -70.710686
v -14.931572 196.157059 -36.047985
v -21.677282 -305.460724 -32.442329
v -42.521515 -286.915955 -63.637932
v -61.731667 -256.800842 -92.387939
v -78.569504 -216.272705 -117.587555
v -92.387947 -166.889069 -138.268311
v -102.655998 -110.547661 -153.635544
v -108.979019 -49.413689 -163.098618
v -111.114052 14.163571 -166.293900
v -108.979019 39.018066 -163.098618
v -102.656006 76.536682 -153.635544
v -92.387970 111.114037 -138.268326
v -78.569504 141.421356 -117.587555
v -61.731659 166.293930 -92.387939
v -42.521519 184.775894 -63.637936
v -21.677280 196.157059 -32.442329
v -27.589947 -305.460724 -27.589931
v -54.119629 -286.915955 -54.119606
v -78.569504 -256.800842 -78.569481
v -100.000000 -216.272705 -99.999992
v -117.587540 -166.889069 -117.587532
v -130.656296 -110.547661 -130.656281
v -138.703979 -49.413689 -138.703964
v -141.421356 14.163571 -141.421326
v -138.703979 39.018066 -138.703964
v -130.656311 76.536682 -130.656296
v -117.587570 111.114037 -117.587532
v -100.000000 141.421356 -99.999992
v -78.569504 166.293930 -78.569481
v -54.119629 184.775894 -54.119610
v -27.589945 196.157059 -27.589930
v -32.442345 -305.460724 -21.677267
v -63.637955 -286.915955 -42.521496
v -92.387962 -256.800842 -61.731636
v -117.587555 -216.272705 -78.569481
v -138.268326 -166.889069 -92.387924
v -153.635544 -110.547661 -102.655983
v -163.098618 -49.413689 -108.978996
v -166.293915 14.163571 -111.113998
v -163.098618 39.018066 -108.978996
v -153.635574 76.536682 -102.655983
v -138.268341 111.114037 -92.387924
v -117.587555 141.421356 -78.569481
v -92.387955 166.293930 -61.731636
v -63.637955 184.775894 -42.521503
v -32.442345 196.157059 -21.677265
v -36.048000 -305.460724 -14.931557
v -70.710701 -286.915955 -29.289309
v -102.655998 -256.800842 -42.521484
v -130.656296 -216.272705 -54.119598
v -153.635529 -166.889069 -63.637901
v -170.710663 -110.547661 -70.710670
v -181.225464 -49.413689 -75.066032
v -184.775879 14.163571 -76.536644
v -181.225464 39.018066 -75.066032
v -170.710693 76.536682 -70.710663
v -153.635544 111.114037 -63.637901
v -130.656296 141.421356 -54.119598
v -102.655998 166.293930 -42.521484
v -70.710709 184.775894 -29.289314
v -36.047997 196.157059 -14.931554
v -38.268353 -305.460724 -7.612035
v -75.066078 -286.915955 -14.931547
v -108.979012 -256.800842 -21.677252
v -138.703979 -216.272705 -27.589930
v -163.098602 -166.889069 -32.442314
v -181.225464 -110.547661 -36.047985
v -192.387924 -49.413689 -38.268322
v -196.157013 14.163571 -39.018024
v -192.387924 39.018066 -38.268322
v -181.225510 76.536682 -36.047966
v -163.098602 111.114037 -32.442310
v -138.703979 141.421356 -27.589930
v -108.979012 166.293930 -21.677252
v -75.066086 184.775894 -14.931552
v -38.268349 196.157059 -7.612032
v -39.018074 -305.460724 0.000014
v -76.536705 -286.915955 0.000024
v -111.114029 -256.800842 0.000023
v -141.421341 -216.272705 0.000009
v -166.293884 -166.889069 0.000018
v -184.775879 -110.547661 0.000003
v -196.157028 -49.413689 0.000018
v -199.999939 14.163571 0.000033
v -196.157028 39.018066 0.000018
v -184.775909 76.536682 0.000030
v -166.293900 111.114037 0.000021
v -141.421341 141.421356 0.000009
v -111.114029 166.293930 0.000023
v -76.536713 184.775894 0.000020
v -39.018070 196.157059 0.000015
v -38.268353 -305.460724 7.612062
v -75.066071 -286.915955 14.931594
v -108.978996 -256.800842 21.677294
v -138.703964 -216.272705 27.589945
v -163.098587 -166.889069 32.442345
v -181.225449 -110.547661 36.047989
v -192.387909 -49.413689 38.268356
v -196.156982 14.163571 39.018085
v -192.387909 39.018066 38.268356
v -181.225494 76.536682 36.048023
v -163.098602 111.114037 32.442352
v -138.703964 141.421356 27.589945
v -108.978996 166.293930 21.677294
v -75.066086 184.775894 14.931592
v -38.268349 196.157059 7.612063
v -36.047997 -305.460724 14.931583
v -70.710693 -286.915955 29.289352
v -102.655960 -256.800842 42.521519
v -130.656281 -216.272705 54.119610
v -153.635498 -166.889069 63.637932
v -170.710648 -110.547661 70.710670
v -181.225449 -49.413689 75.066063
v -184.775818 14.163571 76.536690
v -181.225449 39.018066 75.066063
v -170.710678 76.536682 70.710709
v -153.635513 111.114037 63.637936
v -130.656281 141.421356 54.119610
v -102.655960 166.293930 42.521519
v -70.710701 184.775894 29.289352
v -36.047997 196.157059 14.931583
v -32.442341 -305.460724 21.677292
v -63.637943 -286.915955 42.521538
v -92.387924 -256.800842 61.731659
v -117.587540 -216.272705 78.569496
v -138.268295 -166.889069 92.387939
v -153.635513 -110.547661 102.655983
v -163.098587 -49.413689 108.979012
v -166.293823 14.163571 111.114037
v -163.098587 39.018066 108.979012
v -153.635544 76.536682 102.656021
v -138.268311 111.114037 92.387947
v -117.587540 141.421356 78.569496
v -92.387924 166.293930 61.731659
v -63.637947 184.775894 42.521538
v -32.442337 196.157059 21.677292
v -27.589941 -305.460724 27.589956
v -54.119617 -286.915955 54.119648
v -78.569466 -256.800842 78.569496
v -99.999992 -216.272705 100.000000
v -117.587509 -166.889069 117.587532
v -130.656265 -110.547661 130.656281
v -138.703949 -49.413689 138.703964
v -141.421249 14.163571 141.421326
v -138.703949 39.018066 138.703964
v -130.656281 76.536682 130.656311
v -117.587517 111.114037 117.587540
v -99.999992 141.421356 100.000000
v -78.569466 166.293930 78.569496
v -54.119621 184.775894 54.119648
v -27.589937 196.157059 27.589952
v -21.677279 -305.460724 32.442356
v -42.521511 -286.915955 63.637959
v -61.731632 -256.800842 92.387947
v -78.569489 -216.272705 117.587555
v -92.387917 -166.889069 138.268311
v -102.655968 -110.547661 153.635529
v -108.978973 -49.413689 163.098602
v -111.113945 14.163571 166.293869
v -108.978973 39.018066 163.098602
v -102.655968 76.536682 153.635559
v -92.387924 111.114037 138.268311
v -78.569489 141.421356 117.587555
v -61.731632 166.293930 92.387947
v -42.521515 184.775894 63.637959
v -21.677275 196.157059 32.442348
v -14.931568 -305.460724 36.048012
v -29.289324 -286.915955 70.710709
v -42.521484 -256.800842 102.655983
v -54.119610 -216.272705 130.656296
v -63.637901 -166.889069 153.635498
v -70.710663 -110.547661 170.710648
v -75.066010 -49.413689 181.225449
v -76.536598 14.163571 184.775833
v -75.066010 39.018066 181.225449
v -70.710655 76.536682 170.710678
v -63.637905 111.114037 153.635513
v -54.119610 141.421356 130.656296
v -42.521484 166.293930 102.655983
v -29.289330 184.775894 70.710709
v -14.931565 196.157059 36.048004
v -7.612047 -305.460724 38.268360
v -14.931564 -286.915955 75.066086
v -21.677258 -256.800842 108.979012
v -27.589945 -216.272705 138.703979
v -32.442318 -166.889069 163.098572
v -36.047985 -110.547661 181.225449
v -38.268314 -49.413689 192.387894
v -39.017990 14.163571 196.156952
v -38.268314 39.018066 192.387894
v -36.047966 76.536682 181.225494
v -32.442318 111.114037 163.098587
v -27.589945 141.421356 138.703979
v -21.677258 166.293930 108.979012
v -14.931570 184.775894 75.066086
v -7.612046 196.157059 38.268356
v -0.000000 -305.460724 39.018082
v 0.000006 -286.915955 76.536713
v 0.000013 -256.800842 111.114029
v -0.000009 -216.272705 141.421341
v 0.000003 -166.889069 166.293854
v -0.000003 -110.547661 184.775864
v 0.000014 -49.413689 196.156998
v 0.000053 14.163571 199.999878
v 0.000014 39.018066 196.156998
v 0.000023 76.536682 184.775894
v 0.000009 111.114037 166.293869
v -0.000009 141.421356 141.421341
v 0.000013 166.293930 111.114029
v -0.000000 184.775894 76.536713
v 0.000000 196.157059 39.018078
v 7.612046 -305.460724 38.268360
v 14.931575 -286.915955 75.066078
v 21.677280 -256.800842 108.978996
v 27.589924 -216.272705 138.703964
v 32.442322 -166.889069 163.098557
v 36.047977 -110.547661 181.225449
v 38.268341 -49.413689 192.387878
v 39.018093 14.163571 196.156921
v 38.268341 39.018066 192.387878
v 36.048012 76.536682 181.225479
v 32.442329 111.114037 163.098572
v 27.589924 141.421356 138.703964
v 21.677280 166.293930 108.978996
v 14.931568 184.775894 75.066078
v 7.612045 196.157059 38.268356
v 14.931565 -305.460724 36.048008
v 29.289331 -286.915955 70.710693
v 42.521503 -256.800842 102.655960
v 54.119587 -216.272705 130.656281
v 63.637894 -166.889069 153.635483
v 70.710648 -110.547661 170.710632
v 75.066032 -49.413689 181.225418
v 76.536682 14.163571 184.775757
v 75.066032 39.018066 181.225418
v 70.710686 76.536682 170.710663
v 63.637905 111.114037 153.635498
v 54.119587 141.421356 130.656281
v 42.521503 166.293930 102.655960
v 29.289326 184.775894 70.710693
v 14.931564 196.157059 36.048000
v 21.677273 -305.460724 32.442348
v 42.521515 -286.915955 63.637943
v 61.731644 -256.800842 92.387917
v 78.569466 -216.272705 117.587540
v 92.387901 -166.889069 138.268295
v 102.655960 -110.547661 153.635513
v 108.978989 -49.413689 163.098557
v 111.114014 14.163571 166.293762
v 108.978989 39.018066 163.098557
v 102.655998 76.536682 153.635529
v 92.387909 111.114037 138.268311
v 78.569466 141.421356 117.587540
v 61.731644 166.293930 92.387917
v 42.521511 184.775894 63.637943
v 21.677271 196.157059 32.442345
v 27.589935 -305.460724 27.589951
v 54.119617 -286.915955 54.119617
v 78.569466 -256.800842 78.569458
v 99.999962 -216.272705 99.999985
v 117.587494 -166.889069 117.587517
v 130.656250 -110.547661 130.656265
v 138.703934 -49.413689 138.703918
v 141.421295 14.163571 141.421204
v 138.703934 39.018066 138.703918
v 130.656296 76.536682 130.656265
v 117.587509 111.114037 117.587517
v 99.999962 141.421356 99.999985
v 78.569466 166.293930 78.569458
v 54.119610 184.775894 54.119617
v 27.589931 196.157059 27.589947
v 32.442329 -305.460724 21.677288
v 63.637932 -286.915955 42.521511
v 92.387909 -256.800842 61.731625
v 117.587517 -216.272705 78.569489
v 138.268265 -166.889069 92.387924
v 153.635498 -110.547661 102.655968
v 163.098557 -49.413689 108.978966
v 166.293823 14.163571 111.113892
v 163.098557 39.018066 108.978966
v 153.635544 76.536682 102.655960
v 138.268280 111.114037 92.387924
v 117.587517 141.421356 78.569489
v 92.387909 166.293930 61.731625
v 63.637924 184.775894 42.521511
v 32.442329 196.157059 21.677286
v 0.000016 -311.722534 0.000024
v 36.047985 -305.460724 14.931581
v 70.710670 -286.915955 29.289330
v 102.655937 -256.800842 42.521484
v 130.656250 -216.272705 54.119610
v 153.635468 -166.889069 63.637913
v 170.710617 -110.547661 70.710663
v 181.225403 -49.413689 75.066010
v 184.775772 14.163571 76.536545
v 181.225403 39.018066 75.066010
v 170.710663 76.536682 70.710648
v 153.635483 111.114037 63.637913
v 130.656250 141.421356 54.119610
v 102.655937 166.293930 42.521484
v 70.710663 184.775894 29.289330
v 36.047981 196.157059 14.931578
v 38.268337 -305.460724 7.612060
v 75.066040 -286.915955 14.931575
v 108.978966 -256.800842 21.677263
v 138.703949 -216.272705 27.589947
v 163.098557 -166.889069 32.442329
v 181.225433 -110.547661 36.047981
v 192.387848 -49.413689 38.268311
v 196.156891 14.163571 39.017952
v 192.387848 39.018066 38.268311
v 181.225449 76.536682 36.047962
v 163.098557 111.114037 32.442329
v 138.703949 141.421356 27.589947
v 108.978966 166.293930 21.677263
v 75.066032 184.775894 14.931576
v 38.268330 196.157059 7.612059
v 39.018055 -305.460724 0.000014
v 76.536667 -286.915955 0.000009
v 111.113976 -256.800842 -0.000001
v 141.421310 -216.272705 0.000018
v 166.293839 -166.889069 0.000009
v 184.775848 -110.547661 0.000000
v 196.156952 -49.413689 -0.000015
v 199.999817 14.163571 -0.000077
v 196.156952 39.018066 -0.000015
v 184.775864 76.536682 -0.000024
v 166.293839 111.114037 0.000006
v 141.421310 141.421356 0.000018
v 111.113976 166.293930 -0.000001
v 76.536659 184.775894 0.000012
v 39.018051 196.157059 0.000014
v 38.268333 -305.460724 -7.612031
v 75.066032 -286.915955 -14.931554
v 108.978951 -256.800842 -21.677263
v 138.703934 -216.272705 -27.589911
v 163.098541 -166.889069 -32.442310
v 181.225418 -110.547661 -36.047977
v 192.387848 -49.413689 -38.268341
v 196.156845 14.163571 -39.018105
v 192.387848 39.018066 -38.268341
v 181.225449 76.536682 -36.048008
v 163.098541 111.114037 -32.442314
v 138.703934 141.421356 -27.589911
v 108.978951 166.293930 -21.677263
v 75.066025 184.775894 -14.931551
v 38.268326 196.157059 -7.612030
v 36.047981 -305.460724 -14.931549
v 70.710648 -286.915955 -29.289305
v 102.655922 -256.800842 -42.521477
v 130.656250 -216.272705 -54.119576
v 153.635468 -166.889069 -63.637890
v 170.710617 -110.547661 -70.710648
v 181.225388 -49.413689 -75.066032
v 184.775696 14.163571 -76.536682
v 181.225388 39.018066 -75.066032
v 170.710617 76.536682 -70.710686
v 153.635468 111.114037 -63.637890
v 130.656250 141.421356 -54.119576
v 102.655922 166.293930 -42.521477
v 70.710648 184.775894 -29.289299
v 36.047974 196.157059 -14.931547
v 32.442322 -305.460724 -21.677256
v 63.637894 -286.915955 -42.521484
v 92.387878 -256.800842 -61.731613
v 117.587517 -216.272705 -78.569450
v 138.268265 -166.889069 -92.387894
v 153.635483 -110.547661 -102.655945
v 163.098526 -49.413689 -108.978973
v 166.293701 14.163571 -111.113998
v 163.098526 39.018066 -108.978973
v 153.635483 76.536682 -102.655983
v 138.268265 111.114037 -92.387894
v 117.587517 141.421356 -78.569450
v 92.387878 166.293930 -61.731613
v 63.637894 184.775894 -42.521477
v 32.442318 196.157059 -21.677252
v 27.589924 -305.460724 -27.589916
v 54.119576 -286.915955 -54.119579
v 78.569420 -256.800842 -78.569435
v 99.999962 -216.272705 -99.999947
v 117.587494 -166.889069 -117.587486
v 130.656250 -110.547661 -130.656250
v 138.703888 -49.413689 -138.703918
v 141.421143 14.163571 -141.421265
v 138.703888 39.018066 -138.703918
v 130.656250 76.536682 -130.656265
v 117.587494 111.114037 -117.587486
v 99.999962 141.421356 -99.999947
v 78.569420 166.293930 -78.569435
v 54.119576 184.775894 -54.119576
v 27.589920 196.157059 -27.589911
v 21.677261 -305.460724 -32.442310
v 42.521473 -286.915955 -63.637894
v 61.731583 -256.800842 -92.387878
v 78.569458 -216.272705 -117.587494
v 92.387894 -166.889069 -138.268250
v 102.655945 -110.547661 -153.635483
v 108.978943 -49.413689 -163.098557
v 111.113846 14.163571 -166.293793
v 108.978943 39.018066 -163.098557
v 102.655945 76.536682 -153.635513
v 92.387894 111.114037 -138.268250
v 78.569458 141.421356 -117.587494
v 61.731583 166.293930 -92.387878
v 42.521473 184.775894 -63.637890
v 21.677259 196.157059 -32.442303
v 14.931554 -305.460724 -36.047962
v 29.289293 -286.915955 -70.710640
v 42.521442 -256.800842 -102.655899
v 54.119579 -216.272705 -130.656235
v 63.637882 -166.889069 -153.635437
v 70.710632 -110.547661 -170.710617
v 75.065979 -49.413689 -181.225403
v 76.536507 14.163571 -184.775726
v 75.065979 39.018066 -181.225403
v 70.710632 76.536682 -170.710632
v 63.637882 111.114037 -153.635437
v 54.119579 141.421356 -130.656235
v 42.521442 166.293930 -102.655899
v 29.289297 184.775894 -70.710632
v 14.931554 196.157059 -36.047955
v 7.612035 -305.460724 -38.268311
v 14.931541 -286.915955 -75.066010
v 21.677229 -256.800842 -108.978912
v 27.589920 -216.272705 -138.703918
v 32.442307 -166.889069 -163.098511
v 36.047955 -110.547661 -181.225403
v 38.268280 -49.413689 -192.387848
v 39.017914 14.163571 -196.156830
v 38.268280 39.018066 -192.387848
v 36.047943 76.536682 -181.225433
v 32.442307 111.114037 -163.098511
v 27.589920 141.421356 -138.703918
v 21.677229 166.293930 -108.978912
v 14.931546 184.775894 -75.066010
v 7.612037 196.157059 -38.268303
v -0.000108 14.163571 -199.999756
v -0.000045 39.018066 -196.156937
v -0.000039 76.536682 -184.775848
v -0.000014 184.775894 -76.536629
v -0.000006 196.157059 -39.018024
v 0.000000 200.000000 0.000017
vt 0.750000 0.750000
vt 0.718750 0.812500
vt 0.718750 0.750000
vt 0.750000 0.250000
vt 0.718750 0.312500
vt 0.718750 0.250000
vt 0.718750 0.687500
vt 0.750000 0.687500
vt 0.718750 0.187500
vt 0.750000 0.187500
vt 0.718750 0.625000
vt 0.750000 0.625000
vt 0.718750 0.125000
vt 0.750000 0.125000
vt 0.718750 0.562500
vt 0.750000 0.562500
vt 0.718750 0.062500
vt 0.750000 0.062500
vt 0.750000 0.500000
vt 0.718750 0.500000
vt 0.750000 0.937500
vt 0.734375 1.000000
vt 0.718750 0.937500
vt 0.734375 0.000000
vt 0.718750 0.437500
vt 0.750000 0.437500
vt 0.750000 0.875000
vt 0.718750 0.875000
vt 0.718750 0.375000
vt 0.750000 0.375000
vt 0.750000 0.812500
vt 0.750000 0.312500
vt 0.687500 0.875000
vt 0.687500 0.812500
vt 0.687500 0.312500
vt 0.687500 0.750000
vt 0.687500 0.250000
vt 0.687500 0.687500
vt 0.687500 0.187500
vt 0.687500 0.625000
vt 0.687500 0.125000
vt 0.687500 0.562500
vt 0.687500 0.062500
vt 0.687500 0.500000
vt 0.703125 1.000000
vt 0.687500 0.937500
vt 0.703125 0.000000
vt 0.687500 0.437500
vt 0.687500 0.375000
vt 0.656250 0.562500
vt 0.656250 0.062500
vt 0.656250 0.500000
vt 0.671875 1.000000
vt 0.656250 0.937500
vt 0.671875 0.000000
vt 0.656250 0.437500
vt 0.656250 0.875000
vt 0.656250 0.375000
vt 0.656250 0.812500
vt 0.656250 0.312500
vt 0.656250 0.750000
vt 0.656250 0.250000
vt 0.656250 0.687500
vt 0.656250 0.187500
vt 0.656250 0.625000
vt 0.656250 0.125000
vt 0.625000 0.375000
vt 0.625000 0.312500
vt 0.625000 0.750000
vt 0.625000 0.250000
vt 0.625000 0.687500
vt 0.625000 0.187500
vt 0.625000 0.625000
vt 0.625000 0.125000
vt 0.625000 0.562500
vt 0.625000 0.062500
vt 0.625000 0.500000
vt 0.640625 1.000000
vt 0.625000 0.937500
vt 0.640625 0.000000
vt 0.625000 0.437500
vt 0.625000 0.875000
vt 0.625000 0.812500
vt 0.593750 0.062500
vt 0.593750 0.500000
vt 0.609375 1.000000
vt 0.593750 0.937500
vt 0.609375 0.000000
vt 0.593750 0.437500
vt 0.593750 0.875000
vt 0.593750 0.375000
vt 0.593750 0.812500
vt 0.593750 0.312500
vt 0.593750 0.750000
vt 0.593750 0.250000
vt 0.593750 0.687500
vt 0.593750 0.187500
vt 0.593750 0.625000
vt 0.593750 0.125000
vt 0.593750 0.562500
vt 0.562500 0.750000
vt 0.562500 0.250000
vt 0.562500 0.687500
vt 0.562500 0.187500
vt 0.562500 0.625000
vt 0.562500 0.125000
vt 0.562500 0.562500
vt 0.562500 0.062500
vt 0.562500 0.500000
vt 0.578125 1.000000
vt 0.562500 0.937500
vt 0.578125 0.000000
vt 0.562500 0.437500
vt 0.562500 0.875000
vt 0.562500 0.375000
vt 0.562500 0.812500
vt 0.562500 0.312500
vt 0.531250 0.562500
vt 0.531250 0.500000
vt 0.546875 1.000000
vt 0.531250 0.937500
vt 0.546875 0.000000
vt 0.531250 0.062500
vt 0.531250 0.437500
vt 0.531250 0.875000
vt 0.531250 0.375000
vt 0.531250 0.812500
vt 0.531250 0.312500
vt 0.531250 0.750000
vt 0.531250 0.250000
vt 0.531250 0.687500
vt 0.531250 0.187500
vt 0.531250 0.625000
vt 0.531250 0.125000
vt 0.500000 0.250000
vt 0.500000 0.687500
vt 0.500000 0.187500
vt 0.500000 0.625000
vt 0.500000 0.125000
vt 0.500000 0.562500
vt 0.500000 0.062500
vt 0.500000 0.500000
vt 0.515625 1.000000
vt 0.500000 0.937500
vt 0.515625 0.000000
vt 0.500000 0.437500
vt 0.500000 0.875000
vt 0.500000 0.375000
vt 0.500000 0.812500
vt 0.500000 0.312500
vt 0.500000 0.750000
vt 0.484375 0.000000
vt 0.468750 0.062500
vt 0.468750 0.437500
vt 0.468750 0.875000
vt 0.468750 0.375000
vt 0.468750 0.812500
vt 0.468750 0.312500
vt 0.468750 0.750000
vt 0.468750 0.250000
vt 0.468750 0.687500
vt 0.468750 0.187500
vt 0.468750 0.625000
vt 0.468750 0.125000
vt 0.468750 0.562500
vt 0.468750 0.500000
vt 0.484375 1.000000
vt 0.468750 0.937500
vt 0.437500 0.250000
vt 0.437500 0.187500
vt 0.437500 0.625000
vt 0.437500 0.125000
vt 0.437500 0.562500
vt 0.437500 0.062500
vt 0.437500 0.500000
vt 0.453125 1.000000
vt 0.437500 0.937500
vt 0.453125 0.000000
vt 0.437500 0.437500
vt 0.437500 0.875000
vt 0.437500 0.375000
vt 0.437500 0.812500
vt 0.437500 0.312500
vt 0.437500 0.750000
vt 0.437500 0.687500
vt 0.406250 0.937500
vt 0.406250 0.875000
vt 0.406250 0.437500
vt 0.406250 0.375000
vt 0.406250 0.812500
vt 0.406250 0.312500
vt 0.406250 0.750000
vt 0.406250 0.250000
vt 0.406250 0.687500
vt 0.406250 0.187500
vt 0.406250 0.625000
vt 0.406250 0.125000
vt 0.406250 0.562500
vt 0.406250 0.062500
vt 0.406250 0.500000
vt 0.421875 1.000000
vt 0.421875 0.000000
vt 0.375000 0.687500
vt 0.375000 0.625000
vt 0.375000 0.125000
vt 0.375000 0.562500
vt 0.375000 0.062500
vt 0.375000 0.500000
vt 0.390625 1.000000
vt 0.375000 0.937500
vt 0.390625 0.000000
vt 0.375000 0.437500
vt 0.375000 0.875000
vt 0.375000 0.375000
vt 0.375000 0.812500
vt 0.375000 0.312500
vt 0.375000 0.750000
vt 0.375000 0.250000
vt 0.375000 0.187500
vt 0.343750 0.375000
vt 0.343750 0.875000
vt 0.343750 0.812500
vt 0.343750 0.312500
vt 0.343750 0.750000
vt 0.343750 0.250000
vt 0.343750 0.687500
vt 0.343750 0.187500
vt 0.343750 0.625000
vt 0.343750 0.125000
vt 0.343750 0.562500
vt 0.343750 0.062500
vt 0.343750 0.500000
vt 0.359375 1.000000
vt 0.343750 0.937500
vt 0.359375 0.000000
vt 0.343750 0.437500
vt 0.312500 0.125000
vt 0.312500 0.625000
vt 0.312500 0.562500
vt 0.312500 0.062500
vt 0.312500 0.500000
vt 0.328125 1.000000
vt 0.312500 0.937500
vt 0.328125 0.000000
vt 0.312500 0.437500
vt 0.312500 0.875000
vt 0.312500 0.375000
vt 0.312500 0.812500
vt 0.312500 0.312500
vt 0.312500 0.750000
vt 0.312500 0.250000
vt 0.312500 0.687500
vt 0.312500 0.187500
vt 0.281250 0.875000
vt 0.281250 0.812500
vt 0.281250 0.312500
vt 0.281250 0.750000
vt 0.281250 0.250000
vt 0.281250 0.687500
vt 0.281250 0.187500
vt 0.281250 0.625000
vt 0.281250 0.125000
vt 0.281250 0.562500
vt 0.281250 0.062500
vt 0.281250 0.500000
vt 0.296875 1.000000
vt 0.281250 0.937500
vt 0.296875 0.000000
vt 0.281250 0.437500
vt 0.281250 0.375000
vt 0.250000 0.625000
vt 0.250000 0.562500
vt 0.250000 0.125000
vt 0.250000 0.062500
vt 0.250000 0.500000
vt 0.265625 1.000000
vt 0.250000 0.937500
vt 0.265625 0.000000
vt 0.250000 0.437500
vt 0.250000 0.875000
vt 0.250000 0.375000
vt 0.250000 0.812500
vt 0.250000 0.312500
vt 0.250000 0.750000
vt 0.250000 0.250000
vt 0.250000 0.687500
vt 0.250000 0.187500
vt 0.218750 0.312500
vt 0.218750 0.750000
vt 0.218750 0.250000
vt 0.218750 0.687500
vt 0.218750 0.187500
vt 0.218750 0.625000
vt 0.218750 0.125000
vt 0.218750 0.562500
vt 0.218750 0.062500
vt 0.218750 0.500000
vt 0.234375 1.000000
vt 0.218750 0.937500
vt 0.234375 0.000000
vt 0.218750 0.437500
vt 0.218750 0.875000
vt 0.218750 0.375000
vt 0.218750 0.812500
vt 0.187500 0.062500
vt 0.187500 0.562500
vt 0.187500 0.500000
vt 0.203125 1.000000
vt 0.187500 0.937500
vt 0.203125 0.000000
vt 0.187500 0.437500
vt 0.187500 0.875000
vt 0.187500 0.375000
vt 0.187500 0.812500
vt 0.187500 0.312500
vt 0.187500 0.750000
vt 0.187500 0.250000
vt 0.187500 0.687500
vt 0.187500 0.187500
vt 0.187500 0.625000
vt 0.187500 0.125000
vt 0.156250 0.250000
vt 0.156250 0.750000
vt 0.156250 0.687500
vt 0.156250 0.187500
vt 0.156250 0.625000
vt 0.156250 0.125000
vt 0.156250 0.562500
vt 0.156250 0.062500
vt 0.156250 0.500000
vt 0.171875 1.000000
vt 0.156250 0.937500
vt 0.171875 0.000000
vt 0.156250 0.437500
vt 0.156250 0.875000
vt 0.156250 0.375000
vt 0.156250 0.812500
vt 0.156250 0.312500
vt 0.140625 1.000000
vt 0.125000 0.937500
vt 0.140625 0.000000
vt 0.125000 0.062500
vt 0.125000 0.437500
vt 0.125000 0.875000
vt 0.125000 0.375000
vt 0.125000 0.812500
vt 0.125000 0.312500
vt 0.125000 0.750000
vt 0.125000 0.250000
vt 0.125000 0.687500
vt 0.125000 0.187500
vt 0.125000 0.625000
vt 0.125000 0.125000
vt 0.125000 0.562500
vt 0.125000 0.500000
vt 0.093750 0.687500
vt 0.093750 0.250000
vt 0.093750 0.187500
vt 0.093750 0.625000
vt 0.093750 0.125000
vt 0.093750 0.562500
vt 0.093750 0.062500
vt 0.093750 0.500000
vt 0.109375 1.000000
vt 0.093750 0.937500
vt 0.109375 0.000000
vt 0.093750 0.437500
vt 0.093750 0.875000
vt 0.093750 0.375000
vt 0.093750 0.812500
vt 0.093750 0.312500
vt 0.093750 0.750000
vt 0.062500 0.437500
vt 0.062500 0.875000
vt 0.062500 0.375000
vt 0.062500 0.812500
vt 0.062500 0.312500
vt 0.062500 0.750000
vt 0.062500 0.250000
vt 0.062500 0.687500
vt 0.062500 0.187500
vt 0.062500 0.625000
vt 0.062500 0.125000
vt 0.062500 0.562500
vt 0.062500 0.062500
vt 0.062500 0.500000
vt 0.078125 1.000000
vt 0.062500 0.937500
vt 0.078125 0.000000
vt 0.031250 0.187500
vt 0.031250 0.687500
vt 0.031250 0.625000
vt 0.031250 0.125000
vt 0.031250 0.562500
vt 0.031250 0.062500
vt 0.031250 0.500000
vt 0.046875 1.000000
vt 0.031250 0.937500
vt 0.046875 0.000000
vt 0.031250 0.437500
vt 0.031250 0.875000
vt 0.031250 0.375000
vt 0.031250 0.812500
vt 0.031250 0.312500
vt 0.031250 0.750000
vt 0.031250 0.250000
vt 0.000000 0.875000
vt 0.000000 0.437500
vt 0.000000 0.375000
vt 0.000000 0.812500
vt 0.000000 0.312500
vt 0.000000 0.750000
vt 0.000000 0.250000
vt 0.000000 0.687500
vt 0.000000 0.187500
vt 0.000000 0.625000
vt 0.000000 0.125000
vt 0.000000 0.562500
vt 0.000000 0.062500
vt 0.000000 0.500000
vt 0.015625 1.000000
vt 0.000000 0.937500
vt 0.015625 0.000000
vt 1.000000 0.687500
vt 0.968750 0.625000
vt 1.000000 0.625000
vt 1.000000 0.125000
vt 0.968750 0.187500
vt 0.968750 0.125000
vt 1.000000 0.562500
vt 0.968750 0.562500
vt 1.000000 0.062500
vt 0.968750 0.062500
vt 1.000000 0.500000
vt 0.968750 0.500000
vt 1.000000 0.937500
vt 0.984375 1.000000
vt 0.968750 0.937500
vt 0.984375 0.000000
vt 0.968750 0.437500
vt 1.000000 0.437500
vt 0.968750 0.875000
vt 1.000000 0.875000
vt 1.000000 0.375000
vt 0.968750 0.375000
vt 1.000000 0.812500
vt 0.968750 0.812500
vt 0.968750 0.312500
vt 1.000000 0.312500
vt 0.968750 0.750000
vt 1.000000 0.750000
vt 1.000000 0.250000
vt 0.968750 0.250000
vt 0.968750 0.687500
vt 1.000000 0.187500
vt 0.937500 0.437500
vt 0.937500 0.375000
vt 0.937500 0.812500
vt 0.937500 0.312500
vt 0.937500 0.750000
vt 0.937500 0.250000
vt 0.937500 0.687500
vt 0.937500 0.187500
vt 0.937500 0.625000
vt 0.937500 0.125000
vt 0.937500 0.562500
vt 0.937500 0.062500
vt 0.937500 0.500000
vt 0.953125 1.000000
vt 0.937500 0.937500
vt 0.953125 0.000000
vt 0.937500 0.875000
vt 0.906250 0.187500
vt 0.906250 0.125000
vt 0.906250 0.562500
vt 0.906250 0.062500
vt 0.906250 0.500000
vt 0.921875 1.000000
vt 0.906250 0.937500
vt 0.921875 0.000000
vt 0.906250 0.437500
vt 0.906250 0.875000
vt 0.906250 0.375000
vt 0.906250 0.812500
vt 0.906250 0.312500
vt 0.906250 0.750000
vt 0.906250 0.250000
vt 0.906250 0.687500
vt 0.906250 0.625000
vt 0.875000 0.312500
vt 0.875000 0.750000
vt 0.875000 0.250000
vt 0.875000 0.687500
vt 0.875000 0.187500
vt 0.875000 0.625000
vt 0.875000 0.125000
vt 0.875000 0.562500
vt 0.875000 0.062500
vt 0.875000 0.500000
vt 0.890625 1.000000
vt 0.875000 0.937500
vt 0.890625 0.000000
vt 0.875000 0.437500
vt 0.875000 0.875000
vt 0.875000 0.375000
vt 0.875000 0.812500
vt 0.843750 0.125000
vt 0.843750 0.062500
vt 0.843750 0.562500
vt 0.843750 0.500000
vt 0.859375 1.000000
vt 0.843750 0.937500
vt 0.859375 0.000000
vt 0.843750 0.437500
vt 0.843750 0.875000
vt 0.843750 0.375000
vt 0.843750 0.812500
vt 0.843750 0.312500
vt 0.843750 0.750000
vt 0.843750 0.250000
vt 0.843750 0.687500
vt 0.843750 0.187500
vt 0.843750 0.625000
vt 0.812500 0.750000
vt 0.812500 0.250000
vt 0.812500 0.687500
vt 0.812500 0.187500
vt 0.812500 0.625000
vt 0.812500 0.125000
vt 0.812500 0.562500
vt 0.812500 0.062500
vt 0.812500 0.500000
vt 0.828125 1.000000
vt 0.812500 0.937500
vt 0.828125 0.000000
vt 0.812500 0.437500
vt 0.812500 0.875000
vt 0.812500 0.375000
vt 0.812500 0.812500
vt 0.812500 0.312500
vt 0.781250 0.562500
vt 0.781250 0.500000
vt 0.796875 1.000000
vt 0.781250 0.937500
vt 0.796875 0.000000
vt 0.781250 0.062500
vt 0.781250 0.437500
vt 0.781250 0.875000
vt 0.781250 0.375000
vt 0.781250 0.812500
vt 0.781250 0.312500
vt 0.781250 0.750000
vt 0.781250 0.250000
vt 0.781250 0.687500
vt 0.781250 0.187500
vt 0.781250 0.625000
vt 0.781250 0.125000
vt 0.765625 1.000000
vt 0.765625 0.000000
vn 0.0000 -0.5239 -0.8518
vn -0.1436 -0.6770 -0.7218
vn -0.1662 -0.5239 -0.8354
vn 0.0000 0.7041 -0.7101
vn -0.1626 0.5528 -0.8173
vn -0.1385 0.7041 -0.6965
vn -0.1804 -0.3802 -0.9071
vn 0.0000 -0.3802 -0.9249
vn -0.1092 0.8286 -0.5490
vn 0.0000 0.8286 -0.5598
vn -0.1890 -0.2469 -0.9504
vn 0.0000 -0.2469 -0.9690
vn -0.0757 0.9217 -0.3804
vn 0.0000 0.9217 -0.3879
vn -0.1936 -0.1214 -0.9735
vn 0.0000 -0.1214 -0.9926
vn -0.0392 0.9796 -0.1971
vn 0.0000 0.9796 -0.2010
vn 0.0000 0.0462 -0.9989
vn -0.1949 0.0462 -0.9797
vn 0.0000 -0.9499 -0.3126
vn 0.0000 -1.0000 -0.0000
vn -0.0610 -0.9499 -0.3066
vn -0.0000 1.0000 -0.0000
vn -0.1903 0.2211 -0.9565
vn 0.0000 0.2211 -0.9752
vn 0.0000 -0.8285 -0.5600
vn -0.1093 -0.8285 -0.5493
vn -0.1804 0.3805 -0.9070
vn 0.0000 0.3805 -0.9248
vn 0.0000 -0.6770 -0.7360
vn 0.0000 0.5528 -0.8333
vn -0.2143 -0.8285 -0.5174
vn -0.2816 -0.6770 -0.6799
vn -0.3189 0.5528 -0.7699
vn -0.3260 -0.5239 -0.7869
vn -0.2718 0.7041 -0.6561
vn -0.3539 -0.3802 -0.8545
vn -0.2142 0.8286 -0.5172
vn -0.3708 -0.2469 -0.8953
vn -0.1484 0.9217 -0.3584
vn -0.3799 -0.1214 -0.9170
vn -0.0769 0.9796 -0.1857
vn -0.3823 0.0462 -0.9229
vn -0.1196 -0.9499 -0.2888
vn -0.3732 0.2211 -0.9010
vn -0.3539 0.3805 -0.8544
vn -0.5515 -0.1214 -0.8253
vn -0.1117 0.9796 -0.1671
vn -0.5550 0.0462 -0.8306
vn -0.1737 -0.9499 -0.2599
vn -0.5418 0.2211 -0.8109
vn -0.3111 -0.8285 -0.4657
vn -0.5138 0.3805 -0.7689
vn -0.4089 -0.6770 -0.6119
vn -0.4630 0.5528 -0.6929
vn -0.4732 -0.5239 -0.7082
vn -0.3945 0.7041 -0.5905
vn -0.5139 -0.3802 -0.7690
vn -0.3110 0.8286 -0.4654
vn -0.5384 -0.2469 -0.8057
vn -0.2155 0.9217 -0.3225
vn -0.6539 0.3805 -0.6539
vn -0.5893 0.5528 -0.5893
vn -0.6023 -0.5239 -0.6023
vn -0.5021 0.7041 -0.5021
vn -0.6540 -0.3802 -0.6540
vn -0.3958 0.8286 -0.3958
vn -0.6852 -0.2469 -0.6852
vn -0.2743 0.9217 -0.2743
vn -0.7019 -0.1214 -0.7019
vn -0.1421 0.9796 -0.1421
vn -0.7064 0.0462 -0.7064
vn -0.2211 -0.9499 -0.2211
vn -0.6896 0.2211 -0.6896
vn -0.3960 -0.8285 -0.3960
vn -0.5204 -0.6770 -0.5204
vn -0.1671 0.9796 -0.1117
vn -0.8306 0.0462 -0.5550
vn -0.2599 -0.9499 -0.1737
vn -0.8109 0.2211 -0.5418
vn -0.4657 -0.8285 -0.3111
vn -0.7689 0.3805 -0.5138
vn -0.6119 -0.6770 -0.4089
vn -0.6929 0.5528 -0.4630
vn -0.7082 -0.5239 -0.4732
vn -0.5905 0.7041 -0.3945
vn -0.7690 -0.3802 -0.5139
vn -0.4654 0.8286 -0.3110
vn -0.8057 -0.2469 -0.5384
vn -0.3225 0.9217 -0.2155
vn -0.8253 -0.1214 -0.5515
vn -0.7869 -0.5239 -0.3260
vn -0.6561 0.7041 -0.2718
vn -0.8545 -0.3802 -0.3539
vn -0.5172 0.8286 -0.2142
vn -0.8953 -0.2469 -0.3708
vn -0.3584 0.9217 -0.1484
vn -0.9170 -0.1214 -0.3799
vn -0.1857 0.9796 -0.0769
vn -0.9229 0.0462 -0.3823
vn -0.2888 -0.9499 -0.1196
vn -0.9010 0.2211 -0.3732
vn -0.5174 -0.8285 -0.2143
vn -0.8544 0.3805 -0.3539
vn -0.6799 -0.6770 -0.2816
vn -0.7699 0.5528 -0.3189
vn -0.9735 -0.1214 -0.1936
vn -0.9797 0.0462 -0.1949
vn -0.3066 -0.9499 -0.0610
vn -0.1971 0.9796 -0.0392
vn -0.9565 0.2211 -0.1903
vn -0.5493 -0.8285 -0.1093
vn -0.9070 0.3805 -0.1804
vn -0.7218 -0.6770 -0.1436
vn -0.8173 0.5528 -0.1626
vn -0.8354 -0.5239 -0.1662
vn -0.6965 0.7041 -0.1385
vn -0.9071 -0.3802 -0.1804
vn -0.5490 0.8286 -0.1092
vn -0.9504 -0.2469 -0.1890
vn -0.3804 0.9217 -0.0757
vn -0.7101 0.7041 -0.0000
vn -0.9249 -0.3802 0.0000
vn -0.5598 0.8286 -0.0000
vn -0.9690 -0.2469 0.0000
vn -0.3879 0.9217 0.0000
vn -0.9926 -0.1214 0.0000
vn -0.2010 0.9796 -0.0000
vn -0.9989 0.0462 0.0000
vn -0.3126 -0.9499 0.0000
vn -0.9752 0.2211 0.0000
vn -0.5600 -0.8285 0.0000
vn -0.9248 0.3805 0.0000
vn -0.7360 -0.6770 -0.0000
vn -0.8333 0.5528 0.0000
vn -0.8518 -0.5239 0.0000
vn -0.1971 0.9796 0.0392
vn -0.9565 0.2211 0.1903
vn -0.5493 -0.8285 0.1093
vn -0.9070 0.3805 0.1804
vn -0.7218 -0.6770 0.1436
vn -0.8173 0.5528 0.1626
vn -0.8354 -0.5239 0.1662
vn -0.6965 0.7041 0.1385
vn -0.9071 -0.3802 0.1804
vn -0.5490 0.8286 0.1092
vn -0.9504 -0.2469 0.1890
vn -0.3804 0.9217 0.0757
vn -0.9735 -0.1214 0.1936
vn -0.9797 0.0462 0.1949
vn -0.3066 -0.9499 0.0610
vn -0.6561 0.7041 0.2718
vn -0.5172 0.8286 0.2142
vn -0.8953 -0.2469 0.3708
vn -0.3584 0.9217 0.1484
vn -0.9170 -0.1214 0.3799
vn -0.1857 0.9796 0.0769
vn -0.9229 0.0462 0.3823
vn -0.2888 -0.9499 0.1196
vn -0.9010 0.2211 0.3732
vn -0.5174 -0.8285 0.2143
vn -0.8544 0.3805 0.3539
vn -0.6799 -0.6770 0.2816
vn -0.7699 0.5528 0.3189
vn -0.7869 -0.5239 0.3260
vn -0.8545 -0.3802 0.3539
vn -0.2599 -0.9499 0.1737
vn -0.4657 -0.8285 0.3111
vn -0.8109 0.2211 0.5418
vn -0.7689 0.3805 0.5138
vn -0.6119 -0.6770 0.4089
vn -0.6929 0.5528 0.4630
vn -0.7082 -0.5239 0.4732
vn -0.5905 0.7041 0.3945
vn -0.7690 -0.3802 0.5139
vn -0.4654 0.8286 0.3110
vn -0.8057 -0.2469 0.5384
vn -0.3225 0.9217 0.2155
vn -0.8253 -0.1214 0.5515
vn -0.1671 0.9796 0.1117
vn -0.8306 0.0462 0.5550
vn -0.6540 -0.3802 0.6540
vn -0.6852 -0.2469 0.6852
vn -0.2743 0.9217 0.2743
vn -0.7019 -0.1214 0.7019
vn -0.1421 0.9796 0.1421
vn -0.7064 0.0462 0.7064
vn -0.2211 -0.9499 0.2211
vn -0.6896 0.2211 0.6896
vn -0.3960 -0.8285 0.3960
vn -0.6539 0.3805 0.6539
vn -0.5204 -0.6770 0.5204
vn -0.5893 0.5528 0.5893
vn -0.6023 -0.5239 0.6023
vn -0.5021 0.7041 0.5021
vn -0.3958 0.8286 0.3958
vn -0.5138 0.3805 0.7689
vn -0.3111 -0.8285 0.4657
vn -0.4089 -0.6770 0.6119
vn -0.4630 0.5528 0.6929
vn -0.4732 -0.5239 0.7082
vn -0.3945 0.7041 0.5905
vn -0.5139 -0.3802 0.7690
vn -0.3110 0.8286 0.4654
vn -0.5384 -0.2469 0.8057
vn -0.2155 0.9217 0.3225
vn -0.5515 -0.1214 0.8253
vn -0.1117 0.9796 0.1671
vn -0.5550 0.0462 0.8306
vn -0.1737 -0.9499 0.2599
vn -0.5418 0.2211 0.8109
vn -0.1484 0.9217 0.3584
vn -0.3708 -0.2469 0.8953
vn -0.3799 -0.1214 0.9170
vn -0.0769 0.9796 0.1857
vn -0.3823 0.0462 0.9229
vn -0.1196 -0.9499 0.2888
vn -0.3732 0.2211 0.9010
vn -0.2143 -0.8285 0.5174
vn -0.3539 0.3805 0.8544
vn -0.2816 -0.6770 0.6799
vn -0.3189 0.5528 0.7699
vn -0.3260 -0.5239 0.7869
vn -0.2718 0.7041 0.6561
vn -0.3539 -0.3802 0.8545
vn -0.2142 0.8286 0.5172
vn -0.1093 -0.8285 0.5493
vn -0.1436 -0.6770 0.7218
vn -0.1626 0.5528 0.8173
vn -0.1662 -0.5239 0.8354
vn -0.1385 0.7041 0.6965
vn -0.1804 -0.3802 0.9071
vn -0.1092 0.8286 0.5490
vn -0.1890 -0.2469 0.9504
vn -0.0757 0.9217 0.3804
vn -0.1936 -0.1214 0.9735
vn -0.0392 0.9796 0.1971
vn -0.1949 0.0462 0.9797
vn -0.0610 -0.9499 0.3066
vn -0.1903 0.2211 0.9565
vn -0.1804 0.3805 0.9070
vn -0.0000 -0.2469 0.9690
vn 0.0000 -0.1214 0.9926
vn 0.0000 0.9217 0.3879
vn 0.0000 0.9796 0.2010
vn 0.0000 0.0462 0.9989
vn -0.0000 -0.9499 0.3126
vn 0.0000 0.2211 0.9752
vn 0.0000 -0.8285 0.5600
vn 0.0000 0.3805 0.9248
vn 0.0000 -0.6770 0.7360
vn 0.0000 0.5528 0.8333
vn 0.0000 -0.5239 0.8518
vn -0.0000 0.7041 0.7101
vn 0.0000 -0.3802 0.9249
vn 0.0000 0.8286 0.5598
vn 0.1626 0.5528 0.8173
vn 0.1662 -0.5239 0.8354
vn 0.1385 0.7041 0.6965
vn 0.1804 -0.3802 0.9071
vn 0.1092 0.8286 0.5490
vn 0.1890 -0.2469 0.9504
vn 0.0757 0.9217 0.3804
vn 0.1936 -0.1214 0.9735
vn 0.0392 0.9796 0.1971
vn 0.1949 0.0462 0.9797
vn 0.0610 -0.9499 0.3066
vn 0.1903 0.2211 0.9565
vn 0.1093 -0.8285 0.5493
vn 0.1804 0.3805 0.9070
vn 0.1436 -0.6770 0.7218
vn 0.0769 0.9796 0.1857
vn 0.3799 -0.1214 0.9170
vn 0.3823 0.0462 0.9229
vn 0.1196 -0.9499 0.2888
vn 0.3732 0.2211 0.9010
vn 0.2143 -0.8285 0.5174
vn 0.3539 0.3805 0.8544
vn 0.2816 -0.6770 0.6799
vn 0.3189 0.5528 0.7699
vn 0.3260 -0.5239 0.7869
vn 0.2718 0.7041 0.6561
vn 0.3539 -0.3802 0.8545
vn 0.2142 0.8286 0.5172
vn 0.3708 -0.2469 0.8953
vn 0.1484 0.9217 0.3584
vn 0.3945 0.7041 0.5905
vn 0.4732 -0.5239 0.7082
vn 0.5139 -0.3802 0.7690
vn 0.3110 0.8286 0.4654
vn 0.5384 -0.2469 0.8057
vn 0.2155 0.9217 0.3225
vn 0.5515 -0.1214 0.8253
vn 0.1117 0.9796 0.1671
vn 0.5550 0.0462 0.8306
vn 0.1737 -0.9499 0.2599
vn 0.5418 0.2211 0.8109
vn 0.3111 -0.8285 0.4657
vn 0.5138 0.3805 0.7689
vn 0.4089 -0.6770 0.6119
vn 0.4630 0.5528 0.6929
vn 0.2211 -0.9499 0.2211
vn 0.1421 0.9796 0.1421
vn 0.6896 0.2211 0.6896
vn 0.3960 -0.8285 0.3960
vn 0.6539 0.3805 0.6539
vn 0.5204 -0.6770 0.5204
vn 0.5893 0.5528 0.5893
vn 0.6023 -0.5239 0.6023
vn 0.5021 0.7041 0.5021
vn 0.6540 -0.3802 0.6540
vn 0.3958 0.8286 0.3958
vn 0.6852 -0.2469 0.6852
vn 0.2743 0.9217 0.2743
vn 0.7019 -0.1214 0.7019
vn 0.7064 0.0462 0.7064
vn 0.7690 -0.3802 0.5139
vn 0.5905 0.7041 0.3945
vn 0.4654 0.8286 0.3110
vn 0.8057 -0.2469 0.5384
vn 0.3225 0.9217 0.2155
vn 0.8253 -0.1214 0.5515
vn 0.1671 0.9796 0.1117
vn 0.8306 0.0462 0.5550
vn 0.2599 -0.9499 0.1737
vn 0.8109 0.2211 0.5418
vn 0.4657 -0.8285 0.3111
vn 0.7689 0.3805 0.5138
vn 0.6119 -0.6770 0.4089
vn 0.6929 0.5528 0.4630
vn 0.7082 -0.5239 0.4732
vn 0.9010 0.2211 0.3732
vn 0.5174 -0.8285 0.2143
vn 0.8544 0.3805 0.3539
vn 0.6799 -0.6770 0.2816
vn 0.7699 0.5528 0.3189
vn 0.7869 -0.5239 0.3260
vn 0.6561 0.7041 0.2718
vn 0.8545 -0.3802 0.3539
vn 0.5172 0.8286 0.2142
vn 0.8953 -0.2469 0.3708
vn 0.3584 0.9217 0.1484
vn 0.9170 -0.1214 0.3799
vn 0.1857 0.9796 0.0769
vn 0.9229 0.0462 0.3823
vn 0.2888 -0.9499 0.1196
vn 0.5490 0.8286 0.1092
vn 0.9071 -0.3802 0.1804
vn 0.9504 -0.2469 0.1890
vn 0.3804 0.9217 0.0757
vn 0.9735 -0.1214 0.1936
vn 0.1971 0.9796 0.0392
vn 0.9797 0.0462 0.1949
vn 0.3066 -0.9499 0.0610
vn 0.9565 0.2211 0.1903
vn 0.5493 -0.8285 0.1093
vn 0.9070 0.3805 0.1804
vn 0.7218 -0.6770 0.1436
vn 0.8173 0.5528 0.1626
vn 0.8354 -0.5239 0.1662
vn 0.6965 0.7041 0.1385
vn 0.5600 -0.8285 0.0000
vn 0.9752 0.2211 -0.0000
vn 0.9248 0.3805 -0.0000
vn 0.7360 -0.6770 -0.0000
vn 0.8333 0.5528 -0.0000
vn 0.8518 -0.5239 -0.0000
vn 0.7101 0.7041 -0.0000
vn 0.9249 -0.3802 -0.0000
vn 0.5598 0.8286 -0.0000
vn 0.9690 -0.2469 -0.0000
vn 0.3879 0.9217 -0.0000
vn 0.9926 -0.1214 -0.0000
vn 0.2010 0.9796 -0.0000
vn 0.9989 0.0462 -0.0000
vn 0.3126 -0.9499 0.0000
vn 0.9504 -0.2469 -0.1890
vn 0.5490 0.8286 -0.1092
vn 0.3804 0.9217 -0.0757
vn 0.9735 -0.1214 -0.1936
vn 0.1971 0.9796 -0.0392
vn 0.9797 0.0462 -0.1949
vn 0.3066 -0.9499 -0.0610
vn 0.9565 0.2211 -0.1903
vn 0.5493 -0.8285 -0.1093
vn 0.9070 0.3805 -0.1804
vn 0.7218 -0.6770 -0.1436
vn 0.8173 0.5528 -0.1626
vn 0.8354 -0.5239 -0.1662
vn 0.6965 0.7041 -0.1385
vn 0.9071 -0.3802 -0.1804
vn 0.9010 0.2211 -0.3732
vn 0.8544 0.3805 -0.3539
vn 0.6799 -0.6770 -0.2816
vn 0.7699 0.5528 -0.3189
vn 0.7869 -0.5239 -0.3260
vn 0.6561 0.7041 -0.2718
vn 0.8545 -0.3802 -0.3539
vn 0.5172 0.8286 -0.2142
vn 0.8953 -0.2469 -0.3708
vn 0.3584 0.9217 -0.1484
vn 0.9170 -0.1214 -0.3799
vn 0.1857 0.9796 -0.0769
vn 0.9229 0.0462 -0.3823
vn 0.2888 -0.9499 -0.1196
vn 0.5174 -0.8285 -0.2143
vn 0.4654 0.8286 -0.3110
vn 0.3225 0.9217 -0.2155
vn 0.8253 -0.1214 -0.5515
vn 0.1671 0.9796 -0.1117
vn 0.8306 0.0462 -0.5550
vn 0.2599 -0.9499 -0.1737
vn 0.8109 0.2211 -0.5418
vn 0.4657 -0.8285 -0.3111
vn 0.7689 0.3805 -0.5138
vn 0.6119 -0.6770 -0.4089
vn 0.6929 0.5528 -0.4630
vn 0.7082 -0.5239 -0.4732
vn 0.5905 0.7041 -0.3945
vn 0.7690 -0.3802 -0.5139
vn 0.8057 -0.2469 -0.5384
vn 0.5893 0.5528 -0.5893
vn 0.6023 -0.5239 -0.6023
vn 0.5021 0.7041 -0.5021
vn 0.6540 -0.3802 -0.6540
vn 0.3958 0.8286 -0.3958
vn 0.6852 -0.2469 -0.6852
vn 0.2743 0.9217 -0.2743
vn 0.7019 -0.1214 -0.7019
vn 0.1421 0.9796 -0.1421
vn 0.7064 0.0462 -0.7064
vn 0.2211 -0.9499 -0.2211
vn 0.6896 0.2211 -0.6896
vn 0.3960 -0.8285 -0.3960
vn 0.6539 0.3805 -0.6539
vn 0.5204 -0.6770 -0.5204
vn 0.2155 0.9217 -0.3225
vn 0.1117 0.9796 -0.1671
vn 0.5515 -0.1214 -0.8253
vn 0.5550 0.0462 -0.8306
vn 0.1737 -0.9499 -0.2599
vn 0.5418 0.2211 -0.8109
vn 0.3111 -0.8285 -0.4657
vn 0.5138 0.3805 -0.7689
vn 0.4089 -0.6770 -0.6119
vn 0.4630 0.5528 -0.6929
vn 0.4732 -0.5239 -0.7082
vn 0.3945 0.7041 -0.5905
vn 0.5139 -0.3802 -0.7690
vn 0.3110 0.8286 -0.4654
vn 0.5384 -0.2469 -0.8057
vn 0.3260 -0.5239 -0.7869
vn 0.2718 0.7041 -0.6561
vn 0.3539 -0.3802 -0.8545
vn 0.2142 0.8286 -0.5172
vn 0.3708 -0.2469 -0.8953
vn 0.1484 0.9217 -0.3584
vn 0.3799 -0.1214 -0.9170
vn 0.0769 0.9796 -0.1857
vn 0.3823 0.0462 -0.9229
vn 0.1196 -0.9499 -0.2888
vn 0.3732 0.2211 -0.9010
vn 0.2143 -0.8285 -0.5174
vn 0.3539 0.3805 -0.8544
vn 0.2816 -0.6770 -0.6799
vn 0.3189 0.5528 -0.7699
vn 0.1936 -0.1214 -0.9735
vn 0.1949 0.0462 -0.9797
vn 0.0610 -0.9499 -0.3066
vn 0.0392 0.9796 -0.1971
vn 0.1903 0.2211 -0.9565
vn 0.1093 -0.8285 -0.5493
vn 0.1804 0.3805 -0.9070
vn 0.1436 -0.6770 -0.7218
vn 0.1626 0.5528 -0.8173
vn 0.1662 -0.5239 -0.8354
vn 0.1385 0.7041 -0.6965
vn 0.1804 -0.3802 -0.9071
vn 0.1092 0.8286 -0.5490
vn 0.1891 -0.2469 -0.9504
vn 0.0757 0.9217 -0.3804
s 1
f 4/1/1 13/2/2 14/3/3
f 9/4/4 21/5/5 22/6/6
f 4/1/1 15/7/7 5/8/8
f 9/4/4 23/9/9 10/10/10
f 5/8/8 16/11/11 6/12/12
f 10/10/10 24/13/13 480/14/14
f 6/12/12 17/15/15 7/16/16
f 480/14/14 25/17/17 481/18/18
f 477/19/19 17/15/15 18/20/20
f 1/21/21 326/22/22 11/23/23
f 482/24/24 481/18/18 25/17/17
f 477/19/19 19/25/25 478/26/26
f 2/27/27 11/23/23 12/28/28
f 478/26/26 20/29/29 479/30/30
f 2/27/27 13/2/2 3/31/31
f 479/30/30 21/5/5 8/32/32
f 13/2/2 27/33/33 28/34/34
f 20/29/29 36/35/35 21/5/5
f 13/2/2 29/36/36 14/3/3
f 21/5/5 37/37/37 22/6/6
f 14/3/3 30/38/38 15/7/7
f 22/6/6 38/39/39 23/9/9
f 15/7/7 31/40/40 16/11/11
f 23/9/9 39/41/41 24/13/13
f 16/11/11 32/42/42 17/15/15
f 24/13/13 40/43/43 25/17/17
f 17/15/15 33/44/44 18/20/20
f 11/23/23 326/45/22 26/46/45
f 482/47/24 25/17/17 40/43/43
f 18/20/20 34/48/46 19/25/25
f 11/23/23 27/33/33 12/28/28
f 19/25/25 35/49/47 20/29/29
f 31/40/40 47/50/48 32/42/42
f 39/41/41 55/51/49 40/43/43
f 32/42/42 48/52/50 33/44/44
f 26/46/45 326/53/22 41/54/51
f 482/55/24 40/43/43 55/51/49
f 33/44/44 49/56/52 34/48/46
f 26/46/45 42/57/53 27/33/33
f 34/48/46 50/58/54 35/49/47
f 28/34/34 42/57/53 43/59/55
f 36/35/35 50/58/54 51/60/56
f 28/34/34 44/61/57 29/36/36
f 36/35/35 52/62/58 37/37/37
f 29/36/36 45/63/59 30/38/38
f 37/37/37 53/64/60 38/39/39
f 30/38/38 46/65/61 31/40/40
f 38/39/39 54/66/62 39/41/41
f 51/60/56 65/67/63 66/68/64
f 43/59/55 59/69/65 44/61/57
f 52/62/58 66/68/64 67/70/66
f 44/61/57 60/71/67 45/63/59
f 53/64/60 67/70/66 68/72/68
f 46/65/61 60/71/67 61/73/69
f 53/64/60 69/74/70 54/66/62
f 46/65/61 62/75/71 47/50/48
f 55/51/49 69/74/70 70/76/72
f 47/50/48 63/77/73 48/52/50
f 41/54/51 326/78/22 56/79/74
f 482/80/24 55/51/49 70/76/72
f 48/52/50 64/81/75 49/56/52
f 41/54/51 57/82/76 42/57/53
f 50/58/54 64/81/75 65/67/63
f 42/57/53 58/83/77 43/59/55
f 69/74/70 85/84/78 70/76/72
f 62/75/71 78/85/79 63/77/73
f 56/79/74 326/86/22 71/87/80
f 482/88/24 70/76/72 85/84/78
f 63/77/73 79/89/81 64/81/75
f 56/79/74 72/90/82 57/82/76
f 65/67/63 79/89/81 80/91/83
f 58/83/77 72/90/82 73/92/84
f 65/67/63 81/93/85 66/68/64
f 58/83/77 74/94/86 59/69/65
f 66/68/64 82/95/87 67/70/66
f 59/69/65 75/96/88 60/71/67
f 68/72/68 82/95/87 83/97/89
f 60/71/67 76/98/90 61/73/69
f 69/74/70 83/97/89 84/99/91
f 61/73/69 77/100/92 62/75/71
f 73/92/84 89/101/93 74/94/86
f 81/93/85 97/102/94 82/95/87
f 75/96/88 89/101/93 90/103/95
f 83/97/89 97/102/94 98/104/96
f 75/96/88 91/105/97 76/98/90
f 84/99/91 98/104/96 99/106/98
f 77/100/92 91/105/97 92/107/99
f 85/84/78 99/106/98 100/108/100
f 77/100/92 93/109/101 78/85/79
f 71/87/80 326/110/22 86/111/102
f 482/112/24 85/84/78 100/108/100
f 78/85/79 94/113/103 79/89/81
f 72/90/82 86/111/102 87/114/104
f 79/89/81 95/115/105 80/91/83
f 72/90/82 88/116/106 73/92/84
f 80/91/83 96/117/107 81/93/85
f 93/109/101 107/118/108 108/119/109
f 86/111/102 326/120/22 101/121/110
f 482/122/24 100/108/100 115/123/111
f 93/109/101 109/124/112 94/113/103
f 86/111/102 102/125/113 87/114/104
f 95/115/105 109/124/112 110/126/114
f 87/114/104 103/127/115 88/116/106
f 95/115/105 111/128/116 96/117/107
f 88/116/106 104/129/117 89/101/93
f 96/117/107 112/130/118 97/102/94
f 89/101/93 105/131/119 90/103/95
f 98/104/96 112/130/118 113/132/120
f 90/103/95 106/133/121 91/105/97
f 99/106/98 113/132/120 114/134/122
f 92/107/99 106/133/121 107/118/108
f 99/106/98 115/123/111 100/108/100
f 111/128/116 127/135/123 112/130/118
f 104/129/117 120/136/124 105/131/119
f 113/132/120 127/135/123 128/137/125
f 105/131/119 121/138/126 106/133/121
f 113/132/120 129/139/127 114/134/122
f 107/118/108 121/138/126 122/140/128
f 114/134/122 130/141/129 115/123/111
f 108/119/109 122/140/128 123/142/130
f 101/121/110 326/143/22 116/144/131
f 482/145/24 115/123/111 130/141/129
f 108/119/109 124/146/132 109/124/112
f 102/125/113 116/144/131 117/147/133
f 110/126/114 124/146/132 125/148/134
f 102/125/113 118/149/135 103/127/115
f 110/126/114 126/150/136 111/128/116
f 103/127/115 119/151/137 104/129/117
f 482/152/24 130/141/129 145/153/138
f 123/142/130 139/154/139 124/146/132
f 116/144/131 132/155/140 117/147/133
f 125/148/134 139/154/139 140/156/141
f 118/149/135 132/155/140 133/157/142
f 125/148/134 141/158/143 126/150/136
f 118/149/135 134/159/144 119/151/137
f 126/150/136 142/160/145 127/135/123
f 120/136/124 134/159/144 135/161/146
f 128/137/125 142/160/145 143/162/147
f 120/136/124 136/163/148 121/138/126
f 128/137/125 144/164/149 129/139/127
f 122/140/128 136/163/148 137/165/150
f 129/139/127 145/153/138 130/141/129
f 123/142/130 137/165/150 138/166/151
f 116/144/131 326/167/22 131/168/152
f 143/162/147 157/169/153 158/170/154
f 135/161/146 151/171/155 136/163/148
f 144/164/149 158/170/154 159/172/156
f 137/165/150 151/171/155 152/173/157
f 144/164/149 160/174/158 145/153/138
f 138/166/151 152/173/157 153/175/159
f 131/168/152 326/176/22 146/177/160
f 482/178/24 145/153/138 160/174/158
f 138/166/151 154/179/161 139/154/139
f 131/168/152 147/180/162 132/155/140
f 140/156/141 154/179/161 155/181/163
f 132/155/140 148/182/164 133/157/142
f 140/156/141 156/183/165 141/158/143
f 133/157/142 149/184/166 134/159/144
f 141/158/143 157/169/153 142/160/145
f 134/159/144 150/185/167 135/161/146
f 147/180/162 161/186/168 162/187/169
f 155/181/163 169/188/170 170/189/171
f 147/180/162 163/190/172 148/182/164
f 155/181/163 171/191/173 156/183/165
f 148/182/164 164/192/174 149/184/166
f 156/183/165 172/193/175 157/169/153
f 149/184/166 165/194/176 150/185/167
f 158/170/154 172/193/175 173/195/177
f 150/185/167 166/196/178 151/171/155
f 158/170/154 174/197/179 159/172/156
f 151/171/155 167/198/180 152/173/157
f 160/174/158 174/197/179 175/199/181
f 153/175/159 167/198/180 168/200/182
f 146/177/160 326/201/22 161/186/168
f 482/202/24 160/174/158 175/199/181
f 153/175/159 169/188/170 154/179/161
f 166/196/178 180/203/183 181/204/184
f 173/195/177 189/205/185 174/197/179
f 166/196/178 182/206/186 167/198/180
f 174/197/179 190/207/187 175/199/181
f 168/200/182 182/206/186 183/208/188
f 161/186/168 326/209/22 176/210/189
f 482/211/24 175/199/181 190/207/187
f 168/200/182 184/212/190 169/188/170
f 161/186/168 177/213/191 162/187/169
f 169/188/170 185/214/192 170/189/171
f 162/187/169 178/215/193 163/190/172
f 170/189/171 186/216/194 171/191/173
f 163/190/172 179/217/195 164/192/174
f 172/193/175 186/216/194 187/218/196
f 164/192/174 180/203/183 165/194/176
f 172/193/175 188/219/197 173/195/177
f 184/212/190 200/220/198 185/214/192
f 178/215/193 192/221/199 193/222/200
f 185/214/192 201/223/201 186/216/194
f 178/215/193 194/224/202 179/217/195
f 186/216/194 202/225/203 187/218/196
f 180/203/183 194/224/202 195/226/204
f 188/219/197 202/225/203 203/227/205
f 180/203/183 196/228/206 181/204/184
f 189/205/185 203/227/205 204/229/207
f 182/206/186 196/228/206 197/230/208
f 189/205/185 205/231/209 190/207/187
f 183/208/188 197/230/208 198/232/210
f 176/210/189 326/233/22 191/234/211
f 482/235/24 190/207/187 205/231/209
f 183/208/188 199/236/212 184/212/190
f 176/210/189 192/221/199 177/213/191
f 203/227/205 219/237/213 204/229/207
f 197/230/208 211/238/214 212/239/215
f 205/231/209 219/237/213 220/240/216
f 198/232/210 212/239/215 213/241/217
f 191/234/211 326/242/22 206/243/218
f 482/244/24 205/231/209 220/240/216
f 198/232/210 214/245/219 199/236/212
f 191/234/211 207/246/220 192/221/199
f 200/220/198 214/245/219 215/247/221
f 192/221/199 208/248/222 193/222/200
f 200/220/198 216/249/223 201/223/201
f 193/222/200 209/250/224 194/224/202
f 201/223/201 217/251/225 202/225/203
f 194/224/202 210/252/226 195/226/204
f 203/227/205 217/251/225 218/253/227
f 195/226/204 211/238/214 196/228/206
f 208/248/222 222/254/228 223/255/229
f 215/247/221 231/256/230 216/249/223
f 208/248/222 224/257/231 209/250/224
f 216/249/223 232/258/232 217/251/225
f 209/250/224 225/259/233 210/252/226
f 218/253/227 232/258/232 233/260/234
f 210/252/226 226/261/235 211/238/214
f 218/253/227 234/262/236 219/237/213
f 211/238/214 227/263/237 212/239/215
f 220/240/216 234/262/236 235/264/238
f 213/241/217 227/263/237 228/265/239
f 206/243/218 326/266/22 221/267/240
f 482/268/24 220/240/216 235/264/238
f 213/241/217 229/269/241 214/245/219
f 206/243/218 222/254/228 207/246/220
f 215/247/221 229/269/241 230/270/242
f 227/263/237 241/271/243 242/272/244
f 235/264/238 249/273/245 250/274/246
f 228/265/239 242/272/244 243/275/247
f 221/267/240 326/276/22 236/277/248
f 482/278/24 235/264/238 250/274/246
f 228/265/239 244/279/249 229/269/241
f 221/267/240 237/280/250 222/254/228
f 230/270/242 244/279/249 245/281/251
f 222/254/228 238/282/252 223/255/229
f 230/270/242 246/283/253 231/256/230
f 223/255/229 239/284/254 224/257/231
f 231/256/230 247/285/255 232/258/232
f 224/257/231 240/286/256 225/259/233
f 233/260/234 247/285/255 248/287/257
f 225/259/233 241/271/243 226/261/235
f 233/260/234 249/273/245 234/262/236
f 245/281/251 261/288/258 246/283/253
f 238/282/252 254/289/259 239/284/254
f 247/285/255 261/288/258 262/290/260
f 240/286/256 254/289/259 255/291/261
f 248/287/257 262/290/260 263/292/262
f 240/286/256 256/293/263 241/271/243
f 248/287/257 264/294/264 249/273/245
f 242/272/244 256/293/263 257/295/265
f 249/273/245 265/296/266 250/274/246
f 243/275/247 257/295/265 258/297/267
f 236/277/248 326/298/22 251/299/268
f 482/300/24 250/274/246 265/296/266
f 243/275/247 259/301/269 244/279/249
f 236/277/248 252/302/270 237/280/250
f 245/281/251 259/301/269 260/303/271
f 238/282/252 252/302/270 253/304/272
f 264/294/264 280/305/273 265/296/266
f 258/297/267 272/306/274 273/307/275
f 251/299/268 326/308/22 266/309/276
f 482/310/24 265/296/266 280/305/273
f 258/297/267 274/311/277 259/301/269
f 251/299/268 267/312/278 252/302/270
f 260/303/271 274/311/277 275/313/279
f 252/302/270 268/314/280 253/304/272
f 260/303/271 276/315/281 261/288/258
f 253/304/272 269/316/282 254/289/259
f 261/288/258 277/317/283 262/290/260
f 254/289/259 270/318/284 255/291/261
f 263/292/262 277/317/283 278/319/285
f 255/291/261 271/320/286 256/293/263
f 263/292/262 279/321/287 264/294/264
f 257/295/265 271/320/286 272/306/274
f 276/315/281 292/322/288 277/317/283
f 270/318/284 284/323/289 285/324/290
f 278/319/285 292/322/288 293/325/291
f 270/318/284 286/326/292 271/320/286
f 278/319/285 294/327/293 279/321/287
f 271/320/286 287/328/294 272/306/274
f 280/305/273 294/327/293 295/329/295
f 273/307/275 287/328/294 288/330/296
f 266/309/276 326/331/22 281/332/297
f 482/333/24 280/305/273 295/329/295
f 273/307/275 289/334/298 274/311/277
f 266/309/276 282/335/299 267/312/278
f 275/313/279 289/334/298 290/336/300
f 267/312/278 283/337/301 268/314/280
f 275/313/279 291/338/302 276/315/281
f 268/314/280 284/323/289 269/316/282
f 281/332/297 326/339/22 296/340/303
f 482/341/24 295/329/295 310/342/304
f 288/330/296 304/343/305 289/334/298
f 281/332/297 297/344/306 282/335/299
f 290/336/300 304/343/305 305/345/307
f 282/335/299 298/346/308 283/337/301
f 290/336/300 306/347/309 291/338/302
f 283/337/301 299/348/310 284/323/289
f 291/338/302 307/349/311 292/322/288
f 284/323/289 300/350/312 285/324/290
f 293/325/291 307/349/311 308/351/313
f 286/326/292 300/350/312 301/352/314
f 293/325/291 309/353/315 294/327/293
f 287/328/294 301/352/314 302/354/316
f 294/327/293 310/342/304 295/329/295
f 288/330/296 302/354/316 303/355/317
f 299/348/310 315/356/318 300/350/312
f 308/351/313 322/357/319 323/358/320
f 301/352/314 315/356/318 316/359/321
f 309/353/315 323/358/320 324/360/322
f 302/354/316 316/359/321 317/361/323
f 309/353/315 325/362/324 310/342/304
f 303/355/317 317/361/323 318/363/325
f 296/340/303 326/364/22 311/365/326
f 482/366/24 310/342/304 325/362/324
f 303/355/317 319/367/327 304/343/305
f 297/344/306 311/365/326 312/368/328
f 305/345/307 319/367/327 320/369/329
f 297/344/306 313/370/330 298/346/308
f 305/345/307 321/371/331 306/347/309
f 298/346/308 314/372/332 299/348/310
f 306/347/309 322/357/319 307/349/311
f 318/363/325 335/373/333 319/367/327
f 311/365/326 328/374/334 312/368/328
f 320/369/329 335/373/333 336/375/335
f 312/368/328 329/376/336 313/370/330
f 320/369/329 337/377/337 321/371/331
f 313/370/330 330/378/338 314/372/332
f 321/371/331 338/379/339 322/357/319
f 315/356/318 330/378/338 331/380/340
f 323/358/320 338/379/339 339/381/341
f 316/359/321 331/380/340 332/382/342
f 323/358/320 340/383/343 324/360/322
f 316/359/321 333/384/344 317/361/323
f 324/360/322 341/385/345 325/362/324
f 318/363/325 333/384/344 334/386/346
f 311/365/326 326/387/22 327/388/347
f 482/389/24 325/362/324 341/385/345
f 338/379/339 354/390/348 339/381/341
f 332/382/342 346/391/349 347/392/350
f 339/381/341 355/393/351 340/383/343
f 333/384/344 347/392/350 348/394/352
f 341/385/345 355/393/351 356/395/353
f 334/386/346 348/394/352 349/396/354
f 327/388/347 326/397/22 342/398/355
f 482/399/24 341/385/345 356/395/353
f 334/386/346 350/400/356 335/373/333
f 328/374/334 342/398/355 343/401/357
f 336/375/335 350/400/356 351/402/358
f 328/374/334 344/403/359 329/376/336
f 336/375/335 352/404/360 337/377/337
f 329/376/336 345/405/361 330/378/338
f 337/377/337 353/406/362 338/379/339
f 331/380/340 345/405/361 346/391/349
f 342/398/355 358/407/363 343/401/357
f 351/402/358 365/408/364 366/409/365
f 344/403/359 358/407/363 359/410/366
f 351/402/358 367/411/367 352/404/360
f 344/403/359 360/412/368 345/405/361
f 352/404/360 368/413/369 353/406/362
f 345/405/361 361/414/370 346/391/349
f 354/390/348 368/413/369 369/415/371
f 347/392/350 361/414/370 362/416/372
f 355/393/351 369/415/371 370/417/373
f 348/394/352 362/416/372 363/418/374
f 356/395/353 370/417/373 371/419/375
f 349/396/354 363/418/374 364/420/376
f 342/398/355 326/421/22 357/422/377
f 482/423/24 356/395/353 371/419/375
f 349/396/354 365/408/364 350/400/356
f 361/424/370 377/425/378 362/426/372
f 370/427/373 384/428/379 385/429/380
f 363/430/374 377/425/378 378/431/381
f 371/432/375 385/429/380 386/433/382
f 364/434/376 378/431/381 379/435/383
f 357/436/377 326/437/22 372/438/384
f 482/439/24 371/432/375 386/433/382
f 364/434/376 380/440/385 365/441/364
f 357/436/377 373/442/386 358/443/363
f 366/444/365 380/440/385 381/445/387
f 359/446/366 373/442/386 374/447/388
f 366/444/365 382/448/389 367/449/367
f 359/446/366 375/450/390 360/451/368
f 368/452/369 382/448/389 383/453/391
f 361/424/370 375/450/390 376/454/392
f 369/455/371 383/453/391 384/428/379
f 381/445/387 395/456/393 396/457/394
f 373/442/386 389/458/395 374/447/388
f 381/445/387 397/459/396 382/448/389
f 374/447/388 390/460/397 375/450/390
f 382/448/389 398/461/398 383/453/391
f 375/450/390 391/462/399 376/454/392
f 384/428/379 398/461/398 399/463/400
f 377/425/378 391/462/399 392/464/401
f 384/428/379 400/465/402 385/429/380
f 378/431/381 392/464/401 393/466/403
f 385/429/380 401/467/404 386/433/382
f 379/435/383 393/466/403 394/468/405
f 372/438/384 326/469/22 387/470/406
f 482/471/24 386/433/382 401/467/404
f 379/435/383 395/456/393 380/440/385
f 372/438/384 388/472/407 373/442/386
f 400/465/402 414/473/408 415/474/409
f 392/464/401 408/475/410 393/466/403
f 400/465/402 416/476/411 401/467/404
f 394/468/405 408/475/410 409/477/412
f 387/470/406 326/478/22 402/479/413
f 482/480/24 401/467/404 416/476/411
f 394/468/405 410/481/414 395/456/393
f 387/470/406 403/482/415 388/472/407
f 396/457/394 410/481/414 411/483/416
f 388/472/407 404/484/417 389/458/395
f 396/457/394 412/485/418 397/459/396
f 389/458/395 405/486/419 390/460/397
f 397/459/396 413/487/420 398/461/398
f 390/460/397 406/488/421 391/462/399
f 399/463/400 413/487/420 414/473/408
f 391/462/399 407/489/422 392/464/401
f 411/483/416 427/490/423 412/485/418
f 404/484/417 420/491/424 405/486/419
f 412/485/418 428/492/425 413/487/420
f 405/486/419 421/493/426 406/488/421
f 414/473/408 428/492/425 429/494/427
f 406/488/421 422/495/428 407/489/422
f 414/473/408 430/496/429 415/474/409
f 407/489/422 423/497/430 408/475/410
f 416/476/411 430/496/429 431/498/431
f 409/477/412 423/497/430 424/499/432
f 402/479/413 326/500/22 417/501/433
f 482/502/24 416/476/411 431/498/431
f 409/477/412 425/503/434 410/481/414
f 402/479/413 418/504/435 403/482/415
f 410/481/414 426/505/436 411/483/416
f 403/482/415 419/506/437 404/484/417
f 431/498/431 445/507/438 446/508/439
f 424/499/432 438/509/440 439/510/441
f 417/501/433 326/511/22 432/512/442
f 482/513/24 431/498/431 446/508/439
f 424/499/432 440/514/443 425/503/434
f 417/501/433 433/515/444 418/504/435
f 425/503/434 441/516/445 426/505/436
f 418/504/435 434/517/446 419/506/437
f 426/505/436 442/518/447 427/490/423
f 419/506/437 435/519/448 420/491/424
f 427/490/423 443/520/449 428/492/425
f 420/491/424 436/521/450 421/493/426
f 429/494/427 443/520/449 444/522/451
f 421/493/426 437/523/452 422/495/428
f 429/494/427 445/507/438 430/496/429
f 423/497/430 437/523/452 438/509/440
f 434/517/446 450/524/453 435/519/448
f 442/518/447 458/525/454 443/520/449
f 435/519/448 451/526/455 436/521/450
f 444/522/451 458/525/454 459/527/456
f 436/521/450 452/528/457 437/523/452
f 444/522/451 460/529/458 445/507/438
f 437/523/452 453/530/459 438/509/440
f 445/507/438 461/531/460 446/508/439
f 439/510/441 453/530/459 454/532/461
f 432/512/442 326/533/22 447/534/462
f 482/535/24 446/508/439 461/531/460
f 439/510/441 455/536/463 440/514/443
f 432/512/442 448/537/464 433/515/444
f 440/514/443 456/538/465 441/516/445
f 434/517/446 448/537/464 449/539/466
f 441/516/445 457/540/467 442/518/447
f 454/532/461 468/541/468 469/542/469
f 447/534/462 326/543/22 462/544/470
f 482/545/24 461/531/460 476/546/471
f 454/532/461 470/547/472 455/536/463
f 447/534/462 463/548/473 448/537/464
f 455/536/463 471/549/474 456/538/465
f 449/539/466 463/548/473 464/550/475
f 456/538/465 472/551/476 457/540/467
f 449/539/466 465/552/477 450/524/453
f 457/540/467 473/553/478 458/525/454
f 450/524/453 466/554/479 451/526/455
f 459/527/456 473/553/478 474/555/480
f 452/528/457 466/554/479 467/556/481
f 459/527/456 475/557/482 460/529/458
f 453/530/459 467/556/481 468/541/468
f 460/529/458 476/546/471 461/531/460
f 472/551/476 9/4/4 473/553/478
f 466/554/479 4/1/1 5/8/8
f 473/553/478 10/10/10 474/555/480
f 467/556/481 5/8/8 6/12/12
f 474/555/480 480/14/14 475/557/482
f 468/541/468 6/12/12 7/16/16
f 475/557/482 481/18/18 476/546/471
f 469/542/469 7/16/16 477/19/19
f 462/544/470 326/558/22 1/21/21
f 482/559/24 476/546/471 481/18/18
f 469/542/469 478/26/26 470/547/472
f 463/548/473 1/21/21 2/27/27
f 470/547/472 479/30/30 471/549/474
f 464/550/475 2/27/27 3/31/31
f 471/549/474 8/32/32 472/551/476
f 465/552/477 3/31/31 4/1/1
f 4/1/1 3/31/31 13/2/2
f 9/4/4 8/32/32 21/5/5
f 4/1/1 14/3/3 15/7/7
f 9/4/4 22/6/6 23/9/9
f 5/8/8 15/7/7 16/11/11
f 10/10/10 23/9/9 24/13/13
f 6/12/12 16/11/11 17/15/15
f 480/14/14 24/13/13 25/17/17
f 477/19/19 7/16/16 17/15/15
f 477/19/19 18/20/20 19/25/25
f 2/27/27 1/21/21 11/23/23
f 478/26/26 19/25/25 20/29/29
f 2/27/27 12/28/28 13/2/2
f 479/30/30 20/29/29 21/5/5
f 13/2/2 12/28/28 27/33/33
f 20/29/29 35/49/47 36/35/35
f 13/2/2 28/34/34 29/36/36
f 21/5/5 36/35/35 37/37/37
f 14/3/3 29/36/36 30/38/38
f 22/6/6 37/37/37 38/39/39
f 15/7/7 30/38/38 31/40/40
f 23/9/9 38/39/39 39/41/41
f 16/11/11 31/40/40 32/42/42
f 24/13/13 39/41/41 40/43/43
f 17/15/15 32/42/42 33/44/44
f 18/20/20 33/44/44 34/48/46
f 11/23/23 26/46/45 27/33/33
f 19/25/25 34/48/46 35/49/47
f 31/40/40 46/65/61 47/50/48
f 39/41/41 54/66/62 55/51/49
f 32/42/42 47/50/48 48/52/50
f 33/44/44 48/52/50 49/56/52
f 26/46/45 41/54/51 42/57/53
f 34/48/46 49/56/52 50/58/54
f 28/34/34 27/33/33 42/57/53
f 36/35/35 35/49/47 50/58/54
f 28/34/34 43/59/55 44/61/57
f 36/35/35 51/60/56 52/62/58
f 29/36/36 44/61/57 45/63/59
f 37/37/37 52/62/58 53/64/60
f 30/38/38 45/63/59 46/65/61
f 38/39/39 53/64/60 54/66/62
f 51/60/56 50/58/54 65/67/63
f 43/59/55 58/83/77 59/69/65
f 52/62/58 51/60/56 66/68/64
f 44/61/57 59/69/65 60/71/67
f 53/64/60 52/62/58 67/70/66
f 46/65/61 45/63/59 60/71/67
f 53/64/60 68/72/68 69/74/70
f 46/65/61 61/73/69 62/75/71
f 55/51/49 54/66/62 69/74/70
f 47/50/48 62/75/71 63/77/73
f 48/52/50 63/77/73 64/81/75
f 41/54/51 56/79/74 57/82/76
f 50/58/54 49/56/52 64/81/75
f 42/57/53 57/82/76 58/83/77
f 69/74/70 84/99/91 85/84/78
f 62/75/71 77/100/92 78/85/79
f 63/77/73 78/85/79 79/89/81
f 56/79/74 71/87/80 72/90/82
f 65/67/63 64/81/75 79/89/81
f 58/83/77 57/82/76 72/90/82
f 65/67/63 80/91/83 81/93/85
f 58/83/77 73/92/84 74/94/86
f 66/68/64 81/93/85 82/95/87
f 59/69/65 74/94/86 75/96/88
f 68/72/68 67/70/66 82/95/87
f 60/71/67 75/96/88 76/98/90
f 69/74/70 68/72/68 83/97/89
f 61/73/69 76/98/90 77/100/92
f 73/92/84 88/116/106 89/101/93
f 81/93/85 96/117/107 97/102/94
f 75/96/88 74/94/86 89/101/93
f 83/97/89 82/95/87 97/102/94
f 75/96/88 90/103/95 91/105/97
f 84/99/91 83/97/89 98/104/96
f 77/100/92 76/98/90 91/105/97
f 85/84/78 84/99/91 99/106/98
f 77/100/92 92/107/99 93/109/101
f 78/85/79 93/109/101 94/113/103
f 72/90/82 71/87/80 86/111/102
f 79/89/81 94/113/103 95/115/105
f 72/90/82 87/114/104 88/116/106
f 80/91/83 95/115/105 96/117/107
f 93/109/101 92/107/99 107/118/108
f 93/109/101 108/119/109 109/124/112
f 86/111/102 101/121/110 102/125/113
f 95/115/105 94/113/103 109/124/112
f 87/114/104 102/125/113 103/127/115
f 95/115/105 110/126/114 111/128/116
f 88/116/106 103/127/115 104/129/117
f 96/117/107 111/128/116 112/130/118
f 89/101/93 104/129/117 105/131/119
f 98/104/96 97/102/94 112/130/118
f 90/103/95 105/131/119 106/133/121
f 99/106/98 98/104/96 113/132/120
f 92/107/99 91/105/97 106/133/121
f 99/106/98 114/134/122 115/123/111
f 111/128/116 126/150/136 127/135/123
f 104/129/117 119/151/137 120/136/124
f 113/132/120 112/130/118 127/135/123
f 105/131/119 120/136/124 121/138/126
f 113/132/120 128/137/125 129/139/127
f 107/118/108 106/133/121 121/138/126
f 114/134/122 129/139/127 130/141/129
f 108/119/109 107/118/108 122/140/128
f 108/119/109 123/142/130 124/146/132
f 102/125/113 101/121/110 116/144/131
f 110/126/114 109/124/112 124/146/132
f 102/125/113 117/147/133 118/149/135
f 110/126/114 125/148/134 126/150/136
f 103/127/115 118/149/135 119/151/137
f 123/142/130 138/166/151 139/154/139
f 116/144/131 131/168/152 132/155/140
f 125/148/134 124/146/132 139/154/139
f 118/149/135 117/147/133 132/155/140
f 125/148/134 140/156/141 141/158/143
f 118/149/135 133/157/142 134/159/144
f 126/150/136 141/158/143 142/160/145
f 120/136/124 119/151/137 134/159/144
f 128/137/125 127/135/123 142/160/145
f 120/136/124 135/161/146 136/163/148
f 128/137/125 143/162/147 144/164/149
f 122/140/128 121/138/126 136/163/148
f 129/139/127 144/164/149 145/153/138
f 123/142/130 122/140/128 137/165/150
f 143/162/147 142/160/145 157/169/153
f 135/161/146 150/185/167 151/171/155
f 144/164/149 143/162/147 158/170/154
f 137/165/150 136/163/148 151/171/155
f 144/164/149 159/172/156 160/174/158
f 138/166/151 137/165/150 152/173/157
f 138/166/151 153/175/159 154/179/161
f 131/168/152 146/177/160 147/180/162
f 140/156/141 139/154/139 154/179/161
f 132/155/140 147/180/162 148/182/164
f 140/156/141 155/181/163 156/183/165
f 133/157/142 148/182/164 149/184/166
f 141/158/143 156/183/165 157/169/153
f 134/159/144 149/184/166 150/185/167
f 147/180/162 146/177/160 161/186/168
f 155/181/163 154/179/161 169/188/170
f 147/180/162 162/187/169 163/190/172
f 155/181/163 170/189/171 171/191/173
f 148/182/164 163/190/172 164/192/174
f 156/183/165 171/191/173 172/193/175
f 149/184/166 164/192/174 165/194/176
f 158/170/154 157/169/153 172/193/175
f 150/185/167 165/194/176 166/196/178
f 158/170/154 173/195/177 174/197/179
f 151/171/155 166/196/178 167/198/180
f 160/174/158 159/172/156 174/197/179
f 153/175/159 152/173/157 167/198/180
f 153/175/159 168/200/182 169/188/170
f 166/196/178 165/194/176 180/203/183
f 173/195/177 188/219/197 189/205/185
f 166/196/178 181/204/184 182/206/186
f 174/197/179 189/205/185 190/207/187
f 168/200/182 167/198/180 182/206/186
f 168/200/182 183/208/188 184/212/190
f 161/186/168 176/210/189 177/213/191
f 169/188/170 184/212/190 185/214/192
f 162/187/169 177/213/191 178/215/193
f 170/189/171 185/214/192 186/216/194
f 163/190/172 178/215/193 179/217/195
f 172/193/175 171/191/173 186/216/194
f 164/192/174 179/217/195 180/203/183
f 172/193/175 187/218/196 188/219/197
f 184/212/190 199/236/212 200/220/198
f 178/215/193 177/213/191 192/221/199
f 185/214/192 200/220/198 201/223/201
f 178/215/193 193/222/200 194/224/202
f 186/216/194 201/223/201 202/225/203
f 180/203/183 179/217/195 194/224/202
f 188/219/197 187/218/196 202/225/203
f 180/203/183 195/226/204 196/228/206
f 189/205/185 188/219/197 203/227/205
f 182/206/186 181/204/184 196/228/206
f 189/205/185 204/229/207 205/231/209
f 183/208/188 182/206/186 197/230/208
f 183/208/188 198/232/210 199/236/212
f 176/210/189 191/234/211 192/221/199
f 203/227/205 218/253/227 219/237/213
f 197/230/208 196/228/206 211/238/214
f 205/231/209 204/229/207 219/237/213
f 198/232/210 197/230/208 212/239/215
f 198/232/210 213/241/217 214/245/219
f 191/234/211 206/243/218 207/246/220
f 200/220/198 199/236/212 214/245/219
f 192/221/199 207/246/220 208/248/222
f 200/220/198 215/247/221 216/249/223
f 193/222/200 208/248/222 209/250/224
f 201/223/201 216/249/223 217/251/225
f 194/224/202 209/250/224 210/252/226
f 203/227/205 202/225/203 217/251/225
f 195/226/204 210/252/226 211/238/214
f 208/248/222 207/246/220 222/254/228
f 215/247/221 230/270/242 231/256/230
f 208/248/222 223/255/229 224/257/231
f 216/249/223 231/256/230 232/258/232
f 209/250/224 224/257/231 225/259/233
f 218/253/227 217/251/225 232/258/232
f 210/252/226 225/259/233 226/261/235
f 218/253/227 233/260/234 234/262/236
f 211/238/214 226/261/235 227/263/237
f 220/240/216 219/237/213 234/262/236
f 213/241/217 212/239/215 227/263/237
f 213/241/217 228/265/239 229/269/241
f 206/243/218 221/267/240 222/254/228
f 215/247/221 214/245/219 229/269/241
f 227/263/237 226/261/235 241/271/243
f 235/264/238 234/262/236 249/273/245
f 228/265/239 227/263/237 242/272/244
f 228/265/239 243/275/247 244/279/249
f 221/267/240 236/277/248 237/280/250
f 230/270/242 229/269/241 244/279/249
f 222/254/228 237/280/250 238/282/252
f 230/270/242 245/281/251 246/283/253
f 223/255/229 238/282/252 239/284/254
f 231/256/230 246/283/253 247/285/255
f 224/257/231 239/284/254 240/286/256
f 233/260/234 232/258/232 247/285/255
f 225/259/233 240/286/256 241/271/243
f 233/260/234 248/287/257 249/273/245
f 245/281/251 260/303/271 261/288/258
f 238/282/252 253/304/272 254/289/259
f 247/285/255 246/283/253 261/288/258
f 240/286/256 239/284/254 254/289/259
f 248/287/257 247/285/255 262/290/260
f 240/286/256 255/291/261 256/293/263
f 248/287/257 263/292/262 264/294/264
f 242/272/244 241/271/243 256/293/263
f 249/273/245 264/294/264 265/296/266
f 243/275/247 242/272/244 257/295/265
f 243/275/247 258/297/267 259/301/269
f 236/277/248 251/299/268 252/302/270
f 245/281/251 244/279/249 259/301/269
f 238/282/252 237/280/250 252/302/270
f 264/294/264 279/321/287 280/305/273
f 258/297/267 257/295/265 272/306/274
f 258/297/267 273/307/275 274/311/277
f 251/299/268 266/309/276 267/312/278
f 260/303/271 259/301/269 274/311/277
f 252/302/270 267/312/278 268/314/280
f 260/303/271 275/313/279 276/315/281
f 253/304/272 268/314/280 269/316/282
f 261/288/258 276/315/281 277/317/283
f 254/289/259 269/316/282 270/318/284
f 263/292/262 262/290/260 277/317/283
f 255/291/261 270/318/284 271/320/286
f 263/292/262 278/319/285 279/321/287
f 257/295/265 256/293/263 271/320/286
f 276/315/281 291/338/302 292/322/288
f 270/318/284 269/316/282 284/323/289
f 278/319/285 277/317/283 292/322/288
f 270/318/284 285/324/290 286/326/292
f 278/319/285 293/325/291 294/327/293
f 271/320/286 286/326/292 287/328/294
f 280/305/273 279/321/287 294/327/293
f 273/307/275 272/306/274 287/328/294
f 273/307/275 288/330/296 289/334/298
f 266/309/276 281/332/297 282/335/299
f 275/313/279 274/311/277 289/334/298
f 267/312/278 282/335/299 283/337/301
f 275/313/279 290/336/300 291/338/302
f 268/314/280 283/337/301 284/323/289
f 288/330/296 303/355/317 304/343/305
f 281/332/297 296/340/303 297/344/306
f 290/336/300 289/334/298 304/343/305
f 282/335/299 297/344/306 298/346/308
f 290/336/300 305/345/307 306/347/309
f 283/337/301 298/346/308 299/348/310
f 291/338/302 306/347/309 307/349/311
f 284/323/289 299/348/310 300/350/312
f 293/325/291 292/322/288 307/349/311
f 286/326/292 285/324/290 300/350/312
f 293/325/291 308/351/313 309/353/315
f 287/328/294 286/326/292 301/352/314
f 294/327/293 309/353/315 310/342/304
f 288/330/296 287/328/294 302/354/316
f 299/348/310 314/372/332 315/356/318
f 308/351/313 307/349/311 322/357/319
f 301/352/314 300/350/312 315/356/318
f 309/353/315 308/351/313 323/358/320
f 302/354/316 301/352/314 316/359/321
f 309/353/315 324/360/322 325/362/324
f 303/355/317 302/354/316 317/361/323
f 303/355/317 318/363/325 319/367/327
f 297/344/306 296/340/303 311/365/326
f 305/345/307 304/343/305 319/367/327
f 297/344/306 312/368/328 313/370/330
f 305/345/307 320/369/329 321/371/331
f 298/346/308 313/370/330 314/372/332
f 306/347/309 321/371/331 322/357/319
f 318/363/325 334/386/346 335/373/333
f 311/365/326 327/388/347 328/374/334
f 320/369/329 319/367/327 335/373/333
f 312/368/328 328/374/334 329/376/336
f 320/369/329 336/375/335 337/377/337
f 313/370/330 329/376/336 330/378/338
f 321/371/331 337/377/337 338/379/339
f 315/356/318 314/372/332 330/378/338
f 323/358/320 322/357/319 338/379/339
f 316/359/321 315/356/318 331/380/340
f 323/358/320 339/381/341 340/383/343
f 316/359/321 332/382/342 333/384/344
f 324/360/322 340/383/343 341/385/345
f 318/363/325 317/361/323 333/384/344
f 338/379/339 353/406/362 354/390/348
f 332/382/342 331/380/340 346/391/349
f 339/381/341 354/390/348 355/393/351
f 333/384/344 332/382/342 347/392/350
f 341/385/345 340/383/343 355/393/351
f 334/386/346 333/384/344 348/394/352
f 334/386/346 349/396/354 350/400/356
f 328/374/334 327/388/347 342/398/355
f 336/375/335 335/373/333 350/400/356
f 328/374/334 343/401/357 344/403/359
f 336/375/335 351/402/358 352/404/360
f 329/376/336 344/403/359 345/405/361
f 337/377/337 352/404/360 353/406/362
f 331/380/340 330/378/338 345/405/361
f 342/398/355 357/422/377 358/407/363
f 351/402/358 350/400/356 365/408/364
f 344/403/359 343/401/357 358/407/363
f 351/402/358 366/409/365 367/411/367
f 344/403/359 359/410/366 360/412/368
f 352/404/360 367/411/367 368/413/369
f 345/405/361 360/412/368 361/414/370
f 354/390/348 353/406/362 368/413/369
f 347/392/350 346/391/349 361/414/370
f 355/393/351 354/390/348 369/415/371
f 348/394/352 347/392/350 362/416/372
f 356/395/353 355/393/351 370/417/373
f 349/396/354 348/394/352 363/418/374
f 349/396/354 364/420/376 365/408/364
f 361/424/370 376/454/392 377/425/378
f 370/427/373 369/455/371 384/428/379
f 363/430/374 362/426/372 377/425/378
f 371/432/375 370/427/373 385/429/380
f 364/434/376 363/430/374 378/431/381
f 364/434/376 379/435/383 380/440/385
f 357/436/377 372/438/384 373/442/386
f 366/444/365 365/441/364 380/440/385
f 359/446/366 358/443/363 373/442/386
f 366/444/365 381/445/387 382/448/389
f 359/446/366 374/447/388 375/450/390
f 368/452/369 367/449/367 382/448/389
f 361/424/370 360/451/368 375/450/390
f 369/455/371 368/452/369 383/453/391
f 381/445/387 380/440/385 395/456/393
f 373/442/386 388/472/407 389/458/395
f 381/445/387 396/457/394 397/459/396
f 374/447/388 389/458/395 390/460/397
f 382/448/389 397/459/396 398/461/398
f 375/450/390 390/460/397 391/462/399
f 384/428/379 383/453/391 398/461/398
f 377/425/378 376/454/392 391/462/399
f 384/428/379 399/463/400 400/465/402
f 378/431/381 377/425/378 392/464/401
f 385/429/380 400/465/402 401/467/404
f 379/435/383 378/431/381 393/466/403
f 379/435/383 394/468/405 395/456/393
f 372/438/384 387/470/406 388/472/407
f 400/465/402 399/463/400 414/473/408
f 392/464/401 407/489/422 408/475/410
f 400/465/402 415/474/409 416/476/411
f 394/468/405 393/466/403 408/475/410
f 394/468/405 409/477/412 410/481/414
f 387/470/406 402/479/413 403/482/415
f 396/457/394 395/456/393 410/481/414
f 388/472/407 403/482/415 404/484/417
f 396/457/394 411/483/416 412/485/418
f 389/458/395 404/484/417 405/486/419
f 397/459/396 412/485/418 413/487/420
f 390/460/397 405/486/419 406/488/421
f 399/463/400 398/461/398 413/487/420
f 391/462/399 406/488/421 407/489/422
f 411/483/416 426/505/436 427/490/423
f 404/484/417 419/506/437 420/491/424
f 412/485/418 427/490/423 428/492/425
f 405/486/419 420/491/424 421/493/426
f 414/473/408 413/487/420 428/492/425
f 406/488/421 421/493/426 422/495/428
f 414/473/408 429/494/427 430/496/429
f 407/489/422 422/495/428 423/497/430
f 416/476/411 415/474/409 430/496/429
f 409/477/412 408/475/410 423/497/430
f 409/477/412 424/499/432 425/503/434
f 402/479/413 417/501/433 418/504/435
f 410/481/414 425/503/434 426/505/436
f 403/482/415 418/504/435 419/506/437
f 431/498/431 430/496/429 445/507/438
f 424/499/432 423/497/430 438/509/440
f 424/499/432 439/510/441 440/514/443
f 417/501/433 432/512/442 433/515/444
f 425/503/434 440/514/443 441/516/445
f 418/504/435 433/515/444 434/517/446
f 426/505/436 441/516/445 442/518/447
f 419/506/437 434/517/446 435/519/448
f 427/490/423 442/518/447 443/520/449
f 420/491/424 435/519/448 436/521/450
f 429/494/427 428/492/425 443/520/449
f 421/493/426 436/521/450 437/523/452
f 429/494/427 444/522/451 445/507/438
f 423/497/430 422/495/428 437/523/452
f 434/517/446 449/539/466 450/524/453
f 442/518/447 457/540/467 458/525/454
f 435/519/448 450/524/453 451/526/455
f 444/522/451 443/520/449 458/525/454
f 436/521/450 451/526/455 452/528/457
f 444/522/451 459/527/456 460/529/458
f 437/523/452 452/528/457 453/530/459
f 445/507/438 460/529/458 461/531/460
f 439/510/441 438/509/440 453/530/459
f 439/510/441 454/532/461 455/536/463
f 432/512/442 447/534/462 448/537/464
f 440/514/443 455/536/463 456/538/465
f 434/517/446 433/515/444 448/537/464
f 441/516/445 456/538/465 457/540/467
f 454/532/461 453/530/459 468/541/468
f 454/532/461 469/542/469 470/547/472
f 447/534/462 462/544/470 463/548/473
f 455/536/463 470/547/472 471/549/474
f 449/539/466 448/537/464 463/548/473
f 456/538/465 471/549/474 472/551/476
f 449/539/466 464/550/475 465/552/477
f 457/540/467 472/551/476 473/553/478
f 450/524/453 465/552/477 466/554/479
f 459/527/456 458/525/454 473/553/478
f 452/528/457 451/526/455 466/554/479
f 459/527/456 474/555/480 475/557/482
f 453/530/459 452/528/457 467/556/481
f 460/529/458 475/557/482 476/546/471
f 472/551/476 8/32/32 9/4/4
f 466/554/479 465/552/477 4/1/1
f 473/553/478 9/4/4 10/10/10
f 467/556/481 466/554/479 5/8/8
f 474/555/480 10/10/10 480/14/14
f 468/541/468 467/556/481 6/12/12
f 475/557/482 480/14/14 481/18/18
f 469/542/469 468/541/468 7/16/16
f 469/542/469 477/19/19 478/26/26
f 463/548/473 462/544/470 1/21/21
f 470/547/472 478/26/26 479/30/30
f 464/550/475 463/548/473 2/27/27
f 471/549/474 479/30/30 8/32/32
f 465/552/477 464/550/475 3/31/31
