# This file uses centimeters as units for non-parametric coordinates.

v -0.275551 -0.051643 -0.815827
v -0.468646 -0.075432 -0.886699
v -0.243142 -0.285439 -0.755043
v -0.323180 0.370720 -0.869269
v -0.535909 0.350489 -0.949810
v -0.247819 -0.467033 -0.717896
v -0.392461 -0.287163 -0.818323
v -0.335901 -0.284691 -0.704506
v -0.435232 0.329582 -0.777928
v -0.342779 -0.465492 -0.751643
v -0.386852 -0.088036 -0.738717
v -0.294319 -0.543039 -0.653250
v -0.430421 0.120781 -0.818283
v -0.318745 0.159540 -0.902510
v -0.521657 0.137522 -0.978215
v -0.120289 0.624428 -0.724926
v -0.128353 0.748606 -1.039585
v -0.128186 0.452005 -1.106474
v 0.246495 0.472788 -1.112594
v 0.085126 -0.642877 -0.742530
v -0.064103 0.119547 -1.060527
v -0.140500 0.336311 -0.807344
v -0.155315 0.511162 -0.744695
v -0.159718 0.655161 -1.087954
v 0.316209 0.305519 -0.694498
v 0.357929 0.475563 -0.598069
v 0.274682 0.658686 -1.084781
v 0.354399 0.590172 -0.590168
v -0.115718 0.220924 -0.844810
v -0.085658 0.092354 -0.861941
v -0.094092 0.290857 -1.093952
v 0.222953 0.308771 -1.102396
v 0.197918 0.129877 -1.068460
v 0.084338 -0.360435 -0.855727
v 0.276348 0.197807 -0.759694
v 0.233908 0.080803 -0.792203
v -0.031094 -0.354149 -0.861495
v -0.043190 -0.355751 -0.791351
v 0.088411 -0.370171 -0.757112
v 0.272339 0.768457 -1.036372
v 0.023379 -0.362556 -0.805085
v 0.074148 0.086586 -0.860091
v 0.080266 0.209480 -0.838059
v 0.087948 0.320961 -0.783910
v 0.101608 0.493279 -0.701976
v 0.117095 0.607292 -0.691607
v 0.071993 0.758539 -1.068844
v 0.057482 0.656916 -1.117234
v 0.059157 0.462168 -1.140371
v 0.064622 0.299448 -1.128891
v 0.067218 0.124353 -1.094815
v 0.027297 -0.356987 -0.889443
v 0.240742 0.691584 -1.176941
v 0.263610 0.860971 -1.073362
v -0.063047 0.397320 -1.259221
v 0.099341 0.380840 -1.245347
v -0.060916 0.897089 -1.103581
v -0.085101 0.719675 -1.189404
v 0.013721 0.399105 -1.284300
v 0.079612 0.900904 -1.167525
v 0.119299 0.762033 -1.004315
v 0.050804 0.738338 -1.250709
v 0.086631 0.641245 -1.100568
v 0.027288 0.375116 -1.204190
v -0.538272 -0.265741 -0.491607
v -0.542435 -0.411417 -0.499512
v -0.478021 -0.236015 -0.609969
v -0.586068 -0.372505 -0.593903
v -0.615111 -0.374094 -0.501527
v -0.497787 -0.389915 -0.621939
v 0.192700 -0.025612 -0.854490
v 0.215350 0.138695 -0.871630
v 0.134179 -0.352287 -0.748123
v -0.061981 0.238977 -1.000959
v 0.312723 0.153254 -0.975589
v 0.165127 0.194284 -1.082029
v -0.027871 0.017679 -0.944076
v 0.110600 -0.350258 -0.839069
v 0.195773 -0.344429 -0.796777
v 0.036517 -0.368217 -0.788304
v 0.140200 -0.001577 -1.018715
v 0.271010 -0.015326 -0.947168
v -0.033187 0.018061 -0.994197
v -0.388064 -0.027138 -0.866389
v -0.085892 -0.480736 -0.761784
v -0.248168 -0.435478 -0.728724
v -0.229855 -0.159248 -0.759853
v -0.179599 -0.457512 -0.699992
v -0.275550 -0.016134 -1.005965
v -0.258141 -0.022362 -0.787427
v -0.041330 -0.160269 -0.905287
v -0.178763 -0.458626 -0.791566
v -0.226970 -0.168509 -0.932553
v -0.338494 -0.163124 -0.832031
v 0.196129 -0.083580 -0.827019
v 0.282462 -0.346565 -0.742987
v 0.277643 -0.199928 -0.701451
v 0.315044 -0.361320 -0.679515
v 0.443396 -0.064629 -0.730470
v 0.247952 -0.090508 -0.714304
v 0.451152 -0.187523 -0.707471
v 0.440709 -0.356209 -0.693138
v 0.235335 -0.195152 -0.799169
v 0.004379 0.452799 -1.001040
v 0.467933 0.429499 -0.951931
v 0.182926 -0.233953 -0.921232
v 0.289265 -0.241463 -0.846734
v -0.011889 0.664942 -0.963762
v 0.310118 0.289833 -0.710452
v 0.234023 0.444391 -1.132545
v 0.493277 0.614786 -0.903449
v 0.051520 0.159708 -0.977543
v 0.100605 -0.064611 -0.927501
v 0.095605 -0.226250 -0.852527
v 0.417085 0.148386 -0.952408
v 0.361009 -0.073126 -0.922753
v 0.235238 0.156580 -1.093284
v 0.290669 0.125786 -0.746953
v 0.245172 0.667353 -1.089989
v 0.322272 0.526436 -0.617509
v 0.215541 -0.062384 -1.017558
v 0.262395 -0.076500 -0.765379
v 0.209497 -0.233818 -0.748813
v 0.001236 -0.182213 -0.772654
v -0.002957 -0.352745 -0.755707
v -0.057590 -0.172903 -0.929933
v -0.160212 -0.170219 -0.824753
v -0.060735 -0.338829 -0.867619
v 0.041465 -0.324272 -0.826366
v -0.145835 -0.348000 -0.802010
v 0.064082 -0.164175 -0.920558
v -0.275551 -0.051643 -0.815827
v -0.468646 -0.075432 -0.886699
v -0.243142 -0.285439 -0.755043
v -0.323180 0.370720 -0.869269
v -0.535909 0.350489 -0.949810
v -0.247819 -0.467033 -0.717896
v -0.392461 -0.287163 -0.818323
v -0.335901 -0.284691 -0.704506
v -0.435232 0.329582 -0.777928
v -0.342779 -0.465492 -0.751643
v -0.386852 -0.088036 -0.738717
v -0.294319 -0.543039 -0.653250
v -0.430421 0.120781 -0.818283
v -0.318745 0.159540 -0.902510
v -0.521657 0.137522 -0.978215
v -0.551078 0.107721 -0.960547
v -0.252762 0.099176 -1.066333
v -0.140152 0.525415 -1.122496
v -0.414404 0.093241 -1.049489
v -0.353209 0.103540 -0.939907
v -0.253180 -0.142614 -0.959211
v -0.499029 -0.137611 -0.851681
v -0.341838 -0.169945 -0.828085
v -0.378170 -0.142996 -0.917506
v -0.349099 0.509653 -0.962508
v -0.386072 0.540796 -1.130699
v -0.581286 0.528223 -1.014364
v -0.426124 0.344065 -1.119375
v -0.150055 0.325846 -1.099304
v -0.347280 0.316538 -0.956692
v -0.579724 0.330881 -1.000007
v -0.264320 0.192087 -0.970532
v -0.018980 -0.285103 -0.878941
v -0.162557 -0.268700 -0.892227
v 0.062375 0.175974 -1.070259
v -0.102003 -0.249807 -0.909251
v -0.088562 -0.295982 -0.824823
v -0.127230 0.171137 -1.108222
v -0.092601 0.158442 -0.907173
v -0.221133 0.024164 -1.002493
v 0.039589 0.006922 -1.017192
v -0.105688 0.033152 -1.034889
v -0.079404 -0.018379 -0.880637
v 0.691509 0.018837 -0.740580
v 0.748219 0.223808 -0.796012
v 0.488669 -0.357552 -0.731034
v 0.584362 0.161493 -0.903711
v 0.468881 -0.373573 -0.772415
v 0.588164 0.142067 -0.768976
v 0.584357 0.014885 -0.875916
v 0.577572 0.017921 -0.775494
v 0.443649 -0.358330 -0.732234
v -0.630730 -0.595758 -0.450631
v -0.579278 -0.200371 -0.581619
v -0.692306 -0.154642 -0.475187
v -0.607920 -0.440866 -0.516267
v -0.657978 -0.420572 -0.454807
v -0.595703 -0.157526 -0.508605
v -0.612101 -0.423731 -0.480224
v -0.367787 0.101891 -0.710826
v -0.824852 0.072884 -0.686282
v -0.643518 -0.287773 -0.643269
v -0.358263 0.239143 -0.673786
v -0.628344 0.041845 -0.539412
v -0.606669 0.124857 -0.918396
v -0.898087 0.221291 -0.675599
v -0.385189 -0.041405 -0.717233
v -0.429697 -0.260597 -0.703921
v -0.749715 -0.071663 -0.683251
v -0.644415 0.287287 -0.955272
v -0.660985 0.178625 -0.473949
v -0.569759 -0.059166 -0.858279
v -0.532681 -0.301094 -0.764826
v -0.600025 -0.072105 -0.577324
v -0.550387 -0.260460 -0.600813
v -0.756877 0.000158 -0.473893
v -0.606370 0.002569 -0.545111
v -0.830992 0.004463 -0.618413
v -0.675577 -0.362314 -0.501918
v -0.687278 -0.337486 -0.575015
v -0.593662 -0.376215 -0.546072
v 0.581891 0.072580 -0.910443
v 0.514942 -0.133522 -0.857948
v 0.426299 0.335291 -1.101642
v 0.715235 0.267509 -0.870995
v 0.174884 -0.509987 -0.729580
v 0.423657 -0.332787 -0.760218
v 0.213494 -0.623010 -0.709566
v 0.323237 -0.141256 -0.954866
v 0.283738 -0.330727 -0.831249
v 0.419117 -0.092354 -0.709854
v 0.322163 -0.305672 -0.673529
v 0.515831 0.196068 -0.578164
v 0.370611 0.094645 -1.058429
v 0.459242 0.036385 -0.663032
v 0.247495 -0.513588 -0.648422
v 0.532705 -0.250742 -0.483172
v 0.537729 -0.421778 -0.494718
v 0.463822 -0.216743 -0.618494
v 0.619861 -0.375437 -0.494385
v 0.487581 -0.394341 -0.633692
v 0.662489 -0.204767 -0.467232
v -0.000170 0.991755 -1.112348
v -0.044048 1.099802 -1.001463
v 0.070167 0.874447 -1.208554
v 0.208307 0.605785 -1.294834
v 0.281205 0.969919 -0.925928
v 0.299894 0.928858 -0.982799
v 0.251400 1.017466 -1.073248
v 0.303882 1.084177 -0.920193
v 0.249821 0.886866 -1.163002
v 0.294751 0.856104 -1.079533
v 0.322832 0.393505 -1.247156
v 0.274396 0.614208 -1.276209
v -0.114392 0.844770 0.719338
v -0.313167 0.802977 0.983041
v -0.280311 0.970900 0.794080
v -0.264475 0.883116 0.720015
v -0.344526 0.921186 0.913014
v -0.378303 0.816786 0.867674
v -0.405282 0.990198 -0.924609
v -0.086692 1.074869 -1.001261
v -0.237338 1.430336 -0.877807
v -0.166429 1.047325 -0.839364
v -0.234779 1.042398 -1.046959
v -0.436566 1.226954 -0.927595
v -0.439401 1.392265 -0.851799
v -0.334582 1.288202 -0.991583
v -0.163447 1.287348 -0.954739
v -0.250126 1.234505 -0.848246
v -0.363319 1.440241 -0.902348
v -0.296807 1.381111 -0.807096
v -0.348663 1.233419 -0.385715
v -0.465509 1.272451 -0.341210
v -0.321957 1.250538 0.056314
v -0.935680 1.166187 -0.109362
v -0.895748 1.144932 0.064114
v -0.405131 1.105625 -0.106922
v -0.408073 1.367924 -0.146712
v -0.196881 1.231113 0.052241
v -0.301532 1.062290 -0.123423
v -0.255872 1.322666 -0.155855
v -0.620428 1.284048 -0.264711
v -0.799494 1.229557 -0.171634
v -0.711508 1.204533 0.062386
v -0.581036 1.343784 -0.106838
v -0.934151 1.196980 -0.024506
v -0.496036 1.246723 0.058463
v -0.533901 1.144215 -0.084070
v -0.890796 1.093678 -0.013676
v -0.784398 1.270390 -0.053727
v -0.723593 1.137211 -0.043410
v 0.129630 1.508169 -0.459419
v 0.027501 1.468939 -0.479954
v 0.651513 1.452719 -0.421817
v 0.309251 1.303581 -0.785271
v 0.392017 1.363014 -0.735472
v 0.548460 1.511435 -0.307125
v 0.276783 1.504326 -0.664328
v 0.614254 1.518103 -0.386692
v 0.243134 1.324942 -0.480720
v 0.181166 1.458870 -0.709592
v 0.154893 1.265005 -0.494670
v 0.576280 1.429174 -0.330361
v -0.033525 1.213633 -0.888246
v -0.137831 1.222879 -0.918761
v -0.047413 1.147898 -1.018640
v -0.029068 0.960613 -1.265105
v -0.012793 0.965143 -1.065021
v 0.040058 0.910074 -1.189417
v 0.048559 1.004086 -1.217710
v -0.158436 1.042597 -1.117683
v -0.054041 1.128672 -0.999735
v -0.215235 1.156549 -1.180041
v -0.150969 1.013819 -1.035213
v -0.178497 1.040598 -1.172491
v -0.115304 1.118402 -1.181839
v -0.213042 1.222742 -0.968431
v -0.048095 1.099115 -0.899096
v -0.730429 0.903618 -0.707180
v -0.633751 0.958763 -0.703279
v -1.055164 0.520132 -0.538227
v -0.756694 0.884695 -0.358807
v -0.849769 0.831961 -0.386878
v -1.001981 0.532066 -0.680263
v -0.859356 0.924459 -0.533480
v -1.066755 0.549278 -0.608196
v -0.684397 0.738884 -0.569822
v -0.767163 0.989248 -0.515607
v -0.582667 0.771856 -0.559841
v -0.970290 0.492699 -0.612894
v 0.271207 0.953400 0.611077
v 0.228850 1.318043 -0.038235
v -0.021283 0.921251 0.359744
v -0.628875 1.220047 0.588564
v -0.009818 1.124821 -0.049750
v -0.705474 1.260668 0.304655
v -0.620936 1.383440 0.339997
v 0.477121 1.188295 0.291809
v -0.566110 1.366486 0.505926
v -0.884167 1.389206 0.599026
v -0.180849 1.079010 0.398721
v -0.168490 1.251957 0.072188
v 0.020336 1.437410 0.149167
v 0.159461 1.323502 0.443062
v 0.026887 1.139069 0.605920
v -0.670014 1.164093 0.464633
v -0.211243 1.233643 0.613425
v -0.323441 1.128448 0.422915
v -0.330534 1.277910 0.156282
v -0.195700 1.462984 0.220211
v -0.129938 1.369537 0.473962
v -0.369376 1.383713 0.494707
v -0.407320 1.445177 0.283185
v -0.507738 1.280779 0.232997
v -0.484866 1.156540 0.444666
v -0.427645 1.260361 0.607697
v 0.347950 1.255928 -0.566891
v -0.159023 1.352409 -0.664988
v 0.128299 1.296894 -0.067901
v 0.370498 1.495882 0.228805
v -0.116035 1.471668 -0.046115
v 0.136134 1.515749 0.327583
v 0.214753 1.607088 0.203823
v 0.348459 1.435698 0.809142
v 0.223851 1.456560 0.329435
v 0.177689 1.400087 0.140170
v 0.009613 1.567797 0.114382
v 0.115427 1.568501 -0.070169
v 0.348180 1.458622 -0.023187
v 0.336213 1.367453 -0.298657
v 0.151717 1.363911 0.017880
v -0.072115 1.535801 0.034469
v -0.036099 1.479406 -0.384732
v -0.362639 1.227160 0.330905
v -0.314840 1.001968 0.453261
v -0.292467 1.126572 0.611896
v -0.503784 1.166430 0.379225
v -0.723438 0.999878 0.424292
v -0.449417 1.021225 0.604891
v -0.456623 0.977325 0.468537
v -0.724762 0.937805 0.554927
v -0.728134 0.911682 0.477650
v -0.384666 0.845900 0.755186
v -0.487659 0.913984 0.727316
v -0.564560 0.731504 0.789561
v -0.462540 0.862686 0.653582
v -0.622516 0.779799 0.773722
v -0.586407 0.770096 0.704884
v -0.302377 1.176323 -0.834329
v 0.012517 1.126747 -0.779317
v -0.266557 0.838085 -1.231704
v -0.075549 0.853830 -0.960019
v -0.150441 0.756647 -1.199213
v -0.142196 0.863277 -1.256056
v -0.251553 1.021936 -1.004434
v -0.077372 0.843256 -1.029116
v -0.066753 1.044443 -0.947937
v -0.852385 1.289038 -0.398658
v -0.824811 1.371006 -0.214395
v -0.780059 1.292744 -0.167524
v -0.784689 1.198217 -0.304336
v -1.114280 1.205938 -0.262372
v -0.645453 1.310110 -0.474268
v -0.485549 1.097281 -0.379276
v -0.467050 1.339695 -0.109497
v -0.552079 1.423054 -0.176825
v -0.603094 1.377371 -0.336680
v -0.347598 1.420935 -0.465177
v -0.196326 1.482349 -0.169702
v -0.052910 1.234135 -0.143440
v -0.063992 1.031469 -0.488488
v -0.303734 1.315086 -0.683956
v -0.838142 1.356771 -0.316444
v 0.220180 1.447914 -0.613961
v 0.205023 1.467413 -0.507723
v 0.083303 1.407066 -0.580616
v 0.545675 1.330603 -0.411582
v 0.551798 1.306540 -0.307100
v 0.414821 1.358587 -0.352999
v 0.022250 1.044870 -0.919990
v -0.225220 0.934214 -0.956327
v -0.126045 1.382820 -0.837344
v -0.035498 1.193489 -0.734726
v -0.161343 1.379524 -0.772362
v -0.214316 1.374308 -0.886208
v -0.059232 1.236702 -0.749198
v -0.229402 1.086710 -0.974965
v -0.036327 1.162210 -0.924810
v 0.238287 1.369774 -0.862829
v 0.182035 1.270622 -0.749499
v 0.251241 1.278252 -0.864161
v 0.337720 1.356804 -0.825574
v 0.124555 1.406044 -0.664215
v 0.294967 1.310598 -0.541196
v 0.323139 1.479790 -0.733029
v 0.294112 1.367958 -0.654572
v 0.375809 1.418907 -0.740491
v 0.385982 1.502541 -0.669858
v 0.303328 1.415197 -0.453639
v 0.216687 1.400276 -0.591775
v -0.372104 1.385609 -0.210220
v -0.363306 1.337103 -0.438827
v -0.549396 1.083548 -0.264855
v -0.880750 1.032463 -0.591940
v -0.819267 0.984917 -0.657593
v -1.040712 0.899391 -0.651511
v -0.793493 1.131247 -0.487571
v -0.702279 1.092232 -0.617003
v -0.733368 0.982031 -0.462186
v -0.845819 0.910177 -0.543611
v -0.675976 1.023336 -0.396494
v -0.700204 1.236227 -0.410491
v -0.600922 1.190300 -0.568936
v -0.561146 1.320166 -0.318964
v -0.615266 1.056845 -0.331375
v -0.489061 1.271139 -0.510138
v -0.764547 1.334965 -0.040110
v -0.754809 1.345980 0.171103
v -0.713881 1.229158 0.163013
v -0.706840 1.204716 0.030915
v -1.098525 1.196705 0.052811
v -0.536637 1.345646 -0.148722
v -0.403455 1.117649 -0.052710
v -0.437835 1.168413 0.214053
v -0.495065 1.338671 0.239999
v -0.521284 1.417881 -0.015984
v -0.248529 1.498463 -0.079614
v -0.171246 1.387621 0.323731
v -0.017233 1.171343 0.289770
v 0.030024 1.086048 -0.116134
v -0.114040 1.394491 -0.318991
v -0.756634 1.380390 0.039119
v -0.701018 1.201174 0.209472
v -0.596557 1.132402 0.384192
v -0.620316 1.118425 0.249352
v -0.955388 1.024874 0.345917
v -0.474986 1.266130 0.099294
v -0.333219 1.119249 0.114286
v -0.302421 1.135698 0.344286
v -0.440228 1.322771 0.218416
v -0.250817 1.388216 0.126656
v 0.016197 1.160082 0.313481
v -0.012036 1.144703 0.010009
v -0.187575 1.362736 -0.069347
v -0.678158 1.243670 0.294111
v -0.114430 0.989851 0.744428
v -0.313362 1.169235 0.518189
v -0.475712 0.778837 0.967624
v -0.471426 0.893372 0.634191
v -0.584695 0.806959 0.880605
v -0.557465 0.879606 0.960670
v -0.510007 0.907211 0.709776
v -0.414656 1.014603 0.669142
v -0.276161 0.928801 0.797430
v 0.341044 1.324831 0.298257
v -0.051897 1.315359 -0.306616
v -0.022171 1.157778 0.207315
v -0.877841 1.492401 0.602413
v -0.246217 1.155689 -0.190590
v -0.922531 1.502640 0.551744
v -0.871626 1.558838 0.508386
v 0.284980 1.327930 -0.071986
v -0.946867 1.612091 0.662996
v -0.181135 1.304399 0.259247
v -0.369357 1.298954 -0.067868
v -0.223939 1.456745 -0.152845
v 0.009480 1.552736 0.118893
v 0.127978 1.415743 0.314247
v -0.755819 1.531725 0.338058
v -0.806300 1.407885 0.377081
v -0.725980 1.394257 0.501947
v -0.681485 1.460617 0.578290
v -0.664842 1.583664 0.452376
v -0.178913 1.440536 0.409604
v -0.358248 1.347628 0.313328
v -0.501498 1.362507 0.065811
v -0.404162 1.525928 0.011224
v -0.182157 1.605639 0.211498
v -0.420230 1.610033 0.333613
v -0.579682 1.546618 0.173222
v -0.645689 1.395800 0.212644
v -0.538046 1.375198 0.393419
v -0.430231 1.448044 0.487091
v 0.179524 1.040586 0.733348
v 0.105065 1.053190 0.791128
v 0.037317 0.904295 0.846608
v 0.306746 0.893311 0.691302
v -0.140963 0.924376 0.982904
v -0.286331 0.996441 1.056634
v -0.588095 1.521038 1.119386
v -0.008260 1.100157 0.859050
v -0.167150 1.175962 0.931607
v -0.407187 1.105236 1.100736
v -0.315141 1.257154 1.010051
v -0.029386 1.046783 0.476573
v -0.090277 1.045547 0.559183
v -0.168548 0.866470 0.605559
v -0.017197 0.973129 0.407633
v -0.306876 0.908583 0.819618
v -0.386299 0.979933 0.949818
v -0.188441 1.060364 0.675729
v -0.295912 1.138273 0.807920
v -0.395250 1.238859 0.928501
v -0.471617 1.092266 1.034411
v 0.240742 0.691584 -1.176941
v 0.263610 0.860971 -1.073362
v -0.063047 0.397350 -1.259221
v 0.099341 0.380871 -1.245347
v -0.060916 0.897089 -1.103581
v -0.085101 0.719675 -1.189404
v 0.013721 0.399105 -1.284300
v 0.079612 0.900904 -1.167525
v 0.119299 0.762033 -1.004315
v 0.050804 0.738338 -1.250709
v 0.086631 0.641245 -1.100568
v 0.027288 0.375116 -1.204190
v 0.234948 0.290064 -1.068692
v -0.027825 0.635889 -1.107067
v 0.222386 0.111231 -1.034330
v 0.196305 0.507395 -1.063243
v 0.231620 0.403269 -1.053929
v 0.191143 0.383419 -1.228659
v -0.013876 0.488672 -1.150582
v 0.144843 0.782053 -1.130346
v 0.175175 0.085199 -1.143246
v 0.051565 0.105158 -1.075474
v 0.169674 0.603588 -1.214515
v 0.184413 -0.247398 -0.881566
v 0.206036 -0.084539 -0.955750
v 0.069415 -0.117346 -0.989796
v 0.165392 -0.128103 -1.027685
v 0.254851 -0.096487 -0.980868
v 0.022473 0.264185 -1.131023
v -0.083878 0.768930 -1.129198
v 0.081501 0.342295 -1.057547
v 0.107914 0.604548 -1.039738
v 0.258503 0.733362 -1.094156
v 0.040819 0.199808 -1.069007
v -0.141392 0.606745 -1.111237
v 0.085239 0.606058 -1.196240
v 0.118893 0.471689 -1.017909
v 0.222732 0.571360 -1.107447
v 0.120375 0.793512 -1.129777
v -0.129330 0.422770 -1.131642
v 0.002981 0.227304 -1.186585
v 0.105952 0.232599 -1.146632
v -0.111956 0.231607 -1.135098
v 0.040364 0.421793 -1.203542
v 0.165392 0.376307 -1.138470
v -0.211010 1.379051 -0.753871
v -0.489007 1.118265 -0.959032
v -0.349434 1.002527 -1.006184
v -0.543911 1.482321 -0.502390
v -0.089252 1.267845 -0.787649
v -0.409149 1.098381 -0.744437
v -0.335590 1.302423 -0.906216
v -0.351290 1.438164 -0.691245
v -0.662794 1.387640 -0.564551
v -0.468418 1.410851 -0.809096
v -0.608212 1.475210 -0.554826
v -0.573603 1.227959 -0.841849
v -0.466392 1.210991 -0.697165
v -0.236026 1.198465 -0.924730
v -0.297025 0.960854 -0.756042
v -0.597596 1.372869 -0.502966
v -0.394887 1.303719 -0.599716
v -0.132545 1.438648 -0.108461
v -0.021721 1.345875 -0.151130
v -0.673897 1.484623 -0.090937
v -0.510603 1.502476 0.063035
v -0.526557 1.373632 -0.471223
v -0.337851 1.242710 -0.130406
v -0.324071 1.518194 -0.378267
v -0.200696 1.171850 -0.255153
v -0.162840 1.445242 -0.522946
v -0.617365 1.469488 -0.279563
v -0.478935 1.579960 -0.203968
v -0.596753 1.548176 -0.037958
v -0.319480 1.516987 -0.040441
v -0.447317 1.358921 -0.075741
v -0.583716 1.408817 0.027758
v 0.650879 1.223257 -0.556562
v 0.669606 1.329855 -0.382087
v 0.559806 1.342932 -0.386783
v 0.897971 1.109808 -0.450545
v 0.540293 1.244362 -0.577677
v 0.568606 1.107550 -0.297456
v 0.783888 1.200827 -0.509510
v 0.924354 1.136496 -0.347802
v 0.809892 1.254217 -0.368489
v 0.687832 1.092581 -0.312717
v 0.461468 1.109716 -0.287617
v 0.816116 1.026358 -0.308204
v -0.136219 1.354406 -0.482859
v -0.091853 1.203436 -0.500116
v -0.192154 1.476583 -0.347254
v -0.506538 1.627306 0.348243
v -0.259836 1.524067 -0.202142
v -0.334836 1.586552 -0.030765
v 0.138067 1.201269 -0.266710
v 0.087305 1.255314 -0.234718
v 0.201997 1.379492 -0.310516
v 0.250013 1.209585 -0.321103
v 0.063101 1.499836 -0.203585
v -0.092701 1.551838 -0.099464
v 0.026142 1.375004 -0.160976
v -0.102421 1.441181 -0.055128
v -0.240489 1.493029 0.075380
v -0.231557 1.604893 0.035946
v 0.539164 1.228981 -0.577413
v 0.555100 1.189705 -0.702280
v 0.105331 1.330956 -0.719113
v 0.469949 0.804255 -1.104777
v 0.305426 0.853281 -1.117741
v 0.212195 1.093468 -0.654576
v 0.348510 1.302910 -0.768723
v 0.037516 1.342003 -0.592046
v 0.141653 1.073904 -0.513624
v 0.317172 1.376091 -0.641594
v 0.577129 1.158119 -0.862975
v 0.542617 0.985941 -1.003851
v 0.291956 1.012308 -1.085463
v 0.401099 1.231256 -0.925429
v 0.404001 0.846766 -1.162689
v 0.241472 1.223490 -0.914705
v 0.280409 1.081154 -0.795332
v 0.333059 0.770716 -1.065325
v 0.425351 1.015985 -1.071254
v 0.326605 0.900599 -0.936834
v -0.612464 1.066460 -0.824167
v -0.194777 1.090738 -0.963925
v -0.129095 1.178688 -0.792952
v -0.599591 0.668406 -1.053493
v -0.579921 1.174568 -0.698644
v -0.300258 0.955727 -0.825475
v -0.470763 1.117380 -0.946329
v -0.621979 0.922785 -0.955978
v -0.455551 0.695230 -1.149182
v -0.512110 0.979776 -1.070150
v -0.548482 0.688395 -1.116129
v -0.304895 0.954844 -1.052677
v -0.373523 0.885294 -0.914134
v -0.426627 1.220818 -0.830741
v -0.243087 1.018211 -0.669124
v -0.491136 0.667994 -1.070100
v -0.142284 1.223183 -0.686757
v -0.260903 1.245155 -0.720092
v -0.762366 1.130760 -0.751547
v -0.325437 1.160727 -0.460172
v -0.319695 1.388191 -0.571911
v -0.231699 1.138647 -0.410278
v -0.190647 1.375921 -0.492582
v -0.425761 1.250847 -0.741581
v -0.616355 1.199974 -0.746290
v -0.478381 1.348228 -0.618963
v -0.798411 1.177666 -0.688532
v -0.442508 1.176291 -0.516213
v -0.763938 1.081795 -0.637595
v -0.665563 1.267342 -0.659130
v -0.614219 1.147072 -0.581311
v -0.413794 1.289680 -0.719373
v -0.003258 1.402733 -0.642711
v -0.307218 1.630255 -0.299824
v -0.155370 1.262701 -0.544968
v -0.238313 1.372322 -0.752717
v -0.448322 1.450981 -0.593673
v -0.460327 1.599188 -0.351653
v -0.318683 1.549889 -0.613443
v -0.131816 1.525610 -0.534593
v -0.239929 1.402700 -0.480733
v -0.395610 1.649923 -0.349897
v -0.363875 1.563009 -0.289106
v 0.459681 1.356804 -0.762234
v 0.509555 1.428001 -0.589554
v 0.398871 1.462484 -0.561108
v 0.841802 1.178902 -0.726859
v 0.351466 1.329033 -0.739317
v 0.473657 1.188604 -0.488126
v 0.606696 1.329964 -0.757848
v 0.872890 1.215385 -0.659024
v 0.658613 1.398140 -0.620013
v 0.586040 1.193411 -0.529836
v 0.374713 1.189474 -0.464397
v 0.824228 1.103020 -0.607415
v 0.568728 1.338293 -0.497606
v 0.514351 1.347052 -0.400884
v 0.617024 1.119333 -0.981197
v 0.237453 1.337471 -0.701938
v 0.319345 1.305916 -0.777121
v 0.729398 1.145012 -0.865650
v 0.442674 1.388115 -0.679296
v 0.694666 1.161798 -0.960203
v 0.439392 1.175728 -0.598567
v 0.368319 1.431892 -0.595409
v 0.376830 1.201513 -0.512086
v 0.658873 1.095881 -0.891941
v 0.466988 1.385427 -0.350985
v 0.081239 1.517447 -0.274332
v -0.028129 1.473364 -0.361665
v 0.564760 1.418245 0.135728
v 0.412428 1.336142 -0.461434
v 0.189725 1.323597 -0.207583
v 0.339321 1.519018 -0.369427
v 0.527397 1.410694 -0.197425
v 0.421325 1.485338 0.185595
v 0.426005 1.545017 -0.191886
v 0.520091 1.487459 0.149424
v 0.218512 1.543644 -0.134649
v 0.286170 1.376774 -0.111322
v 0.261209 1.479193 -0.481262
v 0.096766 1.262594 -0.278809
v 0.449877 1.399340 0.177518
v -0.464590 0.926445 -0.785851
v -0.492110 0.533655 -1.096490
v -0.291352 0.782433 -0.818215
v -0.432960 0.985954 -0.666816
v -0.490087 0.817316 -0.925659
v -0.338534 0.722040 -0.928276
v -0.245581 0.820839 -0.708878
v -0.407890 0.499704 -1.092284
v -0.086043 0.954399 -0.866930
v -0.166108 0.847147 -0.983191
v -0.238692 0.745584 -1.059885
v -0.356453 0.515284 -1.160972
v 0.736178 1.013039 -0.812449
v 0.754046 0.926935 -0.887237
v 0.338303 1.011393 -0.987454
v 0.541987 0.563944 -1.087999
v 0.441672 0.884087 -0.828987
v 0.588275 0.997828 -0.972781
v 0.261919 1.096430 -0.912654
v 0.378166 0.948387 -0.743206
v 0.548379 1.094614 -0.905261
v 0.750679 0.804819 -0.969391
v 0.697349 0.545679 -1.038147
v 0.628662 0.853937 -1.066766
v 0.428980 0.874918 -1.058188
v 0.502605 0.798090 -0.911924
v 0.644903 0.564524 -1.100027
v 0.579255 0.541239 -1.008270
v -0.074299 0.767328 -0.955124
v -0.112746 0.685923 -1.008271
v -0.047467 1.601463 -0.800776
v -0.046218 1.023066 -1.015095
v -0.065115 1.433403 -0.838231
v 0.222732 0.712702 -0.970929
v 0.207993 0.833826 -0.952652
v 0.213858 0.928171 -1.055389
v 0.277299 0.774424 -0.999097
v 0.183864 1.101068 -1.054624
v 0.186083 1.059839 -0.986335
v 0.012364 1.497095 -0.895716
v 0.007645 1.464668 -0.851026
v 0.269519 1.315844 0.220441
v 0.336933 1.104385 0.709884
v 0.049477 1.269381 0.298898
v 0.141575 1.420107 0.271692
v 0.293085 1.181456 0.764274
v 0.171981 1.233259 0.751549
v 0.192415 1.152649 0.687843
v 0.061899 1.377808 0.504865
v 0.123026 1.252670 0.428560
v 0.337704 1.272827 0.396315
v 0.231840 1.364151 0.424914
v -0.027036 1.408922 0.375973
v 0.635965 1.234440 -0.187417
v 0.614523 1.304232 0.214948
v 0.495754 1.338427 0.230162
v 0.971887 1.003727 -0.067349
v 0.510646 1.258137 -0.214299
v 0.594190 1.135454 0.097684
v 0.639621 1.332188 -0.020958
v 0.778883 1.184528 -0.135733
v 1.000468 1.009966 0.094995
v 0.816729 1.252293 0.001255
v 1.011467 1.039097 -0.002308
v 0.782019 1.229692 0.190876
v 0.717512 1.110811 0.090418
v 0.496722 1.373936 -0.027460
v 0.483405 1.143038 0.100419
v 0.948098 0.959843 0.041739
v 0.510786 1.282841 0.068876
v 0.041930 1.470018 0.136920
v -0.029844 1.456150 0.016927
v 0.451672 1.217743 0.613423
v 0.265712 1.341934 0.646378
v 0.476534 1.214695 -0.075184
v 0.153977 1.245226 0.155944
v 0.353044 1.459322 0.089952
v 0.516691 1.317873 0.264573
v 0.484867 1.272263 0.470115
v 0.216540 1.398163 0.511462
v 0.385797 1.452623 0.297324
v 0.393684 1.343643 0.637500
v 0.131729 1.445650 0.313009
v 0.216584 1.248110 0.292046
v 0.307213 1.434864 -0.056088
v 0.087614 1.203434 0.041196
v 0.399658 1.404388 0.505018
v 0.271904 1.238968 0.473224
v 0.307095 1.211838 0.618658
v 0.509120 0.897369 0.636881
v 0.547521 0.869553 0.550849
v 0.425888 0.819916 0.612551
v 0.715177 1.229969 0.056987
v 0.507546 1.154129 0.464450
v 0.346534 1.222183 0.495686
v 0.914800 0.883776 0.180667
v 0.626733 1.288212 0.013871
v 0.513559 1.115435 0.244899
v 0.667736 1.256105 0.268884
v 0.809551 1.130922 0.116156
v 0.828777 0.838594 0.316078
v 0.783865 1.141130 0.282385
v 0.905852 0.885378 0.264788
v 0.629184 1.050629 0.404695
v 0.637454 1.050615 0.234305
v 0.549025 1.304888 0.267840
v 0.392822 1.151430 0.255895
v 0.818898 0.826128 0.226776
v 0.326886 0.862745 0.765013
v 0.046189 0.973646 0.792975
v 0.273162 0.791304 1.010915
v 0.123961 0.903532 0.733337
v 0.244902 0.978621 0.827541
v 0.206276 0.861553 1.052578
v 0.071590 0.868834 0.996151
v 0.131477 0.821074 0.952208
v 0.117844 0.885008 0.815069
v -0.006202 0.955717 0.804287
v -0.035987 0.792036 0.955580
v -0.049442 0.879057 0.747334
v -0.096016 0.845594 0.938775
v -0.105993 0.778608 0.869685
v 0.035773 1.131687 -0.237219
v 0.124492 1.161854 -0.207986
v 0.096653 1.326969 -0.057089
v -0.105098 1.272923 -0.176993
v 0.337406 1.407261 -0.014933
v 0.529478 1.366550 -0.039442
v 1.059687 1.023472 -0.166491
v 0.278030 1.211231 -0.156632
v 0.468070 1.189808 -0.139677
v 0.692660 1.312366 -0.052662
v 0.654903 1.120975 -0.141836
v 0.162693 1.220100 -0.567009
v 0.240429 1.243994 -0.508167
v 0.243691 1.398962 -0.444285
v 0.105239 1.280388 -0.624216
v 0.430159 1.414923 -0.294602
v 0.581009 1.378986 -0.209031
v 0.375227 1.281851 -0.406160
v 0.534268 1.246084 -0.314229
v 0.684058 1.212332 -0.246968
v 0.723725 1.313511 -0.162154
v 0.469550 1.146339 -0.865607
v 0.667198 1.037989 -0.958663
v 0.808124 1.070639 -0.547456
v 0.617493 1.174368 -0.374471
v 0.833474 0.659067 -0.969751
v 0.596450 1.095270 -0.915739
v 0.643193 0.951759 -0.650766
v 0.807129 1.108406 -0.815665
v 0.739469 1.141668 -0.453107
v 0.441331 1.068243 -0.504636
v 0.752524 0.919931 -0.980184
v 0.898824 0.658623 -0.819135
v 0.876046 0.965904 -0.875390
v 0.899978 0.673319 -0.921698
v 0.872626 0.950371 -0.662479
v 0.721581 0.878075 -0.730831
v 0.739512 1.195168 -0.755512
v 0.562835 1.003517 -0.570832
v 0.816273 0.637779 -0.850967
v 0.614207 1.242683 -0.686719
v -0.057531 0.989927 0.719593
v 0.075092 1.139097 0.722373
v -0.256978 0.967407 0.709246
v -0.794504 1.363005 0.860098
v -0.414569 1.024673 0.711258
v -0.560574 1.107069 0.748803
v -0.084894 1.275970 0.417142
v -0.146044 1.249573 0.450105
v -0.167042 1.088518 0.346208
v -0.042072 1.231279 0.329032
v -0.296381 0.953018 0.426858
v -0.422490 0.983322 0.535379
v -0.256091 1.210159 0.504424
v -0.390393 1.223785 0.592335
v -0.521111 1.272812 0.688322
v -0.586725 1.143967 0.652883
v 0.769370 1.044304 -0.694543
v 0.871414 1.072638 -0.295977
v 0.794906 1.133945 -0.243295
v 1.016017 0.707924 -0.646602
v 0.673889 1.105598 -0.678892
v 0.740970 0.948111 -0.415906
v 0.882233 1.124105 -0.542736
v 0.882534 0.946632 -0.691577
v 1.054179 0.713385 -0.486175
v 0.981283 1.001198 -0.570313
v 1.068957 0.731270 -0.587005
v 0.958209 0.970831 -0.369137
v 0.834817 0.889471 -0.462232
v 0.797697 1.196264 -0.512660
v 0.651768 0.988455 -0.371297
v 0.984679 0.681067 -0.533135
v 0.145041 1.044371 0.734442
v 0.372933 0.841949 0.662958
v 0.500502 0.983885 0.867749
v 0.275998 1.105286 0.597907
v 0.567690 1.005018 0.785100
v 0.553078 0.851896 0.790058
v 0.351960 1.048658 0.820103
v 0.435456 1.079880 0.699749
v 0.461809 0.866148 0.724494
v -0.634655 1.221151 -0.327108
v -0.559035 1.220570 -0.003651
v -1.064644 0.711018 -0.187481
v -0.763376 1.152487 -0.328833
v -0.712793 1.139439 0.015535
v -0.393969 1.260748 -0.375941
v -0.527136 1.111225 -0.123815
v -0.632027 1.307117 -0.176157
v -0.323804 1.292149 0.069721
v -0.864451 1.050894 -0.311935
v -0.783398 1.238346 -0.176839
v -0.839537 1.047749 -0.020190
v -0.678979 1.069096 -0.141482
v -0.382336 1.343403 -0.162036
v -0.265301 1.192860 -0.078086
v -0.909177 1.118595 -0.174885
v -0.804461 0.996525 -0.141172
v 0.299653 1.230789 0.499867
v 0.198074 1.134125 0.646114
v 0.678478 0.993668 0.583443
v 0.343066 0.928116 0.430638
v 0.624708 0.870514 0.525045
v 0.623671 0.953979 0.658430
v 0.695314 0.577621 0.532254
v 0.527599 0.998642 0.518843
v 0.467385 1.072357 0.687184
v 0.539133 1.147095 0.568720
v 0.159955 1.264160 0.420869
v 0.058899 1.168030 0.567289
v 0.205982 0.964174 0.352500
v -0.487606 0.744453 -0.826433
v -0.503066 0.516764 -0.914314
v -0.494634 0.624094 -1.055867
v -0.757742 0.780785 -0.652775
v -0.554065 0.333368 -0.926166
v -0.551265 0.348368 -1.028446
v -0.441441 1.009806 -0.921744
v -0.454302 0.632057 -0.869488
v -0.428405 0.849268 -1.028134
v -0.704701 0.633051 -0.999176
v -0.796539 0.570152 -0.710395
v -0.621304 1.006004 -0.822299
v -0.732991 0.328897 -0.976034
v -0.770039 0.331123 -0.756296
v -0.664246 0.884638 -0.963336
v -0.554056 0.125437 -0.966830
v -0.557085 0.119822 -0.898369
v -0.736920 0.090660 -0.767701
v -0.692064 0.094446 -0.923609
v -0.797146 0.496056 -0.725386
v -0.196725 0.870186 -0.783409
v -0.104488 0.615778 -1.017403
v -0.441780 0.809486 -0.819605
v -0.376317 1.093880 -0.830317
v -0.070971 1.187035 -0.807590
v -0.151171 0.726847 -0.889394
v -0.046816 0.999094 -1.004319
v -0.077446 0.766628 -1.218380
v -0.434742 0.643137 -0.986166
v -0.436734 0.880213 -0.987152
v -0.303977 0.094995 -1.015384
v -0.392788 0.726114 -1.130147
v -0.420767 0.576441 -1.026483
v -0.121614 -0.129126 -0.975127
v -0.204394 -0.141653 -0.962715
v -0.227580 -0.107458 -0.994003
v -0.328773 0.129114 -1.085372
v -0.113040 0.155146 -1.053122
v -0.138371 0.165812 -1.134264
v -0.107945 0.321283 -1.098703
v -0.343071 0.311045 -1.049190
v -0.351035 0.349695 -1.150386
v -0.125134 0.359997 -1.216259
v -0.101001 0.565380 -1.254370
v -0.371869 0.546564 -1.170606
v -0.381539 0.469461 -1.054954
v -0.111441 0.481607 -1.091992
v 0.567887 0.491220 -1.006477
v 0.591183 0.177866 -0.968093
v 0.471779 0.717569 -0.961957
v 0.690537 0.491463 -0.814497
v 0.761624 0.537500 -1.017340
v 0.615858 0.709541 -0.706153
v 0.601379 0.327173 -0.984239
v 0.592690 -0.160896 -0.851451
v 0.702622 0.313789 -0.857286
v 0.688591 0.854532 -0.948246
v 0.757239 0.333490 -0.992601
v 0.721436 0.163202 -0.951272
v 0.680646 0.170006 -0.845176
v 0.722583 0.717188 -0.993372
v 0.647919 0.605003 -0.769321
v 0.516891 0.610178 -0.991307
v 0.674022 0.484552 -0.912500
v 0.631300 0.307688 -0.919841
v 0.380987 0.438684 -1.005340
v 0.572152 0.494440 -1.060919
v 0.576398 0.332087 -1.047408
v 0.413261 0.309504 -1.021691
v 0.478761 0.276880 -0.912193
v 0.477738 0.401817 -0.853655
v 0.461545 -0.151480 -0.917827
v 0.481949 -0.149147 -0.881769
v 0.417980 -0.147499 -0.876803
v 0.387103 -0.132528 -0.918290
v 0.409975 0.197304 -0.845355
v 0.418537 0.065300 -0.836755
v 0.781218 -0.031517 -0.617231
v 0.718707 0.018944 -0.808639
v 0.426259 -0.226112 -0.675070
v 0.418802 -0.234642 -0.779140
v 0.621631 -0.278038 -0.760547
v 0.667306 -0.260689 -0.642645
v 0.376293 0.012871 -0.658406
v 0.835181 0.097694 -0.585983
v 0.387848 0.133949 -0.597193
v 0.764917 0.186516 -0.816407
v -0.251031 0.893753 0.703191
v -0.484719 0.896301 0.670629
v -0.122247 0.872923 0.716449
v -0.297092 1.090439 0.619052
v -0.139739 1.106720 0.621582
v -0.139708 0.882217 0.550179
v -0.545817 1.027039 0.608705
v -0.253313 0.919266 0.562224
v -0.465149 0.921951 0.577196
v -0.677464 0.789932 0.620793
v -0.706840 0.863678 0.598332
v -0.667422 0.809708 0.571288
v -0.349884 1.043549 0.650081
v -0.746724 0.698853 0.449157
v -0.565131 0.845444 0.518869
v -0.364668 1.210512 0.321118
v -0.279558 1.015045 0.482820
v -0.368260 1.179565 0.509320
v -0.580552 0.879107 0.324908
v -0.499262 1.090349 0.307423
v -0.755596 0.776918 0.298079
v -0.471367 0.958099 0.629199
v -0.778462 0.758394 0.373772
v -0.517590 1.065598 0.476766
v -0.400634 0.979614 0.459039
v -0.583874 1.182728 -0.101137
v -0.738484 1.071568 -0.067857
v -0.878710 0.852970 -0.014347
v -0.478730 1.218784 -0.104990
v -0.467739 1.048708 0.166766
v -0.581394 1.227633 0.116135
v -0.491807 1.271578 0.134209
v -0.668711 1.136600 -0.087216
v -0.792621 1.070681 0.084499
v -0.905979 0.856403 0.065209
v -0.678496 0.970003 0.119102
v -0.843786 0.815554 0.082327
v -0.316343 1.080599 0.198139
v -0.716439 1.154512 0.098368
v -0.589129 1.016573 0.140444
v -0.563128 1.005486 -0.874638
v -0.737147 1.042044 -0.554509
v -0.947418 0.435846 -0.886923
v -0.685672 0.915873 -0.902587
v -0.811403 0.913429 -0.634293
v -0.709871 1.094917 -0.740364
v -0.861931 0.676416 -0.916200
v -0.813137 0.978539 -0.800541
v -0.930670 0.702461 -0.868013
v -0.936696 0.671883 -0.759793
v -0.499095 1.292290 -0.612459
v -0.413483 1.168221 -0.803526
v -0.526744 1.222631 -0.346966
v -0.604483 1.182564 -0.676412
v -0.488305 1.075798 -0.839080
v -0.631946 1.132345 -0.450738
v -0.628805 1.034185 -0.527632
v -0.598673 0.965902 -0.259602
v -1.066028 0.510962 -0.427577
v -0.758352 0.967581 -0.529507
v -0.953412 0.774694 -0.495406
v -0.737933 0.907187 -0.307259
v -0.517986 1.071707 -0.507987
v -0.712407 1.166937 -0.325955
v -0.873209 0.865927 -0.513051
v -0.855242 1.063299 -0.375896
v -1.008507 0.810064 -0.398552
v -0.939002 0.741812 -0.356063
v -0.588122 1.220434 -0.312733
v -0.464445 1.009830 -0.211553
v -0.952581 0.919928 -0.391205
v -0.853057 0.822119 -0.331813
v -0.622437 0.693031 -0.764793
v -0.682648 0.845222 -0.854374
v -0.900192 0.233480 -0.358775
v -0.876759 0.869726 -0.509753
v -0.677254 0.229530 -0.782467
v -0.817756 0.831182 -0.355780
v -0.610945 0.498634 -0.805455
v -0.719349 0.692926 -0.924997
v -0.772545 0.226004 -0.545965
v -0.895466 0.280067 -0.714765
v -0.884172 0.658178 -0.358810
v -0.945013 0.703054 -0.516467
v -0.677909 0.836432 -0.537207
v -0.793026 0.870186 -0.707835
v -0.770757 0.287834 -0.840229
v -0.958128 0.278982 -0.549069
v -0.858695 0.691063 -0.742117
v -0.711448 0.526098 -0.512323
v -0.655133 -0.275429 -0.666209
v -0.673959 -0.267738 -0.590352
v -0.728588 -0.248026 -0.529210
v -0.768515 -0.242044 -0.561405
v -0.751960 -0.258904 -0.629573
v -0.701014 -0.268105 -0.685113
v -0.884072 0.479576 -0.732053
v -0.964462 0.471579 -0.537217
v -0.959196 0.441229 -0.363468
v -0.743683 0.374075 -0.535228
v -0.638263 0.362785 -0.792760
v -0.732623 0.495201 -0.878369
v 0.676615 0.559807 -0.695485
v 0.710848 0.927849 -0.841908
v 0.721710 0.215355 -0.748636
v 0.826381 0.292854 -0.822602
v 0.926208 0.302330 -0.707820
v 0.814280 0.951347 -0.715345
v 0.792244 0.547035 -0.869877
v 0.777656 0.239187 -0.547222
v 0.739687 0.444418 -0.529063
v 0.649562 0.881979 -0.529687
v 0.668558 -0.277306 -0.668756
v 0.830250 0.124168 -0.790917
v 0.853258 0.148520 -0.346980
v 0.697834 -0.270790 -0.598807
v 0.731103 -0.268379 -0.707192
v 0.794125 -0.264748 -0.641041
v 0.724579 0.109062 -0.733054
v 0.926381 0.524727 -0.731225
v 0.685031 0.349007 -0.739132
v 0.907073 0.124031 -0.696256
v 0.883550 0.728630 -0.726294
v 0.700312 0.652136 -0.529375
v 0.680824 0.454384 -0.717309
v 0.757233 0.726402 -0.855893
v 0.752692 0.904573 0.273387
v 0.637810 0.981691 0.326486
v 0.959014 0.273991 0.013300
v 0.834566 0.802156 0.215679
v 0.921818 0.532961 0.122058
v 0.737584 1.136311 -0.051531
v 0.851318 0.964512 -0.055162
v 0.893811 0.819263 -0.045483
v 0.944697 0.542713 -0.031873
v 0.738666 1.148821 0.087979
v 0.576379 0.900011 0.143981
v 0.830931 1.007265 0.076647
v 0.912412 0.857273 0.060732
v 0.992172 0.566532 0.036107
v 0.713045 0.853136 0.113705
v 0.798279 0.767824 0.089878
v 0.889389 0.517384 0.052919
v 0.444050 1.142565 0.385585
v 0.519691 1.095810 0.555252
v 0.435851 1.113449 0.601522
v 0.762549 0.821901 0.313944
v 0.815796 0.820009 0.379472
v 0.366408 1.178162 0.412512
v 0.424831 0.916382 0.524773
v 0.673563 0.972063 0.330597
v 0.549578 1.102022 0.359070
v 0.636688 1.029160 0.489105
v 0.751574 0.930313 0.417078
v 0.520241 0.907623 0.484582
v 0.345158 0.904709 0.553324
v 0.635879 0.845001 0.426784
v 0.729519 0.753267 0.388051
v 0.180251 0.762033 -1.040276
v 0.604213 0.733637 -0.948983
v 0.269400 -0.230856 -0.921275
v 0.466237 0.091562 -1.023608
v 0.148737 0.940180 -0.939254
v 0.447172 0.555962 -0.752818
v 0.379605 0.763056 -1.123546
v 0.615539 0.889366 -0.843594
v 0.231534 0.498301 -1.125164
v 0.252070 0.274454 -1.104908
v 0.260107 0.103342 -1.065883
v 0.571834 0.491556 -1.042693
v 0.529407 0.274439 -1.065307
v 0.394886 0.514353 -1.178506
v 0.434793 0.415001 -0.831430
v 0.371419 0.959452 -1.020870
v 0.440458 0.741844 -0.582705
v 0.387100 0.293360 -1.164994
v 0.362408 0.105936 -1.101405
v 0.408269 0.243860 -0.896645
v 0.370372 0.083979 -0.916316
v 0.737361 0.975578 -0.566253
v 0.864763 1.105076 -0.182227
v 0.795629 1.178898 -0.135753
v 0.964456 0.632147 -0.479995
v 0.647103 1.045263 -0.555387
v 0.719666 0.924154 -0.275162
v 0.864006 1.068686 -0.434174
v 0.844029 0.871511 -0.554087
v 1.012455 0.658926 -0.324372
v 0.953169 0.936224 -0.447614
v 1.022263 0.660818 -0.427356
v 0.940327 0.987553 -0.243261
v 0.806622 0.852636 -0.316630
v 0.786210 1.150427 -0.411268
v 0.636063 0.977009 -0.232829
v 0.938337 0.623526 -0.362346
v 0.340399 1.053408 0.192769
v 0.393702 1.234026 0.158540
v 0.454648 1.133331 0.457541
v 0.729593 0.920979 -0.005708
v 0.667224 0.889053 0.420300
v 0.570913 0.779358 0.507958
v 0.373843 0.962250 0.537119
v 0.325055 0.981750 0.402367
v 0.430835 1.235048 0.316404
v 0.600338 1.106281 0.062667
v 0.613331 0.782520 0.025125
v 0.603775 1.029984 0.417160
v 0.735794 0.919268 0.193928
v 0.476101 0.857635 0.582378
v 0.587625 0.750704 0.259735
v 0.485326 0.896532 0.102469
v 0.625427 1.093325 0.216160
v 0.449401 0.841707 0.379078
v 0.764308 0.421696 -0.083766
v 0.860494 0.100513 -0.085076
v 0.810027 0.085468 -0.095473
v 0.852571 0.091618 0.041599
v 0.883525 0.490192 0.061251
v 0.869319 0.097324 -0.011215
v 0.803173 0.078602 0.028071
v 0.747018 0.403187 0.019093
v 0.798149 0.078159 -0.025010
v 0.865116 0.483494 -0.065518
v 0.832811 0.478823 0.219052
v 0.767669 0.527910 0.325906
v 0.688754 0.637714 -0.026848
v 0.669069 0.607363 0.148899
v 0.653588 0.653597 0.373875
v 0.733307 0.749697 0.367743
v 0.796251 0.753374 0.180654
v 0.797129 0.738850 -0.035520
v 0.749882 0.413378 0.158347
v -0.368201 1.003786 0.123478
v -0.616029 1.110569 0.048891
v -0.434281 0.876617 0.640037
v -0.580732 1.106173 0.376045
v -0.445070 1.202545 0.418264
v -0.632834 0.791889 0.023606
v -0.727643 0.931461 -0.000966
v -0.686942 0.950243 0.319985
v -0.574765 0.815781 0.501131
v -0.442769 1.234499 0.079567
v -0.334548 0.949173 0.660191
v -0.497469 0.879442 0.089871
v -0.841837 -0.068844 -0.005867
v -0.888064 0.295856 -0.074523
v -0.873731 0.290913 0.042519
v -0.806966 0.268574 0.034460
v -0.812012 0.270466 -0.096191
v -0.844748 0.571964 -0.059813
v -0.832693 0.584352 0.162584
v -0.756315 0.546144 0.165663
v -0.763358 0.510410 -0.071726
v -0.707967 0.646976 -0.028311
v -0.677060 0.706789 0.360843
v -0.757444 0.812838 0.266996
v -0.802502 0.752384 -0.036531
v 0.743538 0.842642 -0.362491
v 0.677534 0.878239 0.067310
v 0.602883 0.940767 0.099589
v 0.642148 0.888403 -0.367961
v 0.887160 0.986866 -0.162440
v 0.788781 1.104694 -0.155933
v 0.842766 -0.079739 -0.210432
v 0.842546 0.102102 -0.348762
v 0.818226 0.289099 -0.386626
v 0.974745 0.433292 -0.200229
v 0.807620 0.355732 -0.109084
v 0.842155 0.169727 -0.126021
v 0.835481 -0.074917 -0.099993
v 0.832126 -0.248465 -0.127638
v 0.941079 0.173573 -0.199555
v 0.980760 0.654118 -0.192908
v 0.804375 0.556797 -0.065547
v 0.831959 0.530844 -0.367762
v 0.779254 0.697483 -0.022155
v 0.971275 0.796253 -0.176767
v 0.829964 0.706030 -0.377152
v -0.647308 0.851629 -0.325289
v -0.713646 1.065802 -0.346963
v -0.817205 0.972662 -0.346853
v -0.543672 0.891882 -0.305484
v -0.610945 0.859180 -0.098957
v -0.804393 1.022846 -0.131381
v -0.536639 0.934175 0.116952
v -0.510529 0.913746 -0.074526
v -0.651603 1.093508 0.081721
v -0.717750 1.128010 -0.125108
v -0.792679 0.355337 -0.395861
v -0.913081 0.188681 -0.288048
v -0.828025 0.168568 -0.109768
v -0.828974 0.147451 -0.406555
v -0.940981 0.416449 -0.348004
v -0.900570 0.445042 -0.071893
v -0.947972 0.453510 -0.199391
v -0.778607 0.367619 -0.102434
v -0.754710 0.346119 -0.243162
v -0.925627 0.203312 -0.183337
v -0.901394 0.199589 -0.098301
v -0.820488 0.177036 -0.191070
v -0.613458 0.874743 0.084657
v -0.735204 1.008976 0.057437
v 0.670221 -0.555023 -0.526533
v 0.636974 -0.124641 -0.670471
v 0.723419 -0.114923 -0.506278
v 0.641105 -0.367912 -0.630211
v 0.781258 -0.133629 -0.620911
v 0.678922 -0.348246 -0.512770
v 0.715353 -0.341576 -0.579905
v -0.269364 0.717325 -0.938929
v -0.272171 0.677469 -1.112410
v -0.154124 1.002390 -1.048051
v -0.112129 1.263529 -0.917305
v -0.024129 1.828007 -0.194721
v -0.198703 0.939676 -0.891139
v -0.151072 1.136589 -0.738557
v -0.092649 1.567635 -0.580181
v 0.266851 0.734596 -0.843741
v 0.349839 0.764017 -1.064849
v 0.318497 1.024683 -1.009529
v 0.214896 1.265099 -0.883601
v 0.291040 0.913338 -0.815947
v 0.220501 1.164680 -0.738570
v 0.065324 0.739573 -1.169562
v 0.013950 1.015650 -1.047800
v 0.001365 1.287348 -0.923459
v -0.020253 1.471228 -0.516871
v 0.083928 1.537725 -0.510659
v 0.075578 1.615776 -0.595630
v -0.028487 1.621635 -0.622779
v -0.111662 1.429802 -0.776231
v -0.006767 1.476036 -0.794486
v 0.144777 1.447380 -0.762381
v 0.119412 1.347496 -0.634915
v -0.089655 1.307838 -0.662905
v 0.083386 1.177782 0.185037
v -0.000694 1.212938 0.249999
v 0.213331 1.306398 0.247202
v 0.225946 1.153994 0.106420
v -0.038242 1.419220 0.427242
v -0.271471 1.432190 0.534117
v -0.799294 1.147018 0.687291
v -0.110241 1.266909 0.348107
v -0.271299 1.262039 0.449366
v -0.449250 1.373962 0.608691
v -0.445537 1.218674 0.532261
v 0.189331 1.022049 0.492019
v 0.097150 1.069092 0.533504
v 0.211135 1.198730 0.590187
v 0.361694 1.123993 0.411333
v 0.059121 1.325760 0.682906
v -0.213456 1.346909 0.702217
v -0.028902 1.147339 0.583788
v -0.214100 1.177963 0.615102
v -0.410784 1.167587 0.632958
v -0.412679 1.320204 0.714657
v 0.406325 1.240372 0.403197
v 0.336036 1.237793 0.473146
v 0.328355 1.028778 0.627815
v 0.479982 1.153198 0.421421
v 0.143560 1.073545 0.801118
v -0.023022 1.170164 0.889336
v -0.309846 1.542494 0.872359
v 0.140475 1.201584 0.624629
v -0.003141 1.271406 0.742526
v -0.155780 1.307524 0.921949
v -0.128717 1.379042 0.815932
v 0.091657 1.200106 0.247005
v 0.055680 1.198534 0.326928
v -0.031028 0.983339 0.336907
v 0.077840 1.100573 0.171639
v -0.098453 0.909866 0.565928
v -0.138463 1.023832 0.744440
v -0.010802 1.190216 0.473537
v -0.090356 1.241928 0.652525
v -0.181461 1.374540 0.751264
v -0.237738 1.271452 0.835718
v -0.183693 1.294424 -0.401005
v -0.180437 1.353445 -0.353272
v -0.220078 1.229362 -0.646242
v -0.211537 1.601934 -0.328631
v -0.116171 1.681854 0.412660
v -0.179536 1.457815 -0.269977
v -0.116430 1.725803 0.012781
v -0.141650 1.605946 0.044515
v 0.181992 1.330023 -0.367772
v 0.151573 1.387976 -0.326294
v 0.252369 1.249992 -0.566274
v 0.116674 1.627920 -0.303734
v 0.096014 1.476828 -0.248433
v -0.027400 1.580982 0.061286
v 0.004315 1.701557 0.029875
v 0.236265 1.429235 -0.510984
v -0.233198 1.402367 -0.574040
v -0.084496 1.593037 0.053053
v -0.042712 1.465460 -0.258617
v -0.016231 1.368124 -0.339024
v -0.002344 1.310385 -0.383872
v -0.016960 1.229607 -0.678384
v 0.002412 1.433220 -0.584768
v -0.048451 1.646948 -0.335717
v -0.050139 1.741016 0.016659
f 15 5 4 14
f 4 9 13 14
f 13 9 5 15
f 7 2 1 3
f 6 10 7 3
f 1 11 8 3
f 8 11 2 7
f 8 12 6 3
f 10 12 8 7
f 6 12 10
f 11 13 15 2
f 14 13 11 1
f 2 15 14 1
f 16 17 24 23
f 24 18 22 23
f 25 19 27 26
f 27 40 28 26
f 47 17 16 46
f 49 18 24 48
f 24 17 47 48
f 46 16 23 45
f 23 22 44 45
f 22 18 31 29
f 31 21 30 29
f 21 37 38 30
f 37 20 38
f 51 21 31 50
f 31 18 49 50
f 52 37 21 51
f 20 37 52 34
f 36 33 32 35
f 32 19 25 35
f 39 34 33 36
f 20 34 39
f 44 22 29 43
f 29 30 42 43
f 30 38 41 42
f 38 20 39 41
f 42 41 39 36
f 43 42 36 35
f 25 44 43 35
f 45 44 25 26
f 28 46 45 26
f 40 47 46 28
f 48 47 40 27
f 19 49 48 27
f 50 49 19 32
f 33 51 50 32
f 34 52 51 33
f 54 53 62 60
f 62 58 57 60
f 57 58 63 61
f 63 53 54 61
f 53 56 59 62
f 59 55 58 62
f 58 55 64 63
f 64 56 53 63
f 55 59 64
f 59 56 64
f 69 68 70 66
f 68 67 70
f 65 67 68 69
f 65 69 66
f 70 67 65 66
f 81 77 74 76
f 79 73 80 78
f 72 71 82 75
f 74 72 75 76
f 75 82 81 76
f 77 71 72 74
f 78 80 77 81
f 82 79 78 81
f 71 73 79 82
f 80 73 71 77
f 93 89 83 91
f 86 92 85 88
f 90 84 94 87
f 83 89 84 90
f 84 89 93 94
f 91 83 90 87
f 92 93 91 85
f 94 93 92 86
f 87 94 86 88
f 85 91 87 88
f 96 102 98
f 100 95 103 97
f 99 95 100
f 95 99 101 103
f 101 99 100 97
f 101 102 96 103
f 103 96 98 97
f 98 102 101 97
f 111 105 110 119
f 110 104 108 119
f 108 104 109 120
f 109 105 111 120
f 110 105 115 117
f 112 104 110 117
f 117 115 116 121
f 116 107 106 121
f 106 114 113 121
f 113 112 117 121
f 109 104 112 118
f 115 105 109 118
f 118 112 113 122
f 113 114 123 122
f 123 107 116 122
f 116 115 118 122
f 114 106 123
f 106 107 123
f 129 125 130 128
f 127 124 131 126
f 128 130 127 126
f 131 129 128 126
f 124 125 129 131
f 130 125 124 127
f 146 136 135 145
f 135 140 144 145
f 144 140 136 146
f 138 133 132 134
f 137 141 138 134
f 132 142 139 134
f 139 142 133 138
f 139 143 137 134
f 141 143 139 138
f 137 143 141
f 142 144 146 133
f 145 144 142 132
f 133 146 145 132
f 158 156 157
f 156 149 157
f 160 148 150 159
f 150 147 162 159
f 162 147 151 161
f 151 148 160 161
f 150 148 152 155
f 155 153 147 150
f 151 147 153 154
f 152 148 151 154
f 155 152 154
f 154 153 155
f 156 158 162 161
f 157 149 160 159
f 157 159 162 158
f 156 161 160 149
f 163 169 173 171
f 173 169 166 172
f 171 173 167 165
f 167 173 172 164
f 166 170 174 172
f 174 170 163 171
f 172 174 168 164
f 168 174 171 165
f 164 168 167
f 167 168 165
f 176 175 181 178
f 178 181 182 180
f 182 175 176 180
f 176 178 180
f 175 177 179 181
f 181 179 183 182
f 183 177 175 182
f 179 177 183
f 189 186 188 190
f 187 185 189 190
f 188 184 190
f 184 187 190
f 186 185 187 188
f 187 184 188
f 197 201 196 192
f 196 201 194 191
f 194 202 195 191
f 195 202 197 192
f 196 203 200 192
f 200 203 204 193
f 204 203 198 199
f 198 203 196 191
f 195 205 198 191
f 198 205 206 199
f 206 205 200 193
f 200 205 195 192
f 199 206 204
f 204 206 193
f 209 211 210 207
f 212 211 209 208
f 210 212 208 207
f 211 212 210
f 216 213 225 215
f 215 225 226 224
f 226 213 216 224
f 213 214 220 225
f 220 214 218 221
f 221 218 219
f 217 221 219
f 225 220 222 226
f 222 214 213 226
f 222 220 221 223
f 218 214 222 223
f 223 221 217 227
f 217 219 227
f 219 218 223 227
f 231 229 232
f 230 228 233
f 233 231 232 230
f 228 229 231 233
f 232 229 228 230
f 237 244 243 236
f 236 243 239 234
f 241 238 239 240
f 235 234 239 238
f 235 238 241
f 234 235 241 240
f 237 236 242 245
f 244 237 245
f 243 244 245 242
f 236 234 240 242
f 240 239 243 242
f 250 247 246 248
f 250 248 249 251
f 246 249 248
f 249 246 247 251
f 250 251 247
f 256 259 260 253
f 257 259 256 252
f 259 262 254 260
f 258 262 259 257
f 255 261 257 252
f 260 261 255 253
f 261 263 258 257
f 254 263 261 260
f 258 263 262
f 262 263 254
f 271 273 270 266
f 270 273 264 265
f 264 272 269 265
f 269 272 271 266
f 270 277 279 266
f 274 277 270 265
f 277 282 276 279
f 276 282 278 268
f 278 282 275 267
f 275 282 277 274
f 269 280 274 265
f 279 280 269 266
f 280 283 275 274
f 275 283 281 267
f 281 283 276 268
f 276 283 280 279
f 267 281 278
f 278 281 268
f 285 284 290 293
f 290 288 287 293
f 287 288 292 294
f 292 284 285 294
f 290 284 289 291
f 286 288 290 291
f 292 288 286 295
f 289 284 292 295
f 286 291 295
f 291 289 295
f 297 296 298
f 301 299 302
f 300 303 299 301
f 302 304 300 301
f 302 299 303 304
f 307 305 308
f 306 309 305 307
f 308 310 306 307
f 308 305 309 310
f 312 311 317 320
f 317 315 314 320
f 314 315 319 321
f 319 311 312 321
f 317 311 316 318
f 313 315 317 318
f 319 315 313 322
f 316 311 319 322
f 313 318 322
f 318 316 322
f 332 329 328
f 335 324 327 334
f 327 325 333 334
f 332 328 338
f 332 326 331
f 337 323 330 336
f 330 324 335 336
f 332 331 329
f 325 323 337 333
f 332 338 326
f 341 334 333 340
f 335 334 341 342
f 343 336 335 342
f 343 339 337 336
f 333 337 339 340
f 329 345 346 328
f 338 328 346 347
f 326 338 347 348
f 331 326 348 344
f 329 331 344 345
f 342 345 344 343
f 341 346 345 342
f 340 347 346 341
f 348 347 340 339
f 343 344 348 339
f 356 355 354
f 365 350 353 364
f 353 351 363 364
f 356 354 357
f 356 352 355
f 365 362 349 350
f 351 349 362 363
f 356 357 352
f 354 359 358 357
f 360 359 354 355
f 355 352 361 360
f 358 361 352 357
f 363 362 361 358
f 364 363 358 359
f 360 365 364 359
f 360 361 362 365
f 369 371 368 366
f 370 373 371 369
f 367 372 369 366
f 371 372 367 368
f 372 374 370 369
f 373 374 372 371
f 370 374 373
f 377 375 376 379
f 378 375 377 380
f 379 376 378 380
f 377 379 380
f 389 382 384 388
f 385 383 386
f 389 387 381 382
f 384 381 387 388
f 388 387 383 385
f 386 389 388 385
f 386 383 387 389
f 394 392 391
f 394 391 405
f 394 390 393
f 394 393 392
f 394 405 390
f 398 401 400 399
f 402 401 398 397
f 396 403 402 397
f 395 404 403 396
f 400 404 395 399
f 392 397 398 391
f 405 391 398 399
f 390 405 399 395
f 393 390 395 396
f 392 393 396 397
f 407 406 408
f 410 409 411
f 419 413 415 418
f 416 414 417
f 419 420 412 413
f 415 412 420 418
f 419 418 416 417
f 417 414 420 419
f 418 420 414 416
f 423 421 424
f 422 425 421 423
f 424 426 422 423
f 424 421 425 426
f 429 427 430
f 431 428 429 430
f 430 427 432 431
f 428 432 427 429
f 434 435 447 448
f 438 437 442
f 433 434 448 446
f 438 436 437
f 435 433 446 447
f 438 442 436
f 440 445 443 441
f 439 444 445 440
f 443 444 439 441
f 442 437 440 441
f 436 442 441 439
f 437 436 439 440
f 444 446 448 445
f 443 447 446 444
f 445 448 447 443
f 453 451 450
f 453 450 464
f 453 449 452
f 453 452 451
f 453 464 449
f 457 460 459 458
f 461 460 457 456
f 455 462 461 456
f 454 463 462 455
f 459 463 454 458
f 451 456 457 450
f 464 450 457 458
f 449 464 458 454
f 452 449 454 455
f 451 452 455 456
f 468 466 477
f 468 465 467
f 468 467 466
f 468 477 465
f 471 474 473 472
f 470 475 474 471
f 469 476 475 470
f 473 476 469 472
f 477 466 471 472
f 465 477 472 469
f 467 465 469 470
f 466 467 470 471
f 485 479 481 484
f 482 480 483
f 485 486 478 479
f 481 478 486 484
f 485 484 482 483
f 483 480 486 485
f 484 486 480 482
f 495 493 492
f 498 488 491 497
f 491 489 496 497
f 495 492 490
f 492 502 503 490
f 493 501 502 492
f 500 487 494 499
f 494 488 498 499
f 495 505 501 493
f 495 504 505
f 489 487 500 496
f 495 490 503 504
f 508 497 496 507
f 498 497 508 509
f 510 499 498 509
f 510 506 500 499
f 496 500 506 507
f 501 512 513 502
f 503 502 513 514
f 504 503 514 515
f 505 504 515 511
f 501 505 511 512
f 509 512 511 510
f 508 513 512 509
f 507 514 513 508
f 515 514 507 506
f 510 511 515 506
f 519 516 517 518
f 524 523 533 534
f 526 524 534 535
f 522 526 535
f 523 524 521 520
f 524 526 525 521
f 526 522 525
f 518 517 523 520
f 523 517 528 533
f 530 529 528 527
f 516 527 528 517
f 519 530 527 516
f 518 529 530 519
f 521 532 531 520
f 525 536 532 521
f 522 536 525
f 533 531 532 534
f 534 532 536 535
f 535 536 522
f 520 531 529 518
f 529 531 533 528
f 538 537 546 544
f 546 542 541 544
f 541 542 547 545
f 547 537 538 545
f 537 540 543 546
f 543 539 542 546
f 542 539 548 547
f 548 540 537 547
f 539 543 548
f 543 540 548
f 556 559 555 550
f 553 559 556 552
f 552 550 555 553
f 551 561 564
f 554 557 558 565
f 551 557 554 549
f 557 563 562 558
f 563 557 551 564
f 549 565 558 551
f 551 558 562 561
f 561 560 564
f 561 562 560
f 563 560 562
f 560 563 564
f 555 559 554 565
f 553 555 565 549
f 554 559 553 549
f 580 576 571 572
f 571 566 575 572
f 578 570 579 577
f 569 568 573 574
f 573 567 581 574
f 566 568 569 575
f 575 569 574 572
f 574 581 580 572
f 576 567 573 571
f 573 568 566 571
f 577 579 576 580
f 581 578 577 580
f 567 570 578 581
f 579 570 567 576
f 584 583 588 595
f 588 582 586 595
f 586 582 587 596
f 587 583 584 596
f 588 583 593 591
f 589 582 588 591
f 591 593 590 592
f 585 589 591 592
f 587 582 589 594
f 593 583 587 594
f 594 589 585 597
f 590 593 594 597
f 585 592 597
f 592 590 597
f 607 605 599 600
f 603 605 607 598
f 606 604 603 598
f 599 604 606 600
f 605 609 611 599
f 608 609 605 603
f 610 602 611 609
f 610 609 608 601
f 604 612 608 603
f 611 612 604 599
f 613 601 608 612
f 613 612 611 602
f 601 613 610
f 610 613 602
f 615 614 618 616
f 618 614 619 624
f 619 615 616 624
f 620 614 615 622
f 617 620 622 621
f 619 614 620 623
f 622 615 619 623
f 623 620 617 625
f 621 622 623 625
f 617 621 625
f 630 628 638 639
f 631 630 639 640
f 629 631 640
f 628 626 633 638
f 635 634 633 632
f 627 632 633 626
f 627 635 632
f 626 634 635 627
f 630 637 636 628
f 631 641 637 630
f 629 641 631
f 638 636 637 639
f 639 637 641 640
f 640 641 629
f 628 636 634 626
f 634 636 638 633
f 649 651 648 644
f 648 651 642 643
f 642 650 647 643
f 647 650 649 644
f 648 655 657 644
f 652 655 648 643
f 655 660 654 657
f 654 660 656 646
f 656 660 653 645
f 653 660 655 652
f 647 658 652 643
f 657 658 647 644
f 658 661 653 652
f 653 661 659 645
f 659 661 654 646
f 654 661 658 657
f 645 659 656
f 656 659 646
f 664 663 668 675
f 668 662 666 675
f 666 662 667 676
f 667 663 664 676
f 668 663 673 671
f 669 662 668 671
f 671 673 670 672
f 665 669 671 672
f 667 662 669 674
f 673 663 667 674
f 674 669 665 677
f 670 673 674 677
f 665 672 677
f 672 670 677
f 682 684 678 679
f 678 683 681 679
f 681 683 684 682
f 685 687 682 679
f 688 691 686 680
f 686 691 687 685
f 681 689 685 679
f 687 689 681 682
f 689 692 686 685
f 686 692 690 680
f 690 692 691 688
f 691 692 689 687
f 680 690 688
f 697 700 701 694
f 698 700 697 693
f 700 703 695 701
f 699 703 700 698
f 696 702 698 693
f 701 702 696 694
f 702 704 699 698
f 695 704 702 701
f 699 704 703
f 703 704 695
f 706 705 709 707
f 709 705 710 715
f 710 706 707 715
f 711 705 706 713
f 708 711 713 712
f 710 705 711 714
f 713 706 710 714
f 714 711 708 716
f 712 713 714 716
f 708 712 716
f 718 717 723 726
f 723 721 720 726
f 720 721 725 727
f 725 717 718 727
f 723 717 722 724
f 719 721 723 724
f 725 721 719 728
f 722 717 725 728
f 719 724 728
f 724 722 728
f 731 730 735 742
f 735 729 733 742
f 733 729 734 743
f 734 730 731 743
f 735 730 740 738
f 736 729 735 738
f 738 740 737 739
f 732 736 738 739
f 734 729 736 741
f 740 730 734 741
f 741 736 732 744
f 737 740 741 744
f 732 739 744
f 739 737 744
f 748 753 754 745
f 747 751 748 745
f 754 755 749 745
f 755 756 746 749
f 749 750 747 745
f 746 752 750 749
f 756 752 746
f 754 753 751 747
f 747 750 755 754
f 750 752 756 755
f 763 765 762 759
f 762 765 757 758
f 757 764 761 758
f 761 764 763 759
f 762 768 769 759
f 766 768 762 758
f 768 771 760 769
f 767 771 768 766
f 761 770 766 758
f 769 770 761 759
f 770 772 767 766
f 760 772 770 769
f 767 772 771
f 771 772 760
f 785 777 776 783
f 775 777 785
f 776 773 779 783
f 781 780 779 778
f 774 778 779 773
f 774 781 778
f 773 780 781 774
f 773 776 782 780
f 777 784 782 776
f 775 784 777
f 783 782 784 785
f 785 784 775
f 783 779 780 782
f 789 797 793 796
f 789 796 795 786
f 788 786 795 794
f 788 794 793 797
f 796 793 791 790
f 787 795 796 790
f 794 795 787 792
f 791 793 794 792
f 787 790 792
f 790 791 792
f 800 799 804 811
f 804 798 802 811
f 802 798 803 812
f 803 799 800 812
f 804 799 809 807
f 805 798 804 807
f 807 809 806 808
f 801 805 807 808
f 803 798 805 810
f 809 799 803 810
f 810 805 801 813
f 806 809 810 813
f 801 808 813
f 808 806 813
f 816 815 821 829
f 821 814 819 829
f 819 814 820 830
f 820 815 816 830
f 821 815 827 825
f 822 814 821 825
f 825 827 824 831
f 824 818 826 831
f 826 817 823 831
f 823 822 825 831
f 820 814 822 828
f 827 815 820 828
f 828 822 823 832
f 823 817 833 832
f 833 818 824 832
f 824 827 828 832
f 817 826 833
f 826 818 833
f 835 834 836
f 839 838 843 850
f 843 837 841 850
f 841 837 842 851
f 842 838 839 851
f 843 838 848 846
f 844 837 843 846
f 846 848 845 847
f 840 844 846 847
f 842 837 844 849
f 848 838 842 849
f 849 844 840 852
f 845 848 849 852
f 840 847 852
f 847 845 852
f 857 854 859 858
f 855 853 857 858
f 856 853 855 860
f 859 854 856 860
f 855 858 860
f 858 859 860
f 863 861 862 865
f 864 861 863 866
f 865 862 864 866
f 863 865 866
f 870 867 868 869
f 875 874 884 885
f 877 875 885 886
f 873 877 886
f 874 875 872 871
f 875 877 876 872
f 877 873 876
f 869 868 874 871
f 874 868 879 884
f 881 880 879 878
f 867 878 879 868
f 870 881 878 867
f 869 880 881 870
f 872 883 882 871
f 876 887 883 872
f 873 887 876
f 884 882 883 885
f 885 883 887 886
f 886 887 873
f 871 882 880 869
f 880 882 884 879
f 907 891 896 904
f 896 890 895 904
f 895 889 893 904
f 893 888 907 904
f 897 888 893 905
f 893 889 894 905
f 894 890 896 905
f 896 891 897 905
f 895 890 902 900
f 898 889 895 900
f 900 902 899 901
f 892 898 900 901
f 894 889 898 903
f 902 890 894 903
f 903 898 892 906
f 899 902 903 906
f 892 901 906
f 901 899 906
f 912 910 920 921
f 913 912 921 922
f 911 913 922
f 910 908 915 920
f 917 916 915 914
f 909 914 915 908
f 909 917 914
f 908 916 917 909
f 912 919 918 910
f 913 923 919 912
f 911 923 913
f 920 918 919 921
f 921 919 923 922
f 922 923 911
f 910 918 916 908
f 916 918 920 915
f 926 925 930 937
f 930 924 928 937
f 928 924 929 938
f 929 925 926 938
f 930 925 935 933
f 931 924 930 933
f 933 935 932 934
f 927 931 933 934
f 929 924 931 936
f 935 925 929 936
f 936 931 927 939
f 932 935 936 939
f 927 934 939
f 934 932 939
f 940 941 948 946
f 948 941 943 947
f 943 940 946 947
f 945 944 942
f 942 946 948 945
f 944 947 946 942
f 945 948 947 944
f 957 962 956 950
f 956 962 954 949
f 954 963 955 949
f 955 963 957 950
f 956 959 953 950
f 952 959 956 949
f 959 964 960 953
f 958 964 959 952
f 960 964 951
f 951 964 958
f 955 961 952 949
f 953 961 955 950
f 961 965 958 952
f 960 965 961 953
f 958 965 951
f 951 965 960
f 972 971 970
f 974 967 969 973
f 966 967 974 975
f 972 968 971
f 969 966 975 973
f 972 970 968
f 974 973 970 971
f 968 975 974 971
f 973 975 968 970
f 966 969 978 976
f 969 967 977 978
f 967 966 976 977
f 986 987 985 979
f 990 993 989 982
f 987 993 990 985
f 979 982 989 986
f 983 984 981 980
f 983 995 994 984
f 988 991 992 998
f 984 991 988 981
f 991 997 996 992
f 997 991 984 994
f 980 998 992 983
f 983 992 996 995
f 997 995 996
f 995 997 994
f 989 993 988 998
f 986 989 998 980
f 981 987 986 980
f 988 993 987 981
f 1004 1005 1003 999
f 1002 1008 1007 1001
f 999 1003 1002 1001
f 1003 1005 1008 1002
f 1007 1004 999 1001
f 1025 1022 1006 1000
f 1021 1018 1016 1017
f 1006 1022 1023 1010
f 1021 1017 1015 1020
f 1010 1023 1024 1011
f 1020 1015 1009 1019
f 1024 1025 1000 1011
f 1009 1016 1018 1019
f 1014 1012 1013
f 1008 1005 1006 1010
f 1007 1008 1010 1011
f 1000 1004 1007 1011
f 1006 1005 1004 1000
f 1014 1015 1017 1012
f 1013 1009 1015 1014
f 1016 1009 1013 1012
f 1017 1016 1012
f 1023 1020 1019 1024
f 1022 1021 1020 1023
f 1025 1024 1019 1018
f 1022 1025 1018 1021
f 1040 1029 1030 1039
f 1030 1026 1041 1039
f 1041 1026 1029 1040
f 1030 1029 1034 1036
f 1034 1038 1037 1036
f 1037 1027 1032 1036
f 1032 1026 1030 1036
f 1029 1026 1032 1034
f 1032 1027 1038 1034
f 1038 1027 1033
f 1037 1038 1033
f 1033 1027 1037
f 1031 1040 1039 1035
f 1028 1041 1040 1031
f 1039 1041 1028 1035
f 1044 1045 1046 1047
f 1046 1045 1042 1043
f 1045 1049 1042
f 1042 1049 1048 1043
f 1048 1049 1044 1047
f 1044 1049 1045
f 1051 1052 1050
f 1050 1052 1053
f 1048 1052 1051 1043
f 1047 1053 1052 1048
f 1046 1050 1053 1047
f 1043 1051 1050 1046
f 1054 1055 1062 1064
f 1058 1059 1060 1061
f 1056 1057 1065 1063
f 1065 1057 1055 1054
f 1064 1062 1056 1063
f 1062 1055 1059 1058
f 1060 1059 1055 1057
f 1061 1060 1057 1056
f 1062 1058 1061 1056
f 1068 1070 1069 1066
f 1070 1071 1073 1069
f 1073 1071 1068 1066
f 1069 1072 1067 1066
f 1072 1076 1075 1067
f 1073 1074 1072 1069
f 1067 1074 1073 1066
f 1074 1077 1076 1072
f 1076 1077 1075
f 1075 1077 1074 1067
f 1081 1083 1082
f 1082 1083 1078
f 1078 1083 1089 1087
f 1089 1083 1081 1085
f 1081 1082 1090 1085
f 1090 1082 1078 1087
f 1086 1085 1084
f 1087 1089 1088 1079
f 1088 1089 1085 1086
f 1080 1087 1079
f 1085 1090 1084
f 1090 1087 1080
f 1084 1090 1088 1086
f 1088 1090 1080 1079
f 1096 1097 1094 1091
f 1094 1103 1095 1091
f 1095 1103 1097 1096
f 1099 1104 1098 1092
f 1098 1104 1096 1091
f 1100 1099 1092 1093
f 1095 1105 1098 1091
f 1098 1105 1101 1092
f 1101 1105 1104 1099
f 1104 1105 1095 1096
f 1092 1101 1102 1093
f 1102 1101 1099 1100
f 1093 1102 1100
f 1111 1107 1121 1119
f 1106 1111 1119 1120
f 1107 1106 1120 1121
f 1111 1113 1110 1107
f 1109 1113 1111 1106
f 1113 1114 1115 1110
f 1112 1114 1113 1109
f 1115 1114 1108
f 1108 1114 1112
f 1107 1110 1109 1106
f 1110 1115 1112 1109
f 1112 1115 1108
f 1119 1121 1118 1116
f 1120 1119 1116 1117
f 1121 1120 1117 1118
f 1135 1134 1129 1123
f 1129 1134 1128 1122
f 1128 1135 1123 1122
f 1129 1131 1127 1123
f 1125 1131 1129 1122
f 1131 1136 1137 1127
f 1137 1136 1132 1133
f 1132 1136 1130 1126
f 1130 1136 1131 1125
f 1133 1132 1124
f 1124 1132 1126
f 1123 1127 1125 1122
f 1127 1137 1130 1125
f 1130 1137 1133 1126
f 1126 1133 1124
f 1138 1144 1145 1139
f 1167 1166 1142 1152
f 1140 1164 1163 1153
f 1149 1148 1143 1141
f 1143 1150 1151 1141
f 1151 1150 1138 1139
f 1151 1154 1149 1141
f 1163 1162 1147 1153
f 1147 1162 1167 1152
f 1145 1154 1151 1139
f 1150 1155 1144 1138
f 1166 1165 1146 1142
f 1146 1165 1164 1140
f 1148 1155 1150 1143
f 1142 1156 1161 1152
f 1147 1160 1159 1153
f 1160 1147 1152 1161
f 1159 1158 1140 1153
f 1146 1157 1156 1142
f 1158 1157 1146 1140
f 1161 1156 1157 1160
f 1160 1157 1158 1159
f 1149 1154 1162 1163
f 1164 1148 1149 1163
f 1165 1155 1148 1164
f 1144 1155 1165 1166
f 1145 1144 1166 1167
f 1162 1154 1145 1167
f 1171 1170 1186 1174
f 1186 1190 1191 1174
f 1188 1189 1176 1185
f 1176 1175 1172 1185
f 1169 1168 1177 1173
f 1172 1171 1174 1185
f 1174 1191 1188 1185
f 1189 1190 1186 1176
f 1186 1170 1175 1176
f 1184 1170 1171 1179
f 1179 1171 1172 1187
f 1172 1175 1180 1187
f 1175 1170 1184 1180
f 1182 1183 1181 1178
f 1184 1179 1182 1178
f 1180 1184 1178 1181
f 1187 1180 1181 1183
f 1182 1179 1187 1183
f 1173 1177 1189 1188
f 1177 1168 1190 1189
f 1191 1190 1168 1169
f 1188 1191 1169 1173
f 1193 1192 1203 1201
f 1203 1198 1197 1201
f 1201 1197 1202
f 1197 1198 1206 1202
f 1206 1192 1193 1202
f 1193 1201 1202
f 1192 1195 1204 1203
f 1204 1199 1198 1203
f 1195 1196 1205 1204
f 1205 1200 1199 1204
f 1196 1194 1205
f 1194 1200 1205
f 1198 1199 1207 1206
f 1207 1195 1192 1206
f 1199 1200 1208 1207
f 1208 1196 1195 1207
f 1200 1194 1208
f 1194 1196 1208
f 1210 1209 1214 1211
f 1214 1209 1215 1221
f 1215 1210 1211 1221
f 1217 1209 1210 1218
f 1213 1212 1216 1219
f 1216 1217 1218 1219
f 1215 1209 1217 1220
f 1218 1210 1215 1220
f 1220 1217 1216 1222
f 1216 1212 1223 1222
f 1223 1213 1219 1222
f 1219 1218 1220 1222
f 1212 1213 1223
f 1231 1225 1230 1239
f 1230 1224 1228 1239
f 1228 1224 1229 1240
f 1229 1225 1231 1240
f 1230 1225 1235 1237
f 1232 1224 1230 1237
f 1237 1235 1236 1241
f 1236 1227 1242 1241
f 1242 1234 1233 1241
f 1233 1232 1237 1241
f 1227 1226 1242
f 1226 1234 1242
f 1229 1224 1232 1238
f 1235 1225 1229 1238
f 1238 1232 1233 1243
f 1233 1234 1244 1243
f 1244 1227 1236 1243
f 1236 1235 1238 1243
f 1234 1226 1244
f 1226 1227 1244
f 1247 1246 1251 1258
f 1251 1245 1249 1258
f 1249 1245 1250 1259
f 1250 1246 1247 1259
f 1251 1246 1256 1254
f 1252 1245 1251 1254
f 1254 1256 1253 1255
f 1248 1252 1254 1255
f 1250 1245 1252 1257
f 1256 1246 1250 1257
f 1257 1252 1248 1260
f 1253 1256 1257 1260
f 1248 1255 1260
f 1255 1253 1260
f 1261 1262 1270 1276
f 1263 1267 1274 1272
f 1267 1263 1269 1268
f 1269 1262 1261 1268
f 1269 1263 1272 1277
f 1262 1269 1277 1270
f 1268 1261 1276 1278
f 1267 1268 1278 1274
f 1270 1264 1271 1276
f 1271 1264 1296 1291
f 1272 1265 1273 1277
f 1273 1264 1270 1277
f 1273 1265 1294 1295
f 1296 1264 1273 1295
f 1266 1265 1272 1274
f 1294 1265 1266 1293
f 1276 1271 1275 1278
f 1275 1266 1274 1278
f 1275 1271 1291 1292
f 1293 1266 1275 1292
f 1281 1280 1284 1287
f 1284 1282 1285 1287
f 1279 1288 1280 1281
f 1283 1289 1282 1284
f 1280 1288 1283 1284
f 1282 1289 1297 1285
f 1286 1279 1281 1287
f 1285 1297 1286 1287
f 1295 1283 1288 1296
f 1293 1290 1289 1294
f 1292 1286 1297 1293
f 1292 1291 1279 1286
f 1293 1297 1290
f 1295 1294 1289 1283
f 1291 1296 1288 1279
f 1289 1290 1297
f 1307 1298 1309 1299
f 1300 1308 1302 1301
f 1302 1307 1299 1301
f 1298 1308 1300 1309
f 1299 1309 1303 1304
f 1304 1303 1319 1322
f 1301 1299 1304 1305
f 1305 1304 1322 1321
f 1300 1301 1305 1306
f 1306 1305 1321 1320
f 1309 1300 1306 1303
f 1303 1306 1320 1319
f 1314 1311 1315 1318
f 1311 1314 1310
f 1311 1312 1316 1315
f 1312 1311 1310
f 1312 1313 1317 1316
f 1313 1312 1310
f 1313 1314 1318 1317
f 1314 1313 1310
f 1321 1322 1315 1316
f 1320 1321 1316 1317
f 1319 1320 1317 1318
f 1319 1318 1315 1322
f 1325 1324 1327 1328
f 1327 1323 1326 1328
f 1326 1323 1324 1325
f 1327 1324 1341 1342
f 1327 1342 1343 1323
f 1324 1323 1343 1341
f 1338 1339 1333 1332
f 1331 1340 1338 1332
f 1332 1333 1334 1337
f 1334 1335 1336 1337
f 1336 1329 1330 1337
f 1330 1331 1332 1337
f 1339 1340 1331 1333
f 1333 1331 1330 1334
f 1330 1329 1335 1334
f 1329 1336 1335
f 1343 1340 1339 1341
f 1342 1341 1339 1338
f 1340 1343 1342 1338
f 1346 1345 1347 1344
f 1345 1353 1351 1347
f 1350 1352 1367 1366
f 1351 1353 1352 1350
f 1352 1353 1349 1367
f 1349 1353 1345 1346
f 1347 1351 1348 1344
f 1348 1351 1350 1366
f 1364 1363 1365 1356
f 1365 1363 1355 1357
f 1354 1358 1346 1344
f 1357 1355 1358 1354
f 1349 1360 1359 1367
f 1358 1360 1349 1346
f 1360 1363 1364 1359
f 1367 1359 1361 1366
f 1359 1364 1356 1361
f 1348 1362 1354 1344
f 1361 1362 1348 1366
f 1362 1365 1357 1354
f 1356 1365 1362 1361
f 1358 1355 1363 1360
f 1372 1370 1373 1374
f 1371 1369 1372 1374
f 1373 1368 1374
f 1368 1371 1374
f 1373 1370 1369 1371
f 1368 1373 1371
f 1387 1388 1381 1380
f 1388 1399 1400 1381
f 1379 1392 1393
f 1380 1381 1378 1377
f 1381 1400 1396 1378
f 1392 1379 1382
f 1376 1375 1380 1377
f 1383 1387 1380 1375
f 1391 1386 1385 1390
f 1397 1398 1386 1391
f 1379 1394 1395
f 1387 1385 1386 1388
f 1388 1386 1398 1399
f 1393 1394 1379
f 1390 1385 1384 1389
f 1384 1385 1387 1383
f 1377 1390 1389 1376
f 1378 1391 1390 1377
f 1396 1397 1391 1378
f 1379 1395 1382
f 1393 1392 1400 1399
f 1394 1393 1399 1398
f 1395 1394 1398 1397
f 1382 1395 1397 1396
f 1382 1396 1400 1392
f 1404 1401 1402 1403
f 1409 1408 1418 1419
f 1411 1409 1419 1420
f 1407 1411 1420
f 1408 1409 1406 1405
f 1409 1411 1410 1406
f 1411 1407 1410
f 1403 1402 1408 1405
f 1408 1402 1413 1418
f 1415 1414 1413 1412
f 1401 1412 1413 1402
f 1404 1415 1412 1401
f 1403 1414 1415 1404
f 1406 1417 1416 1405
f 1410 1421 1417 1406
f 1407 1421 1410
f 1418 1416 1417 1419
f 1419 1417 1421 1420
f 1420 1421 1407
f 1405 1416 1414 1403
f 1414 1416 1418 1413
f 1425 1422 1423 1424
f 1430 1429 1439 1440
f 1432 1430 1440 1441
f 1428 1432 1441
f 1429 1430 1427 1426
f 1430 1432 1431 1427
f 1432 1428 1431
f 1424 1423 1429 1426
f 1429 1423 1434 1439
f 1436 1435 1434 1433
f 1422 1433 1434 1423
f 1425 1436 1433 1422
f 1424 1435 1436 1425
f 1427 1438 1437 1426
f 1431 1442 1438 1427
f 1428 1442 1431
f 1439 1437 1438 1440
f 1440 1438 1442 1441
f 1441 1442 1428
f 1426 1437 1435 1424
f 1435 1437 1439 1434
f 1445 1443 1444 1459
f 1460 1461 1455 1456
f 1447 1450 1460 1456
f 1448 1450 1449 1446
f 1450 1447 1449
f 1453 1458 1452 1451
f 1463 1451 1452 1462
f 1464 1453 1451 1463
f 1465 1458 1453 1464
f 1467 1457 1454 1466
f 1447 1457 1467
f 1455 1454 1457 1456
f 1456 1457 1447
f 1458 1454 1455 1452
f 1461 1462 1452 1455
f 1459 1444 1448 1446
f 1466 1454 1458 1465
f 1450 1448 1461 1460
f 1448 1444 1462 1461
f 1443 1463 1462 1444
f 1445 1464 1463 1443
f 1459 1465 1464 1445
f 1446 1466 1465 1459
f 1449 1467 1466 1446
f 1447 1467 1449
