# This file uses centimeters as units for non-parametric coordinates.

v -0.375183 0.008759 0.721234
v -0.424603 0.046360 0.706401
v -0.410793 0.060511 0.708321
v -0.393390 0.069597 0.710741
v -0.374100 0.072727 0.713424
v -0.354809 0.069597 0.716107
v -0.337407 0.060511 0.718526
v -0.323596 0.046360 0.720447
v -0.314729 0.028524 0.721680
v -0.311674 0.008759 0.722105
v -0.314729 -0.011011 0.721680
v -0.323596 -0.028845 0.720447
v -0.337407 -0.042995 0.718526
v -0.354809 -0.052084 0.716107
v -0.374100 -0.055214 0.713424
v -0.393390 -0.052084 0.710741
v -0.410793 -0.042995 0.708321
v -0.424603 -0.028845 0.706401
v -0.433470 -0.011011 0.705167
v -0.436526 0.008759 0.704742
v -0.433470 0.028524 0.705168
v -0.345759 0.065756 0.717365
v -0.329959 0.053993 0.719562
v -0.318479 0.037798 0.721158
v -0.312443 0.018764 0.721997
v -0.312443 -0.001249 0.721997
v -0.318479 -0.020285 0.721158
v -0.329959 -0.036476 0.719562
v -0.345759 -0.048241 0.717365
v -0.364334 -0.054424 0.714782
v -0.383865 -0.054424 0.712066
v -0.402440 -0.048241 0.709482
v -0.418241 -0.036476 0.707285
v -0.429721 -0.020285 0.705689
v -0.435756 -0.001249 0.704849
v -0.435756 0.018764 0.704849
v -0.429721 0.037800 0.705689
v -0.418241 0.053993 0.707285
v -0.402440 0.065756 0.709483
v -0.383865 0.071939 0.712066
v -0.364334 0.071939 0.714782
v 0.377251 0.010313 0.721180
v 0.325657 0.047915 0.720543
v 0.339462 0.062065 0.718583
v 0.356857 0.071152 0.716112
v 0.376140 0.074282 0.713374
v 0.395423 0.071152 0.710635
v 0.412818 0.062065 0.708165
v 0.426623 0.047915 0.706204
v 0.435487 0.030079 0.704945
v 0.438541 0.010313 0.704511
v 0.435487 -0.009457 0.704945
v 0.426623 -0.027290 0.706204
v 0.412818 -0.041441 0.708165
v 0.395423 -0.050529 0.710635
v 0.376140 -0.053659 0.713374
v 0.356857 -0.050529 0.716112
v 0.339462 -0.041441 0.718583
v 0.325657 -0.027290 0.720543
v 0.316794 -0.009457 0.721802
v 0.313739 0.010313 0.722236
v 0.316794 0.030079 0.721802
v 0.404469 0.067310 0.709350
v 0.420263 0.055548 0.707107
v 0.431738 0.039352 0.705477
v 0.437771 0.020319 0.704620
v 0.437771 0.000305 0.704620
v 0.431738 -0.018730 0.705477
v 0.420263 -0.034922 0.707107
v 0.404469 -0.046686 0.709350
v 0.385901 -0.052870 0.711987
v 0.366379 -0.052870 0.714760
v 0.347811 -0.046686 0.717397
v 0.332017 -0.034922 0.719639
v 0.320542 -0.018730 0.721269
v 0.314509 0.000305 0.722126
v 0.314509 0.020319 0.722126
v 0.320542 0.039354 0.721269
v 0.332017 0.055548 0.719639
v 0.347811 0.067310 0.717397
v 0.366379 0.073494 0.714760
v 0.385901 0.073494 0.711987
vt 0.499588 0.499346
vt 0.429368 0.550364
vt 0.448570 0.569566
vt 0.472766 0.581895
vt 0.499588 0.586143
vt 0.526410 0.581895
vt 0.550606 0.569566
vt 0.569808 0.550364
vt 0.582137 0.526168
vt 0.586385 0.499346
vt 0.582137 0.472524
vt 0.569808 0.448328
vt 0.550606 0.429126
vt 0.526410 0.416797
vt 0.499588 0.412550
vt 0.472766 0.416797
vt 0.448570 0.429126
vt 0.429368 0.448328
vt 0.417039 0.472524
vt 0.412791 0.499346
vt 0.417039 0.526168
vt 0.538990 0.576677
vt 0.560958 0.560716
vt 0.576918 0.538748
vt 0.585310 0.512923
vt 0.585310 0.485769
vt 0.576918 0.459943
vt 0.560958 0.437976
vt 0.538990 0.422016
vt 0.513165 0.413625
vt 0.486011 0.413625
vt 0.460186 0.422016
vt 0.438218 0.437976
vt 0.422257 0.459943
vt 0.413866 0.485769
vt 0.413866 0.512923
vt 0.422257 0.538748
vt 0.438218 0.560716
vt 0.460186 0.576677
vt 0.486011 0.585068
vt 0.513165 0.585068
vt 0.569808 0.550364
vt 0.582137 0.526168
vt 0.550606 0.569566
vt 0.526410 0.581895
vt 0.499588 0.586143
vt 0.472766 0.581895
vt 0.448570 0.569566
vt 0.429368 0.550364
vt 0.417039 0.526168
vt 0.412791 0.499346
vt 0.417039 0.472524
vt 0.429368 0.448328
vt 0.448570 0.429126
vt 0.472766 0.416797
vt 0.499588 0.412550
vt 0.526410 0.416797
vt 0.550606 0.429126
vt 0.569808 0.448328
vt 0.582137 0.472524
vt 0.586385 0.499346
vt 0.499588 0.499346
vt 0.538990 0.576677
vt 0.560958 0.560716
vt 0.576918 0.538748
vt 0.585310 0.512923
vt 0.585310 0.485769
vt 0.576918 0.459943
vt 0.560958 0.437976
vt 0.538990 0.422016
vt 0.513165 0.413625
vt 0.486011 0.413625
vt 0.460186 0.422016
vt 0.438218 0.437976
vt 0.422257 0.459943
vt 0.413866 0.485769
vt 0.413866 0.512923
vt 0.422257 0.538748
vt 0.438218 0.560716
vt 0.460186 0.576677
vt 0.486011 0.585068
vt 0.513165 0.585068
f 8/8 1/1 9/9 24/24
f 7/7 1/1 8/8 23/23
f 6/6 1/1 7/7 22/22
f 5/5 1/1 6/6 41/41
f 4/4 1/1 5/5 40/40
f 3/3 1/1 4/4 39/39
f 2/2 1/1 3/3 38/38
f 21/21 1/1 2/2 37/37
f 20/20 1/1 21/21 36/36
f 19/19 1/1 20/20 35/35
f 18/18 1/1 19/19 34/34
f 17/17 1/1 18/18 33/33
f 16/16 1/1 17/17 32/32
f 15/15 1/1 16/16 31/31
f 14/14 1/1 15/15 30/30
f 13/13 1/1 14/14 29/29
f 12/12 1/1 13/13 28/28
f 11/11 1/1 12/12 27/27
f 10/10 1/1 11/11 26/26
f 9/9 1/1 10/10 25/25
f 49/42 42/62 50/43 65/65
f 48/44 42/62 49/42 64/64
f 47/45 42/62 48/44 63/63
f 46/46 42/62 47/45 82/82
f 45/47 42/62 46/46 81/81
f 44/48 42/62 45/47 80/80
f 43/49 42/62 44/48 79/79
f 62/50 42/62 43/49 78/78
f 61/51 42/62 62/50 77/77
f 60/52 42/62 61/51 76/76
f 59/53 42/62 60/52 75/75
f 58/54 42/62 59/53 74/74
f 57/55 42/62 58/54 73/73
f 56/56 42/62 57/55 72/72
f 55/57 42/62 56/56 71/71
f 54/58 42/62 55/57 70/70
f 53/59 42/62 54/58 69/69
f 52/60 42/62 53/59 68/68
f 51/61 42/62 52/60 67/67
f 50/43 42/62 51/61 66/66
