# Blender 3.6.4
# www.blender.org
mtllib antlers.mtl
o Object_15
v 0.067798 2.998967 1.489390
v 0.066152 3.002219 1.486819
v 0.061986 2.999291 1.489652
v 0.710566 3.109733 1.899939
v 0.711746 3.106513 1.902790
v 0.715420 3.111036 1.902889
v 0.465507 3.254569 1.628192
v 0.463289 3.250994 1.629673
v 0.469062 3.250418 1.630213
v 0.190783 3.108677 1.557055
v 0.190325 3.104917 1.559411
v 0.195901 3.106487 1.558779
v 0.066152 3.002219 1.486819
v 0.062065 3.003756 1.485908
v 0.061986 2.999291 1.489652
v 0.715078 3.105942 1.905700
v 0.463289 3.250994 1.629673
v 0.464453 3.247082 1.631470
v 0.469062 3.250418 1.630213
v 0.190325 3.104917 1.559411
v 0.193133 3.102077 1.561396
v 0.195901 3.106487 1.558779
v 0.468318 3.245124 1.632531
v 0.472618 3.246268 1.632234
v 0.057932 3.002677 1.487190
v 0.718610 3.108355 1.906963
v 0.197563 3.101821 1.561849
v 0.056173 2.999615 1.489915
v 0.474836 3.249842 1.630753
v 0.718610 3.108355 1.906963
v 0.720273 3.112338 1.905839
v 0.715420 3.111036 1.902889
v 0.719093 3.115558 1.902988
v 0.715761 3.116128 1.900078
v 0.201019 3.104298 1.560503
v 0.056173 2.999615 1.489915
v 0.057819 2.996363 1.492485
v 0.061906 2.994826 1.493396
v 0.066039 2.995905 1.492114
v 0.474836 3.249842 1.630753
v 0.473672 3.253755 1.628955
v 0.201477 3.108057 1.558147
v 0.712229 3.113716 1.898815
v 0.469807 3.255713 1.627895
v 0.201477 3.108057 1.558147
v 0.198669 3.110897 1.556162
v 0.194239 3.111154 1.555709
v 0.712229 3.113716 1.898815
v -0.067798 2.998967 1.489390
v -0.061986 2.999291 1.489652
v -0.066152 3.002219 1.486819
v -0.710566 3.109733 1.899939
v -0.715420 3.111036 1.902889
v -0.711746 3.106513 1.902790
v -0.465507 3.254569 1.628192
v -0.469062 3.250418 1.630213
v -0.463289 3.250994 1.629673
v -0.190783 3.108677 1.557055
v -0.195901 3.106487 1.558779
v -0.190325 3.104917 1.559411
v -0.066152 3.002219 1.486819
v -0.061986 2.999291 1.489652
v -0.062065 3.003756 1.485908
v -0.715078 3.105942 1.905700
v -0.463289 3.250994 1.629673
v -0.469062 3.250418 1.630213
v -0.464453 3.247082 1.631470
v -0.190325 3.104917 1.559411
v -0.195901 3.106487 1.558779
v -0.193133 3.102077 1.561396
v -0.468318 3.245124 1.632531
v -0.472618 3.246268 1.632234
v -0.057932 3.002677 1.487190
v -0.718610 3.108355 1.906963
v -0.197563 3.101821 1.561849
v -0.056173 2.999615 1.489915
v -0.474836 3.249842 1.630753
v -0.718610 3.108355 1.906963
v -0.715420 3.111036 1.902889
v -0.720273 3.112338 1.905839
v -0.719093 3.115558 1.902988
v -0.715761 3.116128 1.900078
v -0.201019 3.104298 1.560503
v -0.056173 2.999615 1.489915
v -0.057819 2.996363 1.492485
v -0.061906 2.994826 1.493396
v -0.066039 2.995905 1.492114
v -0.474836 3.249842 1.630753
v -0.473672 3.253755 1.628955
v -0.201477 3.108057 1.558147
v -0.712229 3.113716 1.898815
v -0.469807 3.255713 1.627895
v -0.201477 3.108057 1.558147
v -0.198669 3.110897 1.556162
v -0.194239 3.111154 1.555709
v -0.712229 3.113716 1.898815
v 0.019780 2.658242 1.433978
v 0.182123 2.821158 1.417479
v 0.200094 2.798675 1.402348
v 0.046873 2.651940 1.423633
v 0.005732 2.654263 1.459815
v 0.176727 2.829211 1.448519
v 0.012958 2.642333 1.486011
v 0.187066 2.818117 1.477284
v 0.176727 2.829211 1.448519
v 0.005732 2.654263 1.459815
v 0.037225 2.629440 1.497219
v 0.207085 2.794374 1.486924
v 0.064318 2.623137 1.486875
v 0.225057 2.771891 1.471792
v 0.078366 2.627116 1.461038
v 0.230453 2.763838 1.440753
v 0.071140 2.639047 1.434842
v 0.220113 2.774932 1.411988
v 0.230453 2.763838 1.440753
v 0.078366 2.627116 1.461038
v 0.418399 2.960977 1.466954
v 0.426824 2.955590 1.439913
v 0.415954 2.945329 1.491046
v 0.418399 2.960977 1.466954
v 0.420922 2.917812 1.498076
v 0.430393 2.894546 1.483925
v 0.438818 2.889159 1.456883
v 0.441262 2.904807 1.432791
v 0.438818 2.889159 1.456883
v 0.436294 2.932324 1.425762
v 0.589089 2.954174 1.516154
v 0.716789 2.953524 1.608688
v 0.725600 2.936749 1.600372
v 0.595823 2.933594 1.503372
v 0.516407 2.962687 1.473519
v 0.523018 2.940618 1.459464
v 0.505276 2.967311 1.497667
v 0.496145 2.951779 1.517760
v 0.505276 2.967311 1.497667
v 0.494363 2.925190 1.522029
v 0.500974 2.903120 1.507974
v 0.512105 2.898497 1.483826
v 0.521236 2.914029 1.463733
v 0.512105 2.898497 1.483826
v 0.575991 2.958562 1.537165
v 0.564202 2.944188 1.554097
v 0.575991 2.958562 1.537165
v 0.560627 2.919472 1.557030
v 0.567361 2.898892 1.544248
v 0.580459 2.894504 1.523237
v 0.592248 2.908878 1.506305
v 0.580459 2.894504 1.523237
v 0.704970 2.957138 1.625286
v 0.697065 2.945473 1.640441
v 0.704970 2.957138 1.625286
v 0.697706 2.925363 1.645277
v 0.706517 2.908587 1.636960
v 0.718337 2.904973 1.620363
v 0.726241 2.916638 1.605208
v 0.718337 2.904973 1.620363
v 0.800896 2.985159 1.682205
v 0.782079 3.061379 1.799948
v 0.790384 3.059434 1.805653
v 0.813432 2.976082 1.682101
v 0.787223 2.984853 1.689451
v 0.780421 2.975344 1.699593
v 0.787223 2.984853 1.689451
v 0.784477 2.962202 1.706692
v 0.797013 2.953125 1.706588
v 0.810686 2.953431 1.699343
v 0.817488 2.962940 1.689200
v 0.810686 2.953431 1.699343
v 0.773103 3.056667 1.798357
v 0.768714 3.048059 1.801812
v 0.773103 3.056667 1.798357
v 0.771482 3.040597 1.808290
v 0.779787 3.038653 1.813995
v 0.788763 3.043364 1.815586
v 0.793153 3.051972 1.812131
v 0.788763 3.043364 1.815586
v 0.209077 2.844809 1.431194
v 0.213045 2.889411 1.434614
v 0.229611 2.890886 1.424397
v 0.227460 2.842258 1.419583
v 0.204260 2.845866 1.452523
v 0.208618 2.887515 1.453530
v 0.215832 2.844809 1.471077
v 0.218923 2.886308 1.470062
v 0.208618 2.887515 1.453530
v 0.204260 2.845866 1.452523
v 0.237013 2.842258 1.475986
v 0.237923 2.886499 1.474528
v 0.255396 2.839706 1.464376
v 0.254489 2.887974 1.464311
v 0.260213 2.838649 1.443047
v 0.258916 2.889870 1.445396
v 0.248641 2.839706 1.424493
v 0.248611 2.891077 1.428863
v 0.258916 2.889870 1.445396
v 0.260213 2.838649 1.443047
v 0.201669 2.982727 1.473094
v 0.204518 2.988194 1.459670
v 0.209729 2.979895 1.485147
v 0.201669 2.982727 1.473094
v 0.223977 2.981359 1.488766
v 0.236066 2.986260 1.481833
v 0.238915 2.991728 1.468408
v 0.230855 2.994559 1.456356
v 0.238915 2.991728 1.468408
v 0.216607 2.993095 1.452737
v 0.190046 3.077562 1.515050
v 0.197908 3.082542 1.511320
v 0.188767 3.070692 1.522240
v 0.194822 3.065956 1.528679
v 0.188767 3.070692 1.522240
v 0.204662 3.066128 1.530593
v 0.212525 3.071108 1.526863
v 0.213803 3.077978 1.519672
v 0.207749 3.082714 1.513234
v 0.213803 3.077978 1.519672
v 0.489965 3.008291 1.495594
v 0.483665 3.115380 1.519091
v 0.468345 3.113662 1.522663
v 0.469364 3.006549 1.500599
v 0.496044 2.957276 1.495932
v 0.472847 2.954809 1.501553
v 0.508528 2.958298 1.475464
v 0.500878 3.011053 1.477544
v 0.502985 2.957276 1.452140
v 0.495709 3.013217 1.457023
v 0.500878 3.011053 1.477544
v 0.508528 2.958298 1.475464
v 0.482662 2.954809 1.439622
v 0.477486 3.013514 1.446052
v 0.459465 2.952343 1.445243
v 0.456885 3.011771 1.451057
v 0.446981 2.951321 1.465710
v 0.445973 3.009009 1.469107
v 0.452524 2.952343 1.489035
v 0.451142 3.006846 1.489628
v 0.445973 3.009009 1.469107
v 0.446981 2.951321 1.465710
v 0.491696 3.121207 1.506763
v 0.487732 3.127731 1.492901
v 0.491696 3.121207 1.506763
v 0.474096 3.131130 1.485625
v 0.458776 3.129413 1.489198
v 0.450746 3.123585 1.501525
v 0.454709 3.117061 1.515387
v 0.450746 3.123585 1.501525
v 0.479152 3.208869 1.582989
v 0.469115 3.206710 1.584498
v 0.484391 3.215895 1.577431
v 0.481763 3.223671 1.571082
v 0.484391 3.215895 1.577431
v 0.472807 3.227643 1.567660
v 0.462770 3.225483 1.569170
v 0.457531 3.218458 1.574727
v 0.460159 3.210682 1.581076
v 0.457531 3.218458 1.574727
v 0.115830 2.786142 1.473843
v 0.084360 2.876501 1.465805
v 0.066746 2.873288 1.472520
v 0.092970 2.775882 1.483263
v 0.139469 2.752834 1.479013
v 0.117113 2.735061 1.489978
v 0.149513 2.760195 1.451071
v 0.126204 2.790041 1.449476
v 0.141362 2.752834 1.422519
v 0.118015 2.785295 1.424436
v 0.119791 2.735061 1.410083
v 0.096061 2.774683 1.413392
v 0.118015 2.785295 1.424436
v 0.141362 2.752834 1.422519
v 0.097435 2.717289 1.421047
v 0.073202 2.764423 1.422812
v 0.087391 2.709927 1.448989
v 0.062828 2.760525 1.447179
v 0.095542 2.717289 1.477541
v 0.071016 2.765271 1.472219
v 0.062828 2.760525 1.447179
v 0.087391 2.709927 1.448989
v 0.091983 2.878869 1.448428
v 0.085149 2.879006 1.430569
v 0.067861 2.876831 1.422689
v 0.085149 2.879006 1.430569
v 0.050247 2.873618 1.429405
v 0.042625 2.871250 1.446782
v 0.049459 2.871113 1.464641
v 0.042625 2.871250 1.446782
v 0.071082 2.963050 1.476093
v 0.060486 2.961112 1.480054
v 0.075456 2.967788 1.466599
v 0.071046 2.972549 1.457133
v 0.060435 2.974546 1.453242
v 0.071046 2.972549 1.457133
v 0.049840 2.972607 1.457203
v 0.045466 2.967870 1.466697
v 0.049876 2.963108 1.476162
v 0.045466 2.967870 1.466697
v 0.011933 2.589580 1.464514
v 0.036200 2.576687 1.475722
v 0.077341 2.574364 1.439541
v 0.070115 2.586294 1.413345
v 0.018755 2.605490 1.412480
v 0.004707 2.601511 1.438318
v 0.063293 2.570384 1.465378
v 0.045848 2.599187 1.402136
v 0.004707 2.601511 1.438318
v 0.077341 2.574364 1.439541
v -0.019780 2.658242 1.433978
v -0.046873 2.651940 1.423633
v -0.200094 2.798675 1.402348
v -0.182123 2.821158 1.417479
v -0.005732 2.654263 1.459815
v -0.176727 2.829211 1.448519
v -0.012958 2.642333 1.486011
v -0.005732 2.654263 1.459815
v -0.176727 2.829211 1.448519
v -0.187066 2.818117 1.477284
v -0.037225 2.629440 1.497219
v -0.207085 2.794374 1.486924
v -0.064318 2.623137 1.486875
v -0.225057 2.771891 1.471792
v -0.078366 2.627116 1.461038
v -0.230453 2.763838 1.440753
v -0.071140 2.639047 1.434842
v -0.078366 2.627116 1.461038
v -0.230453 2.763838 1.440753
v -0.220113 2.774932 1.411988
v -0.426824 2.955590 1.439913
v -0.418399 2.960977 1.466954
v -0.418399 2.960977 1.466954
v -0.415954 2.945329 1.491046
v -0.420922 2.917812 1.498076
v -0.430393 2.894546 1.483925
v -0.438818 2.889159 1.456883
v -0.438818 2.889159 1.456883
v -0.441262 2.904807 1.432791
v -0.436294 2.932324 1.425762
v -0.589089 2.954174 1.516154
v -0.595823 2.933594 1.503372
v -0.725600 2.936749 1.600372
v -0.716789 2.953524 1.608688
v -0.523018 2.940618 1.459464
v -0.516407 2.962687 1.473519
v -0.505276 2.967311 1.497667
v -0.505276 2.967311 1.497667
v -0.496145 2.951779 1.517760
v -0.494363 2.925190 1.522029
v -0.500974 2.903120 1.507974
v -0.512105 2.898497 1.483826
v -0.512105 2.898497 1.483826
v -0.521236 2.914029 1.463733
v -0.575991 2.958562 1.537165
v -0.575991 2.958562 1.537165
v -0.564202 2.944188 1.554097
v -0.560627 2.919472 1.557030
v -0.567361 2.898892 1.544248
v -0.580459 2.894504 1.523237
v -0.580459 2.894504 1.523237
v -0.592248 2.908878 1.506305
v -0.704970 2.957138 1.625286
v -0.704970 2.957138 1.625286
v -0.697065 2.945473 1.640441
v -0.697706 2.925363 1.645277
v -0.706517 2.908587 1.636960
v -0.718337 2.904973 1.620363
v -0.718337 2.904973 1.620363
v -0.726241 2.916638 1.605208
v -0.800896 2.985159 1.682205
v -0.813432 2.976082 1.682101
v -0.790384 3.059434 1.805653
v -0.782079 3.061379 1.799948
v -0.787223 2.984853 1.689451
v -0.787223 2.984853 1.689451
v -0.780421 2.975344 1.699593
v -0.784477 2.962202 1.706692
v -0.797013 2.953125 1.706588
v -0.810686 2.953431 1.699343
v -0.810686 2.953431 1.699343
v -0.817488 2.962940 1.689200
v -0.773103 3.056667 1.798357
v -0.773103 3.056667 1.798357
v -0.768714 3.048059 1.801812
v -0.771482 3.040597 1.808290
v -0.779787 3.038653 1.813995
v -0.788763 3.043364 1.815586
v -0.788763 3.043364 1.815586
v -0.793153 3.051972 1.812131
v -0.209077 2.844809 1.431194
v -0.227460 2.842258 1.419583
v -0.229611 2.890886 1.424397
v -0.213045 2.889411 1.434614
v -0.204260 2.845866 1.452523
v -0.208618 2.887515 1.453530
v -0.215832 2.844809 1.471077
v -0.204260 2.845866 1.452523
v -0.208618 2.887515 1.453530
v -0.218923 2.886308 1.470062
v -0.237013 2.842258 1.475986
v -0.237923 2.886499 1.474528
v -0.255396 2.839706 1.464376
v -0.254489 2.887974 1.464311
v -0.260213 2.838649 1.443047
v -0.258916 2.889870 1.445396
v -0.248641 2.839706 1.424493
v -0.260213 2.838649 1.443047
v -0.258916 2.889870 1.445396
v -0.248611 2.891077 1.428863
v -0.204518 2.988194 1.459670
v -0.201669 2.982727 1.473094
v -0.201669 2.982727 1.473094
v -0.209729 2.979895 1.485147
v -0.223977 2.981359 1.488766
v -0.236066 2.986260 1.481833
v -0.238915 2.991728 1.468408
v -0.238915 2.991728 1.468408
v -0.230855 2.994559 1.456356
v -0.216607 2.993095 1.452737
v -0.197908 3.082542 1.511320
v -0.190046 3.077562 1.515050
v -0.188767 3.070692 1.522240
v -0.188767 3.070692 1.522240
v -0.194822 3.065956 1.528679
v -0.204662 3.066128 1.530593
v -0.212525 3.071108 1.526863
v -0.213803 3.077978 1.519672
v -0.213803 3.077978 1.519672
v -0.207749 3.082714 1.513234
v -0.489965 3.008291 1.495594
v -0.469364 3.006549 1.500599
v -0.468345 3.113662 1.522663
v -0.483665 3.115380 1.519091
v -0.496044 2.957276 1.495932
v -0.472847 2.954809 1.501553
v -0.508528 2.958298 1.475464
v -0.500878 3.011053 1.477544
v -0.502985 2.957276 1.452140
v -0.508528 2.958298 1.475464
v -0.500878 3.011053 1.477544
v -0.495709 3.013217 1.457023
v -0.482662 2.954809 1.439622
v -0.477486 3.013514 1.446052
v -0.459465 2.952343 1.445243
v -0.456885 3.011771 1.451057
v -0.446981 2.951321 1.465710
v -0.445973 3.009009 1.469107
v -0.452524 2.952343 1.489035
v -0.446981 2.951321 1.465710
v -0.445973 3.009009 1.469107
v -0.451142 3.006846 1.489628
v -0.491696 3.121207 1.506763
v -0.491696 3.121207 1.506763
v -0.487732 3.127731 1.492901
v -0.474096 3.131130 1.485625
v -0.458776 3.129413 1.489198
v -0.450746 3.123585 1.501525
v -0.450746 3.123585 1.501525
v -0.454709 3.117061 1.515387
v -0.469115 3.206710 1.584498
v -0.479152 3.208869 1.582989
v -0.484391 3.215895 1.577431
v -0.484391 3.215895 1.577431
v -0.481763 3.223671 1.571082
v -0.472807 3.227643 1.567660
v -0.462770 3.225483 1.569170
v -0.457531 3.218458 1.574727
v -0.457531 3.218458 1.574727
v -0.460159 3.210682 1.581076
v -0.115830 2.786142 1.473843
v -0.092970 2.775882 1.483263
v -0.066746 2.873288 1.472520
v -0.084360 2.876501 1.465805
v -0.139469 2.752834 1.479013
v -0.117113 2.735061 1.489978
v -0.149513 2.760195 1.451071
v -0.126204 2.790041 1.449476
v -0.141362 2.752834 1.422519
v -0.118015 2.785295 1.424436
v -0.119791 2.735061 1.410083
v -0.141362 2.752834 1.422519
v -0.118015 2.785295 1.424436
v -0.096061 2.774683 1.413392
v -0.097435 2.717289 1.421047
v -0.073202 2.764423 1.422812
v -0.087391 2.709927 1.448989
v -0.062828 2.760525 1.447179
v -0.095542 2.717289 1.477541
v -0.087391 2.709927 1.448989
v -0.062828 2.760525 1.447179
v -0.071016 2.765271 1.472219
v -0.091983 2.878869 1.448428
v -0.085149 2.879006 1.430569
v -0.085149 2.879006 1.430569
v -0.067861 2.876831 1.422689
v -0.050247 2.873618 1.429405
v -0.042625 2.871250 1.446782
v -0.042625 2.871250 1.446782
v -0.049459 2.871113 1.464641
v -0.060486 2.961112 1.480054
v -0.071082 2.963050 1.476093
v -0.075456 2.967788 1.466599
v -0.071046 2.972549 1.457133
v -0.071046 2.972549 1.457133
v -0.060435 2.974546 1.453242
v -0.049840 2.972607 1.457203
v -0.045466 2.967870 1.466697
v -0.045466 2.967870 1.466697
v -0.049876 2.963108 1.476162
v -0.036200 2.576687 1.475722
v -0.011933 2.589580 1.464514
v -0.070115 2.586294 1.413345
v -0.077341 2.574364 1.439541
v -0.004707 2.601511 1.438318
v -0.018755 2.605490 1.412480
v -0.063293 2.570384 1.465378
v -0.045848 2.599187 1.402136
v -0.004707 2.601511 1.438318
v -0.077341 2.574364 1.439541
vn 0.7406 0.4866 0.4635
vn 0.5417 0.8346 0.0997
vn 0.0702 0.6402 0.7650
vn -0.9860 0.1301 0.1045
vn -0.8334 -0.2856 0.4731
vn -0.5504 0.4314 0.7148
vn -0.4776 0.8229 0.3076
vn -0.7582 0.3813 0.5289
vn -0.0449 0.4059 0.9128
vn -0.6973 0.6522 0.2972
vn -0.7537 0.1989 0.6264
vn -0.0551 0.5350 0.8431
vn 0.5417 0.8346 0.0998
vn 0.0422 0.9985 -0.0344
vn -0.3951 -0.3675 0.8419
vn -0.6065 -0.0958 0.7893
vn -0.0449 0.4060 0.9128
vn -0.3992 -0.1285 0.9078
vn -0.1214 -0.3316 0.9356
vn 0.4185 -0.1977 0.8865
vn -0.4589 0.8785 0.1325
vn 0.0762 -0.0630 0.9951
vn 0.1484 -0.1445 0.9783
vn -0.6664 0.5477 0.5060
vn 0.7060 0.2357 0.6678
vn 0.3016 0.4509 0.8400
vn -0.5503 0.4314 0.7149
vn 0.1476 0.8714 0.4678
vn -0.2955 0.9504 0.0971
vn 0.5785 0.1522 0.8014
vn -0.6664 0.5477 0.5059
vn -0.4546 0.2102 0.8655
vn 0.0347 0.0615 0.9975
vn 0.5227 0.1706 0.8353
vn 0.5632 0.7196 0.4063
vn 0.6453 0.5985 0.4747
vn -0.7656 0.6412 -0.0524
vn 0.0712 0.9637 0.2571
vn 0.2982 0.9355 0.1894
vn -0.2599 0.9586 0.1163
vn -0.7655 0.6413 -0.0524
vn -0.7406 0.4866 0.4635
vn -0.0702 0.6402 0.7650
vn -0.5417 0.8346 0.0997
vn 0.9860 0.1301 0.1045
vn 0.5504 0.4314 0.7148
vn 0.8334 -0.2856 0.4732
vn 0.4776 0.8229 0.3076
vn 0.0449 0.4059 0.9128
vn 0.7582 0.3813 0.5289
vn 0.6973 0.6522 0.2972
vn 0.0551 0.5350 0.8431
vn 0.7537 0.1989 0.6264
vn -0.5417 0.8346 0.0998
vn -0.0422 0.9985 -0.0344
vn 0.3951 -0.3675 0.8419
vn 0.0449 0.4060 0.9128
vn 0.6065 -0.0958 0.7893
vn 0.3992 -0.1285 0.9078
vn 0.1214 -0.3316 0.9356
vn -0.4185 -0.1977 0.8865
vn 0.4589 0.8785 0.1325
vn -0.0762 -0.0630 0.9951
vn -0.1484 -0.1445 0.9783
vn 0.6664 0.5477 0.5060
vn -0.7060 0.2357 0.6678
vn 0.5503 0.4314 0.7149
vn -0.3016 0.4509 0.8400
vn -0.1476 0.8714 0.4678
vn 0.2955 0.9504 0.0971
vn -0.5785 0.1522 0.8014
vn 0.6664 0.5477 0.5059
vn 0.4546 0.2102 0.8655
vn -0.0347 0.0615 0.9975
vn -0.5227 0.1707 0.8353
vn -0.7061 0.2356 0.6678
vn -0.5632 0.7196 0.4063
vn -0.6453 0.5985 0.4747
vn 0.7656 0.6412 -0.0524
vn -0.0712 0.9637 0.2572
vn -0.2982 0.9355 0.1894
vn 0.2599 0.9586 0.1163
vn 0.7655 0.6413 -0.0524
vn -0.6573 0.4378 -0.6134
vn -0.4605 0.6117 -0.6432
vn -0.0552 0.0703 -0.9960
vn -0.0521 0.2013 -0.9782
vn -0.9153 0.3998 0.0486
vn -0.6025 0.7947 0.0737
vn -0.7106 0.1510 0.6872
vn -0.4106 0.5342 0.7390
vn -0.1323 -0.1529 0.9793
vn 0.0219 -0.0365 0.9991
vn 0.5206 -0.3860 0.7616
vn 0.4563 -0.6092 0.6486
vn 0.8917 -0.4488 0.0590
vn 0.5886 -0.8006 -0.1123
vn 0.6419 -0.1936 -0.7419
vn 0.3690 -0.5091 -0.7776
vn 0.8917 -0.4488 0.0589
vn -0.3059 0.9476 0.0917
vn -0.0997 0.7983 -0.5940
vn -0.3366 0.5846 0.7382
vn -0.1511 -0.1247 0.9806
vn 0.1505 -0.7765 0.6119
vn 0.3635 -0.9182 -0.1572
vn 0.3556 -0.4809 -0.8014
vn 0.3634 -0.9183 -0.1572
vn 0.1640 0.2224 -0.9611
vn 0.3394 0.8322 -0.4385
vn 0.2566 0.8270 -0.5003
vn 0.6045 0.1857 -0.7746
vn 0.5524 0.2019 -0.8087
vn 0.2421 0.8419 -0.4823
vn 0.4275 0.2347 -0.8730
vn -0.0636 0.9806 0.1852
vn -0.3222 0.5608 0.7627
vn -0.3800 -0.2016 0.9027
vn -0.1894 -0.8479 0.4951
vn 0.1340 -0.9692 -0.2068
vn 0.3873 -0.5106 -0.7677
vn 0.1339 -0.9692 -0.2068
vn -0.0595 0.9772 0.2040
vn -0.4090 0.5339 0.7401
vn -0.4944 -0.2314 0.8379
vn -0.2708 -0.8513 0.4494
vn 0.1230 -0.9752 -0.1843
vn 0.4621 -0.5422 -0.7018
vn -0.2334 0.9657 0.1134
vn -0.5454 0.5115 0.6640
vn -0.5079 -0.2344 0.8289
vn -0.1504 -0.8365 0.5270
vn 0.3089 -0.9495 -0.0546
vn 0.6139 -0.5349 -0.5806
vn 0.2376 0.8030 -0.5465
vn 0.1270 0.8678 -0.4805
vn 0.7389 0.6671 -0.0948
vn 0.7845 0.3490 -0.5126
vn -0.4719 0.8414 -0.2632
vn -0.9134 0.3087 0.2652
vn -0.4719 0.8414 -0.2633
vn -0.6493 -0.4366 0.6227
vn 0.0149 -0.8112 0.5846
vn 0.6396 -0.7250 0.2555
vn 0.9455 -0.2642 -0.1903
vn -0.5948 0.5719 -0.5649
vn -0.9581 -0.0624 -0.2797
vn -0.7377 -0.6429 0.2061
vn -0.0548 -0.8078 0.5868
vn 0.6281 -0.4639 0.6247
vn 0.9286 0.1328 0.3466
vn 0.6282 -0.4639 0.6247
vn -0.7942 0.1159 -0.5965
vn -0.7957 0.1003 -0.5974
vn -0.1427 0.1747 -0.9742
vn -0.1342 0.1037 -0.9855
vn -0.9825 0.0980 0.1582
vn -0.9892 0.0002 0.1466
vn -0.5695 0.0613 0.8197
vn -0.5781 -0.0616 0.8136
vn 0.1894 0.0276 0.9815
vn 0.1857 -0.0451 0.9816
vn 0.8284 0.0165 0.5599
vn 0.8251 0.0348 0.5639
vn 0.9842 0.0338 -0.1736
vn 0.9776 0.1280 -0.1668
vn 0.5923 0.0695 -0.8027
vn 0.5804 0.1841 -0.7933
vn 0.9776 0.1281 -0.1668
vn -0.9823 -0.1480 0.1150
vn -0.8098 0.1407 -0.5696
vn -0.5685 -0.3201 0.7578
vn 0.1990 -0.2583 0.9454
vn 0.8295 -0.0028 0.5586
vn 0.9493 0.2824 -0.1381
vn 0.5258 0.4337 -0.7317
vn -0.1887 0.3756 -0.9074
vn -0.8504 0.3117 -0.4238
vn -0.2618 0.6609 -0.7033
vn -0.9754 -0.1744 0.1348
vn -0.5358 -0.5196 0.6655
vn 0.2334 -0.5017 0.8329
vn 0.8476 -0.1239 0.5160
vn 0.9269 0.3688 -0.0694
vn 0.4621 0.6854 -0.5627
vn 0.6001 -0.0306 0.7993
vn 0.6223 -0.2810 0.7306
vn -0.1491 -0.3797 0.9130
vn -0.1589 -0.0975 0.9825
vn 0.5857 0.0743 0.8071
vn -0.1653 0.0062 0.9862
vn 0.9802 0.1361 0.1436
vn 0.9865 0.0933 0.1345
vn 0.7856 0.1546 -0.5991
vn 0.7801 0.1959 -0.5942
vn 0.1342 0.1201 -0.9836
vn 0.1301 0.2189 -0.9670
vn -0.5910 0.0537 -0.8049
vn -0.5906 0.1550 -0.7919
vn -0.9859 -0.0070 -0.1673
vn -0.9855 0.0392 -0.1650
vn -0.8172 -0.0272 0.5757
vn -0.8177 -0.0663 0.5718
vn 0.9932 0.0241 0.1139
vn 0.7730 0.3374 -0.5372
vn 0.1297 0.4873 -0.8635
vn -0.5815 0.4031 -0.7067
vn -0.9817 0.1250 -0.1437
vn -0.8216 -0.2028 0.5328
vn -0.9817 0.1250 -0.1438
vn 0.6229 -0.5039 0.5984
vn -0.1408 -0.6653 0.7332
vn 0.9903 -0.0006 0.1388
vn 0.7741 0.5280 -0.3492
vn 0.1322 0.7898 -0.5990
vn -0.5812 0.6501 -0.4895
vn -0.9813 0.1793 -0.0693
vn -0.8156 -0.3708 0.4442
vn -0.9813 0.1794 -0.0693
vn 0.5565 0.3749 0.7415
vn 0.6592 0.1528 0.7363
vn -0.0623 -0.0015 0.9981
vn -0.1131 0.0856 0.9899
vn 0.4934 0.4610 0.7376
vn -0.1301 0.0850 0.9878
vn 0.7892 0.6134 0.0307
vn 0.8691 0.4938 0.0297
vn 0.5617 0.4420 -0.6994
vn 0.6129 0.3636 -0.7016
vn -0.0431 0.0564 -0.9975
vn -0.0342 0.0713 -0.9969
vn 0.6128 0.3636 -0.7016
vn -0.6422 -0.3024 -0.7044
vn -0.6704 -0.2053 -0.7130
vn -0.9000 -0.4350 -0.0270
vn -0.9489 -0.3133 -0.0370
vn -0.6966 -0.2806 0.6604
vn -0.7264 -0.1959 0.6588
vn -0.9489 -0.3133 -0.0371
vn 0.9618 0.2730 0.0201
vn 0.6630 0.2857 -0.6920
vn -0.0245 0.1886 -0.9817
vn -0.6987 0.0428 -0.7141
vn -0.9963 -0.0727 -0.0466
vn -0.7449 -0.0939 0.6605
vn 0.7108 -0.0940 0.6971
vn -0.0161 -0.2255 0.9741
vn 0.9822 0.1851 0.0301
vn 0.6682 0.4424 -0.5982
vn -0.0160 0.5358 -0.8442
vn -0.6896 0.4135 -0.5946
vn -0.9896 0.1424 0.0183
vn -0.7287 -0.1238 0.6736
vn -0.7877 -0.2193 0.5757
vn -0.0741 -0.3751 0.9240
vn 0.9940 -0.0574 0.0935
vn 0.8304 0.1964 -0.5215
vn -0.5592 0.3221 -0.7639
vn -0.9887 0.0727 -0.1313
vn 0.6689 -0.2916 0.6838
vn 0.2274 0.3637 -0.9033
vn 0.6573 0.4378 -0.6134
vn 0.0521 0.2013 -0.9782
vn 0.0552 0.0703 -0.9960
vn 0.4605 0.6117 -0.6432
vn 0.9153 0.3998 0.0486
vn 0.6025 0.7947 0.0737
vn 0.7106 0.1510 0.6872
vn 0.4106 0.5342 0.7390
vn 0.1323 -0.1529 0.9793
vn -0.0219 -0.0365 0.9991
vn -0.5206 -0.3860 0.7616
vn -0.4563 -0.6092 0.6486
vn -0.8917 -0.4488 0.0590
vn -0.5886 -0.8006 -0.1123
vn -0.6419 -0.1936 -0.7419
vn -0.8917 -0.4488 0.0589
vn -0.3690 -0.5091 -0.7776
vn 0.0997 0.7984 -0.5939
vn 0.3059 0.9476 0.0917
vn 0.3366 0.5846 0.7382
vn 0.1511 -0.1247 0.9806
vn -0.1504 -0.7764 0.6120
vn -0.3635 -0.9182 -0.1572
vn -0.3634 -0.9183 -0.1572
vn -0.3556 -0.4809 -0.8014
vn -0.1640 0.2224 -0.9611
vn -0.3394 0.8322 -0.4385
vn -0.5524 0.2019 -0.8087
vn -0.6045 0.1857 -0.7746
vn -0.2566 0.8270 -0.5003
vn -0.4275 0.2347 -0.8730
vn -0.2421 0.8419 -0.4823
vn 0.0636 0.9806 0.1852
vn 0.3222 0.5608 0.7627
vn 0.3800 -0.2016 0.9027
vn 0.1894 -0.8479 0.4951
vn -0.1340 -0.9692 -0.2068
vn -0.1339 -0.9692 -0.2068
vn -0.3873 -0.5106 -0.7677
vn 0.0595 0.9772 0.2040
vn 0.4090 0.5339 0.7401
vn 0.4944 -0.2314 0.8379
vn 0.2708 -0.8513 0.4494
vn -0.1230 -0.9752 -0.1843
vn -0.4620 -0.5423 -0.7018
vn 0.2334 0.9657 0.1134
vn 0.5454 0.5115 0.6640
vn 0.5079 -0.2344 0.8289
vn 0.1505 -0.8365 0.5270
vn -0.3089 -0.9495 -0.0546
vn -0.6138 -0.5346 -0.5809
vn -0.2376 0.8030 -0.5465
vn -0.7845 0.3490 -0.5126
vn -0.7389 0.6671 -0.0948
vn -0.1270 0.8678 -0.4805
vn 0.4719 0.8414 -0.2632
vn 0.4719 0.8414 -0.2633
vn 0.9134 0.3087 0.2652
vn 0.6493 -0.4366 0.6227
vn -0.0149 -0.8112 0.5846
vn -0.6396 -0.7250 0.2555
vn -0.9455 -0.2642 -0.1903
vn 0.5948 0.5719 -0.5649
vn 0.9581 -0.0624 -0.2797
vn 0.7377 -0.6429 0.2060
vn 0.0548 -0.8078 0.5868
vn -0.6281 -0.4639 0.6247
vn -0.6282 -0.4639 0.6247
vn -0.9285 0.1328 0.3467
vn 0.7942 0.1159 -0.5965
vn 0.1342 0.1037 -0.9855
vn 0.1427 0.1747 -0.9742
vn 0.7957 0.1003 -0.5974
vn 0.9825 0.0980 0.1582
vn 0.9892 0.0002 0.1466
vn 0.5695 0.0613 0.8197
vn 0.5781 -0.0616 0.8136
vn -0.1894 0.0276 0.9815
vn -0.1861 -0.0452 0.9815
vn -0.8284 0.0165 0.5599
vn -0.8251 0.0348 0.5639
vn -0.9842 0.0338 -0.1736
vn -0.9776 0.1280 -0.1668
vn -0.5923 0.0695 -0.8027
vn -0.9776 0.1281 -0.1668
vn -0.5804 0.1841 -0.7933
vn 0.8097 0.1407 -0.5697
vn 0.9823 -0.1480 0.1150
vn 0.5685 -0.3201 0.7578
vn -0.1990 -0.2583 0.9453
vn -0.8295 -0.0028 0.5586
vn -0.9493 0.2824 -0.1381
vn -0.5258 0.4337 -0.7317
vn 0.1887 0.3756 -0.9074
vn 0.2618 0.6609 -0.7033
vn 0.8504 0.3116 -0.4240
vn 0.9754 -0.1744 0.1348
vn 0.5358 -0.5195 0.6656
vn -0.2336 -0.5021 0.8326
vn -0.8476 -0.1239 0.5160
vn -0.9269 0.3688 -0.0694
vn -0.4621 0.6854 -0.5627
vn -0.6001 -0.0306 0.7993
vn 0.1589 -0.0975 0.9825
vn 0.1491 -0.3797 0.9130
vn -0.6223 -0.2810 0.7306
vn -0.5857 0.0743 0.8071
vn 0.1653 0.0062 0.9862
vn -0.9802 0.1361 0.1436
vn -0.9865 0.0933 0.1345
vn -0.7856 0.1546 -0.5991
vn -0.7801 0.1959 -0.5942
vn -0.1342 0.1201 -0.9836
vn -0.1301 0.2189 -0.9670
vn 0.5910 0.0537 -0.8049
vn 0.5906 0.1550 -0.7919
vn 0.9859 -0.0070 -0.1673
vn 0.9855 0.0392 -0.1650
vn 0.8172 -0.0272 0.5757
vn 0.8177 -0.0663 0.5718
vn -0.9932 0.0241 0.1139
vn -0.7730 0.3374 -0.5372
vn -0.1297 0.4873 -0.8635
vn 0.5815 0.4031 -0.7067
vn 0.9817 0.1250 -0.1437
vn 0.9817 0.1250 -0.1438
vn 0.8216 -0.2028 0.5328
vn 0.1408 -0.6653 0.7332
vn -0.6229 -0.5039 0.5984
vn -0.9903 -0.0006 0.1388
vn -0.7741 0.5280 -0.3492
vn -0.1323 0.7898 -0.5990
vn 0.5812 0.6501 -0.4894
vn 0.9813 0.1793 -0.0693
vn 0.9813 0.1794 -0.0693
vn 0.8156 -0.3708 0.4442
vn -0.5565 0.3749 0.7415
vn 0.1131 0.0856 0.9899
vn 0.0623 -0.0015 0.9981
vn -0.6592 0.1528 0.7363
vn -0.4934 0.4610 0.7376
vn 0.1301 0.0850 0.9878
vn -0.7892 0.6134 0.0307
vn -0.8691 0.4938 0.0297
vn -0.5617 0.4420 -0.6994
vn -0.6129 0.3636 -0.7016
vn 0.0431 0.0564 -0.9975
vn 0.0342 0.0713 -0.9969
vn 0.6422 -0.3024 -0.7044
vn 0.6704 -0.2053 -0.7130
vn 0.9000 -0.4350 -0.0270
vn 0.9489 -0.3133 -0.0370
vn 0.6966 -0.2806 0.6604
vn 0.9489 -0.3133 -0.0371
vn 0.7264 -0.1959 0.6588
vn -0.9618 0.2730 0.0201
vn -0.6630 0.2857 -0.6920
vn -0.6630 0.2856 -0.6920
vn 0.0245 0.1886 -0.9817
vn 0.6987 0.0428 -0.7141
vn 0.9963 -0.0727 -0.0466
vn 0.7449 -0.0939 0.6605
vn 0.0161 -0.2255 0.9741
vn -0.7108 -0.0940 0.6971
vn -0.9822 0.1851 0.0301
vn -0.6682 0.4424 -0.5982
vn 0.0160 0.5358 -0.8442
vn 0.6896 0.4135 -0.5946
vn 0.9896 0.1424 0.0183
vn 0.7287 -0.1238 0.6736
vn 0.0741 -0.3751 0.9240
vn 0.7877 -0.2193 0.5757
vn -0.8304 0.1964 -0.5215
vn -0.9940 -0.0574 0.0935
vn 0.9887 0.0727 -0.1313
vn 0.5592 0.3221 -0.7639
vn -0.6689 -0.2916 0.6838
vn -0.2274 0.3637 -0.9033
vt 0.407995 0.781255
vt 0.410666 0.778471
vt 0.404726 0.777274
vt 0.165632 0.010199
vt 0.168500 0.009054
vt 0.165570 0.004594
vt 0.495877 0.996276
vt 0.493469 0.998573
vt 0.499147 0.999836
vt 0.490663 0.467113
vt 0.493737 0.465722
vt 0.488745 0.462615
vt 0.570615 0.707104
vt 0.567647 0.706140
vt 0.566772 0.710317
vt 0.170718 0.006854
vt 0.361673 0.497448
vt 0.364188 0.500254
vt 0.367622 0.496515
vt 0.570483 0.997219
vt 0.567236 0.995212
vt 0.565037 0.999836
vt 0.366911 0.501300
vt 0.369820 0.501091
vt 0.564906 0.706526
vt 0.172187 0.002971
vt 0.564267 0.995007
vt 0.562301 0.708124
vt 0.373034 0.499137
vt 0.034877 0.999836
vt 0.033396 0.996510
vt 0.028659 0.998743
vt 0.031244 0.994551
vt 0.028604 0.993533
vt 0.561504 0.996122
vt 0.398822 0.776075
vt 0.400135 0.779692
vt 0.402443 0.781615
vt 0.405170 0.782170
vt 0.504094 0.996787
vt 0.501073 0.995403
vt 0.559051 0.999046
vt 0.025002 0.993649
vt 0.498389 0.995309
vt 0.482988 0.463810
vt 0.485391 0.466182
vt 0.487933 0.467200
vt 0.161578 0.010020
vt 0.060140 0.045641
vt 0.026967 0.238916
vt 0.052656 0.242014
vt 0.081860 0.059689
vt 0.040360 0.031590
vt 0.000164 0.236794
vt 0.212558 0.950481
vt 0.179463 0.764544
vt 0.153506 0.768086
vt 0.190436 0.957017
vt 0.232266 0.942386
vt 0.205671 0.760982
vt 0.250567 0.931139
vt 0.231151 0.758515
vt 0.269516 0.917873
vt 0.256854 0.757236
vt 0.107545 0.070816
vt 0.077128 0.245802
vt 0.102203 0.249463
vt 0.132663 0.077537
vt 0.002423 0.458326
vt 0.025566 0.455709
vt 0.181463 0.545771
vt 0.158474 0.540750
vt 0.205526 0.550847
vt 0.230155 0.554772
vt 0.254031 0.556975
vt 0.070142 0.448575
vt 0.093075 0.445116
vt 0.047882 0.452394
vt 0.065896 0.593119
vt 0.101793 0.720494
vt 0.118372 0.716838
vt 0.085976 0.586555
vt 0.043647 0.527547
vt 0.064363 0.521700
vt 0.021656 0.534164
vt 0.200391 0.478047
vt 0.179987 0.470918
vt 0.221476 0.484703
vt 0.243112 0.490644
vt 0.264884 0.495483
vt 0.084975 0.515955
vt 0.106582 0.510151
vt 0.045938 0.599557
vt 0.222645 0.419480
vt 0.204231 0.412591
vt 0.241173 0.425828
vt 0.260345 0.431312
vt 0.279314 0.435590
vt 0.105778 0.580273
vt 0.126205 0.574414
vt 0.085139 0.725062
vt 0.255033 0.299693
vt 0.239481 0.297501
vt 0.270593 0.302141
vt 0.286042 0.304717
vt 0.302449 0.307094
vt 0.136175 0.714528
vt 0.153178 0.713682
vt 0.111448 0.812892
vt 0.070702 0.914979
vt 0.077488 0.919016
vt 0.122730 0.814432
vt 0.099854 0.812441
vt 0.260181 0.205055
vt 0.246118 0.208202
vt 0.274419 0.202170
vt 0.287875 0.199812
vt 0.300654 0.197523
vt 0.134428 0.816965
vt 0.146817 0.820696
vt 0.063734 0.911089
vt 0.214711 0.096394
vt 0.207189 0.099437
vt 0.222510 0.092062
vt 0.229800 0.086987
vt 0.236406 0.081836
vt 0.084650 0.923042
vt 0.091769 0.926903
vt 0.478749 0.706390
vt 0.475317 0.667857
vt 0.458960 0.668087
vt 0.459652 0.709426
vt 0.497424 0.702648
vt 0.491881 0.666565
vt 0.558329 0.764994
vt 0.555482 0.797987
vt 0.571063 0.798398
vt 0.574648 0.766633
vt 0.541842 0.762289
vt 0.539519 0.797796
vt 0.524865 0.759442
vt 0.523665 0.797864
vt 0.507621 0.757884
vt 0.507963 0.798450
vt 0.440332 0.710317
vt 0.442804 0.667153
vt 0.426729 0.664950
vt 0.421666 0.708580
vt 0.491640 0.584770
vt 0.479528 0.584163
vt 0.558071 0.878220
vt 0.570360 0.877338
vt 0.545876 0.879698
vt 0.533744 0.881584
vt 0.521839 0.883734
vt 0.455856 0.580708
vt 0.444120 0.577978
vt 0.467665 0.582780
vt 0.489496 0.501599
vt 0.481864 0.500507
vt 0.497424 0.502250
vt 0.566953 0.959900
vt 0.574648 0.960105
vt 0.558583 0.960758
vt 0.550428 0.962696
vt 0.543144 0.965349
vt 0.474216 0.498877
vt 0.466349 0.496645
vt 0.358116 0.732773
vt 0.361405 0.639654
vt 0.348165 0.638403
vt 0.340641 0.732132
vt 0.358599 0.773879
vt 0.340381 0.774260
vt 0.376825 0.774275
vt 0.375505 0.733190
vt 0.485826 0.711560
vt 0.484774 0.761013
vt 0.502982 0.761914
vt 0.507293 0.714347
vt 0.464014 0.710645
vt 0.466852 0.761435
vt 0.442405 0.712469
vt 0.449153 0.763326
vt 0.421666 0.716743
vt 0.431124 0.766860
vt 0.321767 0.775241
vt 0.323136 0.731309
vt 0.305936 0.730100
vt 0.302778 0.775747
vt 0.374204 0.640236
vt 0.490047 0.858592
vt 0.502763 0.858110
vt 0.477472 0.859826
vt 0.464844 0.861893
vt 0.452380 0.864714
vt 0.335116 0.636629
vt 0.322487 0.634472
vt 0.369040 0.545311
vt 0.360526 0.544640
vt 0.376825 0.545005
vt 0.499342 0.953056
vt 0.507293 0.952335
vt 0.491558 0.954105
vt 0.483800 0.955595
vt 0.476009 0.957408
vt 0.352184 0.542871
vt 0.344762 0.540416
vt 0.375702 0.963524
vt 0.388524 0.882182
vt 0.372885 0.878281
vt 0.353919 0.961089
vt 0.374761 0.996940
vt 0.351137 0.999352
vt 0.397641 0.995605
vt 0.397939 0.965217
vt 0.421338 0.996356
vt 0.419699 0.965375
vt 0.549734 0.474841
vt 0.545584 0.513963
vt 0.568179 0.515802
vt 0.575122 0.482061
vt 0.523594 0.469949
vt 0.523279 0.514239
vt 0.497752 0.469201
vt 0.501253 0.516629
vt 0.326702 0.999836
vt 0.332849 0.957710
vt 0.312163 0.952942
vt 0.302778 0.996401
vt 0.404318 0.884916
vt 0.419557 0.885994
vt 0.553342 0.600165
vt 0.569053 0.598773
vt 0.538066 0.603019
vt 0.523175 0.607185
vt 0.357702 0.873606
vt 0.343193 0.868456
vt 0.403134 0.808244
vt 0.393594 0.806011
vt 0.412665 0.808505
vt 0.421338 0.807257
vt 0.566186 0.677848
vt 0.575122 0.677237
vt 0.557623 0.679412
vt 0.548842 0.682053
vt 0.384898 0.802001
vt 0.377591 0.797037
vt 0.237811 0.986329
vt 0.260838 0.974840
vt 0.153178 0.037621
vt 0.132027 0.027665
vt 0.091425 0.013041
vt 0.071864 0.000164
vt 0.282368 0.964092
vt 0.111706 0.021159
vt 0.214681 0.999836
vt 0.302449 0.950609
s 1
usemtl Chifre
f 1/1/1 2/2/2 3/3/3
f 4/4/4 5/5/5 6/6/6
f 7/7/7 8/8/8 9/9/9
f 10/10/10 11/11/11 12/12/12
f 13/13/13 14/14/14 15/15/3
f 5/5/5 16/16/15 6/6/6
f 17/17/8 18/18/16 19/19/17
f 20/20/11 21/21/18 22/22/12
f 23/23/19 24/24/20 19/19/17
f 14/14/14 25/25/21 15/15/3
f 18/18/16 23/23/19 19/19/17
f 16/16/15 26/26/22 6/6/6
f 21/21/18 27/27/23 22/22/12
f 25/25/21 28/28/24 15/15/3
f 24/24/20 29/29/25 19/19/17
f 30/30/22 31/31/26 32/32/27
f 33/33/28 34/34/29 32/32/27
f 27/27/23 35/35/30 22/22/12
f 31/31/26 33/33/28 32/32/27
f 36/36/31 37/37/32 3/3/3
f 38/38/33 39/39/34 3/3/3
f 40/40/25 41/41/35 9/9/9
f 37/37/32 38/38/33 3/3/3
f 35/35/30 42/42/36 22/22/12
f 34/34/29 43/43/37 32/32/27
f 41/41/35 44/44/38 9/9/9
f 39/39/34 1/1/1 3/3/3
f 45/45/36 46/46/39 12/12/12
f 47/47/40 10/10/10 12/12/12
f 48/48/41 4/4/4 6/6/6
f 44/44/38 7/7/7 9/9/9
f 46/46/39 47/47/40 12/12/12
f 49/1/42 50/3/43 51/2/44
f 52/4/45 53/6/46 54/5/47
f 55/7/48 56/9/49 57/8/50
f 58/10/51 59/12/52 60/11/53
f 61/13/54 62/15/43 63/14/55
f 54/5/47 53/6/46 64/16/56
f 65/17/50 66/19/57 67/18/58
f 68/20/53 69/22/52 70/21/59
f 71/23/60 66/19/57 72/24/61
f 63/14/55 62/15/43 73/25/62
f 67/18/58 66/19/57 71/23/60
f 64/16/56 53/6/46 74/26/63
f 70/21/59 69/22/52 75/27/64
f 73/25/62 62/15/43 76/28/65
f 72/24/61 66/19/57 77/29/66
f 78/30/63 79/32/67 80/31/68
f 81/33/69 79/32/67 82/34/70
f 75/27/64 69/22/52 83/35/71
f 80/31/68 79/32/67 81/33/69
f 84/36/72 50/3/43 85/37/73
f 86/38/74 50/3/43 87/39/75
f 88/40/76 56/9/49 89/41/77
f 85/37/73 50/3/43 86/38/74
f 83/35/71 69/22/52 90/42/78
f 82/34/70 79/32/67 91/43/79
f 89/41/77 56/9/49 92/44/80
f 87/39/75 50/3/43 49/1/42
f 93/45/78 59/12/52 94/46/81
f 95/47/82 59/12/52 58/10/51
f 96/48/83 53/6/46 52/4/45
f 92/44/80 56/9/49 55/7/48
f 94/46/81 59/12/52 95/47/82
f 97/49/84 98/50/85 99/51/86
f 97/49/84 99/51/86 100/52/87
f 101/53/88 102/54/89 98/50/85
f 101/53/88 98/50/85 97/49/84
f 103/55/90 104/56/91 105/57/89
f 103/55/90 105/57/89 106/58/88
f 107/59/92 108/60/93 104/56/91
f 107/59/92 104/56/91 103/55/90
f 109/61/94 110/62/95 108/60/93
f 109/61/94 108/60/93 107/59/92
f 111/63/96 112/64/97 110/62/95
f 111/63/96 110/62/95 109/61/94
f 113/65/98 114/66/99 115/67/97
f 113/65/98 115/67/97 116/68/100
f 100/52/87 99/51/86 114/66/99
f 100/52/87 114/66/99 113/65/98
f 102/54/89 117/69/101 118/70/102
f 102/54/89 118/70/102 98/50/85
f 104/56/91 119/71/103 120/72/101
f 104/56/91 120/72/101 105/57/89
f 108/60/93 121/73/104 119/71/103
f 108/60/93 119/71/103 104/56/91
f 110/62/95 122/74/105 121/73/104
f 110/62/95 121/73/104 108/60/93
f 112/64/97 123/75/106 122/74/105
f 112/64/97 122/74/105 110/62/95
f 114/66/99 124/76/107 125/77/108
f 114/66/99 125/77/108 115/67/97
f 99/51/86 126/78/109 124/76/107
f 99/51/86 124/76/107 114/66/99
f 127/79/110 128/80/111 129/81/112
f 127/79/110 129/81/112 130/82/113
f 118/70/102 131/83/114 132/84/115
f 118/70/102 132/84/115 126/78/109
f 117/69/101 133/85/116 131/83/114
f 117/69/101 131/83/114 118/70/102
f 119/71/103 134/86/117 135/87/116
f 119/71/103 135/87/116 120/72/101
f 121/73/104 136/88/118 134/86/117
f 121/73/104 134/86/117 119/71/103
f 122/74/105 137/89/119 136/88/118
f 122/74/105 136/88/118 121/73/104
f 123/75/106 138/90/120 137/89/119
f 123/75/106 137/89/119 122/74/105
f 124/76/107 139/91/121 140/92/122
f 124/76/107 140/92/122 125/77/108
f 126/78/109 132/84/115 139/91/121
f 126/78/109 139/91/121 124/76/107
f 131/83/114 127/79/110 130/82/113
f 131/83/114 130/82/113 132/84/115
f 133/85/116 141/93/123 127/79/110
f 133/85/116 127/79/110 131/83/114
f 134/86/117 142/94/124 143/95/123
f 134/86/117 143/95/123 135/87/116
f 136/88/118 144/96/125 142/94/124
f 136/88/118 142/94/124 134/86/117
f 137/89/119 145/97/126 144/96/125
f 137/89/119 144/96/125 136/88/118
f 138/90/120 146/98/127 145/97/126
f 138/90/120 145/97/126 137/89/119
f 139/91/121 147/99/128 148/100/127
f 139/91/121 148/100/127 140/92/122
f 132/84/115 130/82/113 147/99/128
f 132/84/115 147/99/128 139/91/121
f 141/93/123 149/101/129 128/80/111
f 141/93/123 128/80/111 127/79/110
f 142/94/124 150/102/130 151/103/129
f 142/94/124 151/103/129 143/95/123
f 144/96/125 152/104/131 150/102/130
f 144/96/125 150/102/130 142/94/124
f 145/97/126 153/105/132 152/104/131
f 145/97/126 152/104/131 144/96/125
f 146/98/127 154/106/133 153/105/132
f 146/98/127 153/105/132 145/97/126
f 147/99/128 155/107/134 156/108/133
f 147/99/128 156/108/133 148/100/127
f 130/82/113 129/81/112 155/107/134
f 130/82/113 155/107/134 147/99/128
f 157/109/135 158/110/136 159/111/137
f 157/109/135 159/111/137 160/112/138
f 149/101/129 161/113/139 157/109/135
f 149/101/129 157/109/135 128/80/111
f 150/102/130 162/114/140 163/115/141
f 150/102/130 163/115/141 151/103/129
f 152/104/131 164/116/142 162/114/140
f 152/104/131 162/114/140 150/102/130
f 153/105/132 165/117/143 164/116/142
f 153/105/132 164/116/142 152/104/131
f 154/106/133 166/118/144 165/117/143
f 154/106/133 165/117/143 153/105/132
f 155/107/134 167/119/145 168/120/144
f 155/107/134 168/120/144 156/108/133
f 129/81/112 160/112/138 167/119/145
f 129/81/112 167/119/145 155/107/134
f 161/113/139 169/121/146 158/110/136
f 161/113/139 158/110/136 157/109/135
f 162/114/140 170/122/147 171/123/146
f 162/114/140 171/123/146 163/115/141
f 164/116/142 172/124/148 170/122/147
f 164/116/142 170/122/147 162/114/140
f 165/117/143 173/125/149 172/124/148
f 165/117/143 172/124/148 164/116/142
f 166/118/144 174/126/150 173/125/149
f 166/118/144 173/125/149 165/117/143
f 167/119/145 175/127/151 176/128/152
f 167/119/145 176/128/152 168/120/144
f 160/112/138 159/111/137 175/127/151
f 160/112/138 175/127/151 167/119/145
f 158/110/136 34/34/29 33/33/28
f 158/110/136 33/33/28 159/111/137
f 169/121/146 43/43/37 34/34/29
f 169/121/146 34/34/29 158/110/136
f 170/122/147 4/4/4 48/48/41
f 170/122/147 48/48/41 171/123/146
f 172/124/148 5/5/5 4/4/4
f 172/124/148 4/4/4 170/122/147
f 173/125/149 16/16/15 5/5/5
f 173/125/149 5/5/5 172/124/148
f 174/126/150 26/26/22 16/16/15
f 174/126/150 16/16/15 173/125/149
f 175/127/151 31/31/26 30/30/22
f 175/127/151 30/30/22 176/128/152
f 159/111/137 33/33/28 31/31/26
f 159/111/137 31/31/26 175/127/151
f 177/129/153 178/130/154 179/131/155
f 177/129/153 179/131/155 180/132/156
f 181/133/157 182/134/158 178/130/154
f 181/133/157 178/130/154 177/129/153
f 183/135/159 184/136/160 185/137/158
f 183/135/159 185/137/158 186/138/157
f 187/139/161 188/140/162 184/136/160
f 187/139/161 184/136/160 183/135/159
f 189/141/163 190/142/164 188/140/162
f 189/141/163 188/140/162 187/139/161
f 191/143/165 192/144/166 190/142/164
f 191/143/165 190/142/164 189/141/163
f 193/145/167 194/146/168 195/147/169
f 193/145/167 195/147/169 196/148/165
f 180/132/156 179/131/155 194/146/168
f 180/132/156 194/146/168 193/145/167
f 182/134/158 197/149/170 198/150/171
f 182/134/158 198/150/171 178/130/154
f 184/136/160 199/151/172 200/152/170
f 184/136/160 200/152/170 185/137/158
f 188/140/162 201/153/173 199/151/172
f 188/140/162 199/151/172 184/136/160
f 190/142/164 202/154/174 201/153/173
f 190/142/164 201/153/173 188/140/162
f 192/144/166 203/155/175 202/154/174
f 192/144/166 202/154/174 190/142/164
f 194/146/168 204/156/176 205/157/175
f 194/146/168 205/157/175 195/147/169
f 179/131/155 206/158/177 204/156/176
f 179/131/155 204/156/176 194/146/168
f 198/150/171 207/159/178 208/160/179
f 198/150/171 208/160/179 206/158/177
f 197/149/170 209/161/180 207/159/178
f 197/149/170 207/159/178 198/150/171
f 199/151/172 210/162/181 211/163/180
f 199/151/172 211/163/180 200/152/170
f 201/153/173 212/164/182 210/162/181
f 201/153/173 210/162/181 199/151/172
f 202/154/174 213/165/183 212/164/182
f 202/154/174 212/164/182 201/153/173
f 203/155/175 214/166/184 213/165/183
f 203/155/175 213/165/183 202/154/174
f 204/156/176 215/167/185 216/168/184
f 204/156/176 216/168/184 205/157/175
f 206/158/177 208/160/179 215/167/185
f 206/158/177 215/167/185 204/156/176
f 217/169/186 218/170/187 219/171/188
f 217/169/186 219/171/188 220/172/189
f 207/159/178 10/10/10 47/47/40
f 207/159/178 47/47/40 208/160/179
f 209/161/180 11/11/11 10/10/10
f 209/161/180 10/10/10 207/159/178
f 210/162/181 21/21/18 20/20/11
f 210/162/181 20/20/11 211/163/180
f 212/164/182 27/27/23 21/21/18
f 212/164/182 21/21/18 210/162/181
f 213/165/183 35/35/30 27/27/23
f 213/165/183 27/27/23 212/164/182
f 214/166/184 42/42/36 35/35/30
f 214/166/184 35/35/30 213/165/183
f 215/167/185 46/46/39 45/45/36
f 215/167/185 45/45/36 216/168/184
f 208/160/179 47/47/40 46/46/39
f 208/160/179 46/46/39 215/167/185
f 221/173/190 217/169/186 220/172/189
f 221/173/190 220/172/189 222/174/191
f 223/175/192 224/176/193 217/169/186
f 223/175/192 217/169/186 221/173/190
f 225/177/194 226/178/195 227/179/193
f 225/177/194 227/179/193 228/180/192
f 229/181/196 230/182/197 226/178/195
f 229/181/196 226/178/195 225/177/194
f 231/183/198 232/184/199 230/182/197
f 231/183/198 230/182/197 229/181/196
f 233/185/200 234/186/201 232/184/199
f 233/185/200 232/184/199 231/183/198
f 235/187/202 236/188/203 237/189/201
f 235/187/202 237/189/201 238/190/200
f 222/174/191 220/172/189 236/188/203
f 222/174/191 236/188/203 235/187/202
f 224/176/193 239/191/204 218/170/187
f 224/176/193 218/170/187 217/169/186
f 226/178/195 240/192/205 241/193/204
f 226/178/195 241/193/204 227/179/193
f 230/182/197 242/194/206 240/192/205
f 230/182/197 240/192/205 226/178/195
f 232/184/199 243/195/207 242/194/206
f 232/184/199 242/194/206 230/182/197
f 234/186/201 244/196/208 243/195/207
f 234/186/201 243/195/207 232/184/199
f 236/188/203 245/197/209 246/198/210
f 236/188/203 246/198/210 237/189/201
f 220/172/189 219/171/188 245/197/209
f 220/172/189 245/197/209 236/188/203
f 218/170/187 247/199/211 248/200/212
f 218/170/187 248/200/212 219/171/188
f 239/191/204 249/201/213 247/199/211
f 239/191/204 247/199/211 218/170/187
f 240/192/205 250/202/214 251/203/213
f 240/192/205 251/203/213 241/193/204
f 242/194/206 252/204/215 250/202/214
f 242/194/206 250/202/214 240/192/205
f 243/195/207 253/205/216 252/204/215
f 243/195/207 252/204/215 242/194/206
f 244/196/208 254/206/217 253/205/216
f 244/196/208 253/205/216 243/195/207
f 245/197/209 255/207/218 256/208/219
f 245/197/209 256/208/219 246/198/210
f 219/171/188 248/200/212 255/207/218
f 219/171/188 255/207/218 245/197/209
f 257/209/220 258/210/221 259/211/222
f 257/209/220 259/211/222 260/212/223
f 247/199/211 24/24/20 23/23/19
f 247/199/211 23/23/19 248/200/212
f 249/201/213 29/29/25 24/24/20
f 249/201/213 24/24/20 247/199/211
f 250/202/214 41/41/35 40/40/25
f 250/202/214 40/40/25 251/203/213
f 252/204/215 44/44/38 41/41/35
f 252/204/215 41/41/35 250/202/214
f 253/205/216 7/7/7 44/44/38
f 253/205/216 44/44/38 252/204/215
f 254/206/217 8/8/8 7/7/7
f 254/206/217 7/7/7 253/205/216
f 255/207/218 18/18/16 17/17/8
f 255/207/218 17/17/8 256/208/219
f 248/200/212 23/23/19 18/18/16
f 248/200/212 18/18/16 255/207/218
f 261/213/224 257/209/220 260/212/223
f 261/213/224 260/212/223 262/214/225
f 263/215/226 264/216/227 257/209/220
f 263/215/226 257/209/220 261/213/224
f 265/217/228 266/218/229 264/216/227
f 265/217/228 264/216/227 263/215/226
f 267/219/230 268/220/231 269/221/232
f 267/219/230 269/221/232 270/222/228
f 271/223/233 272/224/234 268/220/231
f 271/223/233 268/220/231 267/219/230
f 273/225/235 274/226/236 272/224/234
f 273/225/235 272/224/234 271/223/233
f 275/227/237 276/228/238 277/229/239
f 275/227/237 277/229/239 278/230/235
f 262/214/225 260/212/223 276/228/238
f 262/214/225 276/228/238 275/227/237
f 264/216/227 279/231/240 258/210/221
f 264/216/227 258/210/221 257/209/220
f 266/218/229 280/232/241 279/231/240
f 266/218/229 279/231/240 264/216/227
f 268/220/231 281/233/242 282/234/241
f 268/220/231 282/234/241 269/221/232
f 272/224/234 283/235/243 281/233/242
f 272/224/234 281/233/242 268/220/231
f 274/226/236 284/236/244 283/235/243
f 274/226/236 283/235/243 272/224/234
f 276/228/238 285/237/245 286/238/244
f 276/228/238 286/238/244 277/229/239
f 260/212/223 259/211/222 285/237/245
f 260/212/223 285/237/245 276/228/238
f 258/210/221 287/239/246 288/240/247
f 258/210/221 288/240/247 259/211/222
f 279/231/240 289/241/248 287/239/246
f 279/231/240 287/239/246 258/210/221
f 280/232/241 290/242/249 289/241/248
f 280/232/241 289/241/248 279/231/240
f 281/233/242 291/243/250 292/244/249
f 281/233/242 292/244/249 282/234/241
f 283/235/243 293/245/251 291/243/250
f 283/235/243 291/243/250 281/233/242
f 284/236/244 294/246/252 293/245/251
f 284/236/244 293/245/251 283/235/243
f 285/237/245 295/247/253 296/248/252
f 285/237/245 296/248/252 286/238/244
f 259/211/222 288/240/247 295/247/253
f 259/211/222 295/247/253 285/237/245
f 287/239/246 39/39/34 38/38/33
f 287/239/246 38/38/33 288/240/247
f 289/241/248 1/1/1 39/39/34
f 289/241/248 39/39/34 287/239/246
f 290/242/249 2/2/2 1/1/1
f 290/242/249 1/1/1 289/241/248
f 291/243/250 14/14/14 13/13/13
f 291/243/250 13/13/13 292/244/249
f 293/245/251 25/25/21 14/14/14
f 293/245/251 14/14/14 291/243/250
f 294/246/252 28/28/24 25/25/21
f 294/246/252 25/25/21 293/245/251
f 295/247/253 37/37/32 36/36/31
f 295/247/253 36/36/31 296/248/252
f 288/240/247 38/38/33 37/37/32
f 288/240/247 37/37/32 295/247/253
f 178/130/154 198/150/171 206/158/177
f 178/130/154 206/158/177 179/131/155
f 98/50/85 118/70/102 126/78/109
f 98/50/85 126/78/109 99/51/86
f 128/80/111 157/109/135 160/112/138
f 128/80/111 160/112/138 129/81/112
f 107/59/92 103/55/90 297/249/254
f 107/59/92 297/249/254 298/250/255
f 113/65/98 116/68/100 299/251/256
f 113/65/98 299/251/256 300/252/257
f 101/53/88 97/49/84 301/253/258
f 101/53/88 301/253/258 302/254/259
f 109/61/94 107/59/92 298/250/255
f 109/61/94 298/250/255 303/255/260
f 100/52/87 113/65/98 300/252/257
f 100/52/87 300/252/257 304/256/261
f 97/49/84 100/52/87 304/256/261
f 97/49/84 304/256/261 301/253/258
f 103/55/90 106/58/88 305/257/259
f 103/55/90 305/257/259 297/249/254
f 111/63/96 109/61/94 303/255/260
f 111/63/96 303/255/260 306/258/256
f 307/49/262 308/52/263 309/51/264
f 307/49/262 309/51/264 310/50/265
f 311/53/266 307/49/262 310/50/265
f 311/53/266 310/50/265 312/54/267
f 313/55/268 314/58/266 315/57/267
f 313/55/268 315/57/267 316/56/269
f 317/59/270 313/55/268 316/56/269
f 317/59/270 316/56/269 318/60/271
f 319/61/272 317/59/270 318/60/271
f 319/61/272 318/60/271 320/62/273
f 321/63/274 319/61/272 320/62/273
f 321/63/274 320/62/273 322/64/275
f 323/65/276 324/68/277 325/67/275
f 323/65/276 325/67/275 326/66/278
f 308/52/263 323/65/276 326/66/278
f 308/52/263 326/66/278 309/51/264
f 312/54/267 310/50/265 327/70/279
f 312/54/267 327/70/279 328/69/280
f 316/56/269 315/57/267 329/72/280
f 316/56/269 329/72/280 330/71/281
f 318/60/271 316/56/269 330/71/281
f 318/60/271 330/71/281 331/73/282
f 320/62/273 318/60/271 331/73/282
f 320/62/273 331/73/282 332/74/283
f 322/64/275 320/62/273 332/74/283
f 322/64/275 332/74/283 333/75/284
f 326/66/278 325/67/275 334/77/285
f 326/66/278 334/77/285 335/76/286
f 309/51/264 326/66/278 335/76/286
f 309/51/264 335/76/286 336/78/287
f 337/79/288 338/82/289 339/81/290
f 337/79/288 339/81/290 340/80/291
f 327/70/279 336/78/287 341/84/292
f 327/70/279 341/84/292 342/83/293
f 328/69/280 327/70/279 342/83/293
f 328/69/280 342/83/293 343/85/294
f 330/71/281 329/72/280 344/87/294
f 330/71/281 344/87/294 345/86/295
f 331/73/282 330/71/281 345/86/295
f 331/73/282 345/86/295 346/88/296
f 332/74/283 331/73/282 346/88/296
f 332/74/283 346/88/296 347/89/297
f 333/75/284 332/74/283 347/89/297
f 333/75/284 347/89/297 348/90/298
f 335/76/286 334/77/285 349/92/299
f 335/76/286 349/92/299 350/91/300
f 336/78/287 335/76/286 350/91/300
f 336/78/287 350/91/300 341/84/292
f 342/83/293 341/84/292 338/82/289
f 342/83/293 338/82/289 337/79/288
f 343/85/294 342/83/293 337/79/288
f 343/85/294 337/79/288 351/93/301
f 345/86/295 344/87/294 352/95/301
f 345/86/295 352/95/301 353/94/302
f 346/88/296 345/86/295 353/94/302
f 346/88/296 353/94/302 354/96/303
f 347/89/297 346/88/296 354/96/303
f 347/89/297 354/96/303 355/97/304
f 348/90/298 347/89/297 355/97/304
f 348/90/298 355/97/304 356/98/305
f 350/91/300 349/92/299 357/100/305
f 350/91/300 357/100/305 358/99/306
f 341/84/292 350/91/300 358/99/306
f 341/84/292 358/99/306 338/82/289
f 351/93/301 337/79/288 340/80/291
f 351/93/301 340/80/291 359/101/307
f 353/94/302 352/95/301 360/103/307
f 353/94/302 360/103/307 361/102/308
f 354/96/303 353/94/302 361/102/308
f 354/96/303 361/102/308 362/104/309
f 355/97/304 354/96/303 362/104/309
f 355/97/304 362/104/309 363/105/310
f 356/98/305 355/97/304 363/105/310
f 356/98/305 363/105/310 364/106/311
f 358/99/306 357/100/305 365/108/311
f 358/99/306 365/108/311 366/107/312
f 338/82/289 358/99/306 366/107/312
f 338/82/289 366/107/312 339/81/290
f 367/109/313 368/112/314 369/111/315
f 367/109/313 369/111/315 370/110/316
f 359/101/307 340/80/291 367/109/313
f 359/101/307 367/109/313 371/113/317
f 361/102/308 360/103/307 372/115/318
f 361/102/308 372/115/318 373/114/319
f 362/104/309 361/102/308 373/114/319
f 362/104/309 373/114/319 374/116/320
f 363/105/310 362/104/309 374/116/320
f 363/105/310 374/116/320 375/117/321
f 364/106/311 363/105/310 375/117/321
f 364/106/311 375/117/321 376/118/322
f 366/107/312 365/108/311 377/120/322
f 366/107/312 377/120/322 378/119/323
f 339/81/290 366/107/312 378/119/323
f 339/81/290 378/119/323 368/112/314
f 371/113/317 367/109/313 370/110/316
f 371/113/317 370/110/316 379/121/324
f 373/114/319 372/115/318 380/123/324
f 373/114/319 380/123/324 381/122/325
f 374/116/320 373/114/319 381/122/325
f 374/116/320 381/122/325 382/124/326
f 375/117/321 374/116/320 382/124/326
f 375/117/321 382/124/326 383/125/327
f 376/118/322 375/117/321 383/125/327
f 376/118/322 383/125/327 384/126/328
f 378/119/323 377/120/322 385/128/329
f 378/119/323 385/128/329 386/127/330
f 368/112/314 378/119/323 386/127/330
f 368/112/314 386/127/330 369/111/315
f 370/110/316 369/111/315 81/33/69
f 370/110/316 81/33/69 82/34/70
f 379/121/324 370/110/316 82/34/70
f 379/121/324 82/34/70 91/43/79
f 381/122/325 380/123/324 96/48/83
f 381/122/325 96/48/83 52/4/45
f 382/124/326 381/122/325 52/4/45
f 382/124/326 52/4/45 54/5/47
f 383/125/327 382/124/326 54/5/47
f 383/125/327 54/5/47 64/16/56
f 384/126/328 383/125/327 64/16/56
f 384/126/328 64/16/56 74/26/63
f 386/127/330 385/128/329 78/30/63
f 386/127/330 78/30/63 80/31/68
f 369/111/315 386/127/330 80/31/68
f 369/111/315 80/31/68 81/33/69
f 387/129/331 388/132/332 389/131/333
f 387/129/331 389/131/333 390/130/334
f 391/133/335 387/129/331 390/130/334
f 391/133/335 390/130/334 392/134/336
f 393/135/337 394/138/335 395/137/336
f 393/135/337 395/137/336 396/136/338
f 397/139/339 393/135/337 396/136/338
f 397/139/339 396/136/338 398/140/340
f 399/141/341 397/139/339 398/140/340
f 399/141/341 398/140/340 400/142/342
f 401/143/343 399/141/341 400/142/342
f 401/143/343 400/142/342 402/144/344
f 403/145/345 404/148/343 405/147/346
f 403/145/345 405/147/346 406/146/347
f 388/132/332 403/145/345 406/146/347
f 388/132/332 406/146/347 389/131/333
f 392/134/336 390/130/334 407/150/348
f 392/134/336 407/150/348 408/149/349
f 396/136/338 395/137/336 409/152/349
f 396/136/338 409/152/349 410/151/350
f 398/140/340 396/136/338 410/151/350
f 398/140/340 410/151/350 411/153/351
f 400/142/342 398/140/340 411/153/351
f 400/142/342 411/153/351 412/154/352
f 402/144/344 400/142/342 412/154/352
f 402/144/344 412/154/352 413/155/353
f 406/146/347 405/147/346 414/157/353
f 406/146/347 414/157/353 415/156/354
f 389/131/333 406/146/347 415/156/354
f 389/131/333 415/156/354 416/158/355
f 407/150/348 416/158/355 417/160/356
f 407/150/348 417/160/356 418/159/357
f 408/149/349 407/150/348 418/159/357
f 408/149/349 418/159/357 419/161/358
f 410/151/350 409/152/349 420/163/358
f 410/151/350 420/163/358 421/162/359
f 411/153/351 410/151/350 421/162/359
f 411/153/351 421/162/359 422/164/360
f 412/154/352 411/153/351 422/164/360
f 412/154/352 422/164/360 423/165/361
f 413/155/353 412/154/352 423/165/361
f 413/155/353 423/165/361 424/166/362
f 415/156/354 414/157/353 425/168/362
f 415/156/354 425/168/362 426/167/363
f 416/158/355 415/156/354 426/167/363
f 416/158/355 426/167/363 417/160/356
f 427/169/364 428/172/365 429/171/366
f 427/169/364 429/171/366 430/170/367
f 418/159/357 417/160/356 95/47/82
f 418/159/357 95/47/82 58/10/51
f 419/161/358 418/159/357 58/10/51
f 419/161/358 58/10/51 60/11/53
f 421/162/359 420/163/358 68/20/53
f 421/162/359 68/20/53 70/21/59
f 422/164/360 421/162/359 70/21/59
f 422/164/360 70/21/59 75/27/64
f 423/165/361 422/164/360 75/27/64
f 423/165/361 75/27/64 83/35/71
f 424/166/362 423/165/361 83/35/71
f 424/166/362 83/35/71 90/42/78
f 426/167/363 425/168/362 93/45/78
f 426/167/363 93/45/78 94/46/81
f 417/160/356 426/167/363 94/46/81
f 417/160/356 94/46/81 95/47/82
f 431/173/368 432/174/369 428/172/365
f 431/173/368 428/172/365 427/169/364
f 433/175/370 431/173/368 427/169/364
f 433/175/370 427/169/364 434/176/371
f 435/177/372 436/180/370 437/179/371
f 435/177/372 437/179/371 438/178/373
f 439/181/374 435/177/372 438/178/373
f 439/181/374 438/178/373 440/182/375
f 441/183/376 439/181/374 440/182/375
f 441/183/376 440/182/375 442/184/377
f 443/185/378 441/183/376 442/184/377
f 443/185/378 442/184/377 444/186/379
f 445/187/380 446/190/378 447/189/379
f 445/187/380 447/189/379 448/188/381
f 432/174/369 445/187/380 448/188/381
f 432/174/369 448/188/381 428/172/365
f 434/176/371 427/169/364 430/170/367
f 434/176/371 430/170/367 449/191/382
f 438/178/373 437/179/371 450/193/382
f 438/178/373 450/193/382 451/192/383
f 440/182/375 438/178/373 451/192/383
f 440/182/375 451/192/383 452/194/384
f 442/184/377 440/182/375 452/194/384
f 442/184/377 452/194/384 453/195/385
f 444/186/379 442/184/377 453/195/385
f 444/186/379 453/195/385 454/196/386
f 448/188/381 447/189/379 455/198/387
f 448/188/381 455/198/387 456/197/388
f 428/172/365 448/188/381 456/197/388
f 428/172/365 456/197/388 429/171/366
f 430/170/367 429/171/366 457/200/389
f 430/170/367 457/200/389 458/199/390
f 449/191/382 430/170/367 458/199/390
f 449/191/382 458/199/390 459/201/391
f 451/192/383 450/193/382 460/203/391
f 451/192/383 460/203/391 461/202/392
f 452/194/384 451/192/383 461/202/392
f 452/194/384 461/202/392 462/204/393
f 453/195/385 452/194/384 462/204/393
f 453/195/385 462/204/393 463/205/394
f 454/196/386 453/195/385 463/205/394
f 454/196/386 463/205/394 464/206/395
f 456/197/388 455/198/387 465/208/396
f 456/197/388 465/208/396 466/207/397
f 429/171/366 456/197/388 466/207/397
f 429/171/366 466/207/397 457/200/389
f 467/209/398 468/212/399 469/211/400
f 467/209/398 469/211/400 470/210/401
f 458/199/390 457/200/389 71/23/60
f 458/199/390 71/23/60 72/24/61
f 459/201/391 458/199/390 72/24/61
f 459/201/391 72/24/61 77/29/66
f 461/202/392 460/203/391 88/40/76
f 461/202/392 88/40/76 89/41/77
f 462/204/393 461/202/392 89/41/77
f 462/204/393 89/41/77 92/44/80
f 463/205/394 462/204/393 92/44/80
f 463/205/394 92/44/80 55/7/48
f 464/206/395 463/205/394 55/7/48
f 464/206/395 55/7/48 57/8/50
f 466/207/397 465/208/396 65/17/50
f 466/207/397 65/17/50 67/18/58
f 457/200/389 466/207/397 67/18/58
f 457/200/389 67/18/58 71/23/60
f 471/213/402 472/214/403 468/212/399
f 471/213/402 468/212/399 467/209/398
f 473/215/404 471/213/402 467/209/398
f 473/215/404 467/209/398 474/216/405
f 475/217/406 473/215/404 474/216/405
f 475/217/406 474/216/405 476/218/407
f 477/219/408 478/222/406 479/221/407
f 477/219/408 479/221/407 480/220/409
f 481/223/410 477/219/408 480/220/409
f 481/223/410 480/220/409 482/224/411
f 483/225/412 481/223/410 482/224/411
f 483/225/412 482/224/411 484/226/413
f 485/227/414 486/230/412 487/229/415
f 485/227/414 487/229/415 488/228/416
f 472/214/403 485/227/414 488/228/416
f 472/214/403 488/228/416 468/212/399
f 474/216/405 467/209/398 470/210/401
f 474/216/405 470/210/401 489/231/417
f 476/218/407 474/216/405 489/231/417
f 476/218/407 489/231/417 490/232/418
f 480/220/409 479/221/407 491/234/419
f 480/220/409 491/234/419 492/233/420
f 482/224/411 480/220/409 492/233/420
f 482/224/411 492/233/420 493/235/421
f 484/226/413 482/224/411 493/235/421
f 484/226/413 493/235/421 494/236/422
f 488/228/416 487/229/415 495/238/422
f 488/228/416 495/238/422 496/237/423
f 468/212/399 488/228/416 496/237/423
f 468/212/399 496/237/423 469/211/400
f 470/210/401 469/211/400 497/240/424
f 470/210/401 497/240/424 498/239/425
f 489/231/417 470/210/401 498/239/425
f 489/231/417 498/239/425 499/241/426
f 490/232/418 489/231/417 499/241/426
f 490/232/418 499/241/426 500/242/427
f 492/233/420 491/234/419 501/244/427
f 492/233/420 501/244/427 502/243/428
f 493/235/421 492/233/420 502/243/428
f 493/235/421 502/243/428 503/245/429
f 494/236/422 493/235/421 503/245/429
f 494/236/422 503/245/429 504/246/430
f 496/237/423 495/238/422 505/248/430
f 496/237/423 505/248/430 506/247/431
f 469/211/400 496/237/423 506/247/431
f 469/211/400 506/247/431 497/240/424
f 498/239/425 497/240/424 86/38/74
f 498/239/425 86/38/74 87/39/75
f 499/241/426 498/239/425 87/39/75
f 499/241/426 87/39/75 49/1/42
f 500/242/427 499/241/426 49/1/42
f 500/242/427 49/1/42 51/2/44
f 502/243/428 501/244/427 61/13/54
f 502/243/428 61/13/54 63/14/55
f 503/245/429 502/243/428 63/14/55
f 503/245/429 63/14/55 73/25/62
f 504/246/430 503/245/429 73/25/62
f 504/246/430 73/25/62 76/28/65
f 506/247/431 505/248/430 84/36/72
f 506/247/431 84/36/72 85/37/73
f 497/240/424 506/247/431 85/37/73
f 497/240/424 85/37/73 86/38/74
f 390/130/334 389/131/333 416/158/355
f 390/130/334 416/158/355 407/150/348
f 310/50/265 309/51/264 336/78/287
f 310/50/265 336/78/287 327/70/279
f 340/80/291 339/81/290 368/112/314
f 340/80/291 368/112/314 367/109/313
f 317/59/270 507/250/432 508/249/433
f 317/59/270 508/249/433 313/55/268
f 323/65/276 509/252/434 510/251/435
f 323/65/276 510/251/435 324/68/277
f 311/53/266 511/254/436 512/253/437
f 311/53/266 512/253/437 307/49/262
f 319/61/272 513/255/438 507/250/432
f 319/61/272 507/250/432 317/59/270
f 308/52/263 514/256/439 509/252/434
f 308/52/263 509/252/434 323/65/276
f 307/49/262 512/253/437 514/256/439
f 307/49/262 514/256/439 308/52/263
f 313/55/268 508/249/433 515/257/436
f 313/55/268 515/257/436 314/58/266
f 321/63/274 516/258/435 513/255/438
f 321/63/274 513/255/438 319/61/272
